<?xml version="1.0" encoding="UTF-8"?>
<svg id="a" xmlns="http://www.w3.org/2000/svg" baseProfile="tiny" version="1.2" viewBox="0 0 785.3 599">
  <g id="b">
    <path d="M392.5,300.3H21.4c-3.5,0-7,0-10.5-.2-5.6-.5-9.8-5.1-9.9-10.7,0-5.4,4.1-10,9.9-10.5,2.8-.2,5.7-.2,8.5-.2,82.9,0,165.8,0,248.7.1,5.7,0,7.9-1.3,7.7-7.5-.4-17.6-.2-35.3,0-52.9.2-17,5.2-23.8,20.9-30,1.4-.6,2.8-3.1,2.9-4.8.5-6.5.8-13,.4-19.5-1-16.8,13.2-27.9,31.2-24.8,6.2,1.1,11.1,4,15.1,8.9,4.5,5.6,8.6,5.4,13-.2,7.9-9.8,18.1-10.1,26.7-.6,6.1,6.8,8.7,6.8,14.4-.3,6.2-7.7,15.9-8.5,23.3-1.9.7.7,1.5,1.4,2.1,2.1,7.2,7.4,9.5,7.2,16-1,5.4-6.8,17.9-9.5,28.1-6.1,9.4,3.1,15.8,11.5,15.9,20.9,0,7.5-.2,15,.1,22.5,0,1.6,2,4.1,3.5,4.7,14.2,4.8,20.3,12.6,20.4,27.6,0,18.3,0,36.6,0,54.9s0,7.9,7.7,7.9h246.2c3.7,0,7.4-.2,11,.2,5.4.7,8.7,4,9.5,9.4.7,4.9-2.3,9.5-7.4,11-2.5.7-5.2.9-7.9.9h-376.6.2ZM777.8,296.5h0ZM393.2,154.7h0ZM421.2,164.7c-.7-.7-1.4-1.4-2-2h0c-1.2-.9-2.5-1.7-3.4-2.8-2.4-3-4.3-2.5-6.8.2-10.5,11.3-20.9,11.5-31.7.5-3.5-3.6-5.5-3.2-8.6.3-6.7,7.6-15.3,10.2-24.8,6.5-4-1.6-7.1-5.4-11-7.5-2.8-1.5-6.8-3-9.4-2.1-2.2.8-4.1,4.8-4.7,7.7-.8,4.5-.5,9.3-.5,13.9,0,7.9.3,8.2,8,8.2h133.8c5.3,0,8.2-1.2,7.4-7.2-.4-2.8,0-5.6,0-8.5-.2-5.1,1.7-11.2-4.5-14.1-6.3-3-10.1,1.6-14.3,5.2-8.3,7.1-18.9,7.7-27.5,1.5h0v.2ZM485.1,229.6h0c2.3-2,5.8-3.6,6.7-6.1,3.4-9.3-2.5-17.2-12.4-17.3h-171.7c-7.6,0-12,2.9-13.3,8.7-1.6,7.1-.4,9.5,7.1,13.5,1,.6,2.1,1.1,3,1.9,4.8,4.4,8.7,2.8,12.1-1.8,3.8-5.2,9-8.2,15.1-6.2,3.9,1.3,7.3,4.8,10.3,7.9,4.7,4.8,9,5.1,13.5.1.8-.9,1.4-1.8,2.2-2.7,6.4-7.7,16.8-7.7,23.2.1,1.9,2.3,3.7,4.7,6,6.7,4.3,3.9,9.9,3.3,13.6-1.2,1.2-1.4,2.2-2.9,3.1-4.6,2.6-4.7,6.7-6.5,11.9-6.9,6.5-.4,10.9,2.8,14.8,7.6,6,7.2,10.2,6.9,15.9-.5,1.2-1.6,2.7-2.9,4.1-4.3v.3-.2c.7-.3,1.3-.6,2-1h0c7.3-3.5,11.8-2.3,18.8,4.8,5.9,6,7.5,6.2,14.2,1.2h-.2ZM491.6,244c-15.3,7.6-17.5,7.4-29.6-3.7-2.5-2.3-4-1.4-5.8.6-4.4,4.9-9.5,8.2-16.3,8.6-7.7.4-14.1-2.4-19-8.1-3.3-3.8-5.3-3.1-8.7.3-3.5,3.5-7.9,6.8-12.5,8.5-10.7,3.8-19.4-.6-26.9-8.4-2.1-2.2-3.8-4.4-7.2-.9-11.9,12.5-22.9,12.5-35.1.2-2.6-2.6-4.2-2.8-6.8,0-8.1,8.5-14.9,9.6-24.9,4-3.4-1.9-4.5-1-4.6,2.5,0,7.7,0,15.3-.1,23,0,5.5,2.7,8.2,8.3,8.2h183.3c2.4,0,5.9,1.1,6-3.2v-31.5h0Z" fill="#ffa4bf" stroke-width="0"/>
    <path d="M205.4,65.8c34.3-26.5,72.7-44.6,114.5-55.5C343.8,4,368.1.1,392.8.4c66.3.7,126.4,21,180.2,59.8,10.5,7.6,20.1,16.4,30.1,24.6h0c47,44,79.8,96.3,94,159.6,2.2,10.1,2.1,10.1-8.4,10.1s-12.7-.2-19,0c-4.6.2-6.7-1.6-7.9-6.2-22.5-82.9-72.8-143.7-148.4-183.4-42.9-22.5-88.9-32.9-137.4-29.3-47.4,3.5-91.1,18.8-130.8,44.9-59.7,39.4-99.5,93.8-119.2,162.7-3.2,11.2-3,11.2-14.8,11.2s-11.7-.1-17.5,0c-4.7.1-6.1-1.6-5.1-6.4,8.1-39,23.8-74.7,46.3-107.5,19.6-28.6,42.8-53.9,70.6-74.8h0Z" fill="#ffa4bf" stroke-width="0"/>
    <path d="M249.3,521.3c20.7,13.2,42.4,24.2,65.9,31.7,33.3,10.6,67.3,13.8,102,10.8,53.4-4.6,100.2-25,141.6-58.7,2.3-1.9,5.9-3.1,8.9-3.2,13-.4,25.9-.1,40.1-.1-1.5,2.1-2.4,3.6-3.5,4.8-31.5,37.6-71.7,62-117.6,77.7-35.9,12.2-72.9,16.7-110.6,14.6-62-3.5-117.7-24.1-165.9-63.5-10.4-8.5-19.1-19-28.5-28.6-1.1-1.1-1.9-2.6-3.6-5.1h7.2c10.8,0,21.6-.2,32.4.2,3.2.1,6.8,1.4,9.5,3.2,7.6,5.1,14.7,10.9,22,16.3h.1Z" fill="#ffa4bf" stroke-width="0"/>
    <path d="M139.5,429.4c-2.4-3.4-4.8-6.8-7.4-10.4.6-.3,0-.2-.2.1-7.5,11.3-16,15.2-27.1,12.5-9.9-2.4-17.4-11.2-17.6-23.4-.4-22,6.1-41.7,23.2-56.7,6.9-6,14.9-9.1,24-5.5,3.2,1.3,5.9,4,9.2,6.2.6-8.1,6.7-6.4,11.9-6.4,11.5,0,11.8-1.2,8.9,11-3.5,14.9-7,29.8-10.5,44.7,0,.3-.2.6-.3,1-.4,3.8-2.8,8.2,2.6,10.3,3.9,1.5,10.4-2.5,11.5-7.3,2.8-12,5.4-24,8.1-36,2.5-11.4,4.9-22.8,7.6-34.1,1.3-5.3,1.2-9.6-4.1-13-1.5-.9-2.2-4.4-1.9-6.4.2-1.3,3.1-2.9,4.8-3,8.1-.3,16.3-.1,24.5-.2,3.7,0,4.6,1.5,3.7,5-3.3,13.6-6.4,27.2-9.6,40.8-.3,1.2-.4,2.5-.8,5.5,2.9-3,4.5-5.1,6.4-6.8,4.4-3.8,8.6-7.9,13.5-10.9s10.7-3.2,15.4.8c4.9,4.1,4.8,9.7,3.2,15.2-2.7,9.2-9.4,15.5-17.6,19.5-6.3,3.1-7.6,6.6-4.5,12.6,2,4,3,8.5,5.2,12.4,1.3,2.3,3.7,4.4,6.1,5.4,5.4,2.1,7.1.2,6.1-5.4-4.1-21.9,3-40.1,19.3-54.6,8-7.1,17.9-8.4,28.2-6.2,9.5,2.1,14.9,11.8,12,21.2-3.5,11.1-11.9,17.8-21.5,23.2-4.1,2.4-8.8,4-13.3,5.6-3.1,1.1-3.7,2.7-2.8,5.7,2.5,8.6,9.6,13.5,17.9,10.2,6.5-2.6,12-7.8,18-11.8,1.8-1.1,3.7-2,5.6-2.9.6,2.3,2,4.7,1.6,6.8-3.7,21.2-29,34.3-48.4,25.3h0c-3.2-2.4-6.2-2.1-10.1-.6-4.8,1.9-10.2,3-15.4,3.4-9.2.7-16-3.5-20.3-11.6-3.9-7.3-7.5-14.7-11.8-23-.8,1.9-1.5,2.9-1.8,4-1.8,7.6-3.8,15.1-5.2,22.8-.9,4.9-3.2,7.4-8.4,6.7-4.5-.6-9.1-1.1-13.6-1.4-1.2,0-2.5.7-3.7,1.1-7,2-14,2.8-20.6-1.3h0ZM111.5,352.5h0ZM198.4,376.5h0c-1.1,2.2-2.3,4.4-3.4,6.6.3.2.5.5.8.7.5,0,1-.1,1.5-.2h.3v-.4c5.6-3.2,11.1-6.5,16.7-9.8h0c2.1-2.4,5.1-4.7,1.5-8.3-3.5-3.4-6.2-.9-8.6,1.3-3.2,3.1-6,6.7-8.9,10h0ZM108.8,399.6c.5.1,1,.3,1.5.4,0,1.5-.5,3.3,0,4.4,1.5,2.9,3.2,7.3,5.5,7.8,2.8.6,6.5-2,9.4-3.8,1.5-1,2.5-3.2,3.1-5,2.9-9.2,5.8-18.4,8.1-27.7,1.1-4.7,1.5-10.1-4.3-12.4-5.7-2.3-9.4,1.5-12.6,5.6-.7.9-1.5,1.9-1.9,2.9-3,9.2-6,18.5-8.9,27.8h0ZM255.5,387.1c9.4-4.6,16.8-9.8,20.5-18.9.8-1.9,0-5.9-1.5-6.9-1.5-1.1-5.4-.6-7.1.7-7.9,5.9-10.6,14.6-11.9,25h0Z" fill="#ffa4bf" stroke-width="0"/>
    <path d="M633.9,348.5c5.8-4.9,13.1-6,19.4-2.6,6.7,3.6,7.8,9.9,7.3,16.7-.5,6.6-5.5,13.3-11.3,15.2-7.9,2.6-14-1.6-14.1-9.9,0-.8-.2-1.5-1.6-2.8-2.3,4.4-5.4,8.6-6.8,13.3-4.2,14.2-7.6,28.6-11.5,42.8-2.8,10.5-.8,9.9-12.3,9.6-3.4,0-6.8-1.5-10.2-2.1-1-.2-2.2.3-3.2.6-11.9,3.8-23.4,5.9-33-5.2-.5-.5-2.8-.4-3.5.3-6.5,6-14.4,7.9-23,7.8-13.8-.2-21.8-9.2-19.3-22.9,2-10.8,4.8-21.4,7.2-32.1.5-1.9,1.4-3.9,1.3-5.8-.2-2.4-.6-6-2.2-6.9-1.9-1.1-6-.9-7.5.5-3.8,3.5-7.9,7.6-9.5,12.3-4.4,12.3-7.6,25.1-11.2,37.7-.3,1.1-.5,2.3-.9,3.4-1.5,4-2.1,10.5-4.7,11.3-5.6,1.9-12.1,1-18.2.7-.8,0-2.3-3.7-1.9-5.3,4.8-21.2,9.9-42.4,14.9-63.6.3-1.3.5-2.6,1-3.9,1.2-3.8,1.6-10,4-11,4.6-1.9,10.4-1.2,15.7-.9,4,.2,2.6,3.4,2,5.7-.6,2.5-.4,3.9,2.4,1.7h0c6.7-8.3,18.2-11.6,26.8-7.7,8.4,3.8,13.6,14.7,11.5,25.5-2,10.3-4.9,20.4-6.9,30.6-.6,3.2.4,6.6.6,10,3.4-.5,7.2-.4,10.2-1.9,2.5-1.2,5-4.1,5.7-6.8,3.4-13.9,6.1-28,9.2-41.9,1-4.4.2-6.4-4.9-6.3-3.2,0-8.4,1.4-8.5-4.1-.2-5.6,4.2-6.1,8.8-6.1,8.5,0,8.7,0,9.9-8.6.7-4.9,2.7-8.1,7.7-9.6,4.8-1.4,9.2-3.9,13.8-5.8,1.5-.6,3.1-.7,4.7-1,0,1.7.4,3.5,0,5.1-1,5.2-2.1,10.4-3.3,15.6-.8,3.2.4,4.4,3.5,4.3,1.7,0,3.5-.4,5,.1,1.9.6,3.6,1.9,5.4,2.9-1.5,2.1-2.7,5.1-4.8,6.1-2.3,1.2-5.6.2-8.3.9-1.8.5-4.2,1.9-4.6,3.4-3.5,14.5-6.9,29.1-9.8,43.8-1.4,7.2.8,10.6,5.9,11.9,5.5,1.4,13.5-2.5,15-7.9,3.5-13.7,6.6-27.5,9.8-41.3,1.1-4.9,1.8-9.9,3.3-14.6.6-1.8,3.1-3.3,5-4.1,1.5-.7,3.6-.1,5.4-.1,5.3,0,7.9,2.8,8,8.2,2.5-2,4.7-3.8,6.9-5.6h0c0,.1-.3.4-.3.4ZM658,353.5h0Z" fill="#ffa4bf" stroke-width="0"/>
    <path d="M665.9,367.5c1.3-2,2.7-4,4-6h0c5.3-8.6,12.5-14.7,22.6-16.5,7.6-1.4,14.1,1.4,19.5,9.1.3-9.8,6.5-8.1,11.6-8.1,13.7,0,12.5-1.3,9.4,12-3.4,14.9-7.1,29.8-10.4,44.7-.8,3.8-3.3,8.5,2.7,10.5s10.6-2.8,11.9-8.1c2.5-10.2,4.7-20.4,7.1-30.6,3.1-13.5,6.2-26.9,9.4-40.3,1.1-4.5.5-7.9-3.4-11-1.6-1.3-2.6-4.7-2.1-6.6.5-1.6,3.6-3.2,5.6-3.3,6.8-.4,13.6-.2,20.5-.1,7.2,0,7.4.3,5.7,7.5-5,21.4-10,42.7-14.9,64.1-1.4,6-3.2,11.9-4.1,18-.4,3,.8,6.2,1.2,9.3,3.4-.6,7.2-.3,10-2,2.8-1.6,4.5-5.1,6.8-7.7,1-1.1,2.3-1.9,3.4-2.9,1,1.2,2.5,2.4,2.8,3.8,1.8,8-3.7,21.5-10.2,25.8-7.8,5-20.7,5.1-27.8-.7-3.7-3-6.2-2.8-9.8-.3-6.8,4.7-14.7,5.3-22.6,4-7.2-1.2-11.9-5.5-12.5-14.3-1.3,1.5-1.9,2-2.3,2.7-6.2,10-14.1,13.7-25.2,11.8-8.8-1.5-16.6-9.2-18.1-19.6-2.4-16,.4-31.1,9.2-44.9h0v-.3ZM678.1,403.3c1.2,2,2.6,7.1,5.9,9,4.1,2.4,8.4-1,10.6-5,6.5-11.4,10.1-23.8,10.7-36.9.2-5.3-3.7-8.7-8.8-7.3-3.2.9-6.7,3.3-8.5,6-6.4,9.4-8.5,20.4-9.9,34.2h0Z" fill="#ffa4bf" stroke-width="0"/>
    <path d="M408.2,65.7c1.4,3.1,2.6,5,7,3,14.2-6.6,27.6-3.9,37.4,6.6,9.4,10.2,11.2,25,4.5,37.5-6.5,12.3-20.7,19.2-34.9,17.3-10.3-1.4-18.5-6.4-25.2-13.9-2.9-3.2-4.9-3.3-7.9,0-8.6,9.2-19,14.9-32.1,14.3-13-.6-25.4-9.3-29.8-21.5-4.5-12.5-.9-27.5,8.9-36.1,9.6-8.5,23.7-10,35.9-3.8,2.5,1.3,4.2,2.4,5.6-1.4,2.5-6.9,7.8-10.8,15.1-11.3,7.2-.5,12.2,3.4,15.7,9.5h-.2ZM441.7,97.6c.2-10-10-17.3-18.9-12.6-5.7,3-10.4,8.1-15.3,12.5-.6.6-.5,3.2,0,3.6,5.2,3.7,10.2,8.3,16,10.3,9,3.1,17.9-4.3,18.1-13.8h0ZM360.1,112c5.4,0,16.9-6.6,19.1-11.2.4-.8,0-2.7-.7-3.3-4.1-3.9-7.9-8.2-12.6-11.1-3-1.9-7.6-2.7-11.2-2.1-6.8,1.2-10.7,7.8-9.7,14.6,1.1,7.8,7.3,13.1,15,13.2h.1ZM393.5,69.2c-2.6,3.9-5.8,6.4-5.7,8.9,0,2.3,3.6,4.5,5.5,6.8,2.2-2.7,5.2-5.2,6.2-8.3.4-1.4-3.2-4.1-6-7.4h0Z" fill="#ffa4bf" stroke-width="0"/>
    <path d="M334.2,391.3c0,9.9,2.1,19.1,8.6,26.7,9.6,11.1,26.5,11.3,40.2.8,2-1.5,3.8-3.3,5.8-4.7,1.1-.8,2.6-1,3.9-1.5.4,1.4,1.1,2.7,1.2,4.1.4,16-13.4,29.8-31.4,31.5-27.5,2.7-48.4-12.5-51.8-40.1-3.9-32,4-61,28.2-83.7,13.5-12.7,29.8-17.1,48-12.3,13.7,3.6,21.7,16.6,18.1,28.8-3.2,10.8-16.3,18.6-27.2,16.2-5-1.1-8.6-3.8-8.9-9.3-.3-4.4,3.8-8.3,9.2-9.8,2-.6,3.8-2.1,5.7-3.2-1.8-1.9-3.3-4.9-5.5-5.6-7.4-2.5-14.1,0-20,4.6-12.4,9.4-17.5,23.1-20.9,37.6-1.5,6.6-2,13.4-3,20.2h0l-.2-.3Z" fill="#ffa4bf" stroke-width="0"/>
    <path d="M78.5,432.4c-7.9,12.8-20.4,16.5-34.3,16.1-26.1-.6-40-22.3-42.8-41-4.8-31.6,3-59.9,26-82.9,14.9-14.9,37.1-18.6,53.3-10.1,10,5.2,15.1,15.8,12.5,25.7-2.6,10.1-13.2,17.5-24.2,17-6.5-.3-10.8-3.5-11.2-8.5-.5-5.7,2.7-9.3,9.3-10.9,1.7-.4,3.1-1.8,4.7-2.7-1.2-1.8-2.2-4.9-3.7-5.3-4.1-.9-8.6-1.5-12.5-.5-7.9,2-13.8,7.5-17.9,14.4-10.9,18.2-14.7,38.1-11.3,59,2.2,13.4,11.8,22.7,23.6,23.6,9.5.7,17.3-3.8,24.6-9.5,2.2-1.7,4.9-2.7,7.4-4,.2,3,1.1,6.2.5,9.1-.7,3.7-2.6,7.1-3.9,10.6h0Z" fill="#ffa4bf" stroke-width="0"/>
    <path d="M398.1,400.5c.5-17.9,5.3-34.1,19.3-46.5,8.3-7.3,18-10.4,29.1-8.2,10,1.9,15.8,10.8,13.6,20.8-1.8,8.1-6.8,14.3-13.4,18.5-6.7,4.3-13.9,7.7-21.2,10.8-4,1.7-5,3.5-3.6,7.5,2.6,7.9,10.2,12.4,18.2,8.6,6.4-3,11.7-8.4,17.5-12.6,1.3-1,2.9-1.6,4.4-2.4.7,1.7,2.3,3.5,2,5-2.8,13.3-10.2,23.2-23,27.9-11.6,4.3-23.3,4.1-33.2-5-7.1-6.5-9.7-14.9-9.5-24.4h-.2ZM422.8,388.7c6.2-5.4,11.9-10,17.2-15,1.7-1.6,3-4.2,3.3-6.5.3-2-.5-4.8-1.9-6-1.1-1-4.2-.7-5.9.1-7.1,3.2-14.2,17.6-12.7,27.4h0Z" fill="#ffa4bf" stroke-width="0"/>
  </g>
  <path d="M784.2,470.2c-.8-5.4-4.1-8.7-9.5-9.4-3.6-.4-7.3-.2-11-.2h-273.8c-1.2.4-2.9.1-4.2.1h-183.3c-.2,0-.3,0-.4,0h-33.9c-82.9,0-165.8,0-248.7,0s-5.7,0-8.5.2c-5.8.5-10,5.1-9.9,10.5,0,5.6,4.3,10.2,9.9,10.7,3.5.2,7,.2,10.5.2h371.1-.2c0-.1,376.6-.1,376.6-.1,2.7,0,5.4-.2,7.9-.9,5.1-1.5,8.1-6.1,7.4-11Z" fill="#ffa4bf" stroke-width="0"/>
</svg>