<svg xmlns="http://www.w3.org/2000/svg" xmlns:xlink="http://www.w3.org/1999/xlink" id="Layer_1" x="0px" y="0px" viewBox="0 0 255.2 80.3" style="enable-background:new 0 0 255.2 80.3;" xml:space="preserve">  <style type="text/css">.st0{fill:#4285F4;}.st1{fill:#EA4335;}.st2{fill:#FBBC05;}.st3{fill:#34A853;}</style>  <g id="XMLID_11_">    <path id="XMLID_10_" class="st0" d="M31.9,28.6v8.6h20.5c-0.6,4.8-2.2,8.3-4.7,10.8c-3,3-7.7,6.3-15.8,6.3 c-12.6,0-22.5-10.2-22.5-22.8S19.2,8.6,31.9,8.6c6.8,0,11.8,2.7,15.5,6.1l6-6C48.3,3.8,41.4,0,31.9,0C14.6,0,0,14.1,0,31.4 s14.6,31.4,31.9,31.4c9.4,0,16.4-3.1,21.9-8.8c5.7-5.7,7.4-13.6,7.4-20.1c0-2-0.1-3.8-0.5-5.4H31.9z"></path>    <path id="XMLID_24_" class="st1" d="M86.9,21.6c-11.2,0-20.4,8.5-20.4,20.3c0,11.7,9.1,20.3,20.4,20.3s20.4-8.6,20.4-20.3 C107.2,30.1,98.1,21.6,86.9,21.6z M86.9,54.2c-6.1,0-11.4-5.1-11.4-12.3c0-7.3,5.3-12.3,11.4-12.3c6.1,0,11.4,5,11.4,12.3 C98.3,49.1,93,54.2,86.9,54.2z"></path>    <path id="XMLID_21_" class="st0" d="M186.6,26.1h-0.3c-2-2.4-5.8-4.5-10.7-4.5c-10.1,0-19,8.8-19,20.3c0,11.4,8.8,20.3,19,20.3 c4.9,0,8.7-2.2,10.7-4.6h0.3v2.8c0,7.7-4.2,11.9-10.8,11.9c-5.4,0-8.8-3.9-10.2-7.2l-7.7,3.2c2.2,5.4,8.1,12,18,12 c10.4,0,19.3-6.1,19.3-21.1V22.7h-8.4V26.1z M176.4,54.2c-6.1,0-10.8-5.2-10.8-12.3c0-7.2,4.7-12.3,10.8-12.3 c6.1,0,10.8,5.2,10.8,12.4C187.3,49,182.5,54.2,176.4,54.2z"></path>    <path id="XMLID_18_" class="st2" d="M132.3,21.6c-11.2,0-20.4,8.5-20.4,20.3c0,11.7,9.1,20.3,20.4,20.3s20.4-8.6,20.4-20.3 C152.6,30.1,143.5,21.6,132.3,21.6z M132.3,54.2c-6.1,0-11.4-5.1-11.4-12.3c0-7.3,5.3-12.3,11.4-12.3c6.1,0,11.4,5,11.4,12.3 C143.7,49.1,138.4,54.2,132.3,54.2z"></path>    <path id="XMLID_3_" class="st3" d="M202.1,0.8h8.8v61.3h-8.8V0.8z"></path>    <path id="XMLID_14_" class="st1" d="M237.9,54.2c-4.5,0-7.7-2.1-9.8-6.1l27.1-11.2l-0.9-2.3c-1.7-4.5-6.8-12.9-17.3-12.9 c-10.4,0-19.1,8.2-19.1,20.3c0,11.4,8.6,20.3,20.1,20.3c9.3,0,14.7-5.7,16.9-9l-6.9-4.6C245.6,51.9,242.4,54.2,237.9,54.2 L237.9,54.2z M237.3,29.2c3.6,0,6.7,1.9,7.7,4.5l-18.3,7.6C226.6,32.7,232.7,29.2,237.3,29.2z"></path>  </g></svg>