<?xml version="1.0" encoding="UTF-8"?><svg id="a" xmlns="http://www.w3.org/2000/svg" viewBox="0 0 791 482"><defs><style>.c{fill:#fff;stroke-width:0px;}</style></defs><g id="b"><path class="c" d="M398.18,300.34c-123.7,0-247.39,0-371.09,0-3.49,0-7.01.07-10.48-.23-5.63-.49-9.78-5.14-9.89-10.68-.11-5.41,4.13-10.02,9.94-10.54,2.81-.25,5.66-.16,8.49-.16,82.91,0,165.82-.02,248.73.14,5.68.01,7.87-1.33,7.73-7.47-.39-17.64-.24-35.29-.06-52.94.17-16.98,5.19-23.83,20.87-30.04,1.42-.56,2.8-3.08,2.92-4.78.45-6.47.81-13,.43-19.46-.99-16.79,13.17-27.88,31.22-24.75,6.17,1.07,11.1,4.03,15.08,8.94,4.5,5.55,8.57,5.36,13.03-.18,7.91-9.84,18.13-10.06,26.66-.59,6.15,6.83,8.66,6.77,14.44-.34,6.25-7.69,15.9-8.49,23.26-1.92.74.66,1.45,1.37,2.15,2.09,7.23,7.36,9.47,7.23,15.96-.98,5.35-6.76,17.94-9.49,28.14-6.1,9.35,3.1,15.77,11.46,15.86,20.85.07,7.49-.24,14.99.11,22.47.08,1.65,1.96,4.13,3.54,4.66,14.25,4.78,20.32,12.64,20.41,27.64.11,18.31.03,36.63.04,54.94,0,7.77.08,7.89,7.71,7.89,82.08-.01,164.15-.05,246.23-.06,3.66,0,7.36-.23,10.97.21,5.4.67,8.71,3.97,9.48,9.4.71,4.94-2.29,9.48-7.43,10.98-2.5.73-5.24.88-7.87.88-115.37.05-230.75.05-346.12.06-10.16,0-20.31,0-30.47,0v.08ZM783.54,296.51s.03.03.03.03l-.03-.03ZM398.91,154.71l.04-.03s-.04.03-.04.03ZM426.9,164.71c-.68-.68-1.36-1.36-2.04-2.03l.03.04c-1.16-.93-2.52-1.69-3.43-2.82-2.43-3.02-4.28-2.5-6.76.17-10.46,11.27-20.88,11.52-31.69.52-3.5-3.57-5.51-3.23-8.65.33-6.69,7.59-15.27,10.17-24.79,6.47-4.01-1.56-7.08-5.42-10.98-7.47-2.82-1.48-6.77-2.99-9.35-2.06-2.25.81-4.13,4.84-4.66,7.73-.84,4.52-.5,9.27-.49,13.93.02,7.94.27,8.17,8.04,8.17,44.58.01,89.16-.05,133.75.09,5.34.02,8.24-1.22,7.41-7.22-.38-2.77.05-5.65-.06-8.47-.2-5.13,1.72-11.16-4.53-14.15-6.33-3.03-10.15,1.65-14.31,5.23-8.28,7.14-18.91,7.66-27.53,1.5l.04.04ZM490.83,229.6s-.02.02-.02.02c2.3-2.01,5.77-3.6,6.69-6.12,3.4-9.3-2.53-17.2-12.44-17.26-12.98-.08-25.95,0-38.93,0-44.25,0-88.51-.02-132.76,0-7.62,0-11.96,2.91-13.31,8.72-1.64,7.09-.35,9.51,7.11,13.48,1.03.55,2.12,1.07,2.96,1.85,4.81,4.42,8.7,2.79,12.07-1.81,3.8-5.17,8.99-8.23,15.07-6.2,3.91,1.3,7.3,4.83,10.34,7.94,4.73,4.84,8.95,5.13,13.52.12.78-.86,1.43-1.84,2.17-2.74,6.42-7.74,16.83-7.67,23.24.1,1.9,2.3,3.73,4.72,5.95,6.69,4.34,3.85,9.89,3.26,13.62-1.24,1.16-1.4,2.18-2.95,3.06-4.55,2.59-4.74,6.69-6.53,11.9-6.85,6.54-.4,10.88,2.81,14.82,7.57,5.97,7.22,10.22,6.92,15.94-.5,1.2-1.56,2.72-2.87,4.09-4.29l.09.26-.11-.21c.67-.33,1.33-.65,2-.98l-.04.04c7.29-3.51,11.78-2.38,18.78,4.76,5.92,6.04,7.55,6.18,14.23,1.21ZM497.26,243.98c-15.27,7.63-17.46,7.4-29.65-3.68-2.5-2.28-3.99-1.42-5.75.57-4.35,4.9-9.51,8.25-16.3,8.62-7.71.42-14.06-2.41-19.03-8.13-3.27-3.76-5.33-3.11-8.7.27-3.52,3.52-7.91,6.81-12.55,8.46-10.68,3.81-19.44-.58-26.87-8.37-2.09-2.19-3.8-4.38-7.18-.85-11.91,12.47-22.86,12.5-35.12.25-2.62-2.61-4.18-2.8-6.8-.05-8.12,8.49-14.87,9.55-24.94,3.99-3.36-1.86-4.54-1.04-4.56,2.5-.04,7.66-.06,15.31-.1,22.97q-.04,8.23,8.27,8.23c36.12,0,72.24,0,108.36,0,24.97,0,49.94.05,74.91-.03,2.36,0,5.91,1.09,5.95-3.23.09-10.28.03-20.56.03-31.51Z"/><path class="c" d="M211.07,65.79c34.3-26.49,72.67-44.61,114.52-55.52C349.48,4.03,373.84.13,398.48.39c66.31.72,126.43,21.01,180.18,59.77,10.49,7.56,20.07,16.37,30.07,24.61,0,0-.05-.05-.05-.05,46.95,44.03,79.82,96.36,94.01,159.67,2.25,10.06,2.1,10.09-8.39,10.07-6.33-.02-12.66-.22-18.98.01-4.61.17-6.66-1.6-7.91-6.18-22.52-82.9-72.79-143.66-148.43-183.35-42.87-22.49-88.88-32.87-137.41-29.3-47.42,3.49-91.14,18.77-130.77,44.92-59.74,39.42-99.54,93.77-119.23,162.67-3.19,11.17-3,11.23-14.8,11.25-5.83,0-11.66-.13-17.48,0-4.73.11-6.05-1.65-5.06-6.4,8.1-39,23.81-74.7,46.29-107.5,19.63-28.63,42.78-53.94,70.6-74.85,0,0-.04.04-.04.04Z"/><path class="c" d="M397.9,482.11c-124.7,0-249.41,0-374.11,0-2.5,0-5.02.07-7.48-.27-5.36-.73-9.24-5.24-9.48-10.67-.21-4.98,2.99-8.71,8.77-9.78,2.59-.48,5.29-.58,7.94-.58,250.41-.03,500.82-.04,751.23-.04,9.87,0,15.32,3.73,15.33,10.47.01,6.99-5.46,10.84-15.59,10.84-125.54.01-251.07,0-376.61,0v.03Z"/><path class="c" d="M145.18,429.44c-2.4-3.38-4.8-6.75-7.39-10.38.56-.28-.02-.19-.24.15-7.53,11.29-15.96,15.21-27.05,12.52-9.86-2.39-17.4-11.21-17.64-23.41-.42-22.02,6.06-41.73,23.2-56.7,6.86-5.98,14.88-9.14,23.96-5.55,3.25,1.28,5.95,3.97,9.16,6.2.6-8.09,6.71-6.4,11.86-6.39,11.49.03,11.8-1.25,8.92,11.05-3.49,14.89-6.99,29.77-10.48,44.66-.08.32-.24.63-.27.96-.4,3.76-2.78,8.2,2.59,10.28,3.92,1.52,10.37-2.55,11.5-7.31,2.84-11.97,5.41-24,8.07-36.02,2.51-11.37,4.86-22.77,7.57-34.09,1.27-5.32,1.25-9.61-4.09-12.97-1.48-.93-2.23-4.36-1.88-6.39.23-1.29,3.07-2.94,4.8-3.02,8.14-.33,16.3-.14,24.46-.22,3.67-.04,4.57,1.5,3.72,5-3.31,13.56-6.44,27.17-9.61,40.77-.29,1.23-.38,2.5-.81,5.49,2.86-3.05,4.47-5.09,6.4-6.75,4.39-3.77,8.61-7.9,13.52-10.87,4.92-2.99,10.67-3.2,15.44.8,4.86,4.07,4.83,9.72,3.2,15.18-2.73,9.18-9.36,15.47-17.56,19.52-6.34,3.13-7.58,6.61-4.51,12.65,2.02,3.98,2.99,8.52,5.17,12.38,1.28,2.26,3.73,4.42,6.15,5.35,5.44,2.09,7.12.21,6.07-5.43-4.09-21.9,3.01-40.08,19.31-54.64,7.97-7.12,17.93-8.44,28.19-6.16,9.55,2.13,14.93,11.78,11.96,21.25-3.47,11.07-11.93,17.81-21.47,23.25-4.15,2.37-8.77,3.98-13.31,5.58-3.08,1.08-3.66,2.74-2.82,5.69,2.45,8.6,9.65,13.5,17.94,10.16,6.53-2.64,12.02-7.82,18.03-11.77,1.75-1.15,3.72-1.96,5.59-2.93.58,2.26,1.99,4.67,1.62,6.77-3.7,21.22-28.95,34.31-48.42,25.3,0,0,.04.04.04.04-3.23-2.46-6.22-2.15-10.05-.62-4.82,1.92-10.18,2.95-15.39,3.35-9.16.7-16.02-3.54-20.31-11.65-3.86-7.3-7.53-14.7-11.79-23.04-.84,1.9-1.49,2.92-1.76,4.03-1.82,7.58-3.77,15.13-5.25,22.78-.95,4.93-3.22,7.4-8.42,6.74-4.53-.57-9.07-1.09-13.63-1.4-1.21-.08-2.47.7-3.71,1.06-7.04,2.05-13.99,2.77-20.64-1.3,0,0,.04.04.04.04ZM117.18,352.45s.03.04.03.04l-.03-.04ZM204.09,376.49s.04-.04.04-.04c-1.13,2.21-2.27,4.42-3.4,6.63.26.25.52.49.78.74.49-.07.98-.15,1.47-.22l.31-.09s.08-.32.08-.32c5.58-3.25,11.15-6.5,16.73-9.75l-.04.04c2.14-2.48,5.15-4.77,1.5-8.35-3.49-3.42-6.24-.94-8.57,1.32-3.2,3.1-5.96,6.67-8.9,10.03ZM114.49,399.56c.51.15,1.02.29,1.53.44,0,1.5-.52,3.26.1,4.43,1.53,2.9,3.21,7.31,5.53,7.79,2.78.58,6.48-1.96,9.37-3.79,1.5-.95,2.48-3.18,3.06-5.03,2.86-9.18,5.81-18.36,8.11-27.69,1.15-4.67,1.47-10.1-4.33-12.42-5.74-2.3-9.38,1.46-12.57,5.56-.71.91-1.52,1.86-1.87,2.93-3.03,9.24-5.96,18.52-8.92,27.78ZM261.22,387.07c9.39-4.6,16.84-9.82,20.47-18.87.77-1.91-.03-5.85-1.49-6.87-1.52-1.06-5.36-.59-7.08.7-7.9,5.94-10.63,14.58-11.9,25.04Z"/><path class="c" d="M639.64,348.5c5.83-4.92,13.1-5.98,19.42-2.58,6.71,3.61,7.83,9.86,7.35,16.69-.47,6.63-5.46,13.28-11.28,15.21-7.94,2.63-13.96-1.6-14.09-9.88-.01-.76-.17-1.53-1.58-2.81-2.32,4.42-5.43,8.61-6.82,13.31-4.19,14.17-7.63,28.57-11.5,42.83-2.84,10.46-.79,9.91-12.35,9.64-3.42-.08-6.79-1.53-10.22-2.13-1-.18-2.15.32-3.19.65-11.88,3.82-23.43,5.89-33.01-5.23-.47-.54-2.8-.35-3.51.31-6.54,6.05-14.39,7.94-23,7.83-13.79-.18-21.79-9.25-19.31-22.85,1.96-10.77,4.79-21.39,7.25-32.08.45-1.94,1.44-3.91,1.29-5.8-.2-2.44-.61-6.01-2.18-6.91-1.89-1.09-6.04-.89-7.55.53-3.77,3.54-7.88,7.62-9.55,12.3-4.39,12.33-7.56,25.1-11.21,37.7-.32,1.12-.5,2.28-.9,3.37-1.46,3.96-2.13,10.46-4.66,11.3-5.56,1.85-12.08,1.02-18.18.72-.78-.04-2.31-3.68-1.94-5.3,4.79-21.23,9.87-42.4,14.87-63.59.31-1.29.55-2.61.96-3.87,1.24-3.84,1.58-9.97,4.04-11,4.57-1.91,10.4-1.19,15.66-.88,4,.23,2.57,3.39,2.01,5.74-.61,2.54-.43,3.89,2.35,1.71,0,0-.04.04-.04.04,6.73-8.3,18.19-11.61,26.77-7.74,8.38,3.78,13.6,14.72,11.5,25.45-2.01,10.27-4.89,20.38-6.91,30.65-.62,3.16.36,6.63.61,9.96,3.44-.55,7.25-.39,10.22-1.88,2.45-1.23,5.01-4.15,5.65-6.78,3.37-13.9,6.07-27.95,9.18-41.92.98-4.42.15-6.43-4.91-6.29-3.25.09-8.37,1.41-8.55-4.08-.18-5.58,4.21-6.14,8.81-6.1,8.5.07,8.67-.05,9.9-8.61.71-4.93,2.65-8.11,7.74-9.65,4.75-1.43,9.17-3.91,13.8-5.78,1.45-.59,3.09-.71,4.65-1.04.05,1.71.4,3.48.09,5.13-.97,5.23-2.08,10.44-3.35,15.61-.79,3.19.4,4.36,3.45,4.28,1.66-.04,3.45-.36,4.96.12,1.92.6,3.63,1.89,5.43,2.88-1.55,2.12-2.68,5.09-4.77,6.14-2.32,1.18-5.62.24-8.31.94-1.75.45-4.21,1.94-4.56,3.39-3.51,14.54-6.92,29.11-9.79,43.78-1.4,7.16.83,10.64,5.86,11.94,5.49,1.42,13.55-2.45,14.96-7.93,3.51-13.69,6.59-27.49,9.79-41.27,1.13-4.86,1.75-9.87,3.34-14.57.6-1.78,3.08-3.29,5.03-4.14,1.54-.67,3.6-.15,5.44-.15q7.92.01,7.99,8.23c2.45-2,4.68-3.82,6.91-5.64,0,0-.04.04-.04.04ZM663.66,353.46l-.04.04s.04-.04.04-.04Z"/><path class="c" d="M671.61,367.49c1.35-2.01,2.69-4.02,4.04-6.03,0,0-.04.04-.04.04,5.28-8.61,12.55-14.74,22.62-16.56,7.6-1.37,14.06,1.37,19.51,9.08.35-9.75,6.46-8.14,11.64-8.11,13.71.06,12.45-1.29,9.44,11.99-3.38,14.91-7.07,29.75-10.4,44.67-.84,3.77-3.33,8.53,2.71,10.5,4.49,1.46,10.59-2.78,11.88-8.15,2.45-10.18,4.71-20.41,7.07-30.61,3.11-13.45,6.16-26.91,9.4-40.33,1.08-4.48.46-7.9-3.36-11.05-1.57-1.29-2.63-4.7-2.08-6.61.45-1.56,3.59-3.19,5.62-3.31,6.8-.4,13.64-.17,20.46-.13,7.15.04,7.39.31,5.73,7.47-4.95,21.37-9.95,42.73-14.94,64.1-1.4,5.99-3.21,11.91-4.11,17.97-.44,2.98.78,6.21,1.24,9.32,3.39-.58,7.25-.34,10.04-1.96,2.8-1.62,4.47-5.13,6.76-7.71.97-1.1,2.26-1.91,3.41-2.86.95,1.25,2.46,2.37,2.77,3.76,1.79,8.03-3.71,21.55-10.25,25.78-7.77,5.02-20.66,5.09-27.82-.71-3.72-3.02-6.18-2.78-9.85-.26-6.8,4.67-14.67,5.31-22.56,4-7.25-1.2-11.93-5.49-12.46-14.28-1.35,1.54-1.94,2.05-2.33,2.68-6.21,9.95-14.09,13.66-25.19,11.81-8.83-1.46-16.59-9.24-18.14-19.64-2.37-15.96.39-31.12,9.22-44.9,0,0-.04.04-.04.04ZM683.82,403.27c1.19,1.97,2.58,7.07,5.86,9.02,4.1,2.44,8.39-1.04,10.64-5,6.47-11.42,10.11-23.8,10.71-36.91.24-5.3-3.74-8.71-8.8-7.32-3.19.88-6.66,3.29-8.51,6.02-6.39,9.44-8.45,20.39-9.89,34.19Z"/><path class="c" d="M413.87,65.74c1.41,3.11,2.64,4.98,6.97,2.98,14.21-6.57,27.65-3.91,37.39,6.63,9.42,10.19,11.2,24.98,4.54,37.55-6.52,12.3-20.68,19.18-34.87,17.26-10.27-1.39-18.46-6.4-25.18-13.94-2.89-3.24-4.9-3.35-7.94-.11-8.65,9.23-18.95,14.93-32.14,14.33-13.01-.6-25.4-9.35-29.83-21.49-4.55-12.48-.86-27.5,8.89-36.14,9.57-8.48,23.73-10.05,35.9-3.84,2.46,1.26,4.21,2.4,5.59-1.43,2.48-6.92,7.83-10.75,15.06-11.26,7.24-.51,12.23,3.42,15.68,9.52,0,0-.05-.05-.05-.05ZM447.38,97.57c.22-10.03-9.99-17.33-18.94-12.64-5.72,3-10.35,8.11-15.28,12.5-.62.55-.54,3.18.09,3.62,5.2,3.7,10.19,8.3,16.03,10.34,8.98,3.14,17.88-4.34,18.1-13.84ZM365.78,112.03c5.37.02,16.87-6.57,19.13-11.24.41-.84.03-2.67-.66-3.33-4.06-3.89-7.93-8.19-12.64-11.09-3.05-1.88-7.62-2.73-11.16-2.1-6.83,1.21-10.68,7.84-9.71,14.6,1.11,7.75,7.26,13.13,15.04,13.17ZM399.16,69.22c-2.65,3.86-5.79,6.44-5.71,8.92.07,2.32,3.56,4.53,5.54,6.79,2.19-2.74,5.18-5.22,6.19-8.34.44-1.37-3.18-4.05-6.01-7.37Z"/><path class="c" d="M339.87,391.28c.06,9.92,2.12,19.1,8.63,26.66,9.56,11.1,26.55,11.29,40.18.78,1.98-1.52,3.77-3.29,5.83-4.7,1.11-.76,2.58-1.01,3.89-1.48.41,1.36,1.15,2.72,1.19,4.09.37,16.02-13.38,29.75-31.43,31.5-27.51,2.67-48.41-12.53-51.8-40.14-3.93-31.95,4.03-60.95,28.16-83.73,13.5-12.74,29.82-17.1,48.03-12.31,13.71,3.6,21.74,16.65,18.07,28.8-3.25,10.78-16.3,18.57-27.24,16.17-4.97-1.09-8.6-3.78-8.94-9.29-.28-4.44,3.76-8.31,9.16-9.79,2.04-.56,3.81-2.14,5.7-3.25-1.82-1.94-3.31-4.89-5.53-5.64-7.39-2.49-14.12.07-20.05,4.57-12.43,9.44-17.5,23.15-20.87,37.59-1.54,6.59-2.01,13.44-2.96,20.17Z"/><path class="c" d="M84.25,432.4c-7.94,12.83-20.36,16.46-34.32,16.11-26.12-.64-39.99-22.27-42.84-41.04-4.79-31.57,3.03-59.93,25.96-82.9,14.87-14.89,37.12-18.61,53.32-10.08,9.97,5.25,15.1,15.78,12.52,25.7-2.64,10.13-13.16,17.52-24.24,17.02-6.47-.29-10.76-3.54-11.21-8.48-.51-5.69,2.69-9.26,9.35-10.93,1.68-.42,3.11-1.8,4.66-2.74-1.22-1.84-2.16-4.93-3.7-5.27-4.05-.88-8.61-1.51-12.53-.51-7.88,2.01-13.75,7.47-17.87,14.36-10.92,18.25-14.74,38.08-11.28,59.01,2.22,13.43,11.79,22.72,23.6,23.56,9.5.67,17.29-3.78,24.55-9.47,2.17-1.71,4.9-2.7,7.38-4.02.22,3.04,1.07,6.19.51,9.08-.71,3.66-2.55,7.11-3.9,10.65,0,0,.04-.04.04-.04Z"/><path class="c" d="M403.81,400.49c.48-17.93,5.3-34.14,19.28-46.45,8.32-7.33,17.99-10.38,29.12-8.23,9.96,1.92,15.8,10.82,13.56,20.77-1.83,8.12-6.75,14.27-13.42,18.55-6.66,4.27-13.93,7.71-21.25,10.76-4.04,1.69-4.96,3.51-3.64,7.46,2.63,7.88,10.25,12.36,18.25,8.65,6.4-2.97,11.67-8.38,17.49-12.63,1.34-.98,2.91-1.63,4.38-2.44.71,1.68,2.31,3.55,2,5.02-2.76,13.29-10.24,23.23-23.05,27.92-11.65,4.27-23.31,4.07-33.19-5.02-7.08-6.51-9.7-14.9-9.54-24.36ZM428.47,388.66c6.24-5.36,11.93-9.96,17.22-14.96,1.69-1.59,2.97-4.19,3.28-6.49.27-1.96-.53-4.83-1.93-6.02-1.15-.98-4.17-.68-5.89.1-7.11,3.25-14.21,17.63-12.69,27.36Z"/><path class="c" d="M55.28,245.59c-5.75,5.1-12.2,5.57-17.49,1.27-4.79-3.89-6.12-10.8-3.1-16.19,2.92-5.22,9.31-7.84,14.91-6.11,6.87,2.11,10.6,7.48,9.29,14.31-.46,2.39-2.38,4.51-3.64,6.75,0,0,.04-.03.04-.03ZM56.26,232.57l-.04.04s.04-.04.04-.04Z"/><path class="c" d="M751.08,249.52c-7.24,0-12.45-5.2-12.54-12.56-.1-7.53,5.52-13.03,13.25-12.95,6.9.07,12.35,5.68,12.46,12.85.1,6.96-5.82,12.66-13.17,12.66Z"/><path class="c" d="M211.66,182.31c-6.03-.02-10.37-4.43-10.25-10.42.12-5.62,4.49-9.83,10.31-9.91,5.52-.08,10.88,4.94,10.85,10.19-.03,5.3-5.26,10.16-10.91,10.15Z"/><path class="c" d="M557.12,126.02c5.66.2,10.08,4.82,9.88,10.33-.2,5.4-5.58,10.22-11.08,9.93-5.47-.29-10.02-5.21-9.78-10.57.26-5.94,4.76-9.9,10.98-9.69Z"/><path class="c" d="M595.71,171.98c.07,5.72-4.67,10.32-10.61,10.3-5.4-.02-10.03-4.88-9.95-10.45.07-5.55,4.6-9.82,10.43-9.84,5.81-.03,10.07,4.17,10.14,9.99Z"/><path class="c" d="M235.07,143.72c-5.11-3.67-6.09-8.98-2.53-13.72,3.2-4.26,9.88-5.22,14.38-2.05,4.3,3.02,5.42,9.5,2.39,13.77-3.37,4.75-9.34,5.58-14.27,1.97,0,0,.03.03.03.03Z"/></g></svg>