<svg fill="white" xmlns="http://www.w3.org/2000/svg" xmlns:xlink="http://www.w3.org/1999/xlink" version="1.1" x="0px" y="0px" viewBox="0 0 100 100" style="enable-background:new 0 0 100 100;" xml:space="preserve"><path d="M68.09,28.84v-3.25C68.09,15.61,59.98,7.5,50,7.5c-9.97,0-18.09,8.11-18.09,18.09v3.25H12.27v56.99  c0,3.67,2.99,6.66,6.66,6.66h62.14c3.67,0,6.66-2.99,6.66-6.66V28.84H68.09z M34.94,25.59c0-8.3,6.75-15.06,15.06-15.06  c8.3,0,15.06,6.76,15.06,15.06v3.25H34.94V25.59z M33.43,45.95c-2.13,0-3.86-1.73-3.86-3.86c0-2.13,1.73-3.86,3.86-3.86  c2.13,0,3.86,1.73,3.86,3.86C37.29,44.22,35.56,45.95,33.43,45.95z M66.58,45.95c-2.13,0-3.86-1.73-3.86-3.86  c0-2.13,1.73-3.86,3.86-3.86s3.86,1.73,3.86,3.86C70.44,44.22,68.71,45.95,66.58,45.95z"></path></svg>