<?xml version="1.0" encoding="utf-8"?>
<!-- Generator: Adobe Illustrator 21.1.0, SVG Export Plug-In . SVG Version: 6.00 Build 0)  -->
<svg version="1.1" id="Layer_1" xmlns="http://www.w3.org/2000/svg" xmlns:xlink="http://www.w3.org/1999/xlink" x="0px" y="0px"
	 viewBox="0 0 298.5 17.3" style="enable-background:new 0 0 298.5 17.3;" xml:space="preserve">
<style type="text/css">
	.st0{fill:white;}
</style>
<g>
	<path class="st0" d="M0,16.4V0.8h2v6.5H11V0.8h2v15.6h-2V9.1H2v7.3L0,16.4L0,16.4z"/>
	<path class="st0" d="M20.9,16.4V0.8h9v1.8h-7v4.7h6.1v1.8h-6.1v5.4h7v1.8L20.9,16.4L20.9,16.4z"/>
	<path class="st0" d="M37.4,16.4V0l11.3,12.4V0.8h2v16.5L39.4,5v11.4L37.4,16.4L37.4,16.4z"/>
	<path class="st0" d="M58.5,16.4V0l11.3,12.4V0.8h2v16.5L60.5,5v11.4L58.5,16.4L58.5,16.4z"/>
	<path class="st0" d="M78.3,16.4L86.2,0l7.9,16.4h-2.2l-1.8-3.8h-7.8l-1.8,3.8C80.5,16.4,78.3,16.4,78.3,16.4z M86.2,4.4l-3.1,6.4
		h6.1L86.2,4.4z"/>
	<path class="st0" d="M107.6,16.9c-4.7,0-8-3.3-8-8.2c0-4.7,3.4-8.2,7.8-8.2c2.5,0,3.9,1,4.9,1.5L112,6c-1-0.8-2.2-2.1-4.4-2.1
		c-2.3,0-4.1,1.8-4.1,4.5c0,3,1.6,5,4.3,5c2.2,0,3.7-1.1,4.7-1.9l-0.2,4.1C111.7,15.9,110.1,16.9,107.6,16.9z"/>
	<path class="st0" d="M119.3,16.4V0.8h8.9v3.4h-5v2.6h4.2V10h-4.2v3h5.2v3.4L119.3,16.4L119.3,16.4z"/>
	<path class="st0" d="M135.5,16.4V0l10,9.2V0.8h3.7v16.5l-9.9-9.1v8.2L135.5,16.4L135.5,16.4z"/>
	<path class="st0" d="M160.4,16.4V4.2h-4.8V0.8H169v3.4h-4.8v12.2C164.2,16.4,160.4,16.4,160.4,16.4z"/>
	<path class="st0" d="M175.5,16.4V0.8h4.1c3.2,0,6.6,1.3,6.6,4.7c0,1.9-1.1,3.3-2.7,4.2l4.6,6.7h-4.3l-4.2-6h-0.3v6
		C179.3,16.4,175.5,16.4,175.5,16.4z M179.3,3.8v4.5h0.7c1.4,0,2.8-0.8,2.8-2.5c0-1.2-1.1-2-2.5-2C180,3.8,179.6,3.8,179.3,3.8z"/>
	<path class="st0" d="M193,16.4l8-16.4l7.9,16.4h-4.1l-0.9-2.2h-6.1l-0.9,2.2H193z M200.8,7l-1.9,4.5h3.8L200.8,7z"/>
	<path class="st0" d="M215.5,16.4V0.8h4v12.1h5.9v3.5L215.5,16.4L215.5,16.4z"/>
	<path class="st0" d="M233,16.9c-1,0-1.9-0.8-1.9-1.9s0.8-1.9,1.8-1.9c1,0,1.8,0.9,1.8,1.9C234.8,16,234,16.9,233,16.9z"/>
	<path class="st0" d="M249,16.9c-4.7,0-8-3.3-8-8.2c0-4.7,3.4-8.2,7.8-8.2c2.5,0,3.9,1,4.9,1.5L253.4,6c-1-0.8-2.2-2.1-4.4-2.1
		c-2.3,0-4.1,1.8-4.1,4.5c0,3,1.7,5,4.4,5c2.2,0,3.7-1.1,4.7-1.9l-0.2,4.1C253.1,15.9,251.6,16.9,249,16.9z"/>
	<path class="st0" d="M267.5,16.9c-4.2,0-7.6-3.5-7.6-8.2c0-4.4,3.3-8.3,7.6-8.3c4.1,0,7.6,3.4,7.6,8
		C275.1,13.1,271.6,16.9,267.5,16.9z M263.7,8.6c0,2.6,1.5,4.5,3.8,4.5c2.3,0,3.8-2,3.8-4.6c0-2.8-1.5-4.6-3.8-4.6
		S263.7,6.1,263.7,8.6z"/>
	<path class="st0" d="M280.2,16.4l3.2-16.4l6,10.4l5.7-10.4l3.4,16.4h-3.7l-1.4-6.9l-4.1,7.8l-4.6-7.8l-1.2,6.9H280.2z"/>
</g>
</svg>
