<?xml version="1.0" encoding="utf-8"?>
<!-- Generator: Adobe Illustrator 26.0.1, SVG Export Plug-In . SVG Version: 6.00 Build 0)  -->
<svg version="1.1" id="Layer_1" xmlns="http://www.w3.org/2000/svg" xmlns:xlink="http://www.w3.org/1999/xlink" x="0px" y="0px"
	 viewBox="0 0 258.74 144.12" style="enable-background:new 0 0 258.74 144.12;" xml:space="preserve">
<style type="text/css">
	.st0{fill:#84BD00;}
	.st1{enable-background:new    ;}
	.st2{fill:#84BD41;}
	.st3{clip-path:url(#SVGID_00000125599438707894390970000002143867964975569811_);}
	.st4{clip-path:url(#SVGID_00000139292835670372438030000015674169707723392695_);}
	.st5{clip-path:url(#SVGID_00000019642022731866446550000016029084688149526929_);}
	.st6{clip-path:url(#SVGID_00000119095241838068843680000017417581918725492900_);}
	.st7{clip-path:url(#SVGID_00000179608454429186895150000013171127174551875459_);}
	.st8{fill:#FFFFFF;}
</style>
<g>
	<path class="st0" d="M11.33,0.5C5.35,0.5,0.5,5.35,0.5,11.33l0,0v121.79c0,5.8,4.7,10.5,10.5,10.5l0,0h236.75
		c5.8-0.01,10.49-4.7,10.49-10.5V11c0-5.8-4.69-10.49-10.49-10.5H11.33"/>
</g>
<g>
	<path d="M11.33,0.5V0C5.07,0,0,5.07,0,11.33l0,0v121.79c0,6.08,4.92,11,11,11l0,0h236.75c6.08,0,11-4.92,11-11l0,0V11
		c0-6.08-4.92-11-11-11l0,0H11.33v1h236.42c5.52,0,10,4.48,10,10v122.12c0,5.52-4.48,10-10,10H11c-5.52,0-10-4.48-10-10V11.33
		C0.99,5.64,5.6,1.01,11.29,1c0.01,0,0.03,0,0.04,0V0.5"/>
</g>
<g class="st1">
	<path d="M19.04,21.29v6.72c0,0.28-0.05,0.46-0.15,0.54c-0.1,0.08-0.3,0.13-0.59,0.13h-1.34c-0.29,0-0.49-0.04-0.59-0.13
		c-0.1-0.08-0.15-0.27-0.15-0.54V12.92c0-0.28,0.05-0.46,0.15-0.54c0.1-0.08,0.3-0.13,0.59-0.13h8.56c0.28,0,0.46,0.05,0.54,0.15
		c0.08,0.1,0.13,0.3,0.13,0.59V14c0,0.29-0.04,0.49-0.13,0.59c-0.08,0.1-0.27,0.15-0.54,0.15h-6.49v4.06h5.89
		c0.28,0,0.46,0.05,0.54,0.15c0.08,0.1,0.13,0.3,0.13,0.59v1.02c0,0.29-0.04,0.49-0.13,0.59c-0.08,0.1-0.27,0.15-0.54,0.15H19.04z"
		/>
	<path d="M34.41,11.88c1.37,0,2.52,0.26,3.45,0.8c0.93,0.53,1.62,1.31,2.07,2.34c0.2,0.45,0.34,0.95,0.42,1.5s0.12,1.27,0.12,2.15
		v3.37c0,0.8-0.04,1.49-0.13,2.07c-0.08,0.58-0.22,1.1-0.4,1.58c-0.45,1.11-1.14,1.95-2.07,2.52c-0.93,0.57-2.08,0.85-3.45,0.85
		c-1.37,0-2.52-0.27-3.45-0.8c-0.93-0.53-1.62-1.31-2.07-2.34c-0.2-0.45-0.34-0.95-0.42-1.5c-0.08-0.55-0.12-1.27-0.12-2.15v-3.37
		c0-0.8,0.04-1.49,0.13-2.07s0.22-1.1,0.4-1.58c0.45-1.11,1.13-1.95,2.07-2.52C31.89,12.16,33.04,11.88,34.41,11.88z M34.41,14.35
		c-1.14,0-1.95,0.32-2.44,0.97s-0.73,1.72-0.73,3.21v3.88c0,1.49,0.24,2.56,0.73,3.21c0.48,0.65,1.3,0.97,2.44,0.97
		c1.14,0,1.95-0.32,2.43-0.97c0.48-0.65,0.73-1.72,0.73-3.21v-3.88c0-1.49-0.24-2.56-0.73-3.21C36.36,14.67,35.55,14.35,34.41,14.35
		z"/>
	<path d="M49,11.88c1.37,0,2.52,0.26,3.45,0.8c0.93,0.53,1.62,1.31,2.07,2.34c0.2,0.45,0.34,0.95,0.42,1.5s0.12,1.27,0.12,2.15v3.37
		c0,0.8-0.04,1.49-0.13,2.07c-0.08,0.58-0.22,1.1-0.4,1.58c-0.45,1.11-1.14,1.95-2.07,2.52c-0.93,0.57-2.08,0.85-3.45,0.85
		c-1.37,0-2.52-0.27-3.45-0.8c-0.93-0.53-1.62-1.31-2.07-2.34c-0.2-0.45-0.34-0.95-0.42-1.5c-0.08-0.55-0.12-1.27-0.12-2.15v-3.37
		c0-0.8,0.04-1.49,0.13-2.07s0.22-1.1,0.4-1.58c0.45-1.11,1.13-1.95,2.07-2.52C46.48,12.16,47.63,11.88,49,11.88z M49,14.35
		c-1.14,0-1.95,0.32-2.44,0.97s-0.73,1.72-0.73,3.21v3.88c0,1.49,0.24,2.56,0.73,3.21c0.48,0.65,1.3,0.97,2.44,0.97
		c1.14,0,1.95-0.32,2.43-0.97c0.48-0.65,0.73-1.72,0.73-3.21v-3.88c0-1.49-0.24-2.56-0.73-3.21C50.95,14.67,50.13,14.35,49,14.35z"
		/>
	<path d="M63.4,12.25c0.75,0,1.43,0.08,2.02,0.25c0.59,0.17,1.12,0.4,1.57,0.68c0.45,0.29,0.83,0.62,1.14,0.99s0.55,0.78,0.74,1.21
		c0.17,0.42,0.3,0.88,0.4,1.4s0.15,1.21,0.15,2.09v3.3c0,0.86-0.05,1.55-0.15,2.05s-0.23,0.96-0.4,1.36
		c-0.17,0.42-0.4,0.81-0.69,1.19c-0.29,0.38-0.65,0.71-1.06,0.99c-0.42,0.29-0.9,0.51-1.47,0.67c-0.56,0.16-1.2,0.24-1.9,0.24h-5.05
		c-0.29,0-0.49-0.04-0.59-0.13c-0.1-0.08-0.15-0.27-0.15-0.54V12.92c0-0.28,0.05-0.46,0.15-0.54c0.1-0.08,0.3-0.13,0.59-0.13H63.4z
		 M60.77,26.19h2.58c0.52,0,0.98-0.07,1.37-0.2c0.39-0.13,0.72-0.35,0.99-0.66c0.27-0.31,0.47-0.72,0.61-1.23
		c0.14-0.52,0.21-1.16,0.21-1.93v-3.42c0-0.75-0.07-1.39-0.22-1.9c-0.15-0.52-0.35-0.93-0.62-1.24c-0.27-0.31-0.6-0.53-0.99-0.67
		c-0.39-0.14-0.84-0.21-1.35-0.21h-2.58V26.19z"/>
	<path d="M88.81,28.01c0,0.28-0.05,0.46-0.15,0.54c-0.1,0.08-0.3,0.13-0.59,0.13h-1.34c-0.29,0-0.49-0.04-0.59-0.13
		c-0.1-0.08-0.15-0.27-0.15-0.54v-6.69h-6.23v6.69c0,0.28-0.05,0.46-0.15,0.54c-0.1,0.08-0.3,0.13-0.59,0.13h-1.34
		c-0.29,0-0.49-0.04-0.59-0.13c-0.1-0.08-0.15-0.27-0.15-0.54V12.92c0-0.28,0.05-0.46,0.15-0.54c0.1-0.08,0.3-0.13,0.59-0.13h1.34
		c0.29,0,0.49,0.04,0.59,0.13c0.1,0.08,0.15,0.26,0.15,0.54v5.91h6.23v-5.91c0-0.28,0.05-0.46,0.15-0.54
		c0.1-0.08,0.3-0.13,0.59-0.13h1.34c0.29,0,0.49,0.04,0.59,0.13c0.1,0.08,0.15,0.26,0.15,0.54V28.01z"/>
	<path d="M93.01,12.25c0.26,0,0.44,0.03,0.54,0.1s0.2,0.21,0.31,0.43l3.35,6.81l3.3-6.81c0.11-0.21,0.21-0.36,0.31-0.43
		c0.1-0.07,0.28-0.1,0.54-0.1h1.59c0.38,0,0.58,0.12,0.58,0.37c0,0.11-0.02,0.21-0.07,0.3l-4.94,9.53v5.56
		c0,0.28-0.05,0.46-0.15,0.54c-0.1,0.08-0.3,0.13-0.59,0.13h-1.34c-0.29,0-0.49-0.04-0.59-0.13c-0.1-0.08-0.15-0.27-0.15-0.54v-5.56
		l-4.94-9.53c-0.05-0.09-0.07-0.19-0.07-0.3c0-0.25,0.19-0.37,0.58-0.37H93.01z"/>
</g>
<g class="st1">
	<path d="M104.43,18.89c0-1.58,0.18-2.8,0.53-3.65c0.45-1.11,1.17-1.95,2.16-2.52c0.99-0.57,2.18-0.85,3.57-0.85
		c0.78,0,1.53,0.1,2.23,0.29s1.31,0.49,1.83,0.89s0.94,0.91,1.25,1.53c0.31,0.62,0.46,1.37,0.46,2.23c0,0.22-0.05,0.36-0.16,0.44
		c-0.11,0.08-0.3,0.12-0.58,0.12h-1.43c-0.28,0-0.47-0.04-0.57-0.12c-0.1-0.08-0.16-0.23-0.17-0.46c-0.06-0.88-0.34-1.51-0.83-1.89
		c-0.49-0.38-1.23-0.58-2.22-0.58c-0.57,0-1.05,0.07-1.45,0.2c-0.4,0.13-0.73,0.36-0.98,0.68s-0.44,0.75-0.57,1.29
		c-0.12,0.54-0.18,1.22-0.18,2.03v3.88c0,1.55,0.26,2.65,0.77,3.28s1.32,0.95,2.41,0.95c1.02,0,1.78-0.26,2.31-0.79
		c0.52-0.52,0.78-1.42,0.78-2.68v-0.44h-1.78c-0.28,0-0.46-0.05-0.54-0.15s-0.13-0.3-0.13-0.59v-1.02c0-0.29,0.04-0.49,0.13-0.59
		c0.08-0.1,0.27-0.15,0.54-0.15h3.9c0.29,0,0.49,0.04,0.59,0.13c0.1,0.08,0.15,0.27,0.15,0.54v2.61c0,0.75-0.12,1.47-0.36,2.13
		c-0.24,0.67-0.6,1.26-1.1,1.77c-0.49,0.51-1.12,0.91-1.87,1.2s-1.64,0.44-2.65,0.44c-1.49,0-2.67-0.27-3.54-0.82
		c-0.87-0.55-1.53-1.32-1.97-2.32c-0.2-0.45-0.34-0.94-0.42-1.49c-0.08-0.55-0.12-1.27-0.12-2.16V18.89z"/>
	<path d="M122.17,28.01c0,0.28-0.05,0.46-0.15,0.54c-0.1,0.08-0.3,0.13-0.59,0.13h-1.34c-0.29,0-0.49-0.04-0.59-0.13
		c-0.1-0.08-0.15-0.27-0.15-0.54V12.92c0-0.28,0.05-0.46,0.15-0.54c0.1-0.08,0.3-0.13,0.59-0.13h1.34c0.29,0,0.49,0.04,0.59,0.13
		c0.1,0.08,0.15,0.26,0.15,0.54V28.01z"/>
	<path d="M135.61,27.94c0,0.29-0.04,0.49-0.13,0.59c-0.08,0.1-0.27,0.15-0.54,0.15h-8.7c-0.29,0-0.49-0.04-0.59-0.13
		c-0.1-0.08-0.15-0.27-0.15-0.54V12.92c0-0.28,0.05-0.46,0.15-0.54c0.1-0.08,0.3-0.13,0.59-0.13h8.61c0.28,0,0.46,0.05,0.54,0.15
		c0.08,0.1,0.13,0.3,0.13,0.59V14c0,0.29-0.04,0.49-0.13,0.59c-0.08,0.1-0.27,0.15-0.54,0.15h-6.53v4.25h5.93
		c0.28,0,0.46,0.05,0.54,0.15c0.08,0.1,0.13,0.3,0.13,0.59v1.02c0,0.29-0.04,0.49-0.13,0.59c-0.08,0.1-0.27,0.15-0.54,0.15h-5.93
		v4.71h6.62c0.28,0,0.46,0.05,0.54,0.15c0.08,0.1,0.13,0.3,0.13,0.59V27.94z"/>
	<path d="M141.26,17.58v10.43c0,0.28-0.05,0.46-0.15,0.54c-0.1,0.08-0.3,0.13-0.59,0.13h-1.27c-0.29,0-0.49-0.04-0.59-0.13
		c-0.1-0.08-0.15-0.27-0.15-0.54V12.92c0-0.28,0.05-0.46,0.15-0.54c0.1-0.08,0.3-0.13,0.59-0.13h1.34c0.29,0,0.5,0.03,0.63,0.1
		s0.27,0.25,0.43,0.54l5.52,10.46V12.92c0-0.28,0.05-0.46,0.15-0.54c0.1-0.08,0.3-0.13,0.59-0.13h1.27c0.29,0,0.49,0.04,0.59,0.13
		c0.1,0.08,0.15,0.26,0.15,0.54v15.09c0,0.28-0.05,0.46-0.15,0.54c-0.1,0.08-0.3,0.13-0.59,0.13h-1.34c-0.29,0-0.5-0.03-0.63-0.1
		c-0.13-0.07-0.27-0.25-0.43-0.54L141.26,17.58z"/>
	<path d="M163.35,27.94c0,0.29-0.04,0.49-0.13,0.59c-0.08,0.1-0.27,0.15-0.54,0.15h-8.7c-0.29,0-0.49-0.04-0.59-0.13
		c-0.1-0.08-0.15-0.27-0.15-0.54V12.92c0-0.28,0.05-0.46,0.15-0.54c0.1-0.08,0.3-0.13,0.59-0.13h8.61c0.28,0,0.46,0.05,0.54,0.15
		c0.08,0.1,0.13,0.3,0.13,0.59V14c0,0.29-0.04,0.49-0.13,0.59c-0.08,0.1-0.27,0.15-0.54,0.15h-6.53v4.25h5.93
		c0.28,0,0.46,0.05,0.54,0.15c0.08,0.1,0.13,0.3,0.13,0.59v1.02c0,0.29-0.04,0.49-0.13,0.59c-0.08,0.1-0.27,0.15-0.54,0.15h-5.93
		v4.71h6.62c0.28,0,0.46,0.05,0.54,0.15c0.08,0.1,0.13,0.3,0.13,0.59V27.94z"/>
	<path d="M173.64,22.26v5.75c0,0.26-0.05,0.44-0.14,0.53c-0.09,0.09-0.29,0.14-0.6,0.14h-1.29c-0.31,0-0.51-0.05-0.6-0.14
		c-0.09-0.09-0.14-0.27-0.14-0.53V12.92c0-0.26,0.05-0.44,0.14-0.53c0.09-0.09,0.29-0.14,0.6-0.14h4.94c1.83,0,3.17,0.38,4.02,1.14
		c0.85,0.76,1.27,1.98,1.27,3.66v0.44c0,2.34-0.93,3.82-2.79,4.43l3.44,6.09c0.06,0.12,0.09,0.22,0.09,0.3c0,0.25-0.2,0.37-0.6,0.37
		h-1.73c-0.26,0-0.45-0.04-0.57-0.13c-0.12-0.08-0.25-0.27-0.4-0.54l-3.12-5.75H173.64z M173.64,19.86h2.89
		c0.89,0,1.52-0.18,1.89-0.54c0.37-0.36,0.55-0.98,0.55-1.86v-0.32c0-0.92-0.18-1.57-0.54-1.94c-0.36-0.37-1-0.55-1.9-0.55h-2.89
		V19.86z"/>
	<path d="M197.51,28.01c0.03,0.12,0.05,0.21,0.05,0.25c0,0.28-0.17,0.42-0.51,0.42h-1.62c-0.29,0-0.48-0.04-0.57-0.13
		c-0.08-0.08-0.17-0.27-0.27-0.54l-1.06-3.25h-6.05l-1.04,3.28c-0.09,0.28-0.18,0.45-0.27,0.53c-0.08,0.08-0.27,0.12-0.57,0.12
		h-1.52c-0.34,0-0.51-0.14-0.51-0.42c0-0.05,0.01-0.13,0.05-0.25l5.19-15.35c0.06-0.18,0.15-0.3,0.25-0.35
		c0.11-0.05,0.27-0.07,0.49-0.07h2.08c0.21,0,0.38,0.02,0.48,0.07c0.11,0.05,0.19,0.16,0.25,0.35L197.51,28.01z M188.25,22.36h4.5
		l-2.26-7.02L188.25,22.36z"/>
</g>
<g class="st1">
	<path d="M201.32,14.74h-4.04c-0.28,0-0.46-0.05-0.54-0.15c-0.08-0.1-0.13-0.3-0.13-0.59v-1.02c0-0.29,0.04-0.49,0.13-0.59
		c0.08-0.1,0.27-0.15,0.54-0.15h10.89c0.28,0,0.46,0.05,0.54,0.15c0.08,0.1,0.13,0.3,0.13,0.59V14c0,0.29-0.04,0.49-0.13,0.59
		c-0.08,0.1-0.26,0.15-0.54,0.15h-4.04v13.27c0,0.28-0.05,0.46-0.15,0.54c-0.1,0.08-0.3,0.13-0.59,0.13h-1.34
		c-0.29,0-0.49-0.04-0.59-0.13c-0.1-0.08-0.15-0.27-0.15-0.54V14.74z"/>
	<path d="M213.78,28.01c0,0.28-0.05,0.46-0.15,0.54c-0.1,0.08-0.3,0.13-0.59,0.13h-1.34c-0.29,0-0.49-0.04-0.59-0.13
		c-0.1-0.08-0.15-0.27-0.15-0.54V12.92c0-0.28,0.05-0.46,0.15-0.54c0.1-0.08,0.3-0.13,0.59-0.13h1.34c0.29,0,0.49,0.04,0.59,0.13
		c0.1,0.08,0.15,0.26,0.15,0.54V28.01z"/>
	<path d="M219.85,17.58v10.43c0,0.28-0.05,0.46-0.15,0.54c-0.1,0.08-0.3,0.13-0.59,0.13h-1.27c-0.29,0-0.49-0.04-0.59-0.13
		c-0.1-0.08-0.15-0.27-0.15-0.54V12.92c0-0.28,0.05-0.46,0.15-0.54c0.1-0.08,0.3-0.13,0.59-0.13h1.34c0.29,0,0.5,0.03,0.63,0.1
		s0.27,0.25,0.43,0.54l5.52,10.46V12.92c0-0.28,0.05-0.46,0.15-0.54c0.1-0.08,0.3-0.13,0.59-0.13h1.27c0.29,0,0.49,0.04,0.59,0.13
		c0.1,0.08,0.15,0.26,0.15,0.54v15.09c0,0.28-0.05,0.46-0.15,0.54c-0.1,0.08-0.3,0.13-0.59,0.13h-1.34c-0.29,0-0.5-0.03-0.63-0.1
		s-0.27-0.25-0.43-0.54L219.85,17.58z"/>
	<path d="M231.42,18.89c0-1.58,0.18-2.8,0.53-3.65c0.45-1.11,1.17-1.95,2.16-2.52s2.18-0.85,3.57-0.85c0.79,0,1.53,0.1,2.23,0.29
		s1.31,0.49,1.83,0.89c0.52,0.4,0.94,0.91,1.25,1.53c0.31,0.62,0.46,1.37,0.46,2.23c0,0.22-0.05,0.36-0.16,0.44
		c-0.11,0.08-0.3,0.12-0.58,0.12h-1.43c-0.28,0-0.47-0.04-0.57-0.12c-0.1-0.08-0.16-0.23-0.17-0.46c-0.06-0.88-0.34-1.51-0.83-1.89
		s-1.23-0.58-2.22-0.58c-0.57,0-1.05,0.07-1.45,0.2s-0.73,0.36-0.98,0.68s-0.44,0.75-0.57,1.29c-0.12,0.54-0.18,1.22-0.18,2.03v3.88
		c0,1.55,0.26,2.65,0.77,3.28s1.32,0.95,2.41,0.95c1.02,0,1.79-0.26,2.31-0.79c0.52-0.52,0.78-1.42,0.78-2.68v-0.44h-1.78
		c-0.28,0-0.46-0.05-0.54-0.15c-0.08-0.1-0.13-0.3-0.13-0.59v-1.02c0-0.29,0.04-0.49,0.13-0.59c0.08-0.1,0.27-0.15,0.54-0.15h3.9
		c0.29,0,0.49,0.04,0.59,0.13c0.1,0.08,0.15,0.27,0.15,0.54v2.61c0,0.75-0.12,1.47-0.36,2.13c-0.24,0.67-0.6,1.26-1.1,1.77
		c-0.49,0.51-1.12,0.91-1.87,1.2s-1.64,0.44-2.65,0.44c-1.49,0-2.67-0.27-3.54-0.82c-0.87-0.55-1.53-1.32-1.97-2.32
		c-0.2-0.45-0.34-0.94-0.42-1.49c-0.08-0.55-0.12-1.27-0.12-2.16V18.89z"/>
</g>
<g>
	<polyline points="257.75,41.26 1,41.26 1,39.78 257.75,39.78 257.75,41.26 	"/>
</g>
<g>
	<path d="M258.34,41.26h-0.1v-1.48h0.1V41.26 M0.5,41.26H0v-1.48h0.5V41.26"/>
</g>
<g>
	<path d="M258.24,41.26h-0.49v-1.48h0.49V41.26 M1,41.26H0.5v-1.48H1V41.26"/>
</g>
<g>
	<path d="M248,144.12h-0.24c3.42,0,6.65-1.6,8.73-4.32C254.52,142.52,251.36,144.12,248,144.12"/>
</g>
<g>
	<path d="M247.75,143.12H11c-5.52,0-10-4.48-10-10V101h256.75v32.13c0,5.52-4.48,10-10,10"/>
</g>
<g>
	<path d="M247.75,144.12H11.08c-4.02-0.06-7.65-2.42-9.35-6.06c1.83,3.42,5.39,5.56,9.27,5.56h236.75c5.8-0.01,10.49-4.7,10.49-10.5
		V101h0.25v32.63c0.01,2.22-0.69,4.39-2,6.18c-2.08,2.72-5.31,4.32-8.73,4.32"/>
</g>
<g>
	<path d="M247.75,143.62H11c-5.44,0.22-10.02-4.01-10.24-9.44c-0.01-0.19-0.01-0.37-0.01-0.56V101H1v32.13c0,5.52,4.48,10,10,10
		h236.75c5.52,0,10-4.48,10-10V101h0.49v32.13c0,5.8-4.69,10.49-10.49,10.5"/>
</g>
<g>
	<rect x="25.99" y="65.6" class="st2" width="8.07" height="11.58"/>
</g>
<g>
	<defs>
		<polyline id="SVGID_1_" points="34.06,77.18 25.99,77.18 25.99,65.6 34.06,65.6 34.06,77.18 		"/>
	</defs>
	<clipPath id="SVGID_00000065777406790488923650000005892952263918507672_">
		<use xlink:href="#SVGID_1_"  style="overflow:visible;"/>
	</clipPath>
	<g style="clip-path:url(#SVGID_00000065777406790488923650000005892952263918507672_);">
		<g class="st1">
			<path d="M30.02,77.18c-1.83,0-3.05-0.74-3.67-2.22c-0.13-0.31-0.23-0.65-0.28-1.01c-0.06-0.36-0.08-0.83-0.08-1.41V70.4
				c0-0.6,0.03-1.08,0.08-1.46c0.05-0.38,0.15-0.72,0.28-1.04c0.62-1.53,1.84-2.3,3.67-2.3c1.83,0,3.05,0.74,3.67,2.22
				c0.13,0.31,0.23,0.64,0.28,1.01s0.08,0.83,0.08,1.41v2.15c0,0.6-0.03,1.08-0.08,1.46s-0.15,0.72-0.28,1.04
				C33.07,76.42,31.85,77.18,30.02,77.18z M30.02,67.44c-0.36,0-0.67,0.05-0.92,0.15c-0.25,0.1-0.45,0.26-0.6,0.47
				c-0.15,0.22-0.26,0.5-0.33,0.84c-0.07,0.35-0.1,0.77-0.1,1.27v2.45c0,0.51,0.03,0.93,0.1,1.28c0.07,0.35,0.18,0.63,0.33,0.84
				s0.36,0.37,0.6,0.46c0.25,0.09,0.55,0.14,0.92,0.14c0.36,0,0.67-0.05,0.92-0.14c0.25-0.09,0.45-0.25,0.6-0.46
				c0.15-0.21,0.26-0.5,0.33-0.84c0.07-0.35,0.1-0.77,0.1-1.28v-2.45c0-0.5-0.03-0.92-0.1-1.27c-0.07-0.35-0.18-0.63-0.33-0.84
				c-0.15-0.21-0.36-0.37-0.6-0.47C30.69,67.49,30.38,67.44,30.02,67.44z"/>
		</g>
	</g>
</g>
<g>
	<path d="M30.55,87.45L30.55,87.45 M30.55,87.45c-9.05,0-16.39-7.34-16.39-16.39c0-9.05,7.34-16.39,16.39-16.39
		s16.39,7.34,16.39,16.39C46.93,80.11,39.6,87.44,30.55,87.45v-1.37c8.28-0.01,14.99-6.73,14.98-15.02S38.8,56.07,30.52,56.08
		c-8.28,0.01-14.99,6.73-14.98,15.02c0,3.97,1.58,7.77,4.39,10.58c2.82,2.82,6.64,4.4,10.63,4.4V87.45L30.55,87.45"/>
</g>
<g>
	<rect x="63.79" y="65.83" class="st2" width="4.14" height="11.12"/>
</g>
<g>
	<defs>
		<polyline id="SVGID_00000063617902001458057450000009434329480533129387_" points="67.93,76.95 63.79,76.95 63.79,65.83 
			67.93,65.83 67.93,76.95 		"/>
	</defs>
	<clipPath id="SVGID_00000053525049036110888680000013939030267429690552_">
		<use xlink:href="#SVGID_00000063617902001458057450000009434329480533129387_"  style="overflow:visible;"/>
	</clipPath>
	<g style="clip-path:url(#SVGID_00000053525049036110888680000013939030267429690552_);">
		<g class="st1">
			<path d="M67.92,76.47c0,0.2-0.04,0.33-0.11,0.39s-0.21,0.09-0.42,0.09h-0.91c-0.21,0-0.35-0.03-0.42-0.09s-0.11-0.19-0.11-0.39
				v-8.85h-1.69c-0.2,0-0.33-0.04-0.39-0.11c-0.06-0.07-0.09-0.21-0.09-0.42v-0.73c0-0.21,0.03-0.35,0.09-0.42
				c0.06-0.07,0.19-0.11,0.39-0.11h3.13c0.21,0,0.35,0.03,0.42,0.09s0.11,0.19,0.11,0.39V76.47z"/>
		</g>
	</g>
</g>
<g>
	<path d="M67,87.45L67,87.45 M67,87.45c-9.05,0-16.39-7.34-16.39-16.39c0-9.05,7.34-16.39,16.39-16.39s16.39,7.34,16.39,16.39
		S76.05,87.45,67,87.45L67,87.45v-1.37c8.28-0.01,14.99-6.73,14.98-15.02s-6.73-14.99-15.02-14.98
		c-8.28,0.01-14.99,6.73-14.98,15.02c0,3.97,1.58,7.77,4.39,10.58c2.82,2.82,6.64,4.4,10.63,4.4V87.45L67,87.45"/>
</g>
<g>
	<rect x="99.05" y="65.6" class="st2" width="7.41" height="11.35"/>
</g>
<g>
	<defs>
		<polyline id="SVGID_00000030445567643520603600000001523792121592321197_" points="106.46,76.95 99.05,76.95 99.05,65.6 
			106.46,65.6 106.46,76.95 		"/>
	</defs>
	<clipPath id="SVGID_00000068658155107328886280000015333987035963635890_">
		<use xlink:href="#SVGID_00000030445567643520603600000001523792121592321197_"  style="overflow:visible;"/>
	</clipPath>
	<g style="clip-path:url(#SVGID_00000068658155107328886280000015333987035963635890_);">
		<g class="st1">
			<path d="M102.9,65.6c1.15,0,2.03,0.26,2.64,0.79s0.92,1.27,0.92,2.24v0.5c0,0.4-0.07,0.76-0.22,1.1
				c-0.15,0.34-0.35,0.65-0.6,0.93s-0.53,0.54-0.85,0.77s-0.65,0.45-0.98,0.65l-1.32,0.79c-0.3,0.18-0.53,0.34-0.7,0.49
				c-0.17,0.15-0.3,0.29-0.39,0.42c-0.09,0.13-0.14,0.26-0.17,0.4c-0.02,0.13-0.03,0.26-0.03,0.4v0.07h4.78
				c0.2,0,0.33,0.04,0.39,0.11c0.06,0.07,0.09,0.21,0.09,0.42v0.76c0,0.21-0.03,0.35-0.09,0.42c-0.06,0.07-0.19,0.11-0.39,0.11h-6.4
				c-0.21,0-0.35-0.03-0.42-0.09c-0.07-0.06-0.11-0.19-0.11-0.39v-0.81c0-0.5,0.06-0.94,0.18-1.33c0.12-0.39,0.28-0.74,0.49-1.04
				c0.2-0.3,0.44-0.57,0.72-0.79c0.28-0.23,0.57-0.43,0.88-0.6l1.41-0.81c0.22-0.13,0.43-0.27,0.64-0.41
				c0.2-0.14,0.38-0.29,0.54-0.47c0.15-0.18,0.28-0.37,0.37-0.59c0.09-0.21,0.14-0.45,0.14-0.72v-0.17c0-0.97-0.53-1.46-1.59-1.46
				c-0.53,0-0.92,0.1-1.17,0.31c-0.25,0.21-0.41,0.58-0.49,1.11c-0.02,0.13-0.07,0.22-0.14,0.27c-0.07,0.05-0.2,0.07-0.37,0.07
				h-0.94c-0.21,0-0.35-0.03-0.42-0.1c-0.07-0.07-0.11-0.2-0.11-0.41c0-0.34,0.07-0.69,0.2-1.03c0.13-0.35,0.31-0.63,0.53-0.85
				C100.6,65.95,101.6,65.6,102.9,65.6z"/>
		</g>
	</g>
</g>
<g>
	<path d="M103.34,87.45L103.34,87.45 M103.34,87.45c-9.05-0.01-16.39-7.35-16.38-16.4c0.01-9.05,7.35-16.39,16.4-16.38
		c9.05,0.01,16.38,7.34,16.38,16.39c0,9.05-7.34,16.39-16.39,16.39C103.35,87.45,103.34,87.45,103.34,87.45v-1.37
		c8.28,0,15-6.72,14.99-15.01c0-8.28-6.72-15-15.01-14.99c-8.28,0-15,6.72-14.99,15.01c0,3.97,1.58,7.78,4.39,10.59
		c2.82,2.82,6.64,4.4,10.62,4.4V87.45L103.34,87.45"/>
</g>
<g>
	<rect x="135.42" y="65.6" class="st2" width="7.66" height="11.58"/>
</g>
<g>
	<defs>
		<polyline id="SVGID_00000152986659702251506960000011759946428154219163_" points="143.08,77.18 135.42,77.18 135.42,65.6 
			143.08,65.6 143.08,77.18 		"/>
	</defs>
	<clipPath id="SVGID_00000038406059105874030820000003693194180343169206_">
		<use xlink:href="#SVGID_00000152986659702251506960000011759946428154219163_"  style="overflow:visible;"/>
	</clipPath>
	<g style="clip-path:url(#SVGID_00000038406059105874030820000003693194180343169206_);">
		<g class="st1">
			<path d="M139.43,65.6c1.14,0,2,0.24,2.61,0.73c0.6,0.49,0.9,1.2,0.9,2.13v0.33c0,0.53-0.15,0.99-0.45,1.38
				c-0.3,0.39-0.71,0.7-1.24,0.92c0.6,0.16,1.05,0.44,1.37,0.84c0.31,0.41,0.47,0.93,0.47,1.56v0.61c0,0.97-0.34,1.73-1.02,2.27
				c-0.68,0.54-1.6,0.81-2.77,0.81c-0.71,0-1.33-0.08-1.86-0.26s-0.96-0.42-1.28-0.74c-0.22-0.22-0.4-0.5-0.53-0.83
				c-0.13-0.34-0.2-0.67-0.2-1c0-0.21,0.04-0.35,0.11-0.41c0.07-0.07,0.21-0.1,0.42-0.1h0.94c0.19,0,0.32,0.02,0.39,0.07
				c0.07,0.05,0.11,0.14,0.12,0.27c0.08,0.87,0.68,1.31,1.8,1.31c0.57,0,1.01-0.13,1.32-0.38s0.46-0.63,0.46-1.12v-0.4
				c0-1.04-0.57-1.56-1.7-1.56h-0.5c-0.2,0-0.33-0.04-0.39-0.11c-0.06-0.07-0.09-0.21-0.09-0.42v-0.73c0-0.21,0.03-0.35,0.09-0.42
				c0.06-0.07,0.19-0.11,0.39-0.11h0.3c1.19,0,1.79-0.5,1.79-1.49v-0.2c0-0.9-0.54-1.36-1.62-1.36c-0.54,0-0.95,0.11-1.23,0.32
				c-0.28,0.22-0.46,0.57-0.54,1.07c-0.02,0.13-0.07,0.22-0.14,0.27c-0.07,0.05-0.2,0.08-0.37,0.08h-0.88
				c-0.21,0-0.35-0.03-0.42-0.1c-0.07-0.07-0.11-0.2-0.11-0.41c0-0.33,0.06-0.65,0.19-0.97c0.13-0.31,0.31-0.59,0.54-0.82
				c0.35-0.36,0.77-0.63,1.27-0.79C138.06,65.69,138.68,65.6,139.43,65.6z"/>
		</g>
	</g>
</g>
<g>
	<path d="M139.74,87.45L139.74,87.45 M139.74,87.45c-9.05-0.01-16.39-7.35-16.38-16.4c0.01-9.05,7.35-16.39,16.4-16.38
		c9.05,0.01,16.38,7.34,16.38,16.39c0,9.05-7.34,16.39-16.39,16.39C139.75,87.45,139.74,87.45,139.74,87.45v-1.37
		c8.28,0,15-6.72,14.99-15.01c0-8.28-6.72-15-15.01-14.99c-8.28,0-15,6.72-14.99,15.01c0,3.97,1.58,7.78,4.39,10.59
		c2.82,2.82,6.64,4.4,10.62,4.4V87.45L139.74,87.45"/>
</g>
<g>
	<rect x="171.71" y="65.83" class="st2" width="7.94" height="11.12"/>
</g>
<g>
	<defs>
		<polyline id="SVGID_00000123420343390899332590000017908946304881708977_" points="179.66,76.95 171.72,76.95 171.72,65.83 
			179.66,65.83 179.66,76.95 		"/>
	</defs>
	<clipPath id="SVGID_00000137132410693983518290000001541315049423339181_">
		<use xlink:href="#SVGID_00000123420343390899332590000017908946304881708977_"  style="overflow:visible;"/>
	</clipPath>
	<g style="clip-path:url(#SVGID_00000137132410693983518290000001541315049423339181_);">
		<g class="st1">
			<path d="M177.98,65.83c0.21,0,0.35,0.03,0.42,0.09c0.07,0.06,0.11,0.19,0.11,0.39v6.72h0.66c0.2,0,0.33,0.04,0.39,0.11
				c0.06,0.07,0.09,0.21,0.09,0.42v0.68c0,0.21-0.03,0.35-0.09,0.42c-0.06,0.07-0.19,0.11-0.39,0.11h-0.66v1.7
				c0,0.2-0.04,0.33-0.11,0.39c-0.07,0.06-0.21,0.09-0.42,0.09h-0.84c-0.21,0-0.35-0.03-0.42-0.09c-0.07-0.06-0.11-0.19-0.11-0.39
				v-1.7h-4.42c-0.2,0-0.33-0.04-0.39-0.11c-0.06-0.07-0.09-0.21-0.09-0.42v-1.16c0-0.13,0.01-0.26,0.03-0.37
				c0.02-0.12,0.08-0.23,0.17-0.36l4.17-6.05c0.13-0.19,0.23-0.31,0.31-0.37c0.07-0.06,0.18-0.09,0.34-0.09H177.98z M176.6,73.03
				v-4.65l-3.23,4.65H176.6z"/>
		</g>
	</g>
</g>
<g>
	<path d="M176.14,87.45L176.14,87.45 M176.14,87.45c-9.05,0-16.39-7.34-16.39-16.39c0-9.05,7.34-16.39,16.39-16.39
		s16.39,7.34,16.39,16.39S185.19,87.45,176.14,87.45L176.14,87.45v-1.37c8.28,0,15-6.72,14.99-15.01c0-8.28-6.72-15-15.01-14.99
		c-8.28,0-15,6.72-14.99,15.01c0,3.97,1.58,7.78,4.39,10.59c2.82,2.82,6.64,4.4,10.62,4.4V87.45L176.14,87.45"/>
</g>
<g>
	<path d="M220.74,95.4c13.45,0,24.35-10.9,24.35-24.35c0-13.45-10.9-24.35-24.35-24.35c-13.45,0-24.35,10.9-24.35,24.35
		c0,0,0,0.01,0,0.01C196.4,84.5,207.3,95.4,220.74,95.4z"/>
</g>
<g class="st1">
	<path class="st8" d="M228.22,77.25c0,2.26-0.7,4.01-2.11,5.26c-1.4,1.25-3.34,1.87-5.82,1.87c-3,0-5.19-0.7-6.56-2.09
		c-0.48-0.48-0.86-1.06-1.13-1.73s-0.41-1.36-0.41-2.05c0-0.46,0.08-0.76,0.23-0.9c0.16-0.14,0.46-0.22,0.92-0.22h2.05
		c0.38,0,0.65,0.05,0.81,0.16c0.16,0.11,0.26,0.31,0.31,0.59c0.14,0.91,0.5,1.57,1.06,1.96c0.56,0.4,1.42,0.59,2.58,0.59
		c2.47,0,3.71-1.22,3.71-3.67v-1.37c0-2.59-1.17-3.89-3.49-3.89c-0.41,0-0.85,0.05-1.33,0.14c-0.48,0.1-0.89,0.23-1.22,0.4
		c-0.46,0.22-0.79,0.35-0.99,0.41c-0.2,0.06-0.46,0.09-0.77,0.09h-1.95c-0.48,0-0.79-0.07-0.94-0.22c-0.14-0.14-0.22-0.42-0.22-0.83
		V60.72c0-0.41,0.07-0.68,0.22-0.83c0.14-0.14,0.46-0.22,0.94-0.22h12.35c0.41,0,0.68,0.07,0.83,0.22c0.14,0.14,0.22,0.46,0.22,0.94
		v1.58c0,0.48-0.07,0.79-0.22,0.94c-0.14,0.14-0.42,0.22-0.83,0.22h-9.58v5.62c0.77-0.36,1.51-0.62,2.22-0.79
		c0.71-0.17,1.46-0.25,2.25-0.25c4.59,0,6.88,2.5,6.88,7.49V77.25z"/>
</g>
<g class="st1">
	<path class="st8" d="M79.71,116.21c-0.03-0.11-0.04-0.18-0.04-0.22c0-0.24,0.15-0.36,0.44-0.36h1.43c0.25,0,0.42,0.04,0.5,0.11
		c0.08,0.07,0.15,0.23,0.22,0.46l3.03,10.53l3.03-10.53c0.07-0.24,0.14-0.39,0.22-0.46c0.08-0.07,0.24-0.11,0.49-0.11h1.37
		c0.29,0,0.44,0.12,0.44,0.36c0,0.04-0.01,0.11-0.04,0.22l-4.02,13.17c-0.05,0.16-0.13,0.26-0.22,0.3
		c-0.09,0.04-0.23,0.06-0.42,0.06h-1.76c-0.19,0-0.32-0.02-0.42-0.06c-0.09-0.04-0.17-0.14-0.22-0.3L79.71,116.21z"/>
	<path class="st8" d="M101.19,129.1c0,0.25-0.04,0.42-0.11,0.5c-0.07,0.09-0.23,0.13-0.47,0.13h-7.46c-0.25,0-0.42-0.04-0.5-0.11
		c-0.09-0.07-0.13-0.23-0.13-0.46v-12.95c0-0.24,0.04-0.39,0.13-0.46c0.09-0.07,0.25-0.11,0.5-0.11h7.39c0.24,0,0.39,0.04,0.46,0.13
		c0.07,0.09,0.11,0.25,0.11,0.5v0.87c0,0.25-0.04,0.42-0.11,0.5c-0.07,0.09-0.23,0.13-0.46,0.13h-5.6v3.64h5.09
		c0.24,0,0.39,0.04,0.47,0.13c0.07,0.09,0.11,0.25,0.11,0.5v0.87c0,0.25-0.04,0.42-0.11,0.5c-0.07,0.09-0.23,0.13-0.47,0.13h-5.09
		v4.04h5.68c0.24,0,0.39,0.04,0.47,0.13c0.07,0.09,0.11,0.25,0.11,0.5V129.1z"/>
	<path class="st8" d="M106.06,124.22v4.93c0,0.22-0.04,0.38-0.12,0.46c-0.08,0.08-0.25,0.12-0.51,0.12h-1.11
		c-0.26,0-0.44-0.04-0.51-0.12s-0.12-0.23-0.12-0.46v-12.95c0-0.22,0.04-0.38,0.12-0.46s0.25-0.12,0.51-0.12h4.24
		c1.57,0,2.72,0.33,3.45,0.98c0.73,0.65,1.09,1.7,1.09,3.14v0.38c0,2.01-0.8,3.27-2.4,3.8l2.95,5.23c0.05,0.11,0.08,0.19,0.08,0.26
		c0,0.21-0.17,0.32-0.52,0.32h-1.48c-0.22,0-0.39-0.04-0.48-0.11c-0.1-0.07-0.21-0.23-0.35-0.46l-2.67-4.93H106.06z M106.06,122.17
		h2.47c0.77,0,1.31-0.16,1.62-0.47c0.32-0.31,0.48-0.84,0.48-1.59v-0.28c0-0.79-0.16-1.35-0.47-1.66c-0.31-0.32-0.85-0.47-1.63-0.47
		h-2.47V122.17z"/>
</g>
<g class="st1">
	<path class="st8" d="M115.98,115.63c0.22,0,0.38,0.03,0.46,0.09s0.17,0.18,0.27,0.37l2.87,5.84l2.83-5.84
		c0.09-0.18,0.18-0.31,0.27-0.37c0.09-0.06,0.24-0.09,0.47-0.09h1.37c0.33,0,0.5,0.11,0.5,0.32c0,0.09-0.02,0.18-0.06,0.26
		l-4.24,8.18v4.77c0,0.24-0.04,0.39-0.13,0.46c-0.09,0.07-0.25,0.11-0.51,0.11h-1.15c-0.25,0-0.42-0.04-0.5-0.11
		c-0.09-0.07-0.13-0.23-0.13-0.46v-4.77l-4.24-8.18c-0.04-0.08-0.06-0.17-0.06-0.26c0-0.21,0.16-0.32,0.49-0.32H115.98z"/>
	<path class="st8" d="M130.23,121.33c0-1.36,0.15-2.4,0.46-3.13c0.38-0.95,1-1.67,1.85-2.16s1.87-0.73,3.06-0.73
		c0.67,0,1.31,0.08,1.91,0.25s1.12,0.42,1.57,0.76c0.45,0.34,0.8,0.78,1.07,1.32c0.26,0.53,0.4,1.17,0.4,1.91
		c0,0.18-0.05,0.31-0.14,0.38c-0.09,0.07-0.26,0.1-0.5,0.1h-1.23c-0.24,0-0.4-0.03-0.49-0.1s-0.14-0.2-0.15-0.4
		c-0.05-0.75-0.29-1.29-0.71-1.62c-0.42-0.33-1.06-0.5-1.9-0.5c-0.49,0-0.9,0.06-1.25,0.17s-0.62,0.31-0.84,0.58
		s-0.38,0.65-0.48,1.11c-0.11,0.46-0.16,1.04-0.16,1.74v3.33c0,1.33,0.22,2.27,0.66,2.81c0.44,0.54,1.13,0.81,2.07,0.81
		c0.87,0,1.53-0.22,1.98-0.67c0.45-0.45,0.67-1.21,0.67-2.3v-0.38h-1.52c-0.24,0-0.39-0.04-0.46-0.13c-0.07-0.09-0.11-0.25-0.11-0.5
		v-0.87c0-0.25,0.04-0.42,0.11-0.5c0.07-0.09,0.23-0.13,0.46-0.13h3.35c0.25,0,0.42,0.04,0.5,0.11c0.08,0.07,0.13,0.23,0.13,0.46
		v2.24c0,0.65-0.1,1.26-0.31,1.83c-0.2,0.57-0.52,1.08-0.94,1.51s-0.96,0.78-1.6,1.03c-0.65,0.25-1.41,0.38-2.28,0.38
		c-1.28,0-2.29-0.23-3.04-0.7c-0.75-0.47-1.31-1.13-1.69-1.99c-0.17-0.38-0.29-0.81-0.36-1.28c-0.07-0.47-0.1-1.08-0.1-1.85V121.33z
		"/>
	<path class="st8" d="M147.88,115.32c1.17,0,2.16,0.23,2.96,0.68s1.39,1.13,1.77,2.01c0.17,0.38,0.29,0.81,0.36,1.29
		c0.07,0.48,0.1,1.09,0.1,1.84v2.89c0,0.69-0.04,1.28-0.11,1.77s-0.19,0.95-0.35,1.36c-0.38,0.95-0.97,1.67-1.77,2.16
		s-1.79,0.73-2.96,0.73s-2.16-0.23-2.96-0.68c-0.8-0.46-1.39-1.12-1.77-2.01c-0.17-0.38-0.29-0.81-0.36-1.29
		c-0.07-0.48-0.1-1.09-0.1-1.84v-2.89c0-0.69,0.04-1.28,0.11-1.77s0.19-0.95,0.35-1.36c0.38-0.95,0.97-1.67,1.77-2.16
		C145.71,115.56,146.7,115.32,147.88,115.32z M147.88,117.43c-0.98,0-1.67,0.28-2.09,0.83c-0.42,0.55-0.62,1.47-0.62,2.75v3.33
		c0,1.28,0.21,2.2,0.62,2.75c0.42,0.55,1.11,0.83,2.09,0.83c0.98,0,1.67-0.28,2.09-0.83c0.42-0.55,0.62-1.47,0.62-2.75v-3.33
		c0-1.28-0.21-2.2-0.62-2.75C149.55,117.71,148.85,117.43,147.88,117.43z"/>
	<path class="st8" d="M160.39,115.32c1.17,0,2.16,0.23,2.96,0.68s1.39,1.13,1.77,2.01c0.17,0.38,0.29,0.81,0.36,1.29
		c0.07,0.48,0.1,1.09,0.1,1.84v2.89c0,0.69-0.04,1.28-0.11,1.77c-0.07,0.5-0.19,0.95-0.35,1.36c-0.38,0.95-0.97,1.67-1.77,2.16
		s-1.79,0.73-2.96,0.73s-2.16-0.23-2.96-0.68s-1.39-1.12-1.77-2.01c-0.17-0.38-0.29-0.81-0.36-1.29c-0.07-0.48-0.1-1.09-0.1-1.84
		v-2.89c0-0.69,0.04-1.28,0.11-1.77c0.07-0.5,0.19-0.95,0.35-1.36c0.38-0.95,0.97-1.67,1.77-2.16S159.21,115.32,160.39,115.32z
		 M160.39,117.43c-0.98,0-1.67,0.28-2.09,0.83c-0.42,0.55-0.62,1.47-0.62,2.75v3.33c0,1.28,0.21,2.2,0.62,2.75
		c0.42,0.55,1.11,0.83,2.09,0.83s1.67-0.28,2.09-0.83c0.42-0.55,0.62-1.47,0.62-2.75v-3.33c0-1.28-0.21-2.2-0.62-2.75
		C162.06,117.71,161.37,117.43,160.39,117.43z"/>
	<path class="st8" d="M172.74,115.63c0.65,0,1.22,0.07,1.73,0.22c0.51,0.15,0.96,0.34,1.35,0.58s0.72,0.53,0.98,0.85
		c0.26,0.32,0.48,0.67,0.63,1.04c0.14,0.36,0.26,0.76,0.35,1.2c0.08,0.44,0.13,1.04,0.13,1.79v2.83c0,0.74-0.04,1.33-0.13,1.76
		c-0.09,0.44-0.2,0.83-0.35,1.17c-0.15,0.36-0.34,0.7-0.59,1.02c-0.25,0.32-0.55,0.61-0.91,0.85s-0.78,0.44-1.26,0.57
		c-0.48,0.14-1.03,0.21-1.63,0.21h-4.34c-0.25,0-0.42-0.04-0.5-0.11c-0.09-0.07-0.13-0.23-0.13-0.46v-12.95
		c0-0.24,0.04-0.39,0.13-0.46c0.09-0.07,0.25-0.11,0.5-0.11H172.74z M170.49,127.59h2.22c0.45,0,0.84-0.06,1.18-0.17
		c0.34-0.11,0.62-0.3,0.85-0.56c0.23-0.26,0.41-0.62,0.52-1.06c0.12-0.44,0.18-0.99,0.18-1.65v-2.93c0-0.65-0.06-1.19-0.19-1.63
		c-0.12-0.44-0.3-0.79-0.53-1.06c-0.23-0.26-0.51-0.46-0.85-0.57c-0.34-0.12-0.72-0.18-1.16-0.18h-2.22V127.59z"/>
</g>
</svg>
