<?xml version="1.0" encoding="utf-8"?>
<!-- Generator: Adobe Illustrator 26.0.1, SVG Export Plug-In . SVG Version: 6.00 Build 0)  -->
<svg version="1.1" id="Layer_1" xmlns="http://www.w3.org/2000/svg" xmlns:xlink="http://www.w3.org/1999/xlink" x="0px" y="0px"
	 viewBox="0 0 479.56 99.19" style="enable-background:new 0 0 479.56 99.19;" xml:space="preserve">
<style type="text/css">
	.st0{fill:#84BD00;}
	.st1{enable-background:new    ;}
	.st2{fill:#FFFFFF;}
</style>
<g>
	<path class="st0" d="M11.05,0.49c-5.83,0-10.56,4.73-10.56,10.56v76.7C0.48,93.4,5.05,97.99,10.7,98c0.01,0,0.01,0,0.02,0h458.12
		c5.66,0,10.24-4.58,10.24-10.24v-77c0-5.66-4.58-10.24-10.24-10.24H11.05"/>
</g>
<g>
	<path d="M11.05,0.49V0C4.95,0,0,4.95,0,11.05v76.7c0,5.92,4.8,10.72,10.72,10.72l0,0h458.12c5.92,0,10.72-4.8,10.72-10.72v-77
		c0.02-5.92-4.77-10.73-10.69-10.75c-0.01,0-0.02,0-0.03,0H11.05v1h457.79c5.38,0,9.75,4.37,9.75,9.75c0,0,0,0.01,0,0.01v77
		c0,5.38-4.37,9.75-9.75,9.75H10.72c-5.38-0.01-9.74-4.37-9.75-9.75v-76.7C0.99,5.5,5.49,1.01,11.05,1V0.52"/>
</g>
<g class="st1">
	<path d="M16.05,25.92v6.55c0,0.27-0.05,0.45-0.15,0.53c-0.1,0.08-0.29,0.12-0.57,0.12h-1.31c-0.29,0-0.48-0.04-0.57-0.12
		c-0.1-0.08-0.15-0.26-0.15-0.53V17.75c0-0.27,0.05-0.45,0.15-0.53c0.1-0.08,0.29-0.12,0.57-0.12h8.35c0.27,0,0.45,0.05,0.53,0.15
		c0.08,0.1,0.12,0.29,0.12,0.57v0.99c0,0.29-0.04,0.48-0.12,0.57c-0.08,0.1-0.26,0.15-0.53,0.15h-6.32v3.96h5.74
		c0.27,0,0.45,0.05,0.53,0.15c0.08,0.1,0.12,0.29,0.12,0.57v0.99c0,0.29-0.04,0.48-0.12,0.57c-0.08,0.1-0.26,0.15-0.53,0.15H16.05z"
		/>
	<path d="M31.03,16.74c1.33,0,2.46,0.26,3.36,0.78s1.58,1.28,2.01,2.28c0.19,0.44,0.33,0.92,0.41,1.46
		c0.07,0.54,0.11,1.24,0.11,2.09v3.28c0,0.78-0.04,1.45-0.12,2.01c-0.08,0.56-0.21,1.08-0.39,1.54c-0.44,1.08-1.11,1.9-2.01,2.45
		s-2.03,0.83-3.36,0.83s-2.46-0.26-3.36-0.78s-1.58-1.28-2.01-2.28c-0.19-0.43-0.33-0.92-0.4-1.46c-0.08-0.54-0.11-1.24-0.11-2.09
		v-3.29c0-0.78,0.04-1.45,0.12-2.01c0.08-0.56,0.21-1.08,0.39-1.54c0.44-1.08,1.11-1.9,2.01-2.45
		C28.57,17.02,29.69,16.74,31.03,16.74z M31.03,19.15c-1.11,0-1.9,0.32-2.37,0.95s-0.71,1.67-0.71,3.13V27
		c0,1.46,0.24,2.5,0.71,3.13s1.26,0.94,2.37,0.94s1.9-0.31,2.37-0.94c0.47-0.63,0.71-1.67,0.71-3.13v-3.78
		c0-1.45-0.24-2.5-0.71-3.13C32.93,19.46,32.14,19.15,31.03,19.15z"/>
	<path d="M45.25,16.74c1.33,0,2.46,0.26,3.36,0.78s1.58,1.28,2.01,2.28c0.19,0.44,0.33,0.92,0.41,1.46
		c0.07,0.54,0.11,1.24,0.11,2.09v3.28c0,0.78-0.04,1.45-0.12,2.01c-0.08,0.56-0.21,1.08-0.39,1.54c-0.44,1.08-1.11,1.9-2.01,2.45
		s-2.03,0.83-3.36,0.83s-2.46-0.26-3.36-0.78s-1.58-1.28-2.01-2.28c-0.19-0.43-0.33-0.92-0.4-1.46c-0.08-0.54-0.11-1.24-0.11-2.09
		v-3.29c0-0.78,0.04-1.45,0.12-2.01c0.08-0.56,0.21-1.08,0.39-1.54c0.44-1.08,1.11-1.9,2.01-2.45
		C42.79,17.02,43.91,16.74,45.25,16.74z M45.25,19.15c-1.11,0-1.9,0.32-2.37,0.95s-0.71,1.67-0.71,3.13V27
		c0,1.46,0.24,2.5,0.71,3.13s1.26,0.94,2.37,0.94s1.9-0.31,2.37-0.94c0.47-0.63,0.71-1.67,0.71-3.13v-3.78
		c0-1.45-0.24-2.5-0.71-3.13C47.15,19.46,46.36,19.15,45.25,19.15z"/>
	<path d="M59.29,17.1c0.73,0,1.39,0.08,1.97,0.25c0.58,0.17,1.09,0.39,1.53,0.66s0.81,0.6,1.11,0.97c0.3,0.37,0.54,0.76,0.72,1.18
		c0.16,0.41,0.3,0.86,0.39,1.36c0.1,0.5,0.15,1.18,0.15,2.04v3.22c0,0.84-0.05,1.51-0.15,2c-0.1,0.5-0.23,0.94-0.39,1.33
		c-0.17,0.4-0.39,0.79-0.68,1.16c-0.29,0.37-0.63,0.69-1.03,0.97c-0.41,0.28-0.88,0.5-1.43,0.65s-1.17,0.24-1.86,0.24H54.7
		c-0.29,0-0.48-0.04-0.57-0.12c-0.1-0.08-0.15-0.26-0.15-0.53V17.75c0-0.27,0.05-0.45,0.15-0.53c0.1-0.08,0.29-0.12,0.57-0.12H59.29
		z M56.72,30.69h2.52c0.51,0,0.96-0.06,1.34-0.19c0.38-0.13,0.71-0.34,0.97-0.64c0.26-0.3,0.46-0.7,0.6-1.2
		c0.13-0.5,0.2-1.13,0.2-1.88v-3.33c0-0.74-0.07-1.35-0.21-1.86c-0.14-0.5-0.35-0.9-0.61-1.2c-0.26-0.3-0.58-0.52-0.97-0.65
		c-0.38-0.13-0.82-0.2-1.32-0.2h-2.52V30.69z"/>
	<path d="M84.06,32.47c0,0.27-0.05,0.45-0.15,0.53c-0.1,0.08-0.29,0.12-0.57,0.12h-1.3c-0.29,0-0.48-0.04-0.57-0.12
		c-0.1-0.08-0.15-0.26-0.15-0.53v-6.53h-6.07v6.53c0,0.27-0.05,0.45-0.15,0.53c-0.1,0.08-0.29,0.12-0.57,0.12h-1.31
		c-0.29,0-0.48-0.04-0.57-0.12c-0.1-0.08-0.15-0.26-0.15-0.53V17.75c0-0.27,0.05-0.45,0.15-0.53c0.1-0.08,0.29-0.12,0.57-0.12h1.31
		c0.28,0,0.48,0.04,0.57,0.12c0.1,0.08,0.15,0.26,0.15,0.53v5.76h6.07v-5.76c0-0.27,0.05-0.45,0.15-0.53
		c0.1-0.08,0.29-0.12,0.57-0.12h1.3c0.29,0,0.48,0.04,0.57,0.12c0.1,0.08,0.15,0.26,0.15,0.53V32.47z"/>
	<path d="M88.16,17.1c0.25,0,0.43,0.03,0.53,0.1c0.1,0.07,0.2,0.21,0.3,0.42l3.26,6.64l3.22-6.64c0.1-0.21,0.21-0.35,0.3-0.42
		c0.1-0.07,0.27-0.1,0.53-0.1h1.55c0.38,0,0.56,0.12,0.56,0.36c0,0.11-0.02,0.2-0.07,0.29l-4.81,9.29v5.42
		c0,0.27-0.05,0.45-0.15,0.53c-0.1,0.08-0.29,0.12-0.57,0.12h-1.3c-0.29,0-0.48-0.04-0.57-0.12c-0.1-0.08-0.15-0.26-0.15-0.53v-5.42
		l-4.81-9.29c-0.04-0.09-0.07-0.19-0.07-0.29c0-0.24,0.19-0.36,0.56-0.36H88.16z"/>
</g>
<g class="st1">
	<path d="M99.29,23.58c0-1.54,0.17-2.73,0.52-3.55c0.44-1.08,1.14-1.9,2.1-2.45c0.97-0.55,2.13-0.83,3.48-0.83
		c0.77,0,1.49,0.09,2.17,0.28c0.68,0.19,1.28,0.48,1.79,0.87c0.51,0.39,0.92,0.89,1.21,1.5c0.3,0.61,0.45,1.33,0.45,2.17
		c0,0.21-0.05,0.35-0.16,0.43c-0.1,0.08-0.29,0.11-0.56,0.11h-1.4c-0.27,0-0.45-0.04-0.55-0.11c-0.1-0.07-0.15-0.22-0.17-0.45
		c-0.06-0.85-0.33-1.47-0.81-1.84s-1.2-0.56-2.16-0.56c-0.56,0-1.03,0.06-1.42,0.19c-0.39,0.13-0.71,0.35-0.96,0.66
		c-0.25,0.31-0.43,0.73-0.55,1.26c-0.12,0.53-0.18,1.18-0.18,1.98V27c0,1.52,0.25,2.58,0.75,3.2c0.5,0.62,1.29,0.92,2.35,0.92
		c0.99,0,1.74-0.25,2.25-0.76s0.77-1.38,0.77-2.61v-0.43h-1.73c-0.27,0-0.45-0.05-0.53-0.15s-0.12-0.29-0.12-0.57v-0.99
		c0-0.29,0.04-0.48,0.12-0.57s0.26-0.15,0.53-0.15h3.8c0.29,0,0.48,0.04,0.57,0.12c0.1,0.08,0.15,0.26,0.15,0.53v2.54
		c0,0.74-0.12,1.43-0.35,2.08c-0.23,0.65-0.59,1.23-1.07,1.72c-0.48,0.5-1.09,0.88-1.82,1.17c-0.73,0.28-1.6,0.43-2.59,0.43
		c-1.46,0-2.61-0.27-3.45-0.8c-0.85-0.53-1.49-1.29-1.92-2.26c-0.19-0.43-0.33-0.92-0.4-1.45c-0.08-0.53-0.11-1.23-0.11-2.1V23.58z"
		/>
	<path d="M116.6,32.47c0,0.27-0.05,0.45-0.15,0.53c-0.1,0.08-0.29,0.12-0.57,0.12h-1.31c-0.29,0-0.48-0.04-0.57-0.12
		c-0.1-0.08-0.15-0.26-0.15-0.53V17.75c0-0.27,0.05-0.45,0.15-0.53c0.1-0.08,0.29-0.12,0.57-0.12h1.31c0.28,0,0.48,0.04,0.57,0.12
		c0.1,0.08,0.15,0.26,0.15,0.53V32.47z"/>
	<path d="M129.69,32.4c0,0.29-0.04,0.48-0.12,0.57c-0.08,0.1-0.26,0.15-0.53,0.15h-8.48c-0.29,0-0.48-0.04-0.57-0.12
		c-0.1-0.08-0.15-0.26-0.15-0.53V17.75c0-0.27,0.05-0.45,0.15-0.53c0.1-0.08,0.29-0.12,0.57-0.12h8.39c0.27,0,0.45,0.05,0.53,0.15
		c0.08,0.1,0.12,0.29,0.12,0.57v0.99c0,0.29-0.04,0.48-0.12,0.57s-0.26,0.15-0.53,0.15h-6.37v4.14h5.78c0.27,0,0.45,0.05,0.53,0.15
		c0.08,0.1,0.12,0.29,0.12,0.57v0.99c0,0.29-0.04,0.48-0.12,0.57c-0.08,0.1-0.26,0.15-0.53,0.15h-5.78v4.59h6.46
		c0.27,0,0.45,0.05,0.53,0.15c0.08,0.1,0.12,0.29,0.12,0.57V32.4z"/>
	<path d="M135.2,22.3v10.17c0,0.27-0.05,0.45-0.15,0.53c-0.1,0.08-0.29,0.12-0.57,0.12h-1.24c-0.29,0-0.48-0.04-0.57-0.12
		c-0.1-0.08-0.15-0.26-0.15-0.53V17.75c0-0.27,0.05-0.45,0.15-0.53c0.1-0.08,0.29-0.12,0.57-0.12h1.31c0.28,0,0.49,0.03,0.62,0.1
		s0.27,0.24,0.42,0.53l5.38,10.19V17.75c0-0.27,0.05-0.45,0.15-0.53c0.1-0.08,0.29-0.12,0.57-0.12h1.24c0.28,0,0.48,0.04,0.57,0.12
		c0.1,0.08,0.15,0.26,0.15,0.53v14.71c0,0.27-0.05,0.45-0.15,0.53c-0.1,0.08-0.29,0.12-0.57,0.12h-1.31c-0.29,0-0.49-0.03-0.62-0.1
		s-0.27-0.24-0.42-0.53L135.2,22.3z"/>
	<path d="M156.74,32.4c0,0.29-0.04,0.48-0.12,0.57c-0.08,0.1-0.26,0.15-0.53,0.15h-8.48c-0.29,0-0.48-0.04-0.57-0.12
		c-0.1-0.08-0.15-0.26-0.15-0.53V17.75c0-0.27,0.05-0.45,0.15-0.53c0.1-0.08,0.29-0.12,0.57-0.12h8.39c0.27,0,0.45,0.05,0.53,0.15
		c0.08,0.1,0.12,0.29,0.12,0.57v0.99c0,0.29-0.04,0.48-0.12,0.57s-0.26,0.15-0.53,0.15h-6.37v4.14h5.78c0.27,0,0.45,0.05,0.53,0.15
		c0.08,0.1,0.12,0.29,0.12,0.57v0.99c0,0.29-0.04,0.48-0.12,0.57c-0.08,0.1-0.26,0.15-0.53,0.15h-5.78v4.59h6.46
		c0.27,0,0.45,0.05,0.53,0.15c0.08,0.1,0.12,0.29,0.12,0.57V32.4z"/>
	<path d="M166.77,26.86v5.6c0,0.25-0.04,0.43-0.13,0.52s-0.29,0.13-0.58,0.13h-1.26c-0.3,0-0.49-0.04-0.58-0.13
		c-0.09-0.09-0.13-0.26-0.13-0.52V17.75c0-0.25,0.04-0.43,0.13-0.52c0.09-0.09,0.28-0.13,0.58-0.13h4.81c1.79,0,3.09,0.37,3.92,1.11
		s1.24,1.93,1.24,3.57v0.43c0,2.28-0.91,3.72-2.72,4.32l3.35,5.94c0.06,0.12,0.09,0.22,0.09,0.29c0,0.24-0.19,0.36-0.58,0.36h-1.69
		c-0.25,0-0.44-0.04-0.55-0.12c-0.11-0.08-0.24-0.26-0.39-0.53l-3.04-5.6H166.77z M166.77,24.53h2.81c0.87,0,1.49-0.18,1.85-0.53
		c0.36-0.35,0.54-0.96,0.54-1.81v-0.32c0-0.9-0.18-1.53-0.53-1.89c-0.35-0.36-0.97-0.54-1.86-0.54h-2.81V24.53z"/>
	<path d="M190.04,32.47c0.03,0.12,0.04,0.2,0.04,0.25c0,0.27-0.17,0.41-0.5,0.41h-1.57c-0.29,0-0.47-0.04-0.55-0.12
		c-0.08-0.08-0.17-0.26-0.26-0.53l-1.04-3.17h-5.9l-1.01,3.2c-0.09,0.27-0.18,0.44-0.26,0.52c-0.08,0.08-0.27,0.11-0.55,0.11h-1.48
		c-0.33,0-0.5-0.13-0.5-0.41c0-0.04,0.01-0.13,0.04-0.25l5.06-14.96c0.06-0.18,0.14-0.29,0.25-0.34c0.1-0.04,0.26-0.07,0.47-0.07
		h2.02c0.21,0,0.37,0.02,0.47,0.07s0.19,0.16,0.25,0.34L190.04,32.47z M181.01,26.95h4.39l-2.21-6.84L181.01,26.95z"/>
</g>
<g class="st1">
	<path d="M193.79,19.53h-3.94c-0.27,0-0.45-0.05-0.53-0.15s-0.12-0.29-0.12-0.57v-0.99c0-0.29,0.04-0.48,0.12-0.57
		c0.08-0.1,0.26-0.15,0.53-0.15h10.62c0.27,0,0.45,0.05,0.53,0.15c0.08,0.1,0.12,0.29,0.12,0.57v0.99c0,0.29-0.04,0.48-0.12,0.57
		c-0.08,0.1-0.26,0.15-0.53,0.15h-3.94v12.94c0,0.27-0.05,0.45-0.15,0.53c-0.1,0.08-0.29,0.12-0.57,0.12h-1.31
		c-0.28,0-0.48-0.04-0.57-0.12c-0.1-0.08-0.15-0.26-0.15-0.53V19.53z"/>
	<path d="M205.94,32.47c0,0.27-0.05,0.45-0.15,0.53c-0.1,0.08-0.29,0.12-0.57,0.12h-1.31c-0.29,0-0.48-0.04-0.57-0.12
		c-0.1-0.08-0.15-0.26-0.15-0.53V17.75c0-0.27,0.05-0.45,0.15-0.53c0.1-0.08,0.29-0.12,0.57-0.12h1.31c0.28,0,0.48,0.04,0.57,0.12
		c0.1,0.08,0.15,0.26,0.15,0.53V32.47z"/>
	<path d="M211.86,22.3v10.17c0,0.27-0.05,0.45-0.15,0.53c-0.1,0.08-0.29,0.12-0.57,0.12h-1.24c-0.29,0-0.48-0.04-0.57-0.12
		c-0.1-0.08-0.15-0.26-0.15-0.53V17.75c0-0.27,0.05-0.45,0.15-0.53c0.1-0.08,0.29-0.12,0.57-0.12h1.31c0.28,0,0.49,0.03,0.62,0.1
		s0.27,0.24,0.42,0.53l5.38,10.19V17.75c0-0.27,0.05-0.45,0.15-0.53c0.1-0.08,0.29-0.12,0.57-0.12h1.24c0.28,0,0.48,0.04,0.57,0.12
		c0.1,0.08,0.15,0.26,0.15,0.53v14.71c0,0.27-0.05,0.45-0.15,0.53c-0.1,0.08-0.29,0.12-0.57,0.12h-1.31c-0.29,0-0.49-0.03-0.62-0.1
		s-0.27-0.24-0.42-0.53L211.86,22.3z"/>
</g>
<g class="st1">
	<path d="M223.12,23.58c0-1.54,0.17-2.73,0.52-3.55c0.44-1.08,1.14-1.9,2.1-2.45c0.97-0.55,2.13-0.83,3.48-0.83
		c0.77,0,1.49,0.09,2.17,0.28c0.68,0.19,1.28,0.48,1.79,0.87c0.51,0.39,0.92,0.89,1.21,1.5c0.3,0.61,0.45,1.33,0.45,2.17
		c0,0.21-0.05,0.35-0.16,0.43c-0.1,0.08-0.29,0.11-0.56,0.11h-1.4c-0.27,0-0.45-0.04-0.55-0.11c-0.1-0.07-0.15-0.22-0.17-0.45
		c-0.06-0.85-0.33-1.47-0.81-1.84s-1.2-0.56-2.16-0.56c-0.56,0-1.03,0.06-1.42,0.19c-0.39,0.13-0.71,0.35-0.96,0.66
		c-0.25,0.31-0.43,0.73-0.55,1.26c-0.12,0.53-0.18,1.18-0.18,1.98V27c0,1.52,0.25,2.58,0.75,3.2c0.5,0.62,1.29,0.92,2.35,0.92
		c0.99,0,1.74-0.25,2.25-0.76s0.77-1.38,0.77-2.61v-0.43h-1.73c-0.27,0-0.45-0.05-0.53-0.15s-0.12-0.29-0.12-0.57v-0.99
		c0-0.29,0.04-0.48,0.12-0.57s0.26-0.15,0.53-0.15h3.8c0.29,0,0.48,0.04,0.57,0.12c0.1,0.08,0.15,0.26,0.15,0.53v2.54
		c0,0.74-0.12,1.43-0.35,2.08c-0.23,0.65-0.59,1.23-1.07,1.72c-0.48,0.5-1.09,0.88-1.82,1.17c-0.73,0.28-1.6,0.43-2.59,0.43
		c-1.46,0-2.61-0.27-3.45-0.8c-0.85-0.53-1.49-1.29-1.92-2.26c-0.19-0.43-0.33-0.92-0.4-1.45c-0.08-0.53-0.11-1.23-0.11-2.1V23.58z"
		/>
</g>
<g>
	<polyline points="478.59,50.67 0.97,50.67 0.97,49.23 478.59,49.23 478.59,50.67 	"/>
</g>
<g>
	<path d="M479.08,50.67h-0.49v-1.44h0.49V50.67 M0.97,50.67H0.51v-1.44H1v1.44"/>
</g>
<g>
	<path d="M0,50v39c-0.09,5.56,4.34,10.15,9.9,10.24c0,0,0,0,0,0h459.28c5.56-0.09,9.99-4.68,9.9-10.24c0,0,0,0,0,0V50H0z"/>
</g>
<g class="st1">
	<path class="st2" d="M183.31,66.85c-0.03-0.12-0.04-0.2-0.04-0.25c0-0.27,0.17-0.4,0.5-0.4h1.62c0.28,0,0.47,0.04,0.56,0.12
		c0.09,0.08,0.17,0.26,0.25,0.53l3.44,11.97l3.44-11.97c0.07-0.27,0.16-0.45,0.25-0.53c0.09-0.08,0.28-0.12,0.56-0.12h1.55
		c0.33,0,0.5,0.13,0.5,0.4c0,0.04-0.02,0.13-0.04,0.25l-4.57,14.96c-0.06,0.18-0.14,0.29-0.25,0.34c-0.1,0.04-0.26,0.07-0.47,0.07
		h-2c-0.21,0-0.37-0.02-0.47-0.07s-0.19-0.16-0.25-0.34L183.31,66.85z"/>
	<path class="st2" d="M207.72,81.5c0,0.29-0.04,0.48-0.12,0.57c-0.08,0.1-0.26,0.15-0.53,0.15h-8.48c-0.29,0-0.48-0.04-0.57-0.12
		c-0.1-0.08-0.15-0.26-0.15-0.53V66.85c0-0.27,0.05-0.45,0.15-0.53c0.1-0.08,0.29-0.12,0.57-0.12h8.39c0.27,0,0.45,0.05,0.53,0.15
		c0.08,0.1,0.12,0.29,0.12,0.57v0.99c0,0.29-0.04,0.48-0.12,0.57s-0.26,0.15-0.53,0.15h-6.37v4.14h5.78c0.27,0,0.45,0.05,0.53,0.15
		c0.08,0.1,0.12,0.29,0.12,0.57v0.99c0,0.29-0.04,0.48-0.12,0.57c-0.08,0.1-0.26,0.15-0.53,0.15h-5.78v4.59h6.46
		c0.27,0,0.45,0.05,0.53,0.15c0.08,0.1,0.12,0.29,0.12,0.57V81.5z"/>
	<path class="st2" d="M213.26,75.97v5.6c0,0.25-0.04,0.43-0.13,0.52s-0.29,0.13-0.58,0.13h-1.26c-0.3,0-0.49-0.04-0.58-0.13
		c-0.09-0.09-0.13-0.26-0.13-0.52V66.85c0-0.25,0.04-0.43,0.13-0.52c0.09-0.09,0.28-0.13,0.58-0.13h4.81c1.79,0,3.09,0.37,3.92,1.11
		s1.24,1.93,1.24,3.57v0.43c0,2.28-0.91,3.72-2.72,4.32l3.35,5.94c0.06,0.12,0.09,0.22,0.09,0.29c0,0.24-0.19,0.36-0.58,0.36h-1.69
		c-0.25,0-0.44-0.04-0.55-0.12c-0.11-0.08-0.24-0.26-0.39-0.53l-3.04-5.6H213.26z M213.26,73.63h2.81c0.87,0,1.49-0.18,1.85-0.53
		c0.36-0.35,0.54-0.96,0.54-1.81v-0.32c0-0.9-0.18-1.53-0.53-1.89c-0.35-0.36-0.97-0.54-1.86-0.54h-2.81V73.63z"/>
</g>
<g class="st1">
	<path class="st2" d="M224.54,66.2c0.25,0,0.43,0.03,0.53,0.1c0.1,0.07,0.2,0.21,0.3,0.42l3.26,6.64l3.22-6.64
		c0.1-0.21,0.21-0.35,0.3-0.42c0.1-0.07,0.27-0.1,0.53-0.1h1.55c0.38,0,0.56,0.12,0.56,0.36c0,0.11-0.02,0.2-0.07,0.29l-4.81,9.29
		v5.42c0,0.27-0.05,0.45-0.15,0.53c-0.1,0.08-0.29,0.12-0.57,0.12h-1.3c-0.29,0-0.48-0.04-0.57-0.12c-0.1-0.08-0.15-0.26-0.15-0.53
		v-5.42l-4.81-9.29c-0.04-0.09-0.07-0.19-0.07-0.29c0-0.24,0.19-0.36,0.56-0.36H224.54z"/>
	<path class="st2" d="M240.73,72.68c0-1.54,0.17-2.73,0.52-3.55c0.43-1.08,1.14-1.9,2.1-2.45c0.97-0.55,2.13-0.83,3.48-0.83
		c0.76,0,1.49,0.09,2.17,0.28s1.28,0.48,1.79,0.87c0.51,0.39,0.92,0.89,1.21,1.5s0.45,1.33,0.45,2.17c0,0.21-0.05,0.35-0.16,0.43
		c-0.1,0.08-0.29,0.11-0.56,0.11h-1.39c-0.27,0-0.45-0.04-0.55-0.11c-0.1-0.07-0.15-0.22-0.17-0.45c-0.06-0.85-0.33-1.47-0.81-1.84
		c-0.48-0.38-1.2-0.56-2.16-0.56c-0.55,0-1.03,0.06-1.42,0.19c-0.39,0.13-0.71,0.35-0.96,0.66c-0.25,0.31-0.43,0.73-0.55,1.26
		s-0.18,1.18-0.18,1.98v3.78c0,1.52,0.25,2.58,0.75,3.2c0.5,0.62,1.29,0.92,2.35,0.92c0.99,0,1.74-0.25,2.25-0.76
		s0.77-1.38,0.77-2.61v-0.43h-1.73c-0.27,0-0.45-0.05-0.53-0.15c-0.08-0.1-0.12-0.29-0.12-0.57v-0.99c0-0.29,0.04-0.48,0.12-0.57
		c0.08-0.1,0.26-0.15,0.53-0.15h3.8c0.29,0,0.48,0.04,0.57,0.12c0.1,0.08,0.15,0.26,0.15,0.53v2.54c0,0.74-0.12,1.43-0.35,2.08
		c-0.23,0.65-0.59,1.23-1.07,1.72s-1.09,0.88-1.82,1.17c-0.74,0.28-1.6,0.43-2.59,0.43c-1.46,0-2.61-0.27-3.45-0.8
		c-0.85-0.53-1.49-1.29-1.92-2.26c-0.2-0.43-0.33-0.92-0.4-1.45c-0.08-0.53-0.11-1.23-0.11-2.1V72.68z"/>
	<path class="st2" d="M260.78,65.84c1.33,0,2.46,0.26,3.36,0.78c0.91,0.52,1.58,1.28,2.01,2.28c0.2,0.44,0.33,0.92,0.41,1.46
		s0.11,1.24,0.11,2.09v3.28c0,0.78-0.04,1.45-0.12,2.01c-0.08,0.56-0.21,1.08-0.39,1.54c-0.43,1.08-1.11,1.9-2.01,2.45
		c-0.91,0.55-2.03,0.83-3.36,0.83s-2.46-0.26-3.36-0.78c-0.91-0.52-1.58-1.28-2.01-2.28c-0.19-0.43-0.33-0.92-0.4-1.46
		c-0.08-0.54-0.11-1.24-0.11-2.09v-3.29c0-0.78,0.04-1.45,0.12-2.01s0.21-1.08,0.39-1.54c0.44-1.08,1.11-1.9,2.01-2.45
		C258.33,66.12,259.45,65.84,260.78,65.84z M260.78,68.25c-1.11,0-1.9,0.32-2.37,0.95s-0.71,1.67-0.71,3.13v3.78
		c0,1.46,0.24,2.5,0.71,3.13s1.26,0.94,2.37,0.94c1.11,0,1.9-0.31,2.37-0.94c0.47-0.63,0.71-1.67,0.71-3.13v-3.78
		c0-1.45-0.24-2.5-0.71-3.13C262.68,68.56,261.89,68.25,260.78,68.25z"/>
	<path class="st2" d="M275,65.84c1.33,0,2.46,0.26,3.36,0.78c0.91,0.52,1.58,1.28,2.01,2.28c0.2,0.44,0.33,0.92,0.41,1.46
		s0.11,1.24,0.11,2.09v3.28c0,0.78-0.04,1.45-0.12,2.01c-0.08,0.56-0.21,1.08-0.39,1.54c-0.43,1.08-1.11,1.9-2.01,2.45
		c-0.91,0.55-2.03,0.83-3.36,0.83s-2.46-0.26-3.36-0.78c-0.91-0.52-1.58-1.28-2.01-2.28c-0.19-0.43-0.33-0.92-0.4-1.46
		c-0.08-0.54-0.11-1.24-0.11-2.09v-3.29c0-0.78,0.04-1.45,0.12-2.01s0.21-1.08,0.39-1.54c0.44-1.08,1.11-1.9,2.01-2.45
		C272.55,66.12,273.67,65.84,275,65.84z M275,68.25c-1.11,0-1.9,0.32-2.37,0.95s-0.71,1.67-0.71,3.13v3.78
		c0,1.46,0.24,2.5,0.71,3.13s1.26,0.94,2.37,0.94c1.11,0,1.9-0.31,2.37-0.94c0.47-0.63,0.71-1.67,0.71-3.13v-3.78
		c0-1.45-0.24-2.5-0.71-3.13C276.9,68.56,276.11,68.25,275,68.25z"/>
	<path class="st2" d="M289.04,66.2c0.73,0,1.39,0.08,1.97,0.25c0.58,0.17,1.09,0.39,1.53,0.66s0.81,0.6,1.11,0.97
		c0.3,0.37,0.54,0.76,0.72,1.18c0.17,0.41,0.3,0.86,0.39,1.36s0.15,1.18,0.15,2.04v3.22c0,0.84-0.05,1.51-0.15,2
		s-0.23,0.94-0.39,1.33c-0.17,0.4-0.39,0.79-0.67,1.16c-0.29,0.37-0.63,0.69-1.04,0.97s-0.88,0.5-1.43,0.65
		c-0.55,0.16-1.17,0.24-1.86,0.24h-4.93c-0.29,0-0.48-0.04-0.57-0.12c-0.1-0.08-0.15-0.26-0.15-0.53V66.85
		c0-0.27,0.05-0.45,0.15-0.53c0.1-0.08,0.29-0.12,0.57-0.12H289.04z M286.48,79.79H289c0.51,0,0.96-0.06,1.34-0.19
		c0.38-0.13,0.71-0.34,0.97-0.64c0.26-0.3,0.46-0.7,0.6-1.2c0.13-0.5,0.2-1.13,0.2-1.88v-3.33c0-0.74-0.07-1.35-0.21-1.86
		c-0.14-0.5-0.34-0.9-0.61-1.2c-0.26-0.3-0.58-0.52-0.97-0.65c-0.38-0.13-0.82-0.2-1.32-0.2h-2.52V79.79z"/>
</g>
<g class="st1">
	<path d="M264.96,31.22c-1.83,0-3.05-0.74-3.67-2.21c-0.13-0.31-0.23-0.64-0.28-1.01c-0.06-0.36-0.08-0.83-0.08-1.41v-2.15
		c0-0.59,0.03-1.08,0.08-1.46c0.05-0.37,0.15-0.72,0.28-1.04c0.62-1.53,1.84-2.3,3.67-2.3s3.05,0.74,3.67,2.21
		c0.13,0.31,0.23,0.65,0.28,1.01c0.06,0.36,0.08,0.83,0.08,1.41v2.15c0,0.6-0.03,1.08-0.08,1.46c-0.05,0.38-0.15,0.72-0.28,1.04
		C268.02,30.46,266.79,31.22,264.96,31.22z M264.96,21.49c-0.36,0-0.67,0.05-0.92,0.15c-0.25,0.1-0.45,0.26-0.6,0.47
		s-0.26,0.5-0.33,0.84c-0.07,0.35-0.1,0.77-0.1,1.26v2.45c0,0.51,0.03,0.93,0.1,1.28s0.18,0.63,0.33,0.84s0.36,0.37,0.6,0.46
		c0.25,0.09,0.55,0.14,0.92,0.14s0.67-0.05,0.92-0.14c0.25-0.09,0.45-0.25,0.6-0.46s0.26-0.5,0.33-0.84c0.07-0.35,0.1-0.77,0.1-1.28
		v-2.45c0-0.5-0.03-0.92-0.1-1.26c-0.07-0.35-0.18-0.63-0.33-0.84s-0.36-0.37-0.6-0.47C265.63,21.53,265.33,21.49,264.96,21.49z"/>
</g>
<g>
	<path d="M265.48,40.8v0.68c9.05,0,16.38-7.33,16.38-16.38s-7.33-16.38-16.38-16.38c-9.05,0-16.38,7.33-16.38,16.38c0,0,0,0,0,0
		c0,9.05,7.33,16.38,16.38,16.38l0,0v-1.36c-8.28,0-15-6.72-14.99-15.01c0-8.28,6.72-15,15.01-14.99c8.28,0,15,6.72,14.99,15.01
		c0,3.97-1.58,7.78-4.39,10.59c-2.82,2.82-6.64,4.4-10.62,4.4V40.8L265.48,40.8z"/>
</g>
<g class="st1">
	<path d="M303.35,30.51c0,0.2-0.04,0.33-0.11,0.39c-0.07,0.06-0.21,0.09-0.42,0.09h-0.91c-0.21,0-0.35-0.03-0.42-0.09
		c-0.07-0.06-0.11-0.19-0.11-0.39v-8.84h-1.69c-0.2,0-0.33-0.04-0.39-0.11c-0.06-0.07-0.09-0.21-0.09-0.42v-0.73
		c0-0.21,0.03-0.35,0.09-0.42c0.06-0.07,0.19-0.11,0.39-0.11h3.12c0.21,0,0.35,0.03,0.42,0.09c0.07,0.06,0.11,0.19,0.11,0.39V30.51z
		"/>
</g>
<g>
	<path d="M302.36,40.8v0.68c9.05,0.01,16.39-7.31,16.4-16.36s-7.31-16.39-16.36-16.4c-9.05-0.01-16.39,7.31-16.4,16.36
		c0,0.01,0,0.01,0,0.02c0,9.05,7.33,16.38,16.38,16.38l0,0v-1.36c-8.28,0-15-6.72-14.99-15.01c0-8.28,6.72-15,15.01-14.99
		c8.28,0,15,6.72,14.99,15.01c0,3.97-1.58,7.78-4.39,10.59c-2.82,2.82-6.64,4.4-10.62,4.4v0.68L302.36,40.8z"/>
</g>
<g class="st1">
	<path d="M338.81,19.65c1.15,0,2.02,0.26,2.64,0.79c0.61,0.52,0.92,1.27,0.92,2.24v0.5c0,0.4-0.07,0.76-0.22,1.1
		c-0.15,0.34-0.35,0.64-0.59,0.93s-0.53,0.54-0.85,0.77s-0.64,0.45-0.97,0.64l-1.32,0.79c-0.3,0.18-0.53,0.34-0.7,0.49
		c-0.17,0.15-0.3,0.29-0.39,0.42c-0.09,0.13-0.14,0.26-0.17,0.4c-0.02,0.13-0.03,0.26-0.03,0.4v0.07h4.78c0.2,0,0.33,0.04,0.39,0.11
		c0.06,0.07,0.09,0.21,0.09,0.42v0.76c0,0.21-0.03,0.35-0.09,0.42c-0.06,0.07-0.19,0.11-0.39,0.11h-6.4c-0.21,0-0.35-0.03-0.42-0.09
		c-0.07-0.06-0.11-0.19-0.11-0.39V29.7c0-0.5,0.06-0.94,0.18-1.33c0.12-0.39,0.28-0.74,0.49-1.04c0.2-0.3,0.44-0.57,0.72-0.79
		c0.27-0.23,0.57-0.43,0.88-0.6l1.4-0.81c0.22-0.13,0.43-0.27,0.64-0.41c0.2-0.14,0.38-0.29,0.54-0.47
		c0.15-0.18,0.28-0.37,0.37-0.59s0.14-0.45,0.14-0.72v-0.17c0-0.97-0.53-1.45-1.59-1.45c-0.53,0-0.92,0.1-1.17,0.31
		c-0.25,0.21-0.41,0.58-0.49,1.11c-0.02,0.13-0.07,0.22-0.14,0.27c-0.07,0.05-0.2,0.07-0.37,0.07h-0.94c-0.21,0-0.35-0.03-0.42-0.1
		c-0.07-0.07-0.11-0.2-0.11-0.41c0-0.34,0.07-0.69,0.2-1.03c0.13-0.35,0.31-0.63,0.53-0.85C336.51,20,337.51,19.65,338.81,19.65z"/>
</g>
<g>
	<path d="M339.24,40.8v0.68c9.05,0.01,16.38-7.32,16.39-16.37c0.01-9.05-7.32-16.38-16.37-16.39c-9.05-0.01-16.38,7.32-16.39,16.37
		c0,0,0,0.01,0,0.01c0,9.04,7.33,16.37,16.37,16.38v-1.36c-8.28,0-15-6.72-14.99-15.01c0-8.28,6.72-15,15.01-14.99
		c8.28,0,15,6.72,14.99,15.01c0,3.97-1.58,7.78-4.39,10.59c-2.82,2.82-6.64,4.4-10.62,4.4V40.8z"/>
</g>
<g class="st1">
	<path d="M375.81,19.65c1.13,0,2,0.24,2.6,0.73c0.6,0.49,0.9,1.2,0.9,2.13v0.33c0,0.53-0.15,0.99-0.45,1.38
		c-0.3,0.39-0.71,0.7-1.24,0.92c0.59,0.15,1.05,0.44,1.36,0.84c0.31,0.41,0.47,0.93,0.47,1.55v0.61c0,0.97-0.34,1.72-1.02,2.26
		s-1.6,0.81-2.77,0.81c-0.71,0-1.33-0.09-1.86-0.26c-0.53-0.17-0.96-0.42-1.28-0.74c-0.22-0.22-0.4-0.5-0.53-0.83
		c-0.13-0.34-0.2-0.67-0.2-1c0-0.21,0.04-0.35,0.11-0.41c0.07-0.07,0.21-0.1,0.42-0.1h0.94c0.19,0,0.32,0.02,0.39,0.07
		c0.07,0.05,0.11,0.14,0.12,0.27c0.08,0.87,0.68,1.31,1.8,1.31c0.57,0,1.01-0.13,1.32-0.38c0.31-0.25,0.46-0.63,0.46-1.12v-0.4
		c0-1.04-0.57-1.55-1.7-1.55h-0.5c-0.2,0-0.33-0.04-0.39-0.11c-0.06-0.07-0.09-0.21-0.09-0.42v-0.73c0-0.21,0.03-0.35,0.09-0.42
		c0.06-0.07,0.19-0.11,0.39-0.11h0.3c1.19,0,1.79-0.5,1.79-1.49v-0.2c0-0.9-0.54-1.36-1.62-1.36c-0.54,0-0.95,0.11-1.23,0.32
		c-0.28,0.21-0.46,0.57-0.54,1.07c-0.02,0.13-0.07,0.22-0.14,0.27c-0.07,0.05-0.2,0.07-0.37,0.07h-0.88c-0.21,0-0.35-0.03-0.42-0.1
		c-0.07-0.07-0.11-0.2-0.11-0.41c0-0.33,0.06-0.65,0.19-0.97c0.13-0.31,0.31-0.59,0.54-0.82c0.35-0.36,0.77-0.63,1.26-0.79
		S375.06,19.65,375.81,19.65z"/>
</g>
<g>
	<path d="M376.13,40.8v0.68c9.05,0,16.38-7.33,16.38-16.38s-7.33-16.38-16.38-16.38c-9.05,0-16.38,7.33-16.38,16.38
		s7.33,16.38,16.38,16.38l0,0v-1.36c-8.28,0-15-6.72-14.99-15.01c0-8.28,6.72-15,15.01-14.99c8.28,0,15,6.72,14.99,15.01
		c0,3.97-1.58,7.78-4.39,10.59c-2.82,2.82-6.64,4.4-10.62,4.4V40.8z"/>
</g>
<g class="st1">
	<path d="M414.61,19.88c0.21,0,0.35,0.03,0.42,0.09s0.11,0.19,0.11,0.39v6.71h0.66c0.2,0,0.33,0.04,0.39,0.11
		c0.06,0.07,0.09,0.21,0.09,0.42v0.68c0,0.21-0.03,0.35-0.09,0.42c-0.06,0.07-0.19,0.11-0.39,0.11h-0.66v1.7
		c0,0.2-0.04,0.33-0.11,0.39s-0.21,0.09-0.42,0.09h-0.84c-0.21,0-0.35-0.03-0.42-0.09c-0.07-0.06-0.11-0.19-0.11-0.39v-1.7h-4.41
		c-0.2,0-0.33-0.04-0.39-0.11c-0.06-0.07-0.09-0.21-0.09-0.42v-1.16c0-0.13,0.01-0.26,0.03-0.37c0.02-0.12,0.08-0.23,0.17-0.36
		l4.17-6.05c0.13-0.19,0.23-0.31,0.31-0.37s0.18-0.09,0.34-0.09H414.61z M413.24,27.07v-4.64l-3.22,4.64H413.24z"/>
</g>
<g>
	<path d="M412.76,40.8v0.68c9.05,0,16.38-7.33,16.38-16.38s-7.33-16.38-16.38-16.38c-9.05,0-16.38,7.33-16.38,16.38
		s7.33,16.38,16.38,16.38l0,0v-1.36c-8.28,0-15-6.72-14.99-15.01c0-8.28,6.72-15,15.01-14.99c8.28,0,15,6.72,14.99,15.01
		c0,3.97-1.58,7.78-4.39,10.59c-2.82,2.82-6.64,4.4-10.62,4.4V40.8z"/>
</g>
<g>
	<path d="M449.65,41.48c9.05-0.01,16.38-7.34,16.37-16.39c-0.01-9.05-7.34-16.38-16.39-16.37c-9.04,0.01-16.37,7.34-16.37,16.38
		c0,9.05,7.33,16.38,16.38,16.38C449.64,41.48,449.65,41.48,449.65,41.48z"/>
</g>
<g class="st1">
	<path class="st2" d="M453.04,27.95c0,1.04-0.32,1.84-0.97,2.41s-1.53,0.86-2.67,0.86c-1.38,0-2.38-0.32-3.01-0.96
		c-0.22-0.22-0.39-0.48-0.52-0.79c-0.13-0.31-0.19-0.62-0.19-0.94c0-0.21,0.04-0.35,0.11-0.41c0.07-0.07,0.21-0.1,0.42-0.1h0.94
		c0.18,0,0.3,0.03,0.37,0.07c0.07,0.05,0.12,0.14,0.14,0.27c0.07,0.42,0.23,0.72,0.49,0.9s0.65,0.27,1.18,0.27
		c1.13,0,1.7-0.56,1.7-1.69v-0.63c0-1.19-0.53-1.79-1.6-1.79c-0.19,0-0.39,0.02-0.61,0.07c-0.22,0.04-0.41,0.11-0.56,0.18
		c-0.21,0.1-0.36,0.16-0.45,0.19s-0.21,0.04-0.36,0.04h-0.89c-0.22,0-0.36-0.03-0.43-0.1s-0.1-0.19-0.1-0.38v-5.08
		c0-0.19,0.03-0.31,0.1-0.38s0.21-0.1,0.43-0.1h5.67c0.19,0,0.31,0.03,0.38,0.1s0.1,0.21,0.1,0.43v0.73c0,0.22-0.03,0.36-0.1,0.43
		c-0.07,0.07-0.19,0.1-0.38,0.1h-4.4v2.58c0.35-0.17,0.69-0.29,1.02-0.36s0.67-0.12,1.03-0.12c2.11,0,3.16,1.15,3.16,3.44V27.95z"/>
</g>
<g>
	<path d="M449.65,41.48v0.68c9.42-0.01,17.06-7.65,17.05-17.07s-7.65-17.06-17.07-17.05c-9.42,0.01-17.05,7.64-17.05,17.06
		c0,9.42,7.64,17.06,17.06,17.06c0,0,0.01,0,0.01,0V40.8c-8.68,0-15.71-7.03-15.72-15.7c0-8.68,7.03-15.71,15.7-15.72
		c8.68,0,15.71,7.03,15.72,15.7c0,4.17-1.65,8.17-4.6,11.12c-2.94,2.95-6.94,4.6-11.1,4.6V41.48L449.65,41.48z"/>
</g>
</svg>
