<?xml version="1.0" encoding="utf-8"?>
<!-- Generator: Adobe Illustrator 26.0.1, SVG Export Plug-In . SVG Version: 6.00 Build 0)  -->
<svg version="1.2" baseProfile="tiny" id="Layer_1" xmlns="http://www.w3.org/2000/svg" xmlns:xlink="http://www.w3.org/1999/xlink"
	 x="0px" y="0px" viewBox="0 0 82.49 82.49" overflow="visible" xml:space="preserve">
<g id="Layer_2">
</g>
<g>
	<path fill="#000000" d="M30.68,15.73c0.81,2.06,2.01,3.78,3.08,5.26c0.87,1.16,1.79,2.29,2.81,3.35c1.46,1.51,2.88,3.05,3.94,4.82
		c0,0,0,0,0,0c0.24,0.41,0.47,0.83,0.67,1.27h0.07h0.07c0.2-0.43,0.42-0.86,0.67-1.27c0,0,0,0,0,0c1.06-1.77,2.48-3.31,3.94-4.82
		c1.02-1.06,1.94-2.2,2.81-3.35c1.08-1.48,2.28-3.2,3.09-5.26c0.4-1.11,0.74-2.19,0.89-3.28c0.15-1.1,0.05-2.12-0.33-3
		c-0.59-1.45-2.17-2.27-3.79-2.49c-0.03-0.18-0.05-0.37-0.1-0.55c-0.41-1.66-1.35-3.02-2.44-4c-2.25-2-4.77-2.38-4.68-2.4
		c-0.05,0.01,1.97,0.95,3.33,3.06c0.7,1.06,1.23,2.46,1.41,4.02c0.04,0.32,0.06,0.64,0.07,0.97c0.03,1.19-0.14,2.45-0.51,3.73
		c-1.07,3.53-2.65,6.6-3.34,9.04c-0.74,2.43-0.65,4.06-0.67,4.04c0.02,0,0.3-1.49,1.46-3.58c0.57-1.06,1.37-2.31,2.27-3.84
		c0.9-1.52,1.91-3.33,2.65-5.32c0.46-1.22,0.66-2.41,0.67-3.52c0.7,0.41,1.25,1,1.46,1.78c0.44,1.46,0.05,3.24-0.56,5.31
		c-0.56,1.81-1.68,3.65-2.61,5.24c-0.82,1.25-2.9,3.61-3.24,3.82c0.61-1.04,1.23-1.99,1.72-2.85c1.31-2.23,1.67-3.63,1.68-3.61
		c0.02,0-0.64,1.3-2.09,3.19c-0.71,0.95-1.61,2-2.51,3.3c-0.44,0.66-0.89,1.39-1.24,2.31c-0.02,0.06-0.04,0.12-0.06,0.18
		c0.19-4.39,1.79-11.95,2.08-14.12c0.37-2.71-0.48-4.02-1.19-4.63c0.3-0.26,0.51-0.64,0.51-1.07c0-0.79-0.64-1.43-1.43-1.43
		c-0.79,0-1.43,0.64-1.43,1.43c0,0.43,0.2,0.81,0.51,1.07c-0.71,0.61-1.57,1.92-1.19,4.63c0.3,2.17,1.89,9.73,2.08,14.12
		c-0.02-0.06-0.04-0.13-0.06-0.18c-0.35-0.92-0.79-1.65-1.23-2.31c-0.9-1.3-1.8-2.34-2.51-3.3c-1.45-1.89-2.11-3.19-2.09-3.19
		c0.01-0.02,0.37,1.38,1.68,3.61c0.49,0.86,1.11,1.81,1.72,2.85c-0.34-0.21-2.42-2.57-3.24-3.82c-0.93-1.59-2.05-3.43-2.61-5.24
		c-0.61-2.07-1-3.85-0.56-5.31c0.21-0.79,0.76-1.38,1.46-1.78c0.01,1.11,0.21,2.29,0.68,3.52c0.73,1.99,1.75,3.8,2.65,5.32
		c0.91,1.52,1.7,2.78,2.27,3.84c1.16,2.09,1.44,3.58,1.46,3.58c-0.02,0.02,0.07-1.61-0.67-4.04c-0.69-2.43-2.27-5.51-3.34-9.04
		c-0.38-1.28-0.54-2.54-0.51-3.73c0.01-0.33,0.04-0.66,0.07-0.97c0.18-1.56,0.71-2.95,1.41-4.02c1.36-2.11,3.38-3.04,3.33-3.06
		c0.08,0.02-2.43,0.4-4.68,2.4c-1.1,0.98-2.03,2.34-2.45,4c-0.04,0.17-0.06,0.37-0.1,0.55c-1.62,0.22-3.2,1.05-3.79,2.49
		c-0.37,0.89-0.48,1.91-0.33,3C29.93,13.54,30.28,14.62,30.68,15.73z"/>
	<path fill="#000000" d="M40.16,4.34c0,0.6,0.49,1.09,1.09,1.09c0.6,0,1.09-0.49,1.09-1.09c0-0.6-0.49-1.09-1.09-1.09
		C40.65,3.25,40.16,3.74,40.16,4.34z"/>
	<path fill="#000000" d="M41.24,1.4c-0.28,0-0.51,0.23-0.51,0.51c0,0.28,0.23,0.51,0.51,0.51c0.28,0,0.51-0.23,0.51-0.51
		C41.76,1.63,41.53,1.4,41.24,1.4z"/>
	<path fill="#000000" d="M51.81,66.76C51,64.7,49.8,62.98,48.73,61.5c-0.87-1.16-1.79-2.29-2.81-3.36
		c-1.46-1.51-2.88-3.05-3.94-4.82c0,0,0,0,0,0c-0.24-0.41-0.47-0.83-0.67-1.26h-0.07h-0.07c-0.2,0.44-0.42,0.86-0.67,1.26
		c0,0,0,0,0,0c-1.06,1.77-2.48,3.31-3.94,4.82c-1.02,1.06-1.94,2.2-2.81,3.36c-1.08,1.48-2.27,3.19-3.08,5.26
		c-0.4,1.11-0.74,2.19-0.89,3.29c-0.15,1.09-0.05,2.11,0.33,3c0.59,1.45,2.16,2.27,3.79,2.5c0.03,0.18,0.05,0.37,0.1,0.55
		c0.41,1.66,1.35,3.02,2.45,4c2.25,2,4.77,2.38,4.68,2.4c0.05-0.01-1.97-0.94-3.33-3.06c-0.7-1.06-1.23-2.46-1.41-4.01
		c-0.04-0.32-0.07-0.64-0.07-0.97c-0.03-1.19,0.14-2.46,0.51-3.73c1.07-3.53,2.65-6.6,3.34-9.04c0.74-2.43,0.65-4.06,0.67-4.04
		c-0.02,0-0.3,1.49-1.46,3.58c-0.57,1.06-1.37,2.31-2.27,3.84c-0.9,1.52-1.91,3.33-2.65,5.32c-0.46,1.22-0.67,2.41-0.68,3.51
		c-0.7-0.4-1.25-0.99-1.46-1.78c-0.44-1.46-0.05-3.24,0.56-5.31c0.56-1.81,1.68-3.65,2.61-5.24c0.82-1.25,2.9-3.61,3.24-3.82
		c-0.61,1.04-1.23,1.99-1.72,2.85c-1.31,2.23-1.67,3.63-1.68,3.61c-0.02,0,0.64-1.3,2.09-3.2c0.71-0.95,1.61-2,2.51-3.3
		c0.44-0.66,0.89-1.39,1.23-2.3c0.02-0.06,0.04-0.12,0.06-0.18c-0.19,4.38-1.79,11.96-2.08,14.12c-0.37,2.71,0.48,4.02,1.19,4.63
		c-0.3,0.26-0.51,0.64-0.51,1.07c0,0.79,0.64,1.43,1.43,1.43c0.79,0,1.43-0.64,1.43-1.43c0-0.43-0.2-0.81-0.51-1.07
		c0.71-0.61,1.57-1.92,1.19-4.63c-0.3-2.16-1.89-9.73-2.08-14.12c0.02,0.06,0.04,0.13,0.06,0.18c0.35,0.92,0.79,1.65,1.24,2.3
		c0.9,1.3,1.8,2.34,2.51,3.3c1.45,1.89,2.11,3.2,2.09,3.2c-0.01,0.02-0.37-1.38-1.68-3.61c-0.49-0.86-1.11-1.82-1.72-2.85
		c0.34,0.21,2.42,2.57,3.24,3.82c0.93,1.59,2.05,3.43,2.61,5.24c0.62,2.07,1,3.85,0.56,5.31c-0.21,0.79-0.76,1.38-1.46,1.78
		c-0.01-1.11-0.21-2.29-0.67-3.51c-0.74-1.99-1.75-3.8-2.65-5.32c-0.91-1.52-1.7-2.77-2.27-3.84c-1.16-2.09-1.44-3.58-1.46-3.58
		c0.02-0.02-0.07,1.61,0.67,4.04c0.69,2.43,2.27,5.51,3.34,9.04c0.38,1.28,0.54,2.54,0.51,3.73c-0.01,0.33-0.04,0.65-0.07,0.97
		c-0.18,1.56-0.71,2.95-1.41,4.01c-1.36,2.11-3.38,3.04-3.33,3.06c-0.09-0.02,2.43-0.4,4.68-2.4c1.1-0.98,2.03-2.34,2.44-4
		c0.04-0.17,0.06-0.36,0.1-0.55c1.62-0.22,3.2-1.05,3.79-2.5c0.37-0.89,0.48-1.91,0.33-3C52.55,68.95,52.21,67.87,51.81,66.76z"/>
	<path fill="#000000" d="M42.33,78.16c0-0.6-0.49-1.09-1.09-1.09c-0.6,0-1.09,0.49-1.09,1.09c0,0.6,0.49,1.09,1.09,1.09
		C41.84,79.24,42.33,78.75,42.33,78.16z"/>
	<path fill="#000000" d="M41.24,81.09c0.28,0,0.51-0.23,0.51-0.51c0-0.28-0.23-0.51-0.51-0.51c-0.28,0-0.51,0.23-0.51,0.51
		C40.73,80.86,40.96,81.09,41.24,81.09z"/>
	<path fill="#000000" d="M11.8,22.19c-0.99,1.3-1.52,3-0.91,4.44c0.36,0.89,1.01,1.68,1.89,2.35c0.88,0.67,1.89,1.19,2.95,1.69
		c2.03,0.89,4.09,1.25,5.9,1.54c1.44,0.2,2.88,0.35,4.36,0.38c2.1,0.04,4.19,0.12,6.19,0.62c0,0,0,0,0,0
		c0.46,0.12,0.92,0.25,1.37,0.42l0.05-0.05l0.05-0.05c-0.17-0.45-0.31-0.91-0.42-1.37c0,0,0,0,0,0c-0.5-2-0.58-4.09-0.62-6.19
		c-0.03-1.48-0.18-2.92-0.38-4.36c-0.28-1.81-0.65-3.87-1.54-5.9c-0.5-1.06-1.02-2.07-1.69-2.96c-0.67-0.88-1.46-1.52-2.36-1.89
		c-1.44-0.61-3.14-0.08-4.44,0.92c-0.15-0.11-0.3-0.23-0.45-0.32c-1.47-0.88-3.08-1.18-4.56-1.1c-3,0.18-5.05,1.69-5.01,1.61
		c-0.02,0.04,2.06-0.73,4.52-0.2c1.24,0.26,2.61,0.87,3.83,1.84c0.25,0.2,0.5,0.41,0.74,0.64c0.87,0.82,1.64,1.83,2.28,3
		c1.74,3.25,2.8,6.54,4.03,8.75c1.2,2.24,2.41,3.33,2.39,3.33c0.01-0.01-0.84-1.26-1.5-3.57c-0.35-1.15-0.67-2.6-1.11-4.32
		c-0.44-1.71-1-3.7-1.89-5.63c-0.54-1.19-1.23-2.17-2.01-2.96c0.78-0.21,1.59-0.18,2.29,0.23c1.34,0.72,2.33,2.26,3.36,4.15
		c0.88,1.67,1.39,3.77,1.86,5.55c0.31,1.46,0.51,4.6,0.42,4.99c-0.3-1.17-0.54-2.28-0.8-3.24c-0.65-2.5-1.38-3.75-1.36-3.73
		c0.01-0.01,0.46,1.37,0.78,3.73c0.17,1.18,0.27,2.55,0.56,4.11c0.15,0.78,0.35,1.61,0.76,2.5c0.02,0.05,0.06,0.11,0.08,0.17
		c-2.97-3.23-7.19-9.71-8.51-11.45c-1.65-2.18-3.18-2.5-4.12-2.43c0.03-0.4-0.09-0.81-0.4-1.12c-0.56-0.56-1.47-0.56-2.02,0
		c-0.56,0.56-0.56,1.47,0,2.03c0.3,0.3,0.71,0.43,1.11,0.4c-0.07,0.93,0.25,2.47,2.43,4.12c1.74,1.32,8.22,5.54,11.46,8.51
		c-0.06-0.03-0.12-0.06-0.17-0.09c-0.89-0.4-1.73-0.61-2.5-0.76c-1.55-0.28-2.93-0.38-4.1-0.56c-2.36-0.31-3.75-0.77-3.74-0.78
		c-0.01-0.02,1.24,0.72,3.74,1.37c0.95,0.26,2.07,0.5,3.24,0.8c-0.39,0.09-3.53-0.11-4.99-0.41c-1.78-0.46-3.88-0.98-5.55-1.86
		c-1.9-1.03-3.43-2.02-4.15-3.36c-0.41-0.71-0.43-1.52-0.23-2.3c0.79,0.78,1.77,1.47,2.96,2.01c1.92,0.89,3.92,1.45,5.63,1.89
		c1.72,0.44,3.17,0.76,4.32,1.1c2.3,0.66,3.55,1.51,3.57,1.5c0,0.02-1.09-1.19-3.33-2.39c-2.21-1.23-5.5-2.29-8.75-4.03
		c-1.17-0.64-2.18-1.41-3-2.28c-0.23-0.24-0.44-0.49-0.64-0.74c-0.97-1.23-1.58-2.59-1.84-3.83c-0.53-2.46,0.24-4.54,0.19-4.52
		c0.08-0.05-1.43,2-1.61,5.01c-0.08,1.47,0.22,3.09,1.1,4.56C11.57,21.89,11.69,22.04,11.8,22.19z"/>
	<path fill="#000000" d="M15.91,15.92c0.42-0.42,0.42-1.11,0-1.53c-0.42-0.43-1.11-0.43-1.54,0c-0.42,0.42-0.42,1.11,0,1.53
		C14.8,16.34,15.49,16.34,15.91,15.92z"/>
	<path fill="#000000" d="M13.8,13.8c0.2-0.2,0.2-0.52,0-0.73c-0.2-0.2-0.53-0.2-0.73,0c-0.2,0.2-0.2,0.53,0,0.73
		C13.27,14,13.6,14,13.8,13.8z"/>
	<path fill="#000000" d="M70.69,60.3c0.99-1.3,1.52-3,0.91-4.44c-0.37-0.89-1.01-1.68-1.89-2.35c-0.88-0.67-1.89-1.19-2.96-1.69
		c-2.03-0.88-4.09-1.25-5.9-1.53c-1.44-0.2-2.88-0.35-4.36-0.38c-2.1-0.04-4.19-0.12-6.19-0.63l0,0c-0.46-0.11-0.92-0.26-1.37-0.42
		l-0.05,0.05l-0.05,0.05c0.17,0.45,0.31,0.9,0.42,1.37c0,0,0,0,0,0c0.5,2,0.58,4.09,0.63,6.19c0.03,1.48,0.18,2.92,0.38,4.36
		c0.28,1.81,0.65,3.87,1.54,5.9c0.5,1.06,1.02,2.07,1.69,2.96c0.67,0.88,1.46,1.53,2.35,1.89c1.44,0.61,3.14,0.08,4.44-0.91
		c0.15,0.1,0.3,0.23,0.45,0.32c1.47,0.88,3.08,1.18,4.56,1.1c3-0.18,5.05-1.69,5.01-1.61c0.03-0.04-2.06,0.73-4.52,0.2
		c-1.24-0.26-2.61-0.87-3.84-1.84c-0.25-0.2-0.5-0.41-0.74-0.64c-0.87-0.82-1.64-1.83-2.28-3c-1.74-3.25-2.8-6.54-4.03-8.75
		c-1.2-2.24-2.41-3.33-2.39-3.33c-0.01,0.01,0.84,1.27,1.5,3.57c0.35,1.15,0.67,2.6,1.11,4.32c0.44,1.71,1,3.71,1.89,5.63
		c0.54,1.19,1.23,2.17,2.01,2.96c-0.78,0.21-1.59,0.18-2.3-0.23c-1.34-0.72-2.33-2.25-3.36-4.15c-0.88-1.68-1.39-3.77-1.86-5.55
		c-0.31-1.46-0.51-4.61-0.41-4.99c0.3,1.17,0.54,2.28,0.8,3.24c0.65,2.5,1.38,3.74,1.37,3.74c-0.01,0.01-0.46-1.37-0.78-3.74
		c-0.17-1.18-0.27-2.55-0.56-4.11c-0.15-0.78-0.35-1.61-0.76-2.5c-0.03-0.05-0.06-0.11-0.09-0.17c2.97,3.23,7.19,9.71,8.51,11.45
		c1.65,2.18,3.18,2.5,4.12,2.43c-0.03,0.4,0.09,0.81,0.4,1.12c0.56,0.56,1.46,0.56,2.02,0c0.56-0.56,0.56-1.47,0-2.02
		c-0.31-0.31-0.71-0.43-1.11-0.4c0.07-0.93-0.25-2.46-2.43-4.11c-1.74-1.32-8.22-5.55-11.46-8.51c0.06,0.03,0.12,0.06,0.17,0.08
		c0.89,0.4,1.72,0.61,2.5,0.76c1.55,0.28,2.93,0.38,4.11,0.56c2.36,0.32,3.75,0.77,3.74,0.78c0.01,0.02-1.24-0.72-3.74-1.37
		c-0.95-0.26-2.07-0.5-3.24-0.8c0.39-0.09,3.53,0.11,4.99,0.41c1.78,0.46,3.88,0.97,5.55,1.86c1.9,1.03,3.43,2.02,4.15,3.36
		c0.41,0.71,0.44,1.51,0.23,2.3c-0.79-0.78-1.77-1.47-2.96-2.01c-1.93-0.89-3.92-1.45-5.63-1.89c-1.72-0.43-3.17-0.76-4.32-1.11
		c-2.3-0.66-3.55-1.51-3.57-1.5c0-0.02,1.09,1.19,3.33,2.39c2.21,1.23,5.5,2.29,8.75,4.03c1.17,0.64,2.18,1.41,3,2.28
		c0.23,0.24,0.44,0.49,0.64,0.74c0.98,1.23,1.58,2.59,1.84,3.84c0.53,2.45-0.24,4.54-0.2,4.51c-0.07,0.05,1.44-2,1.61-5.01
		c0.08-1.47-0.22-3.09-1.1-4.56C70.92,60.61,70.8,60.45,70.69,60.3z"/>
	<path fill="#000000" d="M66.58,66.58c-0.42,0.42-0.42,1.11,0,1.54c0.42,0.42,1.11,0.42,1.54,0c0.42-0.42,0.42-1.11,0-1.54
		C67.69,66.15,67,66.15,66.58,66.58z"/>
	<path fill="#000000" d="M68.69,68.69c-0.2,0.2-0.2,0.53,0,0.73c0.2,0.2,0.52,0.2,0.72,0c0.2-0.2,0.2-0.53,0-0.73
		C69.22,68.49,68.89,68.49,68.69,68.69z"/>
	<path fill="#000000" d="M12.45,52.71c1.1-0.15,2.17-0.5,3.28-0.89c2.06-0.81,3.78-2.01,5.26-3.09c1.16-0.87,2.29-1.79,3.35-2.81
		c1.51-1.46,3.05-2.88,4.82-3.94l0,0c0.41-0.24,0.83-0.47,1.27-0.67v-0.06v-0.07c-0.43-0.2-0.86-0.42-1.27-0.67c0,0,0,0,0,0
		c-1.77-1.06-3.31-2.48-4.82-3.94c-1.06-1.02-2.2-1.94-3.35-2.81c-1.48-1.07-3.2-2.27-5.26-3.08c-1.11-0.4-2.19-0.74-3.28-0.89
		c-1.1-0.15-2.11-0.04-3,0.33c-1.45,0.59-2.27,2.16-2.49,3.79C6.77,33.93,6.57,33.95,6.4,34c-1.66,0.41-3.02,1.34-4,2.45
		c-2,2.25-2.38,4.76-2.4,4.68c0.01,0.05,0.95-1.97,3.06-3.33c1.06-0.69,2.46-1.23,4.01-1.41c0.32-0.04,0.64-0.07,0.97-0.07
		c1.19-0.03,2.46,0.14,3.73,0.51c3.53,1.07,6.6,2.65,9.04,3.34c2.43,0.74,4.06,0.65,4.04,0.67c0-0.02-1.49-0.3-3.58-1.46
		c-1.06-0.57-2.31-1.37-3.84-2.27c-1.52-0.9-3.33-1.91-5.32-2.65c-1.22-0.46-2.4-0.66-3.51-0.68c0.4-0.7,0.99-1.25,1.78-1.46
		c1.46-0.44,3.24-0.05,5.31,0.56c1.81,0.56,3.65,1.68,5.24,2.61c1.25,0.82,3.61,2.9,3.82,3.24c-1.04-0.61-1.99-1.23-2.85-1.72
		c-2.23-1.31-3.63-1.67-3.61-1.68c0-0.01,1.3,0.64,3.19,2.09c0.95,0.71,2,1.61,3.3,2.51c0.66,0.44,1.39,0.89,2.31,1.24
		c0.06,0.02,0.12,0.04,0.18,0.06c-4.38-0.19-11.95-1.79-14.12-2.08c-2.71-0.38-4.02,0.48-4.63,1.19c-0.26-0.3-0.63-0.51-1.07-0.51
		c-0.79,0-1.43,0.64-1.43,1.43c0,0.79,0.64,1.43,1.43,1.43c0.43,0,0.81-0.2,1.07-0.5c0.61,0.71,1.92,1.57,4.63,1.2
		c2.16-0.3,9.73-1.89,14.12-2.08c-0.06,0.02-0.13,0.04-0.18,0.06c-0.92,0.35-1.65,0.79-2.31,1.23c-1.3,0.9-2.34,1.8-3.3,2.51
		c-1.89,1.45-3.19,2.11-3.19,2.09c-0.02-0.01,1.38-0.37,3.61-1.68c0.86-0.49,1.82-1.11,2.85-1.72c-0.21,0.34-2.57,2.42-3.82,3.24
		c-1.59,0.93-3.43,2.05-5.24,2.61c-2.07,0.62-3.85,1-5.31,0.56c-0.79-0.21-1.38-0.76-1.78-1.46c1.11-0.01,2.29-0.21,3.52-0.68
		c1.99-0.74,3.8-1.75,5.31-2.65c1.52-0.91,2.78-1.7,3.84-2.27c2.09-1.16,3.58-1.45,3.58-1.46c0.02,0.01-1.61-0.07-4.04,0.67
		c-2.43,0.69-5.51,2.27-9.04,3.34c-1.28,0.38-2.54,0.54-3.73,0.51c-0.33-0.01-0.65-0.04-0.97-0.07c-1.56-0.18-2.95-0.71-4.01-1.41
		C0.95,43.34,0.01,41.32,0,41.37c0.02-0.09,0.4,2.43,2.4,4.68c0.98,1.1,2.34,2.03,4,2.44c0.17,0.05,0.37,0.06,0.55,0.1
		c0.22,1.62,1.04,3.2,2.49,3.79C10.33,52.75,11.35,52.86,12.45,52.71z"/>
	<path fill="#000000" d="M5.42,41.25c0-0.6-0.49-1.09-1.09-1.09c-0.6,0-1.09,0.49-1.09,1.09c0,0.6,0.49,1.09,1.09,1.09
		C4.93,42.33,5.42,41.85,5.42,41.25z"/>
	<path fill="#000000" d="M2.43,41.25c0-0.28-0.23-0.51-0.51-0.51c-0.29,0-0.51,0.23-0.51,0.51c0,0.29,0.23,0.51,0.51,0.51
		S2.43,41.53,2.43,41.25z"/>
	<path fill="#000000" d="M79.43,44.71c-1.06,0.7-2.46,1.23-4.02,1.41c-0.32,0.04-0.64,0.07-0.97,0.07
		c-1.19,0.03-2.45-0.13-3.73-0.51c-3.53-1.07-6.6-2.65-9.04-3.34c-2.43-0.74-4.06-0.65-4.04-0.66c0,0.01,1.49,0.3,3.58,1.46
		c1.06,0.57,2.31,1.36,3.84,2.27c1.52,0.9,3.33,1.91,5.32,2.65c1.22,0.46,2.4,0.67,3.51,0.68c-0.4,0.7-0.99,1.25-1.78,1.46
		c-1.46,0.44-3.24,0.06-5.31-0.56c-1.81-0.56-3.65-1.68-5.24-2.61c-1.25-0.82-3.62-2.9-3.82-3.24c1.04,0.61,1.99,1.24,2.86,1.73
		c2.23,1.3,3.63,1.67,3.61,1.68c0,0.02-1.3-0.64-3.19-2.09c-0.95-0.71-2-1.61-3.3-2.51c-0.66-0.44-1.39-0.89-2.3-1.24
		c-0.06-0.02-0.12-0.04-0.18-0.06c4.38,0.19,11.95,1.78,14.12,2.08c2.71,0.38,4.02-0.48,4.63-1.19c0.26,0.31,0.64,0.51,1.07,0.51
		c0.79,0,1.43-0.64,1.43-1.43c0-0.79-0.64-1.43-1.43-1.43c-0.43,0-0.81,0.2-1.07,0.5c-0.61-0.71-1.92-1.56-4.63-1.19
		c-2.16,0.3-9.73,1.89-14.12,2.08c0.06-0.02,0.12-0.04,0.18-0.06c0.92-0.35,1.65-0.79,2.3-1.24c1.3-0.9,2.34-1.8,3.3-2.51
		c1.89-1.45,3.19-2.11,3.19-2.09c0.02,0-1.38,0.37-3.61,1.67c-0.86,0.49-1.82,1.11-2.85,1.72c0.21-0.34,2.57-2.42,3.82-3.24
		c1.59-0.93,3.43-2.05,5.24-2.61c2.07-0.62,3.86-1,5.31-0.56c0.79,0.21,1.38,0.76,1.78,1.46c-1.11,0.01-2.29,0.22-3.52,0.68
		c-1.99,0.74-3.8,1.75-5.32,2.65c-1.52,0.91-2.78,1.7-3.84,2.27c-2.09,1.16-3.58,1.44-3.58,1.46c-0.02-0.02,1.61,0.07,4.04-0.67
		c2.43-0.69,5.51-2.27,9.04-3.34c1.28-0.37,2.54-0.54,3.73-0.51c0.33,0.01,0.65,0.04,0.97,0.07c1.56,0.18,2.95,0.72,4.02,1.41
		c2.11,1.36,3.04,3.38,3.05,3.33c-0.02,0.09-0.4-2.43-2.4-4.68c-0.98-1.1-2.34-2.03-4-2.45c-0.17-0.04-0.36-0.06-0.55-0.1
		c-0.22-1.62-1.05-3.2-2.5-3.78c-0.89-0.37-1.91-0.48-3-0.33c-1.1,0.15-2.18,0.5-3.28,0.89c-2.06,0.81-3.78,2.01-5.26,3.09
		c-1.16,0.87-2.29,1.79-3.35,2.81c-1.51,1.46-3.05,2.88-4.82,3.94c0,0,0,0,0,0c-0.41,0.25-0.83,0.47-1.26,0.67l0,0.06v0.07
		c0.43,0.2,0.85,0.42,1.26,0.67c0,0,0,0,0,0c1.77,1.06,3.31,2.48,4.82,3.93c1.06,1.02,2.2,1.94,3.35,2.81
		c1.48,1.08,3.2,2.27,5.26,3.08c1.11,0.4,2.19,0.74,3.28,0.89c1.1,0.15,2.11,0.04,3-0.33c1.45-0.59,2.27-2.16,2.5-3.79
		c0.18-0.03,0.37-0.05,0.55-0.09c1.66-0.41,3.02-1.35,4-2.44c2-2.25,2.38-4.77,2.4-4.68C82.48,41.32,81.54,43.34,79.43,44.71z"/>
	<path fill="#000000" d="M77.07,41.25c0,0.6,0.49,1.09,1.09,1.09c0.6,0,1.09-0.49,1.09-1.09c0-0.6-0.49-1.09-1.09-1.09
		C77.56,40.16,77.07,40.65,77.07,41.25z"/>
	<path fill="#000000" d="M80.06,41.25c0,0.29,0.23,0.52,0.51,0.52c0.28,0,0.51-0.23,0.51-0.52c0-0.28-0.23-0.51-0.51-0.51
		C80.29,40.74,80.06,40.96,80.06,41.25z"/>
	<path fill="#000000" d="M32.21,60.86c0.2-1.44,0.35-2.88,0.38-4.36c0.04-2.1,0.12-4.19,0.63-6.19h0c0.12-0.46,0.25-0.92,0.42-1.37
		L33.6,48.9l-0.05-0.05c-0.45,0.17-0.9,0.31-1.36,0.42c0,0,0,0,0,0c-2,0.5-4.09,0.59-6.19,0.63c-1.47,0.03-2.92,0.18-4.36,0.38
		c-1.81,0.28-3.87,0.65-5.9,1.54c-1.07,0.5-2.07,1.02-2.96,1.69c-0.88,0.67-1.53,1.46-1.89,2.36c-0.61,1.44-0.08,3.14,0.91,4.44
		c-0.1,0.15-0.23,0.3-0.32,0.45c-0.88,1.47-1.18,3.08-1.1,4.56c0.18,3,1.69,5.05,1.61,5.01c0.04,0.03-0.72-2.06-0.2-4.52
		c0.26-1.25,0.87-2.61,1.84-3.84c0.2-0.25,0.41-0.5,0.64-0.74c0.82-0.87,1.83-1.64,3-2.28c3.25-1.74,6.54-2.8,8.75-4.03
		c2.24-1.2,3.33-2.41,3.33-2.39c-0.02-0.01-1.27,0.84-3.57,1.5c-1.16,0.34-2.6,0.67-4.32,1.1c-1.71,0.44-3.71,1-5.63,1.89
		c-1.19,0.54-2.17,1.23-2.96,2c-0.21-0.78-0.18-1.59,0.23-2.29c0.72-1.34,2.26-2.33,4.15-3.36c1.68-0.88,3.77-1.4,5.56-1.86
		c1.46-0.3,4.6-0.51,4.99-0.41c-1.17,0.3-2.28,0.54-3.24,0.8c-2.5,0.65-3.75,1.38-3.74,1.37c-0.01-0.01,1.37-0.47,3.74-0.78
		c1.17-0.17,2.55-0.28,4.11-0.56c0.78-0.15,1.61-0.35,2.5-0.76c0.06-0.03,0.11-0.06,0.17-0.08c-3.24,2.96-9.72,7.19-11.46,8.51
		c-2.18,1.65-2.5,3.18-2.43,4.12c-0.4-0.03-0.81,0.09-1.11,0.4c-0.56,0.56-0.56,1.47,0,2.02c0.56,0.56,1.47,0.56,2.02,0
		c0.31-0.3,0.43-0.71,0.4-1.11c0.94,0.07,2.47-0.25,4.12-2.43c1.32-1.74,5.55-8.22,8.51-11.45c-0.03,0.06-0.06,0.11-0.09,0.17
		c-0.4,0.89-0.61,1.72-0.76,2.5c-0.28,1.55-0.38,2.93-0.56,4.11c-0.31,2.36-0.77,3.75-0.78,3.74c-0.02,0.01,0.72-1.24,1.36-3.74
		c0.26-0.96,0.5-2.07,0.8-3.24c0.09,0.39-0.11,3.53-0.42,4.99c-0.46,1.78-0.97,3.88-1.86,5.55c-1.03,1.9-2.02,3.43-3.36,4.15
		c-0.71,0.41-1.51,0.44-2.29,0.23c0.78-0.79,1.47-1.77,2.01-2.96c0.88-1.93,1.45-3.92,1.88-5.63c0.44-1.72,0.76-3.17,1.11-4.32
		c0.66-2.3,1.51-3.55,1.5-3.57c0.03,0-1.19,1.09-2.39,3.33c-1.23,2.21-2.29,5.51-4.03,8.75c-0.64,1.17-1.41,2.18-2.28,3
		c-0.24,0.23-0.49,0.44-0.74,0.64c-1.23,0.97-2.59,1.58-3.83,1.84c-2.45,0.53-4.54-0.24-4.52-0.2c-0.05-0.08,2,1.44,5.01,1.61
		c1.47,0.08,3.09-0.22,4.56-1.1c0.15-0.09,0.3-0.21,0.45-0.32c1.3,0.99,3,1.52,4.44,0.91c0.89-0.37,1.69-1.01,2.35-1.89
		c0.67-0.88,1.19-1.89,1.69-2.95C31.56,64.73,31.93,62.67,32.21,60.86z"/>
	<path fill="#000000" d="M15.91,68.12c0.42-0.43,0.42-1.12,0-1.54c-0.42-0.42-1.11-0.42-1.54,0c-0.42,0.42-0.42,1.11,0,1.54
		C14.8,68.54,15.49,68.54,15.91,68.12z"/>
	<path fill="#000000" d="M13.8,69.42c0.2-0.2,0.2-0.53,0-0.73c-0.2-0.2-0.53-0.2-0.72,0c-0.2,0.2-0.2,0.53,0,0.73
		C13.27,69.62,13.6,69.62,13.8,69.42z"/>
	<path fill="#000000" d="M50.28,21.63c-0.2,1.44-0.36,2.89-0.38,4.36c-0.04,2.1-0.12,4.2-0.63,6.19c0,0,0,0,0,0
		c-0.11,0.46-0.25,0.92-0.42,1.37l0.05,0.04l0.05,0.05c0.45-0.17,0.9-0.3,1.37-0.42l0,0c2-0.5,4.09-0.58,6.19-0.62
		c1.48-0.03,2.92-0.18,4.36-0.38c1.81-0.28,3.87-0.65,5.9-1.54c1.07-0.5,2.07-1.02,2.96-1.69c0.88-0.67,1.53-1.46,1.89-2.35
		c0.61-1.44,0.08-3.14-0.91-4.44c0.1-0.15,0.23-0.3,0.32-0.45c0.88-1.47,1.18-3.08,1.1-4.56c-0.18-3-1.69-5.05-1.61-5.01
		c-0.04-0.03,0.72,2.06,0.2,4.52c-0.26,1.24-0.87,2.6-1.84,3.83c-0.2,0.25-0.41,0.5-0.64,0.74c-0.82,0.86-1.83,1.64-3,2.28
		c-3.25,1.74-6.54,2.8-8.75,4.03c-2.24,1.2-3.33,2.41-3.33,2.39c0.01,0.01,1.27-0.84,3.57-1.5c1.15-0.34,2.6-0.67,4.32-1.1
		c1.71-0.44,3.7-1,5.63-1.89c1.19-0.54,2.17-1.23,2.96-2c0.21,0.78,0.18,1.59-0.23,2.29c-0.72,1.34-2.25,2.33-4.15,3.36
		c-1.68,0.88-3.77,1.39-5.55,1.86c-1.46,0.31-4.61,0.51-4.99,0.42c1.17-0.3,2.28-0.54,3.24-0.8c2.5-0.65,3.75-1.38,3.74-1.36
		c0.01,0.01-1.37,0.46-3.74,0.78c-1.18,0.18-2.55,0.27-4.11,0.56c-0.78,0.15-1.61,0.35-2.5,0.76c-0.06,0.02-0.12,0.06-0.17,0.09
		c3.23-2.97,9.71-7.19,11.45-8.51c2.18-1.65,2.5-3.18,2.43-4.12c0.4,0.03,0.81-0.09,1.12-0.4c0.56-0.56,0.56-1.47,0-2.02
		c-0.56-0.56-1.46-0.56-2.02,0c-0.3,0.3-0.43,0.71-0.4,1.11c-0.93-0.07-2.47,0.25-4.12,2.43c-1.32,1.74-5.54,8.22-8.51,11.46
		c0.03-0.06,0.06-0.12,0.09-0.17c0.4-0.89,0.61-1.73,0.76-2.5c0.28-1.56,0.38-2.93,0.56-4.1c0.31-2.37,0.77-3.75,0.78-3.74
		c0.02-0.01-0.72,1.24-1.37,3.73c-0.26,0.96-0.5,2.07-0.8,3.24c-0.09-0.39,0.11-3.53,0.41-4.99c0.46-1.79,0.97-3.88,1.86-5.55
		c1.03-1.9,2.02-3.43,3.36-4.15c0.71-0.41,1.52-0.43,2.29-0.23c-0.78,0.8-1.47,1.77-2.01,2.97c-0.89,1.92-1.45,3.92-1.88,5.63
		c-0.44,1.72-0.76,3.17-1.11,4.32c-0.66,2.3-1.51,3.55-1.5,3.57c-0.03,0,1.19-1.09,2.39-3.33c1.23-2.21,2.29-5.5,4.03-8.75
		c0.64-1.17,1.41-2.18,2.28-3c0.24-0.23,0.49-0.44,0.74-0.64c1.23-0.97,2.59-1.58,3.84-1.84c2.45-0.53,4.54,0.24,4.52,0.2
		c0.05,0.07-2-1.43-5.01-1.61c-1.47-0.08-3.09,0.22-4.56,1.1c-0.15,0.09-0.3,0.22-0.45,0.32c-1.3-0.99-3-1.52-4.44-0.91
		c-0.89,0.37-1.69,1.01-2.35,1.89c-0.67,0.88-1.19,1.89-1.69,2.95C50.93,17.76,50.56,19.83,50.28,21.63z"/>
	<path fill="#000000" d="M66.58,14.38c-0.42,0.42-0.42,1.11,0,1.53c0.42,0.42,1.11,0.42,1.54,0c0.43-0.42,0.42-1.11,0-1.54
		C67.69,13.96,67,13.96,66.58,14.38z"/>
	<path fill="#000000" d="M68.69,13.07c-0.2,0.2-0.2,0.53,0,0.73c0.2,0.2,0.53,0.2,0.72,0c0.2-0.2,0.2-0.52,0-0.73
		C69.22,12.87,68.89,12.87,68.69,13.07z"/>
</g>
</svg>
