<svg fill="#8c6900" xmlns="http://www.w3.org/2000/svg" xmlns:xlink="http://www.w3.org/1999/xlink" viewBox="0 0 20 20" version="1.1" x="0px" y="0px"><title>share</title><g stroke="none" stroke-width="1" fill="none" fill-rule="evenodd"><g transform="translate(-580.000000, -140.000000)" fill="#8c6900" fill-rule="nonzero"><path d="M597.710721,144.3835 C598.200432,144.615456 598.637874,144.944933 598.996418,145.35014 C599.585071,146.015404 599.937814,146.85677 599.992517,147.754005 L600,148 L600,156 C600,158.142195 598.316032,159.891079 596.19964,159.995105 L596,160 L584,160 C581.857805,160 580.108921,158.316032 580.004895,156.19964 L580,156 L580,148 C580,147.011201 580.361415,146.075882 581.003582,145.35014 C581.302369,145.012468 581.655945,144.727386 582.048902,144.507504 L582.289279,144.3835 L583.145414,146.190994 C582.900696,146.306907 582.68135,146.472116 582.501407,146.675478 C582.219973,146.993539 582.047159,147.389487 582.008353,147.815649 L582,148 L582,156 C582,157.054362 582.815878,157.918165 583.850738,157.994514 L584,158 L596,158 C597.054362,158 597.918165,157.184122 597.994514,156.149262 L598,156 L598,148 C598,147.504205 597.820232,147.038977 597.498593,146.675478 C597.354638,146.512788 597.185466,146.374516 596.99826,146.266368 L596.854586,146.190994 L597.710721,144.3835 Z M590,140 L590.019354,140.000186 L590.019354,140.000186 L590.059031,140.001733 C590.070793,140.002424 590.082545,140.003322 590.094281,140.004427 L590.116621,140.006728 L590.116621,140.006728 L590.143463,140.010283 C590.163303,140.013144 590.183074,140.016601 590.202746,140.020654 C590.211653,140.0224 590.220494,140.024347 590.229291,140.026411 L590.261004,140.034487 L590.261004,140.034487 L590.291844,140.043327 C590.298628,140.045391 590.305395,140.047528 590.312143,140.049738 C590.331798,140.056122 590.351579,140.063316 590.371059,140.071104 C590.388796,140.078196 590.406098,140.085679 590.423222,140.093673 C590.443891,140.103377 590.464294,140.113794 590.484277,140.124876 C590.496394,140.131499 590.508613,140.138607 590.520709,140.145995 C590.525834,140.149229 590.530977,140.152436 590.536088,140.155688 L590.588404,140.191254 C590.596641,140.197263 590.604808,140.203413 590.612899,140.209705 C590.620951,140.216095 590.623204,140.217887 590.625449,140.219689 L590.707107,140.292893 L594.707107,144.292893 C595.097631,144.683418 595.097631,145.316582 594.707107,145.707107 C594.346623,146.067591 593.779392,146.09532 593.387101,145.790295 L593.292893,145.707107 L591,143.415 L591,155 C591,155.552285 590.552285,156 590,156 C589.487164,156 589.064493,155.61396 589.006728,155.116621 L589,155 L589,143.414 L586.707107,145.707107 C586.316582,146.097631 585.683418,146.097631 585.292893,145.707107 C584.932409,145.346623 584.90468,144.779392 585.209705,144.387101 L585.292893,144.292893 L589.292893,140.292893 L589.374551,140.219689 C589.376796,140.217887 589.379049,140.216095 589.38131,140.214312 L589.292893,140.292893 C589.330369,140.255417 589.37008,140.221537 589.411596,140.191254 C589.433664,140.17527 589.456192,140.160211 589.47934,140.146067 C589.491387,140.138607 589.503606,140.131499 589.515938,140.124671 C589.535706,140.113794 589.556109,140.103377 589.576901,140.093654 C589.593902,140.085679 589.611204,140.078196 589.628664,140.071225 C589.648421,140.063316 589.668202,140.056122 589.688264,140.049547 C589.694605,140.047528 589.701372,140.045391 589.708156,140.043327 L589.739204,140.034348 C589.749639,140.031536 589.760142,140.02889 589.770709,140.026411 L589.797254,140.020654 C589.816926,140.016601 589.836697,140.013144 589.856537,140.010283 C589.865134,140.008974 589.874238,140.007789 589.883379,140.006728 L589.905719,140.004427 C589.917455,140.003322 589.929207,140.002424 589.940969,140.001733 L589.980824,140.00018 C589.987202,140.00006 589.993594,140 590,140 Z"></path></g></g></svg>