<?xml version="1.0" encoding="UTF-8"?><svg id="a" xmlns="http://www.w3.org/2000/svg" viewBox="0 0 256 256"><defs><style>.b,.c,.d,.e,.f{stroke-width:0px;}.b,.d{fill:none;}.c{fill:#88cbeb;}.d{stroke:#ffabbb;stroke-linecap:round;stroke-linejoin:round;}.e{fill:#ffabbb;}.f{fill:#fff;}</style></defs><path class="b" d="M249.2,105.6c-.16-.45-.33-.92-.49-1.38.17.46.34.93.49,1.38Z"/><path class="b" d="M256,250.38h0c-.05.05-.1.1-.15.15.05-.05.1-.1.15-.15Z"/><path class="b" d="M250.02,108.42c-.04-.26-.11-.59-.21-.95.1.37.18.69.21.95Z"/><path class="b" d="M255.85,250.53c-.28.29-.55.56-.8.81.25-.25.52-.52.8-.81Z"/><path class="b" d="M248.22,102.87c-.23-.65-.43-1.24-.56-1.72.13.48.33,1.07.56,1.72Z"/><path class="b" d="M252.12,95.74c.16-.06.33-.1.49-.12-.17.02-.33.06-.49.12Z"/><path class="b" d="M252.75,111c.53.33.99.67,1.5,1-.51-.33-.97-.67-1.5-1Z"/><path class="b" d="M250.74,96.76c.15-.16.3-.3.45-.43-.15.13-.3.28-.45.43Z"/><path class="b" d="M0,250.38h0c.24-.25.49-.51.75-.78-.26.27-.51.53-.75.78Z"/><path class="b" d="M248.7,104.22c-.17-.46-.33-.92-.49-1.35.15.43.32.89.49,1.35Z"/><path class="b" d="M250.06,97.53c.23-.27.45-.53.68-.77-.23.23-.45.49-.68.77Z"/><path class="b" d="M247.5,100.38c.2-.17.39-.35.57-.54-.18.19-.37.37-.57.54Z"/><path class="b" d="M249.63,106.89c-.13-.4-.28-.84-.43-1.29.16.45.31.89.43,1.29Z"/><path class="b" d="M98.27,5.25c.57-.29,1.11-.74,1.56-1.29-.45.55-.99,1.01-1.56,1.29Z"/><path class="b" d="M98.27,5.25c-.23.12-.46.21-.68.26.23-.06.46-.15.68-.26Z"/><path class="b" d="M4.88,245.32c.7-.71,1.4-1.4,2.04-2.02-.65.61-1.34,1.3-2.04,2.02Z"/><path class="b" d="M73.93,3.91c.21-.38.43-.76.65-1.14-.22.38-.44.76-.65,1.14Z"/><path class="b" d="M75.49,1.2c.18-.3.34-.57.47-.77-.13.21-.29.47-.47.77Z"/><path class="b" d="M73.08,5.46c.16-.3.35-.64.55-1-.2.36-.39.7-.55,1Z"/><path class="b" d="M78.44,2.13c-.13-.06-.26-.13-.38-.22.12.09.24.16.38.22Z"/><path class="b" d="M79.08,2.38c-.14-.06-.29-.11-.43-.16.14.06.29.11.43.16Z"/><path class="b" d="M4.35,245.86c-.35.36-.71.73-1.06,1.1.35-.37.71-.73,1.06-1.1Z"/><path class="b" d="M3.28,246.96c-.35.37-.7.73-1.05,1.09.34-.36.69-.72,1.05-1.09Z"/><path class="b" d="M1.73,248.58c-.34.35-.66.69-.98,1.02.31-.33.64-.67.98-1.02Z"/><path class="b" d="M2.85,9.49c-.22-.15-.44-.32-.67-.49.22.17.45.34.67.49Z"/><path class="b" d="M4.2,10.24c-.13-.03-.28-.09-.46-.19.18.09.33.16.46.19Z"/><path class="b" d="M9.74,240.98c-.39.23-.89.6-1.45,1.09.56-.48,1.06-.86,1.45-1.09Z"/><path class="b" d="M16.58,47.32c-.65.05-1.32.09-1.95.08.63,0,1.3-.02,1.95-.08Z"/><path class="b" d="M11.93,47.26c.14,0,.25-.02.3-.13-.04.1-.15.13-.3.13Z"/><path class="f" d="M171.48,256h18.02c-.89-.25-9.69-.11-18.02,0Z"/><path class="e" d="M223,253.75c-.32-.38-.48-.23-.5-.25-.73.46-2.79,1.42-5.22,2.5h7.19c-.6-.71-1.28-1.39-1.97-2.12l.5-.12Z"/><path class="e" d="M217.75,249c-1.02.26-13.13,6.77-13.88,7h13.41c2.43-1.08,4.49-2.04,5.22-2.5-1.21-1.38-2.83-4.99-4.75-4.5Z"/><path class="e" d="M202,256h.77c-.28-.02-.56-.03-.77,0Z"/><path class="e" d="M222.5,253.88c.69.74,1.37,1.42,1.97,2.12h.53c-.57-.82-1.36-1.47-2-2.25l-.5.12Z"/><path class="e" d="M50,256h4.75c-1.19-1.6-3.38-1.26-4.75,0Z"/><path class="f" d="M98.88,254c-1.19.92-2.31,1.36-3.07,2h4.84c-.28-.72-.84-1.41-1.77-2Z"/><path class="e" d="M86.38,253.25c-2.25,4.46-2.26.59-5.88,0,0,.08.27.53.5,1.5.11.48.22.88.32,1.25h4.18c.04-.08.08-.15.13-.19.17-.18.34-.1.46.01.09.08.15.18.16.18h.5c-.03-.77-.57-.92-.38-2.75Z"/><path class="c" d="M77.75,256h3.57c-.1-.37-.21-.77-.32-1.25-.86-.22-2.83.68-3.25,1.25Z"/><path class="e" d="M250,26c-.17.31.36.86,0,1.38-.49.7-3.49.41-3.25,2.75.03.29,2.65,4.94,2.88,5.12.2.17,3.73.86,5.12,1.25.27.08.74.08,1.25.13v-6.54c-.96.51-1.93-.95-.62-1.59l.62.62v-2.55c-.41.33-1.03.53-1.88.42-1.52-.62-1.27-2.64.25-3,.71-.17,1.25-.06,1.62.2v-2.2c-1.75.65-5.13,2.37-6,4ZM253.62,30.25c6.55,1.82-3.56,1.9-.88,4.62.14,1.92-3.26-2.23.88-4.62Z"/><path class="e" d="M252.61,95.62c-.17.02-.33.06-.49.12-.32.12-.63.33-.93.59-.15.13-.3.28-.45.43-.23.23-.45.49-.68.77-.61.73-1.25,1.57-1.98,2.31-.18.19-.37.37-.57.54.02.19.07.46.16.78.13.48.33,1.07.56,1.72.15.43.32.89.49,1.35s.34.93.49,1.38.31.89.43,1.29c.06.2.12.4.17.58.1.37.18.69.21.95.04.26.03.46-.02.58.46.62,1.14.86,1.75,1.25.35.22.66.54,1,.75.53.33.99.67,1.5,1,.57.37,1.16.78,1.75,1.17v-13.18c-.42-.1-.52-.49,0-1.49v-.5c-1.39-1.85-2.46-2.47-3.39-2.38Z"/><path class="e" d="M256,153.25v-5.7c-.37,1.91-.78,3.81-1.25,5.7.41.04.84-.03,1.25,0Z"/><path class="e" d="M253.38,252.75c.19,0,.81-.55,1.67-1.41.25-.25.52-.52.8-.81.05-.05.1-.1.15-.15v-7.06c-1.57,1.53-3.1,3.01-6.25,6.06.47.41,3.38,3.38,3.62,3.38Z"/><path class="f" d="M256,100v-1.49c-.52,1.01-.42,1.39,0,1.49Z"/><path class="e" d="M253.75,36.88c1.02,1.8,1.69,2.99,2.25,3.98v-4.23c-.51-.05-.98-.05-1.25-.13l-1,.38Z"/><path class="f" d="M222.5,52.13c.59-3.05.94-6.38,2.25-5.62.67-.91,1.66-1.51,2.5-2.25,1.9-1.67,3.62-3.56,5.5-5.25.32-.29.69-.48,1-.75.71-.62.72-.47.75-.5.35-.3.71-.75,1-1,.39-.33.79-1.18.88-1.25,1.32-1.1,12.5-9.42,13.25-9.75.04-.02.19.3.38.25.87-1.63,4.25-3.35,6-4V7.25c-3.07-2.29-6-4.86-9-7.25h-22c2.08,2.99,3.57,8.3,3.38,11.75-2.55,1.12-19.34,11.13-20.5,11-.38-.04-4.8-5.62-4.88-6-.01-.08,0-.17,0-.25-1.38-1.24-2.37-2.8-3.5-4.25-1.18-1.51-9.24-12.03-10-12.25h-18.02c-6.33.08-12.39.15-14.48,0-.13.08-.36.23-.67.42-.31.19-.69.43-1.12.7-.65.4-1.41.86-2.18,1.33-.52.31-1.05.63-1.56.93-1.79,1.05-3.36,1.92-3.59,1.87-.36-.07-4.41-4.53-5.12-5.25h-23.25c.05.41.18.75.25,1.25.84,5.97,3.39,12.94,3.25,13.62-.16.81-11.45,9.64-12.88,10.38-1.84.94-15.71,4.56-17,4.25-.63-.15-5.35-5.87-9.12-9.25-1.68-1.5-3.33-2.75-4.83-3.87-3.76-2.79-6.62-4.75-6.86-7.79-.05-.61.01-1.26.19-1.97.03-.12.25-.56.58-1.17.16-.3.35-.64.55-1,.1-.18.2-.37.31-.55.21-.38.43-.76.65-1.14.32-.57.64-1.11.91-1.57.18-.3.34-.57.47-.77.13-.21.23-.35.28-.42h-21.5c2.08,2.79-1.07,11.43-4.12,11.25-8.06-3.03-9.04-12.34-2.5-10.75.53.13,1.18,1.03,1.25,1,.13-.05.26-1.17.62-1.5h-31.25c-.62.63-13.5,10.17-14.38,10.25-.05,0-.11,0-.17-.02-.13-.03-.28-.09-.46-.19-.26-.14-.57-.34-.9-.56-.22-.15-.44-.32-.67-.49-.9-.69-1.8-1.45-2.18-1.74v14.75c4.73-1.76,7.24,1.44,10,5.25.97,0,2.11,1.34,2.5,2.25,2.47-.29,4.86,2.57,6.75,4.5l.12-.5c2.44,2.12,10.13,10.1,10.88,12.5.29.93.46,19-.38,19.5-.16.1-.69.2-1.5.3-.81.1-1.9.2-3.19.31-.32.03-.65.05-1,.08-4.82.36-11.74.71-17.02.97-.38.02-.75.04-1.11.05-1.44.07-2.72.13-3.76.18-.26.01-.5.02-.73.04-.46.02-.85.04-1.16.06-.16,0-.29.02-.41.02v31c1.39-2.69,12.14-21.53,13.25-22.38,1.18-1.3,5.89,4.15,8.62,6.62,2.6,2.36,7.09,4.89,6.62,6.38-4.65,6.99-10.56,13-16.5,18.88,5.88,4.52-4.56,9.12-4.75,9.75-.41,1.35-.42,20.41-1.25,28.25-.16,1.48-.31,5.66-1,6.62-1.09,1.52-3.44.72-5,.62v10.75c.54-.23,3.19-1.51,3.38-1.5.18,0,.89.41,1.91,1.04,2.61,1.63,7.21,4.78,9.72,6.6.28.2.53.39.76.55.22.17.41.31.57.43.23.18.38.31.43.37.04.05.43.13.75.88.12.28.55,2.18,1.06,4.68.41,2,.88,4.39,1.3,6.66.1.57.21,1.12.3,1.66.14.81.28,1.59.4,2.3.04.24.08.47.11.69.07.44.13.86.18,1.23s.09.7.12.98c.03.28.05.52.05.69,0,.18,0,.3-.03.35-.12.27-1.33.97-3.13,1.9-.45.23-.93.48-1.45.73-.26.13-.52.26-.79.39-.81.4-1.67.82-2.56,1.24-.3.14-.6.29-.9.43-3.32,1.58-6.88,3.22-9.34,4.36-.45.21-.86.4-1.23.57-.37.17-.69.32-.96.45-.27.13-.49.23-.65.3v30.75c1.02.77,1.98,1.71,3,2.5.99.76,2.01,1.49,3,2.25,1.41,1.09,2.84,2.15,4.25,3.25,1.07.84,2.19,1.64,3.25,2.5,1.1.9,3.23,2.09,4,3,1.23,1.45,1.88,4.64,2,6.62.01.21.03.4.04.57.09,1.03.17,1.44-.43,2.16-.1.12-.22.25-.36.39h31.25c1.37-1.26,3.56-1.6,4.75,0h21.5c.41-.5,1.88-1.76,2.5-2.25.53-.42,1.02-.95,1.75-1-.33-5.22,1.43-3.41,2.5-5.38.47-.86.86-11.94,12.88-10.62,1.05.12,4.33,1.5,4.75,1.5.71,0,5.99-2.46,13.75.75,6.48,2.68,4.14,9.1,5.12,17h23.25c-1.49-1.51-11.83-11.77-12-12.62-.17-.9,1.55-6.69,2.25-7.38.63-.63,1.32-.62,2-1,1.28-.71,11.7-5.58,12.38-5.5.95.11,12.14,11.9,13.62,13.5.07.07.38-.27,1.5,1.25.75,1.01,2.53,5.5,2.25,6.62-.11.45-6.76,4.49-7.75,5.12h14.48c8.33-.11,17.13-.25,18.02,0-.44-2.16.29-13.91.75-14.88.37-.78,14.27-8.47,15.12-8.38.86.1,10.04,11.73,11.12,13.25.11.15,1.88,1.27,1.25,3,1.92-.49,3.54,3.12,4.75,4.5.02.02.18-.13.5.25.64.78,1.43,1.43,2,2.25h22c-7.81-6.21-15.46-12.64-23.25-18.88.26-1.15.81-5.08,1-5.5.37-.82,12.49-11.78,13.38-11.88.58-.07,1.42.83,2.12,1.25,1.43.86,2.66,2.03,4,3,1.11.8,2.15,1.69,3.25,2.5,1.44,1.06,2.82,2.18,4.25,3.25,1,.75,2,1.5,3,2.25.54.41,1.05.6,1.25.75v-30.75c-6.02,2.87-12.01,5.83-18.12,8.5-1.75-2.7-15.44-17-15.88-18.12-.2-.5-.35-10.22-.25-10.75.02-.08.48-.88.75-.88,9.49-4.4,24.92-13.09,33.5-16.75v-10.75c-.41-.03-.84.04-1.25,0-1.78-.17-3.98-.63-5.75-1-1.79-.38-3.51-.96-5.25-1.5-5.13-1.6-11.5-4.45-15.75-7.75-.55-.43-2.47-1.48-2.5-2.12,4.98-7.75,9.5-15.96,15.5-23,3.89-4.56,8.74-8.3,9-8.88.05-.12.06-.32.02-.58-.04-.26-.11-.59-.21-.95-.05-.18-.11-.38-.17-.58-.13-.4-.28-.84-.43-1.29-.16-.45-.33-.92-.49-1.38s-.33-.92-.49-1.35c-.23-.65-.43-1.24-.56-1.72-.09-.32-.14-.58-.16-.78.2-.17.39-.35.57-.54.74-.74,1.37-1.58,1.98-2.31.23-.27.45-.53.68-.77.15-.16.3-.3.45-.43.3-.26.61-.47.93-.59.16-.06.33-.1.49-.12.93-.09,1.99.53,3.39,2.38v-30.5c-11.71.71-23.42,1.23-35.12,2-.94-.46,1.26-15.46,1.62-17.38ZM238.12,10.5c.08,0,1.18.76,1.25.75.23-.03,1.82-2.07,2.75-2.25,5.56-1.07,4.41,8.1,0,12.25-6.65-.78-11.9-10.9-4-10.75ZM161.88,32.5c6.44-.78,12.84-1.75,19.25-2.75,1.1-.17,1.54.26,1.62.25.03,0,.17-.47.38-.5.6-.09.7.28.88.25.1-.02.7-.56,1.88-.75,1.43-.23,4.13-.28,5.38-.5.07-.01-.07-.15,1.25-.5.06-.02.62-.95.88-1,.44-.09,2,.61,2.88.5.67-.09.9-.75,2.5-.75,1.19,0,1.5.18,2.5.75.75.43.91-.08,1.75,1.5-.05-1.32,1.45-.23,2.75.5,1.67.94,3.99,2.92,5,4.5.78.05,1.54,1.33,2,2,.92,1.34,3.05,5.56,2.5,6.88l-34.88,34.38c-1.86-.82-12.9-3.88-13.5-4.25-.37-.23-3.63-6.95-3.88-7.75-.35-1.14-.33-1.04-.5-2.25-.2-1.41-.2-2.57,0-4-.76-2.1-.48-4.34-.5-6.5-.04-3.33.08-6.67,0-10,0-.14-.16-.15-.25-2.75-.03-.98-.27-1.96-.25-3,.02-.95-.41-3.73.38-4.25ZM160.88,101.5c-9.86-3.29-10.16-12.56-4.75-12,.87.09,2.12,1.26,2.25,1.25.25-.01,1.84-2.29,2.75-2.5,5.74-1.3,5.33,8.22-.25,13.25ZM149.25,17.63c1.62-2.67,5.08-.07,5.38-.12.17-.03,1.5-2.26,2.5-2.5,5.76-1.39,5.09,9.06-.75,13.25-3.23-1.83-9.77-6.26-7.12-10.62ZM107.75,50c1.65-.59,11-5.09,11.62-5,.39.06,3.96,5.73,4.38,6.5l-3.62-6.75,22-11c1.84-.08,7.54,14.75,7.62,15.62.07.75-.09,1.62-.5,2.25-.74,1.14-19.5,8.86-20.62,8.88-.87.01-.89-.59-1.38-1.25.02.08-.01.17,0,.25.12.81.51,1.06.5,1.12-.17.8-11.36,5.31-12.88,6.38-.84-.56.09-1.16-.12-2-.47-1.84-2.37-5.32-3.25-7.25-.03-.07.03-.18,0-.25-1.46,1.97,4.64,7.08,2,10.12-.79.92-18.7,10-21.38,11.38-2.6-3.36-12.11-17.79-8-21,2.33-1.82,19.43-6.51,23.62-8ZM148.12,123c-1.86.91-34.59,7.9-40.25,9.75-1.49-6.35-12.64-39.7-12.88-41.88-.3-2.84,1.76-6.94,4.5-7.88,4.07-1.39,30.21-5.71,37.62-7.5l12.12,40.38-.25,6.38c.13.53-.22.43-.88.75ZM69.12,74c1.2-.13,1.04.19,1.62.62.46.34,7.34,8.08,7.5,8.62.66.58,3.08,2.71,3.25,3.25.24.73.39,8.57.12,9l-33.75,13.75c-1.24-2.17-9.49-15.44-9.62-16.38-.16-1.11,1.46-7.29,2.25-8.12.74-.79,1.66-.7,1.75-.75,1.7-.86,25.45-9.85,26.88-10ZM47.88,54.25c1.36.06-.46,1.63,3-1.25,4.54-.34,2.74,7,0,9.5-3.3,1.48-10.61-8.6-3-8.25ZM42,137c5.01-5.96,10.87-11.14,16.5-16.5,3.42-3.25,7.36-9.34,9.75-6,1.97-.46,4.59,1.41,6.25,2.5,2.28,1.49,2,2.16,2.12,2.25.02.02.28-.41.5-.25,1.71,1.21,3.69,3.36,5.38,4.5.29.19,2.98,1.48,6,3.5,1.66,1.11,8.49,5.03,9.25,6.38.47.83,2.72,17.7,2.75,18.75.03,1.23.25,2.04-.62,2.38l-65.75,15.5c-.13-.05-.59-.76-.62-.88-.31-1.02.11-19.6.5-21.25.36-1.52,1.33-1.59,1.5-1.88.71-1.18,1.46-2.14,2.25-3.25,1.31-1.85,2.81-4.04,4.25-5.75ZM34.12,24c.49-.74,12.62-11.39,13.5-11.5.63-.08,1.65,1.19,2.12,1.5,1.43.93,2.65,1.98,4,3,1.09.82,2.17,1.67,3.25,2.5,1.36,1.04,2.64,2.21,4,3.25,1.08.83,2.16,1.67,3.25,2.5,1.28.98,2.49,2.01,3.75,3,1.1.86,2.39,1.63,3.5,2.5,1.4,1.1,2.85,2.14,4.25,3.25.97.77,2.04,1.47,3,2.25,1.25,1.02,2.97,2.09,4,3.25,1.18,1.33,1.11.77,1.75,3.12.45,1.65,1.11,5.46.12,6.62-.58.69-13.85,10.38-14.75,10.5-.74.1-3.96-2.43-4.75-3-9.8-7.11-22.73-18.75-32.62-26.62-.12-.63,1.18-5.45,1.62-6.12ZM18.38,128.5c.86.13,1.41,1.02,1.5,1,.16-.03.78-2.01,2.25-2.25,4.98-.81,3.42,8.73-.75,11-8.73-4.63-7.28-10.42-3-9.75ZM37.88,255c-5.06-8.52-19.95-27.21-23.62-33.38-.57-.95-1.53-2.06-1.5-3.25.03-1.49,2.11-6.25,3.38-7.38,1.7-1.51,29.25-18.14,34.5-21.5,3.55,5.07,23.78,32.2,24.62,34.12,1,2.29.42,5.79.75,8.5l-38.12,22.88ZM73.62,180.5c-7.72-3.78-7.87-10.7-3-10.25,1.16.11,1.89,1.02,2,1,.17-.03.95-2.26,2.5-2.5,6.26-.95,2.16,12.3-1.5,11.75ZM134.12,210.25c-9.25-4.31-8.2-11.61-3.5-11,.72.09,1.82,1.19,2.25,1,.16-.07,1.03-2.26,2.25-2.5,5.25-1.01,4.57,9.11-1,12.5ZM121.5,176.75c3.1,3.56-3.15,8.55-6.5,8.5-.98,8.68-2.08,17.42-3.75,26-.54,2.8-.87,5.65-1.75,8.38-1.16,1.46-4.15.15-5.75-.12-1.91-.33-3.64-.71-5.5-1.25-1.68-.49-3.14-1.1-4.75-1.75-2.7-1.08-5.01-2.25-7.5-3.75-.56-.34-.97-.65-1.5-1-1.64-1.08-3.05-1.87-4.5-3.25-.5-.47-2.29-1.73-2.25-2.38,7.27-10.22,14.61-20.79,24.75-28.38-.43-7.54-5.08-6.65,2.38-13.25,3.45,0,2.75,2.67,2.88,2.88.1.17.96.23,1.25.38,3.98-8.01,8.12-15.93,12.88-23.5l17,11.5.38,1.12c-5.06,7.35-11.22,13.81-17.75,19.88ZM138.12,142.25c-1.67.43-7.97-4.1-7.38-8.12.57-3.82,4.57-1.32,4.88-1.38.17-.03,1.3-2.08,2.75-2.25,4.66-.55,3.92,7.85-.25,11.75ZM143.75,156.88c-.26-.82,1.42-7.04,2-8.12.32-.61,2.62-3.12,3.5-4.25.8-1.03,1.95-2.01,2.75-3,1.09-1.34,2.14-2.67,3.25-4,.87-1.04,1.9-1.99,2.75-3,1.1-1.31,2.13-2.7,3.25-4,.81-.94,1.69-1.82,2.5-2.75,1.14-1.31,2.4-2.5,3.5-3.75.14-.15.16-.62,2.5-3.25,1.03-1.15,1.87-2.4,3-3.5.59-.58.95-1.72,1.62-1.75.88-.04,14.64,8.36,15.25,9,.89.93,1.83,4.4,1.62,5.62-.4,2.35-27.13,32.12-30.38,36.88-1.87-1.34-16.82-9.18-17.12-10.12ZM175.88,233.75l-31.88-34.38c.88-2.25.78-5.9,2.38-7.62,1.24-1.35,26.23-17.8,30.25-20.75,3.81,4.01,31.41,31.35,31.88,33.62.38,1.85-.47,5.22.25,7.25l-32.88,21.88ZM209.25,169.5c-.06,1.18-.78,8.73-1.38,9-.71.31-14.79.81-15.5.5-1.01-.45-2.35-19.26-3.12-21.88,2.48.03,17.53-1.25,18.38-.88.58.26,1.92,10.1,1.88,12.5,0,.18-.22.21-.25.75ZM216.88,149.5c-7.25-3.07-8.68-10.16-2.75-9.75.23.02.93.81,1.25.75.14-.03,1.09-1.78,2-2,5.43-1.3,4.14,8.43-.5,11ZM224.75,79.88c.8.89,1.4,2.58,2.25,3.5,3.35,3.59,8.67,7.13,9.75,12.25,1.43,6.75-4.23,8.11-8,13.38-1.22,1.71-5.61,11.31-6.38,11.75-.83.48-12.83,1.11-15.25.75-3.52-.53-15.8-7.04-16.12-7.88-.27-.68.2-11.23,0-13.62-.86-10.45-7.2-15.34,6.62-18.25,2.21-.47,7.73-.77,8.5-1,1.43-.43,10.92-9.54,18.62-.88Z"/><path class="e" d="M238,47.5c-2.44-.06-4.94.15-7.38,0-.19-.01-.06-.49-.25-.5-2.06-.14-3.89.15-5.62-.5-1.31-.76-1.66,2.58-2.25,5.62-.37,1.92-2.56,16.91-1.62,17.38,11.7-.77,23.42-1.29,35.12-2v-19.97c-6,.05-12.02.11-18-.03Z"/><path class="e" d="M234.62,190.75c-.79,0-10.55-8.94-12.12-10-.27,0-.73.79-.75.88-.1.53.05,10.25.25,10.75.44,1.12,14.12,15.43,15.88,18.12,6.12-2.67,12.1-5.63,18.12-8.5v-22.37c-3.3,1.62-6.59,3.23-9.88,4.87-1.57.78-10.85,6.24-11.5,6.25Z"/><path class="c" d="M246.38,247c-.24,0-3.12-2.77-3.62-3.12l12-11.88c-1-.75-2-1.5-3-2.25-2.16.53-11.53,11.43-12.38,11.5-.24.02-3.24-2.62-3.62-3.12l11.75-11.62c-1.1-.81-2.14-1.7-3.25-2.5-1.7,1.06-11.53,11.59-12.38,11.5-.24-.02-3.06-2.77-3.62-3.12l12-11.38c-.71-.42-1.54-1.32-2.12-1.25-.89.1-13.01,11.06-13.38,11.88-.19.42-.74,4.35-1,5.5,7.79,6.24,15.44,12.67,23.25,18.88h9v-5.62c-.05.05-.1.1-.15.15-.28.29-.55.56-.8.81-.87.86-1.48,1.41-1.67,1.41-.25,0-3.15-2.97-3.62-3.38,3.15-3.05,4.68-4.53,6.25-6.06v-5.78c-3.67,3.43-8.99,9.46-9.62,9.46Z"/><path class="e" d="M234.62,190.75c.65,0,9.93-5.47,11.5-6.25,3.28-1.64,6.58-3.25,9.88-4.87v-15.63c-8.58,3.66-24.01,12.35-33.5,16.75,1.58,1.06,11.34,10.01,12.12,10Z"/><path class="e" d="M242.75,243.88c.51.36,3.39,3.13,3.62,3.12.64,0,5.96-6.03,9.62-9.46v-4.79c-.2-.15-.71-.34-1.25-.75l-12,11.88Z"/><path class="e" d="M4,42.25c2.68-2.29,1.21.7,1.5,2.25.07.36-.08,1,0,1.12.34.5,3.27.73,4,.88-2.15-3.61,1.96.13,2.75.5.59.27,1.44.38,2.38.4.63,0,1.3-.02,1.95-.08.98-.08,1.93-.21,2.67-.32.87-.13,7.59-1.76,7.75-2.12.45-4.21-3.02-5.12-3.25-5.38-1.16,1.43-3.42-.45-1.25-1.5-1.12-1.25-2.06-2.79-3.25-4-1.89-1.93-4.28-4.79-6.75-4.5.03.07.25,1.33.25,1.5.06,3.04-3.31-.14-1-.5-.57-.73-1.16-2.44-1.75-3.25-2.76-3.81-5.27-7.01-10-5.25v2.2c.78.54.81,1.72,0,2.38v2.55l.5.5c-.16.23-.33.38-.5.47v6.54c.69.07,1.47.21,2,.74.69.69,1.53,3.83,2,4.88ZM20.12,42c3.13.09,1.16,4.2-.88,1.62l.88-1.62ZM15.62,43.75l1.12.88c-.04,2.64-3.06.74-1.12-.88ZM15.62,33.25c4.25.4-.81,5.08-.88.88l.88-.88ZM14.88,39.25c2.33-.12.93,3.6-.38,1.12l.38-1.12ZM11.12,37.75c3.71-.33,1.53,5.02-.62,1.38l.62-1.38ZM8.62,30.5c1.99-.33,2.47,1.34-.75,1.25-.88-.58.08-1.14.75-1.25ZM5.88,33.5l.88.62c.84,2.67-6.98.76-.88-.62ZM3.12,22.75c5.01.41,3.02,4.57-.62,1.38l.62-1.38ZM2.38,26.5c2.86.28.59,3.51-.62,1.12l.62-1.12ZM4.38,30c2.77-1.39-.8-3.36,2.25-5,3.87,7.33-10.07,3.69-3.38,10.12l-.62.12c-4.56-4.92,1.39-5.07,1.75-5.25Z"/><path class="e" d="M2.75,115c.07.04.54-.14,1.62.5.61.36,2.56,1.69,2.88,2.25.19-.63,10.62-5.23,4.75-9.75-1.57-1.21-1.8,1.15-2.38-4-6.1.63-3.09-1.47-4.12-3.62-.91-1.9-4.38-.11-5.5-.38v13.18c.42.29.84.57,1.25.83.53.33.99.68,1.5,1Z"/><path class="e" d="M5,152.63c.69-.97.84-5.14,1-6.62-1.51-5.93-.7-12.27-1.25-18.38-.38-4.23-1.43-8.42-2-12.62-.51-.32-.97-.67-1.5-1,.2,1.64.35,3.29.47,4.93.24,3.29.33,6.59.26,9.88-.05,2.47-.18,4.93-.39,7.39-.14,1.64-.32,3.27-.54,4.91s-.47,3.26-.76,4.88c-.09.52-.2,1.04-.3,1.56v5.7c1.56.1,3.91.9,5-.62Z"/><path class="e" d="M203,16.5c0,.08-.01.17,0,.25l4.12,4.5c3.42-9.98,11.72-11.27,19.38-16.88-.17-1.84-.98-3.15-2.03-4.38h-7.19c-4.84,2.16-11.19,4.84-11.66,5.25-.46.4-2.65,10.67-2.62,11.25Z"/><path class="e" d="M203,16.5c-.03-.58,2.17-10.85,2.62-11.25.46-.41,6.81-3.09,11.66-5.25h-13.41c-.19.06-.52.04-.87.01-.08,0-.15,0-.23-.01h-.77c-.98,4.02-1.1,8.61-2.5,12.25,1.13,1.45,2.12,3.01,3.5,4.25Z"/><path class="e" d="M207.12,21.25l-4.12-4.5c.07.38,4.49,5.96,4.88,6,1.16.13,17.95-9.88,20.5-11,.19-3.45-1.29-8.76-3.38-11.75h-.53c1.05,1.23,1.86,2.53,2.03,4.38-7.65,5.6-15.95,6.89-19.38,16.88Z"/><path class="e" d="M48.12.5c-6.54-1.59-5.56,7.72,2.5,10.75,3.06.18,6.2-8.46,4.12-11.25h-4.75c-.36.33-.5,1.45-.62,1.5-.07.03-.72-.87-1.25-1Z"/><path class="e" d="M114.38,239c-7.76-3.21-13.04-.75-13.75-.75-.42,0-3.7-1.38-4.75-1.5-12.01-1.32-12.41,9.77-12.88,10.62-1.07,1.96-2.83.16-2.5,5.38.01.17-.02.34,0,.5,3.61.59,3.62,4.46,5.88,0-.2,1.83.35,1.98.38,2.75h6.72c-.06-.09-.13-.2-.22-.38l2.5-8.62c-.55-.04-1.52-.07-2,0-.58.09-1.34.67-2,.75-1.95.23-3.98.38-5-1.75.09-1.47,1-2.36,2-3.25,4.12-3.65,3.03-.46,3.25,1.5.07.62-.39.56-.12.75,8.09,1.28,4.08.19,4.12-2.62,3.23-4.26,4.57-.72,4.88-.62.57.18,3.72-1.84,3.12,0-.13,1.01.17,2.8,0,3.5l2.75,1.12c-1.03,2.28-2.61.2-4-.38-.4-.17-.68-.22-.75-.25-1.67-.69-1.51-1.1-2,0,.7.89.89,2.46,1.25,3.5.26.75.9,1.42,1,2.25.13,1.6-3.38-1.56-3.62-1.5-.33.09-3.08,4.81-3.38,5.12-.66.71-.72.1-.75.12-.28.2-.45.55-.6.75h1.9c.76-.64,1.89-1.08,3.07-2,.93.59,1.49,1.28,1.77,2h18.86c-.98-7.9,1.35-14.32-5.12-17ZM82.62,250h1.75c2.25,3.04-4.26,3.37-1.75,0ZM87.88,249h1.5c2.56,3.92-4.83,3.74-1.5,0ZM104,250.63l1.12-1.62c5.96.63-1.19,4.24-1.12,1.62ZM108.12,245.5h1.75c4.29,4.94-7.02,4.06-1.75,0Z"/><path class="e" d="M76.25,256h1.5c.23-.81.9-1.39,1-2.25-.62.49-2.09,1.75-2.5,2.25Z"/><path class="e" d="M216.88,246.75l-.38-.75c-1.08-1.52-10.27-13.15-11.12-13.25-.86-.1-14.75,7.59-15.12,8.38-.46.96-1.19,12.72-.75,14.88h12.5c.14-.57-.1-1.62.38-2.25.49-.64,12.75-5.99,14.5-7Z"/><path class="c" d="M164.75,250.88c.28-1.12-1.5-5.62-2.25-6.62-1.9.76-14.05,7.64-14.88,7.5-1.06-.18-12.71-13.99-14.62-15.75-.7.69-2.42,6.48-2.25,7.38.17.86,10.51,11.12,12,12.62h14.25c.99-.64,7.64-4.67,7.75-5.12Z"/><path class="e" d="M1.73,248.58c.17-.18.34-.35.51-.53.34-.36.69-.72,1.05-1.09.35-.37.71-.73,1.06-1.1.18-.18.35-.36.53-.54.7-.71,1.4-1.4,2.04-2.02.49-.46.95-.88,1.37-1.24.56-.48,1.06-.86,1.45-1.09.2-.11.37-.19.51-.22-1.41-1.1-2.84-2.16-4.25-3.25-2.98,2.89-4.51,4.37-6,5.82v7.06c.24-.25.49-.51.75-.78.31-.33.64-.67.98-1.02Z"/><path class="e" d="M13.5,243.25l-12.5,11.88c.14.15.48.49.88.88h4.85c3.53-3.15,9.46-8.99,10.77-9.75-.77-.91-2.9-2.1-4-3Z"/><path class="c" d="M50.62,189.5c-5.25,3.36-32.8,19.99-34.5,21.5-1.26,1.12-3.34,5.88-3.38,7.38-.03,1.19.93,2.3,1.5,3.25,3.67,6.16,18.56,24.86,23.62,33.38l38.12-22.88c-.33-2.71.25-6.21-.75-8.5-.84-1.93-21.08-29.05-24.62-34.12ZM49.62,193.5c.77.07,7.69,11.25,8.88,12.62-1.47.85-11.67,7.81-12.38,7.62-.73-.19-7.17-11.13-8.62-12.38,1.61-.74,11.41-7.95,12.12-7.88ZM20.5,212.13l12.62-8.12,8.88,12.38c-1.69.69-12.13,8.28-12.88,8.12-.74-.16-7.06-11.24-8.62-12.38ZM41.38,241.5l-8.88-12.88c1.71-.72,11.88-7.91,12.62-7.88.78.04,7.78,11.45,8.88,12.88l-12.62,7.88ZM58.12,231l-8.38-13.12c1.78-.48,11.41-7.69,12.12-7.62.79.08,7.46,11.73,9.12,12.88l-12.88,7.88Z"/><path class="e" d="M89.25,128c.57.54.76.77,1.5,1.25.77.5,5.14,2.44,5,3.38-.06.4-5.19,2.77-6,3.12-3.02,1.34-10.46,4.13-13.5,2.75,0,.17.07.43-.12.5-.76.27-13.02,2.44-15.75,3-2.17.45-5.28,1.22-7,2l-17.88,2c-.17.28-1.14.35-1.5,1.88-.39,1.65-.81,20.23-.5,21.25.03.12.5.83.62.88l65.75-15.5c.87-.33.66-1.14.62-2.38-.03-1.05-2.28-17.92-2.75-18.75-.76-1.34-7.59-5.26-9.25-6.38-.11.6.45.71.75,1Z"/><path class="c" d="M208.5,204.63c-.47-2.27-28.07-29.62-31.88-33.62-4.02,2.95-29.01,19.4-30.25,20.75-1.59,1.73-1.5,5.37-2.38,7.62l31.88,34.38,32.88-21.88c-.72-2.03.13-5.4-.25-7.25ZM176.38,174.75c.82.07,9.51,10.89,11.38,11.88-1.32,1-10.44,7.84-11.12,7.88-.81.04-9.6-10.72-11.12-11.88,1.45-.75,10.21-7.93,10.88-7.88ZM151.25,192.63c1.48-.79,10.2-7.87,10.88-7.88.81,0,9.61,10.75,10.88,12.12-1.41.79-10.45,7.7-11.12,7.62-.79-.08-9.18-10.64-10.62-11.88ZM177.12,220.5c-.81-.05-9.53-10.72-11.12-11.88,1.27-1,10.44-7.9,11.12-7.88.82.03,9.45,11.02,11.12,12.12-1.5.71-10.45,7.66-11.12,7.62ZM191.88,210.25c-.86.08-9.97-10.47-11.38-11.88,1.54-.73,10.21-7.62,10.88-7.62.84-.01,10.12,10.84,11.62,12.12-1.52.83-10.46,7.31-11.12,7.38Z"/><path class="c" d="M137.12,75.5c-7.42,1.79-33.55,6.11-37.62,7.5l-.75.88,12.62,40.62,37-8.75.62,6.5.25-6.38-12.12-40.38ZM134.12,79.25c.58-.13.64.22.88.62.39.67,2.38,9.68,3.5,12l-12.88,3.38-3.88-13.12,12.38-2.88ZM104,85.88c1.71-.45,11.27-2.91,11.88-2.88.3.02.64-.1.88.12.48.46,2.76,11.21,3.75,12.75l-12.88,3.38-3.62-13.38ZM113.88,119l-3.88-13.62c2.11-.45,10.73-2.88,11.62-2.88.34,0,.89-.1,1.12.12.49.47,2.83,11.44,3.75,13l-12.62,3.38ZM131.62,114.75l-3.88-13.12c1.62-.44,11.5-3.18,12.12-3.12.38.04.57-.07.88.38.37.53,2.75,10.76,3.5,12.5l-12.62,3.38Z"/><path class="e" d="M206.12,80.75c-.77.23-6.29.53-8.5,1-13.82,2.91-7.49,7.8-6.62,18.25,2.35.86,4.61,1.94,6.88,3,1.36.64,1.64,1.47,1.75,1.5.9.24,2.34-.79,2.75-.5.29.2-.04.82.25,1,6.52,4,8.31,1.08,8.75,1.25.16.06.36,1.1.75,1.25,1.45.56,13.45.78,16.62,1.5,3.77-5.26,9.43-6.62,8-13.38-1.08-5.12-6.4-8.66-9.75-12.25-.85-.92-1.45-2.61-2.25-3.5-7.7-8.66-17.2.45-18.62.88ZM203.75,93.5c-2.11,1.98-3.29-.64-5.25-2-.52.11-1.09.45-1.25.12.15-.77.45-1.42.75-2.12-1.15-.91-1.75-2.05-2.5-3.25-.59-.96-2.87-1.18,3.5-2.25.93-2.59,3.56-2.8,4.75-.38l-.25,1.38c-.29.11-.56.74-.5,1,.05.23-.05.52,0,.75.02.09,1.03,0,1,1.38-.03,1.51-3.18,2.81-2.5-.38-.94,1.43-.25,2.09-2,3.25,1.32.69,2.67,1.33,4,2,1.33-1.62,3.39,1.92.25.5ZM215,96.88c-4.24,2.43-8.46,2.16-4.12-2.38,1.43-.42,4.52,1.57,4.12,2.38ZM214.5,88.25c-.2-.06-2.16,1.92-2-2,0-.03-.34.09-.25-.5-.95.37-1.88.03-2.75.25-.54.14-2.88,2.65-3.25-.38.75-.19,1.46-.45,2.25-.38.62-1.11,1.19-.95,1.25-1,.01-.01-.04-.06.25-.25.46-.31.82-1.68,2.5-.5,2.69-.85,3.84-.33,1.75,1.25,1.21,2.03,4.66-2.04,4.25,3.62-2.07,2.39-2.69.28-4-.12ZM219.88,98l1.5-4c1.99-.72,4.42,4.07-1.5,4ZM226.5,95.38l1.12-.62c5.11,1.96-1.4,6.17-1.12.62ZM222.12,82.75c2.98-.02,2.6,1.6,4.12,3.62-.03.76-.67.47-1.25.88-.06.04-.47.48-.5.5,1.52.49,2.69,1.86,2.75,3.5.05,1.36-.22,2.19-2,2.25-.76.02-1.59-.4-2.25-.75-.51-.27-.84-.6-1.25-1l-4.75,1.12c-.17-.35,2.66-1.75,3.25-2.88.11-.21.95-3.56,1.25-4.5.14-.45.49-2.64.62-2.75ZM218.5,81.5c1.71.06,4.41.98,2.12,2.75-2.49.35-2.47-1.85-2.62-2-.9-.84-3.38-1.88-2.5-3.62,1.82-1.41,3.12,1.48,3,2.88Z"/><path class="c" d="M65.12,56.75c.79.57,4.01,3.1,4.75,3,.9-.12,14.17-9.81,14.75-10.5.98-1.16.32-4.97-.12-6.62-.64-2.35-.57-1.79-1.75-3.12-1.72,1.24-12.23,12.25-13.12,12.25-.23,0-2.92-2.75-3.38-3.12l12.5-12.38c-.96-.78-2.03-1.48-3-2.25-3.11,1.44-12.24,12.09-13.12,12-.24-.02-3.06-2.77-3.62-3.12l12.5-12.12c-1.11-.87-2.4-1.64-3.5-2.5l-12.38,12c-.69.08-2.95-2.53-3.62-3.12l12.25-11.88c-1.09-.83-2.17-1.67-3.25-2.5-2.22.79-11.53,11.62-12.38,11.75-.45.07-3.91-2.74-3.88-3.12l12.25-11.88c-1.08-.83-2.16-1.68-3.25-2.5-2.66,1.28-11.53,11.65-12.38,11.75-.38.05-3.92-2.9-3.88-3.38l12.25-11.38c-.47-.31-1.5-1.58-2.12-1.5-.88.11-13.01,10.76-13.5,11.5-.44.67-1.75,5.5-1.62,6.12,9.89,7.87,22.82,19.52,32.62,26.62Z"/><path class="c" d="M191.25,130.13c.21-1.23-.73-4.69-1.62-5.62-.61-.64-14.37-9.04-15.25-9-.68.03-1.03,1.17-1.62,1.75l14.12,8.75c1.16.28-2.01,3.73-2.25,3.75-.87.07-12.77-8.37-14.88-9-2.34,2.63-2.36,3.1-2.5,3.25,4.81,3.15,9.9,6,14.5,9.38-.62.42-2.63,3.33-2.88,3.38-.86.17-13.03-8.33-15.12-9-.81.93-1.69,1.81-2.5,2.75l14.12,9.25c1.14.16-2.24,3.97-2.5,4-.87.1-12.89-8.44-14.88-9.25-.85,1.01-1.88,1.96-2.75,3l14.75,9.62c.06.23-2.38,3.15-2.75,3.62-.99,1.27-2.2,2.32-3.25,3.5-.41.46-2.5,3.71-2.88,3.75-.89.09-13.2-8.63-15.38-9.25-.58,1.08-2.26,7.3-2,8.12.3.95,15.26,8.79,17.12,10.12,3.24-4.75,29.97-34.52,30.38-36.88Z"/><path class="e" d="M165.25,38.88l-3.5.88c.09,2.6.25,2.61.25,2.75,3.3-3.96,4.07.99,7.75,5.12.04.8-6.65,4.37-7.75,4.88.02,2.16-.26,4.4.5,6.5,1.35-9.52,7.76-2.75,11,5.38l-11-1.38c.17,1.21.15,1.11.5,2.25,2.73-.2,11.1,2.65,13.12,2.25.48-.09,6.46-5.67,7.38-6.5-13.51.52-6.05-.99-1.25-9,.2-.33.33-.59.25-1-2.33-2.09-3.96-3.73-2.5-7,1.17-2.63,5.79-4.21,7-.75.31.89,1.88,11.16-.75,10.25-.01,1.04-1.33.41-2.25,0-.31,1.62.04,4.77,1.5,5.75,8.8-8.13,16.01-17.45,27.25-23.25-.46-.67-1.22-1.95-2-2,.6.93,1.53,1.1.62,2l-7.75,3c-.42-.26,2.31-4.45,2.12-9.5-1.3-.73-2.8-1.82-2.75-.5.13.25.21.71.25,1,1.34,9.12-9.81,8.02-11.75,0-.05-.21-.39-.53-.25-1.5-1.24.22-3.95.27-5.38.5-1.17.19-1.78.73-1.88.75l5.75,6.38c-1.06.53-8.55,4.9-8.75,4l1.75-10.12c-.08.01-.53-.42-1.62-.25-6.41,1-12.81,1.97-19.25,2.75-.79.52-.36,3.3-.38,4.25,2.85-1.41,2.46.08,3.75,2.12ZM192.62,36.5c8.43-1.05,10.04,8.11,2.75,11.25-3.16-1.82-9.98-10.35-2.75-11.25ZM173,36.25c.91-2.68,2.68-4.94,5.25-2.5,1.09,1.04,1.35,2.13,1.5,3.62.51,5.08-.84,4.65-1.25,5.12-5.53,6.35-7.42-.57-5.5-6.25ZM174.12,47.25c6.08-.46,7.93,5.43.75,10-2.68.49-8.84-6.33-5-8.75.19-.12,4.02-1.23,4.25-1.25ZM167.38,33.75c.45-.08,2.27.14,2.38.62-2.6,3.58-5.5-.08-2.38-.62Z"/><path class="f" d="M92.12,79c2.68-1.37,20.58-10.46,21.38-11.38,2.64-3.05-3.46-8.16-2-10.12-1.17-2.53-2.56-4.98-3.75-7.5-4.2,1.49-21.29,6.18-23.62,8-4.11,3.21,5.4,17.64,8,21Z"/><path class="c" d="M185.5,59.25c-.66.61-1.35,1.16-2,1.75-.91.83-6.89,6.41-7.38,6.5-2.02.4-10.4-2.45-13.12-2.25.25.8,3.51,7.52,3.88,7.75.6.37,11.64,3.43,13.5,4.25l34.88-34.38c.55-1.32-1.58-5.54-2.5-6.88-11.24,5.8-18.45,15.12-27.25,23.25Z"/><path class="c" d="M111.38,124.5l-12.62-40.62.75-.88c-2.74.94-4.8,5.03-4.5,7.88.23,2.18,11.38,35.52,12.88,41.88,5.66-1.85,38.39-8.84,40.25-9.75.66-.32,1-.22.88-.75l-.62-6.5-37,8.75Z"/><path class="c" d="M108.3,9.04c-.48.48-.7,1-.82,1.28-.05.11-.08.18-.11.19-.54.25-1.71-.5-2.25-.25-.11.05-.45,1.09-.95,1.75-.17.22-.35.4-.55.5-1.3.6-2.95-.05-4,.25-.07.02-.26.23-.57.53-.2.2-.46.44-.76.68-.45.37-1.01.75-1.67,1.03-2.78,1.2-6.9,2.25-8.75,3-.14.06-.13.6-.5.75-.48.2-1.15.33-1.79.53-.64.2-1.25.48-1.58.97,3.78,3.38,8.49,9.1,9.12,9.25,1.29.31,15.16-3.31,17-4.25,1.43-.73,12.71-9.56,12.88-10.38.14-.69-2.41-7.66-3.25-13.62-3.29,1.48-8.06,5.15-11.12,7.5-.12.09-.23.19-.32.28Z"/><path class="f" d="M121.88,144.25c-4.76,7.57-8.89,15.49-12.88,23.5,1.33.65,1.29-.67,2.62,3,7.46-2.88,5.7,4.39,5.88,4.88.31.87,2.79-.27,4,1.12,6.53-6.07,12.69-12.52,17.75-19.88l-.38-1.12-17-11.5Z"/><path class="c" d="M211.38,106.25c-.44-.17-2.23,2.75-8.75-1.25-.29-.18.04-.8-.25-1-.41-.29-1.85.74-2.75.5-.11-.03-.39-.86-1.75-1.5-2.26-1.06-4.53-2.14-6.88-3,.2,2.4-.27,12.95,0,13.62.33.84,12.61,7.35,16.12,7.88,2.42.36,14.42-.27,15.25-.75.76-.44,5.15-10.04,6.38-11.75-3.17-.72-15.18-.94-16.62-1.5-.39-.15-.59-1.19-.75-1.25Z"/><path class="f" d="M5.5,100.38c1.03,2.16-1.97,4.25,4.12,3.62.58,5.15.8,2.79,2.38,4,5.94-5.88,11.85-11.89,16.5-18.88.47-1.48-4.02-4.02-6.62-6.38-2.74-2.48-7.44-7.92-8.62-6.62-1.11.85-11.86,19.69-13.25,22.38v1.49c1.12.27,4.59-1.52,5.5.38Z"/><path class="f" d="M124.25,52.5c1.13,1.48,2.64,5.01,3,6.75.49.66.5,1.26,1.38,1.25,1.12-.01,19.88-7.74,20.62-8.88.41-.63.57-1.5.5-2.25-.08-.88-5.79-15.71-7.62-15.62l-22,11,3.62,6.75c.08.16.16.34.25.5.09.16.16.34.25.5Z"/><path class="c" d="M48.62,98c-2.45-4.53-6.21-8.67-8.12-13.25-.79.84-2.41,7.02-2.25,8.12.14.94,8.38,14.2,9.62,16.38l33.75-13.75c.26-.43.11-8.27-.12-9-.64.05-.58-.56-1.38-.5-1.68.13-27.07,11.1-31.5,12Z"/><path class="c" d="M49.88,95.75c9.45-4.02,19.16-7.43,28.62-11.38.08-.18-.17-.84-.25-1.12-.16-.55-7.04-8.28-7.5-8.62-.58-.44-.43-.75-1.62-.62-1.43.15-25.18,9.14-26.88,10,1.61,4.02,5.05,8.03,7.62,11.75Z"/><path class="f" d="M189.25,157.13c.77,2.61,2.11,21.43,3.12,21.88.71.31,14.79-.19,15.5-.5.6-.27,1.32-7.82,1.38-9-23.75.56-22.71-.91.25-.75.05-2.4-1.3-12.24-1.88-12.5-.84-.37-15.9.9-18.38.88Z"/><path class="e" d="M66.12,116s-.47-.52-.5-.5c-.27.19-.83,1.09-1.88,2,1.41,3.36-1.18,1.72-1.38,1.75-.71.12-3.92,4-.62,7.75,1.04,1.18,2.37,1.43,2.5,1.5-.35-2.55,2.48.21.75.25,2.53,1.22,3.18,1.13,4.75,1.75l-2.12-7.25,2.38,7.25s.48.23.5.25c1.44-1.8,2.33-.62.75.5.27.35,3.37,6.51,5,7.25,3.04,1.38,10.48-1.41,13.5-2.75,1.39-2.32,2.79-.27,2-4.38-.04-.21-.49-.34-.5-.38.01,1.52-.66,4.82-2.5,3.12,1.16-2.68.02-3.63.5-6.12-.3-.29-.86-.4-.75-1-3.02-2.02-5.71-3.31-6-3.5l-4.38.75c.48-5.18-4.6-5.12-3.62-7.25-1.66-1.09-4.28-2.96-6.25-2.5-1.75.41-1.37,1.05-2.12,1.5ZM60.75,123.88l.38-2.38c2.64.21,2.15,4.64-.38,2.38ZM76,134.88l1.12-.62c3.63,1.62-1.18,3.88-1.12.62ZM76.5,129.88l.88-.62c3.72,1.21-.84,4.23-.88.62ZM80.75,135.63l.88-.62c3.52.9-.86,3.76-.88.62ZM85.88,132.5c3.6,1.51-1.06,4.71-1.12.88l1.12-.88ZM75.88,125.25c.26.16.31.19.51.3,0-.12.4-.29,1.49-.55,4.91-1.18,7.69,2.65,4.5,7-4.1-.39-.01-2.43.12-2.62.95-1.35-.91-3.4-2.12-3.62-.16-.03-3.29.12-3.89-.11-2.87,2.4-4.69,1.47-.61-.39ZM73.12,123.25c.25-.1.63.34.62.38-.04.41-1.01-.23-.62-.38ZM72.25,122.5l.38.5-.38-.5-6.25-4.88c.19-.63,5.89,4.31,6.25,4.88Z"/><path class="c" d="M251.75,110.25c-4.36,14.41-11.73,23.91-23.75,32.75,4.25,3.3,10.62,6.15,15.75,7.75,1.3-13.71,8.09-26.1,9-39.75-.34-.21-.65-.53-1-.75Z"/><path class="c" d="M148.12,249.75c.72.06,10.91-6.52,12.88-6.75-1.49-1.6-12.67-13.39-13.62-13.5-.67-.08-11.1,4.79-12.38,5.5,1.15,1.81,12.14,14.67,13.12,14.75Z"/><path class="e" d="M117.5,175.63c-.18-.49,1.59-7.76-5.88-4.88-1.34-3.67-1.29-2.35-2.62-3-.29-.14-1.15-.21-1.25-.38-.13-.2.57-2.87-2.88-2.88-7.46,6.6-2.81,5.71-2.38,13.25.69.45,1.31,1.06,2,1.5.4.26.84.5,1.25.75.07.04.79.28,1.5.75.95.63,1.6.96,2.5,1.75.19.17,1,.29,1.25,1,.97-.57,2.33,1.72,4,1.75,3.35.05,9.6-4.94,6.5-8.5-1.21-1.4-3.69-.25-4-1.12Z"/><path class="e" d="M251.75,110.25c-.61-.39-1.29-.63-1.75-1.25-.26.58-5.11,4.31-9,8.88-6,7.04-10.52,15.25-15.5,23,.03.65,1.95,1.7,2.5,2.12,12.02-8.84,19.39-18.34,23.75-32.75Z"/><path class="c" d="M104.5,179.25c-1.95,2.68-2.67,6-4.25,8.88-4.81,8.72-12.27,14.73-20.25,20.38,1.45,1.38,2.86,2.17,4.5,3.25-.88-.57,5.07-6.7,6.75-8.38,1.75-1.74,3.95-4.54,5.12-3.88.51.77-9.21,11.83-10.38,13.25,2.49,1.5,4.8,2.67,7.5,3.75,2.97-12.58,9.74-23.83,12.25-36.5-.41-.25-.85-.49-1.25-.75Z"/><path class="e" d="M100.25,188.13c1.58-2.87,2.3-6.2,4.25-8.88-.69-.44-1.31-1.05-2-1.5-10.14,7.59-17.48,18.16-24.75,28.38-.04.65,1.75,1.9,2.25,2.38,7.98-5.64,15.44-11.66,20.25-20.38Z"/><path class="e" d="M60.38,142c2.73-.56,14.99-2.73,15.75-3,.2-.07.12-.33.12-.5-1.63-.74-4.73-6.9-5-7.25-.03-.04-.56-.37-.75-.5-.02-.02-.47-.24-.5-.25-.07-.03-.18.03-.25,0-1.57-.62-2.22-.53-4.75-1.75-.07-.03-.24.03-.75-.25-.13-.07-1.46-.32-2.5-1.5-1.72-.08-.77,2.19-1,3.5,1.68.19,2.91.09,2.75,2.38-4.8,5.11-5.68,9.87-13.25,7.12-1.04.39-2.28,2.07-3,2.5-1.58.94-7.15.53-9.5.25-.79,1.11-1.54,2.07-2.25,3.25l17.88-2c1.72-.78,4.83-1.55,7-2Z"/><path class="c" d="M249,152.25c1.77.37,3.97.83,5.75,1,.47-1.89.88-3.79,1.25-5.7v-34.38c-.59-.4-1.18-.8-1.75-1.17.74,13.67-2.44,26.99-5.25,40.25Z"/><path class="e" d="M254.25,112c-.51-.33-.97-.67-1.5-1-.91,13.65-7.7,26.04-9,39.75,1.74.54,3.46,1.12,5.25,1.5,2.81-13.26,5.99-26.58,5.25-40.25Z"/><path class="c" d="M107.25,180.75c-.83,12.94-4.73,25.33-9,37.5,1.86.54,3.59.92,5.5,1.25,4.23-11.9,6.06-24.4,6-37-.9-.79-1.55-1.12-2.5-1.75Z"/><path class="e" d="M105.75,180c-2.51,12.67-9.28,23.92-12.25,36.5,1.61.65,3.07,1.26,4.75,1.75,4.27-12.17,8.17-24.56,9-37.5-.71-.47-1.43-.71-1.5-.75Z"/><path class="e" d="M254.75,36.5c-1.39-.39-4.92-1.08-5.12-1.25-.23-.19-2.84-4.83-2.88-5.12-.24-2.34,2.76-2.05,3.25-2.75.36-.51-.17-1.06,0-1.38-.19.05-.34-.27-.38-.25-.75.33-11.93,8.65-13.25,9.75-.08.07-.49.92-.88,1.25,1.99-.77,4.35-2.52,6.5-2.75,5.75-3.23,2.99-2.95,7,.88-1.84-.75-1.25-.09-1.5-.12l4.5,4.38c-.04.65-9.05,6.35-9.62,6.38-1.59.06-7.66-5.72-7.88-7.75-.03.03-.04-.12-.75.5,6.62,9.08,9.05,6.93,9.5,7.38,2.23,2.18-4.97.98-5.25,1.88,5.98.14,12,.09,18,.03v-6.67c-.56-.99-1.23-2.18-2.25-3.98l1-.38Z"/><path class="c" d="M112,191.63c-.03-.77-.87-7.74-1-8.12-.25-.71-1.06-.83-1.25-1,.06,12.6-1.77,25.1-6,37,1.6.27,4.59,1.59,5.75.12.88-2.73,1.21-5.58,1.75-8.38-1.44-5.73,1.07-11.72.75-19.62Z"/><path class="e" d="M242.38,45.5c.58-.02,9.59-5.73,9.62-6.38l-4.5-4.38c-1.96-.29-3.35-.98-5.5-.75-2.15.23-4.51,1.98-6.5,2.75-.29.25-.65.7-1,1,.22,2.03,6.28,7.81,7.88,7.75Z"/><path class="e" d="M158.38,90.75c-.13,0-1.38-1.16-2.25-1.25-5.41-.56-5.11,8.71,4.75,12,5.58-5.03,5.99-14.55.25-13.25-.91.21-2.5,2.49-2.75,2.5Z"/><path class="e" d="M156.38,28.25c5.84-4.19,6.51-14.64.75-13.25-1,.24-2.33,2.47-2.5,2.5-.3.05-3.76-2.54-5.38.12-2.65,4.36,3.9,8.8,7.12,10.62Z"/><path class="e" d="M111.5,57.75l12.5-5.75c-.09-.16-.17-.34-.25-.5-.41-.77-3.99-6.44-4.38-6.5-.63-.09-9.97,4.41-11.62,5,1.19,2.52,2.58,4.97,3.75,7.5.03.07-.03.18,0,.25Z"/><path class="e" d="M124,52l-12.5,5.75c.88,1.93,2.78,5.41,3.25,7.25l12.5-5.5c-.01-.08.02-.17,0-.25-1.35-1.8-2.1-5.06-3-6.75-.09-.16-.16-.34-.25-.5Z"/><path class="e" d="M242.12,21.25c4.41-4.15,5.56-13.32,0-12.25-.93.18-2.52,2.22-2.75,2.25-.07,0-1.17-.75-1.25-.75-7.9-.15-2.65,9.97,4,10.75Z"/><path class="e" d="M135.12,197.75c-1.22.24-2.09,2.43-2.25,2.5-.43.19-1.53-.91-2.25-1-4.7-.61-5.75,6.69,3.5,11,5.57-3.39,6.25-13.51,1-12.5Z"/><path class="c" d="M78.5,84.38c-9.46,3.94-19.18,7.35-28.62,11.38-2.57-3.72-6.01-7.73-7.62-11.75-.09.05-1.01-.04-1.75.75,1.92,4.58,5.68,8.72,8.12,13.25,4.43-.9,29.82-11.87,31.5-12,.79-.06.73.55,1.38.5-.17-.54-2.59-2.67-3.25-3.25.08.29.33.94.25,1.12Z"/><path class="e" d="M75.12,168.75c-1.55.24-2.33,2.47-2.5,2.5-.11.02-.84-.89-2-1-4.87-.45-4.72,6.47,3,10.25,3.66.55,7.76-12.7,1.5-11.75Z"/><path class="e" d="M138.38,130.5c-1.45.17-2.58,2.22-2.75,2.25-.3.05-4.31-2.44-4.88,1.38-.6,4.02,5.71,8.55,7.38,8.12,4.17-3.9,4.91-12.3.25-11.75Z"/><path class="e" d="M50.25,140c-2.28-.83-4.24-2.2-6-3.88-.04-.45,4.76-4.47,5.5-5.12,1.84-1.62,3.48-3.47,5.62-4.75l3.38,4.25c.65.02,1.37-.07,2,0,.23-1.31-.72-3.58,1-3.5-3.3-3.75-.08-7.63.62-7.75.19-.03,2.78,1.61,1.38-1.75-3.73,3.25-3.59,4.22-3.88,4.25-.12.01-.86-1.05-1.38-1.25-5.63,5.36-11.49,10.54-16.5,16.5l5.25,5.5c.72-.43,1.96-2.11,3-2.5Z"/><path class="e" d="M170,147.13l-14.75-9.62c-1.11,1.33-2.16,2.66-3.25,4l15.25,9.25c.37-.47,2.81-3.4,2.75-3.62Z"/><path class="e" d="M164,154.25c-4.8-3.38-10.37-5.92-14.75-9.75-.88,1.13-3.18,3.64-3.5,4.25,2.18.62,14.48,9.34,15.38,9.25.38-.04,2.46-3.29,2.88-3.75Z"/><path class="e" d="M69.62,51.75c.9,0,11.41-11.01,13.12-12.25-1.03-1.16-2.75-2.23-4-3.25l-12.5,12.38c.45.38,3.15,3.12,3.38,3.12Z"/><path class="e" d="M181.75,133.38c-4.6-3.37-9.69-6.23-14.5-9.38-1.1,1.25-2.36,2.44-3.5,3.75,2.09.67,14.26,9.17,15.12,9,.24-.05,2.26-2.96,2.88-3.38Z"/><path class="e" d="M62.62,46c.89.09,10.01-10.56,13.12-12-1.4-1.11-2.85-2.15-4.25-3.25l-12.5,12.12c.57.36,3.39,3.1,3.62,3.12Z"/><path class="e" d="M175.38,139.75l-14.12-9.25c-1.12,1.3-2.15,2.69-3.25,4,1.98.81,14,9.35,14.88,9.25.26-.03,3.64-3.84,2.5-4Z"/><path class="e" d="M41.38,28.75c.85-.1,9.71-10.47,12.38-11.75-1.35-1.02-2.57-2.07-4-3l-12.25,11.38c-.05.47,3.49,3.42,3.88,3.38Z"/><path class="e" d="M48.62,34.5c.84-.13,10.15-10.96,12.38-11.75-1.36-1.04-2.64-2.21-4-3.25l-12.25,11.88c-.04.39,3.43,3.19,3.88,3.12Z"/><path class="e" d="M55.62,40.25l12.38-12c-1.26-.99-2.47-2.02-3.75-3l-12.25,11.88c.67.59,2.94,3.21,3.62,3.12Z"/><path class="e" d="M217.38,138.5c-.91.22-1.86,1.97-2,2-.32.06-1.02-.73-1.25-.75-5.93-.41-4.5,6.68,2.75,9.75,4.64-2.57,5.93-12.3.5-11Z"/><path class="e" d="M231.88,235.5c.84.09,10.68-10.44,12.38-11.5-1.34-.97-2.57-2.14-4-3l-12,11.38c.57.36,3.39,3.1,3.62,3.12Z"/><path class="e" d="M239.38,241.25c.85-.07,10.21-10.97,12.38-11.5-1.43-1.07-2.81-2.19-4.25-3.25l-11.75,11.62c.39.51,3.39,3.14,3.62,3.12Z"/><path class="c" d="M167.25,150.75l-15.25-9.25c-.8.99-1.95,1.97-2.75,3,4.38,3.83,9.95,6.37,14.75,9.75,1.05-1.18,2.26-2.23,3.25-3.5Z"/><path class="e" d="M22.12,127.25c-1.47.24-2.09,2.22-2.25,2.25-.09.02-.64-.87-1.5-1-4.28-.67-5.73,5.12,3,9.75,4.17-2.27,5.73-11.81.75-11Z"/><path class="e" d="M186.88,126l-14.12-8.75c-1.13,1.1-1.97,2.35-3,3.5,2.1.63,14.01,9.07,14.88,9,.24-.02,3.41-3.47,2.25-3.75Z"/><path class="e" d="M162.5,59c-.2,1.43-.2,2.59,0,4l11,1.38c-3.24-8.12-9.65-14.89-11-5.38Z"/><path class="c" d="M147.62,251.75c.82.14,12.98-6.74,14.88-7.5-1.12-1.52-1.43-1.18-1.5-1.25-1.96.23-12.15,6.81-12.88,6.75-.99-.08-11.98-12.94-13.12-14.75-.68.38-1.37.37-2,1,1.91,1.76,13.57,15.57,14.62,15.75Z"/><path class="c" d="M4.38,115.5c-1.09-.64-1.55-.46-1.62-.5.57,4.2,1.62,8.4,2,12.62.55,6.11-.26,12.44,1.25,18.38.83-7.84.84-26.9,1.25-28.25-.31-.56-2.27-1.89-2.88-2.25Z"/><path class="e" d="M50.88,62.5c2.74-2.5,4.54-9.84,0-9.5-3.46,2.88-1.64,1.31-3,1.25-7.61-.35-.3,9.73,3,8.25Z"/><path class="c" d="M191.5,30c1.94,8.02,13.09,9.12,11.75,0-4.11,4.42-3.46,1.32-2-2.5-1-.57-1.31-.75-2.5-.75-.9,4.34-3.48,6.8-7.25,3.25Z"/><path class="e" d="M169.75,47.63c-3.68-4.14-4.45-9.08-7.75-5.12.08,3.33-.04,6.67,0,10,1.1-.51,7.79-4.08,7.75-4.88Z"/><path class="c" d="M111,183.5c.13.39.97,7.35,1,8.12.32,7.91-2.19,13.9-.75,19.62,1.67-8.58,2.77-17.32,3.75-26-1.67-.03-3.03-2.32-4-1.75Z"/><path class="e" d="M189.75,36.13l-5.75-6.38c-.18.03-.28-.34-.88-.25-.21.03-.34.5-.38.5l-1.75,10.12c.2.9,7.69-3.47,8.75-4Z"/><path class="e" d="M243.25,45.63c-.45-.44-2.88,1.7-9.5-7.38-.31.27-.68.46-1,.75,2.13,2.02,4.86,4.4,3.62,7.5-.44.31-8.09-1.64-9.12-2.25-.84.74-1.83,1.34-2.5,2.25,1.73.65,3.56.36,5.62.5.19.01.06.49.25.5,2.43.15,4.93-.06,7.38,0,.28-.9,7.48.31,5.25-1.88Z"/><path class="f" d="M216.5,246l.38.75c-1.75,1.01-14.01,6.36-14.5,7-.48.63-.24,1.68-.38,2.25.22-.03.49-.02.77,0h1.1c.74-.23,12.85-6.74,13.88-7,.63-1.73-1.14-2.85-1.25-3Z"/><path class="e" d="M236.38,46.5c1.24-3.1-1.5-5.48-3.62-7.5-1.88,1.69-3.6,3.58-5.5,5.25,1.04.61,8.69,2.56,9.12,2.25Z"/><path class="e" d="M203.62,39l7.75-3c.9-.9-.03-1.07-.62-2-1.01-1.58-3.33-3.56-5-4.5.18,5.05-2.54,9.24-2.12,9.5Z"/><path class="c" d="M96.38,199.5c-1.18-.67-3.38,2.14-5.12,3.88-1.68,1.67-7.63,7.81-6.75,8.38.53.35.94.66,1.5,1,1.16-1.42,10.89-12.48,10.38-13.25Z"/><path class="e" d="M47.25,142.5l-5.25-5.5c-1.44,1.71-2.94,3.9-4.25,5.75,2.35.28,7.92.69,9.5-.25Z"/><path class="e" d="M23.75,39.5c.23.26,3.7,1.17,3.25,5.38-.16.37-6.88,2-7.75,2.12-2.04.86,1.88.38,3.88.5l7.12-1.5c-.74-2.4-8.44-10.38-10.88-12.5l-.12.5c1.19,1.21,2.13,2.75,3.25,4,.43.48.82,1.02,1.25,1.5Z"/><path class="e" d="M114.88,67c1.51-1.07,12.7-5.57,12.88-6.38.01-.06-.38-.32-.5-1.12l-12.5,5.5c.22.84-.71,1.44.12,2Z"/><path class="e" d="M59.88,121.75c.29-.03.15-1,3.88-4.25,1.04-.91,1.6-1.81,1.88-2,.03-.02.47.52.5.5.75-.45.37-1.09,2.12-1.5-2.39-3.34-6.33,2.75-9.75,6,.52.2,1.25,1.26,1.38,1.25Z"/><path class="c" d="M191.5,30c3.77,3.55,6.35,1.09,7.25-3.25-1.6,0-1.83.66-2.5.75.77,2.69-2.81,2.27-3.75.5-1.32.35-1.18.49-1.25.5-.14.97.2,1.29.25,1.5Z"/><path class="e" d="M78.12,124.25l4.38-.75c-1.68-1.14-3.67-3.29-5.38-4.5-.22-.16-.48.27-.5.25-.13-.09.15-.76-2.12-2.25-.97,2.13,4.11,2.07,3.62,7.25Z"/><path class="f" d="M209.25,169.5c.03-.54.25-.57.25-.75-22.96-.16-24,1.31-.25.75Z"/><path class="c" d="M161.5,36.75c-.02,1.04.22,2.02.25,3l3.5-.88c-1.29-2.04-.9-3.54-3.75-2.12Z"/><path class="c" d="M203.25,30c-.04-.29-.12-.75-.25-1-.84-1.58-1-1.07-1.75-1.5-1.46,3.82-2.11,6.92,2,2.5Z"/><path class="c" d="M196.25,27.5c-.87.11-2.44-.59-2.88-.5-.25.05-.81.98-.88,1,.94,1.77,4.52,2.19,3.75-.5Z"/><path class="c" d="M81,254.75c-.23-.97-.49-1.42-.5-1.5-.02-.16.01-.33,0-.5-.73.05-1.22.58-1.75,1-.1.86-.77,1.44-1,2.25.42-.57,2.39-1.47,3.25-1.25Z"/><path class="e" d="M12.75,31c0-.17-.22-1.43-.25-1.5-.39-.91-1.53-2.25-2.5-2.25.59.81,1.18,2.52,1.75,3.25.24.31.6.52,1,.5Z"/><path class="e" d="M252.75,34.88c-2.69-2.73,7.42-2.8.88-4.62-4.13,2.4-.73,6.55-.88,4.62Z"/><path class="e" d="M254.38,24c-1.52.36-1.77,2.38-.25,3,.85.1,1.47-.09,1.88-.42v-2.38c-.37-.26-.91-.37-1.62-.2Z"/><path class="e" d="M256,30.1v-.97l-.62-.62c-1.3.64-.34,2.11.62,1.59Z"/><path class="e" d="M11.25,47.25c-.44-.5-1.14-.63-1.75-.75-.73-.15-3.66-.37-4-.88-.08-.13.07-.76,0-1.12-.33.03-1.31-1.83-1.5-2.25-.47-1.05-1.31-4.18-2-4.88-.53-.53-1.31-.68-2-.74v4.23c1.09,1.94,1.77,3.13,3.75,6.64,2.53-.02,4.98.14,7.5-.25Z"/><path class="f" d="M9.5,46.5c.61.12,1.31.25,1.75.75.18-.03.37,0,.53,0,.05,0,.11,0,.15,0,.14,0,.25-.02.3-.13.01-.03.02-.08.02-.13-.79-.37-4.9-4.11-2.75-.5Z"/><path class="e" d="M3.25,35.13c-6.69-6.44,7.24-2.8,3.38-10.12-3.05,1.64.52,3.61-2.25,5-.36.18-6.31.33-1.75,5.25l.62-.12Z"/><path class="e" d="M3.12,22.75l-.62,1.38c3.65,3.2,5.64-.97.62-1.38Z"/><path class="e" d="M11.12,37.75l-.62,1.38c2.16,3.64,4.33-1.7.62-1.38Z"/><path class="e" d="M15.62,33.25l-.88.88c.07,4.2,5.12-.47.88-.88Z"/><path class="f" d="M20.12,42l-.88,1.62c2.04,2.58,4-1.54.88-1.62Z"/><path class="e" d="M5.88,33.5c-6.11,1.38,1.71,3.29.88.62l-.88-.62Z"/><path class="e" d="M2.38,26.5l-.62,1.12c1.22,2.38,3.49-.84.62-1.12Z"/><path class="f" d="M16.75,44.63l-1.12-.88c-1.94,1.61,1.08,3.51,1.12.88Z"/><path class="f" d="M4,42.25c.19.42,1.17,2.28,1.5,2.25-.29-1.55,1.18-4.54-1.5-2.25Z"/><path class="f" d="M23.75,39.5c-.43-.48-.82-1.02-1.25-1.5-2.17,1.05.09,2.93,1.25,1.5Z"/><path class="e" d="M7.88,31.75c3.22.09,2.74-1.58.75-1.25-.67.11-1.63.67-.75,1.25Z"/><path class="f" d="M11.75,30.5c-2.31.36,1.06,3.54,1,.5-.4.02-.76-.19-1-.5Z"/><path class="e" d="M14.88,39.25l-.38,1.12c1.3,2.48,2.71-1.24.38-1.12Z"/><path class="f" d="M95,3.63c.36,1.72,1.45,2.18,2.58,1.89.23-.06.46-.15.68-.26.57-.29,1.11-.74,1.56-1.29.88-1.09,1.36-2.57.82-3.95h-4.84c-.83.69-1.23,1.61-.8,3.62Z"/><path class="e" d="M84.25,2.5c.07.03.18-.03.25,0,1.11.49.99.88,1.5,1.25.72.53,1.15,1.24,1.75,1.75.04.04.24-.11,1,.5-.03-.19-.22-.96-.25-1-.61-.69-1.46-.46-2.75-3-.06-.12-1.75-1.23-.25-2h-4.18c1.04,3.72,1.66,1.97,2.93,2.5Z"/><path class="e" d="M86.75,0h-.5c.1.04.33-.02.5,0Z"/><path class="c" d="M89.5,7c.59-.12,3.92-.68,4-.88-.41-1.29-.45-2.29-.48-2.96-.01-.29-.03-.52-.07-.69-.08-.33-.28-.42-.83-.23l-3.62,2.75s.22.81.25,1c.26.21.81.64.75,1Z"/><path class="c" d="M77.5.75c.06.59.28.93.57,1.15.12.09.24.16.38.22.07.03.14.06.21.09.14.06.29.11.43.16.43.17.87.38,1.17.88l4-.75c-1.27-.53-1.89,1.22-2.93-2.5h-3.57c-.08.11.2.75-.25.75Z"/><path class="c" d="M80,6.63c-.3-.29-.57-.59-.84-.87-.81-.85-1.61-1.53-3.04-1.26-4.74,5.05,3.88,3.79,3.88,2.12Z"/><path class="c" d="M84.5,2.5c.1.74-.26,1.49-.75,2,.22.16.17.55,0,1.06-.16.5-.44,1.11-.66,1.7-.15.39-.28.78-.35,1.12.22.43,2.6-.78,3-.88l.25-3.75c-.51-.37-.39-.76-1.5-1.25Z"/><path class="f" d="M84.25,2.5l-4,.75c.14.23.63,4.25,3.5,1.25.49-.51.85-1.26.75-2-.07-.03-.18.03-.25,0Z"/><path class="c" d="M86,3.75l-.25,3.75c1.09-.25,1.66-.48,1.75-.5l.25-1.5c-.6-.51-1.03-1.22-1.75-1.75Z"/><path class="f" d="M85.75,2c1.64-.44,1.02-1.53,1-2-.17-.02-.4.04-.5,0h-.75c-1.5.77.19,1.88.25,2Z"/><path class="c" d="M88.75,6c-.76-.61-.96-.46-1-.5l-.25,1.5c.57-.11,1.43.11,2,0,.06-.36-.49-.79-.75-1Z"/><path class="c" d="M77.5.75c.45,0,.17-.64.25-.75,0,.01-.05,0-.11.02-.09.04-.2.17-.14.73Z"/><path class="c" d="M97,246.88c.33,3.08-1.88,5.45-2.5,8.38.03-.02.09.59.75-.12.29-.31,3.05-5.04,3.38-5.12.24-.06,3.76,3.1,3.62,1.5-1.03.04-2.13-1.18-2.25-1.25-.72-.43-2.39-1.11-2.5-1.38-.5-1.2.98-5.06,2.5-3.12.49-1.1.33-.69,2,0-2.88-1.8-.81-4.29,2-4,.59-1.84-2.55.18-3.12,0-.3-.1-1.64-3.64-4.88.62-.05,2.82,3.97,3.91-4.12,2.62-.26-.19.2-.13.12-.75-.33.12-.67.39-1,.5.48.51,1.17.65,1.75,1,.65.39,1.66.43,1,1.25.48-.07,1.45-.04,2,0,.78.05,1-.45,1.25-.12ZM97,241.88l1.12-.88c6.36.29-2.6,7.59-1.12.88Z"/><path class="c" d="M97.5,248.88c.11.27,1.78.94,2.5,1.38l1.25-1c-.36-1.04-.55-2.61-1.25-3.5-1.52-1.93-3,1.92-2.5,3.12Z"/><path class="e" d="M91,244.75c-.13.04-.37-.04-.5,0-1.26.39-2.47.92-3.75,1.25,1.02,2.13,3.05,1.98,5,1.75l1-2c-.58-.35-1.27-.49-1.75-1Z"/><path class="f" d="M108.12,245.5c-5.27,4.06,6.04,4.94,1.75,0h-1.75Z"/><path class="f" d="M102,245.75c.07.03.35.08.75.25.52.13,1.13-.25,1.25-.75.17-.7-.13-2.49,0-3.5-2.81-.29-4.88,2.2-2,4Z"/><path class="e" d="M94.5,255.25c.62-2.93,2.83-5.3,2.5-8.38-.25-.32-.47.17-1.25.12l-2.5,8.62c.08.17.15.29.22.38h.43c.15-.2.31-.55.6-.75Z"/><path class="c" d="M91,244.75c.33-.11.67-.38,1-.5-.22-1.96.87-5.15-3.25-1.5l1.75,2c.13-.04.37.04.5,0Z"/><path class="e" d="M89.38,249h-1.5c-3.33,3.74,4.06,3.92,1.5,0Z"/><path class="c" d="M105.12,249l-1.12,1.62c-.07,2.61,7.08-1,1.12-1.62Z"/><path class="e" d="M82.62,250c-2.51,3.37,4,3.04,1.75,0h-1.75Z"/><path class="e" d="M88.75,242.75c-1,.89-1.91,1.78-2,3.25,1.28-.33,2.49-.86,3.75-1.25l-1.75-2Z"/><path class="e" d="M102.75,246c1.39.58,2.97,2.66,4,.38l-2.75-1.12c-.12.5-.73.88-1.25.75Z"/><path class="e" d="M102.25,251.5c-.1-.83-.74-1.5-1-2.25l-1.25,1c.12.07,1.22,1.29,2.25,1.25Z"/><path class="f" d="M92.75,245.75l-1,2c.66-.08,1.42-.66,2-.75.66-.82-.35-.86-1-1.25Z"/><path class="e" d="M45.12,220.75c-.74-.03-10.92,7.16-12.62,7.88l8.88,12.88,12.62-7.88c-1.1-1.43-8.09-12.84-8.88-12.88Z"/><path class="e" d="M61.88,210.25c-.71-.07-10.34,7.15-12.12,7.62l8.38,13.12,12.88-7.88c-1.67-1.15-8.34-12.8-9.12-12.88Z"/><path class="e" d="M33.12,204l-12.62,8.12c1.56,1.13,7.89,12.22,8.62,12.38.74.16,11.19-7.44,12.88-8.12l-8.88-12.38Z"/><path class="e" d="M46.12,213.75c.7.19,10.9-6.78,12.38-7.62-1.19-1.38-8.11-12.55-8.88-12.62-.72-.07-10.52,7.14-12.12,7.88,1.45,1.24,7.9,12.18,8.62,12.38Z"/><path class="e" d="M95.75,132.63c.14-.94-4.23-2.88-5-3.38.38.54.36,1.27.5,1.75,0,.03.46.16.5.38.79,4.1-.61,2.06-2,4.38.81-.36,5.94-2.72,6-3.12Z"/><path class="e" d="M89.25,128c-.48,2.5.66,3.45-.5,6.12,1.84,1.69,2.51-1.6,2.5-3.12-.14-.48-.12-1.21-.5-1.75-.74-.48-.93-.71-1.5-1.25Z"/><path class="e" d="M191.38,190.75c-.66,0-9.33,6.89-10.88,7.62,1.41,1.4,10.51,11.95,11.38,11.88.66-.06,9.61-6.54,11.12-7.38-1.51-1.28-10.79-12.14-11.62-12.12Z"/><path class="e" d="M177.12,200.75c-.68-.03-9.85,6.88-11.12,7.88,1.6,1.15,10.31,11.83,11.12,11.88.67.04,9.62-6.91,11.12-7.62-1.67-1.11-10.3-12.09-11.12-12.12Z"/><path class="e" d="M176.62,194.5c.68-.03,9.8-6.88,11.12-7.88-1.86-.98-10.56-11.81-11.38-11.88-.67-.06-9.42,7.12-10.88,7.88,1.52,1.15,10.31,11.92,11.12,11.88Z"/><path class="e" d="M162.12,184.75c-.67,0-9.39,7.08-10.88,7.88,1.45,1.24,9.83,11.79,10.62,11.88.67.07,9.71-6.83,11.12-7.62-1.27-1.37-10.06-12.13-10.88-12.12Z"/><path class="e" d="M121.62,102.5c-.9,0-9.52,2.43-11.62,2.88l3.88,13.62,12.62-3.38c-.92-1.56-3.26-12.53-3.75-13-.23-.22-.79-.12-1.12-.12Z"/><path class="e" d="M139.88,98.5c-.62-.06-10.51,2.68-12.12,3.12l3.88,13.12,12.62-3.38c-.75-1.74-3.13-11.97-3.5-12.5-.31-.45-.5-.34-.88-.38Z"/><path class="e" d="M116.75,83.13c-.24-.22-.58-.11-.88-.12-.61-.04-10.16,2.43-11.88,2.88l3.62,13.38,12.88-3.38c-.99-1.54-3.27-12.29-3.75-12.75Z"/><path class="e" d="M138.5,91.88c-1.12-2.32-3.11-11.33-3.5-12-.23-.4-.3-.75-.88-.62l-12.38,2.88,3.88,13.12,12.88-3.38Z"/><path class="e" d="M218.5,88.38c.41-5.66-3.04-1.6-4.25-3.62-.09.07-1.84.94-2,1-.09.59.25.47.25.5,1.6-.52,2.18.42,2,2,1.31.41,1.93,2.51,4,.12Z"/><path class="c" d="M210.88,94.5c-4.34,4.53-.12,4.81,4.12,2.38.4-.8-2.7-2.8-4.12-2.38Z"/><path class="c" d="M226.25,86.38c-1.53-2.02-1.15-3.65-4.12-3.62-.14.11-.48,2.3-.62,2.75l3.5,1.75c.58-.41,1.22-.11,1.25-.88Z"/><path class="c" d="M199.5,85c.26,1.96,1.93,2.03,3.5,1-.06-.26.21-.89.5-1-.23-3.2-3.64-3.44-4,0Z"/><path class="e" d="M221.38,94l-1.5,4c5.92.07,3.49-4.72,1.5-4Z"/><path class="e" d="M198.88,85.75c-.32.22-2.79-.35-3.38.25l3.25,2c.43-.31,1.46-.55,2-.5-.98-1.37-1.42-.84-1.25-2.5.36-3.44,3.77-3.2,4,0l.25-1.38c-1.19-2.42-3.82-2.21-4.75.38-.14.38.2,1.52-.12,1.75Z"/><path class="f" d="M201.5,87.75l-.75-.25c-.54-.05-1.57.19-2,.5-.79.57-.7,1.39-.75,1.5-.3.71-.6,1.36-.75,2.12.16.32.73-.01,1.25-.12.54-.12.58-.22,1-.5,1.75-1.16,1.06-1.82,2-3.25Z"/><path class="f" d="M212.5,83.5c-.14.04-.49,1.42-2.5.5-.29.19-.24.24-.25.25-.31.43-.25.76-.25,1.25v.5c.87-.22,1.8.12,2.75-.25.16-.06,1.91-.93,2-1,2.09-1.58.94-2.1-1.75-1.25Z"/><path class="c" d="M224.75,90.75c-.13-.06-2.15-1.65-2.25-1.75h-.75c-.44.27-.99.53-1.25,1,.02.47.88,1.39,1.25,1.75.41.4.74.73,1.25,1l1.75-1.5c-.01-.16,0-.33,0-.5Z"/><path class="f" d="M222.5,89c.1.1,2.12,1.69,2.25,1.75.8.37,1.72.06,2.5.5-.06-1.64-1.23-3.01-2.75-3.5-.54.3-1.79.5-2.25.75.04.13.23.48.25.5Z"/><path class="c" d="M220.5,90c.26-.47.81-.73,1.25-1,.03-.02.03-.25.5-.5.46-.25,1.71-.45,2.25-.75.03-.02.44-.46.5-.5l-3.5-1.75c-.3.94-1.14,4.29-1.25,4.5h.25Z"/><path class="e" d="M227.62,94.75l-1.12.62c-.28,5.54,6.23,1.33,1.12-.62Z"/><path class="c" d="M215.5,78.63c-.88,1.75,1.6,2.78,2.5,3.62.03-.33.47-.42.5-.75.12-1.4-1.18-4.29-3-2.88Z"/><path class="c" d="M199.5,91c-.42.28-.46.38-1,.5,1.96,1.36,3.14,3.98,5.25,2-.03-.01-.23-.49-.25-.5-1.33-.67-2.68-1.31-4-2Z"/><path class="e" d="M220.62,84.25c2.28-1.77-.41-2.69-2.12-2.75-.03.33-.47.42-.5.75.16.15.14,2.35,2.62,2Z"/><path class="c" d="M198.88,85.75c.32-.23-.01-1.37.12-1.75-6.37,1.07-4.09,1.29-3.5,2.25v-.25c.58-.6,3.06-.03,3.38-.25Z"/><path class="e" d="M201.5,87.75c-.68,3.18,2.47,1.89,2.5.38.03-1.37-.98-1.28-1-1.38-.69.03-1.15.47-1.5,1Z"/><path class="e" d="M220.5,90h-.25c-.59,1.12-3.42,2.52-3.25,2.88l4.75-1.12c-.37-.36-1.23-1.28-1.25-1.75Z"/><path class="c" d="M224.75,91.25c.05.57.3,1.67.5,2.25,1.78-.06,2.05-.89,2-2.25-.78-.44-1.7-.13-2.5-.5,0,.17-.01.34,0,.5Z"/><path class="f" d="M212.5,86.25c-.16,3.92,1.8,1.94,2,2,.18-1.58-.4-2.52-2-2Z"/><path class="e" d="M208.5,85.25c-.79-.07-1.5.19-2.25.38.37,3.02,2.71.51,3.25.38v-.5c-.4.02-.53-.21-1-.25Z"/><path class="c" d="M198.75,88l-3.25-2v.25c.75,1.2,1.35,2.34,2.5,3.25.05-.11-.04-.93.75-1.5Z"/><path class="c" d="M199.5,85c-.17,1.66.27,1.13,1.25,2.5l.75.25c.35-.53.81-.97,1.5-1-.05-.23.05-.52,0-.75-1.57,1.03-3.24.96-3.5-1Z"/><path class="c" d="M223,92.75c.66.35,1.49.77,2.25.75-.2-.58-.45-1.68-.5-2.25l-1.75,1.5Z"/><path class="f" d="M212.5,83.5c-1.68-1.18-2.04.19-2.5.5,2.01.92,2.36-.46,2.5-.5Z"/><path class="e" d="M203.5,93s.22.49.25.5c3.14,1.42,1.08-2.12-.25-.5Z"/><path class="c" d="M209.75,84.25c-.06.05-.63-.11-1.25,1,.47.04.6.27,1,.25,0-.49-.06-.82.25-1.25Z"/><path class="e" d="M195.38,47.75c7.29-3.14,5.68-12.3-2.75-11.25-7.23.9-.41,9.43,2.75,11.25Z"/><path class="e" d="M174.88,57.25c7.18-4.57,5.33-10.46-.75-10-.23.02-4.06,1.13-4.25,1.25-3.84,2.42,2.32,9.24,5,8.75Z"/><path class="c" d="M187,43.25l-7,.75c-1.46,3.27.17,4.91,2.5,7,.97.87,2.55,1.97,3.75,2.5,2.63.91,1.06-9.36.75-10.25Z"/><path class="c" d="M178.5,42.5c-.19-2.84.41-5.75-.5-8.5-4.4.51-2.4,1.03-5,2.25-1.92,5.68-.03,12.6,5.5,6.25Z"/><path class="e" d="M184,53.5c-.39-.17-1.5-1.06-1.75-1.5-4.8,8.01-12.26,9.52,1.25,9,.65-.59,1.34-1.14,2-1.75-1.46-.98-1.81-4.13-1.5-5.75Z"/><path class="c" d="M180,44l7-.75c-1.21-3.46-5.83-1.88-7,.75Z"/><path class="c" d="M178,34c.91,2.75.31,5.66.5,8.5.41-.47,1.76-.05,1.25-5.12-.15-1.5-.41-2.59-1.5-3.62.03.22-.06.23-.25.25Z"/><path class="c" d="M178,34c.19-.02.28-.03.25-.25-2.57-2.44-4.34-.18-5.25,2.5,2.6-1.22.6-1.74,5-2.25Z"/><path class="c" d="M169.75,34.38c-.1-.49-1.92-.7-2.38-.62-3.13.55-.23,4.2,2.38.62Z"/><path class="f" d="M184,53.5c.92.41,2.24,1.04,2.25,0-1.2-.53-2.78-1.63-3.75-2.5.08.41-.05.67-.25,1,.25.44,1.36,1.33,1.75,1.5Z"/><path class="f" d="M127.25,59.25c-.36-1.74-1.87-5.27-3-6.75.9,1.69,1.65,4.95,3,6.75Z"/><path class="e" d="M76.48,125.64c.6.23,3.73.08,3.89.11,1.21.22,3.07,2.28,2.12,3.62-.14.2-4.22,2.24-.12,2.62,3.19-4.35.41-8.18-4.5-7-1.09.26-1.5.44-1.49.55.04.02.07.04.12.07,0,0-.01,0-.02.01Z"/><path class="e" d="M61.12,121.5l-.38,2.38c2.52,2.26,3.02-2.16.38-2.38Z"/><path class="e" d="M85.88,132.5l-1.12.88c.07,3.83,4.73.64,1.12-.88Z"/><path class="e" d="M77.12,134.25l-1.12.62c-.05,3.25,4.75,1,1.12-.62Z"/><path class="e" d="M77.38,129.25l-.88.62c.04,3.6,4.6.59.88-.62Z"/><path class="e" d="M81.62,135l-.88.62c.02,3.13,4.39.27.88-.62Z"/><path class="e" d="M66,117.63l6.25,4.88c-.36-.57-6.06-5.51-6.25-4.88Z"/><path class="e" d="M70,130.5l-2.38-7.25,2.12,7.25c.07.03.18-.03.25,0Z"/><path class="e" d="M76.48,125.64s.01,0,.02-.01c-.05-.03-.08-.05-.12-.07-.19-.12-.24-.15-.51-.3-4.09,1.86-2.26,2.79.61.39Z"/><path class="f" d="M64.25,128.5c.51.28.68.22.75.25,1.73-.04-1.1-2.8-.75-.25Z"/><path class="f" d="M70.5,130.75c.19.13.72.46.75.5,1.58-1.12.69-2.3-.75-.5Z"/><path class="e" d="M73.75,123.63s-.37-.47-.62-.38c-.39.15.58.79.62.38Z"/><path class="d" d="M72.62,123l-.38-.5"/><path class="e" d="M63.5,132.88c.16-2.28-1.07-2.19-2.75-2.38-.63-.07-1.35.02-2,0-3.06-.1-5.96.43-9,.5-.74.66-5.54,4.68-5.5,5.12,1.76,1.67,3.72,3.05,6,3.88,7.57,2.74,8.45-2.01,13.25-7.12Z"/><path class="c" d="M247.5,34.75c.25.04-.34-.62,1.5.12-4.01-3.83-1.25-4.1-7-.88,2.15-.23,3.54.46,5.5.75Z"/><path class="c" d="M58.75,130.5l-3.38-4.25c-2.14,1.28-3.79,3.13-5.62,4.75,3.04-.07,5.94-.6,9-.5Z"/><path class="c" d="M98.12,241l-1.12.88c-1.47,6.72,7.48-.58,1.12-.88Z"/><path class="f" d="M85.63,255.81s-.09.11-.13.19h.75s-.07-.1-.16-.18c-.12-.11-.29-.19-.46-.01Z"/><path class="c" d="M222.25,88.5c-.47.25-.47.48-.5.5h.75s-.21-.37-.25-.5Z"/><path class="e" d="M1.57,67.42c.23-.01.47-.02.73-.04,1.04-.05,2.32-.11,3.76-.18.36-.02.73-.04,1.11-.05,5.28-.26,12.21-.61,17.02-.97.34-.03.68-.05,1-.08,1.28-.1,2.38-.21,3.19-.31.81-.1,1.34-.2,1.5-.3.84-.5.66-18.57.38-19.5l-7.12,1.5c-2-.12-5.92.36-3.88-.5-.74.11-1.69.24-2.67.32-.65.05-1.32.09-1.95.08-.94-.01-1.8-.12-2.38-.4,0,.05,0,.1-.02.13-.04.1-.15.13-.3.13-.05,0-.1,0-.15,0-.16-.01-.35-.03-.53,0-2.52.39-4.97.23-7.5.25-1.25,0-2.5.02-3.75.03v19.97c.12,0,.25-.01.41-.02.31-.02.7-.04,1.16-.06Z"/><path class="e" d="M1.61,201.26c.37-.17.78-.36,1.23-.57,2.46-1.14,6.03-2.78,9.34-4.36.3-.14.6-.29.9-.43.89-.43,1.75-.85,2.56-1.24.27-.13.53-.26.79-.39.51-.26,1-.5,1.45-.73,1.79-.93,3.01-1.63,3.13-1.9.02-.06.03-.18.03-.35,0-.18-.02-.41-.05-.69-.03-.28-.07-.61-.12-.98s-.11-.78-.18-1.23c-.03-.22-.07-.45-.11-.69-.12-.71-.25-1.49-.4-2.3-.1-.54-.2-1.1-.3-1.66-.42-2.26-.89-4.65-1.3-6.66-.52-2.5-.94-4.4-1.06-4.68-.32-.75-.71-.83-.75-.88-5.6,2.68-11.18,5.4-16.75,8.13v22.37c.16-.08.38-.18.65-.3.27-.13.59-.28.96-.45Z"/><path class="c" d="M1,255.13l12.5-11.88c-1.06-.86-2.18-1.66-3.25-2.5-.14.03-.32.11-.51.22-.39.23-.89.6-1.45,1.09-.42.36-.88.78-1.37,1.24-.65.61-1.34,1.3-2.04,2.02-.18.18-.35.36-.53.54-.35.36-.71.73-1.06,1.1-.35.37-.7.73-1.05,1.09-.17.18-.34.36-.51.53-.34.35-.66.69-.98,1.02-.26.27-.51.53-.75.78v5.62h1.88c-.4-.39-.74-.72-.88-.88Z"/><path class="c" d="M3,235.25c-.6.17-1.69,1.06-3,2.29v5.78c1.49-1.45,3.02-2.93,6-5.82-.99-.76-2.01-1.49-3-2.25Z"/><path class="c" d="M19.54,253.45c-.02-.17-.03-.36-.04-.57-.12-1.98-.77-5.17-2-6.62-1.31.76-7.24,6.6-10.77,9.75h12.02c.14-.14.26-.27.36-.39.6-.72.53-1.13.43-2.16Z"/><path class="e" d="M16.32,171.14c-.15-.12-.35-.27-.57-.43-.22-.17-.48-.35-.76-.55-2.51-1.82-7.11-4.97-9.72-6.6-1.02-.63-1.73-1.04-1.91-1.04-.18,0-2.83,1.27-3.38,1.5v15.63c5.57-2.73,11.15-5.45,16.75-8.13-.05-.06-.19-.19-.43-.37Z"/><path class="e" d="M0,232.75v4.79c1.31-1.22,2.4-2.12,3-2.29-1.02-.79-1.98-1.73-3-2.5Z"/><path class="c" d="M1.06,141.11c.22-1.63.4-3.27.54-4.91.21-2.46.34-4.92.39-7.39.06-3.29-.02-6.59-.26-9.88-.12-1.65-.28-3.29-.47-4.93-.41-.25-.83-.54-1.25-.83v34.38c.1-.52.2-1.04.3-1.56.29-1.62.54-3.25.76-4.88Z"/><path class="e" d="M0,40.86v6.67c1.25-.01,2.5-.02,3.75-.03-1.98-3.51-2.66-4.71-3.75-6.64Z"/><path class="e" d="M0,24.2v2.38c.81-.65.78-1.84,0-2.38Z"/><path class="e" d="M.5,29.63l-.5-.5v.97c.17-.09.34-.24.5-.47Z"/><path class="f" d="M171.48,0h-14.48c2.1.15,8.15.08,14.48,0Z"/><path class="c" d="M256,0h-9c3,2.39,5.93,4.96,9,7.25V0Z"/><path class="e" d="M75.49,1.2c-.27.46-.59,1-.91,1.57-.22.38-.44.76-.65,1.14-.11.19-.21.37-.31.55-.2.36-.39.7-.55,1-.32.6-.54,1.04-.58,1.17-.18.71-.23,1.36-.19,1.97.24,3.04,3.1,5,6.86,7.79,1.5,1.12,3.15,2.36,4.83,3.87.34-.49.94-.76,1.58-.97.64-.2,1.32-.33,1.79-.53.37-.15.36-.69.5-.75,1.85-.75,5.97-1.8,8.75-3,.66-.28,1.22-.66,1.67-1.03.3-.24.56-.48.76-.68.31-.3.5-.52.57-.53,1.05-.3,2.7.35,4-.25.2-.09.38-.27.55-.5.5-.67.85-1.7.95-1.75.54-.25,1.71.5,2.25.25.03-.01.06-.08.11-.19.12-.27.34-.79.82-1.28.1-.1.2-.19.32-.28,3.06-2.35,7.84-6.02,11.12-7.5-.07-.5-.2-.84-.25-1.25h-18.86c.55,1.38.06,2.86-.82,3.95-.45.55-.99,1.01-1.56,1.29-.23.12-.46.21-.68.26-1.14.3-2.22-.16-2.58-1.89-.43-2.01-.02-2.93.8-3.62h-1.9c-.13.18-.26.24-.43,0h-6.72c.02.47.64,1.56-1,2,1.29,2.54,2.14,2.31,2.75,3l3.62-2.75c.55-.19.74-.11.83.23.04.17.05.4.07.69.03.68.07,1.68.48,2.96-.08.19-3.41.76-4,.88-.57.11-1.43-.11-2,0-.09.02-.66.25-1.75.5-.4.09-2.78,1.3-3,.88.06-.34.19-.73.35-1.12.23-.59.5-1.2.66-1.7.16-.5.21-.89,0-1.06-2.87,3-3.36-1.02-3.5-1.25-.3-.5-.73-.71-1.17-.88-.14-.06-.29-.11-.43-.16-.07-.03-.14-.06-.21-.09-.13-.06-.26-.13-.38-.22-.29-.22-.5-.56-.57-1.15-.06-.56.05-.69.14-.73.06-.02.11,0,.11-.02h-1.5c-.06.07-.15.21-.28.42-.13.21-.29.47-.47.77ZM79.16,5.76c.27.28.54.58.84.87,0,1.66-8.62,2.92-3.88-2.12,1.43-.28,2.23.41,3.04,1.26Z"/><path class="e" d="M199.5,12.25c1.4-3.64,1.52-8.23,2.5-12.25h-12.5c.76.22,8.82,10.74,10,12.25Z"/><path class="c" d="M147.88,5.25c.23.05,1.8-.82,3.59-1.87.51-.3,1.04-.61,1.56-.93.78-.47,1.54-.93,2.18-1.33.43-.27.82-.5,1.12-.7.31-.19.54-.34.67-.42h-14.25c.71.72,4.77,5.18,5.12,5.25Z"/><path class="e" d="M6.73,0H1.88c.89.86,2.1,1.98,2.25,2,.25.03,1.25-.79,2.6-2Z"/><path class="f" d="M203.88,0h-1.1c.08,0,.15,0,.23.01.35.03.68.05.87-.01Z"/><path class="e" d="M93.9,0h-.43c.18.24.3.18.43,0Z"/><path class="c" d="M2.85,9.49c.33.23.63.43.9.56.18.09.33.16.46.19.06.01.12.02.17.02C5.25,10.18,18.13.63,18.75,0H6.73c-1.36,1.21-2.36,2.03-2.6,2-.15-.02-1.36-1.14-2.25-2H0v7.25c.39.29,1.29,1.06,2.18,1.74.22.17.45.34.67.49Z"/></svg>