<?xml version="1.0" encoding="UTF-8"?><svg id="a" xmlns="http://www.w3.org/2000/svg" viewBox="0 0 256 256"><defs><style>.b{fill:none;}.b,.c,.d,.e{stroke-width:0px;}.c{fill:#88cbeb;}.d{fill:#ffabbb;}.e{fill:#fff;}</style></defs><path class="b" d="M96.75,2.25c.28-.27.51-.58.71-.91-.2.33-.43.63-.71.91Z"/><path class="b" d="M250.75.06c-.48,0-.95.01-1.39.02.44,0,.91-.01,1.39-.02Z"/><path class="b" d="M40.02,1.42c.15-.13.31-.2.56-.22-.25.01-.41.09-.56.22Z"/><path class="b" d="M39.7,1.76c.12-.14.22-.26.32-.35-.1.09-.2.2-.32.35Z"/><path class="b" d="M255,223.5c-.58-.23-2.15-1.04-3.69-1.89,1.54.85,3.12,1.65,3.69,1.89Z"/><path class="b" d="M0,143c.62.08,1.71.37,2.38.48-.67-.1-1.76-.39-2.38-.48Z"/><path class="b" d="M252.12,212.87c.18-.08.4-.14.65-.19-.25.05-.47.11-.65.19Z"/><path class="b" d="M248.13.08c.37,0,.79,0,1.23,0-.44,0-.86,0-1.23,0Z"/><path class="b" d="M45.22,252.97c.93.59,1.93,1.27,2.64,1.91-.7-.64-1.7-1.33-2.64-1.91Z"/><path class="b" d="M18.46,244.89c-.37,0-.74.02-1.09.02.35,0,.72-.01,1.09-.02Z"/><path class="b" d="M37.32,4.79c.22-.14.5-.33.74-.48-.23.16-.52.34-.74.48Z"/><path class="b" d="M37,5c.06-.04.17-.11.32-.21-.15.1-.26.17-.32.21Z"/><path class="b" d="M33.28,7.2s.03-.12.09-.23c-.05.11-.07.18-.09.23Z"/><path class="b" d="M38.8,3.23c.1-.27.23-.59.45-.91-.22.32-.35.64-.45.91Z"/><path class="b" d="M26.67,9.42c.33-.27.85-.64,1.6-.94-.75.3-1.27.68-1.6.94Z"/><path class="b" d="M21.63,8.42c-.21.48-.61,1.02-.63,1.08.02-.06.42-.6.63-1.08Z"/><path class="b" d="M28.28,8.48c.5-.2,1.1-.37,1.82-.44-.71.08-1.32.24-1.82.44Z"/><path class="b" d="M67.94.02c-1.24.02-2.46.03-3.66.05,1.2-.01,2.43-.03,3.66-.05Z"/><path class="b" d="M252.92.02c-.47,0-.96.02-1.45.03.48,0,.97-.02,1.45-.03Z"/><path class="b" d="M174.99.86c-.01.06-.05.12-.16.15.11-.03.15-.09.16-.15Z"/><path class="b" d="M105.22.57c-.27-.06-.54-.12-.79-.19.25.06.52.12.79.19Z"/><path class="b" d="M109.3,255.99s0,0,0,.01h0s0,0,0-.01Z"/><path class="b" d="M104.06.29c-.23-.06-.45-.11-.63-.16.18.05.39.11.63.16Z"/><path class="b" d="M69.8,255.99c1.24-.02,2.49-.04,3.73-.06-1.24.02-2.49.04-3.73.06Z"/><path class="b" d="M.5,209.5c-.11.55-.27,1-.47,1.37.2-.37.37-.81.47-1.37Z"/><path class="b" d="M108.76.78c-.16.09-.37.16-.64.22.26-.06.47-.14.64-.22Z"/><path class="b" d="M109.3,0h0c0,.17-.04.34-.17.49.12-.15.17-.32.17-.49Z"/><path class="c" d="M254.39,256h1.61c-.45,0-1,0-1.61,0Z"/><path class="c" d="M10.46,256h7.29c-2.43-.03-4.86-.02-7.29,0Z"/><path class="c" d="M178,256h21.33c-8.8-.17-17.86-.41-21.33,0Z"/><path class="c" d="M89.85,255.79c-.42,0-.85,0-1.3,0-1.35,0-2.85,0-4.46.02-3.21.03-6.85.08-10.57.14-1.24.02-2.49.04-3.73.06-.14,0-.28,0-.43,0h25.63c-.55-.09-1.55-.14-2.89-.18-.67-.02-1.43-.03-2.26-.03Z"/><path class="c" d="M124.5,254h-.75c-1.71-.24-1.54.33-2.5,1.25.07.25.28.44.48.75h5.52c-.89-1.06-2.63-1.87-2.75-2Z"/><path class="e" d="M216.25,256h7.75c-2.21-1.08-4.08-2.05-4.25-2.25-1.24.61-2.43,1.37-3.5,2.25Z"/><path class="e" d="M238.39,256h8.11c-1.17-.21-4.29-2.66-6-3-.07.16-1.15,1.68-2.11,3Z"/><path class="c" d="M47.86,254.88c-.7-.64-1.7-1.33-2.64-1.91-.84-.52-1.63-.97-2.1-1.22l-.12.5c-.17.58-.32,1.25-.49,1.93-.16.62-.34,1.25-.57,1.82h6.82c-.12-.33-.44-.71-.89-1.12Z"/><path class="c" d="M98.14,256h1.64c.18-.25.37-.49.59-.75.47-.04.36.26.36.75h2.27c-1.39-.44-2.6-1.35-4-1.75-.34.55-.6,1.15-.86,1.75Z"/><path class="c" d="M121.12,253l2.62,1h.75s-.46-.96-.5-1c-1.88-2.03-1.87-4.27-4.62-3.5-2.46.69-1.54,3.11-4-1-4.83,2.23-1.86-.96-4.38-.5,1.59,1.64-.22,1.97-.5,2.5,3.52,2.98-.63,3.8-.75,1.75-.03,0-.07.01-.12.04-.3.13-.96.58-1.19.69-.04.02-.06.03-.07.02-.22-.09-2.62-3.35-2.88-3.75-.13.1-.25.16-.37.2-.37.11-.73,0-1.13.05.86.57.43.9.25,1.75v.25c1.49-.7-.18-.21.88-1.75.65-.24,3.18,3.94,3.62,5,.03.06.09.16.17.29.05.08.11.18.17.28.08.15.16.32.19.5.01.06.02.12.02.17,0,0,0,0,0,.01h12.43c-.19-.31-.41-.5-.48-.75-.1-.35-.73.13-.12-2.25ZM114.88,253.75c.13-1.48.25-2.2,1.75-2.5,3.2,2.7,1.13,2.62-1.75,2.5Z"/><path class="d" d="M100.38,255.25c-.23.26-.41.5-.59.75h.95c0-.49.12-.79-.36-.75Z"/><path class="c" d="M255.96,98.6c0,1.55.02,3.1.04,4.65v-15.86c-.03,3.73-.06,7.47-.04,11.2Z"/><path class="c" d="M255.97,12.05c0,.77.02,1.55.03,2.34V0c-.13,2.05-.1,6.81-.03,12.05Z"/><path class="c" d="M256,115.06v-11.81c-.25.31-1.96,3.54-2,3.75-.55,3.04.32,5.78,2,8.06Z"/><path class="c" d="M255.5,200.25c-2.38,3.07-8.25,8.32-8.5,8.88-1.09,2.39-1.05,5.26-.16,7.66.3.8.69,1.55,1.16,2.21,3.1.81,5.54,1.57,8,2.01v-9.21c-.08.05-.16.09-.24.15-.49.33-1.04.78-1.57,1.19-1.06.83-2.06,1.51-2.44.74-.15-.56.02-.83.37-1,.18-.08.4-.14.65-.19.99-.21,2.42-.35,3.23-1.77v-10.81c-.14-.1-.3-.07-.5.15ZM251,217.88l.62-1.62c3.11-.25,1.19,4.14-.62,1.62Z"/><path class="e" d="M251.5,39c-.14.25-.27.47-.39.68-.34.61-.56,1.04-.69,1.34-.04.1-.08.19-.1.26-.13.38-.05.47.05.56.12.11.27.2.13.78-.25,1.08-.55,2.12-.82,3.16-.27,1.05-.52,2.1-.68,3.21,2.74,1.87,4.74,2.01,7,1.58v-18.58c-.08.32-3.02,4.64-3.5,5.5-.75,1.34-.95,1.42-1,1.5Z"/><path class="e" d="M250,55.75c.25.63.45,1.24.71,1.8.17.37.37.72.63,1.03.39.47.91.87,1.66,1.17.56.22,2.12.41,3,.48v-3.48c-2.46-.02-4.7-.3-6-1Z"/><path class="e" d="M247.75,219.38c.34.39,1.93,1.34,3.56,2.24,1.54.85,3.12,1.65,3.69,1.89.38.15.7.28,1,.4v-2.89c-2.46-.44-4.9-1.2-8-2.01.09.13-.26.36-.25.38Z"/><path class="c" d="M249,49s-.12.06-.24.13c-.12.07-.25.15-.26.25-.17,1.79.82,4.63,1.5,6.38,1.3.7,3.54.98,6,1v-6.17c-2.26.43-4.26.29-7-1.58Z"/><path class="c" d="M254.75,198.5c.03.06.82.62,1,.75.26.19.24.24.25.25v-1c-.51-.16-.75-1.04-1.25,0Z"/><path class="c" d="M256,225.24v-1.34c-.3-.12-.62-.25-1-.4.3.6.64,1.17,1,1.74Z"/><path class="c" d="M255.75,65c-.06-1.33-.55-2.07.12-2,.03,0,.07.01.12.05v-2.82c-.88-.07-2.44-.26-3-.48l2.75,5.25Z"/><path class="c" d="M255.75,65s.01,0,.04,0c.04,0,.12.01.16.31.02.15.04.37.05.69v-2.95c-.05-.03-.1-.05-.12-.05-.68-.07-.19.67-.12,2Z"/><path class="c" d="M256,200.1v-.6c-.12.26-.33.53-.5.75.2-.21.36-.25.5-.15Z"/><path class="c" d="M127.5,16.5c-.32,1.06-2.18,7.83-2.25,8.25-.45,2.83.09,3.42,0,4.25-.33,3.24-1.13,14.74-1.75,16.62-.3.9-.9,1.67-1.88,1.88-.97.2-18.92-.46-19.75-1-.98-.63-3.75-12.75-4.38-14.75-.11-.37-.15-.68-.25-1-.92-2.9-2.19-5.76-3.5-8.5-2.95-1.23-5.89-5.46-5.25-8.75-2.66-6.52,2.17-9.65,6.75-13l-.25-.5h-25.63c-.48,0-.96.01-1.43.02-1.24.02-2.46.03-3.66.05-6.61.08-12.5.11-15.53-.07.03.07-.02.17,0,.25,2.12,1.79,1.92,3.4,1,5.75.52,3.51,1.24,7.03,2,10.5.51,2.31,4.11,16.72,3.75,17.62-.57,1.45-16.91,5.67-18.88,4.88-.9-.36-11.09-12.94-12.38-15-.37-.1-7.62-3.09-6-3.75-4.07-3.41-2.02-9.23-2-9.75.07-1.39-3.36-.92-.38-5.25.25-.07,1.25.16,1.62.25.04-1.68-.09-3.89.25-5.5h-7.29c-.53,0-1.05,0-1.58.01-2.96.02-5.92.04-8.87-.01v14.39c0,.11,0,.21,0,.32,0,.45.01.89.02,1.34.02,1.34.04,2.67.05,3.96.01.86.02,1.71.03,2.52.03,2.86.05,5.38.02,7.11,0,.25,0,.48-.01.69-.01.43-.03.79-.04,1.07-.02.28-.04.48-.07.6.85.4,3.61-2.51,4.5-3.5.31-5.56,2.11-3.51,1-.75,1.52-.55.57.69,1.38,1.5.21.21,2.93,1.18,3.5,1.5.73.41.59,1.16.75,1.25.27.15,1.59-1.13,5.25,2,2.72,2.32,2.32,3.57,2.62,4.62.06.22.49.1.5.12,2.91-.35,5.48.56,7.75,2.25,3.91,2.91,4.06,5.29,4,9.75-.04,2.77-.14,5.88-1,8.5.83.68,3.18,4.3,3.88,4.5.23.07,4.84.3,4.38-.25-.44-1.06-.14-1.38.5-2.25-.08,0-.17,0-.25,0-.39.03-.79,1.45-2-1-4.13-2.5,4.11-.67,5-.25,1.4-10.06,2.96-8.73.5.5,4.52,2.96,10.4,13.89,4.75,17.75,3.38,3.73-.1,7.11-.25,7.5-.91,2.33-1.9,4.66-2.75,7-.78,2.14-4.89,15.76-5.5,16.38-.64.65-15.68-1.5-16-2.25-.33-.78.25-14.43,0-16.88v-7c-1.63.19-12.74,1.22-13.38,1-.57-.2-4.08-7.02-4.62-8.12-1.02-2.05-1.63-4.3-2.5-6.38-.3-.72-1.46-2.8-2-3.5.14,7.13.06,14.26,0,21.39v15.86c3.87-4.85,7.88-4.05,11.25.5,1.12-1.34,2.37-.46,2.5-.5l2.88-3.25c1.71-.84-1.4,2.34-1.62,2.5l1,2c6.91,0,10.11,13.4,2.75,16.75-.12,2.65.85,3.73-2.25,3.25-2.26,2.19-12.18,18.66-13.62,19-.1.02-.27,0-.49-.02-.67-.1-1.76-.39-2.38-.48v55.5c5.56,1.77,5.12-2.33,6,.5-.01-3.02,2.12-2.83,2.25-3,1.22-1.58.4-3.24,0-4.75-.24-.89-2.26-7.3-2.5-7.62-.79-1.08-3.67-.35-1.88-2.12,1.97,1.42,2.27-.21,3.38.62-1.05,1.87,1.12,5.57,2,8.12.38,1.09,1.07,2.17,1.25,2.75l2.38-6.5c11.45,3.55,8.17,4.35,8.75,4.75.47.32,2.61-.44,3-.25.67.33.24,1.46.38,1.62,1.3,1.64,2.01.76,3,3.88,4.8-.51,4.93.37,6.25,4.5.16.51,1,1.43,1,2.5,2.13,1.71.96,4.97,1,5.5.26,3.18,1.3,7.76,1,10.75l.5-.12c.67,2.2,3.22,16.64,3,17.5-.2.79-12.63,6.93-14.25,7.88.05.02-.13.84.38,1,.38.12,3.57-1.52,4.5-1.25.48.14.89,1.45,1,1.5.52.21,2.29-.78,3.25-.5.65.19.92,1.46,1,1.5.44.2,2.28-.89,4.88,2.38.53.67.29,1.54,1.5,2.62l.12-.5c.47.25,1.26.69,2.1,1.22.93.59,1.93,1.27,2.64,1.91.45.4.77.79.89,1.12h20.62c.14,0,.28,0,.43,0,1.24-.02,2.49-.04,3.73-.06,3.72-.06,7.35-.11,10.57-.14,1.61-.01,3.11-.02,4.46-.02.45,0,.88,0,1.3,0,.83,0,1.59.02,2.26.03,1.34.03,2.34.09,2.89.18h3.14c.27-.6.52-1.2.86-1.75.49-.8-.25-.76.38-1.25.52-.41,3.96-1.07,4.88-1.5v-.25c-1.76-2.12-1.33-1.63-.25-1.75.4-.05.76.06,1.13-.05.12-.04.25-.1.37-.2-.67-1.03-4.08-6.71-.75-4.75-2.14-4.54.71-9.97,8.5-7.25-.96-1.35-1.43-2.72-2-4.25-3.11-3.64-1.65-6.74-7.75-7.88,5.7-.76,6.22,3.48,7.75,7.62,2.11.18,1.15,2.52,3,4.75,1.23,1.48.51-.34,2.38-1,4.48-1.58,7.47,2.1,7.12,6.62-.09,1.19-1.85,5.02-1.75,5.5.14.72,5.05,3.88,2,4.38.04.04.46.96.5,1,.12.13,1.86.94,2.75,2h11c-1.14-3.14-3.19-10.91-4.25-14.75-.69-2.49-1.75-4.88-1.75-7.5-4.71-2.41-2.85-8.68.38-11.5l.38.25c-.47-2.46,1.16-8.42,2.88-9,.17-.06,3.29-.29,3.62-.25-.5-2.98.64-3.95,3.25-5,.82-2.98,1.97-8.5,6-7,.61.23,1.96.86,1,1.25.69-.16.83-.26.88-.25,1.11.17,8.95,5.75,11.12,9.12,1.46,2.26,3.22,8.04,2.75,10.62,1.97,1.21,4.29,2,5.5,4.12,2.28,3.98.22,5.71,0,6.62-.56,2.3-1.14,4.59-1.75,6.88-.02.07-.44-.04-.75,1.12-.02.08.24.7,0,1.62-1.2,4.52-2.42,9.15-3.75,13.62h10.5c-.22-2.34,1.11-2.69-1-4.88.61-.8,4.21,2.52,2.88,2.88-.56.15-1.22-2.37-1.14,2h3.02c3.47-.41,12.53-.17,21.33,0h16.92c1.07-.88,2.26-1.64,3.5-2.25-.63-.74-1.43-4.02-1.75-5.12-.16-.54-.98-1.15-1-1.25-.35-1.54,1.6-2.14,0-4.5,6.74-8.45,7.93-4.23,11-3.12,2.28-3.26,1.83-13.76,7.25-14.25-.42-2.2,3.33-1.09,1.5.75-6.43.7-5.34,9.04-7.75,13.5,5.16-6.04,11.58-1.32,12.25,3.38.28,1.98.08,7.99-.75,9.88,1.71.34,4.83,2.79,6,3h7.89c.61,0,1.16,0,1.61,0v-30.76c-.36-.56-.7-1.14-1-1.74-.58-.23-2.15-1.04-3.69-1.89-1.63-.9-3.22-1.85-3.56-2.24-.01-.02.34-.25.25-.38-.47-.66-.86-1.41-1.16-2.21-.89-2.4-.93-5.28.16-7.66.25-.56,6.12-5.81,8.5-8.88.17-.22.38-.49.5-.75-.01-.01,0-.06-.25-.25-2.65,3.99-2.09.67-1.75-4.62,1.54-.63.32,3.04.75,3.88.5-1.04.74-.16,1.25,0v-23.25c-.91,1.9-2.81,2.7-4.25,4-3.5,3.15-15.12,16.09-16.25,16.5-2.52.91-15.69-7.18-17.88-9.5-1.18-1.26-.13-1.12-.12-1.25.41-5.66,5.77-19.47,6-22,.05-.57-2.01-2.51,1.38-4.25.77-.4,2.65-.65,2.88-.75.35-.15.23-.24.25-.25.48-1-.05-1.61,1.12-2.25.44-.24,4.64-1.7,4.38-.25.16-.02.34-.01.5,0l-.62-1.25c4.93-1.44,5.26-3.11,7.38-1,.06-1.15,3.04-1.35,3.88-1.75.51-.24.27-1.08.75-1.25.27-.09.84.49,1.12.5-5.02-5.29-.26-5.46,1.25-.12l-.75.12c6.82,4.99,10.51,11.74,6.5,19.75l2.5,3.25v-30.5c-4.9-.67-15.02-4.85-15.5-6.38-.25-.8-.05-14.69,0-16.88.28-11.83-1.15-15.86,13.5-12.75.04-.21,1.75-3.44,2-3.75-.02-1.55-.04-3.1-.04-4.65-.02-3.73.01-7.47.04-11.2v-21.39c0-.32-.03-.54-.05-.69-.05-.3-.12-.32-.16-.31-.02,0-.04.02-.04,0l-2.75-5.25c-.76-.3-1.28-.7-1.66-1.17-.26-.31-.46-.66-.63-1.03-.26-.55-.46-1.16-.71-1.8-.68-1.75-1.67-4.59-1.5-6.38,0-.1.13-.18.26-.25.12-.07.24-.11.24-.13.15-1.11.4-2.16.68-3.21.27-1.05.57-2.09.82-3.16.14-.58-.01-.68-.13-.78-.1-.09-.17-.18-.05-.56.03-.08.06-.16.1-.26.13-.3.35-.73.69-1.34.11-.2.24-.43.39-.68-.94-1.66-1.19-2.22,1-1.5.48-.86,3.42-5.18,3.5-5.5V14.39c-.01-.78-.02-1.57-.03-2.34-.06-5.24-.1-10,.03-12.05h-1.61c-.47,0-.96.01-1.48.02-.47,0-.96.02-1.45.03-.24,0-.48,0-.72.01-.48,0-.95.01-1.39.02-.44,0-.86,0-1.23,0-.75,0-1.33-.03-1.63-.08,6.57,6.44,1.45,9.45,1.25,10-1.14,3.19-4.29,21.48-5,22.38-1.04,1.3-19.66,3.84-21.75.5l-6.5-23.38c-4.16-3.19-1.33-6.95,1.75-9.5-3.84.23-10.31.13-16.92,0h-21.33c.23.35,2.02,1.4,2.25,1.5.47.2,3.51.96,4.62,1.75,3.89,2.76,8.31,14.31,5.62,18.5,2.46,2.83.75,2.8.75,3.5-.04,6.63,2.3,19.82,2,23.5,0,.05.51.4.25.88-.87,1.63-19.56,8.49-21.25,7.88-2.1-.77-11.93-18.62-14-21.75-.46-.7-2.65-2.31-2.75-3.38-.14-1.49,2.43-4.47,2.5-4.88.1-.59-.91-2.98-.5-5.62.35-2.24,4.68-7.13,6.25-9.5.64-.96,1.22-.8,1.25-.88.12-.28-.11-1.13,0-1.5-1.25-.5-2.66,3.13-1.88-1.5l1.88.5c.38-1.21,5.14-2.43,6.5-3.5,1.09-.86,2.31-3.88,3.75-3.5-.37-.4-.53-.48-.75-1-.02-.05-.25-.95-.25-1h-10.5c-.33,1.1-.67,3.22-.75,3.38-1.76,3.63-21.66,3.2-24-.75-.07-.12-.44-1.78-.75-2.62h-11c1.27,1.52,2.58,3.47,2.5,5.5,2.36,3.64-1.83,9.61-2.25,11ZM45,48.38l.62-1.38c2.66.11,1.33,3.39-.62,1.38ZM42.62,188.5c-2.21-.16-15.74,1.82-16.5,1.5-.92-.39-4.49-14.46-5.12-16.5-.92-2.96-2.11-5.79-3-8.75-4.19-2.33-1.21-8.16,2-10-.06-.23-.86-.47-1-1.12-.24-1.14,2.46-10.28,2.75-10.75.15-.23.52-.1.75-.12-.1-.14-.98-3.2-1-3.38-.49-4.64,2.33-5.94,2.5-6.25.14-.25-.14-1.44,0-1.75.12-.26,5.26-.94,5.62-.88,1.34.24,1.39,1.61,2.38,1.25.32-.12,4.3-3.84,5.12-4.5.83-.66,5.07-3.24,5.25-3.5.42-.62.06-4.1,1.88-.88-3.85,3.14-8.19,5.99-12,9.38.76,2.21,4.9-.71,6.75,3.38,1.37,3.02-.17,5.72-1.5,8.38.26.06.46-.09.75.12.42.31,5.16,8.49,5.25,9,.14.77-.14,2.98-.5,3.62,1.86,2.21,3.41,4.74,0,6.25.77-.03.55,4.84.5,7.5-.05,2.43.06,16.56-.25,17.38-.06.15-.47.41-.62.62ZM92.25,170c4.26,1.45,2.06,3.88,1.75,4.5-1.34,2.66-9.3,18.54-10,19.38-.47.57-2.01,1.76-2.62,1.88-2.57.49-16.17-2.11-18.12-5.12-.92-7.17-2.26-14.26-3.5-21.38-.49-2.81-3.24-6.59,6.75-8.25-1-4.91,1.12-8.04,6.25-7.75-1.29-.82-.98-.09.12-3.5l2.5,4c.28.06,4.17-5.32,2.62-1.25,2.47-1.57,5.9,3.78,6,4.25,7.51-4.5,2.93-2.62,2.12-8.25.48-.37,3.32,4.1,3.38,4.38.2,1.06-.49.83-.75,1.62,10.14-.38,9.93,10.19,3.5,15.5ZM58,45.5s-.53-.22-.5-.38c.05-.3,2.17-4.97,2.5-5.5,1.04-1.69,2.39-2.55,3.75-3.88.98-.96,4.9-4.52,5.25-4.25-.36-5.27,3.81-3.2,4.88-4,.7-.52,0-1.38,1-2,9.22,4.83,14.25,10.56,12.62,21.5,5.51,3.08,1.37,6.58,1.25,7-.94,3.38-1.86,21.21-2.5,22.12-.41.58-11.37,2.16-14,2.12-1.68.31-4.89.75-6-.5-.77-.87-6.07-19.88-6.5-22.25-3.14.8-2.24-4.39-1.75-9.5.02-.16-.02-.34,0-.5ZM50,139.88c-.31-.8.46-14.63.5-17.12.04-2.5-.03-5,0-7.5-.73-.47-1.44-.95-2-1.62-.19-3.42,3.43-7.63,7-7.62,1.19-6.22,3.83-5.54,7.25-6-.08-1.14.14-2.24,1.5-2-3.04-4.55,6.53-12.34,11.75-5,.15-.08.34.26.38.25.55-.23,1.95-2.11.38.5,1.45,2.81,2.36-.11,3.62.25.63.18,4.67,5.91,5.12,9.38.9,6.89-.56,7.07-3,8.88,4.32,1.78,4.52,10.45-.5,11.25-1.12,2.57-2.9,4.83-4.25,7.25-1.1,1.98-7.82,15.19-9.12,15.5-1.5.36-18.21-5.3-18.62-6.38ZM96.12,199c-.2.11-1.02,1.66-3.38,3-.04.02.11.38-.12.5-2.44,1.24-7.45,1.4-9.88,2-.8.2-1.27.48-2,.75,7.25-.91,10.93,6.9,7.5,12.75,12.17,4.52,4.94,10,4,11.5-1.51,2.41-9.37,18.59-10.38,19-2.04.83-20.32-4.18-21.38-5.38-.73-.83-2.67-18.21-4-21.88-.03-.1-1.25-.42-1.5-1.38-1.36-5.25,5.48-7.63,9.5-6.88-.81-7.47,10.01-14.58,12.62-5.75.37-.22,1.53-1.21,1.62-1.25-1.08-.97,2.47-1.77,3.25-2,3.47-1.01,7.8-1.06,10.75-2.75,4.8-2.75,1.81-6.19,5.25-2.62-.87,1.22-1.7.27-1.88.38ZM101.5,138.25c-.6-2.17-1.34-5.19-1.5-7.25-1.53-.66-2.32-7.25,0-9.75-2.6-5.76,2.79-11.62,3-12.25.24-.71-.35-1.51-.25-1.88.09-.32,2.13-1.06,3.25-1.88.81-.58,2-2.35,3-2.25,0-4.6,11.51-1.82,13.88,0,2.74,2.11,3.35,5.54,3.62,6.12.21.46,2.89,2.35,1.5,6.88,4.21.93,6.92,6.48,3.5,9.75-.52,3.04-.21,7.72-1,8.25.02,2.11-1.63,16.58-2,17.38-.04.08-1.02,1.07-1.12,1.12-1.92,1.04-18.58,3.31-20,2.5-1.07-.61-5.26-14.51-5.88-16.75ZM140.5,191.38c-2.84,5.2-5.23,10.71-7.62,16.12-3.53.41-7.46,1.71-11,1.5-2.02-.12-10.21-2.01-10.88-3.75-.44-1.13-3.41-21.18-3.75-24-.1-.84-.5-1.3-.5-1.38-.25-5.56,6.63-7.13,11-6.88-.34-3.34,1.09-6.52,4.5-7.5-1.42-4.13,4.32-7.97,7.25-4,.54-1.99,6.85-7.69,8.38-10.25,2.18.24-6.97,8.13-7.62,10.75,1.24.96,2.77,2.64,4,3.5.23.16.49.32.75.5,1.82,1.27,8.7,2.71,5.5,10.75,7.82,8.04,3.22,8.72,0,14.62ZM139.62,152.75c1.44.21-1.75,2.43-1.88,1.38l1.88-1.38ZM217.5,198.62c.56,1.07.44,2.39.5,2.5.51,1.03,2.07,2.53,2.25,3.5.08.44-.32,2.12-.25,3,.12,1.49,2.04,5.4-1.75,7.62,4.68,4.93.19,7.81,0,8.25-1.75,4.07-5.98,19.89-6.88,20.5-.38.26-8.54,1.48-9,1.5-3.25.14-12.61-1.28-13.88-4.62-.47-1.24-3.46-18.17-4.5-22.12-3.07-.92-.77-3.15-.75-3.38.19-2.72-1.13-5.35,3.75-6.38-.14-1.05-.14-5.86.25-6.62.17-.34,5.77-4.24,6.12-4.38.68-.25,3.77-.23,4.38,0,.21-3.13,1.56-5.26,4.75-5.75-1.02-.42.37-2.79.62-2.75.24.04,1,2.61.38,2.5,1.56.22,1.18.68,1.75,2,4.57-.17,3.44-3,4.88-2.75,1.27,1.68,6.8,6.28,7.38,7.38ZM204.25,57.62c.15-.59.74-.09.75-.12.08-.3.15-.47.25-.75.92-2.65-1.87-3.85,3.25-10.88,3.18-4.37,4.99-4.52,5.5-5,.11-.11.82-2.44,1.62-2.62.32-.08,5.2,1.31,4.12-2.88l.62-.38c3.74,3.75,5.87.06,5.62,4.88,3.65-.27,2.54,1.97,3.25,2.75.61.67,1.27.26,1.38.38,9.14,10.09,5.62,12.66,5.88,15.25.04.38.97,1.71,1,1.88.2,1.38-1.01,6.07-1.75,5.12-.02,1.35-3.59,18.23-4.88,20.75-4.09.09-18.5,2.73-20.12-1.38-.96-2.43-3.24-17.59-4.25-20.62-.33-1-2.2-3.18-2.25-3.38-.04-.15-.04-2.85,0-3ZM196,111.12c.54-.62-.73-.78,2.75-2.38-.1-1.36-1.5-6.48.5-4.75-.12-.65-.25-.95-.25-1,.04-.96,3.37-4.9,4.25-5.88.09-.1-.09-.65,0-.75,1.5-1.64,5.32-1.72,7.62-1.62,5.47.22,9.78,1.89,13.38,6.12,4.9,5.79,2.77,7.49,3.5,9.38.84,2.16,4.54,2.01,1.75,4.5-.1,5.97,2.15,22.01,1.75,25.75-.03.3.61.29-.12,1-1.53,1.47-11.7,5.26-16.38,6-1.55.25-4.41,1.08-5.5.12-.95-.83-11.66-17.81-12-19.12-3.8,1.62-3.7-2.03-4-4.5-.35-2.85-.95-5.42.75-6.75-.03-.07.47-.13-.5-1.5-.66-.94-2.27.88,2.5-4.62ZM185.38,143.75c.08.03,0,1.54.25,1.75.45.37,1.43-2.15,8.12,7.38-.63.45-.47.83-.5.88,2.88,2.89,2.72,6.48,3,7.25.34.95,2.49,4.4,2.5,5.12,0,.45-1.69,2.94-2.25,5.12-.51,2-.83,6.65-1.25,9.25-.47,2.93-1.9,16.72-3.62,18-2.32,1.72-17.8,3.36-19.75,2.5-1.07-.47-6.82-11.78-7.62-13.62-.16-.36.26-.35.25-.38-1.14-2.64-2.58-5.17-3.25-8-.35-.25-3.68-4.27-3.75-4.62-.33-1.67.66-4.74,2.5-5.12-1.35-10.46,6.4-12.13,7-12.75.9-.94,3.93-8.26,4.25-8.62.75-.87,2.45-.8,2.88-1.12.19-.14,1.56-2.89,2.38-4.12.82-1.24,1.49.23,2.38-4.38,3.82,7.35,6.05,5.35,6.5,5.5ZM154.5,94c.55-3.88,4.8-6.27,8.5-5.5.46-.81-2.05-2.99-2.25-3.88-.83-3.7,2.32-6.99,6-7.12-1.81-2.49-8.06-11.48-10.62-7.5-2.23-2.15.99-3.89,4.75-1,1.76,1.35,7.4,9.81,7.88,10.25.43.4.97.82,1.25,0-.49-1.45-1.53-2.66-2-4.12,5.13.76,3.51-.43,4.88-1.12,7.58-3.88,12.98,4.43,9.88,13.88-.65,1.97-4.15,6.88-6.25,7.12,0,1.74-1.45,6.64-2.5,7.75,1.41.15,4.18,3.53,4.5,4.88,1.02,4.32-1.59,5.59-1.75,5.88-2.13,3.69-2.33,5.19-3.5,7.5-1.1,2.17-8.8,16.96-9.88,17.25-2.79.76-19.39-4.95-19.88-5.88-.54-1.03,1.43-15.79,1.75-18.12.47-3.36.61-6.78,1.75-10-2.16-4.16,4.2-8.74,7.5-10.25ZM144.38,48c1.45-.26-.44,2.29-1.12.88l1.12-.88ZM136.25,43.12c-1.3.76-4.46,3.37-5,3.62,1.35,2.1,5.12-.81,5.62-.75.8.1,6.57,8.62,7.12,14.12.26,2.62.62,5.92-1.75,7.38,4.49,5.63,1.06,5.98-.25,7.75-1.75,2.37-12.76,18.86-13.88,19.25-2.03.71-19.97-4.15-20.62-5.88-.45-1.19.7-21.59.25-25.38-2.84-3.72,2.07-6,5.25-6.25.01-.12.45-2.27.5-2.38.15-.3,4.57-4.49,4.88-4.62.36-.16,7.32-1.82,7.62-1-.09-2.28,1.77-2.49,3.5-1.5-.01-.16-.03-.38,0-.5.12-.47,7.42-5.68,6.75-3.88Z"/><path class="e" d="M33.88,224c-.08.02-.44,1.41-.62,1.62-1.7,2.05-3.04,1.55-3.62,1.88-.46.26-1.35,1.55-1.75,1.75-.6.29-1.19-.28-1.25-.25-.26.12-1.42,1.31-2.5,1.75-.44.18-.75-.35-1-.25-.22.09-1.04,1-4.38,2-1.66.5-3.54,1.04-5.25,1.25-.04,0-.02.46-.62.5-.07,0-.82-.5-.88-.5-.33,0-.67.02-1,0-1.71-.09-3.09.02-4.75-.75.4.51,1.37,1.82,2.53,3.38.93,1.25,2,2.66,3.01,3.97,1.77,2.29,3.37,4.24,3.84,4.4.21.07.47.12.77.14s.63.03.98.02c.35,0,.72-.01,1.09-.02.19,0,.37,0,.56,0,1.48,0,2.87.15,3.17,1.18.04.13.06.27.06.43,3.45-.79,1.96-2.69,4.25-1.5,1.62-.95,14.05-7.09,14.25-7.88.22-.86-2.33-15.3-3-17.5l-.5.12c-.13,1.3-.4,2.6-1.25,3.62-1.83,2.2-1.99.59-2.12.62Z"/><path class="c" d="M14,122c1.36,0,3.54-.2,4.75-.75,7.36-3.35,4.16-16.74-2.75-16.75-.92,0-.79.33-1.25.5-.05.02-.34.64-.62.75-2.18.84-1.92-.72-2.88-2-3.37-4.55-7.38-5.35-11.25-.5v11.81c3.12,4.25,9.05,6.91,14,6.94Z"/><path class="c" d="M8.88,221c2.08-.35,3.93-1.37,5.88-2-4.23-2.81,3.16-4.34.5,0,3.16-1.07,4.88-1.97,7.75-3.5-1.78-3.19,1.56-4.04,1.75-.75,3.7-2.15,10.49-6.4,10.5-11.25,0-1.07-.84-1.99-1-2.5l-5.75-3c.3,3.14-1.07,3.7-3.25,5.5,2.36,3.47.13,2.83,0,3-.06.08-.23,1.27-1.12,1.75-.61.32-1.14.17-1.38.25-.13.52-.75.64-1,1-.38.55-.77,1.97-.88,2-.12.04-2.13-1.01-2.25-1-.15.02-1.18,1.36-2.38,2-.37,1.56-1.37,1.17-2.5,1.25-1.51.1-2.45-.2-3.5-.25-1.3-.06-1.16-.09-2.25-.25-1.47-.21-5.97-.85-7-1.75-.08-.02-.17-.02-.26-.01-.19.02-.4.11-.63.24-.04.02-.08.05-.11.07v9.21c2.66.48,5.33.59,8.88,0ZM30.88,202.5l1.25.25c2.59,4.34-5.1,2.88-1.25-.25ZM26.38,209.25c4.37.03.92,5.58-.62.88l.62-.88ZM8.88,215.25c4.3,1.24-1.02,6.1-1.38,1.12l1.38-1.12ZM4.62,218.25l1.38.88c.4,3.64-3.88.94-1.38-.88Z"/><path class="c" d="M.5,209.5c.09-.45.52-8.66-.5-9.4v10.81s.02-.03.03-.04c.2-.37.37-.81.47-1.37Z"/><path class="e" d="M5.5,49.25c.87-.24,2.63-.89,3.75-1.25.73-.24,1.53-.49,2.25-.75.51-.18,1.03-.57,1.5-.75.47-.18.82-.48,1.5-.75l5-4.25c.01-.08,0-.17,0-.25v-.75c-.03-.57.09-1.35,0-1.75,0-.03-.44.09-.5-.12-.3-1.06.09-2.3-2.62-4.62-3.66-3.13-4.98-1.85-5.25-2-.16-.09-.02-.84-.75-1.25-.57-.32-3.29-1.29-3.5-1.5-.8-.81.14-2.05-1.38-1.5-.34.85-.96.7-1,.75-.89.99-3.65,3.9-4.5,3.5v18.58c1.28-.25,2.63-.67,4.25-1.08.39-.1.9-.15,1.25-.25ZM4.38,29.5c3.62.06,3,4.39-.38,1.38l.38-1.38Z"/><path class="e" d="M43,252.25c-1.21-1.09-.97-1.96-1.5-2.62-2.59-3.27-4.43-2.18-4.88-2.38-.08-.04-.35-1.31-1-1.5-.96-.28-2.73.71-3.25.5-.11-.05-.52-1.36-1-1.5-.93-.27-4.12,1.37-4.5,1.25-.51-.16-.33-.98-.38-1-2.29-1.19-.8.71-4.25,1.5.61,4.14-3.81,6.23-4.5,9.5h24.18c.23-.57.42-1.2.57-1.82.17-.68.32-1.35.49-1.93ZM23.88,247h1.25c4,3.29-5.51,5-1.25,0Z"/><path class="e" d="M6,60c3.01.05,4.53-.72,6.62,1.25,1.14-.68.03-1.49.5-1.75.89-.5,10.59-1.22,18.12-8.75.06-4.46-.09-6.84-4-9.75-1.51,5.06-5.4,8.45-9.75,11-1.03.6-1.92,1.02-3,1.5-1.11.5-2.92,1.64-4.12,2-2.23.67-6.57,1.28-10.38,1.25v3.48c.09,0,.18.01.25.02.81.05,4.1-.28,5.75-.25ZM8.12,57.5c1.67-.13,1.3.53-.12.12l.12-.12Z"/><path class="e" d="M10,225c.57-.05,1.2.08,1.75,0,.14-.02.93-.33,1.75-.5,1.82-.38,4.02-1.06,5.75-1.75,6.24-2.48,14.09-7.5,17-13.75-.04-.53,1.13-3.79-1-5.5,0,4.85-6.8,9.1-10.5,11.25-.9.52-1.67.71-1.75.75-2.87,1.53-4.59,2.43-7.75,3.5-.13.04-.37-.04-.5,0-1.95.63-3.8,1.65-5.88,2-3.54.59-6.22.48-8.88,0v2.89c1.87.73,2.47.86,5,1.1,1.87.18,3.15.16,5,0Z"/><path class="c" d="M14.5,53.5c-.85-2.62,2.22-4.54,3-1.5,4.35-2.55,8.24-5.94,9.75-11-2.27-1.69-4.84-2.6-7.75-2.25.09.4-.03,1.18,0,1.75,0,.04,0,.71,0,.75,0,.08.01.17,0,.25-.66,4.85-2.56,3.29-5,4.25-.68.27-1.03.57-1.5.75.32.34-.66,1.95-.75,2-.08.05-.46-.03-.75,0v.25c.11.04.79-.02,1.62.5,2.67,1.65.29,6.45-2.62,5-1.25,2.29-3.78-.43-2.5-2-.69.04-.77.49-.88.5-.18.02.15-.4-.62-.5-.21-.03-1.41,1.63-2.25-2.75-1.62.4-2.97.83-4.25,1.08v6.17c3.81.03,8.15-.58,10.38-1.25,1.2-.36,3.01-1.5,4.12-2ZM21.88,42.25c5.96.26-.25,6.71-.62.62l.62-.62ZM18.12,45.5l1.62.38c.83,2.53-3.04,1.98-1.62-.38Z"/><path class="c" d="M2,200.38c.37.78-.87,4.1-.75,5.5.02.23,2.4,1.85-.5,3.62-.16.64-.35.98-.26,1.32.05.2.2.41.51.68,1.03.9,5.53,1.54,7,1.75.94-1.48,1.42-.64,2.25.25,1.05.05,1.99.35,3.5.25.49-1.15,1.88-.92,2.5-1.25,1.2-.64,2.22-1.98,2.38-2,.12-.01,2.13,1.04,2.25,1,.1-.03.49-1.45.88-2-1.17-1.24.88-.96,1-1,.23-.08.77.07,1.38-.25.89-.48,1.06-1.67,1.12-1.75l-1.25-2c-1.7,1.09-3.65,2.25-5.75,2.5-.01,1.04-2.64,1.5-2.25,0-4.04-.14-9.98-3.38-10-8-.88-2.83-.44,1.27-6-.5v1c.5.38,1.81.47,2,.88ZM11.12,209c.89.8.14,1.49-.62.62l.62-.62ZM9.62,207.5c1.01.47-1.58,2.32-1.5,0h1.5ZM4.25,211.12c1.84-1.22-1.63-1.13,2.38-2.62l1.12,2.12c-1.28,1.34-3.74,1.65-3.5.5ZM5.88,203.25c2.73,2.4,1.23,2-1.25,3.5-1.34-1.35,1.62-1.57-.62-2.12l1.88-1.38ZM5.12,200.5l.25,1.25c-3.15,1.3-3.83-.49-.25-1.25Z"/><path class="c" d="M6.25,233c1.66.77,3.04.66,4.75.75l.38-.5c-1.24-.24-1.77-.4-2.88-1-5.9-3.2-5.34-5.6-2.75-4.25l.25-.25c-.18-.1-1.49-2.13-1-2.75-2.53-.24-3.13-.37-5-1.1v1.34c1.78,2.79,4.21,5.17,6.25,7.76Z"/><path class="c" d="M8,68.25c-2.77-1.64-5.97-5.28-7.75-8-.07,0-.16-.01-.25-.02v2.82c1,.61,6.47,7.49,8,5.2Z"/><path class="c" d="M9.25,69c-.41-.26-.83-.5-1.25-.75-1.53,2.28-7-4.59-8-5.2v2.95c.54.7,1.7,2.78,2,3.5,2.44.13,4.84-.21,7.25-.5Z"/><path class="c" d="M.5,209.5h.25c2.9-1.77.52-3.4.5-3.62-.12-1.4,1.12-4.72.75-5.5-.19-.41-1.5-.5-2-.88v.6c1.02.73.59,8.95.5,9.4Z"/><path class="c" d="M122,2.5c-.38,2.13-.96.82-2.25,1-3.3.46-2.03.68-3.75,1.5,3.57.45,1.17,4.48-2.5,1.25-1.13.59-3.31,2.26-4,2.5,2.52,2.94-2.03,4.04-1.5.25-2.33.37-1.97.29-4-.5-.15-.06-.93.84-2.25-2-2.9-1.27-3.27-1.9-5-4.25-.42-.57-.77-1.23-1.25-1.75h-.25c-4.58,3.35-9.41,6.48-6.75,13,1.34,3.27,11.8,9.83,13.88,4.5,2.07,3.29,9.2.28,12.5-.5.89-.21,4.56.36,9.25-3,2.64-1.89,5.49-5.65,5.62-9,.08-2.03-1.23-3.98-2.5-5.5h-5.52c.28.44.52,1.1.27,2.5ZM94.88,12.25h1.5c2.71,4.32-4.74,3.55-1.5,0ZM96,6.38l.88-.88c5.28.33-.54,6.59-.88.88ZM99.75,12.38l1.12-.88c5.02,1.59-1.95,5.94-1.12.88ZM109.88,14.5h1.25c3.32,3.82-3.87,4.2-1.25,0ZM116.5,10.62l.88-.62c5.17,1.17-1.84,6.23-.88.62ZM123.38,6.5h1.5c3.25,3.59-4.15,4.37-1.5,0Z"/><path class="e" d="M214.5,9.5c4.34,3.34,6.34-.69,6.88-.5,2.82,6.95,2.39-2.4,6.75,3,4.46-3.62,4.11.16,5.25.25.28.02,2.3-2.01,2.5-2,1.06.06,1.58,4.78,5.25-1,4.38,6.18,2.28-2.52,6.62.75.2-.55,5.32-3.56-1.25-10h-8.11c-.74,1.01-1.41,1.92-1.52,2-.86.7-4.26,1.64-5.25,1.5-.39-.05-4.37-1.91-7.62-3.5h-7.75c-3.08,2.55-5.91,6.31-1.75,9.5Z"/><path class="c" d="M41.25,1.25c-.41.53-.76.88-1.75.75-.09.11-.18.21-.25.32-.22.32-.35.64-.45.91-.13.37-.19.65-.3.77,1.11,1.61-.89,2.47-1.5,1-.08.05-1.26.14-1.88.5-1.24.73-1.62,1.21-1.76,1.48-.05.11-.07.18-.09.23,0,.02-.02.04-.03.05l.5,1c1.61,1.43-.15.27-.25.25-.42-.09-2.13-.5-2.25-.5-.42-.01-.8,0-1.16.04-.71.08-1.32.24-1.82.44-.75.3-1.27.68-1.6.94-.22.18-.36.3-.42.33-.12,2.5-3.87,1.79-5.75,1.75-1.84-.04-2.26.27-2.38.25-.22-.04-.08-.39-.12-.5-.05-.12.38-1.74-1.75-.75-.02.52-2.07,6.34,2,9.75,3.22,2.7,8.45,1.55,11-1.5,1.04-3.33,1.59-5.58,2.88-2,3.51-1.49,6.65-3.65,9.62-6-5.41-1.91,1.58-5.58.5-.25,2.41-1.98,2.26-1.96,4-4.25-1.35-1.91-.84-2.1,1.25-1.75.12-.21,2.04-1.28,1.25-4.25-.02-.08.03-.18,0-.25h-6.82c-.02.05-.04.1-.06.15-.18.41-.38.78-.63,1.1ZM19.75,14.88l.88-.62c5.33,1.21-1.78,6.42-.88.62ZM27.12,15c-2.84-1.62.12-3.43,1.5-5,.59.16.87,4.76-1.5,5Z"/><path class="c" d="M96.75,2.25c1.73,2.35,2.1,2.98,5,4.25.17.08-.12-1.66,2.25,2,2.03.79,1.67.87,4,.5.37-.06,1.42-.22,1.5-.25.69-.24,2.87-1.91,4-2.5.87-.45,1.61-.83,2.5-1.25,1.72-.82.45-1.04,3.75-1.5.44-.89,1.37-1.1,2.25-1,.25-1.4,0-2.06-.27-2.5h-12.43c0,.17-.04.34-.17.49-.08.1-.2.2-.37.29-.16.09-.37.16-.64.22-.37.09-1.68-.16-2.91-.43-.27-.06-.54-.12-.79-.19-.13-.03-.25-.06-.37-.09-.23-.06-.45-.11-.63-.16s-.33-.09-.43-.13h-2.27c0,.59.18,1.47,1.77,2.38-1.76,4.64-6.01,2.14-2.72-2.38h-1.64c-.2.46-.42.92-.68,1.34-.2.33-.43.63-.71.91ZM110.88,1.5c1.48,1.06,5.79,3.35,2.25,4.25-.92-1.71-4.18-3.87-2.25-4.25ZM108.38,4c.75-.41,1.04,1.19-.12.62l.12-.62ZM105.12,3.25c6.26,3.1-1.84,6.81-1.62.88l1.62-.88Z"/><path class="d" d="M174.99.86c-.01.06-.05.12-.16.15-.07.02-.18.02-.32,0,.22.52.38.6.75,1,1.84,2,4.55,3.31,5-.5-.23-.1-2.02-1.15-2.25-1.5-.31.04-.87.46-3,.75-.01,0,0,.05-.01.11Z"/><path class="c" d="M95.5.5c-.22-.24.85-.29-.5-.5l.25.5h.25Z"/><path class="e" d="M167.5,240.75c-2.71.63-6.42,1.55-9.12,1.75-1.9.14-6.82.21-4.12-.62-6.39,1.92-13.63.46-20.25-.62,1.06,3.84,3.11,11.61,4.25,14.75h25.5c1.33-4.48,2.55-9.11,3.75-13.62.24-.92-.02-1.55,0-1.62Z"/><path class="e" d="M176.12,254c1.34-.35-2.26-3.68-2.88-2.88,2.11,2.19.78,2.53,1,4.88h.73c-.08-4.37.58-1.85,1.14-2Z"/><path class="e" d="M240.5,119.75c-.05,2.18-.25,16.07,0,16.88.48,1.53,10.6,5.71,15.5,6.38v-22.16c-5.43-2.23-10.56-5.36-14.62-8.84-1.08.15.4,7.21-.88,7.75Z"/><path class="e" d="M237.5,169.5c-2.71,5.94,3.3,2.56,3.62,2.75-1.91,5.16,4.4,2.1,4.75,2.25.35.15.6,2.82,1.25,3,1.39.38,2.53-4.13,4.62,1.75,1.44-1.3,3.34-2.1,4.25-4v-1.75l-2.5-3.25c-6.65,3.13-14.66-.67-16-.75Z"/><path class="d" d="M223.12,114.5c-.45.26,3.59,9.07-4.12,2.25-1.08.56-.7.73-.75.75,2.36,6.86-1.34,1.5-4,1.25-.19.07-.31.18-.5.25,3.61,8.15-2.23,1.08-3.12,1.75,1.54,6.07-1.25,3.46-2.88,0-.66.16-1.33.38-2,.5,2.32,4.45,1.39,6.09-1,3.25l-2.75-1.12c.18,5.54-.66,7.84-3.5,1.62l-1.5.12c.49,2.23.21,3.21.25,3.38.34,1.32,11.05,18.29,12,19.12,1.09.95,3.95.12,5.5-.12,0-.17-.07-.43.12-.5,4.46-1.57,9.96-2.27,16.38-6.5.4-3.74-1.85-19.78-1.75-25.75-.02.02-.14.03-.5.25-1.49,4.04-2.17,2.15-5.88-.5Z"/><path class="d" d="M187.38,26.75c-2.62-1.25-1.77-2.12-4.62-1.5,4.1,7.65-2.16,1.83-4,1.75-.29,1.11,3.82,7.12-4.12,1.75-.49.37,3.24,7.61-4.12,1-.35.07-.64.19-1,.25,2.33,8.71-3.6,1.32-4.12,1.75-.96,8.36-3.1,1.5-4.25,1.5-.19,0-2.44,2.21-2.88,2.5,2.07,3.13,11.9,20.98,14,21.75,7.16-2.48,14.8-4.09,21-8.75.3-3.68-2.04-16.87-2-23.5l-1.75-2.75c-1.27,1.39-2.74.28-2.12,4.25Z"/><path class="d" d="M138.12,71.75c-5.2,5.92-4.02-.61-4.75-1-4.18.78-4.84,4.84-5.12-2.25-4.01.82-5.08,5.01-5-1.38-3.3-2.68-4.08,7.27-5.38-2.38-3.66,1.96-6.08,3.7-3.38-1.75-1.88,1.1-5.3,2.14-6.75.25.45,3.79-.7,24.19-.25,25.38.66,1.72,18.59,6.59,20.62,5.88,1.12-.39,12.13-16.88,13.88-19.25-.67-6.8-2.72,4.86-3.88-3.5Z"/><path class="e" d="M175.25,2c-1.44-.38-2.66,2.64-3.75,3.5,3.74,4.47-2.8,7.53-6.5,6-.03.07-.61-.08-1.25.88-1.57,2.37-5.9,7.26-6.25,9.5-.41,2.65.6,5.04.5,5.62,4,2.96,6.46,3.29,11.5,2.5.36-.06.65-.18,1-.25,2.14-.45,6.77-2.81,8.25-2.75.16-.59,3.33-1.6,4-1.75,2.85-.62,2.01.25,4.62,1.5-.62-3.97.86-2.86,2.12-4.25.63-.69.97-.7,1-.75,2.69-4.19-1.74-15.74-5.62-18.5-1.11-.79-4.16-1.55-4.62-1.75-.45,3.81-3.16,2.5-5,.5ZM167.62,20l.88.62c-1.26,1.36-1.64-.39-.88-.62ZM174.5,19.88l.88-.88c5.03,1.55-2.03,4.62-.88.88Z"/><path class="d" d="M247.12,177.5c-.65-.18-.9-2.85-1.25-3-.35-.15-6.66,2.91-4.75-2.25-.33-.19-6.34,3.19-3.62-2.75-2.5-.16-4.06,1.84-4.25.88,2.9-5.99-2.46-2.65-2.88-2.88-.24-.13,2.67-3.58-1.12-3.25-1.02.09-2.71,1.07-2.88,1-1.12-.45.95-5.58-2.88-2.25-.23,2.53-5.59,16.34-6,22,5.63,5.5,10.8,7.96,18,10.75,1.13-.41,12.75-13.35,16.25-16.5-2.1-5.88-3.23-1.37-4.62-1.75Z"/><path class="d" d="M241.12,9.25c-3.67,5.78-4.19,1.06-5.25,1-.2-.01-2.22,2.02-2.5,2-1.14-.09-.79-3.87-5.25-.25-4.36-5.4-3.93,3.95-6.75-3-.53-.19-2.53,3.84-6.88.5l6.5,23.38c2.09,3.34,20.71.8,21.75-.5.71-.9,3.86-19.19,5-22.38-4.35-3.27-2.25,5.43-6.62-.75Z"/><path class="e" d="M209.75,60.5c.42.51.63.58,1.25,1.5,1.01.31,1.97.36,3,.5.9.13,1.9.41,2.75.5.78.08,1.74.21,2.5.25.41.02,1.27,0,1.75,0,.57,0,2.61.01,2.75,0,.6-.05,1.39-.16,2-.25.37-.06,2.61-.47,2.75-.5.08-.02.08-.27,1.5-.75.78-.27,3.27-1.13,3.5-1.25.04-.02.5-.34.75-.5.65-.41,1.43-1.65,2.25-1.75-.26-2.59,3.27-5.16-5.88-15.25-.1-.11-.77.3-1.38-.38-.71-.78.4-3.02-3.25-2.75.25-4.81-1.89-1.13-5.62-4.88l-.62.38c1.08,4.19-3.8,2.8-4.12,2.88-.81.19-1.51,2.52-1.62,2.62-.51.48-2.32.63-5.5,5-5.12,7.03-2.33,8.22-3.25,10.88,1.87.86,3.2,2.18,4.5,3.75Z"/><path class="d" d="M212.88,221.5c-3.37,6.9-4.42,1.31-5,1.25-.41-.04-2.91,4.89-5.25-.5-4.02,5.12-4.9-.85-5.25-1-.65-.28-4.33,5.35-5.25-1.5-1.34-.5-3.56,5.78-6-2.75l-2.12,1.75c1.04,3.96,4.03,20.89,4.5,22.12,1.27,3.35,10.63,4.77,13.88,4.62.46-.02,8.62-1.24,9-1.5.89-.61,5.12-16.43,6.88-20.5l-1.62-2.75c-.86,4.47-1.49,4.8-3.75.75Z"/><path class="e" d="M210.12,191.25c-1.44-.25-.3,2.58-4.88,2.75.43,1,.61,2.11,1,3.12-5.63,6.7-7.16,1.38-8.5.88-.61-.23-3.7-.25-4.38,0-.35.13-5.95,4.04-6.12,4.38-.39.76-.39,5.57-.25,6.62.57,4.13,4.44,6.63,8.38,7.25,2.41.38,4.43-1.09,5,1,4.92-.48,13.78.41,17.88-2,3.79-2.23,1.87-6.14,1.75-7.62-.07-.88.33-2.56.25-3-.18-.97-1.74-2.47-2.25-3.5-.06-.11.06-1.43-.5-2.5-.58-1.09-6.11-5.7-7.38-7.38ZM199.62,207.5l1.38,1.12c-1.4,2.16-3.35.85-1.38-1.12Z"/><path class="d" d="M89.62,229c-.93-.51-1.29-3-1.75-3-3.54,6.84-3.35.8-4,.5-1.04-.47-3.16,6.14-4.25-.5-5,5.56-2.94-.4-4-.75-4.96,4.8-2.92-.41-4-.75-7.02,5.03-1.34-3.8-9,.25.15-6.94-3.77,2.68-4.25-4.5l-1.88,1c1.33,3.67,3.27,21.04,4,21.88,1.06,1.2,19.33,6.2,21.38,5.38,1-.41,8.87-16.59,10.38-19,.16-1.09-1.31.22-2.62-.5Z"/><path class="d" d="M91.12,174.75c-3.02-6.51-2.84,4.95-7-2-3.33,5.25-3.62.45-4.25.25-.27-.08-2.17,1.8-2.5,1.75-1.67-.23.92-3.87-4.25-.5-2.17-5.93-3.8,2.17-5-3.75-4.89,3.88-1.9-2.11-2.5-2.5-1.66,1.32-3.9,2.13-5.88,1.25,1.24,7.12,2.58,14.2,3.5,21.38,1.95,3.02,15.56,5.61,18.12,5.12.61-.12,2.15-1.3,2.62-1.88.7-.84,8.66-16.72,10-19.38-1.62-4.61-1.83.42-2.88.25Z"/><path class="d" d="M84.12,55.5c-4.58-7.75-2.72,1.1-4.75.75-.21-.04-2-3.33-2.12-3.75-2.55-1.19-.62,2.74-2.38,4-4.65-10.16-2,5.65-4.88-2.88-2.44-1.58-1.73,7.41-3.5-.88-.91.03-1.83,0-2.75,0-.49,5.7-1.36,3.92-2.5-.25-2.45.04-2.27-1.29-1.5,3,.43,2.37,5.73,21.38,6.5,22.25,1.95.15,4.06.48,6,.5,2.63.03,13.59-1.54,14-2.12.64-.91,1.56-18.75,2.5-22.12-4.71-6.66-.63.63-4.62,1.5Z"/><path class="d" d="M233.5,60.5c1.24,5.38-1.62,6.1-3.5,1.25-1.42.48-1.42.73-1.5.75.06,2.68-1.6,2.91-2.75.5-.61.09-1.4.2-2,.25.21,2.05-2.27,1.84-2.75,0-.48,0-1.34.02-1.75,0-.52,1.69-2.23,1.66-2.5-.25-.85-.09-1.85-.37-2.75-.5-2.07,3.82-1.89,1.14-3-.5-.62-.92-.83-.99-1.25-1.5.03.31-.24.23-.25.25-.69,1.43-1.94,2.18-3,3.25,1.01,3.04,3.29,18.19,4.25,20.62,1.62,4.1,16.04,1.46,20.12,1.38,1.28-2.52,4.86-19.4,4.88-20.75.02-1.35-.75-4.04-1.5-5.25-.25.16-.71.48-.75.5Z"/><path class="e" d="M132.62,207c2.5-6.25,5.66-12.21,8.88-18.12-12.44-.09-23.28-1.4-34.25-7.62.34,2.82,3.31,22.87,3.75,24,7.3,3.77,13.81,3.83,21.62,1.75Z"/><path class="e" d="M134.5,225.88c4.05,1.45,4.13,2.3,4.38,2.38.59.18,4.12-.16,4.75.25.32.21.29,1.31.75,1.5.57.24,3.41-.29,5.5-.25.13,0,1.47.81,2.5.75.39-.02,2.33-1.06,3-1.25.44-.12.95.45,1.5.25.27-.1,4.78-2.8,5-3,.69-.62,2.49-3.76,2.62-4.5.47-2.58-1.29-8.36-2.75-10.62-2.17-3.37-10.01-8.96-11.12-9.12-.04,0-.18.09-.88.25-.07.02-1.04.62-1.25.75-.91.57-3.71,3.52-3.5,4.5.07.34,3.56,2.68,1.5,5.62-2.32,3.31-5.3.08-7-.12-.33-.04-3.45.19-3.62.25-1.72.58-3.35,6.54-2.88,9,.39,2.05,3.4,2.75,1.5,3.38ZM152.12,215c3.66.18-.54,4.83-.62.38l.62-.38Z"/><path class="e" d="M193.5,115.75c.82-1.16,6.05-3.64,6.88-3.75,7.29-.99,3.18,8.24,3.12,9.5.74,0,1.52-.12,2.25-.25.67-.12,1.34-.34,2-.5,1.99-.49,4.08-1.06,6-1.75.19-.07.31-.18.5-.25,1.15-.43,2.26-.98,3.38-1.5.29-.13.46.33.62.25.05-.02-.33-.19.75-.75.91-.48,5.71-3.6,6.5-4.25,1.67-1.37,1.73-2.27,2.25-2.25-.73-1.88,1.4-3.59-3.5-9.38-3.59-4.24-7.9-5.91-13.38-6.12-2.3-.09-6.13-.01-7.62,1.62-.09.1.09.65,0,.75-.88.98-4.21,4.92-4.25,5.88l3.62-2.75c6.38,6.5-.6,7.21-1.88,7.75-.74.31-1.57.55-2,.75-3.48,1.59-2.21,1.76-2.75,2.38-4.77,5.51-3.16,3.69-2.5,4.62ZM216.62,103.5l.88,1c.55.18.2.64-.25.5.59,1.93-3.97,1.16-.62-1.5Z"/><path class="e" d="M102.88,124.25c3.73,2.66,4.52.74,5,.75.15,0,2.04.89,3,.75,1.58-.24,1.34-2.62,4.25-1.25.39-.32-.15-.51-.12-.75-.24-.03-.55.06-.75,0-.7-.2-2.36-2.68-2-3.12,3.35-.44,2.52-.15,2.75,2.12,0,.08,0,.17,0,.25,1.42-.05,2.92,1.31,4.38,1,1.07-.23,7.52-4.4,8.62-8,1.39-4.53-1.29-6.42-1.5-6.88-.27-.59-.89-4.02-3.62-6.12-2.37-1.82-13.87-4.6-13.88,0,4.31,3.76.93,4.75-3,5.5-.94.18-2.03.15-3,.5-.21.63-5.6,6.49-3,12.25.09.19,2.55,2.77,2.88,3ZM101.88,115l.62,1.38c-1.37,3.27-1.17.43-.62-1.38Z"/><path class="e" d="M129.5,47c-.03.12-.01.34,0,.5,0,.11,1-.08.5,1.88-.43,1.69-3.85,1.66-4-.38-.3-.82-7.26.84-7.62,1-.31.14-4.73,4.32-4.88,4.62-.05.11-.49,2.25-.5,2.38-.3,2.99.32,3.65,2.5,5.25,2.41,1.76,9.94,4.59,13,5.25,5.64,1.22,3.94.06,4.62,0,.28-.02,1.17,1,1.25,1,2.32.11,5.9.21,7.88-1,2.37-1.45,2.01-4.76,1.75-7.38-.56-5.51-6.33-14.02-7.12-14.12-.5-.06-4.27,2.85-5.62.75-.49.24-1.21.28-1.75.25ZM121.12,59l1.38.38c2.48,2.29-5.08,4.36-1.38-.38ZM139.25,54h.25l.75-.12c1.87,4.02-5.3.88-1,.12ZM135.12,54l.88.38c.17,2.07-2.67,1.05-.88-.38Z"/><path class="e" d="M65.25,51.5c1.87.65,2.36.74,4.5,1,2.27-.14,5.37-.28,7.5-.75,1.79-.4,9.42-3.35,10.25-4.75,1.63-10.94-3.41-16.67-12.62-21.5-1,.62-.3,1.48-1,2-1.07.8-5.24-1.27-4.88,4,.16,2.29,2.87,3.53-5.25,4.25-1.36,1.32-2.71,2.19-3.75,3.88-.33.53-2.45,5.2-2.5,5.5-.03.16.5.34.5.38l8.12-4.75c2.78,4.97,3,6.14-.88,10.75ZM78.88,40.75c2.58-.29,2.12,3.54-.38,2.12l.38-2.12Z"/><path class="e" d="M55.25,110.62c.24.42,8.15,4.05,8.62,4.12,1.2.19,2.93-.7,3.75-.5.22.05,1.26,1.44,1.5,1.5.51.14,2.19-.31,4.25-.25.19,0,.69.79,1.75.75.81-.03,6.35-3.24,7.38-4,2.44-1.81,3.9-1.99,3-8.88-.45-3.46-4.49-9.2-5.12-9.38-1.26-.36-2.17,2.56-3.62-.25-.92,1.53-1.38,2.38-3.25,2.5-3.6,4.84-3.61,2.79-7.5,3.25-1.07.13-2.18.36-3.25.5-3.42.46-6.06-.22-7.25,6-.21,1.07-.76,3.72-.25,4.62ZM70.62,108.75l1.62.62c-1.06,2.25-3.39,1.06-1.62-.62ZM63.88,104.5l1.62.62c.13,2.82-3.08,1.65-1.62-.62Z"/><path class="e" d="M107.38,155c1.42.81,18.08-1.46,20-2.5.11-.06,1.09-1.04,1.12-1.12.37-.79,2.02-15.27,2-17.38,0-.54.72-1.46-.12-1.5-8.7,5.08-19.01,6.02-28.88,5.75.62,2.24,4.8,16.14,5.88,16.75Z"/><path class="e" d="M47.62,18.75c-1.53.66-2.38-.04-2.5,0-2.88,1.07-6.56,3.47-13.12,4.75-2.1.41-5.82,1.03-7.75.5,1.29,2.06,11.47,14.64,12.38,15,1.97.79,18.3-3.42,18.88-4.88.36-.9-3.24-15.32-3.75-17.62-3.83,1.35-3.9,2.15-4.12,2.25Z"/><path class="c" d="M241.25,243.12c-.67-4.7-7.09-9.41-12.25-3.38-.51.69-.95.02-1,0-3.07-1.1-4.26-5.32-11,3.12,1.6,2.36-.35,2.96,0,4.5.02.1.84.71,1,1.25.32,1.1,1.12,4.39,1.75,5.12.17.2,2.04,1.17,4.25,2.25h14.39c.96-1.32,2.04-2.84,2.11-3,.83-1.88,1.03-7.9.75-9.88Z"/><path class="e" d="M166.88,122.5c-7.49.82-15.87-3.78-21.62-8.25-.32,2.34-2.29,17.1-1.75,18.12.48.93,17.08,6.64,19.88,5.88,1.08-.29,8.78-15.08,9.88-17.25-1.72-.32-4.68,1.31-6.38,1.5Z"/><path class="e" d="M68.62,146.25c1.3-.31,8.03-13.52,9.12-15.5-2.79-.11-5.53-.64-8.25-1.25-.34-.08-.66-.17-1-.25-4.47-1.09-12.15-3.92-16.5-5.75-.51-.22-.99-.53-1.5-.75-.04,2.5-.81,16.32-.5,17.12.41,1.08,17.12,6.73,18.62,6.38Z"/><path class="e" d="M229.25,164.25c3.79-.33.88,3.12,1.12,3.25.42.22,5.78-3.11,2.88,2.88.19.97,1.75-1.03,4.25-.88,1.34.08,9.35,3.88,16,.75,4.01-8.01.32-14.76-6.5-19.75-.17,0-.33,0-.5,0-.28-.01-.85-.59-1.12-.5-.48.17-.24,1.01-.75,1.25-.84.4-3.81.6-3.88,1.75.15.15,1.17,1.81,2,2.62-6.32,3.36-6.92-.22-8.75-.38-.16-.01-.34-.02-.5,0-.3.04-4.65,2.13-5.5,2.5-.02,0,.1.1-.25.25,1.38,2.19-1.46,1.84,1.5,6.25ZM246.12,158c3.83-.29,2.62,2.97-.12.88l.12-.88ZM245.12,154.5c1.7-.63-.55,5.13-2.12.62l2.12-.62ZM237,163.62l1.38-.62c2.39,1.99-1.99,4.39-1.38.62Z"/><path class="c" d="M188.5,158.5c-.22.78-.71,1.92-1.25,2.5-.64.69-2.14,1.46-3,2,.07,1.96-.93,3.06-2.75,3.75,2.18,4.35-1.28.59-1.5.5-3.63-1.52-6.69.21-7.38,0-.78-.24-.68-1.16-.88-1.25-.53.4-.46.01-.75,0-2.39-.12-2.85-.22-3.75-2.5-.36-.28-1.31-.57-1.75-1-1.47-1.44-.17-1.27.75-2.25.04-.05.37-.13,1-.75.36-.36.86-.91.75-1.5-.43-.36-.96-.92-1-1.5-.6.62-8.35,2.29-7,12.75.54,4.16,1.96,5.32,6.12,6.25,10.42,2.32,28.47-1.83,30.12-14.5-.28-.77-.12-4.36-3-7.25-.21.4-3.3,3.83-4.75,4.75ZM166.88,170.5h1.25c3.08,3.35-3.83,3.94-1.25,0ZM172.25,170.88l.88-.88c4.23.97-.7,5.33-.88.88ZM186.75,164.88l1.12-.88c4.43,1.28-.99,5.64-1.12.88ZM190,160.12l.88-.62c5.54.75-1.43,6.37-.88.62Z"/><path class="e" d="M188.5,184.5c-4.96,2.04-11.41,3.55-16.75,3.5-2.47-.02-4.9-.22-7.25-1,0,.02-.41.01-.25.38.81,1.84,6.56,13.16,7.62,13.62,1.95.86,17.43-.78,19.75-2.5,1.73-1.28,3.15-15.07,3.62-18-.66.43-1.11,1.04-1.75,1.5-1.26.9-3.52,1.89-5,2.5Z"/><path class="c" d="M77.12,207.25c-2.61-8.83-13.44-1.72-12.62,5.75.44,4.01,7.02,8.13,10.62,9,1.72.42,2.38-.01,2.5,0,.2.02.05.48.25.5,3.6.28,8.43-1.18,10.38-4.5,3.43-5.85-.25-13.66-7.5-12.75-.69.25-1.33.42-2,.75-.09.04-1.25,1.03-1.62,1.25Z"/><path class="d" d="M168.5,92.75c1.14.56,7.16,2.35,8,2.25,2.1-.24,5.6-5.15,6.25-7.12,3.1-9.44-2.29-17.76-9.88-13.88-1.36.7.25,1.89-4.88,1.12.47,1.47,1.51,2.67,2,4.12.05.15,1.39.45-.38,2.75-.99.2-.31-1-1.12-2.5-.54-1-1.53-1.7-1.75-2-3.68.13-6.83,3.42-6,7.12.2.89,2.71,3.07,2.25,3.88.31.07,2.71,1.95,3.5,2.5,1.45-1.37,2.39-.48,2,1.75Z"/><path class="e" d="M178.88,138.25c-.88,4.61-1.56,3.13-2.38,4.38-.81,1.24-2.19,3.98-2.38,4.12-.42.33-2.12.26-2.88,1.12-.32.36-3.35,7.69-4.25,8.62.04.58.57,1.14,1,1.5.41.34,3.92,2.38,4.25,2.5.25.09,1.93.4,2.5.5.37.06,1.19.24,1.25.25.09,0,1.36,0,1.75,0,.09,0,1.21-.2,1.75-.25,3.42-.31,6.05-.63,9-2.5,1.45-.92,4.54-4.35,4.75-4.75.03-.05-.13-.43.5-.88-6.69-9.52-7.68-7-8.12-7.38-.25-.21-.17-1.72-.25-1.75-.45-.15-2.68,1.85-6.5-5.5Z"/><path class="e" d="M43.25,187.88c.31-.81.2-14.95.25-17.38-7.51,1.17-14.88,2.71-22.5,3,.63,2.04,4.2,16.11,5.12,16.5.76.32,14.29-1.66,16.5-1.5.15-.22.57-.47.62-.62Z"/><path class="e" d="M38.88,92c-.25-.15.47-.95-.75-1.25-1.35-.33-11.76-.22-14.38-1.5-.15.2-.93.59-1.25.75.25,2.45-.33,16.1,0,16.88.32.75,15.36,2.9,16,2.25.61-.61,4.72-14.24,5.5-16.38-.17,0-.33,0-.5,0-.49-.03-4.42-.63-4.62-.75Z"/><path class="e" d="M26.5,64.5l4,6.12c-.13.17-3.96.23-4.25.12-1.12-.08-.02,2.83-.75,4.5,1.97,2.97,1.72,2.15,5.5,2.5.14.01,1.88-1.06,2,1,1.47.24,2.92.28,4.38.5.15.02.86.93,1.25,1,2.26.4,6.4-.65,8.38-2,5.65-3.86-.23-14.79-4.75-17.75-.44-.29-.47-.49-.5-.5-.89-.42-9.13-2.25-5,.25.56-.28,2.19.35,2,1,.08,0,.17,0,.25,0,.16,0,.93-.71,2.62.25,2.41,2.6-1.98,4.74-3.12,2,.46.55-4.15.32-4.38.25-.69-.2-3.04-3.82-3.88-4.5-.61,1.87-2.21,4.03-3.75,5.25ZM36.88,67.5c.41-.17,2.13.81,1.88,1.38-4.05,4.7-4.02,4.41-1.88-1.38Z"/><path class="d" d="M151.5,236.5h2.75c1.39-.48,5.41-.36,7.38-.75.3-.06.39-.73.5-.75.54-.11.71.34,1.12.25.78-.17,1.47-.28,2.25-.5,1.61-.46,3.13-1.01,4.5-2,.22-.91,2.28-2.65,0-6.62-1.21-2.12-3.53-2.91-5.5-4.12-.14.74-1.94,3.88-2.62,4.5-.22.2-4.73,2.9-5,3-.55.2-1.06-.37-1.5-.25-.67.19-2.61,1.23-3,1.25-1.03.06-2.37-.75-2.5-.75-2.09-.04-4.93.49-5.5.25-.46-.19-.43-1.29-.75-1.5-.63-.41-4.16-.07-4.75-.25-.25-.08-.33-.92-4.38-2.38,1.9-.63-1.11-1.33-1.5-3.38l-.38-.25c-3.22,2.82-5.08,9.09-.38,11.5,3.47,1.78,14.82,2.87,19.25,2.75Z"/><path class="e" d="M20.5,159.12c4.01.16,4.14.85,4.38.88,3.95.51,15.9.66,18.12-3.25.36-.64.64-2.85.5-3.62-.09-.51-4.83-8.69-5.25-9-.29-.22-.49-.07-.75-.12-3.91-.88-9.61,1.54-10.12,1.5-.28-.02-4.71-2.52-4.88-2.75-.23.03-.6-.11-.75.12-.29.47-2.99,9.61-2.75,10.75.14.66.94.89,1,1.12.35,1.47.64,2.85.5,4.38ZM27.12,153.5c1.68.07,1.19,2.01-.12.88l.12-.88Z"/><path class="e" d="M104,34.25c-2.24-.55-4.37-1.64-6.5-2.5.62,2,3.4,14.12,4.38,14.75.83.54,18.78,1.2,19.75,1,.97-.2,1.58-.98,1.88-1.88.62-1.88,1.42-13.39,1.75-16.62-1.75,1.85-3.96,2.96-6.25,4-5.85,2.64-8.65,2.82-15,1.25Z"/><path class="e" d="M117.75,173c-4.37-.26-11.25,1.31-11,6.88,0,.07.4.54.5,1.38,10.97,6.22,21.81,7.54,34.25,7.62-3.21,5.92-6.37,11.87-8.88,18.12-7.82,2.08-14.32,2.02-21.62-1.75.67,1.74,8.85,3.63,10.88,3.75,3.54.21,7.47-1.09,11-1.5,2.4-5.41,4.79-10.93,7.62-16.12,3.22-5.91,7.82-6.58,0-14.62-4.15,10.44-21.83,5.19-22.75-3.75Z"/><path class="d" d="M140.5,176.75c3.2-8.04-3.68-9.48-5.5-10.75-.71.83-3.86,3.21-3.75,1-.31.08-.86-.07-1.25,0-.34.06-.34.47-1,.5-3.92.15-3.58-2.91-6.75-2-3.41.98-4.84,4.16-4.5,7.5.92,8.94,18.6,14.19,22.75,3.75Z"/><path class="e" d="M148.5,105.75c.12.11,2.31,1.48,2.75,1.75.05.03.49.21,1,.5.66.37,1.54.65,2.25,1,2.34,1.16,8.8,4.01,11,4.5.57.13,2.07.45,2.5.5,2.37.28,6.56.15,8.75-.5.16-.28,2.77-1.56,1.75-5.88-.32-1.34-3.09-4.73-4.5-4.88-3.26,3.43-20.92,1.32-19.5-8.75-3.3,1.51-9.66,6.09-7.5,10.25.05.09,1.31,1.33,1.5,1.5Z"/><path class="e" d="M16,207c.67.02,1.63.08,2.25,0,2.1-.25,4.05-1.41,5.75-2.5.07-.05.98-.78,1.25-1,2.18-1.8,3.55-2.36,3.25-5.5,0-.08-.41-1.22-.5-1.5-.99-3.12-1.7-2.23-3-3.88-.13-.17.29-1.3-.38-1.62-.39-.19-2.53.57-3,.25-.58-.4,2.7-1.2-8.75-4.75l-2.38,6.5c.34,1.14.33,2.35.5,3.88l-2.75-.88c-.13.17-2.26-.02-2.25,3,.02,4.62,5.96,7.86,10,8Z"/><path class="e" d="M22.75,82.75c-5.02-1.14,2.44-6.79,2.75-7.5.73-1.67-.37-4.58.75-4.5-.91-.34-.94-4.08-1-5.25-3.36,1.93-5.34,1.18-5.62,1.25-2.34.59-4.45,1.37-6.88,1.75-1.16.18-2.33.36-3.5.5-2.41.29-4.81.63-7.25.5.87,2.08,1.48,4.33,2.5,6.38.55,1.1,4.06,7.93,4.62,8.12.63.22,11.75-.81,13.38-1,.19-.02.28-.03.25-.25Z"/><path class="e" d="M77.88,222.5c-.2-.02-.05-.48-.25-.5-.12-.01-.78.42-2.5,0-3.6-.87-10.19-4.99-10.62-9-4.02-.75-10.86,1.62-9.5,6.88.25.96,1.47,1.28,1.5,1.38l1.88-1c.48,7.18,4.4-2.44,4.25,4.5,7.66-4.05,1.98,4.78,9-.25,1.08.34-.96,5.55,4,.75,1.06.35-1,6.31,4,.75,1.09,6.64,3.21.03,4.25.5.65.3.46,6.34,4-.5.46,0,.82,2.49,1.75,3,1.32.72,2.79-.59,2.62.5.94-1.5,8.17-6.98-4-11.5-1.95,3.32-6.78,4.78-10.38,4.5Z"/><path class="d" d="M74.75,123c.6.08,1.14.19,1.75.25,1.74.16,3.77.53,5.5.25,5.02-.8,4.82-9.47.5-11.25-1.03.76-6.56,3.97-7.38,4-1.06.04-1.56-.74-1.75-.75-2.06-.06-3.74.39-4.25.25-.24-.06-1.28-1.45-1.5-1.5-.82-.2-2.55.69-3.75.5-.47-.07-8.39-3.71-8.62-4.12-.51-.91.04-3.55.25-4.62-3.57,0-7.19,4.21-7,7.62.56.68,1.27,1.15,2,1.62.17.11,2.94,1.37,3.75,1.75,5.39,2.49,14.64,5.21,20.5,6Z"/><path class="e" d="M195.38,216.25c-3.94-.62-7.81-3.12-8.38-7.25-4.88,1.03-3.56,3.65-3.75,6.38-.02.22-2.32,2.46.75,3.38l2.12-1.75c2.44,8.53,4.66,2.25,6,2.75.92,6.85,4.6,1.22,5.25,1.5.35.15,1.23,6.12,5.25,1,2.34,5.39,4.84.46,5.25.5.58.06,1.63,5.65,5-1.25,2.26,4.05,2.89,3.72,3.75-.75l1.62,2.75c.19-.44,4.68-3.32,0-8.25-4.09,2.41-12.96,1.52-17.88,2-.57-2.09-2.59-.62-5-1Z"/><path class="c" d="M166.88,122.5c1.7-.19,4.65-1.82,6.38-1.5,1.17-2.31,1.37-3.81,3.5-7.5-2.19.65-6.38.78-8.75.5,2.49,2.47-1.82,1.86-2.5-.5-2.2-.49-8.66-3.34-11-4.5.89,4.39-4.36,5.8-2.25-1-.51-.29-.95-.47-1-.5-1.07,2.04-.65,2.53-3.12,3.75-.48-.19-1.4-5.5.38-5.5-.19-.17-1.45-1.41-1.5-1.5-1.14,3.22-1.28,6.64-1.75,10,5.75,4.47,14.13,9.07,21.62,8.25Z"/><path class="d" d="M131.5,125.75c3.42-3.27.71-8.82-3.5-9.75-1.11,3.6-7.56,7.77-8.62,8-1.45.31-2.95-1.05-4.38-1,0,.25.02.5,0,.75-.02.24.51.43.12.75-2.91-1.37-2.67,1.01-4.25,1.25-.96.14-2.85-.75-3-.75-.48,0-1.27,1.91-5-.75-.32-.23-2.79-2.81-2.88-3-2.32,2.5-1.53,9.09,0,9.75,4.67,2.02,27.61-1.53,31.5-5.25Z"/><path class="d" d="M174,102.75c1.05-1.11,2.51-6.01,2.5-7.75-.84.1-6.86-1.69-8-2.25-1.04-.51-1.22-1.21-2-1.75-.79-.55-3.19-2.43-3.5-2.5-3.7-.77-7.95,1.62-8.5,5.5-1.42,10.07,16.24,12.18,19.5,8.75Z"/><path class="e" d="M79,166.5c-3.25,1.41-8.94.15-11.25-2.62-.89-1.07-.99-1.6-1.25-2.88-9.99,1.66-7.24,5.44-6.75,8.25,1.97.88,4.21.07,5.88-1.25.6.39-2.39,6.38,2.5,2.5,1.2,5.92,2.83-2.18,5,3.75,5.17-3.37,2.58.27,4.25.5.33.05,2.23-1.83,2.5-1.75.63.2.92,5,4.25-.25,4.16,6.95,3.98-4.51,7,2,1.04.17,1.25-4.86,2.88-.25.31-.62,2.51-3.05-1.75-4.5-.11-.04-.65,0-2.25-.5-3.57-1.11-7.34-2.2-11-3Z"/><path class="d" d="M108.62,248.5c1.24.3,2.1-.45,2.38-.5,2.52-.46-.46,2.73,4.38.5,2.46,4.11,1.54,1.69,4,1,2.76-.77,2.75,1.47,4.62,3.5,3.05-.49-1.86-3.66-2-4.38-.1-.48,1.66-4.31,1.75-5.5.34-4.52-2.64-8.2-7.12-6.62-1.87.66-1.15,2.48-2.38,1-1.13.13-.95-.23-1-.25-7.79-2.72-10.64,2.71-8.5,7.25.28.59,3.36,3.87,3.88,4Z"/><path class="c" d="M101.38,33c.14.08,1.6-.58,2.62,1.25,6.35,1.57,9.15,1.39,15-1.25-.93-.57.11-3.39,0-5.12-.12-1.91-.9-3.99-1.25-5.88-2.03.62-3.38.96-5.5,1.25,1.55,3.76,2.19,6.84.62,10.75l-.62-.62c.86-3.53-.2-6.57-1.25-9.88-2.2.27-8.47.07-8.88.25-.11.05-.06,1.3-1.75,1.75-1.33-3.54-3.47-1.94-6.62-3.25,1.31,2.74,2.58,5.6,3.5,8.5.13-3.3,1.94,1.06,4.12,2.25Z"/><path class="c" d="M12.62,61.25c-2.1-1.97-3.61-1.2-6.62-1.25,4.24,5.75-4.18-2.41-3.5,1.12,2.79,3.29,6.5,5.38,10.25,7.38,2.43-.38,4.54-1.16,6.88-1.75.29-.07,2.27.68,5.62-1.25.07-.04.99-.8,1.25-1,1.54-1.22,3.14-3.38,3.75-5.25.86-2.62.96-5.73,1-8.5-7.53,7.53-17.23,8.25-18.12,8.75-.47.26.64,1.07-.5,1.75Z"/><path class="e" d="M166.12,175.5c-4.17-.93-5.59-2.09-6.12-6.25-1.84.38-2.83,3.45-2.5,5.12.07.35,3.4,4.38,3.75,4.62,1.32.94,5.06,1.43,6.75,1.5.74.03,1.51.01,2.25,0,.21,0,1.3-.17,2.5-.25,1.57-.1,5.24-.5,6.75-.75.34-.06,1.15-.43,1.5-.5,1.02-.2,2.22-.23,3.25-.5.63-.17,3.26-.91,3.5-1,3.26-1.22,6.69-3.4,8.75-6.25.56-2.19,2.25-4.67,2.25-5.12,0-.72-2.16-4.18-2.5-5.12-1.65,12.67-19.7,16.82-30.12,14.5Z"/><path class="c" d="M154.25,241.88c-2.69.84,2.23.76,4.12.62,2.71-.2,6.42-1.12,9.12-1.75.31-1.17.73-1.06.75-1.12.61-2.29,1.19-4.58,1.75-6.88-1.37.99-2.89,1.54-4.5,2,.12,2.62-1.56,8.68-4,6.12l1.75-5.62c-.41.09-.58-.36-1.12-.25-.11.02-.2.69-.5.75-1.96.39-5.98.27-7.38.75-1.9.66-5.64,7.4-7,5.62,1.33-1.73,3.79-3.65,4.25-5.62-4.43.12-15.78-.97-19.25-2.75,0,2.62,1.06,5.01,1.75,7.5,6.62,1.09,13.86,2.54,20.25.62Z"/><path class="c" d="M130.38,132.5c.85.04.12.96.12,1.5.79-.53.48-5.21,1-8.25-3.89,3.72-26.83,7.27-31.5,5.25.16,2.06.9,5.08,1.5,7.25,9.86.27,20.18-.67,28.88-5.75Z"/><path class="d" d="M37.5,144c1.33-2.65,2.87-5.36,1.5-8.38-1.85-4.09-5.99-1.16-6.75-3.38,0-.03-.34.09-.25-.5-.99.36-1.03-1.01-2.38-1.25-.37-.07-5.51.61-5.62.88-.14.31.14,1.5,0,1.75-.17.31-2.99,1.61-2.5,6.25.02.18.9,3.23,1,3.38.16.23,4.6,2.73,4.88,2.75.52.04,6.22-2.38,10.12-1.5Z"/><path class="c" d="M19.25,222.75c.29,4.7-2.51,9.75-.5,9.75,3.34-1,4.15-1.91,4.38-2,.25-.1.56.43,1,.25,1.08-.44,2.24-1.63,2.5-1.75.06-.03.65.54,1.25.25.4-.2,1.29-1.49,1.75-1.75.59-.33,1.92.18,3.62-1.88.18-.22.54-1.6.62-1.62.13-.04.29,1.58,2.12-.62.85-1.02,1.12-2.32,1.25-3.62.3-2.99-.74-7.57-1-10.75-2.91,6.25-10.76,11.27-17,13.75Z"/><path class="c" d="M79,166.5c1.48-.64,2.86-2.56,3.5-4,.11-.25,1.51-4.98,1.5-5.25,0-.16.03-.36,0-.5-.1-.47-3.53-5.82-6-4.25-.64,1.69-2.47,2.96-3.38,4.5-.02-4.43-.72-3.01-1.88-3.75-5.13-.29-7.25,2.84-6.25,7.75.26,1.27.36,1.81,1.25,2.88,2.31,2.77,8,4.04,11.25,2.62Z"/><path class="e" d="M254,107c-14.65-3.11-13.22.92-13.5,12.75,1.28-.54-.2-7.6.88-7.75,4.06,3.48,9.2,6.61,14.62,8.84v-5.78c-1.68-2.29-2.55-5.03-2-8.06Z"/><path class="e" d="M93.75,22.25c3.15,1.31,5.3-.29,6.62,3.25,1.69-.45,1.64-1.7,1.75-1.75.41-.18,6.68.02,8.88-.25.4-.05.74-.18,1.25-.25,2.12-.29,3.47-.63,5.5-1.25.81-.25,1.72-.43,2.5-.75.04-.02-.09-.11.75-.5.58-.27,1.19-.47,1.25-.5,1.89-1.01,3.56-2.44,5.25-3.75.42-1.39,4.61-7.36,2.25-11-.13,3.35-2.99,7.11-5.62,9-4.69,3.36-8.36,2.79-9.25,3-3.3.78-10.43,3.79-12.5.5-2.08,5.33-12.54-1.23-13.88-4.5-.64,3.29,2.3,7.52,5.25,8.75Z"/><path class="c" d="M43,163c-3.82,1.7-21.69,3.59-25,1.75.89,2.96,2.08,5.79,3,8.75,7.62-.29,14.99-1.83,22.5-3,.05-2.66.27-7.53-.5-7.5Z"/><path class="d" d="M38.62,80.25c-.39-.07-1.1-.98-1.25-1-1.45-.22-2.9-.26-4.38-.5-.94-.15-2.13.48-2-1-3.78-.35-3.53.47-5.5-2.5-.31.71-7.77,6.36-2.75,7.5.72.16,2.23-.17,2.88,0,.86.23,1.72.77,2.62,1,3.91.97,5.41,1.3,9.5,1.75,2.97.33,6.01.9,9,.25.15-.39,3.63-3.77.25-7.5-1.97,1.35-6.12,2.4-8.38,2Z"/><path class="d" d="M43,163c3.41-1.51,1.86-4.04,0-6.25-2.22,3.91-14.17,3.76-18.12,3.25-.23-.03-.37-.71-4.38-.88.14-1.53-.15-2.91-.5-4.38-3.21,1.84-6.19,7.67-2,10,3.31,1.84,21.18-.05,25-1.75Z"/><path class="d" d="M88.75,154.5c-.14.43-.58,2.35-.88,2.5-.17.09-3.24.2-3.88.25,0,.27-1.39,5-1.5,5.25l7.5,7c1.6.5,2.14.46,2.25.5,6.43-5.31,6.64-15.88-3.5-15.5Z"/><path class="c" d="M33.75,17.25c-.33,2.21-2.21,3.91-1.75,6.25,6.56-1.28,10.25-3.68,13.12-4.75.12-.04.97.66,2.5,0,.22-.1.29-.9,4.12-2.25-.76-3.47-1.48-6.99-2-10.5-1.75,4.48-11.53,9.7-16,11.25Z"/><path class="c" d="M187.75,177.5c3.26,3.17-3.44,8.21-3.5,1-1.03.27-2.23.3-3.25.5.06,3.18,1.71,8.31-1.25,7.62.66-2.57.04-4.88-.25-7.12-1.51.25-5.18.65-6.75.75,8.69,5.1.6,5.33-2.5.25-.74.01-1.51.03-2.25,0,.47.74,3.34,6.02,3.88,5.75-.57-3.31,2.42-.19-.12,1.75,5.34.05,11.79-1.46,16.75-3.5.22-.86-.5-.76-.5-.88,0-.34,2.78-5.28,3.12-6.12,2.17.23,2.52,2.76,2.38,4.5.64-.46,1.09-1.07,1.75-1.5.42-2.6.74-7.25,1.25-9.25-2.06,2.85-5.49,5.03-8.75,6.25Z"/><path class="e" d="M194.75,117.62c.41,1.42.3,4.18.5,5.88.81-.21,1.7-.31,2.5-.5,1.91-.46,3.77-1.13,5.75-1.25,0-.08,0-.17,0-.25.05-1.26,4.16-10.49-3.12-9.5-.82.11-6.06,2.59-6.88,3.75.97,1.37.47,1.43.5,1.5.04.08.72.28.75.38Z"/><path class="c" d="M66,99.5c3.89-.46,3.9,1.59,7.5-3.25.46-.62.17-1.98,2.5-3.25-5.22-7.34-14.79.45-11.75,5,.21.31,1.55.77,1.75,1.5Z"/><path class="e" d="M134.38,68.5c-.08,0-.97-1.02-1.25-1-.69.06,1.01,1.22-4.62,0,.07.26-.25.95-.25,1,.29,7.09.95,3.03,5.12,2.25.73.39-.45,6.92,4.75,1,1.16,8.36,3.2-3.3,3.88,3.5,1.31-1.77,4.74-2.12.25-7.75-1.98,1.21-5.56,1.11-7.88,1Z"/><path class="e" d="M165.38,31.75c.52-.43,6.45,6.96,4.12-1.75-5.04.79-7.5.46-11.5-2.5-.07.41-2.64,3.38-2.5,4.88.1,1.06,2.29,2.67,2.75,3.38.44-.29,2.68-2.5,2.88-2.5,1.15,0,3.29,6.86,4.25-1.5Z"/><path class="e" d="M64.12,51.5c.81.47.99-.05,1.12,0,3.87-4.61,3.66-5.78.88-10.75l-8.12,4.75c-.02.16.02.34,0,.5,1.78.73,5.17,4.95,6.12,5.5Z"/><path class="e" d="M77.25,51.75c.3.85-.01.71,0,.75.12.42,1.91,3.71,2.12,3.75,2.03.35.17-8.5,4.75-.75,3.99-.87-.09-8.16,4.62-1.5.12-.42,4.26-3.92-1.25-7-.83,1.4-8.46,4.35-10.25,4.75Z"/><path class="c" d="M171.88,186.25c-.54.27-3.4-5.01-3.88-5.75-1.69-.07-5.43-.56-6.75-1.5.67,2.83,2.11,5.36,3.25,8,2.35.78,4.78.98,7.25,1,2.54-1.94-.44-5.06.12-1.75Z"/><path class="e" d="M47.5,4.5c-1.02,1.83-.86,1.24-1.25,1.75-1.74,2.29-1.59,2.27-4,4.25-.02.02-.09-.07-.5.25-2.98,2.35-6.11,4.51-9.62,6-1.28-3.58-1.83-1.33-2.88,2-.27.85-.83,1.05.12,1.25,2.62-3.69,2.01-1.93,4.38-2.75,4.47-1.55,14.25-6.77,16-11.25.92-2.35,1.12-3.96-1-5.75.79,2.97-1.13,4.04-1.25,4.25Z"/><path class="c" d="M122.25,20.25c-.06.03-.67.23-1.25.5,1.02,3.4,6.12,5.92,2.12,9-.69-2.93-1.25-5.91-2.88-8.5-.78.32-1.69.5-2.5.75.35,1.89,1.13,3.96,1.25,5.88.11,1.73-.93,4.55,0,5.12,2.29-1.04,4.5-2.15,6.25-4,.09-.83-.45-1.42,0-4.25-1-1.57-.98-3.79-3-4.5Z"/><path class="d" d="M206.25,197.12c-.39-1.01-.57-2.13-1-3.12-.57-1.32-.19-1.78-1.75-2-.67-.09-.78.22-1,.25-3.19.49-4.54,2.62-4.75,5.75,1.34.51,2.87,5.82,8.5-.88Z"/><path class="c" d="M76.5,123.25l-7,6.25c2.72.61,5.46,1.14,8.25,1.25,1.35-2.42,3.13-4.68,4.25-7.25-1.73.28-3.76-.09-5.5-.25Z"/><path class="c" d="M32,23.5c-.46-2.34,1.42-4.04,1.75-6.25-2.37.82-1.76-.94-4.38,2.75-.95-.2-.39-.4-.12-1.25-2.55,3.05-7.78,4.2-11,1.5-1.62.66,5.63,3.65,6,3.75,1.93.53,5.65-.09,7.75-.5Z"/><path class="e" d="M129,167.5c.55-1.66.05-4.33.5-6-2.93-3.97-8.67-.13-7.25,4,3.17-.91,2.83,2.15,6.75,2Z"/><path class="d" d="M146.5,213.38c2.06-2.94-1.43-5.28-1.5-5.62-.39.16-1.01.17-1.25.25-1.03.33-.95.23-1,.25-2.61,1.05-3.75,2.02-3.25,5,1.7.2,4.68,3.43,7,.12Z"/><path class="e" d="M114.5,63c.13-.08-.56-.72,1-.75-2.18-1.6-2.8-2.26-2.5-5.25-3.18.25-8.09,2.53-5.25,6.25,1.45,1.89,4.87.85,6.75-.25Z"/><path class="c" d="M37.75,85.5c2.03,3.69,2.33,4.53,5.75,7.25.17,0,.33,0,.5,0,.85-2.34,1.84-4.67,2.75-7-2.99.65-6.03.08-9-.25Z"/><path class="e" d="M59.75,55.5c-.77-4.29-.95-2.96,1.5-3,.84-.01,1.76.25,2.5.25.92,0,1.84.03,2.75,0,1.02-.03,2.2-.19,3.25-.25-2.14-.26-2.63-.35-4.5-1-.13-.05-.31.47-1.12,0-.96-.55-4.35-4.77-6.12-5.5-.49,5.11-1.39,10.3,1.75,9.5Z"/><path class="c" d="M171.5,5.5c-1.36,1.07-6.12,2.29-6.5,3.5-.08.26.08.73,0,1-.11.37.12,1.22,0,1.5,3.7,1.53,10.24-1.53,6.5-6Z"/><path class="d" d="M202.62,100.25l-3.62,2.75c0,.05.13.35.25,1,.17.93,1.39,2.84,1.5,4,1.28-.54,8.26-1.25,1.88-7.75Z"/><path class="d" d="M242.75,155.62c-.83-.82-1.85-2.47-2-2.62-2.12-2.11-2.44-.44-7.38,1l.62,1.25c1.83.16,2.43,3.74,8.75.38Z"/><path class="c" d="M108.38,253s.03,0,.07-.02c.22-.11.88-.56,1.19-.69.05-.02.09-.03.12-.04.05-.93.44-1.17.75-1.75.28-.53,2.09-.86.5-2.5-.27.05-1.14.8-2.38.5-.52-.13-3.6-3.41-3.88-4-3.33-1.96.08,3.72.75,4.75.26.4,2.66,3.66,2.88,3.75Z"/><path class="c" d="M18,11.25l3-1.75c.02-.06.41-.6.63-1.08.09-.21.15-.41.12-.54-.09-.38-3.78-2.26-4.25-2.38-.37-.09-1.38-.32-1.62-.25-2.98,4.33.44,3.86.38,5.25,2.13-.99,1.7.63,1.75.75Z"/><path class="e" d="M101.25,254.88c.85-1.54,4.37.12,7.5-.12-.44-1.06-2.98-5.24-3.62-5-1.05,1.54.61,1.05-.88,1.75-.91.43-4.35,1.09-4.88,1.5-.63.49.12.45-.38,1.25,1.4.4,2.61,1.31,4,1.75.04-1.11-1.6-.91-1.75-1.12Z"/><path class="e" d="M226.38,165.25c.17.07,1.85-.91,2.88-1-2.96-4.41-.12-4.06-1.5-6.25-.22.1-2.1.35-2.88.75-3.38,1.74-1.32,3.68-1.38,4.25,3.82-3.33,1.75,1.8,2.88,2.25Z"/><path class="c" d="M23.75,89.25c.08-.12-.09-.78,0-.88,1.03-1.15,4-2.17,4.5-4.62-.91-.23-1.76-.77-2.62-1-.65-.17-2.16.16-2.88,0,.03.22-.06.23-.25.25v7c.32-.16,1.1-.55,1.25-.75Z"/><path class="e" d="M197,125.12l1.5-.12c-.13-.29-.31-1.35-.75-2-.8.19-1.69.29-2.5.5-.65.17-1.31.51-2,.5.3,2.47.2,6.12,4,4.5-.04-.16.24-1.14-.25-3.38Z"/><path class="c" d="M54.25,117c-.81-.38-3.58-1.64-3.75-1.75-.03,2.5.04,5,0,7.5.51.22.99.53,1.5.75l2.25-6.5Z"/><path class="d" d="M168.5,79.5l.25-.25c-.47-.44-6.12-8.9-7.88-10.25-3.76-2.89-6.98-1.15-4.75,1,2.56-3.98,8.82,5.01,10.62,7.5.22.3,1.21,1,1.75,2Z"/><path class="d" d="M106,108.5c3.93-.75,7.31-1.74,3-5.5-1-.1-2.19,1.67-3,2.25,1.85,2.93,1.28,2.1,0,3.25Z"/><path class="c" d="M125.25,24.75c.07-.42,1.93-7.19,2.25-8.25-1.69,1.31-3.36,2.74-5.25,3.75,2.02.71,2,2.93,3,4.5Z"/><path class="e" d="M229,239.75c2.41-4.46,1.32-12.8,7.75-13.5-.05-.45-1.22-.78-1.5-.75-5.42.49-4.97,10.99-7.25,14.25.05.02.49.69,1,0Z"/><path class="e" d="M225.5,112.5l2.12,3.25c.49.16.71-.34,1.38-.75.36-.22.48-.23.5-.25,2.79-2.49-.91-2.34-1.75-4.5-.52-.02-.58.88-2.25,2.25Z"/><path class="c" d="M74.62,157c.91-1.54,2.73-2.81,3.38-4.5,1.54-4.07-2.35,1.31-2.62,1.25l-2.5-4c-1.11,3.41-1.42,2.68-.12,3.5,1.16.74,1.85-.68,1.88,3.75Z"/><path class="d" d="M130,167c.09-1.2.06-4.23.25-5,.66-2.62,9.81-10.51,7.62-10.75-1.53,2.56-7.84,8.26-8.38,10.25-.45,1.67.05,4.34-.5,6,.66-.03.66-.44,1-.5Z"/><path class="c" d="M84,157.25c.64-.05,3.7-.16,3.88-.25.29-.15.73-2.07.88-2.5.26-.79.95-.56.75-1.62-.05-.27-2.89-4.74-3.38-4.38.8,5.63,5.38,3.75-2.12,8.25.03.14,0,.34,0,.5Z"/><path class="e" d="M206.5,64c1.06-1.07,2.31-1.82,3-3.25-2.67.48-3.36-1.02-4.5-3.25,0,.04-.6-.47-.75.12-.04.15-.04,2.85,0,3,.05.2,1.92,2.37,2.25,3.38Z"/><path class="e" d="M9.25,190.25c-.88-2.56-3.05-6.26-2-8.12-1.1-.84-1.41.8-3.38-.62-1.8,1.77,1.09,1.05,1.88,2.12.24.32,2.26,6.74,2.5,7.62.56-.29-.21-1.21,1-1Z"/><path class="c" d="M34.25,201c-1.32-4.13-1.45-5.01-6.25-4.5.09.28.49,1.42.5,1.5l5.75,3Z"/><path class="e" d="M234.25,60c.75,1.21,1.52,3.9,1.5,5.25.74.94,1.95-3.74,1.75-5.12-.03-.17-.96-1.5-1-1.88-.82.1-1.6,1.34-2.25,1.75Z"/><path class="d" d="M193.5,49.62c.26-.48-.25-.83-.25-.88-6.2,4.66-13.84,6.27-21,8.75,1.69.61,20.38-6.24,21.25-7.88Z"/><path class="e" d="M194.75,117.62c-.03-.1-.71-.29-.75-.38-1.7,1.33-1.1,3.9-.75,6.75.69.01,1.35-.33,2-.5-.2-1.69-.09-4.46-.5-5.88Z"/><path class="e" d="M32.25,132.25c3.81-3.38,8.15-6.24,12-9.38-1.81-3.22-1.45.26-1.88.88-.18.26-4.42,2.84-5.25,3.5-.82.66-4.8,4.38-5.12,4.5-.09.59.24.47.25.5Z"/><path class="d" d="M130,49.38c.5-1.96-.49-1.76-.5-1.88-1.73-.99-3.59-.78-3.5,1.5.15,2.03,3.57,2.06,4,.38Z"/><path class="d" d="M217.62,186.25c2.19,2.32,15.36,10.41,17.88,9.5-7.2-2.79-12.37-5.25-18-10.75,0,.13-1.06,0,.12,1.25Z"/><path class="c" d="M131.25,167c.7-.19,2.51-.87,3-1.5-1.23-.86-2.76-2.54-4-3.5-.19.77-.16,3.8-.25,5,.39-.07.94.08,1.25,0Z"/><path class="d" d="M41.62,61.5c-1.7-.96-2.46-.25-2.62-.25-.64.87-.94,1.19-.5,2.25,1.14,2.74,5.53.6,3.12-2Z"/><path class="c" d="M69,31.5c-.35-.27-4.27,3.29-5.25,4.25,8.12-.72,5.41-1.96,5.25-4.25Z"/><path class="e" d="M10.5,193c-.18-.58-.87-1.66-1.25-2.75-1.21-.21-.44.71-1,1,.4,1.51,1.22,3.17,0,4.75l2.75.88c-.17-1.53-.16-2.74-.5-3.88Z"/><path class="d" d="M214.75,147.5c4.68-.74,14.85-4.53,16.38-6,.74-.71.09-.7.12-1-6.41,4.23-11.91,4.93-16.38,6.5-.2.07-.12.33-.12.5Z"/><path class="d" d="M15,123.75c.13.1,1.27.71,1.5.75,3.1.48,2.13-.6,2.25-3.25-1.21.55-3.39.76-4.75.75-.16.51.7,1.52,1,1.75Z"/><path class="e" d="M143.75,208c-.06-.78,3.13-6.2,3.62-6.5.1-.06.68.03,1.12,0,.19-.01.28-.04.25-.25-4.03-1.5-5.18,4.02-6,7,.05-.02-.03.08,1-.25Z"/><path class="c" d="M106,105.25c-1.12.81-3.16,1.55-3.25,1.88-.1.37.49,1.16.25,1.88.97-.35,2.06-.32,3-.5,1.28-1.15,1.85-.32,0-3.25Z"/><path class="e" d="M82,204l.75.5c2.43-.6,7.43-.76,9.88-2,.23-.12.09-.48.12-.5v-.75c-2.95,1.69-7.28,1.74-10.75,2.75Z"/><path class="c" d="M209.5,60.75s.28.06.25-.25c-1.3-1.57-2.63-2.89-4.5-3.75-.1.28-.17.45-.25.75,1.14,2.23,1.83,3.73,4.5,3.25Z"/><path class="e" d="M111.25,232.75c-1.53-4.14-2.05-8.39-7.75-7.62,6.1,1.13,4.64,4.23,7.75,7.88-.03-.07.03-.18,0-.25Z"/><path class="c" d="M199.25,104c-2-1.73-.6,3.39-.5,4.75.43-.2,1.26-.44,2-.75-.11-1.16-1.33-3.07-1.5-4Z"/><path class="c" d="M229.12,155.5c-1.17.64-.64,1.25-1.12,2.25.85-.37,5.2-2.46,5.5-2.5.26-1.45-3.93,0-4.38.25Z"/><path class="e" d="M14.12,105.75c.28-.11.58-.73.62-.75l-.75-1.75c-.08.02-.17-.02-.25,0-.13.04-1.38-.84-2.5.5.95,1.28.69,2.84,2.88,2Z"/><path class="e" d="M101.38,33c-2.18-1.19-4-5.55-4.12-2.25.1.32.14.63.25,1,2.13.86,4.26,1.95,6.5,2.5-1.03-1.83-2.48-1.17-2.62-1.25Z"/><path class="c" d="M247.75,150.38c-1.51-5.34-6.27-5.16-1.25.12.17,0,.33,0,.5,0l.75-.12Z"/><path class="c" d="M254,194.62c-.34,5.29-.9,8.61,1.75,4.62-.18-.13-.97-.69-1-.75-.43-.83.79-4.5-.75-3.88Z"/><path class="e" d="M92.75,201.25v.75c2.36-1.34,3.18-2.89,3.38-3,.18-.1,1.01.85,1.88-.38-3.44-3.57-.45-.13-5.25,2.62Z"/><path class="e" d="M129.5,47c.54.03,1.26-.01,1.75-.25.54-.26,3.7-2.87,5-3.62.67-1.8-6.63,3.41-6.75,3.88Z"/><path class="e" d="M73.5,96.25c1.87-.12,2.33-.97,3.25-2.5,1.58-2.61.18-.73-.38-.5-.04.01-.22-.33-.38-.25-2.33,1.27-2.04,2.63-2.5,3.25Z"/><path class="e" d="M42.25,60.5c2.46-9.23.9-10.56-.5-.5.03.01.06.21.5.5Z"/><path class="e" d="M114.25,237.5c-1.85-2.23-.89-4.57-3-4.75.03.07-.03.18,0,.25.57,1.53,1.04,2.9,2,4.25.05.02-.13.38,1,.25Z"/><path class="c" d="M64.25,98c-1.36-.24-1.58.86-1.5,2,1.07-.14,2.18-.37,3.25-.5-.2-.73-1.54-1.19-1.75-1.5Z"/><path class="e" d="M135,166c-.26-.18-.52-.34-.75-.5-.49.63-2.3,1.31-3,1.5-.11,2.21,3.04-.17,3.75-1Z"/><path class="e" d="M189.5,22.5l1.75,2.75c0-.7,1.71-.67-.75-3.5-.03.05-.37.06-1,.75Z"/><path class="d" d="M169.62,82c1.76-2.3.42-2.6.38-2.75-.28.82-.82.4-1.25,0l-.25.25c.81,1.5.14,2.7,1.12,2.5Z"/><path class="e" d="M45.62,47l-.62,1.38c1.95,2.02,3.29-1.27.62-1.38Z"/><path class="e" d="M165,9l-1.88-.5c-.78,4.63.63,1,1.88,1.5.08-.27-.08-.74,0-1Z"/><path class="c" d="M5.5,27.75c1.11-2.76-.69-4.81-1,.75.04-.05.66.1,1-.75Z"/><path class="e" d="M78.75,206c.67-.33,1.31-.5,2-.75.73-.27,1.2-.55,2-.75l-.75-.5c-.78.23-4.33,1.03-3.25,2Z"/><path class="c" d="M203.5,192c.63.11-.13-2.46-.38-2.5-.25-.04-1.64,2.33-.62,2.75.22-.03.33-.34,1-.25Z"/><path class="e" d="M72.25,78.25c-1.94-.02-4.05-.35-6-.5,1.11,1.25,4.32.81,6,.5Z"/><path class="e" d="M236.75,226.25c1.83-1.84-1.92-2.95-1.5-.75.28-.03,1.45.3,1.5.75Z"/><path class="c" d="M14.75,105c.46-.17.33-.5,1.25-.5l-1-2c-.3.22-.67.66-1,.75l.75,1.75Z"/><path class="d" d="M14,103.25c.33-.09.7-.53,1-.75.22-.16,3.33-3.34,1.62-2.5l-2.88,3.25c.08-.02.17.02.25,0Z"/><path class="c" d="M251.5,39c.05-.08.25-.16,1-1.5-2.19-.72-1.94-.16-1,1.5Z"/><path class="d" d="M36.75,60.25c1.21,2.45,1.61,1.03,2,1,.19-.65-1.44-1.28-2-1Z"/><path class="e" d="M139.62,152.75l-1.88,1.38c.12,1.05,3.31-1.17,1.88-1.38Z"/><path class="c" d="M104,249.5c-1.08.12-1.51-.37.25,1.75.18-.85.61-1.18-.25-1.75Z"/><path class="e" d="M144.38,48l-1.12.88c.69,1.42,2.57-1.13,1.12-.88Z"/><path class="c" d="M148.5,201.5c1.22.85.7.75,0,1.75.21-.13,1.18-.73,1.25-.75.96-.39-.39-1.02-1-1.25.03.21-.06.24-.25.25Z"/><path class="c" d="M13.5,233.75c1.71-.21,3.59-.75,5.25-1.25-2.01,0,.79-5.05.5-9.75-1.73.69-3.93,1.37-5.75,1.75,7.95,2.61.81,5.18-1.75.5-.55.08-1.18-.05-1.75,0,.54,1.1,3.07,2.44,1.62,3.5-.86-.26-5.38-.61-5.62-.75l-.25.25c.75.39,4.49,3.68,6.25,4.62l-3.5-.38c1.1.6,1.64.76,2.88,1l-.38.5c.33.02.67,0,1,0-.02-1.12,1.14-.74,1.5,0Z"/><path class="c" d="M12,233.75c.05,0,.8.51.88.5.6-.04.59-.5.62-.5-.36-.74-1.52-1.12-1.5,0Z"/><path class="d" d="M8.88,215.25l-1.38,1.12c.35,4.97,5.67.11,1.38-1.12Z"/><path class="d" d="M32.12,202.75l-1.25-.25c-3.85,3.13,3.84,4.59,1.25.25Z"/><path class="d" d="M26.38,209.25l-.62.88c1.55,4.7,4.99-.85.62-.88Z"/><path class="d" d="M14.75,219c.13-.04.37.04.5,0,2.66-4.34-4.73-2.81-.5,0Z"/><path class="d" d="M23,215.5c.08-.04.85-.23,1.75-.75-.19-3.29-3.53-2.44-1.75.75Z"/><path class="d" d="M6,219.12l-1.38-.88c-2.51,1.81,1.77,4.51,1.38.88Z"/><path class="d" d="M25.25,206.5c.13-.17,2.36.47,0-3-.27.22-1.18.95-1.25,1l1.25,2Z"/><path class="d" d="M8,213.25c1.09.16.95.19,2.25.25-.83-.89-1.31-1.73-2.25-.25Z"/><path class="d" d="M13.75,213.75c1.13-.08,2.13.31,2.5-1.25-.62.33-2.01.1-2.5,1.25Z"/><path class="d" d="M21.75,209.5c.25-.36.87-.48,1-1-.12.04-2.17-.24-1,1Z"/><path class="c" d="M9.25,48c-1.12.36-2.88,1.01-3.75,1.25l1,3c.78.1.44.52.62.5.1,0,.19-.46.88-.5.21-.01,2.54-1.47,2.5,2,2.91,1.45,5.29-3.35,2.62-5-.84-.52-1.52-.46-1.62-.5-.12-.04-.25.89-2.25-.75Z"/><path class="c" d="M19.5,41.5l-5,4.25c2.44-.96,4.34.6,5-4.25Z"/><path class="c" d="M4.38,29.5l-.38,1.38c3.37,3.01,3.99-1.31.38-1.38Z"/><path class="d" d="M4.25,49.5c.84,4.38,2.04,2.72,2.25,2.75l-1-3c-.35.1-.86.15-1.25.25Z"/><path class="c" d="M11.5,47.25c-.72.26-1.52.51-2.25.75,2,1.64,2.13.71,2.25.75v-1.5Z"/><path class="d" d="M11.5,48l.75.5c.09-.05,1.07-1.66.75-2-.47.18-.99.57-1.5.75v.75Z"/><path class="d" d="M19.5,40.5v.75s0-.71,0-.75Z"/><path class="e" d="M25.12,247h-1.25c-4.26,5,5.25,3.29,1.25,0Z"/><path class="c" d="M2.5,61.12c-.68-3.53,7.74,4.62,3.5-1.12-1.65-.03-4.94.3-5.75.25,1.78,2.72,4.98,6.36,7.75,8,.42.25.84.49,1.25.75,1.17-.14,2.34-.32,3.5-.5-3.75-1.99-7.46-4.09-10.25-7.38Z"/><path class="d" d="M14.5,53.5c1.08-.48,1.97-.9,3-1.5-.78-3.04-3.85-1.12-3,1.5Z"/><path class="c" d="M8.12,57.5l-.12.12c1.42.41,1.8-.25.12-.12Z"/><path class="c" d="M10,225c-1.85.16-3.13.18-5,0-.49.62.82,2.65,1,2.75.25.14,4.76.49,5.62.75,1.45-1.06-1.08-2.4-1.62-3.5Z"/><path class="c" d="M13.5,224.5c-.82.17-1.61.48-1.75.5,2.56,4.68,9.7,2.11,1.75-.5Z"/><path class="d" d="M21.88,42.25l-.62.62c.37,6.09,6.58-.37.62-.62Z"/><path class="d" d="M8,52.25c-1.28,1.57,1.25,4.29,2.5,2,.04-3.47-2.29-2.01-2.5-2Z"/><path class="d" d="M19.75,45.88l-1.62-.38c-1.42,2.36,2.46,2.91,1.62.38Z"/><path class="d" d="M11.5,48.5c.29-.03.67.05.75,0l-.75-.5v.5Z"/><path class="c" d="M4.25,211.12c-.24,1.15,2.22.84,3.5-.5l-1.12-2.12c-4.01,1.5-.54,1.4-2.38,2.62Z"/><path class="c" d="M4.62,206.75c2.48-1.5,3.98-1.1,1.25-3.5l-1.88,1.38c2.24.55-.72.77.62,2.12Z"/><path class="d" d="M5.38,201.75l-.25-1.25c-3.58.76-2.9,2.55.25,1.25Z"/><path class="d" d="M16,207c-.39,1.5,2.24,1.04,2.25,0-.62.08-1.58.02-2.25,0Z"/><path class="c" d="M9.62,207.5h-1.5c-.08,2.32,2.51.47,1.5,0Z"/><path class="c" d="M11.12,209l-.62.62c.77.87,1.51.18.62-.62Z"/><path class="c" d="M5.75,228c-2.59-1.35-3.15,1.05,2.75,4.25l3.5.38c-1.76-.94-5.5-4.23-6.25-4.62Z"/><path class="d" d="M96.88,5.5l-.88.88c.33,5.71,6.15-.55.88-.88Z"/><path class="d" d="M100.88,11.5l-1.12.88c-.82,5.06,6.15.71,1.12-.88Z"/><path class="d" d="M117.38,10l-.88.62c-.97,5.61,6.05.54.88-.62Z"/><path class="d" d="M124.88,6.5h-1.5c-2.65,4.37,4.75,3.59,1.5,0Z"/><path class="d" d="M94.88,12.25c-3.24,3.55,4.21,4.32,1.5,0h-1.5Z"/><path class="d" d="M116,5c-.89.42-1.63.8-2.5,1.25,3.67,3.23,6.07-.8,2.5-1.25Z"/><path class="d" d="M109.88,14.5c-2.62,4.2,4.57,3.82,1.25,0h-1.25Z"/><path class="d" d="M109.5,8.75c-.08.03-1.13.19-1.5.25-.53,3.79,4.02,2.69,1.5-.25Z"/><path class="d" d="M104,8.5c-2.37-3.66-2.08-1.92-2.25-2,1.32,2.84,2.1,1.94,2.25,2Z"/><path class="d" d="M122,2.5c-.88-.1-1.81.11-2.25,1,1.29-.18,1.87,1.13,2.25-1Z"/><path class="c" d="M26.25,9.75c-1.31.46-4.45,1.38-5.5,1.25-.07.24-.25.29-.25.5,1.88.04,5.63.75,5.75-1.75Z"/><path class="d" d="M18.12,11.75c.12.02.53-.29,2.38-.25,0-.21.18-.26.25-.5.09-.4.14-1.16.25-1.5l-3,1.75c.05.11-.09.46.12.5Z"/><path class="d" d="M33.75,8.25l-.5-1c-.1.06-1.03-.52-2,.75.12,0,1.83.41,2.25.5l.25-.25Z"/><path class="d" d="M38.5,4s-.21.15-.44.31c-.23.16-.52.34-.74.48-.15.1-.26.17-.32.21.61,1.47,2.61.61,1.5-1Z"/><path class="d" d="M41.25,1.25c-.28-.04-.5-.06-.67-.05-.25.01-.41.09-.56.22-.1.09-.2.2-.32.35-.06.07-.13.15-.2.24.99.13,1.34-.22,1.75-.75Z"/><path class="d" d="M28.62,10c-1.38,1.57-4.34,3.38-1.5,5,2.37-.24,2.09-4.84,1.5-5Z"/><path class="d" d="M20.62,14.25l-.88.62c-.91,5.79,6.21.59.88-.62Z"/><path class="d" d="M41.75,10.75c.41-.32.48-.23.5-.25,1.08-5.33-5.91-1.66-.5.25Z"/><path class="d" d="M47.5,4.5c-2.09-.35-2.6-.16-1.25,1.75.39-.51.23.08,1.25-1.75Z"/><path class="d" d="M33.75,8.25l-.25.25c.1.02,1.86,1.18.25-.25Z"/><path class="d" d="M102.5,2.38c-1.59-.91-1.77-1.78-1.77-2.38h-.95c-3.29,4.51.96,7.01,2.72,2.38Z"/><path class="c" d="M105.12,3.25l-1.62.88c-.22,5.94,7.89,2.22,1.62-.88Z"/><path class="c" d="M110.88,1.5c-1.93.38,1.33,2.54,2.25,4.25,3.54-.9-.77-3.19-2.25-4.25Z"/><path class="c" d="M108.38,4l-.12.62c1.17.56.87-1.03.12-.62Z"/><path class="d" d="M121.25,255.25c.96-.92.79-1.49,2.5-1.25l-2.62-1c-.61,2.38.02,1.9.12,2.25Z"/><path class="d" d="M252.77,212.68c-.25.05-.47.11-.65.19-.35.17-.52.44-.37,1,.38.77,1.38.09,2.44-.74.53-.41,1.07-.87,1.57-1.19.08-.06.16-.1.24-.15v-.88c-.82,1.42-2.25,1.56-3.23,1.77Z"/><path class="d" d="M251,217.88c1.82,2.51,3.73-1.87.62-1.62l-.62,1.62Z"/><path class="e" d="M223.12,114.5c3.71,2.65,4.39,4.54,5.88.5-.66.41-.88.91-1.38.75l-2.12-3.25c-.79.65-5.59,3.77-6.5,4.25,7.71,6.82,3.68-1.99,4.12-2.25Z"/><path class="e" d="M197.75,123c.44.65.62,1.71.75,2,2.84,6.21,3.68,3.92,3.5-1.62l2.75,1.12c-.36-.43-1.22-2.12-1.25-2.75-1.98.12-3.84.79-5.75,1.25Z"/><path class="e" d="M210.62,120.75c.9-.67,6.74,6.4,3.12-1.75-1.92.69-4.01,1.26-6,1.75,1.62,3.46,4.42,6.07,2.88,0Z"/><path class="e" d="M204.75,124.5c2.39,2.84,3.32,1.2,1-3.25-.73.13-1.51.24-2.25.25,0,.08,0,.17,0,.25.03.63.89,2.32,1.25,2.75Z"/><path class="e" d="M218.25,117.5c-.17.08-.34-.38-.62-.25-1.11.52-2.23,1.07-3.38,1.5,2.66.25,6.36,5.61,4-1.25Z"/><path class="e" d="M174.62,28.75c7.94,5.37,3.83-.64,4.12-1.75-1.48-.06-6.11,2.3-8.25,2.75,7.37,6.61,3.64-.63,4.12-1Z"/><path class="e" d="M182.75,25.25c-.67.15-3.84,1.16-4,1.75,1.84.08,8.1,5.9,4-1.75Z"/><path class="e" d="M114.5,63c-2.7,5.45-.29,3.71,3.38,1.75,1.3,9.65,2.07-.31,5.38,2.38-.08,6.39.99,2.19,5,1.38,0-.05.32-.74.25-1-3.06-.66-10.59-3.49-13-5.25-1.56.03-.87.67-1,.75Z"/><path class="c" d="M175.38,19l-.88.88c-1.16,3.75,5.91.67.88-.88ZM174.75,20.62l.88-1.12c2.76,1.08-.7,2.63-.88,1.12Z"/><path class="d" d="M168.5,20.62l-.88-.62c-.77.24-.38,1.99.88.62Z"/><path class="e" d="M233.5,60.5c-.23.12-2.72.98-3.5,1.25,1.88,4.85,4.74,4.13,3.5-1.25Z"/><path class="e" d="M228.5,62.5c-.14.03-2.38.44-2.75.5,1.15,2.41,2.81,2.18,2.75-.5Z"/><path class="e" d="M214,62.5c-1.03-.14-1.99-.19-3-.5,1.11,1.64.93,4.32,3,.5Z"/><path class="e" d="M223.75,63.25c-.14.01-2.18,0-2.75,0,.48,1.84,2.96,2.05,2.75,0Z"/><path class="e" d="M219.25,63.25c-.76-.04-1.72-.17-2.5-.25.27,1.91,1.98,1.94,2.5.25Z"/><path class="c" d="M201,208.62l-1.38-1.12c-1.98,1.98-.02,3.28,1.38,1.12Z"/><path class="e" d="M70,53.62c2.87,8.52.22-7.28,4.88,2.88,1.75-1.26-.17-5.19,2.38-4-.01-.04.3.1,0-.75-2.13.47-5.23.61-7.5.75-1.05.06-2.23.22-3.25.25,1.77,8.29,1.06-.7,3.5.88Z"/><path class="e" d="M63.75,52.75c-.74,0-1.66-.26-2.5-.25,1.14,4.17,2.01,5.95,2.5.25Z"/><path class="c" d="M148.5,201.5c-.44.03-1.02-.06-1.12,0-.5.3-3.69,5.72-3.62,6.5.24-.08.86-.09,1.25-.25-.21-.98,2.59-3.93,3.5-4.5.7-1,1.22-.9,0-1.75Z"/><path class="c" d="M152.12,215l-.62.38c.09,4.46,4.29-.19.62-.38ZM151.88,215.5c2.3.1,1.2,2.27-.12.88l.12-.88Z"/><path class="e" d="M217.25,105c-1.67,1.71-2.08-.95.25-.5l-.88-1c-3.34,2.66,1.21,3.43.62,1.5Z"/><path class="c" d="M217.25,105c.45.14.8-.32.25-.5-2.33-.45-1.92,2.21-.25.5Z"/><path class="e" d="M115,122.75c-.23-2.27.6-2.56-2.75-2.12-.36.44,1.3,2.92,2,3.12-2.66-3.45-.66-4.17.75-1Z"/><path class="c" d="M114.25,123.75c.2.06.51-.03.75,0,.02-.25,0-.5,0-.75,0-.08,0-.17,0-.25-1.41-3.17-3.41-2.45-.75,1Z"/><path class="d" d="M101.88,115c-.54,1.8-.74,4.65.62,1.38l-.62-1.38Z"/><path class="c" d="M121.12,59c-3.7,4.74,3.85,2.67,1.38.38l-1.38-.38Z"/><path class="e" d="M140.25,53.88l-.75.12c2.56,2.42-2.89,1.7-.25,0-4.3.75,2.87,3.9,1-.12Z"/><path class="c" d="M139.5,54h-.25c-2.64,1.7,2.81,2.42.25,0Z"/><path class="c" d="M136,54.38l-.88-.38c-1.79,1.43,1.04,2.45.88.38Z"/><path class="c" d="M78.88,40.75l-.38,2.12c2.5,1.41,2.95-2.42.38-2.12ZM79.38,41l.62.38c.25,2.5-2.42,1.19-.62-.38Z"/><path class="e" d="M72.25,109.38l-1.62-.62c-1.77,1.68.57,2.87,1.62.62Z"/><path class="e" d="M65.5,105.12l-1.62-.62c-1.45,2.27,1.76,3.45,1.62.62ZM64.38,105c1.21-.14.84,2.62-.62.62l.62-.62Z"/><path class="c" d="M54.25,117l-2.25,6.5c4.35,1.83,12.03,4.66,16.5,5.75l6.25-6.25c-5.86-.79-15.11-3.51-20.5-6Z"/><path class="c" d="M74.75,123l-6.25,6.25c.34.08.66.17,1,.25l7-6.25c-.61-.06-1.15-.17-1.75-.25Z"/><path class="c" d="M245.12,154.5l-2.12.62c1.57,4.5,3.82-1.26,2.12-.62Z"/><path class="c" d="M238.38,163l-1.38.62c-.61,3.77,3.77,1.37,1.38-.62ZM238,164.12l.12-.12h.25l.12.12-.12.12-.12.12-.12.12-.12-.12v-.25Z"/><path class="c" d="M246.12,158l-.12.88c2.74,2.1,3.96-1.16.12-.88Z"/><path class="c" d="M168.75,162.88c1.61-2.34,0-.84-.12-.88-1.25-.34-.45-2.97-1.38-2.5-.63.62-.96.7-1,.75l-.75,2.25c.44.43,1.39.72,1.75,1,1.2.94.57,1.18,1.38,1.75.31.22,2.22.43,2.38.5.05.03.3.04.75.25.2.09.09,1.01.88,1.25.69.21,3.74-1.52,7.38,0,.72-.72,1.27-.41,1.5-.5,1.82-.69,2.82-1.79,2.75-3.75-.02-.47-2.57-1.29,3-2,.54-.58,1.03-1.72,1.25-2.5-2.95,1.87-5.58,2.19-9,2.5,2.03,2.5-1.18,1.89-1.75.25-.39,0-1.66,0-1.75,0-.57,1.91-1.25,1.81-1.25-.25-.57-.1-2.25-.41-2.5-.5-2.23.75-2.22,3.8-3.5,2.38ZM174.12,163.25h.25c.48,1.04-.73,1.04-.25,0Z"/><path class="c" d="M167.25,159.5c.92-.47.13,2.16,1.38,2.5.13.04,1.74-1.47.12.88,1.28,1.43,1.27-1.63,3.5-2.38-.33-.12-3.84-2.16-4.25-2.5.11.59-.39,1.14-.75,1.5Z"/><path class="d" d="M190.88,159.5l-.88.62c-.56,5.75,6.41.13.88-.62Z"/><path class="d" d="M187.88,164l-1.12.88c.14,4.76,5.56.41,1.12-.88Z"/><path class="d" d="M166.88,170.5c-2.58,3.94,4.33,3.35,1.25,0h-1.25Z"/><path class="d" d="M173.12,170l-.88.88c.17,4.45,5.11.09.88-.88Z"/><path class="d" d="M184.25,163c.86-.54,2.36-1.31,3-2-5.57.71-3.02,1.53-3,2Z"/><path class="d" d="M180,167.25c.22.09,3.68,3.85,1.5-.5-.23.09-.78-.22-1.5.5Z"/><path class="d" d="M168.62,165.25c-.81-.57-.17-.81-1.38-1.75.9,2.28,1.36,2.38,3.75,2.5v-.25c-.15-.07-2.07-.28-2.38-.5Z"/><path class="d" d="M165.5,162.5l.75-2.25c-.92.98-2.22.81-.75,2.25Z"/><path class="d" d="M171,166c.29.01.22.4.75,0-.45-.21-.7-.22-.75-.25v.25Z"/><path class="c" d="M191.12,177.5c-.34.84-3.13,5.78-3.12,6.12,0,.11.72.02.5.88,1.48-.61,3.74-1.6,5-2.5.15-1.74-.21-4.27-2.38-4.5Z"/><path class="d" d="M166.5,91c.78.54.96,1.24,2,1.75.39-2.23-.55-3.12-2-1.75Z"/><path class="d" d="M179.5,161c-.54.05-1.66.25-1.75.25.57,1.64,3.78,2.25,1.75-.25Z"/><path class="c" d="M176,161.25c-.06,0-.88-.19-1.25-.25,0,2.06.68,2.16,1.25.25Z"/><path class="c" d="M23.75,88.38c-.09.1.08.76,0,.88,2.61,1.28,13.03,1.17,14.38,1.5,1.22.3.5,1.1.75,1.25.2.12,4.13.72,4.62.75-3.42-2.72-3.72-3.56-5.75-7.25-4.09-.45-5.59-.78-9.5-1.75-.5,2.45-3.47,3.47-4.5,4.62Z"/><path class="d" d="M26.25,70.75c.29.11,4.12.05,4.25-.12l-4-6.12c-.26.2-1.18.96-1.25,1,.06,1.17.09,4.91,1,5.25Z"/><path class="c" d="M38.75,68.88c.25-.57-1.46-1.54-1.88-1.38-2.14,5.79-2.17,6.07,1.88,1.38Z"/><path class="c" d="M33,78.75c-.12-2.06-1.86-.99-2-1-.13,1.48,1.06.85,2,1Z"/><path class="c" d="M161.5,240.88c2.44,2.55,4.12-3.5,4-6.12-.78.22-1.47.33-2.25.5l-1.75,5.62Z"/><path class="c" d="M147.25,242.12c1.36,1.77,5.1-4.97,7-5.62h-2.75c-.46,1.97-2.92,3.89-4.25,5.62Z"/><path class="c" d="M27.12,153.5l-.12.88c1.32,1.14,1.81-.81.12-.88Z"/><path class="c" d="M148.12,111.25c2.47-1.22,2.05-1.71,3.12-3.75-.44-.27-2.63-1.64-2.75-1.75-1.78,0-.86,5.31-.38,5.5Z"/><path class="c" d="M154.5,109c-.71-.35-1.59-.63-2.25-1-2.11,6.8,3.14,5.39,2.25,1Z"/><path class="c" d="M168,114c-.43-.05-1.93-.37-2.5-.5.68,2.36,4.99,2.97,2.5.5Z"/><path class="e" d="M79,166.5c3.66.8,7.43,1.89,11,3l-7.5-7c-.64,1.44-2.02,3.36-3.5,4Z"/><path class="c" d="M112.25,33.38l.62.62c1.56-3.91.93-6.99-.62-10.75-.51.07-.85.2-1.25.25,1.05,3.31,2.11,6.35,1.25,9.88Z"/><path class="c" d="M187.75,177.5c-.24.09-2.87.83-3.5,1,.06,7.21,6.76,2.17,3.5-1Z"/><path class="c" d="M172.75,180.25c-1.2.08-2.29.25-2.5.25,3.1,5.08,11.19,4.85,2.5-.25Z"/><path class="c" d="M179.75,186.62c2.96.68,1.31-4.45,1.25-7.62-.35.07-1.16.44-1.5.5.29,2.24.91,4.55.25,7.12Z"/><path class="e" d="M109.28,255.81c-.03-.17-.11-.34-.19-.5-.05-.1-.11-.2-.17-.28-.08-.13-.15-.23-.17-.29-3.13.25-6.65-1.41-7.5.12.15.22,1.79.02,1.75,1.12h6.3s0,0,0-.01c0-.06,0-.12-.02-.17Z"/><path class="d" d="M116.62,251.25c-1.5.3-1.62,1.02-1.75,2.5,2.88.12,4.95.2,1.75-2.5Z"/><path class="c" d="M110.5,250.5c-.31.58-.7.82-.75,1.75.12,2.05,4.27,1.23.75-1.75Z"/><path class="c" d="M121,20.75c-.84.39-.71.48-.75.5,1.63,2.59,2.18,5.57,2.88,8.5,3.99-3.08-1.11-5.6-2.12-9Z"/><path class="c" d="M175.62,19.5l-.88,1.12c.17,1.5,3.63-.04.88-1.12Z"/><path class="c" d="M151.88,215.5l-.12.88c1.32,1.39,2.42-.77.12-.88Z"/><path class="c" d="M80,41.38l-.62-.38c-1.8,1.57.87,2.88.62.38Z"/><path class="c" d="M64.38,105l-.62.62c1.47,1.99,1.83-.76.62-.62Z"/><path class="d" d="M238.25,164.38l.12-.12.12-.12-.12-.12h-.25l-.12.12v.25l.12.12.12-.12Z"/><path class="c" d="M174.38,163.25h-.25c-.48,1.04.73,1.04.25,0Z"/><path class="c" d="M22.25,246.5c0-.16-.02-.3-.06-.43-.3-1.04-1.7-1.18-3.17-1.18-.18,0-.37,0-.56,0-.37,0-.74.02-1.09.02-.35,0-.68,0-.98-.02s-.56-.07-.77-.14c-.46-.16-2.07-2.12-3.84-4.4-1.01-1.31-2.07-2.72-3.01-3.97-1.17-1.56-2.13-2.87-2.53-3.38-2.04-2.59-4.47-4.97-6.25-7.76v30.76h10.46c2.43-.02,4.86-.03,7.29,0,.69-3.27,5.11-5.36,4.5-9.5Z"/><path class="c" d="M.11,30.33c0-.21.01-.45.01-.69.03-1.74.01-4.25-.02-7.11,0-.82-.02-1.66-.03-2.52-.02-1.29-.04-2.62-.05-3.96,0-.45-.01-.89-.02-1.34,0-.11,0-.21,0-.32v17.61c.03-.11.05-.31.07-.6.02-.28.03-.64.04-1.07Z"/><path class="c" d="M0,66v21.39c.06-7.13.14-14.27,0-21.39Z"/><path class="e" d="M2.88,143.5c1.45-.34,11.37-16.81,13.62-19-.23-.04-1.37-.65-1.5-.75l.12.5c-4.9-.07-10.14-1.36-15.12-3.41v22.16c.62.08,1.71.37,2.38.48.22.03.4.05.49.02Z"/><path class="e" d="M15,123.75c-.3-.23-1.16-1.24-1-1.75-4.95-.02-10.88-2.69-14-6.94v5.78c4.99,2.05,10.23,3.34,15.12,3.41l-.12-.5Z"/><path class="d" d="M.74,211.49c.09-.01.18,0,.26.01-.31-.27-.46-.48-.51-.68-.08-.34.1-.68.26-1.32h-.25c-.11.55-.27,1-.47,1.37,0,.02-.02.03-.03.04v.88s.08-.05.11-.07c.23-.13.44-.21.63-.24Z"/><path class="c" d="M95.5.5c.48.52.83,1.18,1.25,1.75.28-.27.51-.58.71-.91.26-.42.47-.88.68-1.34h-3.14c1.35.21.28.26.5.5Z"/><path class="c" d="M178,0h-3.02c0,.23,0,.47.02.75,2.13-.29,2.69-.71,3-.75Z"/><path class="c" d="M216.25,0h-16.92c6.61.13,13.08.23,16.92,0Z"/><path class="c" d="M249.36.08c.44,0,.91-.01,1.39-.02.24,0,.48,0,.72-.01.48,0,.97-.02,1.45-.03.51,0,1.01-.02,1.48-.02h-7.89c.29.05.88.08,1.63.08.37,0,.79,0,1.23,0Z"/><path class="c" d="M64.28.07c1.2-.02,2.43-.03,3.66-.05.48,0,.96-.01,1.43-.02h-20.62c3.03.18,8.92.15,15.53.07Z"/><path class="e" d="M21.75,7.88c.03.13-.03.33-.12.54-.21.48-.61,1.02-.63,1.08-.11.34-.16,1.1-.25,1.5,1.05.13,4.19-.79,5.5-1.25.07-.02.2-.15.42-.33.33-.27.85-.64,1.6-.94.5-.2,1.1-.37,1.82-.44.36-.04.74-.05,1.16-.04.97-1.27,1.9-.69,2-.75.01,0,.02-.02.03-.05.02-.04.03-.12.09-.23.14-.27.52-.75,1.76-1.48.61-.36,1.79-.45,1.88-.5.06-.04.17-.11.32-.21.22-.14.5-.33.74-.48.23-.16.42-.28.44-.31.11-.12.17-.4.3-.77.1-.27.23-.59.45-.91.07-.11.16-.21.25-.32.08-.09.14-.16.2-.24.12-.14.22-.26.32-.35.15-.13.31-.2.56-.22.17,0,.38,0,.67.05.25-.32.45-.69.63-1.1.02-.05.04-.1.06-.15h-24.18c-.34,1.61-.21,3.82-.25,5.5.47.11,4.16,1.99,4.25,2.38Z"/><path class="e" d="M163,3.38c.08-.16.42-2.28.75-3.38h-25.5c.31.84.68,2.51.75,2.62,2.34,3.95,22.24,4.38,24,.75Z"/><path class="e" d="M174.82,1c.11-.03.15-.09.16-.15.01-.06,0-.1.01-.11,0-.28-.01-.52-.02-.75h-.73c0,.05.23.95.25,1,.15.02.25.02.32,0Z"/><path class="c" d="M236.88,2c.1-.08.78-.99,1.52-2h-14.39c3.25,1.59,7.24,3.45,7.62,3.5.99.14,4.39-.8,5.25-1.5Z"/><path class="e" d="M104.06.29c.12.03.24.06.37.09.25.06.52.12.79.19,1.23.28,2.54.52,2.91.43.26-.06.47-.14.64-.22.16-.09.28-.18.37-.29.12-.15.17-.32.17-.49h-6.3c.1.03.25.08.43.13s.39.11.63.16Z"/><path class="c" d="M8.87.01c.53,0,1.05,0,1.58-.01H0c2.96.05,5.92.03,8.87.01Z"/></svg>