<svg xlink="http://www.w3.org/1999/xlink" viewBox="0 0 5000 5000" xmlns="http://www.w3.org/2000/svg" style="transform: scale(1.16);"><defs><filter id="goo"><feGaussianBlur in="SourceGraphic" stdDeviation="0" result="blur"></feGaussianBlur><feColorMatrix in="blur" type="matrix" values="1 0 0 0 0 0 1 0 0 0 0 0 1 0 0 0 0 0 19 -9" result="good"></feColorMatrix><feComposite in="SourceGraphic" in2="goo" operator="atop"></feComposite></filter><path d="M197,250C199,226 214,206 234,200C257,194 280,202 293,219C306,239 305,264 293,281C277,300 254,307 234,300C211,291 197,271 197,250z" id="P0"></path><path d="M240,327C205,320 180,295 173,265C169,229 186,197 212,182C245,167 281,172 303,193C328,219 333,255 321,283C303,314 271,331 240,327z" id="P1"></path><path d="M210,255C209,237 219,221 233,214C250,207 268,211 279,223C291,237 292,255 285,269C275,285 258,292 243,289C225,285 212,271 210,255z" id="P2"></path><path d="M241,181C273,179 301,195 313,220C325,250 318,282 298,301C273,321 241,324 216,311C189,294 176,264 181,237C189,206 214,184 241,181z" id="P3"></path></defs><rect id="RECT" width="5000" height="5000" fill="#FFABBB"></rect><g id="group" fill="#FFF" filter=""><use x="-846" y="-502" href="#P0"></use><use x="-1067" y="26" href="#P3"></use><use x="-1256" y="712" href="#P2"></use><use x="-1197" y="1074" href="#P2"></use><use x="-1223" y="2238" href="#P2"></use><use x="-1282" y="3491" href="#P3"></use><use x="-1158" y="4216" href="#P2"></use><use x="-861" y="4510" href="#P1"></use><use x="-558" y="5667" href="#P0"></use><use x="-193" y="6318" href="#P1"></use><use x="373" y="-1248" href="#P1"></use><use x="-358" y="-314" href="#P3"></use><use x="-344" y="865" href="#P3"></use><use x="-806" y="1400" href="#P3"></use><use x="-609" y="2737" href="#P2"></use><use x="-340" y="3135" href="#P0"></use><use x="-5" y="4344" href="#P3"></use><use x="-36" y="4633" href="#P2"></use><use x="39" y="5716" href="#P3"></use><use x="126" y="6380" href="#P2"></use><use x="688" y="-908" href="#P2"></use><use x="524" y="-95" href="#P2"></use><use x="365" y="677" href="#P3"></use><use x="701" y="1462" href="#P2"></use><use x="709" y="2558" href="#P1"></use><use x="88" y="3345" href="#P1"></use><use x="79" y="4039" href="#P1"></use><use x="535" y="4980" href="#P0"></use><use x="688" y="5484" href="#P2"></use><use x="637" y="6313" href="#P2"></use><use x="1420" y="-1216" href="#P0"></use><use x="1751" y="-865" href="#P2"></use><use x="1588" y="634" href="#P2"></use><use x="939" y="1302" href="#P3"></use><use x="1886" y="2018" href="#P2"></use><use x="1151" y="3395" href="#P2"></use><use x="1203" y="4214" href="#P3"></use><use x="1105" y="5210" href="#P2"></use><use x="1989" y="6039" href="#P1"></use><use x="1303" y="6362" href="#P1"></use><use x="2474" y="-1112" href="#P0"></use><use x="2279" y="-339" href="#P0"></use><use x="2273" y="32" href="#P1"></use><use x="2337" y="1092" href="#P0"></use><use x="2504" y="2306" href="#P0"></use><use x="2044" y="3365" href="#P2"></use><use x="2424" y="4332" href="#P1"></use><use x="2168" y="5350" href="#P3"></use><use x="2157" y="5659" href="#P1"></use><use x="2707" y="6322" href="#P2"></use><use x="3442" y="-1008" href="#P2"></use><use x="3524" y="-594" href="#P3"></use><use x="3270" y="315" href="#P2"></use><use x="3536" y="1248" href="#P1"></use><use x="4012" y="2388" href="#P1"></use><use x="3617" y="3848" href="#P3"></use><use x="3796" y="4324" href="#P1"></use><use x="3112" y="5403" href="#P0"></use><use x="3853" y="6105" href="#P0"></use><use x="3719" y="6580" href="#P3"></use><use x="4608" y="-726" href="#P3"></use><use x="4441" y="-244" href="#P3"></use><use x="4710" y="440" href="#P3"></use><use x="4962" y="1788" href="#P1"></use><use x="4170" y="1838" href="#P0"></use><use x="4288" y="3084" href="#P0"></use><use x="4734" y="4640" href="#P1"></use><use x="4094" y="5469" href="#P0"></use><use x="4217" y="5994" href="#P2"></use><use x="3788" y="6611" href="#P2"></use><use x="5302" y="-974" href="#P2"></use><use x="5445" y="-29" href="#P3"></use><use x="5293" y="635" href="#P2"></use><use x="5575" y="1690" href="#P0"></use><use x="5109" y="2268" href="#P0"></use><use x="5824" y="3305" href="#P1"></use><use x="5626" y="4188" href="#P0"></use><use x="5188" y="4651" href="#P2"></use><use x="4758" y="5825" href="#P0"></use><use x="4794" y="6172" href="#P1"></use><use x="5717" y="-666" href="#P3"></use><use x="5660" y="26" href="#P1"></use><use x="6059" y="551" href="#P2"></use><use x="6303" y="1376" href="#P0"></use><use x="6071" y="2163" href="#P3"></use><use x="5879" y="3575" href="#P2"></use><use x="5800" y="4290" href="#P3"></use><use x="6123" y="5006" href="#P0"></use><use x="5590" y="5696" href="#P3"></use><use x="5398" y="5878" href="#P1"></use></g></svg>