<?xml version="1.0" encoding="UTF-8"?><svg id="a" xmlns="http://www.w3.org/2000/svg" viewBox="0 0 256 256.01"><defs><style>.b{fill:none;}.b,.c,.d{stroke-width:0px;}.c{fill:#88cbeb;}.d{fill:#ffabbb;}</style></defs><path class="b" d="M225.73,1.45c-.11.24-.24.48-.4.7.16-.22.29-.45.4-.7Z"/><path class="b" d="M222.52,3.39c-.19-.04-.39-.11-.58-.2.2.09.39.16.58.2Z"/><path class="b" d="M3.38.51c-.15,0-.31-.08-.47-.17.16.09.31.17.47.17Z"/><path class="b" d="M222.8,3.44c.28.03.55,0,.81-.06-.26.07-.53.09-.81.06Z"/><path class="b" d="M4.75,0c-.3,0-.63.12-.89.25.26-.12.58-.25.89-.25Z"/><path class="d" d="M195,256.01h3.25c-.61,0-1.3-.5-1.38-.5-1.06,0-1.33.5-1.88.5Z"/><path class="d" d="M67,256.01h3.25c-.61,0-1.3-.5-1.38-.5-.69,0-1.35.5-1.88.5Z"/><path class="c" d="M256,9.26V3.97c-.02.66-.05,1.33-.07,1.98-.03,1.21-.04,2.36.07,3.31Z"/><path class="c" d="M256,137.26v-6.08c-.08,2.28-.19,4.58,0,6.08Z"/><path class="c" d="M255.9,18.29c0,.35.02.7.03,1.06.02.71.04,1.43.06,2.15,0,.06,0,.13,0,.19v-8.92c-.1,1-.13,2.2-.13,3.5,0,.65.01,1.33.03,2.03Z"/><path class="d" d="M247.25,156.13c-.2,1.01.25,1.95,1.05,2.83.32.35.7.69,1.12,1.02.21.17.43.33.66.49,1.14.81,2.49,1.56,3.76,2.28.76.43,1.5.85,2.15,1.25v-7.75c-2.27-1.21-7.82-4.92-8.75-.12Z"/><path class="d" d="M247.25,28.63c-.29,2.73,6.41,5.94,8.75,7.38v-7.5c-2.18-1.12-8.18-5.27-8.75.12Z"/><path class="d" d="M256,126.51v-5.5c-4.1,1.36-2.52,3.41,0,5.5Z"/><path class="d" d="M256,254.18v-5.17c-4.51,1.44-2.27,3.29,0,5.17Z"/><path class="c" d="M4.75,0c-.3,0-.63.12-.89.25-.26.13-.45.25-.49.25-.15,0-.31-.08-.47-.17C2.64.2,2.36,0,2,0H0c.05.7.06,1.46.05,2.26,0,.56-.03,1.13-.05,1.7v5.29c0,.07.07.17.16.28.09.11.21.24.33.37.06.07.12.13.18.2.17.19.31.38.33.53.06.48-.17.81-.43,1.12-.06.08-.13.15-.19.23-.13.15-.24.31-.31.49-.04.09-.06.18-.07.28v8.92c.07,2.45.13,4.88,0,6.83,2.02,1.04,16.47,9.25,17.12,10,2.23,2.56-.04,6.02-3,5.5-.8-.14-12.47-6.98-14.12-8v17.25c1.27.11,2.76,1.61,3,2.88.03.16.06.68.08,1.47.03.99.06,2.39.07,4.03.02,1.65.03,3.54.04,5.5,0,1.18,0,2.38,0,3.57,0,1.58,0,3.15-.02,4.6,0,.73-.01,1.42-.02,2.08-.03,2.96-.09,5.14-.17,5.5-.24,1.07-1.94,2.53-3,2.62v35.5c8.78,3.42,6.23,10.68,0,5.5.1,1.32.06,2.98,0,4.67v6.08c.02.15.11.29.23.42.16.17.37.34.53.53.08.1.15.21.2.33.04.12.07.25.05.41-.04.38-.31.88-1,1.57v15.75c2.16,1.15,17.34,10.13,17.75,11.12.96,2.31-1.15,4.88-3.62,4.62-.81-.08-12.46-6.96-14.12-8v17.25c1.56.11,2.48,1.28,3,2.62-.05.73-.07,2.1-.08,3.85,0,1.46-.01,3.2-.01,5.05,0,.74,0,1.5,0,2.27,0,.77,0,1.55,0,2.33,0,2.73-.01,5.45-.04,7.77-.01.99-.03,1.91-.06,2.72-.06,1.89-.15,3.2-.3,3.51-.03.07-.09.15-.16.24-.21.25-.57.53-.95.78-.51.33-1.07.58-1.39.61v36c1.81,0,8.15,4.77,4.75,7h47.75c-.38-.63-.61-1.88-.5-2.62.16-1.1,10.29-18.4,11-19.25,3.17-3.78,7.19-1.28,6.75,1.75-.17,1.15-10.97,19.26-11.75,20.12h9c.53,0,1.19-.5,1.88-.5.07,0,.77.5,1.38.5h21c-.75-1.61-3.55-9.37-3.25-10.62.37-1.57,3.9-4.06,6.25.5.25.48,3.7,9.59,3.75,10.12h32c-2.25-2.95-6.93-3.56-3.12-7,2.25-.67,9.16,4.36,5.88,7h47.75c-.15-.21-.53-2.15-.25-3.12.33-1.13,11.09-19.56,12.12-20.12,2.7-1.49,5.87.22,5.38,3.38-2.25,3.19-10.69,19-11.5,19.88h8.75c.55,0,.82-.5,1.88-.5.07,0,.77.5,1.38.5h21c-.43-.89-3.45-8.4-3.5-8.88-.38-3.63,3.68-5.23,5.75-2.25.34.49,4.44,10.53,4.5,11.12h30v-1.83c-2.27-1.88-4.51-3.73,0-5.17v-36c-1.44.12-3.43-1.18-3.75-2.62-.28-1.28-.25-24.96,0-26.25.34-1.76,2.05-3,3.75-2.88v-17.25c-.65-.41-1.39-.82-2.15-1.25-1.27-.72-2.62-1.47-3.76-2.28-.23-.16-.45-.33-.66-.49-.42-.33-.8-.67-1.12-1.02-.81-.88-1.25-1.81-1.05-2.83.93-4.79,6.48-1.08,8.75.12v-15.75c-.56.55-6.73,4.74-7.62,3.5-3.9-2.21,5.92-6.87,7.62-6.75-.19-1.5-.08-3.8,0-6.08v-4.67c-2.52-2.09-4.1-4.14,0-5.5v-35.5c-1.44.12-3.43-1.15-3.75-2.62-.28-1.31-.26-25.44,0-26.75.3-1.51,2.16-3.01,3.75-2.88v-17.25c-2.34-1.43-9.04-4.65-8.75-7.38.57-5.39,6.57-1.25,8.75-.12v-6.83c0-.06,0-.13,0-.19-.02-.72-.04-1.44-.06-2.15,0-.35-.02-.71-.03-1.06-.02-.7-.03-1.38-.03-2.03,0-1.31.03-2.5.13-3.5-3.94,1.03-6.89,6.2-8.75,1.62,0-1.29,7.21-5.65,8.75-5.12-.1-.96-.1-2.1-.07-3.31.02-.65.04-1.31.07-1.98V0h-30c.05.45-.06.96-.27,1.44-.11.24-.24.48-.4.7-.43.58-1.02,1.06-1.71,1.23-.26.07-.53.09-.81.06-.09,0-.19-.02-.28-.05-.19-.04-.39-.11-.58-.2-.89-.42-1.82-1.39-2.69-3.18h-21c1.62,5.3,8.47,14.58.62,13.5-1.47-2.21-6.31-12.1-3.88-13.5h-8.75c-2.1,2.29-4.89,1.24-5.75,0h-47.75c-.62,0-1.06.5-1.12.5-.34,0-1.47-.5-1.62-.5h-32c.25,2.7-3.83,6.28-6.75,0h-21c.51,1.58,4.76,10.76,4.75,11.38-.02,1.2-2.29,2.99-4.12,2.12-.67-.32-4.84-10.52-4.88-11.12-.04-.73.56-1.78,1-2.38h-9c-2.06,2.26-4.63,1.45-5.5,0C36.58-.02,20.67.05,4.75,0ZM12.12,23.76c-3.15,1.17-5.86-1.51-4.12-4.62.48-.86,13.65-12.75,14.62-12.88,2.33-.3,4.82,1.93,3.88,4.38-.35.91-13.46,12.79-14.38,13.12ZM14.38,55.76c6.91.45-2.28,10.45-5.25,9-3.77-1.76,3.4-7.77,5.25-9ZM28.38,148.01c1.62.5,2.73,12.45,2.62,13.12-.38,2.55-5.19,3.59-6.25.25-.38-1.2-2.31-14.01,1.38-13.62l2.25.25ZM24.88,122.51c-.52-.25-7.58-8.79-3.25-9.25,1.68-.88,6.37,6.55,6.38,8.12-.6,1.25-1.78,1.78-3.12,1.12ZM24,102.63c-1.22-1.5,3.35-10.89,4.88-13.12,1.78-.21,2.45.21,3.12,1.88-2.86,5.32-4.11,15.25-8,11.25ZM18.38,73.51c3.75.36,8.9-1.36,8.88,2.62-.4,2.37-15.06,2.51-8.88-2.62ZM19,90.88c.22.99.22,19.26,0,20.25-.71,3.13-6.05,2.94-6.75-.25-.21-.98-.19-19.02,0-20,.26-1.32,1.56-2.53,2.88-2.62,1.48-.11,3.54,1.1,3.88,2.62ZM6.75,118.63c-.64,2.55-5.35,2.82-6,0-.19-.84-.18-16.41,0-17.25.15-.68,1.2-1.96,1.88-2.12,1.61-.4,3.73.35,4.12,2.12.19.84.21,16.41,0,17.25ZM11.62,152.01c-2.77.58-5.01-1.7-3.88-4.38.38-.9,13.42-12.93,14.38-13.12,2.56-.53,5.06,1.43,4.38,4.12-.25.97-13.89,13.17-14.88,13.38ZM32.12,173.51c2.41-.56,5.59,2.09,4.12,4.88-.64,1.21-17.35,19.62-18.62,20.12-2.57,1.02-5.97-2.4-4.38-5.38.64-1.2,17.55-19.32,18.88-19.62ZM52.5,86.63c.46-1,1.76-2.44,2.88-2.62,2.34-.38,4.1,1.16,4.38,3.38-1.67,3.78-4.88,17-5.5,18.25-1.87,3.76-7.06,2.63-6.75-1.75.06-.9,4.62-16.44,5-17.25ZM54.12,66.26l1.88,1.38c-.82,5.87-6.88,1.3-1.88-1.38ZM118.25,69.13c1.42,2.78-1,5.32-3.88,4.88-1.17-.18-16.09-15.57-16.62-16.62-1.1-2.19.4-4.53,1.88-4.88.63-.15,2.34-.02,3,.25,1.05.43,15.11,15.37,15.62,16.38ZM111.62,46.26h1c6.21,8.22-7.79,7.04-1,0ZM156.38,148.01c1.93.49,2.79,12.7,2.62,13.38-.4,1.64-3.15,2.66-4.62,1.88-1.8-.8-4.14-14.59-.25-15.5l2.25.25ZM154.62,122.76c-2.29.61-9.22-8.69-5-9.5h1.25c1.47,2.47,7.44,7.31,3.75,9.5ZM155.25,102.88c-1.1,1.19-2.6.47-3.5-.5-.72-1.37,4.23-12.61,5.12-12.88,6.29-.5.09,7.46-1.62,13.38ZM155,76.63c-.34,1.26-8.44,1.01-8.88.88-1.54-.48-1.43-3.51.5-4,1.79-.45,10.18-.64,8.38,3.12ZM146.5,90.01c.54,1.37.86,19.51.5,21.12-.54,2.45-3.18,2.47-5,1.88-.58-.19-1.96-.71-2.25-1.88-.25-.99-.22-19.5,0-20.5.59-2.72,5.36-4.15,6.75-.62ZM137.38,64.76c-4.27-1.62,3.51-7.93,5.25-9,6.48.85-2.26,10.13-5.25,9ZM150.38,134.51c2.89-.54,5.3,1.8,3.88,4.62-.42.84-13,12.29-13.88,12.62-3.24,1.24-5.92-1.54-4.38-4.38.46-.85,13.42-12.7,14.38-12.88ZM145.12,166.51c2.17,2.54-.02,6.57-4.25,5-1.18-.44-20.9-11.96-21.38-13.12-.64-1.56.32-4.29,2.12-4.62,1.13-.21,2.25.34,3.25.75,1.09.44,19.49,11.1,20.25,12ZM127.62,121.01c1.87-.3,9.28,4.99,4.5,7.5-1.46.34-10.35-5.33-4.5-7.5ZM134.75,118.63c-.64,2.6-5.35,2.76-6,.25-.22-.86-.22-16.89,0-17.75.19-.76,1.89-2.07,2.62-2.12,1.19-.08,3.1,1.19,3.38,2.38.19.84.21,16.41,0,17.25ZM131,82.88c-.65,3.01-5.82,3.23-6.5.25-.3-1.33-.29-25.92,0-27.25.19-.89,1.73-2.48,2.62-2.62,1.4-.22,3.55.93,3.88,2.38.3,1.33.29,25.92,0,27.25ZM126.62,137.26c7.12.87-4.15,7.36-5.75,7-4.33-2.92,2.46-4.52,5.75-7ZM117.38,106.76c-.81-.21-12.46-10.05-12.62-10.88-.34-1.73.77-3.19,2.38-3.88,2.8-.61,12.05,8.26,14.88,11.12.14,2.38-2.44,4.18-4.62,3.62ZM110.25,166.13c-.4.66-12.11,8.33-12.88,8.38-2.18.14-4.14-2.72-2.88-4.88.38-.65,11.41-7.98,12.12-8.12,3.05-.6,4.93,2.48,3.62,4.62ZM111.62,174.01h1c6.29,8.3-7.71,7.42-1,0ZM99.62,180.26c.64-.14,2.09-.02,2.75.25,1.12.46,16.28,16.66,16.38,17.88.19,2.33-2.58,4.42-5.62,2.88-1.04-.52-15.67-15.73-15.88-16.88-.27-1.47.77-3.78,2.38-4.12ZM118.75,137.38c-2.7,2.65-15.41,20.74-17.38,21.12-2.51.5-5.29-1.76-3.88-4.88.5-1.1,13.88-18.17,14.75-19,.7-.67,1.6-1.75,2.62-1.88,2.44-.31,5.06,2.06,3.88,4.62ZM98.88,104.26l2.12,1.38c.04,6.87-7.69,1.79-2.12-1.38ZM105.12,112.26c1.62-.84,10.3,8.25,10.62,8.88,1.53,2.95-.94,5.15-3.88,4.38-.62-.16-8.88-8.29-9.12-8.88-.83-1.97.4-3.81,2.38-4.38ZM98,92.63c-.63-.67-8.93-15.13-9.25-16-.78-2.1-.6-5,2.12-5.38.53-.07,1.5.06,2,.25,1.28.48,11.22,17.78,11.38,18.88.42,2.95-3.5,5.16-6.25,2.25ZM92.88,104.76c-4.35,1.13-3.81-7.38-1.5-7.75,3.07-.49,3.35,6.51,1.5,7.75ZM90.12,115.51c1.13-.22,2.61.23,3.38,1.12.39.46,4.42,10.65,4.5,11.25.42,3.34-3.7,4.87-5.75,2.25-.43-.55-5.25-11.97-4-13.25.16-.34,1.57-1.32,1.88-1.38ZM92.5,149.38c1.67,3.37-1.95,5.64-4.62,4.12-.62-.35-8.82-10.23-9.12-10.88-1.12-2.39-.25-4.04,2.12-4.88.44-.05,1.36.09,1.75.25.7.28,9.54,10.7,9.88,11.38ZM38.88,150.01c1.23-.36-4.03,11.08-3.88,6.62l3.88-6.62ZM34.25,131.63l1.62-1.38c5.87,1.05-2.04,8.01-1.62,1.38ZM35.75,106.38c.17-1.15,1.91-2.76,2.88-2.88,1.22-.15,3.11,1.1,3.62,2.12.53,1.06,3.11,15.19,4.5,18.5-.21,4.09-5.25,4.62-6.75,1.75-.46-.88-4.4-18.51-4.25-19.5ZM37.5,85.38c.03-.56,3.7-10.03,4-10.5.29-.47,1.89-1.79,2.38-1.88,2.42-.42,3.94,1.48,3.62,3.88-.08.57-3.91,10.28-4.25,10.75-1.95,2.67-5.88.3-5.75-2.25ZM48,155.88c-.26-.5-2.78-10.43-2.75-11,.06-1.26,1.58-2.96,2.88-3.12,1.23-.15,2.8.54,3.38,1.62.25.47,2.46,9.72,2.5,10.25.29,4.23-4.69,4.76-6,2.25ZM46.88,175.01c-6.44.58,1.17-8.78,3-10.75,5.99.06-1.73,8.17-3,10.75ZM63,106.63c.66-.84,1.5-1.91,2.62-2.12,2.57-.49,4.74,1.38,4.38,3.62-.19,1.14-10.98,19.13-11.75,20-2.81,3.19-6.62.35-6.25-2.5.14-1.09,10.32-18.14,11-19ZM61.25,73.63c.15-.86,1.82-2.48,2.62-2.62,1.83-.33,3.73,1.1,4.12,2.88.17.79.86,14.02.75,14.75-.46,3.16-6.04,3.45-6.75.25-.16-.75-.88-14.5-.75-15.25ZM75,139.13c-.68,2.1-1.71,2.6-3.88,2.38-.99-.26-4.77-9.8-4.88-10.38-.36-1.92.52-3.11,2.38-3.62,2.83-.01,4.74,9.54,6.38,11.62ZM53.88,194.26c5.7,1.06-1.52,7.46-1.62,1.62l1.62-1.62ZM53.25,141.63c-.32-1.88.73-4.35,2.88-4.62.51-.06,1.54.06,2,.25,1.17.48,9.63,17.83,9.88,18.88.7,2.98-2.3,4.96-4.88,3.88-1.17-.49-9.7-17.34-9.88-18.38ZM67,168.38c.43-.71,12.3-10.24,13.12-10.38,2.53-.4,4.92,2.1,3.38,4.88-.39.71-11.62,10.09-12.38,10.38-3.46,1.32-5.81-2.11-4.12-4.88ZM77.12,131.26l2.12,1.12c.93,6.73-7.83,2.35-2.12-1.12ZM84.88,115.26c-4.33.83-4.42-3.43-5.88-9.12-1.67-6.53-4.18-14.49.12-15.12,1.77-.26,3.23.81,3.88,2.38.33.8,3.8,15.58,4,16.75.34,1.99.66,4.59-2.12,5.12ZM78.62,79.01c-3.21-5.17-10.93-10.87-5.75-13.25,2.41-1.24,7.91,8.19,9.88,11.12-.67,1.74-2.24,2.92-4.12,2.12ZM77.5,52.13c-.4.89-15.66,9.98-16.62,10.12-3.11.48-4.88-2.97-2.75-5.25.62-.67,14.85-9.1,15.75-9.25,2.96-.49,4.49,2.45,3.62,4.38ZM50.5,52.38c-.23,1.14-13.47,17.73-14.62,17.88-2.95.39-4.45-2.64-3.38-5.12.65-1.5,13.02-16.96,14.12-17.12,1.95-.29,4.43,1.67,3.88,4.38ZM27.25,203.88c.18,1.95-8.66,1.52-9.12,1.38-1.54-.48-1.43-3.51.5-4,1.38-.35,9.76-.68,8.62,2.62ZM6.75,246.38c-.64,2.58-5.42,3.13-6.25-.25-.21-.87-.15-16.54.5-17.75.15-.28,1.34-1.31,1.62-1.38,1.63-.39,3.75.62,4.12,2.38.18.83.2,16.18,0,17ZM8,191.38c-.84-1.45,5.55-7.55,6.38-7.62,7.32.4-3.79,12.87-6.38,7.62ZM18.75,239.63c-1,2.45-5.87,2.02-6.5-.5-.25-1.02-.22-19.97,0-21,.13-.58,1.25-1.96,1.88-2.12,1.69-.44,4.17.46,4.62,2.38.24,1.04.4,20.26,0,21.25ZM26.88,250.51c-2.32,1.24-9.79-9.03-5-9.5,1.66-.13,8.42,8.6,5,9.5ZM31.75,219.63c-.05.59-4.13,10.54-4.5,11-1.5,1.87-3.62-.29-3.75-.75-.17-.6,3.45-10.42,4-11.25.55-.83,1.43-1.35,2.38-1.62,1.19.56,1.99,1.18,1.88,2.62ZM32.5,192.88c.43-1,12.57-16.62,13.62-16.88,2.21-.53,5.13,1.67,4.12,4.62-.35,1.02-12.42,16.38-13.38,16.88-2.53,1.31-5.94-.99-4.38-4.62ZM47.75,204.13c-.03.6-4.15,10.76-4.5,11.25-1.74,2.47-6.1.84-5.75-2.5.06-.56,3.93-10.03,4.25-10.5.41-.59,1.69-1.54,2.38-1.62,2-.25,3.74,1.34,3.62,3.38ZM40.25,254.13c-.53-.83-4.73-18.02-4.75-19-.02-1.32,1.36-3.36,2.62-3.62,6.01-1.26,5.53,13.48,8.62,20.62-.09,3.9-4.95,4.43-6.5,2ZM54,233.38c-1.63,3.27-7.43,3.2-6.5-2.75.13-.85,4.6-15.74,5-16.5.74-1.41,1.92-1.94,3.38-2.38,7.97.15-.91,13.78-1.88,21.62ZM68.5,216.63c-.57,2.53-4.62,3.15-6,1-1.02-1.59-1.48-16.06-.75-17.25.35-.56,1.75-1.56,2.38-1.62,1.63-.17,3.56,1.3,3.88,2.88.15.74.67,14.27.5,15ZM60.88,190.01c-2.31.34-4.19-1.85-3.62-4.12.24-.95,15.3-9.9,16.62-10.12,3.17-.54,5.24,2.92,2.75,5.25-.66.62-14.85,8.87-15.75,9ZM73.62,193.51c1.52-.02,9.13,10.24,8.88,11.62-.81,1.5-1.92,2.05-3.62,1.88-1.88-3.19-12.32-11.51-5.25-13.5ZM80.75,241.13c-.41-.95-4.49-19.24-4.25-20.25.16-.67,1.67-1.99,2.38-2.12,1.41-.28,3.16.3,3.88,1.62.65,1.19,3.37,16.29,4.75,19.75-.61,3.38-5.28,4.4-6.75,1ZM83.88,181.51c2.16-.63,14,7.49,14.12,8.38-.23,1.89-1.18,2.89-3.12,3.12-4.69-3.55-16.82-7.45-11-11.5ZM90.62,232.26c-1.29-1.01-1.43-6.92.25-7.25,3.07-.6,3.41,10.1-.25,7.25ZM93,212.38c-3.38-6.01-7.17-11.31-2.62-13.12,2.83-2.33,8.93,9.83,10.62,13.12,1.24,2.42,3.24,5.53,3,7.5-4.35,5.85-7.44-1.17-11-7.5ZM98.62,232.26l1.5.25c3.91,6.31-7.33,5.02-1.5-.25ZM111.88,253.26c-.68-.15-8.88-8.04-9.12-8.62-.94-2.24.23-3.95,2.38-4.62,1.85-.37,10.73,8.9,10.88,9.62.53,2.58-1.67,4.16-4.12,3.62ZM116.88,234.26c-.74-.29-11.83-9.39-12.12-10.12-.71-1.78.84-4.51,2.88-4.62,1.07-.06,13.38,9.58,13.88,10.62,1.17,2.46-1.47,5.34-4.62,4.12ZM124.25,209.88c-.24-1.3-.08-25.22.25-26.5.13-.53,1.78-2.01,2.38-2.12,1.6-.32,3.76.72,4.12,2.38.29,1.31.28,25.44,0,26.75-.75,3.47-6.03,3.47-6.75-.5ZM134.75,246.38c-.67,2.7-5.55,3-6.25-.25-.18-.82-.18-15.93,0-16.75.18-.8,1.51-2.22,2.38-2.38,1.53-.27,3.53.84,3.88,2.38.18.83.2,16.18,0,17ZM141.62,184.01c1.82-.75,4.7.76,2.62,4,.79.69,2.74-1.59,3.75-2.5,7.85-7.08,13.47-17.74,16.75-8.38-2.01,2.58-17.75,20.97-19.12,21.38-3.23.95-4.47-2.02-4.62-4.5-.09-1.37.3-1.43.25-1.62-.16-.66-.45.05-1.5.12-8.34.63-.46-6.07,1.88-8.5ZM180.5,86.38c.46-.93,1.86-2.23,2.88-2.38,1.55-.22,3.81.71,4.12,2.38.19,1-5.03,18.6-5.5,19.5-1.61,3.06-5.94,2.04-6.5-.25-.24-.99,4.28-17.81,5-19.25ZM180,68.63l1.62-2.12c5.41.17.02,7.19-1.62,2.12ZM246.25,69.38c1.3,3.05-1.93,5.76-5.12,4.12-.94-.48-14.03-14.26-14.62-15.12-2.3-3.35-.32-5.53,1.12-5.88.93-.22,2.36.05,3.25.5,1,.51,14.94,15.34,15.38,16.38ZM239.62,46.26h1c6.1,8.29-7.76,6.98-1,0ZM221.5,116.88c.4.54,4.85,11.6,4.75,12.25-.28,1.93-3.95,3.7-6,1-.32-.43-3.89-9.47-4-10-.38-1.76-.46-4.17,1.88-4.62,1.4-.27,2.53.23,3.38,1.38ZM218.88,98.01c.79-.11,2.43,5.73.75,6.5-1.2.1-2-6.32-.75-6.5ZM226.12,104.51h1.75c4.57,5.54-6.39,6.26-1.75,0ZM222.5,169.63c.36-.63,11.41-7.97,12.12-8.12,3.03-.68,4.63,2.52,3.88,4.38-.29.72-12.11,8.51-12.88,8.62-2.21.33-4.5-2.47-3.12-4.88ZM239.62,174.01l1.25.25c5.48,8.39-7.92,6.78-1.25-.25ZM227.62,180.26c.9-.19,2.42.01,3.25.5.95.56,14.62,15.14,15.12,16.12,1.72,3.36-1.32,5.49-4.12,4.88-1.09-.24-15.02-14.94-15.62-15.88-1.95-3-.14-5.3,1.38-5.62ZM231.5,156.88c-3.8,3.77-7.39.31-6-3,.47-1.12,13.88-18.4,14.75-19.25.68-.66,1.93-1.79,2.88-1.88,2.2-.21,4.67,1.87,3.62,4.62-.44,1.16-14.37,18.63-15.25,19.5ZM239.88,125.51c-.57-.21-8.54-7.63-8.88-8.12-1.61-2.37,0-4.82,1.62-5.12.56-.1,1.97.03,2.5.25.59.24,8.88,8.29,9.12,8.88,1.21,2.88-1.68,5.11-4.38,4.12ZM232,90.13c.59,3.58-3.51,5.04-6,2.75-.75-.69-9.9-16.74-10-17.75-.16-1.58,1.23-3.66,2.88-3.88.5-.06,1.56.06,2,.25,1.13.48,10.95,17.55,11.12,18.62ZM221,151.38c-.91,2.16-2.93,3.33-5.12,2.12-.64-.35-9.12-10.44-9.38-11.12-.8-2.16.58-4.1,1.62-4.38.56-.15,2.15-.01,2.75.25.77.34,10.31,11.65,10.12,13.12ZM166.88,150.51c1-.1-2.59,6.43-3,6.75-2.19,0,1.37-4.27,3-6.75ZM162.75,131.13l1.38-.88c6.16,1.72-3.26,8.04-1.38.88ZM163.75,107.88c-.13-1.91.94-4.26,3.12-4.38,1.04-.05,2.92,1.21,3.38,2.12.53,1.07,3.1,15.02,4.5,18.5-.09,3.9-5.06,4.97-6.75,1.5-.4-.82-4.19-16.84-4.25-17.75ZM165.5,85.13c.06-.55,3.7-9.79,4-10.25.3-.46,1.89-1.79,2.38-1.88,2.43-.41,3.94,1.52,3.62,3.88-.09.66-4.37,11.57-5.62,11.88-2.32.42-4.64-1.08-4.38-3.62ZM177.12,157.01c-1.46-.87-4.15-11.87-3.38-13.62.23-.52,1.83-1.56,2.38-1.62,1.1-.13,2.83.58,3.38,1.62.61,1.17,2.74,11.44,2.25,12.5-.64,1.38-3.44,1.83-4.62,1.12ZM174.88,175.01c-6.35.28,1.15-8.63,3-10.75,6.03.11-1.79,8.07-3,10.75ZM192.38,105.01c.16-.1,1.66-.74,1.75-.75,2.22-.2,4.22,1.81,3.62,4.12-.3,1.18-11.5,20.39-12.62,20.88-2.83,1.23-5.65-1.12-4.88-4.12.29-1.14,11.13-19.49,12.12-20.12ZM189.25,73.38c.18-.79,1.58-2.22,2.38-2.38,1.31-.26,3.21.37,3.88,1.62.38.71,1.42,15.21,1.25,16-.61,2.89-5.74,3.73-6.75.25-.22-.74-.92-14.74-.75-15.5ZM203,139.13c-.33,1.99-1.98,2.64-3.88,2.38-1.21-.32-5.45-10.91-4.62-12.62l2.12-1.38c2.78-.06,4.82,9.56,6.38,11.62ZM182.12,194.26l1.88,1.12c-.32,5.91-7.08,1.62-1.88-1.12ZM181.75,142.63c-.7-2.21-.53-5.22,2.38-5.62.94-.13,2.49.42,3.12,1.12.67.74,8.52,17.03,8.75,18,.85,3.55-3.64,5.91-6.25,2.5-.54-.71-7.73-15.15-8-16ZM195,168.38c.53-.85,12.53-10.28,13.38-10.38,2.42-.27,4.43,2.1,3.38,4.62-.33.78-12.08,10.6-12.88,10.88-2.81.97-5.68-2.2-3.88-5.12ZM205.12,131.26l1.25.25c4.52,6.31-7.67,5.13-1.25-.25ZM209,113.88c-.48-.84-4.45-17.79-4.5-18.75-.08-1.73.85-3.91,2.88-4.12,1.43-.15,3.05.83,3.62,2.12.56,1.24,3.03,15.22,4.5,19-.27,3.1-4.92,4.51-6.5,1.75ZM206.62,79.01c-3.43-4.99-11.21-11.16-5.5-13.25,1.04-1.29,9.22,9.67,9.38,10.38.45,2.06-2.03,3.76-3.88,2.88ZM205.5,52.13c-.38.9-15.66,9.98-16.62,10.12-2.38.37-4.27-1.71-3.62-4.12.3-1.14,15.89-10.23,16.88-10.38,2.46-.37,4.32,2.13,3.38,4.38ZM178.5,52.63c-.26,1.09-13.04,17.11-14.12,17.38-2.39.59-4.79-1.32-4.38-3.88.17-1.06,12.18-16.31,13-17,.74-.62,1.23-.82,2.12-1.12,2.35.37,3.96,2.13,3.38,4.62ZM155.25,203.88c.2,1.96-8.66,1.51-9.12,1.38-1.42-.42-1.79-3.51.5-4,1.58-.34,9.67-.69,8.62,2.62ZM147,238.63c-.81,3.87-6.07,3.22-6.75.5-.3-1.22-.09-21.07.5-22,.2-.32,1.41-1.08,1.62-1.12,1.27-.26,3.6.4,4.12,1.62.53,1.23.74,19.87.5,21ZM154.38,250.76c-1.97.28-9.28-9.25-4.5-9.75,1.56-.33,6.31,6.91,6.12,8.38l-1.62,1.38ZM155.5,230.38c-1.62,2.35-3.87-.04-4-.5-.18-.66,3.66-10.76,4-11.25.39-.56,1.06-1,1.62-1.38,1.59-.25,2.75.71,2.62,2.38-.04.58-3.92,10.27-4.25,10.75ZM160.25,193.13c.36-1.04,12.8-16.88,13.88-17.12,2.2-.49,5.18,1.63,4.12,4.62-.38,1.07-13.25,17.22-14.38,17.38-2.71.38-4.44-2.49-3.62-4.88ZM175.5,204.63c-.08.66-4.37,11.57-5.62,11.88-2.32.42-4.64-1.08-4.38-3.62.07-.7,4.5-12.25,6.38-12.12,2.61-.13,3.97,1.17,3.62,3.88ZM167.5,251.88c-.27-.82-4-15.89-4-16.75,0-1.82,1.34-2.98,2.88-3.62,5.29-1.53,5.64,14.13,8.38,20.38.13,3.51-5.08,6.48-7.25,0ZM182,233.38c-1.81,3.49-6.89,2.61-6.75-1.5.03-.92,4.82-16.93,5.25-17.75.5-.96,1.42-1.64,2.38-2.12,9.56-1.22.36,12.91-.88,21.38ZM196.5,216.63c-.64,2.53-5.73,3.85-6.75-.75-.16-.71-.66-13.79-.5-14.5.22-.99,1.89-2.52,2.88-2.62,1.84-.2,3.57,1.39,3.88,3.12.13.73.68,14.03.5,14.75ZM188.88,190.01c-3.05.47-5.02-3.01-2.75-5.25.65-.64,14.86-8.85,15.75-9,3.18-.53,5.12,3,2.75,5.25-.66.63-14.85,8.86-15.75,9ZM201.62,193.51c1.38.05,8.99,10.3,8.88,11.38-.76,1.77-2.26,2.61-4.12,1.88-1.55-3.4-12.04-11.38-4.75-13.25ZM208.5,240.63c-.32-.85-3.94-16.84-4-17.75-.1-1.62.28-3.71,2.12-4.12,2.88-.66,3.88,1.09,4.62,3.38.27.84,3.94,16.37,4,17.25.26,4.06-5.15,5.54-6.75,1.25ZM211.12,186.01c-1.57-1.67-.81-3.25.75-4.5,2.25-.59,14.05,7.62,14.12,8.62-.19,1.1-1.15,2.7-2.38,2.88-.98.14-11.62-6.06-12.5-7ZM216,203.13c-.15-1.28,1.02-3.57,2.38-3.88,1.64-.37,2.59.22,3.62,1.38.63.7,9.18,15.36,9.5,16.25,1.83,5.08-3.16,6.74-6,3.25-.62-.76-9.39-16.03-9.5-17ZM220.62,232.76c-4.04.86-3.35-7.25-1.5-7.75,3.63-.97,3.06,7.23,1.5,7.75ZM225,233.88l1.62-1.62c6.51.91-1.38,8.91-1.62,1.62ZM240.38,253.51c-1.07-.15-9.37-8.27-9.62-8.88-.83-1.98.32-4.56,2.62-4.62,1.72-.05,11.01,8.85,10.88,10.88-.47,1.76-2.04,2.88-3.88,2.62ZM249.75,230.63c.6,2.58-2.06,4.4-4.38,3.88-.8-.18-12.32-9.62-12.62-10.38-.74-1.8.41-3.68,2.12-4.38,2.92-.71,11.56,7.97,14.88,10.88ZM250,103.13c.14,2.38-2.44,4.18-4.62,3.62-.8-.2-12.43-9.82-12.62-10.62-.34-1.4.59-3.76,2.12-4.12,2.99-.72,12.78,8.69,15.12,11.12ZM225.25,26.13c.43-1.2,14.54-19.41,15.5-20.25.46-.4,1.88-1.32,2.38-1.38,2.2-.24,4.94,2.08,3.62,4.88-.53,1.12-14.38,18.62-15.25,19.5-3.94,4.02-7.4.47-6.25-2.75ZM235.12,33.51c2.44-.16,4.4,2.78,3.12,4.88-.44.72-13.07,9.51-14.38,8.12-6.1-4.75,5.58-8.81,11.25-13ZM226,62.13c-.09,1.95-1.73,3.24-3.62,2.88-.78-.15-13.42-7.94-12.12-9.38l1.62-2.12c2.09-.62,14.03,7.54,14.12,8.62ZM210.62,10.26c.69.29,9.61,10.67,9.88,11.38,1.05,2.81-1.58,5.34-4.38,4.12-.66-.29-9.07-10.22-9.38-10.88-.72-1.53-.73-4.37,1.38-4.88.59-.14,1.88,0,2.5.25ZM205.12,3.26l1,.25c4.98,6.61-7.88,4.94-1-.25ZM208.12,30.01c2.78-.44,4.79,2.38,3.38,4.88-.4.7-11.62,10.09-12.38,10.38-3.2,1.2-5.82-1.88-4.12-4.88.41-.73,12.29-10.24,13.12-10.38ZM183.38,9.26c1.44-.34,2.92,0,3.88,1.12.69.82,8.96,18.21,8.75,19.5-.28,1.77-3.07,3.02-5.12,2.12-1.07-.46-9.38-17.13-9.62-18.12-.41-1.64.25-4.18,2.12-4.62ZM173.5,15.63c.15-.38,1.96-1.8,2.38-1.88,1.14-.2,2.71.35,3.38,1.38.3.46,2.72,10.2,2.75,10.75.2,3.86-4.71,4.49-6,2.25-.32-.56-2.97-11.28-2.5-12.5ZM177.88,36.26c6.21-.02-1.71,8.64-3.25,11-5.87-.75,1.53-8.37,3.25-11ZM163,28.63l3.62-5.62c.81-.09-2.85,8.76-3.62,5.62ZM164.12,2.26c5.18,1.36-1.34,7.59-1.88,1.88l1.88-1.88ZM164.25,50.63c-.65,1.2-17.35,19.63-18.62,20.12-2.25.87-6.29-2.07-4.12-5.62.71-1.17,17.77-19.45,19.12-19.62,2.1-.27,5.18,2.26,3.62,5.12ZM159,33.38c-7.15,8.08-7.41-8.09-6.75-12.25.21-.37,1.55-1.31,1.88-1.38,5.14-.99,3.75,7.53,4.88,13.62ZM135.75,19.63c.4-.93,13.9-13.26,15.12-13.38,2.37-.23,4.34,2.03,3.62,4.38-.29.96-13.89,13.17-14.88,13.38-2.77.58-5.01-1.7-3.88-4.38ZM126.88,9.01c6.57,1.62-5.04,7.58-6.25,7.25-4.2-3.11,3.34-5.04,6.25-7.25ZM121.88,25.76c1.14-.14,2.7.78,3.75,1.25,1.03.47,18.73,10.67,19.5,11.5,2.25,2.41.19,6.4-3.75,5.25-1.12-.33-19.35-11.01-20.25-11.75-3.9-3.21-.75-6.07.75-6.25ZM97.5,25.63c.52-1.11,14.09-18.67,15-19.5.62-.56,1.82-1.55,2.62-1.62,2.53-.22,4.51,2.14,3.62,4.62-.42,1.18-14.37,18.86-15.25,19.75-4.11,4.16-7.62.21-6-3.25ZM94.5,41.88c.31-.69,11.87-8.29,12.62-8.38,2.35-.25,4.49,2.7,3.12,4.88-.36.57-10.5,7.37-11.12,7.62-4.17,1.71-5.57-2.02-4.62-4.12ZM98,61.88c.05,2.06-1.63,3.51-3.62,3.12-.76-.15-12.76-7.65-12.12-9.12l1.62-2.38c.61.08,1.48-.11,2,0,.72.16,12,7.64,12.12,8.38ZM80.12,10.01c.84-.23,2.2,0,3,.5.63.39,9.37,10.67,9.62,11.38,1.04,2.87-2,4.96-4.62,3.88-.71-.3-9.72-11.12-9.88-11.88-.33-1.6.76-3.57,1.88-3.88ZM77.38,3.26l1.62.88c2.09,7.03-8.08,2.85-1.62-.88ZM80.38,30.01c2.46-.29,4.46,2.06,3.38,4.62-.32.76-11.85,10.34-12.62,10.62-3.38,1.24-5.74-2.11-4.12-4.88.43-.73,12.42-10.26,13.38-10.38ZM55.62,9.26c1.44-.3,2.68,0,3.62,1.12.65.76,8.59,17.01,8.75,18,.6,3.61-3.88,5.32-6.25,2.5-.64-.77-8.69-17-8.75-18-.08-1.25,1.29-3.34,2.62-3.62ZM48.12,13.76c.76-.09,1.61.1,2.25.5,1.33.83,3.99,11.93,3.38,13.38-.78,1.82-4.13,2.24-5.5.75-.34-3.19-5.82-13.96-.12-14.62ZM49.88,36.26c6.15-.55-1.56,8.8-3.5,11-5.45-.58,1.82-8.84,3.5-11ZM39.12,22.01c.62-.04-3.32,9.53-4.12,6.38l1-1.75c1.13.5.8-2.82,3.12-4.62ZM36.12,2.26l1.88.88c.61,6.2-7.31,2.39-1.88-.88ZM36.75,49.63c-2.33,2.48-17.58,20.33-18.88,20.88-3.06,1.29-5.95-2.02-4.88-4.88.49-1.32,18.23-19.93,19.62-20.12,2.03-.29,4.5,2.04,4.12,4.12ZM31,33.13c-.42,2.53-5.23,3.54-6.25.25-.29-.94-2.15-13.86,1.12-13.62l2.5.25c1.68.4,2.74,12.45,2.62,13.12Z"/><path class="d" d="M198.88,13.51c7.84,1.08,1-8.2-.62-13.5h-3.25c-2.43,1.4,2.41,11.29,3.88,13.5Z"/><path class="d" d="M70.88,13.51c1.84.87,4.1-.92,4.12-2.12.01-.62-4.24-9.79-4.75-11.38h-3.25c-.44.6-1.04,1.65-1,2.38.03.61,4.21,10.81,4.88,11.12Z"/><path class="d" d="M17.75,167.38c-.41-.99-15.59-9.98-17.75-11.12v7.75c1.67,1.04,13.32,7.92,14.12,8,2.47.25,4.58-2.32,3.62-4.62Z"/><path class="d" d="M17.12,38.51c-.65-.75-15.11-8.96-17.12-10v7.5c1.65,1.02,13.33,7.86,14.12,8,2.96.52,5.23-2.94,3-5.5Z"/><path class="d" d="M0,121.01v5.5c6.23,5.18,8.78-2.08,0-5.5Z"/><path class="d" d="M0,249.01v5.17c.74.61,1.48,1.23,2,1.83h2.75c3.4-2.23-2.94-7-4.75-7Z"/><path class="d" d="M192.38,232.76c-1.03.57-11.8,18.99-12.12,20.12-.28.97.1,2.91.25,3.12h5.75c.81-.88,9.25-16.69,11.5-19.88.49-3.15-2.67-4.87-5.38-3.38Z"/><path class="d" d="M63,234.13c-.71.85-10.84,18.15-11,19.25-.11.74.12,1.99.5,2.62h5.5c.78-.86,11.58-18.97,11.75-20.12.44-3.03-3.58-5.53-6.75-1.75Z"/><path class="d" d="M88,245.38c-.3,1.26,2.5,9.01,3.25,10.62h6.75c-.05-.54-3.5-9.64-3.75-10.12-2.35-4.56-5.88-2.07-6.25-.5Z"/><path class="d" d="M215.75,247.13c.05.47,3.07,7.98,3.5,8.88h6.75c-.06-.6-4.16-10.63-4.5-11.12-2.07-2.98-6.13-1.38-5.75,2.25Z"/><path class="d" d="M126.88,249.01c-3.8,3.44.88,4.05,3.12,7h2.75c3.29-2.64-3.63-7.67-5.88-7Z"/><path class="d" d="M252.25,56.13c-.26,1.31-.28,25.44,0,26.75.32,1.47,2.31,2.75,3.75,2.62v-32.25c-1.59-.14-3.45,1.36-3.75,2.88Z"/><path class="d" d="M252.25,184.13c-.25,1.29-.28,24.97,0,26.25.32,1.44,2.31,2.74,3.75,2.62v-31.75c-1.7-.12-3.41,1.12-3.75,2.88Z"/><path class="d" d="M248.38,144.01c.9,1.24,7.07-2.95,7.62-3.5v-3.25c-1.7-.12-11.53,4.54-7.62,6.75Z"/><path class="d" d="M247.25,14.38c1.86,4.58,4.81-.6,8.75-1.62v-3.5c-1.54-.52-8.75,3.83-8.75,5.12Z"/><path class="c" d="M13,65.63c-1.07,2.86,1.81,6.17,4.88,4.88,1.3-.55,16.55-18.4,18.88-20.88.37-2.09-2.09-4.41-4.12-4.12-1.39.2-19.13,18.81-19.62,20.12Z"/><path class="c" d="M141.5,65.13c-2.16,3.55,1.88,6.49,4.12,5.62,1.28-.49,17.97-18.92,18.62-20.12,1.55-2.86-1.52-5.4-3.62-5.12-1.36.18-18.41,18.45-19.12,19.62Z"/><path class="c" d="M17.62,198.51c1.27-.51,17.99-18.91,18.62-20.12,1.46-2.79-1.72-5.43-4.12-4.88-1.33.31-18.23,18.43-18.88,19.62-1.6,2.97,1.81,6.4,4.38,5.38Z"/><path class="c" d="M145.62,198.51c1.38-.41,17.11-18.8,19.12-21.38-3.28-9.36-8.9,1.29-16.75,8.38l-7,8.5c.16,2.48,1.39,5.45,4.62,4.5Z"/><path class="d" d="M131,210.38c.28-1.31.29-25.44,0-26.75-.37-1.66-2.53-2.69-4.12-2.38-.6.12-2.24,1.6-2.38,2.12-.33,1.28-.49,25.2-.25,26.5.72,3.97,6,3.97,6.75.5Z"/><path class="d" d="M231.5,28.88c.87-.88,14.72-18.38,15.25-19.5,1.31-2.79-1.42-5.12-3.62-4.88-.5.05-1.92.97-2.38,1.38-.96.84-15.07,19.05-15.5,20.25-1.15,3.22,2.31,6.77,6.25,2.75Z"/><path class="d" d="M103.5,28.88c.88-.89,14.83-18.57,15.25-19.75.89-2.48-1.09-4.85-3.62-4.62-.81.07-2,1.06-2.62,1.62-.91.83-14.48,18.39-15,19.5-1.62,3.46,1.89,7.41,6,3.25Z"/><path class="d" d="M127.12,53.26c-.89.14-2.43,1.74-2.62,2.62-.29,1.33-.3,25.92,0,27.25.68,2.98,5.85,2.76,6.5-.25.29-1.33.3-25.92,0-27.25-.33-1.44-2.48-2.59-3.88-2.38Z"/><path class="d" d="M114.88,132.76c-1.03.13-1.93,1.21-2.62,1.88-.87.83-14.25,17.9-14.75,19-1.41,3.12,1.37,5.37,3.88,4.88,1.96-.39,14.67-18.47,17.38-21.12,1.19-2.57-1.43-4.93-3.88-4.62Z"/><path class="d" d="M243.12,132.76c-.94.09-2.2,1.21-2.88,1.88-.87.85-14.28,18.13-14.75,19.25-1.39,3.31,2.2,6.77,6,3,.88-.87,14.81-18.34,15.25-19.5,1.05-2.76-1.42-4.83-3.62-4.62Z"/><path class="d" d="M121.12,32.01c.9.74,19.13,11.42,20.25,11.75,3.94,1.15,6-2.84,3.75-5.25-.77-.83-18.47-11.03-19.5-11.5-1.05-.47-2.61-1.39-3.75-1.25-1.5.18-4.65,3.04-.75,6.25Z"/><path class="d" d="M121.62,153.76c-1.8.34-2.77,3.06-2.12,4.62.48,1.16,20.2,12.69,21.38,13.12,4.23,1.57,6.42-2.46,4.25-5-.76-.9-19.16-11.56-20.25-12-1-.41-2.12-.96-3.25-.75Z"/><path class="d" d="M185.12,129.26c1.12-.49,12.32-19.69,12.62-20.88.6-2.31-1.4-4.32-3.62-4.12-.09,0-1.59.65-1.75.75-.99.63-11.83,18.99-12.12,20.12-.78,3.01,2.04,5.35,4.88,4.12Z"/><path class="d" d="M58.25,128.13c.77-.87,11.56-18.86,11.75-20,.36-2.25-1.8-4.12-4.38-3.62-1.13.22-1.96,1.29-2.62,2.12-.68.86-10.86,17.91-11,19-.37,2.85,3.44,5.69,6.25,2.5Z"/><path class="c" d="M113.12,201.26c3.04,1.54,5.81-.55,5.62-2.88-.1-1.21-15.25-17.41-16.38-17.88-.66-.27-2.11-.39-2.75-.25-1.61.35-2.64,2.66-2.38,4.12.21,1.14,14.84,16.35,15.88,16.88Z"/><path class="c" d="M241.88,201.76c2.8.62,5.84-1.52,4.12-4.88-.5-.98-14.17-15.57-15.12-16.12-.83-.49-2.35-.69-3.25-.5-1.52.33-3.33,2.62-1.38,5.62.61.94,14.53,15.63,15.62,15.88Z"/><path class="c" d="M102.62,52.76c-.66-.27-2.37-.4-3-.25-1.48.34-2.98,2.68-1.88,4.88.53,1.05,15.46,16.45,16.62,16.62,2.87.44,5.3-2.1,3.88-4.88-.52-1.01-14.58-15.94-15.62-16.38Z"/><path class="c" d="M230.88,53.01c-.89-.45-2.32-.72-3.25-.5-1.44.35-3.42,2.53-1.12,5.88.6.87,13.69,14.65,14.62,15.12,3.2,1.64,6.42-1.08,5.12-4.12-.44-1.03-14.37-15.87-15.38-16.38Z"/><path class="c" d="M142.38,216.01c-.22.05-1.42.81-1.62,1.12-.59.93-.8,20.78-.5,22,.68,2.72,5.94,3.37,6.75-.5.24-1.13.03-19.77-.5-21-.53-1.22-2.86-1.89-4.12-1.62Z"/><path class="c" d="M63.12,160.01c2.57,1.08,5.57-.89,4.88-3.88-.24-1.04-8.7-18.39-9.88-18.88-.46-.19-1.49-.31-2-.25-2.14.27-3.19,2.75-2.88,4.62.18,1.03,8.71,17.88,9.88,18.38Z"/><path class="c" d="M190.88,32.01c2.06.89,4.84-.36,5.12-2.12.21-1.29-8.06-18.68-8.75-19.5-.96-1.13-2.44-1.47-3.88-1.12-1.88.45-2.53,2.98-2.12,4.62.25,1,8.56,17.66,9.62,18.12Z"/><path class="d" d="M46.62,48.01c-1.11.17-13.48,15.63-14.12,17.12-1.07,2.48.42,5.51,3.38,5.12,1.15-.15,14.39-16.74,14.62-17.88.55-2.7-1.93-4.67-3.88-4.38Z"/><path class="c" d="M196,156.13c-.23-.97-8.08-17.26-8.75-18-.64-.7-2.18-1.26-3.12-1.12-2.9.4-3.07,3.41-2.38,5.62.27.85,7.46,15.29,8,16,2.61,3.41,7.1,1.05,6.25-2.5Z"/><path class="c" d="M14.12,216.01c-.62.16-1.75,1.55-1.88,2.12-.22,1.03-.25,19.98,0,21,.63,2.52,5.5,2.95,6.5.5.4-.99.24-20.21,0-21.25-.45-1.92-2.94-2.81-4.62-2.38Z"/><path class="c" d="M12.25,90.88c-.19.98-.21,19.02,0,20,.7,3.19,6.04,3.38,6.75.25.22-.99.22-19.26,0-20.25-.33-1.52-2.4-2.73-3.88-2.62-1.32.1-2.62,1.31-2.88,2.62Z"/><path class="c" d="M68,28.38c-.16-.99-8.1-17.24-8.75-18-.95-1.12-2.19-1.43-3.62-1.12-1.33.28-2.71,2.37-2.62,3.62.06,1,8.11,17.23,8.75,18,2.37,2.82,6.85,1.11,6.25-2.5Z"/><path class="d" d="M175.12,48.01c-.89.31-1.39.51-2.12,1.12-.82.69-12.83,15.94-13,17-.41,2.56,1.98,4.46,4.38,3.88,1.09-.27,13.87-16.28,14.12-17.38.58-2.49-1.03-4.26-3.38-4.62Z"/><path class="c" d="M140.25,90.63c-.22,1-.25,19.51,0,20.5.12.47,1.23,1.56,1.75,1.88,1.82.59,4.46.57,5-1.88.36-1.62.04-19.76-.5-21.12-1.43-2.23-5.63-2.18-6.25.62Z"/><path class="d" d="M175.5,105.63c.56,2.29,4.89,3.31,6.5.25.47-.9,5.69-18.5,5.5-19.5-.32-1.67-2.58-2.6-4.12-2.38-1.01.15-2.41,1.44-2.88,2.38-.72,1.44-5.24,18.26-5,19.25Z"/><path class="d" d="M178.25,180.63c1.06-2.99-1.92-5.12-4.12-4.62-1.08.24-13.52,16.08-13.88,17.12-.82,2.38.92,5.25,3.62,4.88,1.12-.16,14-16.31,14.38-17.38Z"/><path class="c" d="M104,219.88c.24-1.97-1.76-5.08-3-7.5-1.7-3.29-7.8-15.45-10.62-13.12-4.55,1.82-.76,7.11,2.62,13.12,3.56,6.33,6.65,13.35,11,7.5Z"/><path class="c" d="M220.88,71.51c-.44-.19-1.5-.31-2-.25-1.64.21-3.03,2.3-2.88,3.88.1,1.01,9.25,17.06,10,17.75,2.49,2.29,6.59.83,6-2.75-.18-1.07-10-18.15-11.12-18.62Z"/><path class="d" d="M54.25,105.63c.62-1.25,3.83-14.47,5.5-18.25-.28-2.22-2.04-3.76-4.38-3.38-1.11.18-2.41,1.63-2.88,2.62-.38.81-4.94,16.35-5,17.25-.31,4.38,4.88,5.51,6.75,1.75Z"/><path class="c" d="M92.88,71.51c-.5-.19-1.47-.32-2-.25-2.72.38-2.91,3.28-2.12,5.38.32.87,8.62,15.33,9.25,16,2.75,2.91,6.67.7,6.25-2.25-.16-1.1-10.09-18.39-11.38-18.88Z"/><path class="d" d="M50.25,180.63c1.01-2.96-1.91-5.15-4.12-4.62-1.06.25-13.2,15.88-13.62,16.88-1.57,3.64,1.84,5.93,4.38,4.62.96-.49,13.03-15.86,13.38-16.88Z"/><path class="c" d="M231.5,216.88c-.32-.89-8.87-15.55-9.5-16.25-1.04-1.15-1.99-1.75-3.62-1.38-1.35.31-2.52,2.6-2.38,3.88.11.97,8.88,16.24,9.5,17,2.84,3.49,7.83,1.83,6-3.25Z"/><path class="d" d="M182.88,212.01c-.95.48-1.87,1.16-2.38,2.12-.43.82-5.22,16.83-5.25,17.75-.14,4.11,4.94,4.99,6.75,1.5,1.23-8.46,10.43-22.6.88-21.38Z"/><path class="d" d="M55.88,211.76c-1.46.44-2.63.96-3.38,2.38-.4.76-4.87,15.65-5,16.5-.93,5.95,4.87,6.02,6.5,2.75.97-7.84,9.84-21.47,1.88-21.62Z"/><path class="d" d="M166.38,231.51c-1.53.64-2.88,1.81-2.88,3.62,0,.86,3.73,15.93,4,16.75,2.17,6.48,7.38,3.51,7.25,0-2.74-6.24-3.09-21.91-8.38-20.38Z"/><path class="d" d="M38.12,231.51c-1.27.27-2.65,2.31-2.62,3.62.02.98,4.22,18.17,4.75,19,1.55,2.43,6.41,1.9,6.5-2-3.09-7.15-2.62-21.88-8.62-20.62Z"/><path class="d" d="M174.75,124.13c-1.4-3.48-3.97-17.43-4.5-18.5-.45-.92-2.33-2.18-3.38-2.12-2.19.11-3.25,2.47-3.12,4.38.06.91,3.85,16.93,4.25,17.75,1.69,3.47,6.66,2.4,6.75-1.5Z"/><path class="d" d="M78.88,218.76c-.7.14-2.21,1.46-2.38,2.12-.24,1.01,3.84,19.3,4.25,20.25,1.47,3.4,6.14,2.38,6.75-1-1.38-3.46-4.1-18.56-4.75-19.75-.72-1.32-2.47-1.9-3.88-1.62Z"/><path class="d" d="M46.75,124.13c-1.39-3.31-3.97-17.44-4.5-18.5-.51-1.02-2.4-2.27-3.62-2.12-.97.12-2.7,1.73-2.88,2.88-.15.99,3.79,18.62,4.25,19.5,1.5,2.87,6.54,2.34,6.75-1.75Z"/><path class="d" d="M206.62,218.76c-1.84.42-2.23,2.51-2.12,4.12.06.91,3.68,16.9,4,17.75,1.6,4.29,7.01,2.81,6.75-1.25-.06-.88-3.73-16.41-4-17.25-.74-2.29-1.75-4.03-4.62-3.38Z"/><path class="d" d="M207.38,91.01c-2.02.22-2.96,2.4-2.88,4.12.05.96,4.02,17.91,4.5,18.75,1.58,2.76,6.23,1.35,6.5-1.75-1.47-3.78-3.94-17.76-4.5-19-.58-1.29-2.19-2.28-3.62-2.12Z"/><path class="d" d="M83,93.38c-.65-1.57-2.11-2.64-3.88-2.38-4.3.64-1.79,8.6-.12,15.12,1.46,5.7,1.55,9.95,5.88,9.12,2.78-.53,2.46-3.14,2.12-5.12-.2-1.17-3.67-15.95-4-16.75Z"/><path class="d" d="M26.5,10.63c.94-2.45-1.55-4.67-3.88-4.38-.97.12-14.15,12.02-14.62,12.88-1.73,3.12.98,5.79,4.12,4.62.91-.34,14.03-12.22,14.38-13.12Z"/><path class="d" d="M139.62,24.01c.98-.2,14.58-12.42,14.88-13.38.72-2.34-1.25-4.61-3.62-4.38-1.22.12-14.73,12.44-15.12,13.38-1.14,2.67,1.11,4.95,3.88,4.38Z"/><path class="d" d="M140.38,151.76c.88-.34,13.45-11.79,13.88-12.62,1.42-2.83-.99-5.16-3.88-4.62-.95.18-13.91,12.03-14.38,12.88-1.55,2.83,1.14,5.62,4.38,4.38Z"/><path class="d" d="M26.5,138.63c.68-2.7-1.82-4.65-4.38-4.12-.95.2-13.99,12.23-14.38,13.12-1.14,2.67,1.11,4.95,3.88,4.38.98-.2,14.63-12.4,14.88-13.38Z"/><path class="d" d="M73.88,47.76c-.9.15-15.13,8.58-15.75,9.25-2.13,2.28-.36,5.73,2.75,5.25.96-.15,16.22-9.24,16.62-10.12.87-1.92-.67-4.86-3.62-4.38Z"/><path class="d" d="M202.12,47.76c-.98.15-16.57,9.23-16.88,10.38-.64,2.42,1.25,4.49,3.62,4.12.96-.15,16.24-9.23,16.62-10.12.95-2.24-.92-4.75-3.38-4.38Z"/><path class="d" d="M73.88,175.76c-1.32.23-16.39,9.17-16.62,10.12-.56,2.28,1.32,4.46,3.62,4.12.9-.13,15.09-8.38,15.75-9,2.49-2.33.42-5.79-2.75-5.25Z"/><path class="d" d="M201.88,175.76c-.89.15-15.1,8.36-15.75,9-2.27,2.24-.3,5.72,2.75,5.25.9-.14,15.09-8.37,15.75-9,2.37-2.25.43-5.78-2.75-5.25Z"/><path class="d" d="M130.88,227.01c-.87.15-2.2,1.57-2.38,2.38-.18.82-.18,15.93,0,16.75.7,3.25,5.58,2.95,6.25.25.2-.82.18-16.17,0-17-.34-1.54-2.35-2.65-3.88-2.38Z"/><path class="d" d="M2.62,227.01c-.29.07-1.47,1.1-1.62,1.38-.65,1.21-.71,16.88-.5,17.75.83,3.38,5.61,2.83,6.25.25.2-.82.18-16.17,0-17-.38-1.75-2.49-2.77-4.12-2.38Z"/><path class="d" d="M196.75,88.63c.17-.79-.87-15.29-1.25-16-.66-1.25-2.56-1.89-3.88-1.62-.79.16-2.19,1.58-2.38,2.38-.17.76.53,14.76.75,15.5,1.01,3.48,6.14,2.64,6.75-.25Z"/><path class="d" d="M68.75,88.63c.11-.73-.58-13.96-.75-14.75-.39-1.78-2.29-3.2-4.12-2.88-.81.14-2.47,1.76-2.62,2.62-.13.75.59,14.5.75,15.25.71,3.2,6.29,2.91,6.75-.25Z"/><path class="d" d="M192.12,198.76c-.98.11-2.65,1.64-2.88,2.62-.16.71.34,13.79.5,14.5,1.02,4.6,6.11,3.28,6.75.75.18-.72-.37-14.02-.5-14.75-.31-1.74-2.04-3.32-3.88-3.12Z"/><path class="d" d="M64.12,198.76c-.62.07-2.03,1.06-2.38,1.62-.73,1.19-.27,15.66.75,17.25,1.38,2.15,5.43,1.53,6-1,.17-.73-.35-14.26-.5-15-.31-1.58-2.25-3.05-3.88-2.88Z"/><path class="d" d="M198.88,173.51c.8-.27,12.55-10.1,12.88-10.88,1.06-2.53-.95-4.9-3.38-4.62-.85.09-12.85,9.52-13.38,10.38-1.81,2.92,1.07,6.09,3.88,5.12Z"/><path class="d" d="M195,40.38c-1.7,3,.92,6.08,4.12,4.88.76-.28,11.98-9.67,12.38-10.38,1.42-2.49-.59-5.32-3.38-4.88-.83.13-12.71,9.65-13.12,10.38Z"/><path class="d" d="M67,40.38c-1.62,2.76.74,6.12,4.12,4.88.77-.28,12.3-9.86,12.62-10.62,1.08-2.56-.92-4.92-3.38-4.62-.95.11-12.95,9.64-13.38,10.38Z"/><path class="d" d="M71.12,173.26c.75-.29,11.98-9.67,12.38-10.38,1.55-2.77-.84-5.28-3.38-4.88-.83.13-12.69,9.66-13.12,10.38-1.68,2.77.66,6.19,4.12,4.88Z"/><path class="d" d="M131.38,99.01c-.73.05-2.43,1.37-2.62,2.12-.22.86-.22,16.89,0,17.75.65,2.51,5.36,2.35,6-.25.21-.84.19-16.41,0-17.25-.27-1.19-2.19-2.46-3.38-2.38Z"/><path class="d" d="M2.62,99.26c-.67.17-1.73,1.44-1.88,2.12-.18.84-.19,16.41,0,17.25.65,2.82,5.36,2.55,6,0,.21-.84.19-16.41,0-17.25-.4-1.77-2.51-2.53-4.12-2.12Z"/><path class="d" d="M234.88,219.76c-1.72.7-2.86,2.57-2.12,4.38.31.76,11.83,10.19,12.62,10.38,2.31.52,4.98-1.29,4.38-3.88-3.32-2.91-11.95-11.58-14.88-10.88Z"/><path class="d" d="M234.88,92.01c-1.53.37-2.46,2.72-2.12,4.12.19.8,11.82,10.42,12.62,10.62,2.18.56,4.76-1.25,4.62-3.62-2.34-2.43-12.13-11.85-15.12-11.12Z"/><path class="d" d="M107.62,219.51c-2.03.11-3.58,2.84-2.88,4.62.29.73,11.39,9.84,12.12,10.12,3.15,1.22,5.79-1.66,4.62-4.12-.49-1.04-12.81-10.69-13.88-10.62Z"/><path class="d" d="M107.12,92.01c-1.6.69-2.71,2.15-2.38,3.88.16.82,11.81,10.67,12.62,10.88,2.18.56,4.76-1.25,4.62-3.62-2.83-2.86-12.07-11.73-14.88-11.12Z"/><path class="d" d="M78.25,13.88c.16.76,9.16,11.58,9.88,11.88,2.62,1.08,5.66-1.01,4.62-3.88-.25-.7-8.99-10.98-9.62-11.38-.8-.5-2.16-.73-3-.5-1.11.3-2.2,2.28-1.88,3.88Z"/><path class="d" d="M82.62,138.01c-.39-.16-1.31-.3-1.75-.25-2.37.84-3.24,2.49-2.12,4.88.3.64,8.51,10.53,9.12,10.88,2.68,1.51,6.29-.76,4.62-4.12-.33-.67-9.18-11.09-9.88-11.38Z"/><path class="d" d="M210.88,138.26c-.6-.26-2.19-.4-2.75-.25-1.04.28-2.43,2.21-1.62,4.38.25.68,8.74,10.77,9.38,11.12,2.2,1.21,4.21.03,5.12-2.12.18-1.47-9.36-12.79-10.12-13.12Z"/><path class="d" d="M206.75,14.88c.3.65,8.72,10.59,9.38,10.88,2.8,1.21,5.42-1.31,4.38-4.12-.26-.71-9.18-11.08-9.88-11.38-.62-.26-1.91-.39-2.5-.25-2.11.5-2.09,3.34-1.38,4.88Z"/><path class="d" d="M223.88,46.51c1.3,1.38,13.94-7.4,14.38-8.12,1.27-2.1-.68-5.03-3.12-4.88-5.67,4.19-17.35,8.25-11.25,13Z"/><path class="d" d="M225.62,174.51c.77-.12,12.58-7.91,12.88-8.62.76-1.85-.85-5.05-3.88-4.38-.71.16-11.76,7.49-12.12,8.12-1.38,2.41.92,5.21,3.12,4.88Z"/><path class="d" d="M106.62,161.51c-.72.14-11.74,7.48-12.12,8.12-1.27,2.15.7,5.01,2.88,4.88.77-.05,12.48-7.72,12.88-8.38,1.3-2.15-.58-5.23-3.62-4.62Z"/><path class="d" d="M99.12,46.01c.62-.26,10.77-7.05,11.12-7.62,1.36-2.17-.78-5.13-3.12-4.88-.75.08-12.31,7.68-12.62,8.38-.95,2.1.46,5.84,4.62,4.12Z"/><path class="c" d="M235.12,112.51c-.53-.22-1.94-.35-2.5-.25-1.63.31-3.23,2.76-1.62,5.12.34.5,8.31,7.92,8.88,8.12,2.69.98,5.58-1.25,4.38-4.12-.25-.59-8.54-8.63-9.12-8.88Z"/><path class="d" d="M216.25,120.13c.11.53,3.68,9.57,4,10,2.05,2.7,5.72.93,6-1,.1-.65-4.35-11.71-4.75-12.25-.84-1.14-1.97-1.65-3.38-1.38-2.33.45-2.26,2.86-1.88,4.62Z"/><path class="d" d="M92.25,130.13c2.05,2.62,6.17,1.09,5.75-2.25-.08-.6-4.11-10.79-4.5-11.25-.77-.9-2.24-1.34-3.38-1.12-.31.06-1.72,1.04-1.88,1.38-1.25,1.28,3.57,12.7,4,13.25Z"/><path class="d" d="M44.12,200.76c-.68.09-1.96,1.03-2.38,1.62-.32.47-4.19,9.94-4.25,10.5-.35,3.34,4.01,4.97,5.75,2.5.35-.49,4.47-10.65,4.5-11.25.11-2.04-1.62-3.63-3.62-3.38Z"/><path class="d" d="M165.5,212.88c-.26,2.55,2.06,4.05,4.38,3.62,1.26-.31,5.54-11.21,5.62-11.88.34-2.7-1.02-4-3.62-3.88-1.88-.13-6.3,11.43-6.38,12.12Z"/><path class="d" d="M169.88,88.76c1.25-.3,5.54-11.21,5.62-11.88.31-2.36-1.19-4.28-3.62-3.88-.48.08-2.08,1.41-2.38,1.88-.3.46-3.94,9.7-4,10.25-.26,2.55,2.06,4.05,4.38,3.62Z"/><path class="d" d="M233.38,240.01c-2.3.07-3.46,2.65-2.62,4.62.26.61,8.56,8.72,9.62,8.88,1.84.26,3.4-.86,3.88-2.62.13-2.02-9.16-10.93-10.88-10.88Z"/><path class="d" d="M43.25,87.63c.34-.47,4.17-10.18,4.25-10.75.32-2.39-1.2-4.3-3.62-3.88-.49.08-2.08,1.41-2.38,1.88-.3.47-3.97,9.94-4,10.5-.13,2.55,3.8,4.92,5.75,2.25Z"/><path class="d" d="M182,25.88c-.03-.55-2.45-10.29-2.75-10.75-.67-1.02-2.24-1.57-3.38-1.38-.41.07-2.23,1.5-2.38,1.88-.47,1.22,2.18,11.94,2.5,12.5,1.29,2.24,6.2,1.61,6-2.25Z"/><path class="d" d="M111.88,125.51c2.94.77,5.4-1.43,3.88-4.38-.33-.63-9-9.71-10.62-8.88-1.98.56-3.2,2.4-2.38,4.38.25.59,8.51,8.71,9.12,8.88Z"/><path class="d" d="M54,153.63c-.04-.53-2.25-9.78-2.5-10.25-.57-1.08-2.15-1.78-3.38-1.62-1.3.16-2.82,1.87-2.88,3.12-.03.57,2.49,10.5,2.75,11,1.31,2.51,6.29,1.98,6-2.25Z"/><path class="d" d="M181.75,155.88c.49-1.06-1.64-11.33-2.25-12.5-.55-1.05-2.27-1.76-3.38-1.62-.55.07-2.15,1.11-2.38,1.62-.77,1.76,1.92,12.76,3.38,13.62,1.18.7,3.99.25,4.62-1.12Z"/><path class="d" d="M53.75,27.63c.62-1.44-2.04-12.54-3.38-13.38-.64-.4-1.49-.59-2.25-.5-5.69.67-.22,11.44.12,14.62,1.37,1.49,4.72,1.07,5.5-.75Z"/><path class="d" d="M105.12,240.01c-2.14.67-3.32,2.39-2.38,4.62.24.58,8.44,8.48,9.12,8.62,2.46.54,4.65-1.05,4.12-3.62-.15-.73-9.03-10-10.88-9.62Z"/><path class="d" d="M24.75,161.38c1.06,3.34,5.87,2.3,6.25-.25.1-.67-1-12.62-2.62-13.12l-2.25-.25c-3.69-.38-1.76,12.42-1.38,13.62Z"/><path class="d" d="M25.88,19.76c-3.28-.23-1.42,12.68-1.12,13.62,1.02,3.29,5.83,2.28,6.25-.25.11-.68-.94-12.73-2.62-13.12l-2.5-.25Z"/><path class="d" d="M152.25,21.13c-.66,4.16-.4,20.33,6.75,12.25-1.12-6.1.26-14.61-4.88-13.62-.33.06-1.66,1-1.88,1.38Z"/><path class="d" d="M154.38,163.26c1.48.78,4.22-.24,4.62-1.88.17-.68-.69-12.88-2.62-13.38l-2.25-.25c-3.89.91-1.55,14.7.25,15.5Z"/><path class="d" d="M83.88,53.51l-1.62,2.38c-.64,1.48,11.36,8.98,12.12,9.12,2,.39,3.67-1.06,3.62-3.12-.12-.73-11.4-8.22-12.12-8.38-.52-.11-1.39.08-2,0Z"/><path class="d" d="M226,190.13c-.08-1.01-11.88-9.21-14.12-8.62-1.56,1.25-2.32,2.83-.75,4.5.88.94,11.52,7.14,12.5,7,1.23-.17,2.18-1.77,2.38-2.88Z"/><path class="d" d="M211.88,53.51l-1.62,2.12c-1.29,1.44,11.35,9.22,12.12,9.38,1.89.37,3.53-.92,3.62-2.88-.1-1.08-12.03-9.24-14.12-8.62Z"/><path class="d" d="M98,189.88c-.13-.89-11.97-9.01-14.12-8.38-5.82,4.05,6.31,7.95,11,11.5,1.95-.24,2.89-1.23,3.12-3.12Z"/><path class="d" d="M72.88,65.76c-5.18,2.38,2.54,8.08,5.75,13.25,1.88.79,3.45-.39,4.12-2.12-1.97-2.94-7.47-12.36-9.88-11.12Z"/><path class="d" d="M201.12,65.76c-5.71,2.09,2.07,8.26,5.5,13.25,1.85.89,4.32-.82,3.88-2.88-.15-.7-8.33-11.66-9.38-10.38Z"/><path class="d" d="M82.5,205.13c.25-1.39-7.35-11.65-8.88-11.62-7.07,1.99,3.37,10.31,5.25,13.5,1.71.17,2.82-.38,3.62-1.88Z"/><path class="d" d="M210.5,204.88c.12-1.07-7.49-11.33-8.88-11.38-7.29,1.87,3.2,9.85,4.75,13.25,1.86.73,3.36-.11,4.12-1.88Z"/><path class="d" d="M194.5,128.88c-.82,1.71,3.41,12.31,4.62,12.62,1.9.27,3.54-.39,3.88-2.38-1.56-2.06-3.59-11.68-6.38-11.62l-2.12,1.38Z"/><path class="d" d="M66.25,131.13c.11.57,3.88,10.12,4.88,10.38,2.17.22,3.2-.28,3.88-2.38-1.63-2.09-3.54-11.64-6.38-11.62-1.86.51-2.74,1.7-2.38,3.62Z"/><path class="d" d="M157.12,217.26c-.56.37-1.24.82-1.62,1.38-.34.49-4.18,10.59-4,11.25.13.46,2.38,2.85,4,.5.33-.48,4.21-10.17,4.25-10.75.13-1.66-1.03-2.63-2.62-2.38Z"/><path class="d" d="M29.88,217.01c-.95.28-1.82.79-2.38,1.62-.55.83-4.17,10.65-4,11.25.13.46,2.25,2.62,3.75.75.37-.46,4.45-10.41,4.5-11,.12-1.44-.69-2.06-1.88-2.62Z"/><path class="d" d="M28.88,89.51c-1.53,2.23-6.1,11.63-4.88,13.12,3.89,4,5.14-5.93,8-11.25-.68-1.66-1.35-2.09-3.12-1.88Z"/><path class="d" d="M156.88,89.51c-.89.26-5.84,11.51-5.12,12.88.9.97,2.4,1.69,3.5.5,1.72-5.92,7.91-13.87,1.62-13.38Z"/><path class="d" d="M9.12,64.76c2.97,1.45,12.16-8.55,5.25-9-1.85,1.23-9.02,7.24-5.25,9Z"/><path class="d" d="M142.62,55.76c-1.74,1.07-9.52,7.38-5.25,9,2.99,1.13,11.73-8.15,5.25-9Z"/><path class="d" d="M14.38,183.76c-.82.07-7.22,6.18-6.38,7.62,2.58,5.24,13.7-7.23,6.38-7.62Z"/><path class="d" d="M144.25,188.01c2.07-3.24-.81-4.75-2.62-4-2.33,2.43-10.22,9.13-1.88,8.5.84-.72,4.33-4.23,4.5-4.5Z"/><path class="d" d="M46.38,47.26c1.94-2.2,9.65-11.55,3.5-11-1.68,2.16-8.95,10.42-3.5,11Z"/><path class="d" d="M174.62,47.26c1.54-2.36,9.46-11.02,3.25-11-1.72,2.63-9.12,10.25-3.25,11Z"/><path class="d" d="M46.88,175.01c1.27-2.58,8.99-10.69,3-10.75-1.83,1.97-9.44,11.33-3,10.75Z"/><path class="d" d="M174.88,175.01c1.21-2.68,9.03-10.64,3-10.75-1.85,2.12-9.35,11.03-3,10.75Z"/><path class="c" d="M21.88,241.01c-4.79.47,2.68,10.74,5,9.5,3.42-.9-3.34-9.63-5-9.5Z"/><path class="c" d="M149.62,113.26c-4.22.81,2.71,10.11,5,9.5,3.69-2.19-2.28-7.03-3.75-9.5h-1.25Z"/><path class="c" d="M21.62,113.26c-4.33.46,2.73,9,3.25,9.25,1.35.65,2.53.13,3.12-1.12,0-1.58-4.69-9-6.38-8.12Z"/><path class="c" d="M149.88,241.01c-4.78.5,2.53,10.03,4.5,9.75l1.62-1.38c.18-1.47-4.57-8.71-6.12-8.38Z"/><path class="d" d="M127.62,121.01c-5.85,2.17,3.04,7.84,4.5,7.5,4.78-2.51-2.63-7.8-4.5-7.5Z"/><path class="d" d="M18.38,73.51c-6.18,5.13,8.48,5,8.88,2.62.03-3.99-5.12-2.26-8.88-2.62Z"/><path class="d" d="M146.62,201.26c-2.29.49-1.92,3.58-.5,4,.46.14,9.33.58,9.12-1.38,1.04-3.31-7.04-2.97-8.62-2.62Z"/><path class="d" d="M18.62,201.26c-1.93.49-2.04,3.52-.5,4,.46.15,9.31.58,9.12-1.38,1.13-3.3-7.25-2.97-8.62-2.62Z"/><path class="d" d="M146.62,73.51c-1.93.49-2.04,3.52-.5,4,.44.14,8.54.39,8.88-.88,1.81-3.76-6.58-3.58-8.38-3.12Z"/><path class="d" d="M120.62,16.26c1.21.33,12.82-5.63,6.25-7.25-2.91,2.21-10.45,4.14-6.25,7.25Z"/><path class="d" d="M120.88,144.26c1.6.36,12.87-6.13,5.75-7-3.29,2.48-10.08,4.08-5.75,7Z"/><path class="c" d="M91.38,97.01c-2.31.37-2.85,8.88,1.5,7.75,1.85-1.24,1.57-8.24-1.5-7.75Z"/><path class="c" d="M219.12,225.01c-1.85.5-2.54,8.61,1.5,7.75,1.56-.52,2.13-8.72-1.5-7.75Z"/><path class="d" d="M90.88,225.01c-1.68.33-1.54,6.24-.25,7.25,3.66,2.85,3.32-7.85.25-7.25Z"/><path class="d" d="M112.62,174.01h-1c-6.71,7.42,7.29,8.3,1,0Z"/><path class="d" d="M240.88,174.26l-1.25-.25c-6.67,7.03,6.73,8.64,1.25.25Z"/><path class="d" d="M112.62,46.26h-1c-6.79,7.04,7.21,8.22,1,0Z"/><path class="d" d="M240.62,46.26h-1c-6.76,6.98,7.1,8.29,1,0Z"/><path class="d" d="M206.12,3.51l-1-.25c-6.88,5.19,5.98,6.86,1,.25Z"/><path class="d" d="M79.25,132.38l-2.12-1.12c-5.71,3.47,3.05,7.86,2.12,1.12Z"/><path class="d" d="M98.88,104.26c-5.57,3.17,2.17,8.24,2.12,1.38l-2.12-1.38Z"/><path class="d" d="M226.62,232.26l-1.62,1.62c.25,7.29,8.14-.71,1.62-1.62Z"/><path class="d" d="M206.38,131.51l-1.25-.25c-6.42,5.38,5.77,6.56,1.25.25Z"/><path class="d" d="M79,4.13l-1.62-.88c-6.46,3.72,3.71,7.91,1.62.88Z"/><path class="d" d="M227.88,104.51h-1.75c-4.64,6.26,6.32,5.54,1.75,0Z"/><path class="c" d="M139.75,90.63c-.22,1-.25,19.51,0,20.5.29,1.16,1.67,1.69,2.25,1.88-.52-.32-1.63-1.4-1.75-1.88-.25-.99-.22-19.5,0-20.5.62-2.8,4.82-2.86,6.25-.62-1.39-3.53-6.16-2.1-6.75.62Z"/><path class="d" d="M98.62,232.26c-5.83,5.27,5.41,6.56,1.5.25l-1.5-.25Z"/><path class="d" d="M38,3.13l-1.88-.88c-5.44,3.27,2.48,7.08,1.88.88Z"/><path class="d" d="M164.12,130.26l-1.38.88c-1.88,7.17,7.54.85,1.38-.88Z"/><path class="d" d="M35.88,130.26l-1.62,1.38c-.42,6.64,7.5-.32,1.62-1.38Z"/><path class="d" d="M164.12,2.26l-1.88,1.88c.54,5.71,7.05-.51,1.88-1.88Z"/><path class="d" d="M184,195.38l-1.88-1.12c-5.21,2.74,1.56,7.03,1.88,1.12Z"/><path class="d" d="M56,67.63l-1.88-1.38c-5.01,2.68,1.05,7.25,1.88,1.38Z"/><path class="d" d="M181.62,66.51l-1.62,2.12c1.65,5.07,7.04-1.96,1.62-2.12Z"/><path class="d" d="M53.88,194.26l-1.62,1.62c.11,5.84,7.33-.57,1.62-1.62Z"/><path class="c" d="M141.25,192.38c.05.19-.34.25-.25,1.62l7-8.5c-1.01.91-2.96,3.19-3.75,2.5-.17.27-3.66,3.78-4.5,4.5,1.05-.08,1.34-.79,1.5-.12Z"/><path class="d" d="M219.62,104.51c1.68-.77.04-6.61-.75-6.5-1.25.18-.45,6.6.75,6.5Z"/><path class="d" d="M38.88,150.01l-3.88,6.62c-.15,4.46,5.1-6.98,3.88-6.62Z"/><path class="d" d="M36,26.63l-1,1.75c.81,3.15,4.74-6.42,4.12-6.38-2.33,1.81-2,5.13-3.12,4.62Z"/><path class="d" d="M163.88,157.26c.41-.32,4-6.85,3-6.75-1.63,2.48-5.19,6.74-3,6.75Z"/><path class="d" d="M166.62,23.01l-3.62,5.62c.77,3.14,4.43-5.71,3.62-5.62Z"/><path class="c" d="M0,21.68v6.83c.13-1.95.07-4.38,0-6.83Z"/><path class="c" d="M0,254.18v1.83h2c-.52-.6-1.26-1.22-2-1.83Z"/><path class="c" d="M0,0v3.96c.02-.57.04-1.14.05-1.7.01-.8,0-1.57-.05-2.26Z"/><path class="c" d="M0,126.51v4.67c.06-1.68.1-3.35,0-4.67Z"/><path class="d" d="M3,82.88c.08-.37.14-2.54.17-5.5,0-.66.01-1.36.02-2.08,0-1.45.02-3.01.02-4.6,0-1.19,0-2.39,0-3.57,0-1.96-.02-3.85-.04-5.5-.02-1.65-.04-3.05-.07-4.03-.02-.79-.05-1.31-.08-1.47-.24-1.27-1.73-2.77-3-2.88v32.25c1.06-.09,2.76-1.55,3-2.62Z"/><path class="d" d="M2.34,211.62c.07-.08.13-.16.16-.24.15-.32.24-1.62.3-3.51.03-.81.05-1.73.06-2.72.03-2.32.04-5.04.04-7.77,0-.78,0-1.56,0-2.33,0-.77,0-1.53,0-2.27,0-1.85,0-3.58.01-5.05.01-1.76.04-3.13.08-3.85-.52-1.34-1.44-2.51-3-2.62v31.75c.32-.03.88-.28,1.39-.61.38-.24.74-.53.95-.78Z"/><path class="d" d="M.95,138.54c-.04-.12-.11-.23-.2-.33-.16-.2-.37-.36-.53-.53-.12-.13-.21-.26-.23-.42v3.25c.69-.69.96-1.18,1-1.57.02-.15,0-.29-.05-.41Z"/><path class="d" d="M.38,11.98c.06-.08.13-.15.19-.23.25-.31.48-.64.43-1.12-.02-.14-.16-.33-.33-.53-.06-.07-.12-.13-.18-.2-.12-.13-.24-.26-.33-.37-.09-.11-.16-.21-.16-.28v3.5c.01-.1.04-.19.07-.28.07-.18.19-.34.31-.49Z"/><path class="c" d="M52.5,0H4.75C20.67.05,36.58-.02,52.5,0Z"/><path class="d" d="M3.38.51s.23-.13.49-.25c.26-.13.59-.25.89-.25h-2.75c.36,0,.64.19.91.33.16.09.31.17.47.17Z"/><path class="d" d="M186.25,0h-5.75c.86,1.24,3.65,2.29,5.75,0Z"/><path class="d" d="M58,0h-5.5c.87,1.45,3.44,2.26,5.5,0Z"/><path class="d" d="M98,0h-6.75c2.92,6.28,7,2.7,6.75,0Z"/><path class="d" d="M221.94,3.19c.2.09.39.16.58.2.1.02.19.04.28.05.28.03.55,0,.81-.06.69-.18,1.29-.65,1.71-1.23.16-.22.29-.45.4-.7.21-.48.31-.99.27-1.44h-6.75c.87,1.79,1.8,2.76,2.69,3.18Z"/><path class="d" d="M132.75,0h-2.75c.15,0,1.29.5,1.62.5.06,0,.5-.5,1.12-.5Z"/></svg>