<?xml version="1.0" encoding="UTF-8"?><svg id="a" xmlns="http://www.w3.org/2000/svg" viewBox="0 0 256 256"><defs><style>.b{fill:none;}.b,.c,.d,.e,.f{stroke-width:0px;}.c{fill:#88cbeb;}.d{fill:#ffabbb;}.e{fill:#fff;}.f{fill:#231f20;}</style></defs><path class="b" d="M44.46,3.98c-.21-.02-.42-.06-.64-.12.22.06.43.1.64.12Z"/><path class="b" d="M127.53,3.22c.25.47.61.88,1.05,1.2-.45-.32-.8-.73-1.05-1.2Z"/><path class="b" d="M255.58,3.46c-.33-.53-.42-1.02-.4-1.5-.02.48.07.97.4,1.5Z"/><path class="b" d="M130.78,5.14c-.43-.01-.83-.08-1.2-.21.37.12.77.2,1.2.21Z"/><path class="b" d="M174.2,3.42c.18-.15.35-.32.52-.53-.17.21-.34.39-.52.53Z"/><path class="b" d="M170.51,3.28c-.22-.13-.45-.27-.67-.42.23.15.45.3.67.42Z"/><path class="b" d="M172.76,3.97c-.2,0-.41,0-.62-.05.21.04.42.05.62.05Z"/><path class="b" d="M171.5,3.75c-.22-.08-.44-.17-.66-.29.22.11.44.21.66.29Z"/><path class="b" d="M250.95,162.67c.25-.19.52-.35.81-.48-.29.13-.56.29-.81.48Z"/><path class="b" d="M255.5,256c0-.08.04-.14.09-.19-.05.06-.08.12-.09.19Z"/><path class="b" d="M43.5,3.76c-.22-.08-.44-.18-.66-.29.22.11.44.21.66.29Z"/><path class="b" d="M45.94,3.63c.55-.35,1.05-.96,1.48-1.92-.43.96-.93,1.57-1.48,1.92Z"/><path class="b" d="M168.14,1.52c-.22-.2-.45-.4-.67-.6.22.2.44.41.67.6Z"/><path class="b" d="M169.83,2.86c-.23-.15-.45-.32-.68-.5.23.18.45.34.68.5Z"/><path class="b" d="M169.16,2.36c-.23-.18-.45-.36-.68-.55.22.19.45.38.68.55Z"/><path class="b" d="M41.49,2.62c-.23-.17-.45-.34-.68-.53.23.18.45.36.68.53Z"/><path class="b" d="M167.48.92c-.22-.2-.44-.41-.66-.61.22.21.43.41.66.61Z"/><path class="b" d="M0,247.27c.07,2.59.15,5.17,0,7.73.16-2.56.07-5.15,0-7.73Z"/><path class="c" d="M27.28,254.9c-.23-.09-.48-.15-.72-.17-.61-.05-1.23.1-1.74.35-.2.1-.39.21-.55.34-.24.18-.42.39-.52.58h4.75c-.33-.56-.75-.91-1.22-1.1Z"/><path class="c" d="M155.4,254.97c-.43-.21-.91-.29-1.38-.26-.47.03-.93.16-1.33.39-.4.22-.73.53-.95.91h4.75c-.28-.49-.66-.82-1.1-1.03Z"/><path class="e" d="M256,142.5v-4.3c-.03,1.44-.06,2.87,0,4.3Z"/><path class="e" d="M256,247.08v-5.83c-.09,1.93-.05,3.88,0,5.83Z"/><path class="e" d="M256,119.08v-5.83c-.08,1.94-.04,3.88,0,5.83Z"/><path class="f" d="M255.5,256h.5v-1c-.03.51-.28.64-.41.81-.05.06-.08.12-.09.19Z"/><path class="c" d="M252.25,236.88c.12,1.86,1.77,4.17,3.75,4.38v-30.75c-.7.8-1.04,2.12-1.25,3.12-.28,1.36-2.57,22.08-2.5,23.25Z"/><path class="d" d="M256,192v-7c-3.2,2.54-3.88,4.33,0,7Z"/><path class="d" d="M256,64v-7c-3.18,2.56-3.84,4.4,0,7Z"/><path class="c" d="M252.75,110.88c.34.95,2.26,2.29,3.25,2.38v-30.75c-.78.85-1.05,2.53-1.25,3.62-.54,2.88-2.56,23.19-2,24.75Z"/><path class="d" d="M244.75,23.88c1.88,3.6,6.89.55,11.25-1.12v-8.25c-5.92,2.58-14,4.11-11.25,9.38Z"/><path class="d" d="M244.75,151.88c1.89,3.6,6.89.55,11.25-1.12v-8.25c-6.38,2.78-13.97,4.18-11.25,9.38Z"/><path class="f" d="M256,132v-5c-.02.44-.99,2.01-1,2.38-.03.91.96,1.97,1,2.62Z"/><path class="c" d="M249.75,36.88c-.61,4.52,3.99,4.01,6.25,4.12v-7.5c-2.12.12-5.79-.08-6.25,3.38Z"/><path class="c" d="M250.95,162.67c-.61.48-1.06,1.18-1.2,2.2-.62,4.52,4,4.01,6.25,4.12v-7.5c-1.26.08-2.94.1-4.24.69-.29.13-.56.29-.81.48Z"/><path class="e" d="M188.88,241.5c.98.18,12.47,12.84,13.62,14.5h53c0-.08.04-.14.09-.19.14-.17.38-.29.41-.81v-7.92c-.05-1.95-.09-3.9,0-5.83-1.98-.2-3.63-2.51-3.75-4.38-.07-1.17,2.22-21.89,2.5-23.25.21-1.01.55-2.32,1.25-3.12v-18.5c-3.88-2.67-3.2-4.46,0-7v-16c-2.25-.11-6.87.39-6.25-4.12.14-1.02.58-1.72,1.2-2.2.25-.19.52-.35.81-.48,1.31-.59,2.99-.61,4.24-.69v-10.75c-4.36,1.67-9.36,4.73-11.25,1.12-2.72-5.19,4.87-6.6,11.25-9.38-.06-1.43-.03-2.86,0-4.3v-6.2c-.04-.66-1.03-1.71-1-2.62.01-.37.98-1.93,1-2.38v-7.92c-.04-1.95-.08-3.9,0-5.83-.99-.09-2.91-1.43-3.25-2.38-.56-1.56,1.46-21.87,2-24.75.2-1.09.47-2.77,1.25-3.62v-18.5c-3.84-2.6-3.18-4.44,0-7v-16c-2.26-.11-6.86.4-6.25-4.12.46-3.45,4.13-3.26,6.25-3.38v-10.75c-4.36,1.68-9.37,4.72-11.25,1.12-2.75-5.26,5.33-6.8,11.25-9.38V4c-.17-.19-.31-.37-.42-.54-.33-.53-.42-1.02-.4-1.5,0-.16.02-.32.05-.48.08-.48.21-.96.28-1.48h-53c3.68,5.25-1.12,7.05-3.38,6.5-.61-.15-5.45-5.51-6.38-6.5h-16.75c-.35,1.31-.79,2.25-1.29,2.88-.17.21-.34.39-.52.53-.45.36-.93.54-1.44.56-.2,0-.41,0-.62-.05-.21-.04-.43-.1-.64-.17-.22-.08-.44-.17-.66-.29-.11-.06-.22-.12-.33-.18-.22-.13-.45-.27-.67-.42s-.45-.32-.68-.5c-.23-.18-.45-.36-.68-.55-.11-.1-.22-.19-.34-.29-.22-.2-.45-.4-.67-.6-.22-.2-.44-.41-.66-.61-.11-.1-.22-.21-.32-.31h-10c3.13,5.41-7.7,5.13-4.75,0h-11c-1.29.77-7.45,4.58-7.88,4.75-.74.29-1.45.41-2.09.39-.43-.01-.83-.08-1.2-.21s-.7-.3-1-.51c-.45-.32-.8-.73-1.05-1.2-.25-.47-.39-.99-.4-1.54,0-.37.04-.74.15-1.12.06-.19.13-.38.22-.56h-53c1.31,1.9,2.67,4.11-.12,6-3.23,2.18-6.96-2.89-9.88-6h-16.5c-.17.66-.37,1.23-.58,1.71-.43.96-.93,1.57-1.48,1.92-.46.29-.96.39-1.48.35-.21-.02-.42-.06-.64-.12-.11-.03-.22-.06-.33-.1-.22-.08-.44-.18-.66-.29-.45-.23-.9-.52-1.35-.85-.23-.17-.45-.34-.68-.53-.79-.64-1.57-1.38-2.31-2.09h-10c3.08,5.34-7.41,5.46-4.75,0h-11C7.79,2.94,2.78,7.03,0,4v10.5c2.05-.89,13.6-5.9,14.38-6,4.91-.65,6.35,4.43,3.25,6.75-.77.57-15.47,6.67-17.62,7.5v10.75c1.7-.1,13.67-.15,14.38,0,3.52.77,3.89,6.7.25,7.5-.71.16-12.81.09-14.62,0v16c1.93-1.55,20.84-13.51,22.12-13.75,3.59-.67,6.67,3.6,3.5,6.75-.66.66-13.91,8.95-15.75,10-3.17,1.81-8.14,5.19-9.88,4v18.5c2.09-2.28,5.93-1.16,7,1.62-.44,3.81-2.28,25.25-2.75,26.5-.56,1.48-2.67,2.77-4.25,2.62v5.83c.06,2.65.14,5.29,0,7.92,3.28-1.71,17.85-11.58,19.38-12,4.18-1.16,7.03,3.17,4.5,6-3.29,1.68-18.4,11.67-19.5,12-1.8.53-2.92.12-4.38-1,.11,2.06.05,4.13,0,6.2v4.3c1.99-.86,13.6-5.9,14.38-6,4.81-.63,6.45,4.34,3.25,6.75-.76.58-15.47,6.67-17.62,7.5v10.75c1.66-.1,13.67-.15,14.38,0,3.56.78,3.81,6.72.25,7.5-.71.16-12.81.09-14.62,0v16c1.95-1.55,20.85-13.5,22.12-13.75,3.66-.72,6.67,3.59,3.5,6.75-.66.66-13.92,8.96-15.75,10-3.23,1.83-8.19,5.19-9.88,4v18.5c2.11-2.41,5.89-1.23,7,1.62-.58,4.32-2.26,25.14-2.75,26.5-.52,1.45-2.71,2.78-4.25,2.62v5.83c0,.06,0,.12,0,.18.07,2.59.15,5.17,0,7.73,3.62-1.86,16.77-10.99,18.88-11.75,5.05-1.82,6.88,3.02,5.38,5.38-.37.58-10.08,6.54-11.5,7.38h11c.1-.2.28-.4.52-.58.16-.12.35-.24.55-.34.51-.25,1.13-.4,1.74-.35.24.02.49.08.72.17.47.19.89.53,1.22,1.1h10c-1.23-1.18-10.22-10.65-10.5-11.38-1.2-3.14,1.74-6.02,4.88-5.38,1.01.21,14.14,13.71,14.62,14.62.34.65.61,1.36.5,2.12h16.5c-.97-1.04-7.88-9.25-8-9.88-.51-2.69,1.75-5.13,4.38-4.62.98.19,12.5,12.85,13.62,14.5h53c.57-1.19,19.18-13.03,20.38-13.25,3.57-.65,6.06,3.23,4.38,5.88-.37.58-10.09,6.54-11.5,7.38h11c.22-.38.55-.69.95-.91.4-.22.86-.36,1.33-.39.47-.03.95.05,1.38.26s.81.55,1.1,1.03h10c-1.37-1.31-10.63-11.31-10.75-12.12-.46-3.02,2.49-5.37,5.38-4.62.98.25,13.61,13.51,14.12,14.38.43.72.82,1.5.75,2.38h16.75c-1.04-1.11-8.11-9.01-8.25-9.62-.59-2.7,1.62-5.37,4.38-4.88ZM191.75,204.62l.12-.88c7.51.6,6.37,3.91-.12.88ZM186.5,211.38l.38-1.12c8.67,2.3,7.15,4.99-.38,1.12ZM192.88,156.25c-.69-.37-9.24-11.61-9.38-12.38-.36-2.01.99-3.85,2.88-4.38,2.27-2.03,11.52,11.32,11.88,12.12,1.68,3.85-2.18,6.33-5.38,4.62ZM190.88,166.25c-2.67-.56-1.4-3.92.5-4.25,3.25-.57,3.76,3.66-.5,4.25ZM170.88,185.75c-3.07,1.52-6.74-1.65-5.38-4.88.33-.79,11.04-11.71,12.12-11.88,3.21-.49,5.36,2.65,4.12,5.62-.3.72-10.18,10.78-10.88,11.12ZM172.62,188.75l1.25.25c2.97,5.38-6.69,3.19-1.25-.25ZM120.88,215c-.88.74-19.11,10.81-20.25,11-3.78.63-6.89-3.84-3-7,.88-.72,18.88-10.57,20-10.75,3.71-.6,6.9,3.69,3.25,6.75ZM119,223.12l1.38-1.12c5.67,1.41-1.56,7-1.38,1.12ZM63.75,204.38l.38-.62c8.28.78,4.94,4.03-.38.62ZM58.88,211.75v-1.5c7.52,1.97,8.34,4.73,0,1.5ZM64.88,156.25c-.69-.37-9.24-11.61-9.38-12.38-.37-2.06.97-3.72,2.88-4.38,1.96-2.24,12.17,11.97,12.38,12.88.65,2.89-2.6,5.63-5.88,3.88ZM62.88,166.25c-2.67-.55-1.47-3.91.5-4.25,3.21-.56,3.81,3.57-.5,4.25ZM42.88,185.75c-3.18,1.65-6.89-1.72-5.12-5.12.38-.74,10.63-11.43,11.88-11.62,3.24-.5,5.34,2.7,4.12,5.62-.3.72-10.18,10.77-10.88,11.12ZM43.25,189.62l1.38-.88c5.59,2.11-2.4,6.37-1.38.88ZM42.88,57.75c-3.08,1.58-6.74-1.64-5.38-4.88.33-.79,10.99-11.69,12.12-11.88,3.24-.53,5.36,2.65,4.12,5.62-.3.72-10.18,10.77-10.88,11.12ZM43.25,61.62l1.38-.88c5.59,2.08-2.44,6.34-1.38.88ZM38.38,33.25c5.12.33,3.23,6.27-.75,5.25-1.54-.4-2.88-3.75.75-5.25ZM62.88,47c1.79-.2,4.33,1.21,4.62,2.88.23,1.28-6.4,23.85-7,25-2.02,3.88-8.07,2.86-7.5-3,.11-1.15,5.97-21.22,6.5-22.25.53-1.03,2.25-2.5,3.38-2.62ZM63.38,34c3.68-.64,3.48,4.63-1.25,4-1.63-1.12-.35-3.72,1.25-4ZM66.75,89.38c.49-.44,1.52-1.28,2.12-1.38,2.22-.33,4.81,1.56,4.62,3.88-.09,1.13-12.28,17.85-13.38,18.12-2.76.7-5.79-2.01-4.88-4.88.3-.93,10.78-15.1,11.5-15.75ZM58.5,83.12l.62-.88c9.1,2.62,5.85,4.89-.62.88ZM63.75,76.62l.38-.88c7.62.68,5.61,3.87-.38.88ZM51.88,53.75h1.5c3.74,5.02-6.09,4.27-1.5,0ZM48.88,119.25c-1.58-1.75-4.71-5.18-1.5-6.75,1.96-.23,6.96,7.39,1.5,6.75ZM51,151.88c-.29.46-7.72,5.8-8.88,4.38-5.81-4.33,5.07-9.2,5.75-9.25,2.34-.18,4.56,2.63,3.12,4.88ZM45.12,98.25l1.12.62c1.04,6.82-2.31,5.03-1.12-.62ZM48,127.12c.62,3.55-2.78,5.82-6.12,4.12-.93-.47-13.97-14.34-14.12-15.38-.26-1.7,1.05-4.24,2.88-4.62.66-.14,2.32-.03,3,.25.98.41,14.19,14.58,14.38,15.62ZM34.12,172c2.86-.47-.17,4.74-1.25,4.25-.93-1.5,0-3.24,1.25-4.25ZM37.12,137.5c4.31-.72,5.51,5.81,2.25,6.5-4.56.96-6.18-5.85-2.25-6.5ZM38.62,161.25c4.18-.26,3.7,6.91-1.5,5-2.19-1.41-.74-4.86,1.5-5ZM53.62,133.75h1c3.49,3.89-4.8,4.03-1,0ZM59.25,133.62l.88-1.12c6.22-.15-.1,7.25-.88,1.12ZM70.62,134.25c-.95-.49-13.91-14.83-14.12-15.88-.39-1.87.85-4.56,2.88-4.88.86-.14,1.75.08,2.5.5.89.5,13.19,14.2,13.62,15.12,1.76,3.74-2.01,6.6-4.88,5.12ZM111.5,72.88c2.26,3.6-1.13,7.75-5.38,5.62-1.43-.71-15.99-13.77-16.12-14.88-.22-1.78,1.32-4.06,3.12-4.38.35-.06,1.63-.06,2,0,1.05.17,15.81,12.72,16.38,13.62ZM100.88,50c3.83-.72,4.67,4.68,1.5,5.25-3.68.66-4.6-4.67-1.5-5.25ZM104.38,170.5c-1.07-.43-9.02-13.33-8.88-15.12.14-1.78,1.82-2.84,3.38-3.38,2.33-2.2,11.19,13.2,11.38,14.12.68,3.44-2.79,5.62-5.88,4.38ZM99.25,179.12l1.38-1.12c9.76,1.33-2.23,10.32-1.38,1.12ZM89.12,118.5c.72-.66,16.04-9.33,17-9.5,4.11-.74,6.58,3.68,3.5,6.5-.74.68-16.51,9.62-17.5,9.75-3.26.44-6.2-3.83-3-6.75ZM84.62,146c-9.06.53-.28-11.07,2-11.25,7.95,1.54,1.13,8.22-2,11.25ZM108,98.62l1.38-1.12c6.69.48-1.41,7.61-1.38,1.12ZM104.12,145.75c-3.16,1.25-5.64-1.75-4.38-4.62.29-.67,9.4-8.06,10.12-8.12,2.35-.2,4.32,2.63,3.38,4.88-.23.56-8.56,7.65-9.12,7.88ZM113.88,183.25c4.57-.49,5.12,6.31,1,6.75-4.57.49-5.12-6.31-1-6.75ZM121.75,72.62c-.23-1.24.83-2.9,2.12-3.12,5.86-1,2.65,8.97-2.12,3.12ZM130.38,81.25c3.71-.39,4.69,2.57,4.62,5.62-.08,3.62-2.55,17.72-2.75,23.75-1.4,3.57-6.98,3.23-7.75-.5-.26-1.27,2.15-24.5,2.5-25.75.39-1.38,1.95-2.97,3.38-3.12ZM118.88,126c-7.15,1.4-2.87-11.62-.25-12.25,7.49-1.8,2.79,11.75.25,12.25ZM119,95.12l1.62-1.12c5.27,1.92-2.04,6.74-1.62,1.12ZM117.88,146.75c1.05-.79,22.95-10.04,24.25-10.25,5.03-.82,6.7,4.36,3.5,6.75-1.1.82-23.89,10.4-25.25,10.5-3.55.27-5.82-4.52-2.5-7ZM131.88,133.25c-2.96.53-5.87-2.55-4.38-5.38.57-1.08,19.25-12.89,20.62-13.12,3.34-.58,6.12,3.49,3.75,6.25-2.87,1.34-18.85,12.04-20,12.25ZM141.12,108.25c5.21,6.77-7.92,4.92-2-.25l2,.25ZM141.38,86.5l1.75.5c2.62,5.71-6.35,3.23-1.75-.5ZM144.62,99.75c5.02-.48,4.33,8.38-1.25,6-2.66-1.13-1.68-5.72,1.25-6ZM143.38,69.75c-2.98.44-5.12-2.74-3.62-5.38.41-.72,11.58-8.05,12.38-8.12,2.5-.22,5.1,3.12,3.12,5.88-.41.57-11.18,7.52-11.88,7.62ZM142,79.12c-.32.74-7.78.55-5.38-1.38.71.34,6.04-.16,5.38,1.38ZM153.38,126.75c3.36-.78,5.5,3.81,1.25,5.5-4.64-.31-3.43-5-1.25-5.5ZM150.25,82.12c-.75-2.6-1.09-6.15,2.62-6.62,1.72-.22,3.42.72,4.38,2.12.72,1.06,9.41,22.51,9.75,23.75,1.7,6.26-5.04,7.79-7.5,4-.68-1.05-8.9-22.05-9.25-23.25ZM154.5,41.62l1.12-1.12c5.27.83-.65,6.57-1.12,1.12ZM153.38,50.25c-1,.9-21.68,13.75-23,14-3.35.63-7.06-3.17-3.25-6.75.99-.93,21.9-14.04,23.25-14.25,3.44-.54,6.55,3.78,3,7ZM142.62,41c-.89.2-17.36.19-18.25,0-3.88-.83-2.93-6.75.5-7.5.85-.19,16.65-.19,17.5,0,3.56.78,3.81,6.72.25,7.5ZM119.5,49.62l.88-.62c5.83.73-1.6,6.95-.88.62ZM120.88,87c-.9.77-19.58,11.11-20.75,11.25-2.93.36-6.32-4.04-2.5-7.25.88-.74,19.11-10.61,20.25-10.75,3.64-.45,6.5,3.75,3,6.75ZM92.5,99.12c-.29.68-8.6,5.52-9.12,5.62-2.96.57-4.9-2.98-3.38-5.38.34-.53,8.37-4.8,8.88-4.88,2.47-.35,4.56,2.46,3.62,4.62ZM83.12,82.75c-.6-.32-8.01-10.21-8.12-10.88-.38-2.14,1.21-3.68,3.12-4.38,1.98-1.55,10.13,10.14,10.38,10.88,1.22,3.64-2.37,5.98-5.38,4.38ZM76.88,110.25c5.53-.8,6.42,9.73,0,6.75-3.07-1.42-3.14-6.29,0-6.75ZM78.38,153.5c.98-.21,2.33.03,3.25.5,1.06.54,16.59,15.56,17.12,16.62,1.82,3.6-1.4,6.51-4.62,5.88-1.24-.24-17.54-16.26-18.12-17.38-1.39-2.67.77-5.29,2.38-5.62ZM93.12,187.25c.35-.06,1.93-.06,2.25,0,1.04.2,15.57,12.73,16.12,13.62,2.3,3.71-1.1,7.62-5.38,5.62-1.06-.5-16.01-13.77-16.12-14.88-.19-1.76,1.29-4.05,3.12-4.38ZM119.5,177.62l.88-.62c5.89.74-1.62,6.93-.88.62ZM125.12,161.5c.85-.16,16.41-.18,17.25,0,3.43.75,3.94,6.69.25,7.5-.89.2-17.36.2-18.25,0-3.69-.81-3.17-6.74.75-7.5ZM127.12,185.5c.99-.92,21.67-14,23-14.25,3.62-.69,6.65,3.62,3.5,6.75-.97.96-21.91,14-23.25,14.25-3.3.62-7.11-3.14-3.25-6.75ZM155.62,168.75h1.25c4.11,4.61-5.61,4.33-1.25,0ZM154.88,160.5c-2.31-3.14-9.64-10.72-3.5-13,2.1-1.94,7.99,8.25,8.12,8.88.56,2.69-2.19,4.57-4.62,4.12ZM155.75,115.88c-.28-1.82,1.18-4.25,2.88-4.62.65-.14,2.33-.03,3,.25.98.41,14.19,14.58,14.38,15.62.57,3.19-2.07,5.3-5.12,4.62-1.22-.27-14.94-14.7-15.12-15.88ZM170.88,57.75c-3.08,1.58-6.74-1.64-5.38-4.88.33-.79,10.89-11.69,12.12-11.88,3.42-.52,5.39,2.88,3.88,5.88-.34.68-9.95,10.53-10.62,10.88ZM171.25,61.62l1.38-.88c5.59,2.08-2.44,6.34-1.38.88ZM165.12,38.25c-2.13-1.89-1.02-4.21,1.5-5,4.96.61,2.82,6.8-1.5,5ZM190.88,47c2.45-.26,4.98,1.83,4.62,4.38-1.95,4.55-6.01,21.58-7,23.5-2.14,4.15-7.92,2.17-7.75-2.25.05-1.2,6.2-21.93,6.75-23,.53-1.02,2.26-2.5,3.38-2.62ZM191.38,34c3.58-.63,3.63,4.5-1.25,4-1.63-1.12-.35-3.72,1.25-4ZM239.5,72.88c2.36,3.82-1.39,7.75-5.38,5.62-.96-.51-15.93-13.55-16.12-14.62-.35-1.91,1.21-4.29,3.12-4.62.35-.06,1.92-.06,2.25,0,1.04.2,15.57,12.73,16.12,13.62ZM229.38,49.75c1.65-.09,2.78,1.41,3.12,2.88-3.83,7.17-8.58-2.59-3.12-2.88ZM220.5,99.12c-.28.66-10.14,7.26-11.62,5.12-6.07-4.23,7.23-9.67,8-9.75,2.79-.3,4.47,2.66,3.62,4.62ZM209.62,154c1.06.54,16.59,15.56,17.12,16.62,1.94,3.84-1.99,7.5-6.12,5.12-1.08-.62-16.97-16.64-17.12-17.88-.21-1.62,1.21-4.02,2.88-4.38.98-.21,2.33.03,3.25.5ZM213.88,135c10.09-.33-.03,10.43-.75,10.75-4.83,2.13-7.18-4.09.75-10.75ZM228.88,178c3.03-.68,5.5,3.57,1.25,5.25-3.85.14-3.88-4.66-1.25-5.25ZM221.12,187.25c.36-.06,1.62-.06,2,0,1.14.17,15.81,12.72,16.38,13.62,2.39,3.83-1.35,7.64-5.38,5.62-.99-.49-15.99-13.64-16.12-14.88-.19-1.7,1.39-4.07,3.12-4.38ZM230.75,168.88c-.44-.51-6.81-10.86-7-11.5-.63-2.09.39-5.01,2.88-5.38.48-.07,2.09.1,2.5.25.98.37,8.63,12.6,8.88,13.38,1.39,4.44-3.8,7.27-7.25,3.25ZM229.62,146c-6.94-3.94,4.88-10.28,8.25-13,2.5.04,4.38,2.51,3.38,4.88-.28.67-9.87,9.32-11.62,8.12ZM236,98.62l1.38-1.12c6.65.54-1.45,7.54-1.38,1.12ZM237.62,115.5c-.74.68-16.51,9.61-17.5,9.75-3.22.45-6.25-3.78-3-6.75.71-.65,15.81-9.31,16.75-9.5,4.13-.84,6.96,3.57,3.75,6.5ZM211.12,82.75c-.6-.32-8.01-10.21-8.12-10.88-.38-2.14,1.21-3.68,3.12-4.38,1.86-1.56,9.82,9.69,10.12,10.38,1.8,4.11-2.04,6.52-5.12,4.88ZM204.88,110.25c5.62-.73,6.32,9.71,0,6.75-3.26-1.53-3.12-6.35,0-6.75ZM203.5,129.12c1.86,3.77-2.2,6.62-4.88,5.12-.9-.5-13.5-14.41-13.88-15.38-1.08-2.81,1.27-5.13,2.38-5.38.86-.19,1.98.07,2.75.5.89.49,13.17,14.21,13.62,15.12ZM187.5,133.12l1.38-.88c5.48,2.15-2.41,6.64-1.38.88ZM201.5,91.88c-.09,1.13-12.28,17.85-13.38,18.12-2.76.7-5.82-2-4.88-4.88.3-.93,10.77-15.1,11.5-15.75.63-.56,1.52-1.28,2.38-1.38,2.13-.23,4.55,1.66,4.38,3.88ZM187.12,82.25l5.5,2c2.36,3.05-9.19-1.33-5.5-2ZM191.75,76.62l.12-.88c7.6.71,6.6,3.95-.12.88ZM178.75,54.88l1.12-1.12c6.12.52-1.1,7.05-1.12,1.12ZM179,151.88c-.32.5-7.65,5.73-8.88,4.38-5.83-4.26,5.07-9.18,5.75-9.25,2.21-.22,4.6,2.57,3.12,4.88ZM174,113.62l1.62-1.12c8.5,6.13-.05,11.1-1.62,1.12ZM172.75,98.62l.62-.62c2.26-.09.26,11.57-.62.62ZM162.38,172l1.12.88c-3.69,8.13-3.78-.65-1.12-.88ZM165.38,137.5c5.47-.64,4.93,9.04-.75,6-2.55-1.37-2.29-5.64.75-6ZM166.62,161.25c4.11-.26,3.8,6.83-1.5,5-2.18-1.36-.76-4.86,1.5-5ZM181.62,133.75h1c3.48,4.09-4.8,3.89-1,0ZM201.62,173c.87-.08,2.21.59,2.88,1.12.79.64,11.92,15.29,12.25,16.25,1.18,3.39-2.25,5.97-4.88,5.12-1.03-.33-12.76-16.11-13.12-17.12-.94-2.61.47-4.48,2.88-5.38ZM211.12,210.75c-.6-.32-8.01-10.21-8.12-10.88-.37-2.16,1.45-3.97,3.38-4.38,1.84-1.28,9.59,9.69,9.88,10.38,1.8,4.26-2.19,6.45-5.12,4.88ZM207.88,245.25c-6.03.8-6.78-6.41-3-7,3.3-.52,6.66,4.79,3,7ZM208.88,232.25c-6-4.31,7.23-9.65,8-9.75,2.84-.38,4.92,3.1,3.12,5.38-.39.49-10.01,6.31-11.12,4.38ZM237.62,243.5c-.74.68-16.51,9.61-17.5,9.75-3.05.43-6.34-3.56-3-6.75.7-.67,16.04-9.33,17-9.5,4.19-.75,6.46,3.8,3.5,6.5ZM236,226.62l1.38-1.12c6.55.47-1.25,7.62-1.38,1.12ZM246.88,254c-7.14,1.4-2.88-11.62-.25-12.25,7.49-1.8,2.79,11.75.25,12.25ZM247,223.12l1.38-1.12c5.78,1.49-1.68,6.99-1.38,1.12ZM250.88,201.5c-2.27-1.02-1.17-4.38,1-4.75,4.93-.84,3.46,6.75-1,4.75ZM247.5,177.62l.88-.62c5.84.72-1.62,6.9-.88.62ZM248.88,215c-.9.74-19.35,10.82-20.5,11-3.69.57-6.2-4-3.25-6.75.85-.79,19.35-10.81,20.5-11,3.84-.62,6.81,3.83,3.25,6.75ZM245.75,185.88c1.45,7.29-12.5,3.24-4.12-2.62,1.53-.32,3.83,1.14,4.12,2.62ZM246.88,126c-7.09,1.39-2.97-11.6-.25-12.25,7.47-1.8,2.79,11.75.25,12.25ZM247,95.12l1.38-1.12c5.83,1.52-1.79,6.98-1.38,1.12ZM252.38,69.25c5.36-.34,2.04,9.01-2.62,3.38-.34-1.38,1.29-3.29,2.62-3.38ZM248.38,49c5.34.36-.38,6.87-1.12,1.12l1.12-1.12ZM248.88,87c-.91.75-19.58,11.12-20.75,11.25-2.98.34-6.29-4.06-2.5-7.25.88-.74,19.11-10.61,20.25-10.75,3.73-.46,6.47,3.91,3,6.75ZM245.75,57.88c1.45,7.53-12.94,2.85-3.88-2.62,1.42-.19,3.61,1.25,3.88,2.62ZM227.75,13.12c.25-.6,9.19-8.04,10.12-8.12,2.29-.22,4.34,2.59,3.38,4.88-.23.56-8.56,7.66-9.12,7.88-3.16,1.22-5.6-1.66-4.38-4.62ZM226.62,24c.47-.08,2.08.1,2.5.25,1.07.39,8.96,13.06,9.12,13.88.69,3.49-2.88,5.58-5.88,4.38-1.07-.43-9.05-13.33-8.88-15.12.12-1.21,1.91-3.18,3.12-3.38ZM213.88,7c10.17-.47-.22,10.77-1,11-5.44,1.61-5.99-5.34,1-11ZM206.12,25.5c.92-.24,2.58.04,3.5.5,1.07.53,16.59,15.56,17.12,16.62,1.94,3.84-1.99,7.5-6.12,5.12-1.08-.62-16.97-16.64-17.12-17.88-.3-2.3,2.05-4.23,2.62-4.38ZM201.62,45c.52-.05,1.53.26,2,.5.98.49,13.13,16.31,13.38,17.38.62,2.72-2.51,5.46-5.12,4.62-1.03-.33-12.75-16.11-13.12-17.12-.8-2.21.43-5.15,2.88-5.38ZM189.12,4.25l1.38.88c1.03,5.86-6.83,1.32-1.38-.88ZM186.38,11.5c.6-.09,1.95.02,2.5.25.7.29,9.07,11.18,9.38,11.88,1.64,3.76-2.01,6.33-5.38,4.62-.69-.35-9.24-11.61-9.38-12.38-.33-1.81,1-4.08,2.88-4.38ZM181.62,5.75h1c3.44,3.97-4.79,3.96-1,0ZM175.88,19c2.2-.17,4.64,2.46,3.12,4.88-.27.43-7.79,5.77-8.88,4.38-5.79-4.27,5.07-9.2,5.75-9.25ZM165.12,9.5c2.77-.49,4.94,2.54,3.88,5.12-4.94,4.66-8.66-4.28-3.88-5.12ZM162.12,44c2.87-.62-.2,4.73-1.25,4.25-.93-1.5,0-3.24,1.25-4.25ZM162.12,65.5c1.57-.2,2.95.68,3.88,1.88.69.89,9.95,18.92,10.25,20,1.35,4.86-4.31,6.83-6.75,4.25-.81-.86-10.55-19.84-10.75-21-.36-2.14,1.07-4.83,3.38-5.12ZM151.12,19.5c3.16-1.94,8.85,8.65,8.62,10.12-.32,2.14-3.53,3.39-5.38,2.38-.66-.36-9.31-10.89-3.25-12.5ZM118.12,18.5c1.08-.75,22.95-9.83,24.25-10,4.86-.65,6.38,4.37,3.25,6.75-1.09.83-23.89,10.4-25.25,10.5-3.66.28-5.89-4.73-2.25-7.25ZM117.5,60.38c-.63,1.43-3.69,1.87-4.88,1.12-2.91-1.83-1.3-5.96,1.25-6.25,2.72-.31,4.69,2.71,3.62,5.12ZM100,12.88c.32-.55,8.89-7.79,9.88-7.88,2.39-.2,4.34,2.6,3.38,4.88-.25.58-9.01,7.97-9.62,8.12-2.93.72-5.28-2.34-3.62-5.12ZM98.62,24c.62-.1,1.9.02,2.5.25,1.02.39,8.34,12.15,8.62,12.88,2.03,5.2-3.65,7.63-7,3.75-.47-.55-7.17-11.78-7.25-12.5-.21-1.82,1.27-4.09,3.12-4.38ZM85.88,7c2.18-.54,4.98,1.26,4.62,3.62-.1.66-6.32,10.97-9.5,6.25-2.18-1.93,3.57-9.55,4.88-9.88ZM78.38,25.5c.98-.21,2.33.03,3.25.5,1.06.54,16.59,15.56,17.12,16.62,2,3.96-2.1,7.46-6.12,5.12-1.08-.62-16.97-16.64-17.12-17.88-.21-1.62,1.21-4.02,2.88-4.38ZM73.62,45c.23-.02,1.61.19,1.75.25,1.03.42,13.37,16.54,13.62,17.62.64,2.76-2.49,5.48-5.12,4.62-1.03-.33-12.76-16.11-13.12-17.12-.78-2.17.43-5.13,2.88-5.38ZM60.88,4.25l1.88,1.12c.16,5.44-6.57,1.18-1.88-1.12ZM58.38,11.5c2.15-2.07,11.52,11.32,11.88,12.12,1.68,3.85-2.18,6.33-5.38,4.62-.69-.37-9.24-11.61-9.38-12.38-.37-2.06.97-3.72,2.88-4.38ZM53.62,5.75h1c3.44,3.97-4.79,3.96-1,0ZM47.88,19c2.34-.18,4.56,2.63,3.12,4.88-.29.46-7.72,5.8-8.88,4.38-5.88-4.27,5.07-9.2,5.75-9.25ZM37.12,9.5c4.22-.66,5.55,5.75,2.25,6.5-4.51,1.02-6.35-5.86-2.25-6.5ZM34.12,44l1.12.38c-1.17,6.65-4.97,3.57-1.12-.38ZM34.12,65.5c1.34-.15,3.05.81,3.88,1.88.88,1.13,8.11,17.09,10.5,20.75.54,3.31-3.33,5.58-6.12,4.38-1.14-.49-11.44-20.65-11.62-21.88-.33-2.16,1-4.86,3.38-5.12ZM23.12,19.5c3.23-1.91,8.83,8.56,8.62,10.12-.29,2.27-3.47,3.44-5.38,2.38-.66-.37-9.42-11.2-3.25-12.5ZM26.75,41.12l1.12-.62c5.53,2.24-2.79,6.19-1.12.62ZM8.88,77.75c2.64.47,6.47-.1,4.5,1.75-2.71-.04-6.77,0-4.5-1.75ZM12.25,87.62l1.38-1.12c5.75,1.5-1.53,7.45-1.38,1.12ZM9.5,109.38l1.38-1.62c8.06.95-.11,9.73-1.38,1.62ZM15.62,106c-3.06-1.11-1.98-5.99,1-6.25,4.93-.44,4.18,8.14-1,6.25ZM15.38,69.75c-2.8.39-5.01-2.54-3.88-5.12.35-.8,11.7-8.32,12.62-8.38,2.96-.19,4.85,3.46,3.12,5.88-.41.58-11.18,7.53-11.88,7.62ZM21.5,78.88c.15-1.36,2.01-3.19,3.38-3.38,1.71-.24,3.43.73,4.38,2.12.79,1.17,10.45,24.85,10.25,26.25-.52,3.59-5.72,5.02-8,1.5-.77-1.19-10.16-25.09-10-26.5ZM25.38,126.75c4.21-.97,4.75,5.14,1.25,5.5-3.69.38-4.13-4.83-1.25-5.5ZM23.12,147.5c3.15-1.87,8.81,8.52,8.62,10.12-.28,2.36-3.47,3.42-5.38,2.38-.66-.37-9.32-10.88-3.25-12.5ZM27.38,168.75h1.5c3.74,4.23-5.12,4.35-1.5,0ZM8.88,205.75c.62-.1,7.03.18,4.5,1.75-5.44.35-6.32-1.47-4.5-1.75ZM12.25,215.38l1.38-.88c5.77,2.2-2.03,7.17-1.38.88ZM9.75,236.88l1.12-1.12c8.76,1.42-1.46,9.73-1.12,1.12ZM15.62,234c-3.06-1.11-1.98-5.99,1-6.25,5.05-.45,4.16,8.13-1,6.25ZM15.62,197.75c-2.82.57-5.52-2.5-3.88-5.38.51-.88,11.63-8.09,12.62-8.12,2.68-.1,4.39,3.36,3.12,5.62-.35.62-11.18,7.73-11.88,7.88ZM31.5,233.38c-.77-1.19-10.16-25.09-10-26.5.14-1.23,1.89-3.17,3.12-3.38,1.79-.3,3.63.66,4.62,2.12.79,1.17,10.39,24.85,10.25,26.25-.32,3.24-5.63,5.17-8,1.5ZM41.25,219.38c-.75-.89-10.32-19.6-10.5-20.75-.34-2.12,1.06-4.87,3.38-5.12,1.34-.15,3.04.81,3.88,1.88.74.94,8.34,17.25,10.5,20.75.6,3.72-4.56,6.46-7.25,3.25ZM45.12,226l.88.38c1.85,7.54-2.21,5.68-.88-.38ZM46,241.62l1.38-1.12c8.75,5.37.54,11.73-1.38,1.12ZM51,182.38l1.38-.88c5.73,2.25-2.96,6.78-1.38.88ZM52.75,200.88c.01-1.21,6.2-22.17,6.75-23.25.46-.9,2.15-2.48,3.12-2.62,2.63-.4,5.16,1.65,4.88,4.38-1.89,4.41-6.18,21.94-7,23.5-2.07,3.96-7.79,2.28-7.75-2ZM72.75,221.62c-.45.94-11.86,16.15-12.88,16.38-2.71.61-5.88-2.06-4.38-5.38.44-.98,11.26-15.84,13.38-16.62,2.97-.52,5.61,1.98,3.88,5.62ZM70.75,178.38c-.93-2.63.41-4.59,2.88-5.38,1.55-1.53,14.74,16.27,15.12,17.38,1.15,3.32-2.03,6.08-4.88,5.12-1.03-.35-12.76-16.1-13.12-17.12ZM83.12,210.75c-.6-.33-8.01-10.21-8.12-10.88-.41-2.32,1.5-4.04,3.62-4.38,1.77-.79,9.33,9.71,9.62,10.38,1.84,4.21-2.23,6.47-5.12,4.88ZM81.25,243.88c-4.73,5.26-9.85-4.87-4.38-5.62,2.7-.37,5.42,2.99,4.38,5.62ZM80.88,232.25c-5.88-4.45,7.23-9.68,8-9.75,2.68-.26,4.49,2.35,3.38,4.88-.26.59-9.94,6.91-11.38,4.88ZM109.88,243.25c-.71.73-16.74,9.86-17.75,10-3.27.44-6.18-3.82-3-6.75.71-.65,15.81-9.31,16.75-9.5,4.31-.85,6.65,3.51,4,6.25ZM108,226.62l1.12-1.12c7.11.18-1.11,7.7-1.12,1.12ZM118.88,254c-7.19,1.43-2.89-11.61-.25-12.25,7.48-1.8,2.8,11.74.25,12.25ZM124.12,197l2.12,1.38c.32,6.82-8.98,1.55-2.12-1.38ZM132.25,238.62c-1.05,3.08-6.34,3.35-7.5.25-.58-1.54,1.67-24.55,2.25-26.5.35-1.17,1.64-2.89,2.88-3.12,2.15-.41,4.77,1.12,5.12,2.88.27,1.31-2.32,25.24-2.75,26.5ZM136.62,205.75l5,.5c3.39,1.99-8.63,1.28-5-.5ZM140.25,215.38l1.12-.88c6.19,1.54-1.8,7.36-1.12.88ZM137.5,237.38l1.38-1.62c7.98.91-.11,9.67-1.38,1.62ZM143.88,234c-3.2-.67-2.62-5.78.5-6.25,4.58-.7,5.07,7.41-.5,6.25ZM143.38,197.75c-2.83.39-4.96-2.52-3.88-5.12.28-.67,11.15-7.98,11.88-8.12,3.5-.69,5.85,2.85,3.88,5.62-.41.58-11.18,7.53-11.88,7.62ZM159.5,233.38c-.63-.94-7.76-18.81-8.5-21-.92-2.71-3.11-8.1,1.62-8.88,1.78-.29,3.64.65,4.62,2.12.77,1.15,8.55,21.88,10.25,25.75-.56,4.18-5.55,5.67-8,2ZM169.25,219.38c-.73-.82-9.68-18.45-10-19.5-1.05-3.38-.51-5.08,2.88-6.38,4.71-1.18,10.35,17.09,14.38,22.62.49,3.32-4.24,6.65-7.25,3.25ZM172.75,226.62l.62-.62c2.26-.23.34,11.82-.62.62ZM174,241.62l1.38-1.12c8.81,5.52.41,11.48-1.38,1.12ZM179.88,181.75h1.5c3.97,4.79-6.14,4.45-1.5,0ZM180.75,201.38c-.08-1.23,6.19-22.65,6.75-23.75.54-1.06,2.18-2.5,3.38-2.62,2.59-.28,4.87,1.73,4.62,4.38-1.84,4.34-6.25,22.07-7,23.5-1.95,3.73-7.49,2.46-7.75-1.5ZM183.25,233.12c.3-.91,10.57-14.83,11.25-15.5.55-.54,1.64-1.51,2.38-1.62,2.87-.47,5.69,1.92,3.88,5.62-.46.93-11.62,16.11-12.62,16.38-2.72.73-5.82-2.04-4.88-4.88Z"/><path class="f" d="M147.88,242.75c-1.2.22-19.81,12.06-20.38,13.25h13.25c1.41-.84,11.13-6.8,11.5-7.38,1.69-2.64-.81-6.52-4.38-5.88Z"/><path class="f" d="M18.88,243.25c-2.11.76-15.25,9.89-18.88,11.75v1h12.75c1.42-.84,11.13-6.8,11.5-7.38,1.5-2.35-.32-7.2-5.38-5.38Z"/><path class="c" d="M161.12,239.25c-2.89-.74-5.83,1.61-5.38,4.62.12.81,9.38,10.81,10.75,12.12h9.5c.07-.87-.32-1.66-.75-2.38-.51-.87-13.15-14.12-14.12-14.38Z"/><path class="c" d="M47.5,253.88c-.48-.91-13.61-14.42-14.62-14.62-3.13-.64-6.08,2.23-4.88,5.38.28.72,9.27,10.19,10.5,11.38h9.5c.11-.76-.16-1.47-.5-2.12Z"/><path class="f" d="M60.88,241.5c-2.62-.51-4.89,1.94-4.38,4.62.12.62,7.03,8.84,8,9.88h10c-1.13-1.65-12.65-14.31-13.62-14.5Z"/><path class="f" d="M188.88,241.5c-2.76-.5-4.97,2.18-4.38,4.88.14.62,7.21,8.51,8.25,9.62h9.75c-1.16-1.66-12.64-14.32-13.62-14.5Z"/><path class="c" d="M28.5,0h-4.75c-2.66,5.46,7.83,5.34,4.75,0Z"/><path class="c" d="M156.5,0h-4.75c-2.95,5.13,7.88,5.41,4.75,0Z"/><path class="c" d="M4.25,238.62c.49-1.36,2.17-22.18,2.75-26.5-1.11-2.85-4.89-4.03-7-1.62v30.75c1.54.16,3.73-1.17,4.25-2.62Z"/><path class="d" d="M9.88,188c1.83-1.04,15.09-9.34,15.75-10,3.17-3.16.16-7.47-3.5-6.75-1.28.25-20.18,12.2-22.12,13.75v7c1.68,1.19,6.65-2.17,9.88-4Z"/><path class="d" d="M9.88,60c1.84-1.05,15.09-9.34,15.75-10,3.17-3.15.09-7.42-3.5-6.75-1.28.24-20.2,12.2-22.12,13.75v7c1.73,1.19,6.71-2.19,9.88-4Z"/><path class="c" d="M4.25,110.62c.47-1.25,2.31-22.69,2.75-26.5-1.07-2.78-4.91-3.9-7-1.62v30.75c1.58.14,3.69-1.14,4.25-2.62Z"/><path class="d" d="M14.38,8.5c-.77.1-12.32,5.11-14.38,6v8.25c2.15-.83,16.86-6.93,17.62-7.5,3.1-2.32,1.66-7.4-3.25-6.75Z"/><path class="d" d="M14.38,136.5c-.77.1-12.39,5.14-14.38,6v8.25c2.15-.83,16.86-6.92,17.62-7.5,3.2-2.41,1.56-7.38-3.25-6.75Z"/><path class="f" d="M4.38,133c1.1-.33,16.21-10.32,19.5-12,2.53-2.83-.32-7.16-4.5-6-1.52.42-16.09,10.29-19.38,12v5c1.46,1.12,2.58,1.53,4.38,1Z"/><path class="c" d="M14.62,41c3.64-.8,3.27-6.73-.25-7.5-.7-.15-12.68-.1-14.38,0v7.5c1.81.09,13.91.16,14.62,0Z"/><path class="c" d="M14.62,169c3.56-.78,3.31-6.72-.25-7.5-.7-.15-12.71-.1-14.38,0v7.5c1.81.09,13.91.16,14.62,0Z"/><path class="c" d="M152.62,203.5c-4.74.78-2.54,6.17-1.62,8.88.74,2.19,7.87,20.06,8.5,21,2.45,3.67,7.44,2.18,8-2-1.7-3.87-9.48-24.6-10.25-25.75-.98-1.47-2.85-2.42-4.62-2.12Z"/><path class="c" d="M167,101.38c-.34-1.24-9.03-22.69-9.75-23.75-.96-1.41-2.65-2.34-4.38-2.12-3.71.47-3.37,4.02-2.62,6.62.35,1.2,8.57,22.2,9.25,23.25,2.46,3.79,9.2,2.26,7.5-4Z"/><path class="c" d="M39.5,103.88c.2-1.4-9.46-25.08-10.25-26.25-.95-1.39-2.67-2.36-4.38-2.12-1.37.19-3.22,2.01-3.38,3.38-.16,1.41,9.23,25.31,10,26.5,2.28,3.52,7.48,2.09,8-1.5Z"/><path class="c" d="M24.62,203.5c-1.24.21-2.99,2.14-3.12,3.38-.16,1.41,9.23,25.31,10,26.5,2.37,3.67,7.68,1.74,8-1.5.14-1.4-9.46-25.08-10.25-26.25-1-1.46-2.84-2.43-4.62-2.12Z"/><path class="d" d="M150.38,43.25c-1.35.21-22.26,13.32-23.25,14.25-3.81,3.58-.1,7.38,3.25,6.75,1.32-.25,22-13.1,23-14,3.55-3.22.44-7.54-3-7Z"/><path class="d" d="M130.38,192.25c1.34-.25,22.28-13.29,23.25-14.25,3.15-3.13.12-7.44-3.5-6.75-1.33.25-22.01,13.33-23,14.25-3.86,3.61-.05,7.37,3.25,6.75Z"/><path class="c" d="M129.88,209.25c-1.23.24-2.53,1.96-2.88,3.12-.58,1.95-2.83,24.96-2.25,26.5,1.16,3.1,6.45,2.83,7.5-.25.43-1.26,3.02-25.19,2.75-26.5-.36-1.75-2.98-3.29-5.12-2.88Z"/><path class="c" d="M124.5,110.12c.77,3.73,6.35,4.07,7.75.5.2-6.03,2.67-20.13,2.75-23.75.07-3.06-.91-6.02-4.62-5.62-1.42.15-2.99,1.75-3.38,3.12-.35,1.25-2.76,24.48-2.5,25.75Z"/><path class="d" d="M120.38,25.75c1.36-.1,24.16-9.67,25.25-10.5,3.13-2.38,1.61-7.4-3.25-6.75-1.3.17-23.17,9.25-24.25,10-3.64,2.52-1.41,7.53,2.25,7.25Z"/><path class="d" d="M145.62,143.25c3.2-2.39,1.53-7.57-3.5-6.75-1.3.21-23.2,9.46-24.25,10.25-3.32,2.48-1.05,7.27,2.5,7,1.36-.1,24.15-9.68,25.25-10.5Z"/><path class="c" d="M187.5,49.62c-.55,1.07-6.7,21.8-6.75,23-.17,4.42,5.61,6.4,7.75,2.25.99-1.92,5.05-18.95,7-23.5.36-2.54-2.17-4.64-4.62-4.38-1.12.12-2.85,1.6-3.38,2.62Z"/><path class="c" d="M188.5,202.88c.75-1.43,5.16-19.16,7-23.5.25-2.65-2.04-4.66-4.62-4.38-1.19.13-2.83,1.56-3.38,2.62-.56,1.1-6.83,22.52-6.75,23.75.26,3.96,5.8,5.23,7.75,1.5Z"/><path class="c" d="M60.5,202.88c.82-1.56,5.11-19.09,7-23.5.29-2.73-2.25-4.78-4.88-4.38-.98.15-2.66,1.72-3.12,2.62-.55,1.08-6.74,22.04-6.75,23.25-.04,4.28,5.68,5.96,7.75,2Z"/><path class="c" d="M59.5,49.62c-.53,1.03-6.39,21.1-6.5,22.25-.57,5.86,5.48,6.88,7.5,3,.6-1.15,7.23-23.72,7-25-.3-1.66-2.84-3.08-4.62-2.88-1.12.13-2.85,1.6-3.38,2.62Z"/><path class="d" d="M30.75,70.62c.19,1.23,10.48,21.38,11.62,21.88,2.79,1.2,6.66-1.07,6.12-4.38-2.39-3.66-9.62-19.62-10.5-20.75-.83-1.06-2.53-2.02-3.88-1.88-2.37.26-3.71,2.96-3.38,5.12Z"/><path class="d" d="M176.5,216.12c-4.02-5.53-9.66-23.8-14.38-22.62-3.38,1.3-3.92,2.99-2.88,6.38.32,1.05,9.27,18.68,10,19.5,3.01,3.4,7.74.07,7.25-3.25Z"/><path class="d" d="M48.5,216.12c-2.16-3.5-9.76-19.81-10.5-20.75-.83-1.06-2.53-2.02-3.88-1.88-2.32.26-3.71,3.01-3.38,5.12.18,1.15,9.75,19.86,10.5,20.75,2.69,3.21,7.85.47,7.25-3.25Z"/><path class="d" d="M158.75,70.62c.2,1.16,9.94,20.14,10.75,21,2.44,2.58,8.1.61,6.75-4.25-.3-1.08-9.56-19.11-10.25-20-.93-1.2-2.31-2.07-3.88-1.88-2.31.29-3.74,2.99-3.38,5.12Z"/><path class="d" d="M220.62,47.75c4.14,2.38,8.07-1.29,6.12-5.12-.54-1.06-16.06-16.09-17.12-16.62-.92-.46-2.58-.74-3.5-.5-.57.15-2.92,2.08-2.62,4.38.16,1.23,16.05,17.26,17.12,17.88Z"/><path class="d" d="M206.38,153.5c-1.67.35-3.08,2.75-2.88,4.38.16,1.23,16.05,17.26,17.12,17.88,4.14,2.38,8.07-1.29,6.12-5.12-.54-1.06-16.06-16.09-17.12-16.62-.92-.47-2.27-.71-3.25-.5Z"/><path class="d" d="M92.62,47.75c4.03,2.34,8.13-1.17,6.12-5.12-.54-1.06-16.06-16.09-17.12-16.62-.92-.47-2.27-.71-3.25-.5-1.67.35-3.08,2.75-2.88,4.38.16,1.23,16.05,17.25,17.12,17.88Z"/><path class="d" d="M94.12,176.5c3.22.64,6.45-2.27,4.62-5.88-.54-1.06-16.06-16.09-17.12-16.62-.92-.47-2.27-.71-3.25-.5-1.6.34-3.76,2.96-2.38,5.62.58,1.12,16.89,17.13,18.12,17.38Z"/><path class="d" d="M117.88,80.25c-1.14.14-19.37,10.01-20.25,10.75-3.82,3.21-.43,7.61,2.5,7.25,1.17-.14,19.85-10.48,20.75-11.25,3.5-3,.64-7.2-3-6.75Z"/><path class="d" d="M228.12,98.25c1.17-.13,19.84-10.5,20.75-11.25,3.47-2.84.73-7.21-3-6.75-1.14.14-19.37,10.01-20.25,10.75-3.79,3.19-.48,7.59,2.5,7.25Z"/><path class="d" d="M117.62,208.25c-1.12.18-19.12,10.03-20,10.75-3.89,3.16-.78,7.63,3,7,1.14-.19,19.37-10.26,20.25-11,3.65-3.06.46-7.35-3.25-6.75Z"/><path class="d" d="M225.12,219.25c-2.95,2.75-.44,7.32,3.25,6.75,1.15-.18,19.6-10.26,20.5-11,3.56-2.92.59-7.37-3.25-6.75-1.15.19-19.65,10.21-20.5,11Z"/><path class="f" d="M148.12,114.75c-1.37.24-20.05,12.04-20.62,13.12-1.5,2.82,1.41,5.9,4.38,5.38,1.15-.21,17.13-10.91,20-12.25,2.38-2.76-.41-6.83-3.75-6.25Z"/><path class="c" d="M221.12,59.25c-1.92.34-3.47,2.72-3.12,4.62.19,1.08,15.16,14.11,16.12,14.62,3.98,2.13,7.74-1.8,5.38-5.62-.56-.9-15.09-13.42-16.12-13.62-.33-.06-1.9-.06-2.25,0Z"/><path class="c" d="M234.12,206.5c4.03,2.02,7.76-1.8,5.38-5.62-.57-.91-15.24-13.45-16.38-13.62-.38-.06-1.64-.06-2,0-1.74.3-3.31,2.67-3.12,4.38.14,1.23,15.14,14.38,16.12,14.88Z"/><path class="c" d="M93.12,59.25c-1.81.32-3.34,2.59-3.12,4.38.13,1.1,14.69,14.16,16.12,14.88,4.25,2.12,7.64-2.03,5.38-5.62-.57-.9-15.32-13.46-16.38-13.62-.37-.06-1.65-.06-2,0Z"/><path class="c" d="M106.12,206.5c4.27,2,7.67-1.91,5.38-5.62-.56-.9-15.09-13.42-16.12-13.62-.32-.06-1.9-.06-2.25,0-1.84.32-3.31,2.61-3.12,4.38.12,1.1,15.06,14.38,16.12,14.88Z"/><path class="c" d="M170.88,131.75c3.06.67,5.69-1.44,5.12-4.62-.19-1.05-13.39-15.22-14.38-15.62-.67-.28-2.35-.39-3-.25-1.7.37-3.15,2.8-2.88,4.62.18,1.18,13.9,15.61,15.12,15.88Z"/><path class="c" d="M33.62,111.5c-.68-.28-2.34-.39-3-.25-1.82.39-3.14,2.92-2.88,4.62.16,1.04,13.19,14.9,14.12,15.38,3.35,1.69,6.75-.57,6.12-4.12-.18-1.05-13.39-15.22-14.38-15.62Z"/><path class="f" d="M83.88,195.5c2.84.96,6.03-1.81,4.88-5.12-.39-1.11-13.58-18.91-15.12-17.38-2.46.79-3.8,2.75-2.88,5.38.36,1.02,12.1,16.78,13.12,17.12Z"/><path class="f" d="M211.88,195.5c2.63.85,6.05-1.73,4.88-5.12-.33-.96-11.46-15.61-12.25-16.25-.66-.53-2.01-1.2-2.88-1.12-2.41.89-3.82,2.76-2.88,5.38.37,1.02,12.1,16.79,13.12,17.12Z"/><path class="f" d="M70.75,50.38c.37,1.02,12.1,16.79,13.12,17.12,2.64.86,5.77-1.87,5.12-4.62-.25-1.09-12.59-17.21-13.62-17.62-.14-.06-1.52-.27-1.75-.25-2.45.24-3.66,3.2-2.88,5.38Z"/><path class="d" d="M233.88,109c-.94.19-16.04,8.85-16.75,9.5-3.25,2.97-.22,7.2,3,6.75.99-.14,16.76-9.07,17.5-9.75,3.21-2.93.38-7.34-3.75-6.5Z"/><path class="f" d="M198.75,50.38c.37,1.02,12.09,16.8,13.12,17.12,2.62.84,5.75-1.9,5.12-4.62-.25-1.07-12.4-16.88-13.38-17.38-.47-.24-1.48-.55-2-.5-2.45.22-3.68,3.17-2.88,5.38Z"/><path class="d" d="M92.12,125.25c.99-.13,16.76-9.07,17.5-9.75,3.08-2.82.61-7.24-3.5-6.5-.96.17-16.28,8.84-17,9.5-3.2,2.92-.26,7.19,3,6.75Z"/><path class="d" d="M105.88,237c-.94.19-16.04,8.85-16.75,9.5-3.18,2.93-.27,7.19,3,6.75,1.01-.14,17.04-9.27,17.75-10,2.65-2.74.31-7.1-4-6.25Z"/><path class="d" d="M234.12,237c-.96.17-16.3,8.83-17,9.5-3.34,3.19-.05,7.18,3,6.75.99-.14,16.76-9.07,17.5-9.75,2.96-2.7.69-7.25-3.5-6.5Z"/><path class="f" d="M188.12,238c1-.27,12.17-15.44,12.62-16.38,1.81-3.71-1.01-6.09-3.88-5.62-.73.12-1.82,1.08-2.38,1.62-.68.67-10.95,14.59-11.25,15.5-.95,2.83,2.15,5.6,4.88,4.88Z"/><path class="f" d="M60.12,110c1.1-.28,13.29-17,13.38-18.12.18-2.31-2.41-4.21-4.62-3.88-.6.09-1.63.93-2.12,1.38-.72.65-11.2,14.82-11.5,15.75-.91,2.86,2.12,5.58,4.88,4.88Z"/><path class="f" d="M197.12,88c-.85.09-1.75.81-2.38,1.38-.73.65-11.2,14.82-11.5,15.75-.95,2.87,2.11,5.58,4.88,4.88,1.1-.28,13.29-17,13.38-18.12.18-2.22-2.24-4.1-4.38-3.88Z"/><path class="f" d="M68.88,216c-2.11.79-12.93,15.65-13.38,16.62-1.5,3.32,1.67,5.99,4.38,5.38,1.02-.23,12.43-15.43,12.88-16.38,1.74-3.65-.9-6.14-3.88-5.62Z"/><path class="f" d="M75.5,129.12c-.43-.92-12.74-14.63-13.62-15.12-.75-.42-1.64-.64-2.5-.5-2.02.32-3.26,3.01-2.88,4.88.22,1.04,13.18,15.39,14.12,15.88,2.86,1.48,6.64-1.38,4.88-5.12Z"/><path class="f" d="M189.88,114c-.77-.43-1.89-.69-2.75-.5-1.11.25-3.45,2.57-2.38,5.38.37.97,12.97,14.87,13.88,15.38,2.68,1.49,6.73-1.36,4.88-5.12-.45-.91-12.73-14.63-13.62-15.12Z"/><path class="c" d="M142.38,33.5c-.85-.19-16.65-.19-17.5,0-3.43.75-4.38,6.67-.5,7.5.89.19,17.36.2,18.25,0,3.56-.78,3.31-6.72-.25-7.5Z"/><path class="c" d="M124.38,169c.89.2,17.36.2,18.25,0,3.69-.81,3.18-6.75-.25-7.5-.84-.18-16.4-.16-17.25,0-3.92.76-4.44,6.69-.75,7.5Z"/><path class="c" d="M229.12,152.25c-.41-.15-2.02-.32-2.5-.25-2.48.36-3.51,3.28-2.88,5.38.19.64,6.56,10.99,7,11.5,3.45,4.02,8.64,1.19,7.25-3.25-.24-.77-7.89-13-8.88-13.38Z"/><path class="c" d="M102.75,40.88c3.35,3.88,9.03,1.45,7-3.75-.28-.73-7.61-12.48-8.62-12.88-.6-.23-1.88-.35-2.5-.25-1.85.29-3.33,2.56-3.12,4.38.08.72,6.78,11.95,7.25,12.5Z"/><path class="c" d="M232.38,42.5c3,1.21,6.56-.88,5.88-4.38-.16-.82-8.06-13.49-9.12-13.88-.42-.15-2.03-.33-2.5-.25-1.21.19-3.01,2.16-3.12,3.38-.17,1.79,7.8,14.69,8.88,15.12Z"/><path class="c" d="M110.25,166.12c-.18-.93-9.04-16.33-11.38-14.12-1.55.54-3.23,1.59-3.38,3.38-.14,1.8,7.8,14.69,8.88,15.12,3.09,1.24,6.56-.93,5.88-4.38Z"/><path class="c" d="M49.62,41c-1.13.19-11.79,11.09-12.12,11.88-1.37,3.24,2.3,6.45,5.38,4.88.69-.35,10.58-10.41,10.88-11.12,1.23-2.98-.89-6.16-4.12-5.62Z"/><path class="c" d="M177.62,41c-1.24.19-11.79,11.09-12.12,11.88-1.37,3.24,2.3,6.45,5.38,4.88.68-.35,10.28-10.2,10.62-10.88,1.52-3-.45-6.39-3.88-5.88Z"/><path class="c" d="M49.62,169c-1.24.19-11.49,10.88-11.88,11.62-1.77,3.41,1.94,6.78,5.12,5.12.69-.36,10.58-10.41,10.88-11.12,1.21-2.93-.89-6.13-4.12-5.62Z"/><path class="c" d="M181.75,174.62c1.23-2.98-.91-6.11-4.12-5.62-1.09.16-11.79,11.09-12.12,11.88-1.36,3.23,2.3,6.4,5.38,4.88.7-.35,10.58-10.41,10.88-11.12Z"/><path class="c" d="M183.5,15.88c.14.76,8.68,12.02,9.38,12.38,3.37,1.71,7.01-.87,5.38-4.62-.3-.69-8.68-11.58-9.38-11.88-.55-.23-1.9-.34-2.5-.25-1.87.29-3.2,2.56-2.88,4.38Z"/><path class="c" d="M198.25,151.62c-.35-.81-9.61-14.15-11.88-12.12-1.89.52-3.24,2.37-2.88,4.38.14.76,8.69,12.01,9.38,12.38,3.19,1.71,7.05-.78,5.38-4.62Z"/><path class="c" d="M70.75,152.38c-.2-.9-10.42-15.12-12.38-12.88-1.91.66-3.25,2.32-2.88,4.38.14.76,8.69,12.01,9.38,12.38,3.28,1.75,6.52-.98,5.88-3.88Z"/><path class="c" d="M55.5,15.88c.14.76,8.69,12.01,9.38,12.38,3.19,1.71,7.05-.78,5.38-4.62-.35-.81-9.73-14.19-11.88-12.12-1.91.66-3.25,2.32-2.88,4.38Z"/><path class="f" d="M155.25,190.12c1.97-2.77-.38-6.31-3.88-5.62-.73.14-11.59,7.45-11.88,8.12-1.09,2.61,1.05,5.52,3.88,5.12.7-.1,11.47-7.05,11.88-7.62Z"/><path class="f" d="M27.5,189.88c1.26-2.26-.45-5.72-3.12-5.62-1,.04-12.12,7.24-12.62,8.12-1.65,2.87,1.05,5.95,3.88,5.38.7-.14,11.53-7.25,11.88-7.88Z"/><path class="f" d="M27.25,62.12c1.72-2.42-.16-6.07-3.12-5.88-.93.06-12.28,7.58-12.62,8.38-1.13,2.59,1.08,5.51,3.88,5.12.7-.1,11.47-7.05,11.88-7.62Z"/><path class="f" d="M155.25,62.12c1.97-2.75-.63-6.1-3.12-5.88-.8.07-11.96,7.4-12.38,8.12-1.49,2.63.64,5.82,3.62,5.38.7-.1,11.46-7.05,11.88-7.62Z"/><path class="c" d="M206.38,195.5c-1.92.41-3.75,2.22-3.38,4.38.12.67,7.53,10.55,8.12,10.88,2.94,1.57,6.93-.62,5.12-4.88-.29-.68-8.03-11.66-9.88-10.38Z"/><path class="c" d="M206.12,67.5c-1.91.69-3.5,2.24-3.12,4.38.12.67,7.53,10.55,8.12,10.88,3.08,1.65,6.93-.76,5.12-4.88-.3-.69-8.27-11.93-10.12-10.38Z"/><path class="c" d="M78.12,67.5c-1.91.69-3.5,2.24-3.12,4.38.12.67,7.53,10.55,8.12,10.88,3,1.61,6.6-.74,5.38-4.38-.25-.74-8.39-12.43-10.38-10.88Z"/><path class="c" d="M78.62,195.5c-2.13.34-4.03,2.06-3.62,4.38.12.67,7.53,10.55,8.12,10.88,2.9,1.6,6.97-.67,5.12-4.88-.29-.66-7.85-11.16-9.62-10.38Z"/><path class="f" d="M232.12,17.75c.56-.22,8.89-7.32,9.12-7.88.97-2.29-1.08-5.09-3.38-4.88-.93.09-9.88,7.52-10.12,8.12-1.23,2.96,1.21,5.84,4.38,4.62Z"/><path class="f" d="M241.25,137.88c1-2.37-.88-4.84-3.38-4.88-3.37,2.72-15.19,9.06-8.25,13,1.75,1.2,11.34-7.45,11.62-8.12Z"/><path class="f" d="M113.25,137.88c.95-2.24-1.02-5.08-3.38-4.88-.73.06-9.83,7.46-10.12,8.12-1.26,2.88,1.22,5.87,4.38,4.62.56-.22,8.89-7.32,9.12-7.88Z"/><path class="f" d="M103.62,18c.61-.15,9.38-7.54,9.62-8.12.96-2.27-.98-5.08-3.38-4.88-.98.08-9.55,7.33-9.88,7.88-1.65,2.79.7,5.85,3.62,5.12Z"/><path class="c" d="M31.75,29.62c.2-1.57-5.39-12.04-8.62-10.12-6.17,1.3,2.59,12.13,3.25,12.5,1.9,1.07,5.08-.11,5.38-2.38Z"/><path class="c" d="M31.75,157.62c.19-1.6-5.47-12-8.62-10.12-6.07,1.62,2.59,12.13,3.25,12.5,1.9,1.05,5.1-.02,5.38-2.38Z"/><path class="c" d="M154.38,32c1.84,1.01,5.05-.23,5.38-2.38.22-1.48-5.47-12.07-8.62-10.12-6.06,1.61,2.59,12.14,3.25,12.5Z"/><path class="d" d="M159.5,156.38c-.13-.62-6.03-10.81-8.12-8.88-6.14,2.28,1.19,9.86,3.5,13,2.43.44,5.19-1.43,4.62-4.12Z"/><path class="d" d="M216.88,94.5c-.77.08-14.07,5.52-8,9.75,1.49,2.13,11.34-4.47,11.62-5.12.85-1.97-.83-4.93-3.62-4.62Z"/><path class="d" d="M216.88,222.5c-.77.1-14,5.44-8,9.75,1.12,1.93,10.74-3.89,11.12-4.38,1.8-2.27-.28-5.75-3.12-5.38Z"/><path class="d" d="M92.25,227.38c1.12-2.52-.7-5.13-3.38-4.88-.77.07-13.88,5.3-8,9.75,1.43,2.03,11.11-4.28,11.38-4.88Z"/><path class="d" d="M88.88,94.5c-.5.07-8.54,4.35-8.88,4.88-1.53,2.39.42,5.94,3.38,5.38.53-.1,8.83-4.95,9.12-5.62.93-2.17-1.16-4.97-3.62-4.62Z"/><path class="d" d="M118.62,241.75c-2.64.64-6.94,13.68.25,12.25,2.55-.51,7.23-14.05-.25-12.25Z"/><path class="d" d="M246.62,113.75c-2.72.65-6.84,13.64.25,12.25,2.54-.5,7.22-14.05-.25-12.25Z"/><path class="d" d="M246.62,241.75c-2.63.63-6.89,13.65.25,12.25,2.54-.5,7.24-14.05-.25-12.25Z"/><path class="d" d="M118.88,126c2.54-.5,7.24-14.05-.25-12.25-2.62.63-6.9,13.65.25,12.25Z"/><path class="d" d="M212.88,18c.78-.23,11.17-11.47,1-11-6.99,5.66-6.44,12.61-1,11Z"/><path class="d" d="M213.12,145.75c.72-.32,10.84-11.08.75-10.75-7.93,6.66-5.58,12.88-.75,10.75Z"/><path class="d" d="M84.62,146c3.13-3.03,9.95-9.71,2-11.25-2.28.18-11.06,11.78-2,11.25Z"/><path class="d" d="M90.5,10.62c.35-2.36-2.45-4.17-4.62-3.62-1.31.33-7.06,7.94-4.88,9.88,3.18,4.72,9.4-5.59,9.5-6.25Z"/><path class="d" d="M42.12,28.25c1.15,1.42,8.58-3.92,8.88-4.38,1.43-2.24-.79-5.06-3.12-4.88-.68.05-11.63,4.98-5.75,9.25Z"/><path class="d" d="M47.88,147c-.68.05-11.56,4.92-5.75,9.25,1.15,1.42,8.58-3.92,8.88-4.38,1.43-2.24-.79-5.06-3.12-4.88Z"/><path class="d" d="M175.88,147c-.68.07-11.58,4.99-5.75,9.25,1.22,1.35,8.56-3.88,8.88-4.38,1.48-2.3-.91-5.1-3.12-4.88Z"/><path class="d" d="M170.12,28.25c1.08,1.39,8.6-3.94,8.88-4.38,1.51-2.41-.92-5.05-3.12-4.88-.68.05-11.54,4.98-5.75,9.25Z"/><path class="c" d="M204.88,117c6.32,2.96,5.62-7.48,0-6.75-3.12.4-3.26,5.22,0,6.75Z"/><path class="c" d="M76.88,117c6.42,2.98,5.53-7.55,0-6.75-3.14.46-3.07,5.33,0,6.75Z"/><path class="c" d="M76.88,238.25c-5.48.76-.36,10.88,4.38,5.62,1.05-2.63-1.67-6-4.38-5.62Z"/><path class="c" d="M204.88,238.25c-3.78.59-3.03,7.8,3,7,3.66-2.21.3-7.52-3-7Z"/><path class="c" d="M241.62,183.25c-8.38,5.87,5.57,9.92,4.12,2.62-.29-1.48-2.59-2.94-4.12-2.62Z"/><path class="c" d="M245.75,57.88c-.26-1.37-2.45-2.81-3.88-2.62-9.06,5.47,5.32,10.15,3.88,2.62Z"/><path class="c" d="M112.62,61.5c1.19.75,4.24.31,4.88-1.12,1.06-2.41-.91-5.44-3.62-5.12-2.55.29-4.16,4.42-1.25,6.25Z"/><path class="c" d="M114.88,190c4.12-.44,3.57-7.24-1-6.75-4.12.44-3.57,7.24,1,6.75Z"/><path class="c" d="M39.38,16c3.3-.75,1.97-7.16-2.25-6.5-4.1.64-2.26,7.52,2.25,6.5Z"/><path class="c" d="M164.62,143.5c5.68,3.04,6.22-6.64.75-6-3.04.36-3.3,4.63-.75,6Z"/><path class="c" d="M39.38,144c3.26-.69,2.06-7.22-2.25-6.5-3.93.65-2.31,7.46,2.25,6.5Z"/><path class="c" d="M169,14.62c1.07-2.58-1.1-5.61-3.88-5.12-4.78.84-1.06,9.78,3.88,5.12Z"/><path class="c" d="M16.62,227.75c-2.98.26-4.06,5.14-1,6.25,5.16,1.88,6.05-6.7,1-6.25Z"/><path class="c" d="M16.62,99.75c-2.98.26-4.06,5.14-1,6.25,5.18,1.89,5.93-6.69,1-6.25Z"/><path class="c" d="M144.38,227.75c-3.12.47-3.7,5.58-.5,6.25,5.57,1.16,5.08-6.95.5-6.25Z"/><path class="c" d="M143.38,105.75c5.58,2.38,6.27-6.48,1.25-6-2.93.28-3.91,4.87-1.25,6Z"/><path class="c" d="M26.62,132.25c3.5-.36,2.96-6.47-1.25-5.5-2.88.67-2.44,5.88,1.25,5.5Z"/><path class="c" d="M154.62,132.25c4.25-1.69,2.11-6.28-1.25-5.5-2.18.5-3.39,5.19,1.25,5.5Z"/><path class="d" d="M48.88,119.25c5.46.64.46-6.98-1.5-6.75-3.21,1.57-.08,5,1.5,6.75Z"/><path class="d" d="M47.38,240.5l-1.38,1.12c1.91,10.61,10.13,4.25,1.38-1.12Z"/><path class="d" d="M174,113.62c1.58,9.98,10.13,5,1.62-1.12l-1.62,1.12Z"/><path class="d" d="M175.38,240.5l-1.38,1.12c1.79,10.36,10.19,4.4,1.38-1.12Z"/><path class="c" d="M232.5,52.62c-.35-1.47-1.47-2.96-3.12-2.88-5.46.28-.71,10.04,3.12,2.88Z"/><path class="c" d="M37.12,166.25c5.2,1.91,5.68-5.26,1.5-5-2.24.14-3.69,3.59-1.5,5Z"/><path class="c" d="M166.62,33.25c-2.52.79-3.63,3.11-1.5,5,4.32,1.8,6.46-4.39,1.5-5Z"/><path class="c" d="M165.12,166.25c5.3,1.83,5.61-5.26,1.5-5-2.26.14-3.68,3.64-1.5,5Z"/><path class="c" d="M38.38,33.25c-3.63,1.5-2.29,4.85-.75,5.25,3.98,1.02,5.87-4.92.75-5.25Z"/><path class="c" d="M102.38,55.25c3.17-.57,2.33-5.97-1.5-5.25-3.1.58-2.18,5.91,1.5,5.25Z"/><path class="c" d="M100.62,178l-1.38,1.12c-.85,9.19,11.14.2,1.38-1.12Z"/><path class="c" d="M230.12,183.25c4.25-1.68,1.78-5.93-1.25-5.25-2.63.59-2.6,5.39,1.25,5.25Z"/><path class="c" d="M249.75,72.62c4.67,5.64,7.98-3.71,2.62-3.38-1.33.08-2.96,1.99-2.62,3.38Z"/><path class="c" d="M250.88,201.5c4.46,2,5.93-5.59,1-4.75-2.17.37-3.27,3.73-1,4.75Z"/><path class="c" d="M123.88,69.5c-1.29.22-2.36,1.88-2.12,3.12,4.77,5.84,7.98-4.13,2.12-3.12Z"/><path class="c" d="M10.88,107.75l-1.38,1.62c1.26,8.11,9.44-.68,1.38-1.62Z"/><path class="c" d="M10.88,235.75l-1.12,1.12c-.34,8.6,9.88.3,1.12-1.12Z"/><path class="c" d="M138.88,235.75l-1.38,1.62c1.26,8.05,9.36-.71,1.38-1.62Z"/><path class="c" d="M141.12,108.25l-2-.25c-5.92,5.17,7.21,7.02,2,.25Z"/><path class="c" d="M126.25,198.38l-2.12-1.38c-6.86,2.92,2.45,8.2,2.12,1.38Z"/><path class="d" d="M63.38,162c-1.97.34-3.17,3.7-.5,4.25,4.31-.68,3.71-4.81.5-4.25Z"/><path class="d" d="M191.38,162c-1.9.33-3.17,3.69-.5,4.25,4.26-.59,3.75-4.82.5-4.25Z"/><path class="d" d="M63.38,34c-1.6.28-2.88,2.88-1.25,4,4.73.63,4.93-4.64,1.25-4Z"/><path class="d" d="M191.38,34c-1.6.28-2.88,2.88-1.25,4,4.88.5,4.83-4.63,1.25-4Z"/><path class="c" d="M109.38,97.5l-1.38,1.12c-.03,6.48,8.07-.65,1.38-1.12Z"/><path class="c" d="M109.12,225.5l-1.12,1.12c.01,6.58,8.23-.94,1.12-1.12Z"/><path class="c" d="M237.38,225.5l-1.38,1.12c.12,6.5,7.93-.65,1.38-1.12Z"/><path class="c" d="M237.38,97.5l-1.38,1.12c-.07,6.42,8.02-.58,1.38-1.12Z"/><path class="c" d="M143.12,87l-1.75-.5c-4.6,3.73,4.37,6.21,1.75.5Z"/><path class="c" d="M13.62,86.5l-1.38,1.12c-.16,6.32,7.12.37,1.38-1.12Z"/><path class="c" d="M12.25,215.38c-.65,6.3,7.15,1.33,1.38-.88l-1.38.88Z"/><path class="c" d="M140.25,215.38c-.68,6.49,7.32.66,1.12-.88l-1.12.88Z"/><path class="d" d="M181.38,181.75h-1.5c-4.64,4.45,5.47,4.79,1.5,0Z"/><path class="d" d="M248.38,94l-1.38,1.12c-.42,5.85,7.21.39,1.38-1.12Z"/><path class="d" d="M248.38,222l-1.38,1.12c-.31,5.86,7.15.36,1.38-1.12Z"/><path class="d" d="M51.88,53.75c-4.59,4.27,5.24,5.02,1.5,0h-1.5Z"/><path class="d" d="M52.38,181.5l-1.38.88c-1.59,5.9,7.1,1.37,1.38-.88Z"/><path class="d" d="M119,223.12c-.18,5.87,7.05.28,1.38-1.12l-1.38,1.12Z"/><path class="d" d="M120.62,94l-1.62,1.12c-.41,5.61,6.89.8,1.62-1.12Z"/><path class="d" d="M62.75,5.38l-1.88-1.12c-4.7,2.31,2.04,6.56,1.88,1.12Z"/><path class="d" d="M179.88,53.75l-1.12,1.12c.03,5.92,7.24-.61,1.12-1.12Z"/><path class="d" d="M60.12,132.5l-.88,1.12c.77,6.13,7.1-1.28.88-1.12Z"/><path class="d" d="M190.5,5.12l-1.38-.88c-5.46,2.2,2.41,6.73,1.38.88Z"/><path class="d" d="M187.5,133.12c-1.04,5.77,6.86,1.28,1.38-.88l-1.38.88Z"/><path class="d" d="M173.88,189l-1.25-.25c-5.44,3.44,4.22,5.63,1.25.25Z"/><path class="d" d="M44.62,188.75l-1.38.88c-1.03,5.49,6.97,1.23,1.38-.88Z"/><path class="d" d="M44.62,60.75l-1.38.88c-1.06,5.46,6.97,1.2,1.38-.88Z"/><path class="d" d="M171.25,61.62c-1.06,5.46,6.97,1.2,1.38-.88l-1.38.88Z"/><path class="d" d="M156.88,168.75h-1.25c-4.36,4.33,5.36,4.61,1.25,0Z"/><path class="d" d="M248.38,49l-1.12,1.12c.75,5.75,6.46-.76,1.12-1.12Z"/><path class="d" d="M120.38,177l-.88.62c-.75,6.31,6.77.12.88-.62Z"/><path class="d" d="M119.5,49.62c-.73,6.33,6.7.1.88-.62l-.88.62Z"/><path class="d" d="M28.88,168.75h-1.5c-3.62,4.35,5.24,4.23,1.5,0Z"/><path class="d" d="M27.88,40.5l-1.12.62c-1.66,5.56,6.65,1.61,1.12-.62Z"/><path class="d" d="M248.38,177l-.88.62c-.75,6.27,6.72.1.88-.62Z"/><path class="d" d="M155.62,40.5l-1.12,1.12c.48,5.44,6.39-.29,1.12-1.12Z"/><path class="f" d="M186.5,211.38c7.53,3.87,9.05,1.18.38-1.12l-.38,1.12Z"/><path class="f" d="M192.62,84.25l-5.5-2c-3.69.67,7.86,5.05,5.5,2Z"/><path class="f" d="M58.88,211.75c8.34,3.23,7.52.47,0-1.5v1.5Z"/><path class="f" d="M59.12,82.25l-.62.88c6.47,4.02,9.73,1.74.62-.88Z"/><path class="f" d="M142,79.12c.67-1.54-4.67-1.03-5.38-1.38-2.41,1.93,5.06,2.11,5.38,1.38Z"/><path class="f" d="M34.12,172c-1.24,1.01-2.18,2.75-1.25,4.25,1.08.49,4.11-4.72,1.25-4.25Z"/><path class="f" d="M162.12,44c-1.24,1.01-2.18,2.75-1.25,4.25,1.05.48,4.12-4.87,1.25-4.25Z"/><path class="f" d="M13.38,207.5c2.53-1.57-3.88-1.85-4.5-1.75-1.82.28-.94,2.1,4.5,1.75Z"/><path class="f" d="M163.5,172.88l-1.12-.88c-2.66.22-2.57,9,1.12.88Z"/><path class="f" d="M8.88,77.75c-2.27,1.75,1.79,1.71,4.5,1.75,1.97-1.85-1.86-1.28-4.5-1.75Z"/><path class="f" d="M141.62,206.25l-5-.5c-3.63,1.78,8.39,2.49,5,.5Z"/><path class="f" d="M35.25,44.38l-1.12-.38c-3.85,3.94-.05,7.02,1.12.38Z"/><path class="d" d="M182.62,133.75h-1c-3.8,3.89,4.48,4.09,1,0Z"/><path class="d" d="M54.62,133.75h-1c-3.8,4.03,4.49,3.89,1,0Z"/><path class="d" d="M182.62,5.75h-1c-3.79,3.96,4.44,3.97,1,0Z"/><path class="f" d="M64.12,75.75l-.38.88c5.98,2.99,7.99-.19.38-.88Z"/><path class="d" d="M54.62,5.75h-1c-3.79,3.96,4.44,3.97,1,0Z"/><path class="f" d="M46,226.38l-.88-.38c-1.34,6.06,2.72,7.92.88.38Z"/><path class="f" d="M191.88,75.75l-.12.88c6.72,3.07,7.73-.17.12-.88Z"/><path class="f" d="M64.12,203.75l-.38.62c5.32,3.4,8.65.15.38-.62Z"/><path class="f" d="M191.88,203.75l-.12.88c6.49,3.03,7.64-.28.12-.88Z"/><path class="f" d="M173.38,226l-.62.62c.97,11.2,2.89-.86.62-.62Z"/><path class="f" d="M45.12,98.25c-1.19,5.65,2.17,7.45,1.12.62l-1.12-.62Z"/><path class="f" d="M173.38,98l-.62.62c.88,10.94,2.88-.72.62-.62Z"/><path class="e" d="M0,132v6.2c.05-2.07.11-4.15,0-6.2Z"/><path class="e" d="M0,247.27c0-.06,0-.12,0-.18v7.92c.16-2.56.07-5.15,0-7.73Z"/><path class="e" d="M0,119.08v7.92c.14-2.62.06-5.27,0-7.92Z"/><path class="f" d="M255.17,1.96c-.02.48.07.97.4,1.5.11.18.25.36.42.54V0h-.5c-.06.52-.2,1-.28,1.48-.03.16-.04.32-.05.48Z"/><path class="f" d="M127.13,1.68c.01.55.15,1.07.4,1.54.25.47.61.88,1.05,1.2.3.21.63.39,1,.51s.77.2,1.2.21c.64.02,1.35-.1,2.09-.39.43-.17,6.58-3.98,7.88-4.75h-13.25c-.09.19-.16.37-.22.56-.11.38-.16.75-.15,1.12Z"/><path class="f" d="M12.75,0H0v4C2.78,7.03,7.79,2.94,12.75,0Z"/><path class="c" d="M167.48.92c.22.2.44.41.67.6.11.1.22.2.34.29.22.19.45.38.68.55.23.18.45.34.68.5.23.15.45.3.67.42.11.06.22.12.33.18.22.11.44.21.66.29.22.08.43.14.64.17.21.04.42.05.62.05.51-.02.99-.19,1.44-.56.18-.15.35-.32.52-.53.5-.63.93-1.57,1.29-2.88h-9.5c.11.1.21.2.32.31.22.21.43.41.66.61Z"/><path class="c" d="M41.49,2.62c.45.33.9.62,1.35.85.22.11.44.21.66.29.11.04.22.07.33.1.22.06.43.1.64.12.52.04,1.02-.06,1.48-.35.55-.35,1.05-.96,1.48-1.92.21-.48.41-1.05.58-1.71h-9.5c.74.71,1.52,1.44,2.31,2.09.23.18.45.36.68.53Z"/><path class="f" d="M74.38,6c2.8-1.89,1.43-4.1.12-6h-10c2.92,3.11,6.64,8.18,9.88,6Z"/><path class="f" d="M199.12,6.5c2.26.55,7.05-1.25,3.38-6.5h-9.75c.93.99,5.76,6.35,6.38,6.5Z"/></svg>