<?xml version="1.0" encoding="UTF-8"?><svg id="a" xmlns="http://www.w3.org/2000/svg" viewBox="0 0 256 256"><defs><style>.b{fill:none;}.b,.c,.d,.e,.f,.g,.h,.i,.j,.k,.l{stroke-width:0px;}.c{fill:#88cbeb;}.d{fill:#f9cc1c;}.e{fill:#fdbe12;}.f{fill:#d942a2;}.g{fill:#aa4154;}.h{fill:#fdb019;}.i{fill:#ffabbb;}.j{fill:#0e96de;}.k{fill:#92c73c;}.l{fill:#7eb126;}</style></defs><path class="b" d="M143.54,2.8c.19.36.39.73.58,1.09-.19-.36-.38-.73-.58-1.09Z"/><path class="b" d="M15.59,3.08c.52,1.04,1.06,2.07,1.66,3.05-.6-.98-1.13-2.01-1.66-3.05Z"/><path class="b" d="M144.11,3.89c.19.36.36.7.52,1.01-.16-.31-.33-.66-.52-1.01Z"/><path class="b" d="M255.05,27.41c-.12-.69-.25-1.38-.37-2.03.12.65.24,1.34.37,2.03Z"/><path class="b" d="M254.68,25.38c-.12-.65-.23-1.27-.33-1.83.1.56.21,1.18.33,1.83Z"/><path class="b" d="M254.35,23.55c-.1-.56-.18-1.06-.24-1.48.06.41.15.92.24,1.48Z"/><path class="b" d="M142.47.84c.22.4.49.89.78,1.42-.29-.53-.56-1.02-.78-1.42Z"/><path class="b" d="M255.37,101.3c-.53.35-.76.84-.74,1.35-.03-.51.21-1,.74-1.35Z"/><path class="b" d="M255.07,147.66c.22-.19.44-.36.64-.49-.21.13-.43.3-.64.49Z"/><path class="b" d="M255.57,30.47c-.1-.65-.22-1.33-.34-2.02.12.69.24,1.37.34,2.02Z"/><path class="b" d="M254,148.88c.02-.12.21-.37.47-.65-.26.28-.45.53-.47.65Z"/><path class="b" d="M205.66,5.52c.2-.51.46-1.08.78-1.76-.32.67-.59,1.25-.78,1.76Z"/><path class="b" d="M205.28,6.85c.05-.39.18-.82.38-1.33-.2.51-.33.94-.38,1.33Z"/><path class="b" d="M205.26,7.39c-.01-.17,0-.35.02-.55-.03.19-.03.37-.02.55Z"/><path class="c" d="M60.75,256h11.36c-3.79-.06-7.58-.14-11.36,0Z"/><path class="c" d="M47.03,256h11.47c-3.31-.17-7.37-.1-11.47,0Z"/><path class="c" d="M216.71,256h.19c-.05,0-.12,0-.19,0Z"/><path class="g" d="M188.12,255.5c-.33,0-1.01.5-1.88.5h2.5c-.29,0-.52-.5-.62-.5Z"/><path class="g" d="M60.58,255.92s-.03-.05-.06-.08c-.05-.05-.13-.1-.31-.12-.27-.02-.77.04-1.72.28h2.25s-.05,0-.06,0c-.05-.01-.08-.04-.1-.08Z"/><path class="k" d="M27.25,256h4.75c-1-.08-1.64-1.91-4.75,0Z"/><path class="e" d="M155.25,256h4.5c-.2,0-.88-.72-1.12-.75-1.82-.25-2,.74-3.38.75Z"/><path class="c" d="M256,183.75v-9.39c-.08,3.24-.14,6.46,0,9.39Z"/><path class="c" d="M256,55.75v-9.4c-.08,3.25-.14,6.48,0,9.4Z"/><path class="j" d="M255.07,147.66c-.22.19-.42.39-.6.58-.26.28-.45.53-.47.65-.14.73,1.78,9.59,2,12.88v-14.75c-.09.04-.19.09-.29.16-.21.13-.43.3-.64.49Z"/><path class="j" d="M254,20.88c-.03.14.02.57.11,1.19.06.41.15.92.24,1.48s.21,1.18.33,1.83c.12.65.24,1.34.37,2.03.06.35.12.69.18,1.04.12.69.24,1.37.34,2.02.21,1.3.37,2.46.43,3.28v-14.75c-.72.31-1.94,1.57-2,1.88Z"/><path class="f" d="M256,232.5v-3.5c-2.12.74-1.63,2.63,0,3.5Z"/><path class="f" d="M254.63,102.65c.03.68.52,1.39,1.37,1.85v-3.5c-.24.08-.45.18-.63.3-.53.35-.76.84-.74,1.35Z"/><path class="c" d="M32,0c-.12,6.89-10.94,3.79-4.75,0h-13.25c.56,1,1.07,2.04,1.59,3.08.52,1.04,1.06,2.07,1.66,3.05l-5.62,3.38C11.07,9.42,6.18,1.15,5.5,0H0v19c1.3-.56,3.91-.65,4.75.88.49.9,2.81,16.63,3.5,19.75-8.55,4.39-6.24.87-8.25-5.88.25,3.78.11,8.21,0,12.6v9.4c3.46-1.69,5.1,1.65,5.75,4.62-.16.53-4.91,3.32-5.75,3.88v36.75c10.3.06,7.09,7.34,0,3.5v42.5c1.39-.62,3.89-.74,4.75.88.48.9,2.85,16.61,3.5,19.75-8.42,4.47-6.32.8-8.25-5.88.25,3.81.11,8.23,0,12.61v9.39c3.5-1.71,5.06,1.63,5.75,4.62-.09.34-5.02,3.65-5.75,4.12v36.5c2.11-.74,9.09,1.59,5.62,4.5-.74.24-4.9-.62-5.62-1v23.5h5.5c-.92-1.55-5.18-8.06-5-9.12,1.4-1.72,4.54-4.54,6.5-2.5.47.49,6.21,10.22,7,11.62h13.25c3.11-1.91,3.75-.08,4.75,0h15.03c4.1-.1,8.16-.17,11.47,0,.95-.25,1.45-.31,1.72-.28.18.01.26.06.31.12.02.03.04.06.06.08.02.04.05.07.1.08.02,0,.04,0,.06,0,3.78-.14,7.57-.06,11.36,0h8.39c1.01-2.17,8.4-17.7,9.38-18,1.28-.4,4.98,1.4,5.88,2.62.43,1.71-6.23,12.56-6.75,15.38h44.5c-.94-1.59-5.34-8.2-5-9.38,1.54-1.23,4.34-4.12,6.25-2.5.53.45,6.42,10.42,7.25,11.88h13.25c1.38,0,1.56-1,3.38-.75.25.03.92.75,1.12.75h26.5c.86,0,1.54-.5,1.88-.5.1,0,.34.5.62.5h19.5s.04,0,.09,0h.2c.09,0,.17-.04.21-.12,1.01-2.14,8.15-17.58,9.12-17.88,1.99.29,6.23,1.23,5.88,3.88-.1.74-5.87,11.53-6.75,13.25-.09.17.09.71,0,.88h39v-23.5c-1.63-.87-2.12-2.76,0-3.5v-36.5c-.96.62-8.13,4.95-8.62,5-1.62.17-5.78-3.19-3-6,.49-.5,11-7.44,11.62-7.75-.14-2.93-.08-6.15,0-9.39v-12.61c-.22-3.29-2.14-12.15-2-12.88.02-.12.21-.37.47-.65.17-.19.38-.39.6-.58.22-.19.44-.36.64-.49.1-.07.2-.12.29-.16v-42.5c-.84-.46-1.33-1.17-1.37-1.85-.03-.51.21-1,.74-1.35.18-.12.39-.22.63-.3v-36.75c-1.06.7-7.66,5.13-8.12,5.25-1.93.5-5.16-2.57-4.38-5.12.22-.73,11.82-8.29,12.5-8.62-.14-2.92-.08-6.15,0-9.4v-12.6c-.05-.82-.22-1.98-.43-3.28-.1-.65-.22-1.33-.34-2.02-.06-.35-.12-.69-.18-1.04-.12-.69-.25-1.38-.37-2.03-.12-.65-.23-1.27-.33-1.83-.1-.56-.18-1.06-.24-1.48-.09-.62-.14-1.05-.11-1.19.06-.31,1.28-1.57,2-1.88V0h-39s-.04,0-.09,0h-.19c-.08,0-.17.04-.21.12-.89,1.73-4.81,11.16-6.38,11.12-1.67-.85-2.86-1.47-3.65-2.06-.79-.58-1.17-1.12-1.22-1.81-.01-.17,0-.35.02-.55.05-.39.18-.82.38-1.33.2-.51.46-1.08.78-1.76.48-1.01,1.1-2.24,1.81-3.76h-19.5c.86,1.38,4.28,3.86,2.38,5.5-.74.64-17.06,7.51-18,7.25-.31-.09-3.23-4.11-2.38-5.62L186.25,0h-26.5c.97,6.24-10.35,4.75-4.5,0-4.42.02-8.83-.02-13.25,0,.08.14.25.44.47.84.22.4.49.89.78,1.42.1.18.19.36.29.54.19.36.39.73.58,1.09.19.36.36.7.52,1.01.39.78.65,1.37.62,1.48l-5.62,3.12c-.17-.03-.77-.85-1.53-2.01-.3-.46-.63-.98-.97-1.52-.17-.27-.34-.55-.51-.82-.34-.56-.69-1.12-1.02-1.66-.16-.27-.33-.54-.48-.79-.31-.51-.59-.99-.84-1.4-.37-.61-.64-1.08-.77-1.3h-44.5c-1.84,1.8-5.08,11.33-6.88,11.25-.11-.07-.26-.17-.46-.28-.78-.45-2.15-1.19-3.2-1.85-.13-.08-.26-.17-.38-.25-.48-.32-.86-.62-1.01-.84-.04-.06-.06-.11-.07-.15-.12-.6,2.98-6.75,3.5-7.88-.82.02-1.64.04-2.47.04-1.64.01-3.29,0-4.94-.03-.33,0-.66-.01-.99-.02h-11.36c.8,1.43,4.31,3.83,2.38,5.5-.73.63-17.07,7.51-18,7.25-.34-.1-3.84-4.54-1.75-6.25C44.01,5.98,57.7.21,58.5,0h-11.47c-5.49.13-11.06.31-15.03,0ZM15.75,27.88c.28-.85,11.5-12.68,12.38-12.88,2.32-.53,5.84,2.31,4.38,5.12-.38.73-9.97,9.74-11.38,11.88-2.09,1.14-6.15-1.8-5.38-4.12ZM26.75,110.38c-1.28-2.95,3.07-5.07,3.62-5.12.26-.03.8-.05,1,0,.95.25,11.65,12.7,13.38,14.38.09.84-4.09,4.77-5.12,4.38-1.77-2.22-12.49-12.73-12.88-13.62ZM40.25,161.13c.6.96,2.91,15.59,4,18.5-.07,1.68-5.38,4.63-6.75,2.25-.51-.89-4.17-19-3.75-20,.31-.73,2.09-1.78,2.88-1.88,1.03-.13,3,.13,3.62,1.12ZM17.62,179c2.63.61,8.92,2.51,4.75,5.5-2.65-.22-8.93-2.37-4.75-5.5ZM15.88,198.75c-2.79-1.07-1.45-4.62,1-5,4.34-.67,3.45,5.39-1,5ZM16,155.63c.35-.79,11.04-12.38,11.88-12.62,2.56-.75,5.96,2.21,4.88,4.88-.34.84-11.89,12.63-12.88,12.62-1.05,0-5.12-2.03-3.88-4.88ZM23.12,39.5c2.52-.53,5.41,2.97,2,5-2.32.55-5.67-3.07-2-5ZM23.25,55.88c-1.62,1.86-10.39-1.92-5.62-4.88,2.32.64,7.63,1.79,5.62,4.88ZM29.38,127.25c4.17-.38,2.81,5.98-3,4.75-2.69-2.08,1.41-4.6,3-4.75ZM37.12,90.75c3.13-.66,2.9,6.97,1,7.5-3.69,1.15-3.37-7.09-1-7.5ZM44.25,67.63c-1.99,1.07-12.53,10.72-13.38,10.88-1.49.27-5.11-3.11-4.62-4.88,1.57-1.55,12.52-10.96,13.38-11.12,1.52-.3,5.54,3.42,4.62,5.12ZM16.88,65.75c4.27-.63,3.75,5.19-1,5-2.69-1.09-1.52-4.63,1-5ZM3.75,83.38c-1.71-3.1,2.77-5.54,3.12-5.62.24-.05,1.82-.05,2,0,1.14.33,13.91,15.48,16.12,17.38,1.27,1.65-3.62,5.71-5.62,4.88-1.05-.44-15.07-15.63-15.62-16.62ZM16.75,115.38c-3.6,2.65-6.73-3.89-3.38-6.12,2.4-.61,3.97,4.37,3.38,6.12ZM.5,119.88c-.44-2.13,3.06-3.42,4.62-4.38.79.05,1.33.3,1.88.88.7.73,8.5,15.1,10.25,17.5-.06,1.25-3.55,2.31-5.38,3.62-1.73-1.77-11.16-16.6-11.38-17.62ZM15.88,244c-2.84.98-5.78-4.5-2.5-6.75,2.4-.67,4.77,5.41,2.5,6.75ZM20.12,228.5c-1.23-.09-14.72-16.01-16.88-17.88-.53-1.7,2.68-3.58,4.12-4.88,1.04-.17,1.48.57,2.12,1.12,2.52,2.16,12.47,13.76,16,17.5-.55.64-5.04,4.15-5.38,4.12ZM21.75,168.63l1.38-1.12c8.95,1.62-1.43,9.64-1.38,1.12ZM26.25,201.63c1.62-1.43,12.74-11.26,13.62-11.38,1.05-.14,4.88,3.73,4.62,4.88-1.82,1.46-12.34,10.78-13.12,11.12-2.21.95-5.55-3.07-5.12-4.62ZM36.38,226c-1.29-.75-1.54-6.68.75-7.25,3.87-.71,3.05,9.45-.75,7.25ZM39.62,252c-1.76-2.3-12.41-12.56-12.88-13.62-1.13-2.6,1.61-4.25,3.62-5.12.31.05.73-.07,1,0,.95.25,11.67,12.69,13.38,14.38.1.94-4.18,4.67-5.12,4.38ZM40.88,154c-3.95-1.56.28-5.26,1.75-5.5,3.68-.6,3.69,4.66-1.75,5.5ZM55.5,101.63c-.83,1.53-6.44-1.47-6.5-2.25,1.46-2.94,7.65-16.94,8.25-17.75.55-.74,1.35-1.18,2.12-1.62,2.55.22,5.1,1.49,4.62,4.38-.16.95-7.59,14.73-8.5,17.25ZM62.12,117c-4.32.85-7.13-4.75-3.25-5.25,2.53-.33,6.35,3.18,3.25,5.25ZM51.38,50.25c-2.92-1.21-.85-4.67,1-5,3.96-.7,3.92,5.21-1,5ZM51.62,72.75c-3.11-2.24,1.43-5.11,2.75-5.25,3.84-.42,3.55,5.42-2.75,5.25ZM64.88,58c9.54,3.99,5.74,11.11-1.88,2.62-.15-1.4.62-2.16,1.88-2.62ZM65.88,105.5c11.24,6.54.41,11.06-1.88,1.62l1.88-1.62ZM76,145.13c-4.72,3.17-11.3-3.41-6.38-4.12.66-.1,7.78,1.31,6.38,4.12ZM71.12,161.25c-3.38-2.38,2.08-5.14,3-5.25,3.54-.43,3.94,4.85-3,5.25ZM66,151.88c-.17,1.02-11.45,16.09-12.25,16.75-2.29,1.86-6.05-1.56-5.75-3.75.15-1.07,11.58-17.12,12.62-17.38,2.35-.57,5.66,2.7,5.38,4.38ZM70.25,189.88c.13,6.17-10.9-1.34-5.62-3.88,1.75-.33,4.4,2.82,5.62,3.88ZM51,197.75c.44-.8,1.68-1.47,2.5-1.75,2.15-.72,3.34-.4,3.5,2.12-3.9,4.78-7.59,2.49-6-.38ZM52.38,173.25c3.97-.66,3.9,5.04-1,5-2.8-.92-1.15-4.64,1-5ZM62.38,244.75c-3.96,1.7-7.59-4.47-3.5-5,2.3-.3,6.1,2.89,3.5,5ZM64,212.38c-.16.95-7.83,16.56-8.5,17.25-1.31,1.34-6.52-1.36-6.5-2.5,1.77-2.86,7.83-18.75,10.38-19.12,2.54.15,5.09,1.55,4.62,4.38ZM71,239.13c-2.15,4.6-10.77-4.07-4.88-5.62.67.02,5.52,4.32,4.88,5.62ZM68.88,179.75c-5.22.4-.8-6.75.5-7,4.38-.31,1.1,6.64-.5,7ZM78.5,227.63c-1.26,1.56-6.45-.02-6.5-2-.02-.91,5.56-16.45,6-17.25.51-.92.9-1.25,1.88-1.62,2.1-.22,4.79.81,4.62,3.38-.07,1.11-5.41,14.31-6,17.5ZM89.88,110c1.79-.11,5.9,1.41,5.88,3.38-1.87,3.6-11.37,23.92-12.25,25-1.67,2.06-6.5-2.12-6.5-3,1.58-2.95,11.5-24.98,12.88-25.38ZM88.62,89.5l1.75.25c4.26,8.68-8.6,6.4-1.75-.25ZM96.88,128.5c2.58-.02,3.78,9.82-.25,8.5-1.21-.4-3-8.48.25-8.5ZM88.12,223.5c-2.26-1.68-1.81-4.71.5-6,4.17-.91,3.23,6.93-.5,6ZM93.5,196.63c-.22,1.16-5.15,4.19-6.75,1.5-.48-.81-5.31-17.06-5.25-18,.08-1.16,3.47-2.79,4.38-2.88,1.17-.11,1.72-.12,2.38.88.53.8,5.43,17.55,5.25,18.5ZM93.5,172.88c-1.24,2.14-6.8.59-7-1.25,1.92-5.2,1.47-18.71,5.62-19.12,1.53-.24,4.11,1.08,4.38,2.62.16.89-2.55,16.97-3,17.75ZM97.88,180.25c2.38-.28,4.53,7.64,1.5,8-2.76.33-4.5-7.11-1.5-8ZM145.25,133.88c.02,1.09-4.49,2.81-5.38,3.62-1.69-1.79-11.17-16.59-11.38-17.62-.41-2.08,3.2-3.73,4.88-4.38.42.36,1,.24,1.62.88.71.72,8.45,15.17,10.25,17.5ZM141.38,109.25c2.47-.58,4.68,5.19,2.5,6.75-2.86.97-5.77-4.51-2.5-6.75ZM151.12,39.5c2.46-.52,5.49,2.89,2,5-2.29.56-5.69-3.05-2-5ZM151.25,55.88c-1.7,1.91-10.5-2.12-5.62-4.88,1.83.29,8.02,2.17,5.62,4.88ZM154.75,110.38c-1.28-2.95,3.07-5.07,3.62-5.12.26-.03.8-.05,1,0,.95.25,11.66,12.7,13.38,14.38.09.84-4.09,4.77-5.12,4.38-1.74-2.19-12.5-12.76-12.88-13.62ZM168,161.38c.46.81,3.76,17.32,3.75,18.25-.02,2.2-4.1,2.8-5.88,2.88-.79-2.38-4.38-17.9-4.38-18.88,0-1.64,1.8-3.49,3.38-3.62.98-.09,2.62.48,3.12,1.38ZM164.88,90.75c3.97-1.08,3.56,9.49-.5,7.25-1.38-.76-1.38-6.34.5-7.25ZM172.5,67.13c-1.86,1.39-12.33,10.8-13.12,11.12-2.04.84-5.36-2.61-5.12-4.62,1.61-1.56,12.52-10.96,13.38-11.12,1.77-.34,5.1,3.63,4.88,4.62ZM157.12,127.25c4.44-.59,3.24,5.83-2.75,4.75-2.62-2.01,1.26-4.55,2.75-4.75ZM155.88,143c2.62-.65,5.87,2.28,4.88,4.88-.36.95-11.97,12.63-12.88,12.62-1.05,0-5.12-2.03-3.88-4.88.35-.79,11.03-12.42,11.88-12.62ZM145.62,179c2.69.68,8.74,2.28,4.75,5.5-2.67-.16-8.95-2.4-4.75-5.5ZM143.88,198.75c-3.16-1.26-.91-5.31,1.75-5.25,3.6.08,2.07,6.08-1.75,5.25ZM105.25,178.38c-.1-1.11,4.87-20.7,5.25-21.75.37-1.01.7-1.96,1.62-2.62,2.24-.05,6.07.71,6.12,3.38.03,1.23-5.15,21.05-6.38,23.62-1.55-.13-6.46-.73-6.62-2.62ZM106.62,211.25c-3.29-.35-4.83-4.24-1.75-6,2.36-.4,5.59,4.56,1.75,6ZM120.38,136.5c-2.73.75-5.62-5.12-2.25-6.5,2.69-.5,5.15,5.03,2.25,6.5ZM119.12,78.75c-2.79-2.02,3.59-5.71,4-5.75,4.62-.5.78,7.59-4,5.75ZM111.12,122c-1.13-2.1-5.18-13.05-4.38-14.62.25-.48,2.6-1.8,3.12-1.88.67-.09,2.1-.09,2.62.38.53.46,4.52,12.55,4.5,13.25-.04,1.35-4.62,3.03-5.88,2.88ZM113.12,151c-3.72,1.75-6.81-3.69-3.25-4.5,3.58-.81,6.1,3.16,3.25,4.5ZM115.5,192.38c.32-.8,13.52-9.36,14.38-9.38,1.36-.02,4.33,3.84,3.88,5.38-1.69,1.35-13.76,9.11-14.62,9.12-1.56.03-4.48-2.98-3.62-5.12ZM129.5,169.13c-.2-3.39-3.84-18.68-3-20.5.33-.71,2.36-1.83,3.12-1.88,1.32-.09,2.68.52,3.12,1.88.3.89,3.31,17.56,3.25,18.5-.11,1.91-6.05,2.86-6.5,2ZM134,104.38c-4.52,3.79-9.94-2.74-5.88-3.62,1.31-.29,7.29,1.28,5.88,3.62ZM119.38,69.5c-2.05.2-4.65-3.18-3.88-5.12.32-.8,13.52-9.36,14.38-9.38,1.44-.02,4.3,3.82,3.88,5.38-1.69,1.31-13.53,9.04-14.38,9.12ZM116.12,86.5c1.04,0,4.38,3.61,3.38,5.88-.36.82-14.51,8.88-15.38,9.12-2.89.81-6.54-3.5-3.75-6,.68-.61,14.84-8.99,15.75-9ZM100.12,198.5c2.63-.7,5.56,4.54,2.75,6.25-2.69.72-6.03-4.26-2.75-6.25ZM111.12,250c-1.13-2.13-5.17-13.01-4.38-14.62.28-.57,2.55-1.79,3.12-1.88.68-.1,1.54.07,2.25,0,.82,1.46,4.9,12.9,4.88,13.62-.04,1.35-4.62,3.03-5.88,2.88ZM103.62,229.5c-2.64.5-4.59-3.49-4.38-4.62.27-1.43,14.59-9.09,16.88-10.38,1.13.04,2.94,4.39,3.62,5.38-1.97,1.28-15.2,9.45-16.12,9.62ZM119.62,207c-3.83-2.01,3.07-5.95,3.5-6,3.78-.46,2.61,6.07-3.5,6ZM133.62,233.5c-8.27,0-8.14-4.28-5.25-4.75,1.94-.31,8.73,1.96,5.25,4.75ZM143.62,244c-2.79.82-5.51-4.97-2-6.75,2.39-.38,4.42,5.6,2,6.75ZM148.38,228.5c-1.24.04-15.06-15.97-17.12-17.88-.46-1.8,2.9-3.82,4.12-4.88.46-.07.85.08,1.25.25,1.12.48,14.29,15.85,16.62,17.88.64.66-4.52,4.61-4.88,4.62ZM149.5,169.13l1.88-1.62c7.93,1.55-.44,9.52-1.88,1.62ZM154.25,201.63c1.65-1.58,12.52-10.96,13.38-11.12,1.52-.3,5.54,3.42,4.62,5.12-2.17,1.3-12.11,10.29-12.88,10.62-2.21.95-5.55-3.07-5.12-4.62ZM164.38,226c-1.42-.76-1.41-6.88.75-7.25,3.63-.62,3.26,9.4-.75,7.25ZM167.62,252c-1.77-2.22-12.49-12.73-12.88-13.62-1.3-3.01,3.21-5.08,3.62-5.12.25-.03.81-.05,1,0,.97.25,12.31,13.02,13.38,14.88-1.14.97-3.76,4.2-5.12,3.88ZM168.12,153.75c-3.05-2.04,1.29-5.08,2.5-5.25,4.46-.61,2.55,5.81-2.5,5.25ZM183.5,101.38c-1.62,1.95-4.08-.93-6.12-1.12l-.38-1.38c2.22-3.14,7.48-18.61,10.88-18.88,1.85-.14,4.76,1.93,4.62,3.88-.07.98-8.37,16.74-9,17.5ZM190.12,117c-4.77.9-6.94-4.82-3.25-5.25,2.12-.25,6.53,2.95,3.25,5.25ZM178,49.38c-.77-1.43.94-3.87,2.38-4.12,5.36-.95,2.15,7.86-2.38,4.12ZM179.38,73.25c-3.06-2.1,2.16-5.11,2.75-5.25,4.96-1.14,3.07,5.7-2.75,5.25ZM192.88,58c.98-.1,6.02,3.23,5.38,4.88-.76,4.21-11.16-2.87-5.38-4.88ZM193.88,105.5c.97-.04,5.6,4.11,5.12,5.62-2.3,4.74-10.41-3.85-5.12-5.62ZM204,145.13c-4.41,3.32-11.42-3.39-6.38-4.12.66-.1,7.78,1.31,6.38,4.12ZM199.12,161.25c-3.22-2.38,1.73-5.13,3-5.25,4.05-.38,3.12,5.19-3,5.25ZM194,151.88c-.18,1.02-11.47,16.07-12.25,16.75-1.94,1.68-6.33-1.38-5.75-4,.23-1.04,11.59-16.88,12.62-17.12,2.51-.58,5.66,2.8,5.38,4.38ZM197.62,192.5c-1.96,1.02-9.9-4.9-4.75-6.5,1.22-.14,8.2,4.7,4.75,6.5ZM182.62,195.5c3.71-.2,2.85,5.7-3,5.25-3-2.16,1.35-5.16,3-5.25ZM180.12,173.25c4.63-1.09,3.88,5.86-1.25,4.75-2.14-1.08-.33-4.38,1.25-4.75ZM182.12,230.25c-1.86-1.28-5.38-1.46-5.12-3.38,2.13-3.16,7.51-18.62,10.88-18.88,1.88-.14,4.81,1.63,4.38,4.38-.15.94-8.14,16.26-8.75,17-.33.4-.8.98-1.38.88ZM190.12,245c-4.37.75-7.06-4.72-3.25-5.25,2.45-.34,6.42,3.09,3.25,5.25ZM192,235.38l1.88-1.88c11.1,6.43.69,11.01-1.88,1.88ZM197.38,172.75l1.88.62c.8,10.26-9.82,6.87-1.88-.62ZM205.62,228.25c-1.58.19-5.58-.63-5.62-2.62-.02-.94,5.74-16.96,6.25-17.75.41-.64,1.01-.81,1.62-1.12,1.49-.32,4.32.75,4.62,2.38.25,1.33-5.47,16.74-6.88,19.12ZM217.88,110c.95-.28,6.66,1.77,5.88,3.62-2.19,3.96-11.2,23.49-12.25,24.75-1.66,2-6.5-2.09-6.5-3,0-1.43,11.21-22.51,12.88-25.38ZM216.62,89.5l1.75.25c4.29,8.69-8.79,6.45-1.75-.25ZM224.38,128.75c3.81-.98,3.96,11.08-.25,7.75-1.23-.97-1.94-6.86.25-7.75ZM216.12,223.5c-2.34-1.88-1.96-4.5.5-6,4.51-.5,2.95,6.96-.5,6ZM214.75,198.13c-.47-.8-5.25-16.82-5.25-17.75,0-1.52,3.95-3.05,4.62-3.12.49-.05,1.01.04,1.5,0,.99,2.09,5.86,17.64,5.88,18.62.03,2.38-5.22,4.83-6.75,2.25ZM221.75,172.13c-1.34,3.73-6.81.65-7,0-.25-.86,2.37-16.93,2.75-17.75.19-.41,1.94-1.79,2.38-1.88,1.49-.27,4.08.75,4.38,2.38.16.86-2.21,16.43-2.5,17.25ZM225.88,180.25c2.32-.27,3.02,5.05,3.12,6.62-3.99,4.84-6.58-6.22-3.12-6.62ZM228.12,198.5c2.58-.72,5.58,4.52,2.75,6.25-2.67.77-6-4.2-2.75-6.25ZM233.12,205.25c2.03-.28,5.57,4.63,1.5,6-3.38-.45-4.8-4.21-1.5-6ZM239.12,250c-.74-.28-4.96-13.3-4.62-14.38.16-.53,2.81-2.04,3.38-2.12.7-.1,2.05-.15,2.62.38.52.47,4.52,12.55,4.5,13.25-.04,1.35-4.62,3.03-5.88,2.88ZM251.12,201c4.35-.49,1.46,7.25-4,5.75-2.66-2.29,3.59-5.7,4-5.75ZM243.88,214.5c1.37.07,4.48,5.13,3.25,6-2.22,1.09-14.85,8.86-15.75,9-2.05.31-4.39-3.23-4.12-4.62.29-1.51,14.45-8.85,16.62-10.38ZM240.5,180.38c-1.05,1.6-7.14-.46-7.25-2,1.5-4.34,4.8-21.15,5.5-22.75.32-.74.95-1.23,1.62-1.62,2.1-.08,5.85.82,5.88,3.38.01,1.19-5.1,22.01-5.75,23ZM238.5,121.38c-1.37-6.53-7.33-14.95-.62-15.88.67-.09,2.1-.09,2.62.38.53.46,4.52,12.55,4.5,13.25-.04,1.24-5.66,3.96-6.5,2.25ZM240.25,151.25c-4.83.64-5.52-6.17,0-4.5,3.07.93,2.44,4.18,0,4.5ZM248.38,136.5c-2.82.77-5.66-5.44-2-6.5,2.35-.21,4.95,4.76,2,6.5ZM251.12,73c3.78-.39,2.39,6.29-3.75,6-3.35-2.38,3.29-5.95,3.75-6ZM244.12,86.5c.92.03,3.67,4.57,3.38,5.62-1.89,1.36-15.9,9.68-16.88,9.62-1.04-.06-3.72-3.64-3.38-4.88.27-1.4,14.68-9.07,16.88-10.38ZM246.12,2c2.61-.51,5.36,5.33,2,6.5-2.7.49-5.16-5.3-2-6.5ZM240.25,18.75c2.75.81,2.93,4.19,0,4.5-4.96.52-5.42-6.1,0-4.5ZM238.75,27.88c.34-.78.7-1.34,1.38-1.88,2.14-.12,6.11.73,6.12,3.38,0,1.23-5.22,21.08-6.38,23.62-1.27.17-6.36-1-6.62-2.12,1.16-4.35,4.81-21.4,5.5-23ZM233.12,77.25c2-.28,5.62,4.54,1.5,6-3.33-.43-4.88-4.23-1.5-6ZM230.12,76.25c-3.33-.48-4.96-4.61-1.25-6,2.75.92,4.31,4.49,1.25,6ZM225.88,52.25c2.26-.27,3.15,5.09,3.12,6.62-3.34,4.47-7-4.67-3.12-6.62ZM224.62.75c3-.43,3.52,7.7,1.25,8.25-3.32.8-3.95-7.87-1.25-8.25ZM219.88,24.5c8.24-.91,2.06,12.32,1.62,20.38-1.23,2.28-6.43.25-6.75-.75,1.18-5.04,1.4-18.88,5.12-19.62ZM214.12,49.25c.79-.07,1.55-.02,2.12.62.49,2.82,5.23,17.06,5.25,18,.05,2.58-5.47,4.49-6.75,2.5-.51-.79-5.26-17.06-5.25-18,.01-1.66,4.15-3.08,4.62-3.12ZM206,80.38c.48-.92.92-1.25,1.88-1.62,9.71-.62.22,12.14-1.38,20.62-.96,2.03-6.44.23-6.5-1.75,1.6-3.49,5.43-16.18,6-17.25ZM198.88,33c-2.71-2.06,2.05-5.02,3.75-5,4.09.05,1.42,6.01-3.75,5ZM197.62,13c.7-.1,7.79,1.33,6.38,4.12-5.26,3.07-11.13-3.47-6.38-4.12ZM197.38,44.75c4.16.11,1.42,4.92.12,6.88-5.29.91-2.82-4.95-.12-6.88ZM176,36.63c.22-1.04,11.59-16.88,12.62-17.12,2.47-.58,5.62,2.72,5.38,4.38-.15,1.03-11.45,16.09-12.25,16.75-2.04,1.7-6.29-1.46-5.75-4ZM187.88,127.5c.38.03,5.3,4.23,3.25,6-.74.64-17.06,7.51-18,7.25-.33-.09-3.57-4.36-2-6,.63-.66,15.84-7.32,16.75-7.25ZM170.62,20.5c4.73-.81,2.37,6.46-2.5,5.25-2.68-1.8,1.19-5.03,2.5-5.25ZM165.12,32c.9-.04,2.42.56,2.88,1.38.46.82,3.79,17.56,3.75,18.5-.07,1.77-4.37,2.47-5.88,2.62-.78-2.33-4.41-18.14-4.38-19.12.06-1.63,2.04-3.31,3.62-3.38ZM143.75,27.88c.23-.86,11.5-12.68,12.38-12.88,2.38-.52,5.65,2.45,4.62,4.88-.33.77-10.87,11.76-11.62,12.12-2.31,1.1-5.97-1.85-5.38-4.12ZM144.88,65.5c3.63-.59,4.04,4.76-1,5.25-3.29-.99-.9-4.94,1-5.25ZM136.62,78c1.12.48,14.24,15.88,16.62,17.88.48.96-4.77,4.65-5.12,4.62-1.23-.1-14.68-16.02-16.88-17.88-.46-1.81,2.93-3.77,4.12-4.88.46-.07.85.08,1.25.25ZM129.38,18.5c1.07-.11,2.82.39,3.38,1.38.47.83,3.5,17.8,3.5,18.75,0,2.46-4.32,2.72-6.12,2.88-.96-.34-4.16-18.86-4.12-19.88.06-1.57,1.99-2.98,3.38-3.12ZM118.38,2c2.51-.25,4.84,5.13,2,6.5-2.75.75-5.77-5.3-2-6.5ZM112.5,18.75c2.57.91,2.32,4.16-.25,4.5-5.02.66-5.32-6.48.25-4.5ZM111,27.13l1.38-1.12c2.13-.13,5.85.77,5.88,3.38.01,1.23-5.15,21.05-6.38,23.62-1.54.02-6.49-.75-6.62-2.62-.09-1.19,5.25-20,5.75-23.25ZM103.75,78.13l1.38-.88c9.41,4.56-3.41,10.06-1.38.88ZM102.62,76.75c-2.67.49-5.74-4.77-2.25-6.25,2.8-.56,5.31,5.13,2.25,6.25ZM99.38,60.25c-2.97.33-4.27-7.65-1.5-8,2.35-.3,4.64,7.65,1.5,8ZM96.62.75c2.9-.41,3.41,6.92,1.5,8.25-3.37,1.26-4.38-7.84-1.5-8.25ZM89.5,26.63c.32-.7,1.67-1.99,2.38-2.12,1.56-.29,4.36.97,4.62,2.62.14.89-2.58,16.95-3,17.75-1.14,2.16-6.5.21-6.75-.5-.3-.85,2.38-16.93,2.75-17.75ZM81.75,51.63c.16-.6,3.23-2.3,3.88-2.38.68-.08,2.19.09,2.62.62.63.76,5.5,18.04,5.25,19-.18.7-5.28,3.93-6.75,1.25-.46-.84-5.24-17.57-5-18.5ZM78,80.38c.48-.92.92-1.25,1.88-1.62,9.75-.57.23,12.09-1.38,20.62-1.12,1.95-6.47.43-6.5-1.75,1.63-3.5,5.4-16.12,6-17.25ZM70.88,33c-2.87-2.14,2.23-4.92,3.5-5,3.88-.24,2.67,5.7-3.5,5ZM69.38,13c1.16-.25,9.79,1.91,5.75,5-6.27.59-9.29-4.23-5.75-5ZM69.38,44.75c4.09-.06,1.61,5.38-.25,7-5.05.51-2.06-5.48.25-7ZM48,36.88c.17-1.06,11.58-17.13,12.62-17.38,2.36-.55,5.65,2.51,5.38,4.38-.15,1.03-11.44,16.1-12.25,16.75-2.19,1.76-6.13-1.33-5.75-3.75ZM59.88,127.5c.64.05,4.33,4.03,3.88,5.38-2.01,1.24-17.65,8.15-18.62,7.88-.35-.1-3.84-4.54-1.75-6.25.69-.57,15.61-7.07,16.5-7ZM42.62,20.5c4.19-.57,3.14,5.18-2,5.5-3.55-1.68.22-5.26,2-5.5ZM44.25,51.88c-.12,1.01-5.47,4.85-7,1.5-.41-.91-3.99-18.44-3.5-19.5.28-.61,2.24-1.79,2.88-1.88.85-.12,1.68.07,2.5.25,2.19.93,3.79,16.64,5.12,19.62Z"/><path class="k" d="M243.5,64.38c-.78,2.55,2.44,5.62,4.38,5.12.47-.12,7.07-4.55,8.12-5.25v-8.5c-.68.33-12.28,7.9-12.5,8.62Z"/><path class="k" d="M247.38,197.5c.5-.05,7.66-4.38,8.62-5v-8.75c-.63.31-11.13,7.25-11.62,7.75-2.78,2.81,1.38,6.17,3,6Z"/><path class="g" d="M173.12,12.75c.94.26,17.26-6.61,18-7.25,1.9-1.64-1.52-4.12-2.38-5.5h-2.5l-15.5,7.12c-.86,1.52,2.07,5.54,2.38,5.62Z"/><path class="g" d="M45.12,12.75c.93.26,17.27-6.62,18-7.25,1.94-1.67-1.58-4.07-2.38-5.5h-2.25c-.8.21-14.49,5.98-15.12,6.5-2.09,1.71,1.41,6.15,1.75,6.25Z"/><path class="k" d="M32,0h-4.75c-6.19,3.79,4.63,6.89,4.75,0Z"/><path class="e" d="M159.75,0h-4.5c-5.85,4.75,5.47,6.24,4.5,0Z"/><path class="e" d="M217,255.13c.88-1.72,6.65-12.51,6.75-13.25.36-2.65-3.88-3.58-5.88-3.88-.97.29-8.12,15.73-9.12,17.88-.04.09-.13.12-.21.12h8.18c.07,0,.14,0,.19,0h.09c.09-.17-.09-.71,0-.88Z"/><path class="e" d="M208.25,256h.09s-.09,0-.09,0Z"/><path class="e" d="M95.75,240.63c-.9-1.22-4.59-3.02-5.88-2.62-.97.3-8.37,15.83-9.38,18h8.5c.52-2.82,7.18-13.66,6.75-15.38Z"/><path class="i" d="M.5,246.88c-.18,1.07,4.08,7.57,5,9.12h8.5c-.79-1.4-6.53-11.14-7-11.62-1.96-2.04-5.1.78-6.5,2.5Z"/><path class="i" d="M128.5,246.63c-.34,1.17,4.06,7.79,5,9.38h8.5c-.83-1.46-6.72-11.42-7.25-11.88-1.91-1.62-4.71,1.27-6.25,2.5Z"/><path class="j" d="M8.25,167.63c-.65-3.14-3.02-18.85-3.5-19.75-.86-1.62-3.36-1.5-4.75-.88v14.75c1.93,6.68-.17,10.35,8.25,5.88Z"/><path class="j" d="M8.25,39.63c-.69-3.12-3.01-18.85-3.5-19.75-.84-1.52-3.45-1.43-4.75-.88v14.75c2.01,6.74-.3,10.26,8.25,5.88Z"/><path class="f" d="M5.62,233.5c3.47-2.91-3.51-5.24-5.62-4.5v3.5c.72.38,4.88,1.24,5.62,1Z"/><path class="f" d="M0,101v3.5c7.09,3.84,10.3-3.44,0-3.5Z"/><path class="e" d="M83.5,138.38c.88-1.08,10.38-21.4,12.25-25,.02-1.96-4.09-3.49-5.88-3.38-1.37.39-11.29,22.43-12.88,25.38,0,.88,4.83,5.06,6.5,3Z"/><path class="e" d="M211.5,138.38c1.05-1.26,10.06-20.79,12.25-24.75.79-1.85-4.93-3.91-5.88-3.62-1.66,2.87-12.88,23.95-12.88,25.38,0,.91,4.84,5,6.5,3Z"/><path class="e" d="M118.25,157.38c-.06-2.67-3.89-3.42-6.12-3.38-.92.67-1.26,1.62-1.62,2.62-.38,1.05-5.35,20.64-5.25,21.75.17,1.89,5.08,2.49,6.62,2.62,1.23-2.58,6.4-22.4,6.38-23.62Z"/><path class="e" d="M111.88,53c1.22-2.57,6.39-22.4,6.38-23.62-.03-2.6-3.75-3.5-5.88-3.38l-1.38,1.12c-.5,3.25-5.84,22.06-5.75,23.25.14,1.87,5.08,2.65,6.62,2.62Z"/><path class="e" d="M239.88,53c1.15-2.54,6.38-22.4,6.38-23.62-.01-2.64-3.99-3.5-6.12-3.38-.67.53-1.04,1.1-1.38,1.88-.69,1.6-4.34,18.65-5.5,23,.26,1.12,5.35,2.29,6.62,2.12Z"/><path class="e" d="M240.38,154c-.67.39-1.3.89-1.62,1.62-.7,1.6-4,18.41-5.5,22.75.11,1.54,6.2,3.6,7.25,2,.65-.99,5.76-21.81,5.75-23-.03-2.56-3.77-3.46-5.88-3.38Z"/><path class="j" d="M19.38,100c2,.83,6.89-3.23,5.62-4.88-2.22-1.89-14.99-17.04-16.12-17.38-.18-.05-1.76-.05-2,0-.36.08-4.83,2.52-3.12,5.62.55,1,14.57,16.19,15.62,16.62Z"/><path class="i" d="M136.62,206c-.4-.17-.79-.32-1.25-.25-1.22,1.06-4.58,3.08-4.12,4.88,2.06,1.9,15.89,17.92,17.12,17.88.36-.01,5.52-3.96,4.88-4.62-2.33-2.03-15.5-17.4-16.62-17.88Z"/><path class="i" d="M9.5,206.88c-.65-.55-1.08-1.29-2.12-1.12-1.45,1.3-4.66,3.18-4.12,4.88,2.16,1.87,15.65,17.78,16.88,17.88.34.03,4.82-3.48,5.38-4.12-3.53-3.74-13.48-15.34-16-17.5Z"/><path class="i" d="M135.38,77.75c-1.2,1.11-4.59,3.06-4.12,4.88,2.19,1.86,15.65,17.77,16.88,17.88.36.03,5.61-3.66,5.12-4.62-2.38-1.99-15.5-17.4-16.62-17.88-.4-.17-.79-.32-1.25-.25Z"/><path class="l" d="M53.75,40.63c.81-.65,12.1-15.72,12.25-16.75.28-1.86-3.02-4.92-5.38-4.38-1.05.24-12.46,16.31-12.62,17.38-.38,2.42,3.56,5.51,5.75,3.75Z"/><path class="l" d="M181.75,40.63c.8-.66,12.1-15.72,12.25-16.75.24-1.65-2.91-4.96-5.38-4.38-1.04.24-12.4,16.08-12.62,17.12-.54,2.54,3.71,5.7,5.75,4Z"/><path class="l" d="M60.62,147.5c-1.04.25-12.48,16.31-12.62,17.38-.3,2.19,3.46,5.61,5.75,3.75.8-.66,12.08-15.73,12.25-16.75.28-1.67-3.03-4.95-5.38-4.38Z"/><path class="l" d="M188.62,147.5c-1.04.24-12.39,16.08-12.62,17.12-.58,2.62,3.81,5.68,5.75,4,.78-.68,12.07-15.73,12.25-16.75.28-1.57-2.87-4.96-5.38-4.38Z"/><path class="l" d="M187.88,80c-3.4.26-8.66,15.73-10.88,18.88l.38,1.38c2.04.19,4.51,3.07,6.12,1.12.63-.76,8.93-16.52,9-17.5.14-1.95-2.78-4.02-4.62-3.88Z"/><path class="l" d="M187.88,208c-3.37.25-8.75,15.71-10.88,18.88-.26,1.92,3.26,2.1,5.12,3.38.57.11,1.05-.48,1.38-.88.61-.74,8.6-16.06,8.75-17,.43-2.75-2.49-4.52-4.38-4.38Z"/><path class="i" d="M17.25,133.88c-1.75-2.4-9.55-16.77-10.25-17.5-.55-.57-1.09-.83-1.88-.88-1.57.96-5.07,2.25-4.62,4.38.21,1.03,9.65,15.86,11.38,17.62,1.83-1.31,5.31-2.38,5.38-3.62Z"/><path class="i" d="M133.38,115.5c-1.68.64-5.28,2.3-4.88,4.38.2,1.03,9.68,15.83,11.38,17.62.88-.81,5.39-2.53,5.38-3.62-1.8-2.33-9.54-16.78-10.25-17.5-.63-.63-1.2-.52-1.62-.88Z"/><path class="i" d="M59.38,208c-2.54.38-8.6,16.27-10.38,19.12-.02,1.14,5.19,3.84,6.5,2.5.67-.69,8.34-16.3,8.5-17.25.47-2.83-2.08-4.23-4.62-4.38Z"/><path class="i" d="M59.38,80c-.78.45-1.57.88-2.12,1.62-.6.81-6.79,14.81-8.25,17.75.06.78,5.67,3.78,6.5,2.25.91-2.52,8.34-16.3,8.5-17.25.48-2.89-2.07-4.15-4.62-4.38Z"/><path class="j" d="M130.12,41.5c1.81-.15,6.13-.42,6.12-2.88,0-.95-3.03-17.92-3.5-18.75-.55-.99-2.3-1.49-3.38-1.38-1.39.14-3.31,1.55-3.38,3.12-.04,1.02,3.16,19.53,4.12,19.88Z"/><path class="j" d="M33.75,161.88c-.42,1,3.24,19.11,3.75,20,1.37,2.38,6.68-.57,6.75-2.25-1.09-2.91-3.4-17.54-4-18.5-.62-.99-2.59-1.26-3.62-1.12-.79.1-2.57,1.14-2.88,1.88Z"/><path class="j" d="M36.62,32c-.63.09-2.59,1.26-2.88,1.88-.49,1.06,3.09,18.59,3.5,19.5,1.53,3.35,6.88-.49,7-1.5-1.33-2.99-2.93-18.69-5.12-19.62-.82-.18-1.65-.37-2.5-.25Z"/><path class="j" d="M85.88,177.25c-.91.08-4.3,1.71-4.38,2.88-.06.94,4.77,17.19,5.25,18,1.6,2.69,6.53-.34,6.75-1.5.18-.95-4.72-17.7-5.25-18.5-.66-1-1.21-.98-2.38-.88Z"/><path class="j" d="M221.5,67.88c-.02-.94-4.76-15.18-5.25-18-.58-.65-1.33-.7-2.12-.62-.48.04-4.61,1.46-4.62,3.12,0,.94,4.74,17.21,5.25,18,1.28,1.99,6.8.08,6.75-2.5Z"/><path class="j" d="M214.12,177.25c-.67.07-4.63,1.6-4.62,3.12,0,.93,4.78,16.95,5.25,17.75,1.53,2.58,6.78.13,6.75-2.25-.01-.98-4.88-16.53-5.88-18.62-.49.04-1.01-.05-1.5,0Z"/><path class="j" d="M93.5,68.88c.25-.96-4.62-18.24-5.25-19-.44-.53-1.94-.71-2.62-.62-.64.08-3.72,1.77-3.88,2.38-.24.93,4.54,17.66,5,18.5,1.47,2.68,6.57-.55,6.75-1.25Z"/><path class="e" d="M104.12,101.5c.86-.24,15.01-8.3,15.38-9.12,1-2.27-2.33-5.88-3.38-5.88-.91,0-15.07,8.39-15.75,9-2.79,2.5.86,6.81,3.75,6Z"/><path class="f" d="M136,167.13c.06-.94-2.95-17.61-3.25-18.5-.45-1.35-1.81-1.96-3.12-1.88-.76.05-2.79,1.16-3.12,1.88-.84,1.82,2.8,17.11,3,20.5.45.86,6.39-.09,6.5-2Z"/><path class="i" d="M159.38,233.25c-.19-.05-.75-.03-1,0-.41.05-4.93,2.12-3.62,5.12.39.9,11.11,11.41,12.88,13.62,1.36.33,3.98-2.9,5.12-3.88-1.06-1.85-12.4-14.62-13.38-14.88Z"/><path class="i" d="M44.75,119.63c-1.72-1.67-12.42-14.13-13.38-14.38-.2-.05-.74-.03-1,0-.56.06-4.9,2.18-3.62,5.12.39.9,11.11,11.41,12.88,13.62,1.03.4,5.21-3.54,5.12-4.38Z"/><path class="i" d="M31.38,233.25c-.27-.07-.69.05-1,0-2.02.87-4.75,2.53-3.62,5.12.46,1.06,11.12,11.32,12.88,13.62.95.3,5.22-3.44,5.12-4.38-1.71-1.69-12.42-14.13-13.38-14.38Z"/><path class="i" d="M172.75,119.63c-1.72-1.68-12.42-14.13-13.38-14.38-.2-.05-.74-.03-1,0-.56.06-4.9,2.18-3.62,5.12.37.86,11.14,11.43,12.88,13.62,1.03.4,5.21-3.54,5.12-4.38Z"/><path class="f" d="M161.5,163.63c0,.97,3.59,16.5,4.38,18.88,1.78-.08,5.85-.68,5.88-2.88,0-.93-3.29-17.44-3.75-18.25-.5-.89-2.14-1.46-3.12-1.38-1.57.14-3.37,1.98-3.38,3.62Z"/><path class="i" d="M96.5,155.13c-.27-1.54-2.84-2.87-4.38-2.62-4.16.42-3.7,13.93-5.62,19.12.2,1.84,5.76,3.39,7,1.25.45-.78,3.16-16.86,3-17.75Z"/><path class="i" d="M93.5,44.88c.42-.8,3.14-16.86,3-17.75-.27-1.65-3.07-2.91-4.62-2.62-.71.13-2.06,1.42-2.38,2.12-.37.82-3.05,16.9-2.75,17.75.25.71,5.61,2.66,6.75.5Z"/><path class="f" d="M171.75,51.88c.04-.94-3.29-17.68-3.75-18.5-.46-.81-1.97-1.41-2.88-1.38-1.59.07-3.57,1.75-3.62,3.38-.03.98,3.59,16.79,4.38,19.12,1.51-.16,5.8-.86,5.88-2.62Z"/><path class="i" d="M219.88,152.5c-.44.08-2.19,1.47-2.38,1.88-.38.82-3,16.89-2.75,17.75.19.65,5.66,3.73,7,0,.29-.82,2.66-16.39,2.5-17.25-.29-1.62-2.89-2.65-4.38-2.38Z"/><path class="i" d="M221.5,44.88c.43-8.05,6.62-21.28-1.62-20.38-3.73.75-3.94,14.58-5.12,19.62.32,1,5.52,3.03,6.75.75Z"/><path class="f" d="M78.5,99.38c1.6-8.54,11.13-21.19,1.38-20.62-.95.37-1.39.71-1.88,1.62-.6,1.13-4.37,13.75-6,17.25.03,2.18,5.38,3.7,6.5,1.75Z"/><path class="f" d="M79.88,206.75c-.98.38-1.37.71-1.88,1.62-.44.8-6.02,16.34-6,17.25.05,1.98,5.24,3.56,6.5,2,.59-3.19,5.93-16.39,6-17.5.17-2.56-2.52-3.59-4.62-3.38Z"/><path class="f" d="M206.5,99.38c1.6-8.49,11.08-21.25,1.38-20.62-.95.37-1.39.71-1.88,1.62-.57,1.07-4.4,13.76-6,17.25.06,1.98,5.54,3.78,6.5,1.75Z"/><path class="f" d="M207.88,206.75c-.61.32-1.22.49-1.62,1.12-.51.79-6.27,16.81-6.25,17.75.05,2,4.04,2.81,5.62,2.62,1.4-2.39,7.12-17.8,6.88-19.12-.3-1.63-3.13-2.69-4.62-2.38Z"/><path class="i" d="M227.25,96.88c-.34,1.23,2.33,4.82,3.38,4.88.97.06,14.99-8.26,16.88-9.62.3-1.05-2.46-5.59-3.38-5.62-2.19,1.3-16.61,8.97-16.88,10.38Z"/><path class="i" d="M116.12,214.5c-2.28,1.29-16.6,8.95-16.88,10.38-.22,1.14,1.73,5.13,4.38,4.62.92-.18,14.15-8.34,16.12-9.62-.69-.99-2.49-5.34-3.62-5.38Z"/><path class="i" d="M227.25,224.88c-.27,1.39,2.08,4.94,4.12,4.62.9-.14,13.53-7.91,15.75-9,1.23-.87-1.88-5.93-3.25-6-2.18,1.53-16.34,8.87-16.62,10.38Z"/><path class="g" d="M45.12,140.75c.98.27,16.62-6.64,18.62-7.88.45-1.35-3.23-5.33-3.88-5.38-.89-.07-15.81,6.43-16.5,7-2.09,1.71,1.4,6.15,1.75,6.25Z"/><path class="g" d="M173.12,140.75c.94.26,17.26-6.61,18-7.25,2.05-1.77-2.87-5.97-3.25-6-.91-.07-16.12,6.59-16.75,7.25-1.57,1.64,1.67,5.91,2,6Z"/><path class="e" d="M32.75,147.88c1.08-2.67-2.31-5.62-4.88-4.88-.83.24-11.53,11.83-11.88,12.62-1.24,2.85,2.82,4.87,3.88,4.88.98,0,12.53-11.78,12.88-12.62Z"/><path class="e" d="M147.88,160.5c.91,0,12.51-11.68,12.88-12.62.99-2.6-2.26-5.52-4.88-4.88-.84.21-11.53,11.83-11.88,12.62-1.24,2.85,2.82,4.87,3.88,4.88Z"/><path class="i" d="M21.12,32c1.4-2.14,11-11.15,11.38-11.88,1.47-2.82-2.05-5.65-4.38-5.12-.87.2-12.09,12.03-12.38,12.88-.77,2.32,3.29,5.26,5.38,4.12Z"/><path class="i" d="M149.12,32c.76-.36,11.3-11.35,11.62-12.12,1.03-2.43-2.24-5.4-4.62-4.88-.87.19-12.15,12.01-12.38,12.88-.59,2.27,3.06,5.22,5.38,4.12Z"/><path class="i" d="M159.38,206.25c.77-.33,10.7-9.33,12.88-10.62.91-1.7-3.1-5.42-4.62-5.12-.85.17-11.72,9.54-13.38,11.12-.42,1.55,2.92,5.58,5.12,4.62Z"/><path class="i" d="M31.38,206.25c.79-.34,11.31-9.66,13.12-11.12.25-1.14-3.57-5.01-4.62-4.88-.88.11-12.01,9.95-13.62,11.38-.42,1.55,2.92,5.58,5.12,4.62Z"/><path class="i" d="M39.62,62.5c-.85.17-11.8,9.57-13.38,11.12-.49,1.77,3.13,5.14,4.62,4.88.85-.15,11.38-9.8,13.38-10.88.91-1.7-3.1-5.42-4.62-5.12Z"/><path class="i" d="M167.62,62.5c-.85.17-11.76,9.56-13.38,11.12-.24,2.01,3.08,5.47,5.12,4.62.8-.33,11.27-9.73,13.12-11.12.22-1-3.11-4.97-4.88-4.62Z"/><path class="k" d="M129.88,55c-.86.01-14.06,8.58-14.38,9.38-.78,1.95,1.83,5.33,3.88,5.12.85-.08,12.69-7.82,14.38-9.12.42-1.55-2.43-5.4-3.88-5.38Z"/><path class="k" d="M119.12,197.5c.86-.02,12.93-7.78,14.62-9.12.46-1.53-2.51-5.39-3.88-5.38-.86.01-14.06,8.58-14.38,9.38-.86,2.15,2.06,5.16,3.62,5.12Z"/><path class="j" d="M109.88,233.5c-.58.09-2.84,1.3-3.12,1.88-.8,1.62,3.24,12.5,4.38,14.62,1.25.15,5.83-1.52,5.88-2.88.02-.73-4.06-12.17-4.88-13.62-.71.07-1.57-.1-2.25,0Z"/><path class="j" d="M237.88,233.5c-.57.08-3.21,1.59-3.38,2.12-.33,1.07,3.89,14.09,4.62,14.38,1.25.15,5.83-1.52,5.88-2.88.02-.7-3.98-12.78-4.5-13.25-.57-.52-1.92-.48-2.62-.38Z"/><path class="j" d="M245,119.13c.02-.7-3.97-12.79-4.5-13.25-.53-.46-1.96-.47-2.62-.38-6.71.93-.75,9.35.62,15.88.84,1.71,6.46-1.01,6.5-2.25Z"/><path class="j" d="M109.88,105.5c-.52.07-2.88,1.4-3.12,1.88-.81,1.57,3.25,12.53,4.38,14.62,1.25.15,5.83-1.52,5.88-2.88.02-.7-3.97-12.79-4.5-13.25-.53-.46-1.96-.47-2.62-.38Z"/><path class="k" d="M199,111.13c.47-1.51-4.16-5.67-5.12-5.62-5.28,1.77,2.83,10.37,5.12,5.62Z"/><path class="k" d="M65.88,105.5l-1.88,1.62c2.29,9.43,13.11,4.91,1.88-1.62Z"/><path class="k" d="M193.88,233.5l-1.88,1.88c2.57,9.13,12.97,4.55,1.88-1.88Z"/><path class="k" d="M66.12,233.5c-5.89,1.56,2.72,10.23,4.88,5.62.65-1.3-4.2-5.61-4.88-5.62Z"/><path class="f" d="M197.62,192.5c3.45-1.8-3.53-6.64-4.75-6.5-5.15,1.6,2.79,7.52,4.75,6.5Z"/><path class="f" d="M64.88,58c-1.25.46-2.02,1.22-1.88,2.62,7.61,8.48,11.41,1.37,1.88-2.62Z"/><path class="f" d="M75.12,18c4.04-3.09-4.59-5.25-5.75-5-3.54.77-.52,5.59,5.75,5Z"/><path class="f" d="M197.62,141c-5.05.73,1.97,7.44,6.38,4.12,1.41-2.81-5.71-4.22-6.38-4.12Z"/><path class="f" d="M204,17.13c1.41-2.8-5.67-4.22-6.38-4.12-4.76.66,1.11,7.2,6.38,4.12Z"/><path class="f" d="M69.62,141c-4.93.72,1.66,7.29,6.38,4.12,1.41-2.81-5.71-4.22-6.38-4.12Z"/><path class="e" d="M225.88,9c2.27-.55,1.75-8.68-1.25-8.25-2.7.38-2.07,9.05,1.25,8.25Z"/><path class="e" d="M98.12,9c1.91-1.33,1.4-8.66-1.5-8.25-2.88.41-1.87,9.51,1.5,8.25Z"/><path class="e" d="M224.12,136.5c4.21,3.33,4.06-8.73.25-7.75-2.19.89-1.48,6.78-.25,7.75Z"/><path class="f" d="M96.62,137c4.03,1.32,2.83-8.52.25-8.5-3.25.02-1.46,8.1-.25,8.5Z"/><path class="e" d="M64.62,186c-5.27,2.54,5.76,10.04,5.62,3.88-1.22-1.06-3.87-4.21-5.62-3.88Z"/><path class="e" d="M198.25,62.88c.65-1.64-4.4-4.97-5.38-4.88-5.78,2,4.61,9.08,5.38,4.88Z"/><path class="e" d="M225.88,52.25c-3.88,1.95-.21,11.1,3.12,6.62.02-1.53-.86-6.89-3.12-6.62Z"/><path class="k" d="M151.25,55.88c2.4-2.7-3.79-4.58-5.62-4.88-4.88,2.76,3.93,6.79,5.62,4.88Z"/><path class="f" d="M128.38,228.75c-2.89.47-3.02,4.75,5.25,4.75,3.48-2.79-3.31-5.06-5.25-4.75Z"/><path class="e" d="M97.88,52.25c-2.77.35-1.47,8.33,1.5,8,3.14-.35.85-8.3-1.5-8Z"/><path class="e" d="M229,186.88c-.1-1.58-.8-6.9-3.12-6.62-3.46.41-.86,11.47,3.12,6.62Z"/><path class="e" d="M247.38,79c6.14.29,7.53-6.39,3.75-6-.46.05-7.1,3.62-3.75,6Z"/><path class="k" d="M17.62,179c-4.18,3.13,2.1,5.28,4.75,5.5,4.17-2.99-2.12-4.89-4.75-5.5Z"/><path class="k" d="M145.62,179c-4.2,3.1,2.08,5.34,4.75,5.5,3.99-3.22-2.06-4.82-4.75-5.5Z"/><path class="e" d="M97.88,180.25c-3,.89-1.26,8.33,1.5,8,3.03-.36.88-8.28-1.5-8Z"/><path class="k" d="M23.25,55.88c2-3.08-3.31-4.23-5.62-4.88-4.77,2.95,4.01,6.73,5.62,4.88Z"/><path class="e" d="M251.12,201c-.41.05-6.66,3.46-4,5.75,5.46,1.5,8.35-6.24,4-5.75Z"/><path class="e" d="M123.12,201c-.43.05-7.33,3.99-3.5,6,6.11.07,7.28-6.46,3.5-6Z"/><path class="e" d="M123.12,73c-.41.04-6.79,3.73-4,5.75,4.78,1.84,8.62-6.25,4-5.75Z"/><path class="e" d="M128.12,100.75c-4.06.89,1.35,7.41,5.88,3.62,1.41-2.34-4.56-3.91-5.88-3.62Z"/><path class="f" d="M164.88,90.75c-1.88.91-1.88,6.49-.5,7.25,4.06,2.24,4.47-8.33.5-7.25Z"/><path class="f" d="M37.12,218.75c-2.29.57-2.04,6.5-.75,7.25,3.8,2.2,4.62-7.96.75-7.25Z"/><path class="f" d="M165.12,218.75c-2.16.37-2.17,6.49-.75,7.25,4.01,2.15,4.38-7.87.75-7.25Z"/><path class="k" d="M69.12,51.75c1.86-1.62,4.34-7.06.25-7-2.31,1.52-5.3,7.51-.25,7Z"/><path class="f" d="M38.12,98.25c1.9-.53,2.13-8.16-1-7.5-2.37.41-2.69,8.65,1,7.5Z"/><path class="k" d="M197.5,51.63c1.3-1.96,4.03-6.77-.12-6.88-2.7,1.92-5.16,7.79.12,6.88Z"/><path class="k" d="M69.38,172.75c-1.3.25-5.72,7.4-.5,7,1.6-.36,4.88-7.31.5-7Z"/><path class="k" d="M197.38,172.75c-7.95,7.5,2.67,10.89,1.88.62l-1.88-.62Z"/><path class="k" d="M13.38,109.25c-3.36,2.24-.22,8.78,3.38,6.12.59-1.75-.98-6.74-3.38-6.12Z"/><path class="k" d="M13.38,237.25c-3.28,2.25-.34,7.73,2.5,6.75,2.27-1.34-.1-7.42-2.5-6.75Z"/><path class="f" d="M118.12,130c-3.37,1.38-.48,7.25,2.25,6.5,2.9-1.47.44-7-2.25-6.5Z"/><path class="k" d="M143.88,116c2.18-1.56-.03-7.33-2.5-6.75-3.27,2.24-.36,7.72,2.5,6.75Z"/><path class="e" d="M186.88,111.75c-3.69.43-1.52,6.15,3.25,5.25,3.28-2.3-1.13-5.5-3.25-5.25Z"/><path class="f" d="M120.38,8.5c2.84-1.37.51-6.75-2-6.5-3.77,1.2-.75,7.25,2,6.5Z"/><path class="f" d="M102.88,204.75c2.81-1.71-.12-6.95-2.75-6.25-3.28,1.99.06,6.97,2.75,6.25Z"/><path class="f" d="M230.88,204.75c2.83-1.73-.17-6.97-2.75-6.25-3.25,2.05.08,7.02,2.75,6.25Z"/><path class="f" d="M179.38,73.25c5.82.45,7.71-6.39,2.75-5.25-.59.14-5.81,3.15-2.75,5.25Z"/><path class="f" d="M246.38,130c-3.66,1.06-.82,7.27,2,6.5,2.95-1.74.35-6.71-2-6.5Z"/><path class="f" d="M248.12,8.5c3.36-1.17.61-7.01-2-6.5-3.16,1.2-.7,6.99,2,6.5Z"/><path class="e" d="M58.88,111.75c-3.88.5-1.07,6.1,3.25,5.25,3.1-2.07-.72-5.58-3.25-5.25Z"/><path class="e" d="M186.88,239.75c-3.81.53-1.12,6,3.25,5.25,3.17-2.16-.8-5.59-3.25-5.25Z"/><path class="f" d="M100.38,70.5c-3.49,1.48-.42,6.74,2.25,6.25,3.06-1.12.55-6.81-2.25-6.25Z"/><path class="e" d="M141.62,237.25c-3.51,1.78-.79,7.57,2,6.75,2.42-1.15.39-7.13-2-6.75Z"/><path class="f" d="M202.12,156c-1.27.12-6.22,2.87-3,5.25,6.12-.06,7.05-5.63,3-5.25Z"/><path class="f" d="M74.12,156c-.92.11-6.38,2.87-3,5.25,6.94-.4,6.54-5.68,3-5.25Z"/><path class="e" d="M179.62,200.75c5.85.45,6.71-5.45,3-5.25-1.65.09-6,3.09-3,5.25Z"/><path class="e" d="M58.88,239.75c-4.09.53-.46,6.7,3.5,5,2.6-2.11-1.2-5.3-3.5-5Z"/><path class="f" d="M74.38,28c-1.27.08-6.37,2.86-3.5,5,6.17.7,7.38-5.24,3.5-5Z"/><path class="e" d="M40.62,26c5.14-.32,6.19-6.07,2-5.5-1.78.24-5.55,3.82-2,5.5Z"/><path class="f" d="M198.88,33c5.17,1.01,7.84-4.95,3.75-5-1.7-.02-6.46,2.94-3.75,5Z"/><path class="e" d="M168.12,25.75c4.87,1.21,7.23-6.06,2.5-5.25-1.31.22-5.18,3.45-2.5,5.25Z"/><path class="e" d="M170.62,148.5c-1.21.17-5.55,3.21-2.5,5.25,5.05.56,6.96-5.86,2.5-5.25Z"/><path class="e" d="M42.62,148.5c-1.47.24-5.7,3.94-1.75,5.5,5.44-.84,5.43-6.1,1.75-5.5Z"/><path class="e" d="M154.38,132c5.99,1.08,7.19-5.34,2.75-4.75-1.49.2-5.37,2.74-2.75,4.75Z"/><path class="e" d="M26.38,132c5.81,1.23,7.17-5.13,3-4.75-1.59.15-5.69,2.67-3,4.75Z"/><path class="e" d="M105.12,77.25l-1.38.88c-2.03,9.19,10.79,3.69,1.38-.88Z"/><path class="e" d="M234.62,83.25c4.12-1.46.5-6.28-1.5-6-3.38,1.77-1.83,5.57,1.5,6Z"/><path class="k" d="M218.38,89.75l-1.75-.25c-7.04,6.7,6.04,8.94,1.75.25Z"/><path class="e" d="M104.88,205.25c-3.08,1.76-1.54,5.65,1.75,6,3.84-1.44.61-6.4-1.75-6Z"/><path class="e" d="M234.62,211.25c4.07-1.37.53-6.28-1.5-6-3.3,1.79-1.88,5.55,1.5,6Z"/><path class="k" d="M216.62,217.5c-2.46,1.5-2.84,4.12-.5,6,3.45.96,5.01-6.5.5-6Z"/><path class="k" d="M90.38,89.75l-1.75-.25c-6.85,6.65,6.01,8.93,1.75.25Z"/><path class="k" d="M88.62,217.5c-2.31,1.29-2.76,4.32-.5,6,3.73.93,4.67-6.91.5-6Z"/><path class="k" d="M109.88,146.5c-3.56.81-.47,6.25,3.25,4.5,2.85-1.34.33-5.31-3.25-4.5Z"/><path class="d" d="M230.12,76.25c3.06-1.51,1.5-5.08-1.25-6-3.71,1.39-2.08,5.52,1.25,6Z"/><path class="e" d="M143.88,70.75c5.04-.49,4.63-5.84,1-5.25-1.9.31-4.29,4.26-1,5.25Z"/><path class="k" d="M15.88,70.75c4.75.19,5.27-5.63,1-5-2.52.37-3.69,3.91-1,5Z"/><path class="k" d="M143.88,198.75c3.82.83,5.35-5.17,1.75-5.25-2.66-.06-4.91,3.99-1.75,5.25Z"/><path class="k" d="M16.88,193.75c-2.45.38-3.79,3.93-1,5,4.45.39,5.34-5.67,1-5Z"/><path class="e" d="M180.38,45.25c-1.43.25-3.15,2.7-2.38,4.12,4.52,3.74,7.74-5.08,2.38-4.12Z"/><path class="h" d="M52.38,45.25c-1.85.33-3.92,3.79-1,5,4.92.21,4.96-5.7,1-5Z"/><path class="e" d="M52.38,173.25c-2.15.36-3.8,4.08-1,5,4.9.04,4.97-5.66,1-5Z"/><path class="e" d="M180.12,173.25c-1.58.37-3.39,3.67-1.25,4.75,5.13,1.11,5.88-5.84,1.25-4.75Z"/><path class="e" d="M151.38,167.5l-1.88,1.62c1.44,7.89,9.81-.07,1.88-1.62Z"/><path class="e" d="M153.12,44.5c3.49-2.11.46-5.52-2-5-3.69,1.95-.29,5.56,2,5Z"/><path class="e" d="M25.12,44.5c3.41-2.03.52-5.53-2-5-3.67,1.93-.32,5.55,2,5Z"/><path class="e" d="M23.12,167.5l-1.38,1.12c-.05,8.52,10.33.49,1.38-1.12Z"/><path class="e" d="M51.62,72.75c6.3.17,6.59-5.67,2.75-5.25-1.32.14-5.86,3.01-2.75,5.25ZM53.62,68.25l.62.12c.37,6.31-5.33,2.61-.62-.12Z"/><path class="k" d="M240.25,23.25c.12-.42-.27-.6-.25-.62.18-.25,1.61.43.25-3.88-5.42-1.6-4.96,5.02,0,4.5Z"/><path class="k" d="M112.25,23.25c1.6-3.09-.93-3.25.25-4.5-5.57-1.98-5.27,5.16-.25,4.5Z"/><path class="k" d="M240.75,150.13c.03-.18-.53-2.62-.5-3.38-5.52-1.67-4.83,5.14,0,4.5-.48-1.03.44-.72.5-1.12Z"/><path class="e" d="M57,198.13c-.16-2.53-1.35-2.85-3.5-2.12,2.87,2.68-2.71,6.53-2.5,1.75-1.59,2.87,2.1,5.15,6,.38Z"/><path class="e" d="M53.5,196c-.82.28-2.06.95-2.5,1.75-.21,4.78,5.37.93,2.5-1.75Z"/><path class="k" d="M240.75,150.13c-.06.4-.98.09-.5,1.12,2.44-.32,3.07-3.57,0-4.5-.03.76.53,3.19.5,3.38Z"/><path class="k" d="M112.25,23.25c2.57-.34,2.82-3.59.25-4.5-1.18,1.25,1.35,1.41-.25,4.5Z"/><path class="k" d="M240,22.63s.37.2.25.62c2.93-.31,2.75-3.69,0-4.5,1.36,4.31-.07,3.63-.25,3.88Z"/><path class="e" d="M53.62,68.25c-4.71,2.74.99,6.43.62.12l-.62-.12Z"/><path class="c" d="M0,161.75v12.61c.11-4.38.25-8.8,0-12.61Z"/><path class="c" d="M0,33.75v12.6c.11-4.39.25-8.82,0-12.6Z"/><path class="k" d="M5.75,60.38c-.65-2.97-2.29-6.31-5.75-4.62v8.5c.84-.56,5.59-3.35,5.75-3.88Z"/><path class="k" d="M5.75,188.38c-.69-3-2.25-6.34-5.75-4.62v8.75c.73-.47,5.66-3.78,5.75-4.12Z"/><path class="c" d="M47.03,0h-15.03c3.98.31,9.55.13,15.03,0Z"/><path class="c" d="M155.25,0h-13.25c4.42-.02,8.83.02,13.25,0Z"/><path class="c" d="M208.54,0h-.2c.06,0,.12,0,.2,0Z"/><path class="c" d="M78.03.05c.82,0,1.64-.02,2.47-.04h-8.39c.33,0,.66.01.99.02,1.65.02,3.29.04,4.94.03Z"/><path class="e" d="M217,0h-.09s.09.01.09,0Z"/><path class="e" d="M205.66,5.52c-.2.51-.33.94-.38,1.33-.03.19-.03.37-.02.55.05.69.43,1.23,1.22,1.81.79.58,1.98,1.2,3.65,2.06,1.57.04,5.49-9.4,6.38-11.12.05-.09.13-.12.21-.12h-8.18c-.07,0-.14,0-.2,0h-.09c-.71,1.52-1.33,2.75-1.81,3.76-.32.67-.59,1.25-.78,1.76Z"/><path class="e" d="M77.07,8.03c.16.22.53.52,1.01.84.12.08.25.16.38.25,1.06.67,2.42,1.4,3.2,1.85.19.11.35.21.46.28,1.8.08,5.04-9.45,6.88-11.25h-8.5c-.52,1.12-3.62,7.28-3.5,7.88,0,.05.03.1.07.15Z"/><path class="i" d="M11.62,9.5l5.62-3.38c-.6-.98-1.13-2.01-1.66-3.05-.52-1.04-1.03-2.08-1.59-3.08H5.5c.68,1.15,5.57,9.41,6.12,9.5Z"/><path class="i" d="M135.11,2.7c.15.26.32.52.48.79.33.54.67,1.11,1.02,1.66.17.28.34.55.51.82.34.54.67,1.06.97,1.52.76,1.16,1.36,1.98,1.53,2.01l5.62-3.12c.04-.11-.23-.7-.62-1.48-.16-.31-.33-.66-.52-1.01-.19-.36-.38-.73-.58-1.09-.1-.18-.19-.36-.29-.54-.29-.53-.56-1.02-.78-1.42-.22-.4-.39-.7-.47-.84h-8.5c.13.22.4.68.77,1.3.24.41.53.89.84,1.4Z"/></svg>