<?xml version="1.0" encoding="UTF-8"?><svg id="a" xmlns="http://www.w3.org/2000/svg" viewBox="0 0 256 256.01"><defs><style>.b{fill:none;}.b,.c,.d{stroke-width:0px;}.c{fill:#88cbeb;}.d{fill:#ffabbb;}</style></defs><path class="b" d="M256,35.25c-.17-.16-.62-.57-1.13-1.02.51.46.96.86,1.13,1.02Z"/><path class="c" d="M16.89,256h24.11c-8.04-.04-16.07-.02-24.11,0Z"/><path class="c" d="M43.5,256h4c-1.33.03-2.67-.04-4,0Z"/><path class="c" d="M226.5,256h14.75c-1.83-.25-11.14,0-14.75,0Z"/><path class="c" d="M80.19,256h16.56c-4.75-.21-10.62-.12-16.56,0Z"/><path class="d" d="M205.75,256h5c-1.94-2.82-3.63-4.8-5,0Z"/><path class="c" d="M99.88,249.75c-.22.21-.4.41-.54.62-.14.21-.25.42-.34.63-.31.75-.38,1.55-.75,2.54-.27.71-.7,1.51-1.49,2.46h4.5c.91-2.14,2.31-6.31-1.38-6.25Z"/><path class="d" d="M47.5,256h11c-6-.4-10.46-2.9-11,0Z"/><path class="c" d="M256,177.04v-2.04c0,.55,0,1.24,0,2.04Z"/><path class="c" d="M256,138.28v-25.28c-.02,8.43-.01,16.86,0,25.28Z"/><path class="d" d="M253,32.38c.05.18,1.03,1.09,1.87,1.85.51.46.96.86,1.13,1.02v-6c-1.58-.58-3.34,1.81-3,3.12Z"/><path class="d" d="M256,231.25v-6.5c-.3,2.14-3.6,6.07,0,6.5Z"/><path class="c" d="M241.25,256c-.61-1.48.35-2.01.5-2.25.73-1.15,2.01-2.08,3-3,1.74-1.62,2.93-4.83,5.5-1.88,1.02,1.21-4.45,6.51-5.25,7.12h11v-24.75c-3.6-.43-.3-4.36,0-6.5v-47.71c0-.8,0-1.49,0-2.04v-36.72c-.01-8.43-.02-16.86,0-25.28-1.34,2.02-3.47,3.97-4.88,6-6,.4,2.73-10.84,4.88-11v-3.5c-.61,2.65-3.04-.56-3.75-1.88-2.46-4.52,1.93.18,3.75,1.62v-15c-.83.11-13.43-5.39-8.38-8,.4-.86,7.99,3.24,8.38,3.5v-21.25c-1.73-.83-4.61-5.06,0-1.75v-26.5c-.17-.16-.62-.57-1.13-1.02-.84-.76-1.83-1.67-1.87-1.85-.34-1.32,1.42-3.71,3-3.12V0h-11c-2.85,2.18-3.19.08-3.75,0h-30.5c1.52,2.22,2.68,4.91,4.25,7.12-3.78,6.74-7.65-3.78-9.25-7.12h-104.5c-1.12,2.65-4.47,6.85-7.5,4.38-.97-2.15,1.52-2.6,3-4.38h-16.56c-7.94.16-16,.38-21.69,0,2.27.56,3.32,1.7,1.38,3.5-.64.2-13.06-1.17-12.38-3.5h-4c-.67.02-.78.5-.88.5-.57,0-.82-.12-1-.25-.09-.06-.17-.12-.26-.17-.09-.05-.2-.08-.36-.08h-24.11C11.26.01,5.63.02,0,0v29.25c.58.21,8.58,7.96,8.5,8.62-2.06,3.82-6.48-.69-8.5-2.62v26.5c1.49,1.07,3.86,3.61,0,1.75v21.25c.75.51,1.24.98,1.54,1.41.3.43.41.83.39,1.18,0,.12-.03.23-.06.34-.22.75-1,1.26-1.52,1.47-.15.06-.27.1-.36.11v18.75c3.25.74,1.14,3.28,0,5v25.28c.01,11.99.03,23.98,0,35.97.42-.4.66-1.01,1.25-1.25.77-.32,6.34,1.79,6.62,2,1.09.79,1.36,3.31-1.38,3-.75-.08-1.33-.54-2-.75-1.59-.5-3.48-.75-4.5-2.25v2.04c.02,11.28.32,45.39,0,47.71,5.48-3.09,3.3,6.89,0,6.5v24.75h16.89c8.04-.02,16.07-.04,24.11,0-.45-3.37,2.94-3.24,2.5,0,1.33-.04,2.67.03,4,0,.54-2.9,5-.4,11,0h21.69c5.94-.12,11.82-.21,16.56,0,.79-.95,1.22-1.75,1.49-2.46.38-.99.44-1.8.75-2.54.09-.21.2-.42.34-.63.14-.21.32-.41.54-.62,3.69-.06,2.28,4.11,1.38,6.25h104.5c1.37-4.8,3.06-2.82,5,0h13c-1.71-1.45-4.31-2.8-2.5-5.25l1-.75c1.03-1.54,5.39,2.22,5.5,2.62.37,1.36-.81,2.23-1.25,3.38,3.61,0,12.92-.25,14.75,0ZM252.88,96.75c4.01-.04.96,5.29-.88,1.12l.88-1.12ZM240.12,234.5c-.57-1.85-2.81-9.21,0-9.75,3.2-.71,2.06,4.91,3.62,8.38l-3.62,1.38ZM241.88,177.5c.63-.64,5.96,4.13,6.62,4.88-.22.4-7.63-3.85-6.62-4.88ZM239.12,125h1.5c.67.21,4.66,10.29-.25,8.75-.79-.25-4.44-7.84-1.25-8.75ZM238,96.38l1.12-1.38c6.44.98-.16,7.53-1.12,1.38ZM241.38,175.25c1.77.24-2.18,6.76-3.38,3.12l3.38-3.12ZM244.75,168.75c-.13-.67-.55-5.89-.5-6.25.1-.74.83-1.73,1.5-2,4.2-1.69,2.38,4.92,3.25,8.88-.17.87-3.41,3.57-4.25-.62ZM253.62,222.75h-1.4c-.09.11-.3.1-.72,0-1.7.21-1.12-10.99.5-11.25,3.78-2.88,2.39,7.1,1.62,11.25ZM249.5,186.12l.12-.62c7.1.19,6.39,2.18-.12.62ZM250.88,153.25c-2.33.95-5.01-1.72,1-6.5,5.94-.09-.48,6.29-1,6.5ZM248.5,123.25c3.19-5.14,6.28-4.94,1.75-1,4.15-.49-7.52,8.55-6.75,4.88,1.78-1.16,3.35-2.55,5-3.88ZM246.62,39l-.25-.75c8.45,1.6,9.42,3.99.25.75ZM252.88,3.75l1.12.88c-.3,3.52-4.61.61-1.12-.88ZM252.12,28.75c2.42-.06-.16,2.9-.5,3-.52.16-6.65.37-6.88-.12-.78-.89,6.96-2.86,7.38-2.88ZM243,56c.58-.44,1.46-2.58,3.5-.38.65,1.7-4.42,7.24-6.12,6.88-2.63-1.61-.75-2.79-.62-3,.75-1.33,2.05-2.59,3.25-3.5ZM242.75,35.88c-.36,1.51-1.86,1.8-3.12,1.62-1.05-1.85-7.39-11.78-2.75-12.25,2.45-.57,3.57,7.03,5.88,10.62ZM232.12.5h1c.89.16,6.34,9.01,3.5,10-2.31.81-8.72-9.23-4.5-10ZM229,162.12c-.12-1.14.72-1.86,1.62-2.38,2.01-1.22,7.73,11.08,4.25,11-1.3,1.73-5.82-8.07-5.88-8.62ZM231.75,184.88c-2.13,5.52-6.34,3.87-1.12-.38l1.12.38ZM232.88,149.25c-3.31-3.74-8.05-5.88-3-8.5,1.15-.08,10.94,8.23,3,8.5ZM168.5,121.62c-2.85,5.06-4.21.07-6.5-4-1.33-2.37-4.57-4.52-1.38-6.12,3.72-.79,6.43,7.64,7.88,10.12ZM169,110.75c-.79.5-1.36.29-2-.25-1.66-4.57,5.31-2.65,2,.25ZM165.75,130.75c1.45-.12,1.92,1.62,0,2.25-1.66.12-1.59-1.77,0-2.25ZM171.38,124.25l1.12.38c1.39,3.04-12.47,6.21-1.12-.38ZM168.5,69.62l.38-.88c11.41,5.72,10.33,8.15-.38.88ZM174.62,64.75l1.38.62c.38,3.61-5.05,1.56-1.38-.62ZM176.62,146l.38.62c-6.82,10.34-7.49,7.75-.38-.62ZM175.12,180c4.34.4-.17,5.49-.38,8.12-6.18,3.16-1.53-7.85.38-8.12ZM179.62,77.5c.69.08-.41,6.7-1.25,7-2.31.82-2.58-3.79,1.25-7ZM184.62,108c-1.68.47-3.11-.45-2.38-2.5.31-.86,4.45-8,5.75-7.5,4.95.35-2.77,9.83-3.38,10ZM187,140.12l.88-.62c4.27.37-1.01,4.71-.88.62ZM180.5,63.88c-1.26-4.45-5.32-8.29-1.62-9.88,1.58-1.37,5.34,7.37,5.38,7.88.13,1.62-2.21,3.67-3.75,2ZM179.38,72.75h1.25c3.02,2.8-4.48,3.35-1.25,0ZM179.12,93h1.25c3.58,4.19-4.46,4.07-1.25,0ZM177.5,129c.21-.71,4.53-5.85,5.25-6.25,1.76-.98,3.08-.11,2.75,1.62-.09.45-4.9,6.26-5.88,6.88-1.53.07-2.6-.67-2.12-2.25ZM181.88,142c4.23-1.6,1.75,7.62.25,8-5.33.74-1.37-7.67-.25-8ZM183.38,162.25c.58-.06,10.93,1.49,10.88,3.12.97,3.46-11.08.47-11.62.12-1.44-.92-.89-3.08.75-3.25ZM188.5,212.5c2.77-.79.79,11.08-2,8.5-2.37.02-.43-9.42,2-8.5ZM192.25,192.5c6.52,2.87,2.76,7.83-1.75,3.5-2.67-2.56-.05-4.05,1.75-3.5ZM193.12,130.75c.81-.14,10.46,4.43,11.88,5.38.35,1.18-.77,2.7-1.88,2.88-.88.14-16.81-5.51-10-8.25ZM195.88,56.5c.84,1.94,5.15,10.42,4.38,11.88-2.43,1.98-2.97,1.44-4.25-.88-.23-.41-3.71-8.16-3.75-8.62-.05-.55.31-.92.5-1.38.64-1.25,1.94-1,3.12-1ZM195.75,49.12l1.62-1.12c5.32,1.67-2.09,6.29-1.62,1.12ZM202.12,82.25c-5.99.58.58-8.41,1.75-8.5,5.13.22-.95,8.32-1.75,8.5ZM204.12,27h1.5c3.46,4.15-3.92,4.31-1.5,0ZM195.88,86.75c1.73.37,2.62,4.26,4.12,6.88.74,1.28,5.25,3.97-1.12,5.12-2.26-2.5-8.85-10.69-3-12ZM193.62,107.5c-1.37-.78,1.76-2.96,2-3,2.65-.45.86,3.05-2,3ZM203.12,109c4.91-.22-.7,7.17-1.75,9.25-5.89.59.17-7.48,1.75-9.25ZM209.62,149.25c5.3,2.63-4.24,5.82-6,7.75-7.31-1.96,3.79-5.85,6-7.75ZM207.62,180.5c1.57-.45,10.36,5.84,8.38,7.38l-1.38,1.12c-1.35.57-9.01-4.73-8.62-6.38l1.62-2.12ZM213.75,172.25c-1.14-.71-1.62-3.49-2-5-.33-1.33-.95-4.77-1-6-.18-4.65,3.24-4.76,4-2.88,0,6.76,5.09,16.67-1,13.88ZM209.88,136c-4.27-3.63,4.29-4.61,8.75-7.25,7.74,2.12-7.9,7.47-8.75,7.25ZM232.5,84.88c.34,1.44-1.46,2.81-2.88,2.88-4.04-3.94-12.97-8.5-7.75-11.25,2.12-.43,8.52,6.86,10.62,8.38ZM229.62,72.5h1c2.29,3.22-3.51,3.22-1,0ZM222.62,96.75c3.84-.74,3.32,2.68-1.5,6.5-6.8-.89.68-6.34,1.5-6.5ZM218.38,82l.38.62c-4.26,3.82-5.52,2.37-.38-.62ZM215.12,96.75c5.25-1.1-.53,6.33-1.5,7.75-5.91.27.07-7.45,1.5-7.75ZM211.88,118.5c.66.5-1,4.51-2.5,4.5-1.76-1.22,1.03-2.78,2.5-4.5ZM220.25,116.12c1.82-1.78,8.35-9.6,9-4.62,8.64-1.07,2.91-.02-.25,1.75-3.41,1.91-8.32,7.74-8.75,2.88ZM233.75,130c-.71.77-1.75-1.25-.25-2.25,2.9-2.04,2.7,2.72.25,2.25ZM233.88,65.25l.38.38c-4.2,4.77-4.83,3.16-.38-.38ZM228.75,48.12l.38-.62c5.72,3.89,4.56,6.18-.38.62ZM230.62,10.5l.12.62c-6.66,2-7.5.32-.12-.62ZM224.88,56.25c6.58,1.71-4.31,5.7-6.5,7.25-5.55-2.62,3.26-5.08,6.5-7.25ZM220.5,46.12c-.44,3.8-3.56,10.38-7.75,6.25-.56-1.08-.02-1.02.25-1.62.33-.72,2.55-3.41,3.25-4.25.48-.58,1.3-4.09,4.25-.38ZM210.88,23.25c1.43-.4,7.81,7.12,7.88,8.62-.69,1.23-1.65,2.07-3.12,1.38-3.48-4.58-9.69-7.39-4.75-10ZM213.38,57.5l.62.62c-7.49,8.71-7.9,5.46-.62-.62ZM206.12,24.5c-1.72.47-8.1-4.05-4.25-6.25,1.27-.34,8.6,3.77,4.25,6.25ZM200.38,8.25c9.44,5.2,6.64,7.14-.38.88l.38-.88ZM194.88,38c.56,0,9.01,4.15,10.12,4.88.45,6.37-8.91-.55-11.88-1.38-1.39-1.53.49-3.51,1.75-3.5ZM190.75,49.62l.88-.62c5,.98-1.71,5.85-.88.62ZM188.25,4.5c.63-.38,2.98-3.31,3.25,1.12-3.48,2.62-9.35,8.42-10,4.62-.43-1.19,5.05-4.72,6.75-5.75ZM185.12,11.75l.62.38c-4.53,4.83-7.92,2.91-.62-.38ZM174.12,36.25c2.56,1.62,11.57,7.55,4,8.75-3.65-3.62-9.68-6.21-4-8.75ZM168,47.62l1.12-1.12c5.33-.03.13,6.03-1.12,1.12ZM160.62,69.5c-2.44-.07-3.18-.93-1.88-3,.85-1.35,2.39-2.38,3.5-3.5.98-.98,2.85-4,4.25-4,5.77,2-3.16,6.84-5.88,10.5ZM165.75,8.5c.67-.87,1.36-4.49,4.25-.62-.59,2.74-4.72,8.44-6,3.62-.29-.77,1.19-2.27,1.75-3ZM161.75,30.75c.17-.58.89-1.38,1.25-2,1.63-2.82,5.61-9.79,7.75-6.62,1.58.75-5.79,10.59-6.38,10.88-1.71.85-3.17-.35-2.62-2.25ZM158.12,37.75c2.71-.94,3.24,5.79,7.62,10.12-4.56,7.14-12.4-9.12-7.62-10.12ZM159.5,94.75c2.14-1.14,4.23-2.4,6.25-3.75,1.82-1.22,2.3-3.73,5-.88.98,3.14-12.16,11.36-14,7.5-1.25-2.61,2.46-2.72,2.75-2.88ZM165.62,144c7.6,1.38-5.79,7.06-8,9-6.07-2.38,3.63-5.74,8-9ZM171.25,169.38c.05,1.29-2.28,2.62-3.38,2.12-1.65-2.7-7.52-8.83-1.75-10,1.11.07,5.11,7.4,5.12,7.88ZM160.75,177.38c-2.32,3.77-6.65,1.7-.88-.62l.88.62ZM134.88,175l.88.38c-.37,7.28-5.57,4.29-.88-.38ZM130.75,149c.38-.77,1.28-.8,2-.75,3.01.22,4.07,4.07,1.38,5-2.83.98-5.6-3.09-3.38-4.25ZM134,126.12c.42-2.18,1.15-11.21,3.62-11.62.98-.03,1.79.37,2.38,1.12-.97,3.22-1.14,15.24-6,10.5ZM138.12,145.5c5.52.12-.25,6.83-.88,1.12l.88-1.12ZM134.75,90.75c-1.22.51-1.44,1.28-3,.12-1.42-2.33.63-2.75.75-2.88,1.35-1.33,12.72-8.83,11.25-3.38-.22.81-7.79,5.62-9,6.12ZM125.88,102.5c4.39-1.47,1.13,8.73.25,9-4.82.26-2.77-7.12-.25-9ZM121.88,74c1.02-.38,6.33,6.76,3.75,6-1.42-2.25-5.05-5.04-3.75-6ZM132,74.38c-1.31,1.01-3.37,1.9-4-.25-.21-.73-2.36-15.09.38-14.62,3.9-1.48,2.78,9.5,3.62,14.88ZM126.62,27v-1.25c5.23.55,5.96,3.14,0,1.25ZM128.38,99.5h1.5c2.66,4.22-5.2,4.24-1.5,0ZM128.75,77.88l.88-.62c4.24.95-.77,5.21-.88.62ZM137.75,75.62l1.12-.88c3.65,1.14-1.15,4.38-1.12.88ZM144.12,100.5l.62.38c-4.34,4.75-6.58,3.67-.62-.38ZM144.25,88.88l2.62-3.38c1.27-.38-1.91,5.6-2.62,3.38ZM147.88,103l.88.38c-3.74,4.34-5.68,3.41-.88-.38ZM142.75,166.12c.15-.59,3.8-3.29,4.5,1.62,2.22.49,2.25,1.34.25,2.25-.06,2.77-1.36,11.86-5.75,8.12,2.97-9.03.85-11.4,1-12ZM144.62,154c.9.12,5.22,3.97,5.12,4.38-.3,1.26-4.75-3.07-5.12-4.38ZM147,144.38l1.38-1.38c5.22.52-.28,5.67-1.38,1.38ZM147.62,140c-6.99-.39,1.94-6.97,3.75-9.25,7.42.96-1.99,6.7-3.75,9.25ZM151,79c-.39.79-1.88.34-2-.5-1.26-3.64,5.38-1.62,2,.5ZM153.62,176.75h1.25c3.72,4.13-5.3,3.45-1.25,0ZM145.88,6c2.15,1.47,12.79,2.07,8.5,5.75-.94.42-15.22-2.65-8.5-5.75ZM139.38,30.25c2.29-.68,2.88,3.02,4.62,6.12.87,1.55,3.11,3.55,3,4.5-3.5,6.57-9.67-6.97-9.75-7.75-.13-1.37,1.01-2.39,2.12-2.88ZM140,56.38l-1.5.88c-1.01.94-5.86-5.82-6-6.25-.43-1.28-.09-1.61.88-2.5,1.61-1.14,7.64,6.68,6.62,7.88ZM127.88,12.75c2.08-.42,4.95,4.33,7.12,6.38-.48,1.53-1.79,2.4-3.38,2.12-1.6-2.27-7.83-6.49-3.75-8.5ZM127.88,38.5c2.49.89-3.36,9.4-4.75,11-6.12.59.98-8.88,2.5-11.25l2.25.25ZM121.5,1.25c.85,1.66-.89,2.9-2.5,2-2.31-2.01,1.01-4.53,2.5-2ZM109.88,18.5c2.59-1.07,6.93,7.4,10.12,10.62.11,1.95-1.69,3.43-3.62,2.62-3.33-4.58-11-11.03-6.5-13.25ZM112.38,161.5l.62.38c-8.3,6.19-10.63,5.26-.62-.38ZM107.38,147h1c3.14,3.23-4.13,3.26-1,0ZM111.88,179.75c5.76.59-.23,7.2-1.62,1.62l1.62-1.62ZM111.5,145c-.8-.94-5.58-12.07-5.75-13.25-.43-3.1,3.12-3.78,4.25-2.12.45.65,4.22,12.62,5.75,14.75.15,2.48-4.08,3.89-4.25.62ZM115.25,113.88c-.92,1.44-3.3.56-3.75-.25-.37-.67-.17-14.48,2.38-14.62,4.53-1.1,1,9.01,1.38,14.88ZM105.5,54.38c-.2-1.37.81-2.23,1.88-2.88,1.55-.58,7.67,5.5,7.38,6.88-2.9,4.47-6.59-2.29-9.25-4ZM103.5,120.12l.62-.88c5.58,3.35,1.23,7.68-.62.88ZM105.38,190.25c.58-.13,11.3.6,11.62,1.62,1.61,3.99-12.5,2.46-13,.25-.1-.7.76-1.74,1.38-1.88ZM116.38,216.25c4.74,2.12-1.26,6.41-1.62,1.12l1.62-1.12ZM114.38,86.5c-.66-.48.99-10.05,3.25-10l1.88.88c-1.76,6.15-.47,10.81-5.12,9.12ZM104.88,31.75c.78-.5,4.98,4.82,5.5,5.75-1.54,1.64-6.1-5.37-5.5-5.75ZM101.25,83.62l1.38-1.12c4.58,1.29-1.22,6.05-1.38,1.12ZM68.38,137c-1.65-.33-2.27-3.12-.25-3.75.58-.18,11.4-1.24,12-1.25,4.94-.09,3.21,3.14,1.5,3.75-.63.22-12.6,1.38-13.25,1.25ZM76.75,146.75c.03,1.36-1.63,2.24-2.75,1.25-2.14-2.87,2.7-3.84,2.75-1.25ZM63.5,166.25c-1.87-1.58-2.15-7.29-1.75-9.75.86-5.32,4.24-5.15,4.75-3.62-1.94,9.11,3.43,16.69-3,13.38ZM63,215.25c-1.17-1.9,1.79-3.26,2.75-1.5,1.13,2.06-2.22,3.55-2.75,1.5ZM31.5,181.62c.03-.3,1.31-2.03,1.62-2.12,2.53-.87,5.36,7.77,9.62,10.88-1.55,8.23-11.35-7.58-11.25-8.75ZM33.75,216.88l.88-.88c4.95.72-.72,5.7-.88.88ZM25,189.5c-3.91,4.12-6.07,1.78,0-1.5.15-2.42-.47-5.14,3.12-3.75,1.73,1.35.99,10.2-.62,11-.01,2.84-3.06,1.7-3.25,1.12-.08-.24.29-5.08.75-4.62.01-.7-.03-1.59,0-2.25ZM15.62,166.75c-4.26-3.35,6.82-9.15,7.5-9.25,1.9-.27,2.77.78,2.62,2.62-2.43,1.92-8.58,7.43-10.12,6.62ZM15.75,171.12l.38-.62c5.7,4.07,4.13,7.79-.38.62ZM26.75,38.88c-3.06,3.27-4.74.23-6.25-2.62-1.36,1.67-4.16,1.33-3-2,.48-1.38.85-1.47,1.25-2,3.35-4.5,5.39-2.15,4,.25,1.27.86,4.97,5.2,4,6.38ZM41.25,94.38c.34.57,1.83.12,1.5,2.25-4.76,4.42-4.59-2.66-5.12-2.88-.27-.11-2.14,3.58-4.62-.12.26-5.2,3.58-3.24,3.88-3.38.31-.14.07-2.43,2-3.25,3.45-.35.44,4.12,2.38,7.38ZM41.5,40.38l3.88-2.88c2.49.27-4.92,6.86-3.88,2.88ZM39.5,115.12l.88-.62c5.3,2.26-1.8,6.35-.88.62ZM26.88,133.25c-.77-.18-3.34,1.51-4.38-1.38-.14-1.26,1.51-3.46,2.88-3.62,1.1-.13,9.08,4.4,8.12,6.38-3.09,4.14-5.46-1.1-6.62-1.38ZM31.38,160.75c2.77,3.71-5.19,3.75-1.5,0h1.5ZM26.62,147.25l1.25.25c2.67,5.03-5.74,3.2-1.25-.25ZM30.5,77.38l.38-.88c6.11,3.66,5.4,6.61-.38.88ZM36.5,66.88c-1.82,1.03-13.08,6.6-12,2,.23-1.16,9.57-4.1,10.12-4.12,1.48-.06,2.04.64,1.88,2.12ZM23.38,78.75c1.18-.14,1.86.37,2.38,1.38-1.5,3.34-1.43,14.05-6.25,9.25.4-2.04,1.73-10.24,3.88-10.62ZM20.12,110c2.82.96,15.68.31,10.75,5-2.95-.78-16.05-.76-10.75-5ZM17,123.38l1.12-.88c5.33,1.19-1.43,6.22-1.12.88ZM16.75,99.12l1.12-.88c3.77,1.33-1.32,5.01-1.12.88ZM17,138.38c-2.43,4.23-4.75,3.18-.62-.38l.62.38ZM30.62,202c4.95,1.12-1.57,6.82-3.25,5.75-2.08-2.1,1.27-4.58,3.25-5.75ZM42.38,153.25c-2.14,0-12.06,3.76-11.12-.62-.24-1.17,9.11-2.62,9.62-2.62,3.07-.04,2.58,2.61,1.5,3.25ZM40.38,128.75c-1.69-1.65-.41-1.88-.38-2,.3-1.11,1.64-4,2.25-5,.87-1.43,1.38-3.67,4.25-1.38.18.56-3.62,10.85-6.12,8.38ZM48.12,133c3.1-.52,1.78,4.77,4.38,10.88-4.48,5.2-8.51-10.18-4.38-10.88ZM56.5,112.5c.96-1,2.24-2.95,3.25-3.5,1.99-1.09,3.24,1.14,3,2.12-.14.58-7.55,8.47-8.12,8.62-1.44.39-2.95-.91-2.12-3,.17-.42,3.31-3.54,4-4.25ZM57.12,105.25l1.12.62c1.03,4.72-5.77,1.76-1.12-.62ZM58.5,94.62l1.38-1.12c5.71,1.3-1.45,7.15-1.38,1.12ZM63.62,118.25c4.16.28.23,5.88-1.12,1.38l1.12-1.38ZM55.5,129.62l1.62-1.62c3.74-.52-1.5,6.77-1.62,1.62ZM52.62,68l.38.38c-7.46,12.24-8.58,10.65-.38-.38ZM47.38,103.75l1.62.12c1.85,3.32-4.29,2.87-1.62-.12ZM50.88,155.25c8.52,5.41,8.31,7.65-.25,1l.25-1ZM59.38,175c1.12,3.37,6.88,12.07.12,11.25-.73-.23-2.18-4.87-2.5-6-.83-2.92-2.47-5.13,2.38-5.25ZM67.12,99.5l.38.62c-2.37,4.75-3.77,2.6-.38-.62ZM73.62,83.75c.97-.12,8.58,7.54,5,8.5-2.27,1.88-9.39-7.55-5-8.5ZM74.38,64l.88.38c-1.22,6.9-5.12,3.94-.88-.38ZM79.75,108.62c.15.57.34,11.17.25,11.75-.33,2.04-4.03,3.44-4.5-1.88-.2-2.27-1-10.82,2-11.25.89-.28,2.02.5,2.25,1.38ZM82.88,33.5h1.75c4.94,5.92-6.7,5.56-1.75,0ZM87.62,89c1.61-.03-3.24,4.6-3.62,3.12l3.62-3.12ZM80.75,150.75c1.11-2.6,4.72,1.22,1.5,2.25-1.05.18-2.27-1.65-1.5-2.25ZM88.12,96.5l.38.12c-6.33,8.04-8.21,7.19-.38-.12ZM86.75,75.62c2.03-.94,2.86-4.85,5.25-2.38.54-.58.63-.86.75-1-1.19.17-1.07-.12-1.5-.5-1.89-1.66.53-3.84,2.25-2,.02.03.12.46.5.5,1.18-1.48,4.87-7.76,6.75-4.62.85,1.8-5.15,8.18-7.12,11.38-5.22-.78-1.35-2.47-1.62-3.75-1.39,1.49-1.38,2.98-5.25,2.38ZM97.5,57.75c-.58.47-1.42.15-1.75-.5-1.96-4.61,6.08-2.69,1.75.5ZM99.62,95.25c5.37,2.33-2.74,7.01-6.25,12.25-1.39-.39-2.13-.34-2.62-1.88-.05-.92,7.72-10.37,8.88-10.38ZM97.62,127.5c2.63-.33,3.21,6.11,4.88,8.38.31,1.25-3.17,2.01-3.62,1.88-.74-1.79-4.66-9.7-1.25-10.25ZM100.88,151h1.25c2.74,3.78-4.63,3.08-1.25,0ZM101.62,161.5h.75c3.84,3.62-4.63,3.11-.75,0ZM102.12,7.5c4.44.52-.22,5.38-.88.88l.88-.88ZM93.5,19.88l1.12-.88c2.77-1.12,3.94,5.45,5.12,8.62-.49,1.02-1.61,1.47-2.62,1.38-1-.2-4.74-7.88-3.62-9.12ZM93.62,38.75c1.84-.17,6.22,4.52,7.88,5.88-1.6,7.27-7.34-.84-10.25-3-.29-1.22,1.18-2.76,2.38-2.88ZM87.75,58.88l1.38-1.12c6.56.74-1.65,7.51-1.38,1.12ZM89.88,9.25c.38,2.22-1.62,2.46-3.38,1.75h-6.5l-.75-.12c-.22-2.01,7.12-.85,10.62-1.62ZM72.88,27c3.3-1.58,4.41,9.54,2.5,10.25-3.84,1.43-5.56-9.4-2.5-10.25ZM70.12,8.5l1.38.88c1.04,7.99-5.74,2.79-1.38-.88ZM68.75,53.38c.32-1.5.23-3.76.5-5.38.53-3.14,1.3-4.95,4-1.62-.58,3.45.36,12.12-4,11.62-3.73-1.26-.7-3.68-.5-4.62ZM69.38,74c2.98-.36,2.84,2.55,1.5,3.75-.45.41-10.62,4.68-11.38,3.12l-.5-1.5c.04-1.38,9.78-5.3,10.38-5.38ZM61,20.38c.32-1.36,1.1-7.27,2.12-7.62,5.17-1.8,1.27,10.34,0,11.75-5.48,1.45-2.52-2.47-2.12-4.12ZM55.12,7.25c.91-.77,5.14,5.34,3.75,6-1.08.52-4.35-5.5-3.75-6ZM56,38.25c.64,1.22-.42,2.53-1.75,2.25-3.01-1.58.76-4.93,1.75-2.25ZM53,42.88l.88-.88c7.63.96-1.42,7.7-.88.88ZM50.75,62.88c.43-.84,7.22-2.36,7.62-2.38,3.39-.15,2.59,2.64,1.5,3.25-.7.39-11.64,3.53-9.12-.88ZM48.38,10l.62.62c-6.28,7-7.08,5.93-.62-.62ZM39.88,25.25c3.49-1.31,5.06,8.57,5.88,11.38-4.11,4.44-4.99-5.43-7-10.25l1.12-1.12ZM36.12,54.75c.53.39,3.09,0,2.12,2.38-4.71,4.26-10.27-3.89-11.75-7.88-.69-1.85-.65-3.41,1.75-3.25,2.13.14,3.93,5.87,7.88,8.75ZM21.12,3c.51-.08,9.39,1.75,9.62,2.88.96,4.58-10.18,1.24-11.25-.75-.1-.84,1.12-2.05,1.62-2.12ZM18.12,7.5c2.3-.53,1.97,1.92-1.5,3-1.82-.76,1.3-2.95,1.5-3ZM13.12,54.5c1.5-.31,12.63,6.34,5.5,7.75-2.26-2-10.61-4.47-5.5-7.75ZM11.12,102.75c.46,1.12.18-.95,1.38.88.36,2.08-4.22,2.61-1.38-.88ZM8.75,67.75c.42-3.64,5.44-1.69,2.25.75-1,.6-1.73.19-2.25-.75ZM3,16.5c-2.94-1.44-1.03-3.63-.12-3.75.26-.04,4.61,1.29,5.12,1.5,4.38,1.81,2.45,3.74,1.38,4-.67.16-5.61-1.38-6.38-1.75ZM6.88,126.75c4.92.09-1.03,6.05-1.12,1.12l1.12-1.12ZM3.75,155.88l1.12-1.12c5.42.47-.44,5.74-1.12,1.12ZM8.38,141c-5.81-.76.47-6.59,2.5-8.75,5.69.36-1.11,6.66-2.5,8.75ZM6.12,200.75l1.38.88c.66,6.1-5.64,2.84-1.38-.88ZM12.38,251c-4.32,1.25-7.81-11.16-5-12,4.02-.52,2.82,2.77,3.88,6.12.79,2.53,3.15,4.11,1.12,5.88ZM9.75,200c-.03-.07.03-.18,0-.25-2.76-2.93-3.24-6.09,1.62-6,2.46,4.36,6.53,8.4,3.5,10.25-2.51,1.53-3.67-1.14-5.12-4ZM15.25,215.12l1.62-1.12c4.37,2.06-1.9,5.78-1.62,1.12ZM19,226.62c-.51-1.41,6.95-3.35,7.38-3.38,1.44-.07,2.25.32,2.12,1.88-.2,1.17-9.94,5.42-9.5,1.5ZM25.38,241.5c-4.83-4.16,8.07-4.99,13.5-7.75,7.81,4.22-10.78,7.91-13.5,7.75ZM44.5,222.38c-.14.51-6.85,7-8.12,6.12-3.97-1.31,5.16-8.64,5.75-8.75,1.47-.27,2.78,1.13,2.38,2.62ZM44.12,160.5c3.43-.83,3.88,6.83,6.12,10.12.03,1.49-2.4,1.82-3.38,2.38-1.29-2.27-6.49-11.86-2.75-12.5ZM46,208.38c-.56-3.02,2.64-2.3,5.12-3.38,3.66-1.59,6.9-4.12,10.25-6.25,6.75,2.43-11.87,14.21-15.38,9.62ZM49,224.88l.38-.38c11.57,5.25,9.45,7.45-.38.38ZM47.5,245.75l1.25-1c5.78.49-1.18,5.9-1.25,1ZM59.25,238.38c-1.81,1.94-2.36.14-3.25-.38-.6-.35-2.53-1.02-2.5-1.88,1.85-1.89,7.17-10.39,9.62-9.88,3.86,1.81-.71,5.15-5.88,10.5l2,1.62ZM63.25,242.25c-.4.77-1.36-.39-1.75-1,.63-4.68,5.76.87,1.75,1ZM65.38,232.5c-2.07.1,1.16-3.06,3.5-4l-3.5,4ZM68,223.88l.88-.88c4.48-.01-.81,4.9-.88.88ZM75.38,181.25c.2-1.93.88-2.27,2-3.75.94.2-1.01,3-1.75,4.75-5.41-4.41-4.29-5.99-.25-1ZM74.88,194.75l.88.12c-.47,7.11-5.55,4.33-.88-.12ZM75.88,255.5c-6.15-3.26,5.77-9.99,9.25-11,7.32,2.18-3.88,5.75-9.25,11ZM79.62,230.5c-5.55-3.41,3.69-4.7,6-6.5,6.42,2.47-3.57,5.18-6,6.5ZM81.12,216.75c-5.12-2.78,3.51-5.15,5.75-6.75,6.03,1.74-3.43,5.46-5.75,6.75ZM88.75,193.5c-.03.38,1.1,1.02-.88,2.75-.1.08-.8-.08-.88,0-1.16,1.14-1.73,2.86-2.5,4.25-.15.26-1.09,4.48-3.25,3-1.39-.51.39-2.86.75-3-.74-2.89,2.3-11.4,6.38-9.25,1.43,1.35.61,1.65.62,1.75.06.62-.25.47-.25.5ZM87,157.5c.04-.68,2.1-10.96,3.5-11,1.08-.91,2.92.56,3,1.62.04.56-2.27,10.49-2.5,11-.75,1.64-4.18,1.61-4-1.62ZM91,233.38l2.12-1.38c6.81,3.17-2.55,8.22-2.12,1.38ZM93.5,200.12l1.88-1.38c7.16,1.88-1.49,8.46-1.88,1.38ZM96.38,172.5c1.39-.51,7.63,5.73,7.12,7.12-2.4,5.14-13.42-5.37-7.12-7.12ZM102.62,216.75h1.25c3,3.37-4.33,3.69-1.25,0ZM108.5,231.88c-.41-3.63-5.41-10.12-1.12-10.88,2.95-.04,3.92,7.61,4.88,10.38-.98,1.28-2.56,1.61-3.75.5ZM110.88,204.75h1c3.08,3.36-4.05,3.36-1,0ZM116.12,254.5c-4.69.8-.75-5.85-1.62-8.38-.08-.23-3.07-1.23.62-3.62,4.26-1.3,3.97,11.17,1,12ZM119.38,154.5c4.03-.76,2.68,6.28,3.62,11.62-.26.78-2.93,1.62-3.62,1.12-.74-.41-3.55-12.44,0-12.75ZM122.88,178.75c-.26.16-4.81-3.86-3-4.5.4-.14,3.55,4.17,3,4.5ZM120.88,218.75c.72-.25,2.4.41,2.62,1.12.16.51.88,10.57-1.12,10.12-3.18,1.43-4.24-10.93-1.5-11.25ZM121.38,240.5c-1.23-1.1,2.05-3.9,2.5-4,3.31-.7-.89,4.81-2.5,4ZM124.5,133.62c-.05-1.01,6.13-2.29,7.12-2.88,4.31.44-7.05,4.47-7.12,2.88ZM132.88,253.25l.62.38c-5.91,3.46-9.32,2.06-.62-.38ZM127.5,230.62l.88-.88c5.26.36-.51,6.14-.88.88ZM131.12,205.5c-.46-.28-4.02-8.65-4.38-9.75-.39-1.19-1.21-1.63-.25-3,4.8-4.59,5.97,7.78,8.25,10.62.14,2.16-2.72,2.67-3.62,2.12ZM135.25,225.75c1.38-2.45,4.11-13.05,5.75-14,1.1-1.31,3.19.33,3.25,1.62.04.79-5.01,14.07-6.12,14.38-1.68.12-2.96-.02-2.88-2ZM138.88,251c-5.15,1-1.37-8.52.25-9,4.57-1.35,1.41,6.23-.25,9ZM142.5,235.12l.88-1.38c3.03-.19.97,3.83-.88,1.38ZM144.62,198.5c-5.78-1.22-.51-4.56,1.62-6.5,1.84-1.68,4.27-4.46,6-4,5.02,2.38-3.8,6.4-7.62,10.5ZM152.12,228.5h.75c3.18,3.69-4.5,3.14-.75,0ZM159.88,253.75c-4.49-3.49-11.6-5.7-6.25-8.5,2.58,1.05,13.41,7.66,6.25,8.5ZM164.62,241.5c-.67.37-16.71-1.14-10.5-5,3.12,1.12,14.56.85,10.5,5ZM161,221.88c-3.08-3.84-7.69-5.41-2.62-7.38,2.48-.05,10.59,11.31,11.88,13.88-1.96,6.91-4.94-1.12-9.25-6.5ZM164,200.62l1.88-1.88c2.05-.22,5.69,6.44,10.12,8.88-1.69,7.94-12.5-4.04-12-7ZM176.62,251h.75c6.4,6.11,2.74,6.43-.75,0ZM179,221.62l.88-.88c4.33.99-.57,5.11-.88.88ZM178.12,194c-6.93-.32,2.41-7.81,4.5-9.5,6.02,1.37-3.07,7.07-4.5,9.5ZM191.88,251.25c-3.69-4.37-9.87-7.3-5-10,2.15-.26,5.3,5.14,8.12,7.38.34,1.45-1.89,2.71-3.12,2.62ZM193.88,237c-4.97,1.09-1.72-8.94,0-9.25,4.38-1.01,1.31,8.89,0,9.25ZM206.12,228.5l1.38.88c-.04,4.48-5.6,1.71-1.38-.88ZM205.62,224.5c-3.75-5.9-12.92-12.01-6.5-13.25,2.32,1.68,13.2,12.9,6.5,13.25ZM205.12,207c-1.51.46-2.86-.7-2.38-2.25.15-.46,4.89-7.36,5.5-8,3.08-3.27,4.46-.47,3.75,1.38-.2.52-6.34,8.71-6.88,8.88ZM211.62,200.5c2.49.58,12.57.28,8.75,4.25-4.1-.91-12.79-.53-8.75-4.25ZM221,227.62c-7.78,3.54.57-11.89,1.38-12.12,5.73-.54,0,6.43-1.38,12.12ZM224.88,243c-1.13-.64-5.51-10.83-1.25-11.5,2.74-.45,2.38,3.07,3.12,4.88,1.28,3.11,5.12,8.43-1.88,6.62ZM230.38,203.75l1.25.25c2.59,4.75-5.07,2.8-1.25-.25ZM236.62,209.5l.38.62c-7.59,7.15-8.14,5.89-.38-.62ZM233.38,39.5c.82-.42,3.88,6.04,4.62,6.62-.43,2.13-5.02-6.43-4.62-6.62ZM237.5,200.25c.04-.29,1.23-4.21,1.5-5,.76-2.2,1.34-6.44,4.5-3.62-.81,2.91-2.69,16.79-6.25,9.38.2-.31.2-.42.25-.75Z"/><path class="d" d="M250.25,248.88c-2.57-2.96-3.76.25-5.5,1.88-.26,2.66-.12,4.95-.71,5.25h.96c.8-.62,6.27-5.91,5.25-7.12Z"/><path class="d" d="M241.75,253.75c-.15.24-1.11.77-.5,2.25h2.48c-.4-.15-1.02-.83-1.98-2.25Z"/><path class="d" d="M227.75,252.62c-.11-.4-4.47-4.16-5.5-2.62,3.02,2.99-.92,5.56-1,.75-1.81,2.45.79,3.8,2.5,5.25h2.75c.44-1.15,1.62-2.01,1.25-3.38Z"/><path class="d" d="M41,256h2.5c.44-3.24-2.95-3.37-2.5,0Z"/><path class="d" d="M8.5,37.88c.08-.67-7.92-8.41-8.5-8.62v6c2.02,1.93,6.44,6.45,8.5,2.62Z"/><path class="d" d="M0,224.75v6.5c3.3.39,5.48-9.59,0-6.5Z"/><path class="c" d="M4.5,177.25l-.5-.62c3.26-.09-1.04-.73.25-2.38-.98-.46-2.02-.79-3-1.25-.59.24-.83.85-1.25,1.25v.75c1.02,1.5,2.91,1.75,4.5,2.25Z"/><path class="d" d="M247.62,81.25c-5.06,2.61,7.54,8.11,8.38,8v-4.5c-.39-.26-7.97-4.36-8.38-3.5Z"/><path class="d" d="M251.12,119c1.4-2.03,3.53-3.98,4.88-6v-5c-2.15.16-10.88,11.4-4.88,11Z"/><path class="d" d="M252.25,102.62c.71,1.31,3.14,4.52,3.75,1.88v-.25c-1.82-1.45-6.21-6.14-3.75-1.62Z"/><path class="c" d="M256,63.5v-1.75c-4.61-3.31-1.73.92,0,1.75Z"/><path class="d" d="M215,7.12c-1.57-2.22-2.73-4.91-4.25-7.12h-5c1.6,3.35,5.47,13.87,9.25,7.12Z"/><path class="c" d="M93.75,4.38c3.03,2.48,6.38-1.73,7.5-4.38h-4.5c-1.48,1.77-3.97,2.23-3,4.38Z"/><path class="d" d="M59.88,3.5c1.95-1.8.9-2.94-1.38-3.5h-11c-.68,2.33,11.73,3.7,12.38,3.5Z"/><path class="d" d="M158.38,214.5c-5.06,1.97-.45,3.53,2.62,7.38,4.31,5.38,7.29,13.41,9.25,6.5-1.28-2.56-9.4-13.93-11.88-13.88Z"/><path class="c" d="M61.38,198.75c-3.35,2.13-6.59,4.66-10.25,6.25-2.48,1.08-5.68.36-5.12,3.38,3.5,4.59,22.13-7.19,15.38-9.62Z"/><path class="d" d="M120,29.12c-3.19-3.23-7.54-11.69-10.12-10.62-4.5,2.22,3.17,8.67,6.5,13.25,1.94.81,3.74-.68,3.62-2.62Z"/><path class="d" d="M38.88,233.75c-5.43,2.76-18.33,3.59-13.5,7.75,2.72.16,21.31-3.53,13.5-7.75Z"/><path class="d" d="M165.88,198.75l-1.88,1.88c-.5,2.96,10.31,14.94,12,7-4.44-2.44-8.07-9.09-10.12-8.88Z"/><path class="d" d="M85.12,244.5c-3.48,1.01-15.4,7.74-9.25,11,5.37-5.25,16.57-8.82,9.25-11Z"/><path class="d" d="M28.25,46l-1.75,3.25c1.48,3.99,7.04,12.13,11.75,7.88.97-2.38-1.59-1.98-2.12-2.38-3.94-2.88-5.74-8.61-7.88-8.75Z"/><path class="d" d="M42.75,190.38c-4.27-3.1-7.09-11.74-9.62-10.88-.31.09-1.6,1.82-1.62,2.12-.1,1.17,9.7,16.98,11.25,8.75Z"/><path class="d" d="M147,40.88c.11-.95-2.13-2.95-3-4.5-1.74-3.1-2.34-6.81-4.62-6.12-1.12.49-2.26,1.5-2.12,2.88.08.78,6.25,14.32,9.75,7.75Z"/><path class="d" d="M80.12,132c-.6.01-11.42,1.07-12,1.25-2.02.63-1.4,3.42.25,3.75.65.13,12.62-1.03,13.25-1.25,1.71-.61,3.44-3.84-1.5-3.75Z"/><path class="d" d="M199.12,211.25c-6.42,1.24,2.75,7.35,6.5,13.25,6.7-.35-4.18-11.57-6.5-13.25Z"/><path class="c" d="M165.75,47.88c-4.38-4.33-4.92-11.07-7.62-10.12-4.78,1.01,3.06,17.27,7.62,10.12Z"/><path class="d" d="M38.88,87c-1.93.82-1.69,3.11-2,3.25-.29.13-3.62-1.82-3.88,3.38,2.48,3.71,4.36.02,4.62.12.53.21.37,7.3,5.12,2.88.33-2.13-1.16-1.68-1.5-2.25-1.93-3.26,1.08-7.73-2.38-7.38Z"/><path class="d" d="M223.62,231.5c-4.26.67.12,10.86,1.25,11.5,7,1.81,3.16-3.52,1.88-6.62-.75-1.81-.38-5.32-3.12-4.88Z"/><path class="d" d="M205,136.12c-1.42-.95-11.06-5.52-11.88-5.38-6.81,2.74,9.12,8.39,10,8.25,1.1-.17,2.23-1.69,1.88-2.88Z"/><path class="d" d="M200,93.62c-1.51-2.61-2.4-6.5-4.12-6.88-5.85,1.31.74,9.5,3,12,6.37-1.15,1.87-3.84,1.12-5.12Z"/><path class="c" d="M160.62,111.5c-3.2,1.6.04,3.75,1.38,6.12,2.29,4.07,3.65,9.06,6.5,4-1.45-2.49-4.15-10.92-7.88-10.12Z"/><path class="c" d="M50.25,170.62c-2.24-3.3-2.69-10.96-6.12-10.12-3.74.64,1.46,10.23,2.75,12.5.98-.55,3.4-.88,3.38-2.38Z"/><path class="d" d="M93.38,107.5c3.51-5.24,11.62-9.92,6.25-12.25-1.16,0-8.93,9.45-8.88,10.38.49,1.54,1.23,1.49,2.62,1.88Z"/><path class="d" d="M23.12,157.5c-.68.1-11.76,5.9-7.5,9.25,1.55.81,7.7-4.7,10.12-6.62.14-1.84-.72-2.9-2.62-2.62Z"/><path class="d" d="M138.75,225.38c.71-1.12,3.68-7.62,3.75-8.5.09-1.12-1.32-3.29.25-5l-1.75-.12c-1.64.95-4.37,11.55-5.75,14,3.8,2.36,3.37-.17,3.5-.38Z"/><path class="d" d="M59,79.38l.5,1.5c.75,1.55,10.92-2.72,11.38-3.12,1.34-1.2,1.48-4.11-1.5-3.75-.59.07-10.34,3.99-10.38,5.38Z"/><path class="d" d="M63.12,226.25c-2.45-.52-7.78,7.99-9.62,9.88-.03.86,1.9,1.53,2.5,1.88.16-1.16,1.19-1.19,1.25-1.25,5.17-5.35,9.73-8.69,5.88-10.5Z"/><path class="d" d="M140,115.62c-.58-.76-1.4-1.16-2.38-1.12-2.47.41-3.2,9.45-3.62,11.62,4.86,4.74,5.03-7.28,6-10.5Z"/><path class="c" d="M222.38,215.5c-.8.23-9.16,15.67-1.38,12.12,1.38-5.69,7.1-12.67,1.38-12.12Z"/><path class="d" d="M33.5,134.62c.95-1.98-7.02-6.51-8.12-6.38-1.37.17-3.01,2.36-2.88,3.62,1.04,2.89,3.6,1.19,4.38,1.38,1.17.27,3.53,5.51,6.62,1.38Z"/><path class="d" d="M7.38,239c-2.81.84.68,13.25,5,12,2.03-1.77-.33-3.35-1.12-5.88-1.05-3.36.15-6.65-3.88-6.12Z"/><path class="d" d="M101.5,44.62c-1.66-1.36-6.03-6.05-7.88-5.88-1.19.11-2.66,1.66-2.38,2.88,2.91,2.16,8.65,10.27,10.25,3Z"/><path class="c" d="M236.88,25.25c-4.64.47,1.7,10.4,2.75,12.25,1.26.17,2.77-.11,3.12-1.62-2.3-3.6-3.42-11.19-5.88-10.62Z"/><path class="d" d="M205,42.88c-1.12-.73-9.56-4.87-10.12-4.88-1.26-.01-3.14,1.97-1.75,3.5,2.96.82,12.32,7.74,11.88,1.38Z"/><path class="d" d="M186.88,241.25c-4.87,2.7,1.31,5.63,5,10,1.23.09,3.46-1.17,3.12-2.62-2.82-2.24-5.98-7.64-8.12-7.38Z"/><path class="d" d="M93.62,77c1.98-3.2,7.97-9.58,7.12-11.38-1.88-3.14-5.57,3.15-6.75,4.62-.07.09.28.17-1.25,2-.12.14-.21.42-.75,1,.27,1.28-3.59,2.97,1.62,3.75Z"/><path class="c" d="M45.75,36.62c-.81-2.81-2.38-12.68-5.88-11.38l-1.12,1.12c2.01,4.82,2.89,14.69,7,10.25Z"/><path class="d" d="M215.62,33.25c1.47.7,2.43-.15,3.12-1.38-.06-1.5-6.44-9.02-7.88-8.62-4.94,2.61,1.27,5.42,4.75,10Z"/><path class="d" d="M52.5,143.88c-2.6-6.1-1.27-11.4-4.38-10.88-4.14.7-.11,16.08,4.38,10.88Z"/><path class="d" d="M123.12,49.5c1.39-1.6,7.24-10.11,4.75-11l-2.25-.25c-1.52,2.37-8.62,11.84-2.5,11.25Z"/><path class="d" d="M214.62,189l1.38-1.12c1.98-1.53-6.8-7.83-8.38-7.38l-1.62,2.12c-.39,1.64,7.28,6.94,8.62,6.38Z"/><path class="d" d="M103.5,179.62c.51-1.39-5.73-7.63-7.12-7.12-6.3,1.75,4.73,12.27,7.12,7.12Z"/><path class="c" d="M63.12,24.5c1.27-1.41,5.17-13.55,0-11.75-1.03.36-1.8,6.27-2.12,7.62-.39,1.65-3.35,5.57,2.12,4.12Z"/><path class="c" d="M157.62,153c2.21-1.94,15.6-7.62,8-9-4.37,3.26-14.07,6.62-8,9Z"/><path class="d" d="M214.75,158.38c-.76-1.88-4.18-1.77-4,2.88,1.18-5.07,1.18,1.01,1.5,2.38.14.59,1.48,2.03,1.25,4.62,1.48,1.97.42,2.51.25,4,6.09,2.79.99-7.12,1-13.88Z"/><path class="d" d="M25.75,80.12c-.52-1-1.2-1.51-2.38-1.38-2.14.39-3.47,8.58-3.88,10.62,4.82,4.8,4.75-5.91,6.25-9.25Z"/><path class="d" d="M107.38,221c-4.28.75.72,7.24,1.12,10.88,1.19,1.11,2.77.78,3.75-.5-.95-2.77-1.93-10.42-4.88-10.38Z"/><path class="d" d="M178.12,45c7.57-1.2-1.44-7.13-4-8.75-5.68,2.54.35,5.13,4,8.75Z"/><path class="d" d="M166.12,161.5c-5.77,1.17.1,7.3,1.75,10,1.1.49,3.43-.83,3.38-2.12-.02-.48-4.01-7.8-5.12-7.88Z"/><path class="c" d="M27.5,195.25c1.61-.8,2.36-9.65.62-11-3.59-1.39-2.98,1.33-3.12,3.75-.02.31.02,1.03,0,1.5-.03.66.01,1.55,0,2.25-.04,2.28-1.33,4.56,2.5,3.5Z"/><path class="d" d="M30.88,115c4.93-4.69-7.93-4.04-10.75-5-5.3,4.24,7.8,4.22,10.75,5Z"/><path class="c" d="M153.62,245.25c-5.35,2.8,1.76,5.01,6.25,8.5,7.16-.84-3.67-7.45-6.25-8.5Z"/><path class="c" d="M218.62,128.75c-4.46,2.64-13.02,3.62-8.75,7.25.85.22,16.49-5.13,8.75-7.25Z"/><path class="d" d="M164.38,33c.58-.29,7.95-10.12,6.38-10.88-2.14-3.17-6.12,3.81-7.75,6.62,1.38.98.87,2.09,1.12,2.25,1.73-3,.87,4.32-2.38-.25-.55,1.9.91,3.1,2.62,2.25Z"/><path class="d" d="M115.12,242.5c-3.69,2.39-.71,3.39-.62,3.62.87,2.52-3.07,9.17,1.62,8.38,2.97-.83,3.26-13.3-1-12ZM115.25,247.62l.62-.38c.79,5.29-.34,7.24-.62.38Z"/><path class="d" d="M122.38,230c2,.44,1.29-9.61,1.12-10.12-.22-.71-1.9-1.38-2.62-1.12-2.74.32-1.68,12.68,1.5,11.25Z"/><path class="d" d="M113.25,144.12c.23-.84,1.25-.76,1-1.75-.31-1.2-1.07-.32-1.12-.38-1.97-1.74-2.35-5.03-3.38-7.38-.18-.4-1.22-.44-1.25-.5-.18-.34-.48-8.5-2.75-2.38.17,1.18,4.95,12.31,5.75,13.25,2.89,3.37,1.68-.62,1.75-.88Z"/><path class="d" d="M234.88,170.75c3.48.08-2.24-12.22-4.25-11-.91.52-1.74,1.23-1.62,2.38.06.55,4.58,10.35,5.88,8.62Z"/><path class="d" d="M154.12,236.5c-6.21,3.86,9.83,5.37,10.5,5,4.06-4.15-7.38-3.88-10.5-5Z"/><path class="d" d="M107.38,51.5c-1.07.65-2.08,1.5-1.88,2.88,2.66,1.71,6.35,8.47,9.25,4,.3-1.38-5.82-7.45-7.38-6.88Z"/><path class="d" d="M151.38,130.75c-1.81,2.28-10.74,8.86-3.75,9.25,1.76-2.55,11.17-8.29,3.75-9.25Z"/><path class="d" d="M178.88,54c-3.7,1.58.37,5.42,1.62,9.88,1.54,1.67,3.88-.38,3.75-2-.04-.51-3.8-9.25-5.38-7.88Z"/><path class="c" d="M117,191.88c-.33-1.02-11.04-1.75-11.62-1.62-.61.13-1.47,1.17-1.38,1.88.5,2.21,14.61,3.74,13-.25Z"/><path class="d" d="M143.75,84.62c1.47-5.45-9.9,2.05-11.25,3.38l2.25,2.75c1.21-.51,8.78-5.31,9-6.12Z"/><path class="d" d="M182.62,184.5c-2.09,1.69-11.43,9.18-4.5,9.5,1.43-2.43,10.52-8.13,4.5-9.5Z"/><path class="d" d="M229.88,140.75c-5.05,2.62-.31,4.76,3,8.5,7.94-.27-1.85-8.58-3-8.5Z"/><path class="d" d="M113.88,99c-2.55.14-2.75,13.95-2.38,14.62.45.81,2.83,1.69,3.75.25-.37-5.86,3.16-15.98-1.38-14.88ZM114.5,113.88c-3.09,1.48-.07-9.79-.12-14.12,2.57-.55-.06,9.79.12,14.12Z"/><path class="d" d="M18.62,62.25c7.13-1.41-4-8.06-5.5-7.75-5.11,3.28,3.24,5.75,5.5,7.75Z"/><path class="d" d="M115.75,144.38c-1.53-2.13-5.3-14.1-5.75-14.75-1.13-1.65-4.68-.97-4.25,2.12,2.27-6.13,2.57,2.03,2.75,2.38.03.06,1.07.1,1.25.5,1.02,2.34,1.4,5.64,3.38,7.38.06.05.82-.83,1.12.38.25.99-.77.91-1,1.75-.07.26,1.14,4.24-1.75.88.17,3.26,4.4,1.86,4.25-.62Z"/><path class="d" d="M182.62,165.5c.54.35,12.6,3.34,11.62-.12.05-1.63-10.29-3.19-10.88-3.12-1.64.17-2.19,2.33-.75,3.25Z"/><path class="d" d="M147.5,170s-.5-.19-.5-.38c-.04-2.04.26-1.78.25-1.88-.7-4.91-4.35-2.22-4.5-1.62-.15.6,1.97,2.97-1,12,4.39,3.74,5.69-5.36,5.75-8.12ZM145.62,165.75c1.67-1.4,1.07,13.67-1.38,11.88,1.78-3.84.22-8.03,1.38-11.88Z"/><path class="c" d="M40.88,150c-.52,0-9.86,1.46-9.62,2.62-.93,4.38,8.98.62,11.12.62,1.08-.64,1.57-3.29-1.5-3.25Z"/><path class="d" d="M236.62,10.5c2.84-.99-2.61-9.84-3.5-10h-1c-4.22.77,2.19,10.81,4.5,10Z"/><path class="d" d="M42.12,219.75c-.59.11-9.72,7.44-5.75,8.75,1.27.88,7.99-5.62,8.12-6.12.41-1.49-.91-2.89-2.38-2.62Z"/><path class="c" d="M97.12,29c1.01.1,2.13-.36,2.62-1.38-1.19-3.18-2.36-9.74-5.12-8.62l-1.12.88c-1.12,1.25,2.62,8.93,3.62,9.12Z"/><path class="c" d="M102.5,135.88c-1.67-2.27-2.25-8.71-4.88-8.38-3.41.55.51,8.46,1.25,10.25.45.13,3.93-.62,3.62-1.88Z"/><path class="d" d="M198.88,68.75c-1.84-3.02.17-3.39.12-3.88-.05-.55-3.9-10.08-6.25-7.38-.19.46-.55.83-.5,1.38.04.47,3.52,8.21,3.75,8.62.88.12.76,2.17,2.88,1.25Z"/><path class="d" d="M229.62,87.75c1.42-.07,3.22-1.44,2.88-2.88-2.11-1.51-8.5-8.81-10.62-8.38-5.22,2.75,3.71,7.31,7.75,11.25ZM230.62,84c3.04,1.33-.19,3.91-.62,2.62l.62-2.62ZM222.88,78.5h1c1.63,2.63,5.39,4.54,4.75,8-2.35-2.42-6.43-4.35-5.75-8Z"/><path class="d" d="M30.75,5.88c-.23-1.12-9.12-2.96-9.62-2.88-.5.08-1.72,1.28-1.62,2.12,1.07,1.99,12.21,5.33,11.25.75Z"/><path class="d" d="M58.12,179.25c.43,2.52,3.66,6.68,1.38,7,6.75.82,1-7.88-.12-11.25-4.85.12-3.2,2.33-2.38,5.25l1.12-1Z"/><path class="c" d="M34.62,64.75c-.56.02-9.9,2.97-10.12,4.12-1.08,4.6,10.18-.97,12-2,.17-1.49-.39-2.18-1.88-2.12Z"/><path class="c" d="M135,19.12c-2.17-2.05-5.04-6.8-7.12-6.38-4.08,2.01,2.15,6.23,3.75,8.5,1.58.27,2.9-.6,3.38-2.12Z"/><path class="d" d="M77.5,107.25c1.51.41-.28.91-.5,1.62-.57,1.88,1.32,12.53.12,12.62-1.91-1.19-.54-2.94-1.62-3,.47,5.32,4.17,3.92,4.5,1.88.09-.58-.1-11.18-.25-11.75-.23-.88-1.36-1.65-2.25-1.38Z"/><path class="d" d="M154.38,11.75c4.29-3.68-6.35-4.28-8.5-5.75-6.72,3.1,7.56,6.17,8.5,5.75Z"/><path class="d" d="M128,74.12c.63,2.15,2.69,1.26,4,.25-.85-5.38.28-16.35-3.62-14.88-2.73-.46-.59,13.89-.38,14.62ZM128.88,60c2.52-.11,1.65,10.16,2.62,14.12l-1.38.62c-.19-1.91-2.8-14.36-1.25-14.75Z"/><path class="c" d="M203.62,157c1.76-1.93,11.3-5.12,6-7.75-2.21,1.9-13.31,5.79-6,7.75Z"/><path class="c" d="M117.62,76.5c-2.26-.05-3.91,9.52-3.25,10,4.65,1.69,3.36-2.97,5.12-9.12l-1.88-.88Z"/><path class="d" d="M78.62,92.25c3.58-.96-4.03-8.62-5-8.5-4.39.95,2.73,10.38,5,8.5Z"/><path class="c" d="M218.38,63.5c2.19-1.55,13.08-5.54,6.5-7.25-3.24,2.17-12.05,4.63-6.5,7.25Z"/><path class="d" d="M170.75,90.12c-2.7-2.85-3.18-.34-5,.88-.36,3.6.96,3.98-2.12,5.75-3.94,2.26-4.7,1.65-4.12-2-.29.15-4,.26-2.75,2.88,1.84,3.86,14.98-4.36,14-7.5Z"/><path class="c" d="M240.12,224.75c-2.81.54-.57,7.9,0,9.75l3.62-1.38c-1.57-3.46-.42-9.08-3.62-8.38Z"/><path class="d" d="M88.38,191.25c-4.08-2.15-7.12,6.36-6.38,9.25.14-.05.76,0,1.25,0,.42,0,.83,0,1.25,0,.77-1.39,1.34-3.11,2.5-4.25-.4-.35-.9-.67-1-1.25-.1-.6-.12-1.44.5-1.25-.03-.3.21-.23.25-.25.1-.07-.06-.72,2.25-.5-.01-.1.81-.4-.62-1.75Z"/><path class="d" d="M142.75,196.12l.88,1.62c2.4-1.02,11.71-6.92,8.62-9.75-1.73-.46-4.16,2.32-6,4l.75,1.12c-2.04,2.15-1.22,2.8-4.25,3Z"/><path class="c" d="M10.88,132.25c-2.03,2.16-8.31,7.99-2.5,8.75,1.39-2.09,8.19-8.39,2.5-8.75Z"/><path class="d" d="M85.62,224c-2.31,1.8-11.55,3.09-6,6.5,2.43-1.32,12.42-4.03,6-6.5Z"/><path class="d" d="M59.88,63.75c1.09-.61,1.89-3.4-1.5-3.25-.4.02-7.2,1.53-7.62,2.38-2.51,4.4,8.43,1.27,9.12.88Z"/><path class="d" d="M126.12,111.5c.88-.27,4.14-10.47-.25-9-2.52,1.88-4.57,9.26.25,9Z"/><path class="d" d="M139.12,242c-1.62.48-5.4,10-.25,9,1.66-2.77,4.82-10.35.25-9Z"/><path class="d" d="M202.12,82.25c.8-.18,6.88-8.28,1.75-8.5-1.17.09-7.74,9.08-1.75,8.5Z"/><path class="c" d="M201.38,118.25c1.05-2.08,6.66-9.47,1.75-9.25-1.58,1.77-7.64,9.84-1.75,9.25Z"/><path class="d" d="M229,113.25c-.17-1.69.26-1.66.25-1.75-.65-4.98-7.18,2.84-9,4.62.43,4.87,5.34-.96,8.75-2.88ZM222.62,114.25c.57.43-.57,3.12-1.25,3-1.32-1.21.27-2.18,1.25-3Z"/><path class="c" d="M240.38,133.75c4.91,1.54.92-8.54.25-8.75h-1.5c-3.19.91.46,8.5,1.25,8.75Z"/><path class="c" d="M86.88,210c-2.24,1.6-10.87,3.97-5.75,6.75,2.32-1.29,11.78-5.01,5.75-6.75Z"/><path class="d" d="M20.5,36.25c1.51,2.86,3.19,5.9,6.25,2.62.97-1.17-2.73-5.52-4-6.38-.09.16-1.82,2.3-2.25,2.88-.09.12.08.77,0,.88Z"/><path class="d" d="M126.5,192.75c.79.19,1.06-.78,1.88-.5.4.14,3.21,5.73,3.62,6.62.04.08-.32,1.13,0,1.75.13.26,3.85,2.51,1.12,4.38-3.07.35-1.43-.78-1.88-2.38-.81-2.89-4.16-9.76-4.5-6.88.36,1.1,3.92,9.47,4.38,9.75.9.55,3.76.03,3.62-2.12-2.28-2.85-3.45-15.22-8.25-10.62Z"/><path class="d" d="M131.25,202.62c.45,1.59-1.19,2.73,1.88,2.38,2.72-1.86-.99-4.12-1.12-4.38-.32-.62.04-1.67,0-1.75-.42-.9-3.22-6.49-3.62-6.62-.82-.28-1.09.69-1.88.5-.96,1.37-.14,1.81.25,3,.34-2.89,3.69,3.99,4.5,6.88Z"/><path class="c" d="M211.62,200.5c-4.04,3.72,4.65,3.34,8.75,4.25,3.82-3.97-6.26-3.67-8.75-4.25Z"/><path class="d" d="M28.5,225.12c.13-1.56-.68-1.95-2.12-1.88-.42.02-7.89,1.96-7.38,3.38-.44,3.92,9.3-.33,9.5-1.5Z"/><path class="c" d="M174.75,188.12c.2-2.64,4.72-7.73.38-8.12-1.91.27-6.55,11.29-.38,8.12Z"/><path class="c" d="M182.12,150c1.5-.38,3.98-9.6-.25-8-1.12.33-5.08,8.74.25,8Z"/><path class="c" d="M213.62,104.5c.97-1.42,6.75-8.85,1.5-7.75-1.43.3-7.41,8.02-1.5,7.75Z"/><path class="d" d="M123,166.12c-.95-5.34.41-12.38-3.62-11.62-3.55.31-.74,12.34,0,12.75.7.49,3.36-.34,3.62-1.12ZM119.62,155.5c2.84.49,1.47,1.89,1.62,2.62.57,2.68,1.05,5.44,1.12,8.12l-2,.5c-1.37.09-1.29-11-.75-11.25Z"/><path class="d" d="M93.5,148.12c-.08-1.07-1.92-2.54-3-1.62,3.3.57.87,1.42.5,2.88-.4,1.55-.44,4.28-.5,4.5-.14.52-.98,1.41-1,1.5-.3,1.06-.25,5.05-1.12,2.12-.47-.05-.61,2.58-1.38,0-.18,3.23,3.25,3.27,4,1.62.23-.51,2.54-10.44,2.5-11Z"/><path class="d" d="M201.88,18.25c-3.85,2.2,2.53,6.72,4.25,6.25,4.35-2.48-2.98-6.59-4.25-6.25Z"/><path class="c" d="M243.5,191.62c-3.16-2.82-3.74,1.43-4.5,3.62,1.62.29.83.79.75,1.25,1.43-.5,1.11,6.77-.88,6l-1.62-1.5c3.56,7.42,5.44-6.47,6.25-9.38Z"/><path class="d" d="M216.25,46.5c1.98,4.05.61,9.35-3.25,4.25-.27.61-.81.54-.25,1.62,4.19,4.13,7.31-2.45,7.75-6.25-2.95-3.72-3.77-.2-4.25.38Z"/><path class="d" d="M88.38,157.5c.87,2.93.83-1.07,1.12-2.12.02-.09.86-.98,1-1.5.06-.22.1-2.95.5-4.5.37-1.46,2.8-2.31-.5-2.88-1.4.04-3.46,10.32-3.5,11,.77,2.58.91-.05,1.38,0Z"/><path class="d" d="M75.38,37.25c1.91-.71.8-11.83-2.5-10.25-3.06.85-1.34,11.68,2.5,10.25ZM73.88,27.75c1.07-.02,3.06,9.6,1,9-1.43-2.48-.72-3.36-.88-4.12-.05-.26-2.03-3.78-.12-4.88Z"/><path class="d" d="M11.38,193.75c-4.86-.09-4.39,3.07-1.62,6-1.23-2.58-3.51-5.66,1.38-5.5.26,3.91,1.89,5.68,3.62,9.12-3.99,1.35-.45-1.19-5-3.38,1.45,2.86,2.62,5.53,5.12,4,3.03-1.85-1.04-5.89-3.5-10.25Z"/><path class="c" d="M71.25,45.38c.42.69-.99,9.18-1,10.75,0,1.16,1.84.04-1,1.88,4.36.49,3.42-8.17,4-11.62-2.7-3.33-3.47-1.52-4,1.62,1.1.08-.34-2.9,2-2.62Z"/><path class="d" d="M163.62,96.75c3.08-1.77,1.77-2.15,2.12-5.75-2.02,1.35-4.11,2.61-6.25,3.75-.57,3.65.18,4.26,4.12,2Z"/><path class="d" d="M193.88,227.75c-1.72.31-4.97,10.34,0,9.25,1.31-.36,4.38-10.26,0-9.25ZM194.25,236.12c-2.71,1.96.33-6.1.62-7.88,1.94-.29-1.05,7.08-.62,7.88Z"/><path class="d" d="M14.75,203.38c-1.74-3.45-3.36-5.22-3.62-9.12-4.89-.16-2.6,2.92-1.38,5.5.03.07-.03.18,0,.25,4.55,2.18,1.01,4.73,5,3.38Z"/><path class="c" d="M69.25,58c2.84-1.83.99-.72,1-1.88.01-1.57,1.42-10.06,1-10.75-2.34-.27-.9,2.71-2,2.62-.27,1.61-.18,3.87-.5,5.38-.2.95-3.23,3.36.5,4.62Z"/><path class="d" d="M66.5,152.88c-.51-1.53-3.89-1.69-4.75,3.62.54.42,1.1.18,1.25.25.88-3.52,1.4-1.19,1.5,1.25,1.31-.15-.1-1.69,1-2.12-.96,3.53,2.58,12.3-1.5,10.12-.15-.08-.53-.04-.5.25,6.43,3.31,1.06-4.27,3-13.38Z"/><path class="d" d="M208.25,196.75c1.27.19-.37,1.03,0,5.38-2.62-.02-1.78,2.39-3.38,4.38-1.51.23-1.59-.63-2.12-1.75-.49,1.55.87,2.71,2.38,2.25.54-.17,6.67-8.35,6.88-8.88.71-1.85-.67-4.65-3.75-1.38Z"/><path class="c" d="M252,211.5c.97.02.08,4.89,0,7.12-.09,2.76.45,3.85.22,4.12h1.4c.77-4.15,2.16-14.13-1.62-11.25Z"/><path class="c" d="M138.5,53.62c.08-.32-4.04-4.86-4.38-4.88-1.98.5-1.05,1.69-1.62,2.25.14.43,4.99,7.19,6,6.25-1.43-4.67-.12-3.15,0-3.62Z"/><path class="d" d="M77.12,121.5c1.19-.09-.69-10.75-.12-12.62.22-.71,2.01-1.22.5-1.62-3,.43-2.2,8.98-2,11.25,1.09.06-.29,1.81,1.62,3Z"/><path class="d" d="M204.88,206.5c1.59-1.99.75-4.39,3.38-4.38-.37-4.35,1.27-5.19,0-5.38-.61.64-5.35,7.54-5.5,8,.54,1.12.62,1.98,2.12,1.75Z"/><path class="d" d="M8,14.25c-.51-.21-4.86-1.54-5.12-1.5-.91.12-2.82,2.31.12,3.75l.12-.5c3.35.92,6.47,3.39,4.88-1.75Z"/><path class="c" d="M30.62,202c-1.98,1.17-5.33,3.65-3.25,5.75,1.68,1.07,8.2-4.63,3.25-5.75Z"/><path class="c" d="M46.5,120.38c-2.87-2.3-3.38-.06-4.25,1.38,3.57,1.36-1.33,4.62.5,5.88-.51,1.67-3.06.6-2.75-.88-.03.12-1.32.35.38,2,2.5,2.48,6.3-7.82,6.12-8.38Z"/><path class="d" d="M164,11.5c1.28,4.81,5.41-.88,6-3.62-2.89-3.87-3.58-.24-4.25.62,1.41,1.96-.71,5-1.75,3Z"/><path class="d" d="M18.75,32.25c-.33,1.76.72,2.56.75,2.88.23,2.1-2.49,2.01-2-.88-1.16,3.33,1.64,3.67,3,2,.08-.1-.09-.76,0-.88.43-.57,2.16-2.72,2.25-2.88,1.39-2.4-.65-4.75-4-.25Z"/><path class="d" d="M184.38,104.5c.65,3.38-3.55,1.73-.75,3,2.07-.9,1.53-2.87,2.38-4.62.38-.8,1.14-1.11,1.5-1.75.34-.6-1.1-.29,1.5-2l-1-1.12c-1.3-.5-5.44,6.64-5.75,7.5,1.35,1.16,1.61.62,2.12-1Z"/><path class="c" d="M242.25,58.88c-.25.55.93.95-1.88,3.12-1.04-.84-1.05-1.24-.62-2.5-.12.21-2,1.39.62,3,1.7.37,6.78-5.18,6.12-6.88-2.04-2.2-2.92-.06-3.5.38,1.24,0-.1,1.44-.75,2.88Z"/><path class="d" d="M188,98l1,1.12c-2.6,1.71-1.16,1.4-1.5,2-.36.64-1.12.95-1.5,1.75-.84,1.76-.3,3.73-2.38,4.62-2.8-1.27,1.4.38.75-3-.52,1.62-.77,2.16-2.12,1-.74,2.05.7,2.97,2.38,2.5.6-.17,8.32-9.65,3.38-10Z"/><path class="d" d="M54.75,118.12c-.3.24,1.23,1.19-1.75.62l-.5-2c-.83,2.09.69,3.39,2.12,3,.57-.15,7.99-8.05,8.12-8.62.24-.98-1.01-3.21-3-2.12.89,3.73-2.3,6.95-5,9.12Z"/><path class="d" d="M160.75,68c.6-.3,4.05-3.23,4.5-3.88.07-.11-.02-1.05.75-2.5.63-1.18,2.41-.51.5-2.62-1.4,0-3.27,3.02-4.25,4,.43,1.31-.97,3.28-1.5,5Z"/><path class="c" d="M181.5,10.25c.65,3.79,6.52-2,10-4.62-.27-4.43-2.62-1.51-3.25-1.12-.05,2.04-5.43,8.64-6.75,5.75Z"/><path class="d" d="M152.25,188c3.08,2.83-6.22,8.73-8.62,9.75l-.88-1.62c3.03-.2,2.21-.85,4.25-3l-.75-1.12c-2.14,1.94-7.41,5.28-1.62,6.5,3.83-4.1,12.64-8.12,7.62-10.5Z"/><path class="d" d="M138.12,227.75c1.12-.31,6.16-13.59,6.12-14.38-.06-1.29-2.15-2.93-3.25-1.62l1.75.12c-1.57,1.71-.16,3.88-.25,5-.07.88-3.04,7.38-3.75,8.5-.13.2.3,2.73-3.5.38-.08,1.98,1.19,2.12,2.88,2Z"/><path class="d" d="M57,114.38c-.11.73-1.93,1.15-2,1.25-.32.44-.15,2.57-2,3.12,2.98.57,1.45-.38,1.75-.62,2.7-2.18,5.89-5.39,5-9.12-1.01.55-2.29,2.5-3.25,3.5-.62,1.29.59,1.29.5,1.88Z"/><path class="d" d="M250.88,153.25c.52-.21,6.94-6.59,1-6.5-6.01,4.78-3.33,7.45-1,6.5ZM253.75,149.12c-5.26,5.94-2.63,2.25-2.5,1.75.33-1.22-.84-1.98,1.38-3.38,1.07-.22,1.18.69,1.12,1.62Z"/><path class="c" d="M179.62,131.25c.98-.62,5.79-6.43,5.88-6.88.33-1.74-.99-2.6-2.75-1.62,4.01-.37-.85,2.16-1,2.38-.23.33.27.72.25.75-1.87,3.34-.68,2.47-.75,2.75-.51,2.04-3.15,2.61-3.75.38-.47,1.58.6,2.32,2.12,2.25Z"/><path class="c" d="M181.25,128.62c.07-.28-1.12.59.75-2.75.02-.03-.48-.42-.25-.75.15-.22,5.01-2.75,1-2.38-.72.4-5.04,5.54-5.25,6.25.6,2.24,3.24,1.67,3.75-.38Z"/><path class="c" d="M93.12,232l-2.12,1.38c-.43,6.85,8.93,1.79,2.12-1.38Z"/><path class="d" d="M192.75,57.5c2.35-2.71,6.2,6.83,6.25,7.38.04.49-1.96.85-.12,3.88-2.12.92-2-1.13-2.88-1.25,1.28,2.32,1.82,2.86,4.25.88.77-1.46-3.53-9.94-4.38-11.88-1.19,0-2.48-.25-3.12,1Z"/><path class="c" d="M252,218.62c.08-2.23.97-7.11,0-7.12-1.62.26-2.2,11.46-.5,11.25.43.1.63.11.72,0,.23-.28-.32-1.37-.22-4.12Z"/><path class="c" d="M251.62,31.75c.34-.1,2.92-3.06.5-3-.41.01-8.16,1.99-7.38,2.88.22.49,6.36.28,6.88.12Z"/><path class="d" d="M95.38,198.75l-1.88,1.38c.38,7.09,9.04.51,1.88-1.38Z"/><path class="c" d="M186.5,221c-.11-.94.48.09,1-.38-.37-2.88.95-5.23,1-8.12-2.43-.92-4.37,8.52-2,8.5Z"/><path class="d" d="M166,61.62c-.77,1.45-.68,2.39-.75,2.5-.45.64-3.9,3.58-4.5,3.88-1.64.82-2.72.52-2-1.5-1.31,2.07-.56,2.93,1.88,3,2.72-3.66,11.64-8.5,5.88-10.5,1.91,2.11.13,1.45-.5,2.62Z"/><path class="d" d="M216.25,46.5c-.7.84-2.92,3.53-3.25,4.25,3.86,5.1,5.23-.2,3.25-4.25Z"/><path class="c" d="M188.25,4.5c-1.7,1.03-7.18,4.56-6.75,5.75,1.32,2.89,6.7-3.71,6.75-5.75Z"/><path class="c" d="M82.88,33.5c-4.95,5.56,6.69,5.92,1.75,0h-1.75Z"/><path class="d" d="M246.75,169.75c-.38-1.53.47-9.71-2.5-7.25-.05.36.37,5.58.5,6.25.72.5,1.17,2.91,2,1Z"/><path class="c" d="M250.25,122.25c-.36.31-1.67.94-1.75,1-1.65,1.32-3.22,2.72-5,3.88-.77,3.68,10.9-5.36,6.75-4.88Z"/><path class="d" d="M221.12,103.25c4.82-3.82,5.34-7.24,1.5-6.5-.82.16-8.3,5.61-1.5,6.5ZM223.38,97.5l1.12.38c-2.46,7.33-9.35,4.55-1.12-.38Z"/><path class="d" d="M132.75,148.25c1.69,6.57-2.9,4.52-2,.75-2.22,1.16.54,5.23,3.38,4.25,2.69-.93,1.63-4.78-1.38-5Z"/><path class="d" d="M193.25,196.5c.38-.94,0-1.93.75-1.75-.67-2.07-3.63-1.5-1.75-2.25-1.8-.55-4.42.94-1.75,3.5,1.25-.15,1.8,1.57,2.75.5Z"/><path class="c" d="M187.5,220.62c-.52.46-1.11-.56-1,.38,2.79,2.58,4.77-9.29,2-8.5-.05,2.89-1.37,5.24-1,8.12Z"/><path class="c" d="M178.38,84.5c.84-.3,1.94-6.92,1.25-7-3.83,3.21-3.56,7.82-1.25,7Z"/><path class="c" d="M42.75,127.62c-1.83-1.25,3.07-4.52-.5-5.88-.61,1-1.95,3.89-2.25,5-.31,1.47,2.24,2.55,2.75.88Z"/><path class="d" d="M246.75,169.75c.61.26.89.71,1.25.12-.48-3.56.28-9.72-2.25-9.38-.67.27-1.4,1.26-1.5,2,2.97-2.46,2.12,5.72,2.5,7.25Z"/><path class="d" d="M245.75,160.5c2.53-.35,1.77,5.81,2.25,9.38-.36.59-.64.13-1.25-.12-.83,1.91-1.28-.5-2-1,.84,4.2,4.08,1.5,4.25.62-.87-3.95.95-10.57-3.25-8.88Z"/><path class="d" d="M53.88,42l-.88.88c-.55,6.82,8.51.09.88-.88Z"/><path class="d" d="M87.75,58.88c-.28,6.39,7.93-.38,1.38-1.12l-1.38,1.12Z"/><path class="c" d="M71.5,9.38l-1.38-.88c-4.37,3.67,2.41,8.87,1.38.88Z"/><path class="d" d="M111.88,179.75l-1.62,1.62c1.39,5.57,7.39-1.03,1.62-1.62Z"/><path class="d" d="M239.12,95l-1.12,1.38c.96,6.16,7.57-.39,1.12-1.38Z"/><path class="d" d="M64,166c-.42-4.18-2.08-4.93-1-9.25-.15-.07-.71.17-1.25-.25-.4,2.46-.12,8.17,1.75,9.75-.03-.29.35-.33.5-.25Z"/><path class="d" d="M213.5,168.25c.23-2.6-1.11-4.03-1.25-4.62-.32-1.36-.32-7.45-1.5-2.38.05,1.23.67,4.67,1,6,.7.05,1.34.46,1.75,1Z"/><path class="c" d="M133.38,48.5c-.96.89-1.3,1.22-.88,2.5.57-.56-.36-1.75,1.62-2.25.33.01,4.46,4.55,4.38,4.88-.12.48-1.43-1.05,0,3.62l1.5-.88c1.01-1.2-5.01-9.02-6.62-7.88Z"/><path class="c" d="M172.5,124.62l-1.12-.38c-11.35,6.58,2.51,3.41,1.12.38Z"/><path class="d" d="M131.62,130.75c-.99.59-7.17,1.87-7.12,2.88.07,1.6,11.44-2.44,7.12-2.88Z"/><path class="c" d="M168.5,69.62c10.71,7.28,11.78,4.85.38-.88l-.38.88Z"/><path class="c" d="M239.75,59.5c-.43,1.26-.42,1.66.62,2.5,2.81-2.17,1.63-2.57,1.88-3.12.65-1.44,1.99-2.88.75-2.88-1.2.91-2.5,2.17-3.25,3.5Z"/><path class="c" d="M86.38,10.25c.25.12.07.73.12.75,1.76.71,3.76.47,3.38-1.75-3.5.77-10.85-.39-10.62,1.62l.75.12c-1.77-1.03,6.05-.91,6.38-.75Z"/><path class="d" d="M59.88,93.5l-1.38,1.12c-.07,6.03,7.09.17,1.38-1.12Z"/><path class="c" d="M239.75,196.5c-.16.93-1.29,5.47-2.25,3.75-.05.33-.05.44-.25.75l1.62,1.5c1.99.77,2.3-6.5.88-6Z"/><path class="c" d="M58.88,13.25c1.39-.66-2.84-6.77-3.75-6-.6.5,2.67,6.52,3.75,6Z"/><path class="d" d="M58.12,179.25l-1.12,1c.32,1.13,1.77,5.77,2.5,6,2.28-.32-.94-4.48-1.38-7Z"/><path class="c" d="M110.38,37.5c-.52-.93-4.72-6.25-5.5-5.75-.6.38,3.96,7.39,5.5,5.75Z"/><path class="d" d="M53,118.75c1.85-.55,1.68-2.69,2-3.12.07-.1,1.89-.52,2-1.25.09-.59-1.12-.59-.5-1.88-.69.71-3.83,3.83-4,4.25l.5,2Z"/><path class="d" d="M9.38,18.25c1.08-.26,3.01-2.19-1.38-4,1.6,5.14-1.53,2.67-4.88,1.75l-.12.5c.77.38,5.7,1.91,6.38,1.75Z"/><path class="c" d="M7.5,201.62l-1.38-.88c-4.26,3.72,2.04,6.97,1.38.88Z"/><path class="d" d="M160.75,68c.53-1.72,1.93-3.69,1.5-5-1.11,1.12-2.65,2.15-3.5,3.5-.72,2.02.36,2.32,2,1.5Z"/><path class="c" d="M197.38,48l-1.62,1.12c-.47,5.16,6.94.54,1.62-1.12Z"/><path class="d" d="M116.38,216.25l-1.62,1.12c.37,5.29,6.37,1,1.62-1.12Z"/><path class="c" d="M121.88,74c-1.3.96,2.33,3.75,3.75,6,2.58.76-2.73-6.38-3.75-6Z"/><path class="c" d="M200.38,8.25l-.38.88c7.02,6.27,9.81,4.32.38-.88Z"/><path class="d" d="M194,194.75c.65.3-.43,2.42-.75,1.75-.95,1.07-1.5-.65-2.75-.5,4.51,4.33,8.27-.63,1.75-3.5-1.88.75,1.08.18,1.75,2.25Z"/><path class="c" d="M103.5,120.12c1.85,6.81,6.21,2.48.62-.88l-.62.88Z"/><path class="c" d="M123.88,236.5c-.45.1-3.73,2.9-2.5,4,1.61.81,5.81-4.7,2.5-4Z"/><path class="d" d="M132.75,148.25c-.72-.05-1.62-.02-2,.75-.9,3.77,3.69,5.82,2-.75Z"/><path class="d" d="M138.12,145.5l-.88,1.12c.62,5.7,6.4-1,.88-1.12Z"/><path class="d" d="M49,224.88c9.83,7.08,11.95,4.88.38-.38l-.38.38Z"/><path class="c" d="M135.75,175.38l-.88-.38c-4.7,4.66.51,7.66.88.38Z"/><path class="c" d="M27.88,147.5l-1.25-.25c-4.49,3.45,3.92,5.28,1.25.25Z"/><path class="d" d="M244.75,250.75c-.99.92-2.27,1.85-3,3,.97,1.42,1.58,2.1,1.98,2.25h.3c.59-.3.45-2.59.71-5.25Z"/><path class="c" d="M92,73.25c-2.39-2.48-3.22,1.44-5.25,2.38,3.87.6,3.86-.88,5.25-2.38Z"/><path class="c" d="M6.25,174.88c.08.12-.36,1.27,1,2.5l-.75.62c2.74.31,2.46-2.21,1.38-3-.29-.21-5.86-2.32-6.62-2,.98.46,2.02.79,3,1.25.55.26,1.94.54,2,.62Z"/><path class="d" d="M17,123.38c-.31,5.35,6.46.32,1.12-.88l-1.12.88Z"/><path class="d" d="M16.88,214l-1.62,1.12c-.28,4.66,5.99.93,1.62-1.12Z"/><path class="c" d="M129.88,99.5h-1.5c-3.7,4.24,4.16,4.22,1.5,0Z"/><path class="c" d="M148.38,143l-1.38,1.38c1.1,4.3,6.59-.85,1.38-1.38Z"/><path class="c" d="M168,47.62c1.25,4.9,6.46-1.15,1.12-1.12l-1.12,1.12Z"/><path class="c" d="M214,58.12l-.62-.62c-7.28,6.08-6.87,9.34.62.62Z"/><path class="c" d="M39.5,115.12c-.93,5.72,6.17,1.63.88-.62l-.88.62Z"/><path class="c" d="M45.38,37.5l-3.88,2.88c-1.04,3.98,6.36-2.61,3.88-2.88Z"/><path class="c" d="M75.75,194.88l-.88-.12c-4.68,4.46.41,7.24.88.12Z"/><path class="c" d="M241.38,175.25l-3.38,3.12c1.19,3.64,5.15-2.89,3.38-3.12Z"/><path class="d" d="M4.88,154.75l-1.12,1.12c.68,4.61,6.54-.65,1.12-1.12Z"/><path class="d" d="M131.75,90.88c1.56,1.15,1.78.39,3-.12l-2.25-2.75c-.12.12-2.17.55-.75,2.88Z"/><path class="c" d="M205.62,27h-1.5c-2.42,4.31,4.96,4.15,1.5,0Z"/><path class="d" d="M102.62,82.5l-1.38,1.12c.15,4.92,5.96.17,1.38-1.12Z"/><path class="d" d="M179.12,93c-3.21,4.07,4.83,4.19,1.25,0h-1.25Z"/><path class="d" d="M50.88,155.25l-.25,1c8.56,6.65,8.77,4.41.25-1Z"/><path class="c" d="M57.12,128l-1.62,1.62c.13,5.14,5.37-2.15,1.62-1.62Z"/><path class="c" d="M128.38,229.75l-.88.88c.36,5.26,6.14-.51.88-.88Z"/><path class="d" d="M177,146.62l-.38-.62c-7.11,8.37-6.44,10.97.38.62Z"/><path class="c" d="M75.25,64.38l-.88-.38c-4.25,4.32-.34,7.27.88.38Z"/><path class="d" d="M231.62,204l-1.25-.25c-3.82,3.05,3.84,5,1.25.25Z"/><path class="c" d="M6.88,126.75l-1.12,1.12c.09,4.92,6.05-1.03,1.12-1.12Z"/><path class="c" d="M231.75,184.88l-1.12-.38c-5.21,4.24-1.01,5.9,1.12.38Z"/><path class="c" d="M207.5,229.38l-1.38-.88c-4.23,2.58,1.33,5.35,1.38.88Z"/><path class="c" d="M241.88,177.5c-1.01,1.02,6.41,5.28,6.62,4.88-.67-.75-6-5.51-6.62-4.88Z"/><path class="c" d="M31.38,160.75h-1.5c-3.69,3.75,4.27,3.71,1.5,0Z"/><path class="d" d="M75.62,182.25c.74-1.75,2.69-4.55,1.75-4.75-1.12,1.48-1.8,1.82-2,3.75-4.04-4.99-5.16-3.41.25,1Z"/><path class="d" d="M53,68.38l-.38-.38c-8.2,11.03-7.09,12.62.38.38Z"/><path class="d" d="M58.25,105.88l-1.12-.62c-4.65,2.38,2.15,5.34,1.12.62Z"/><path class="c" d="M97.5,57.75c4.33-3.19-3.71-5.11-1.75-.5l1.62-1.5.12,2Z"/><path class="c" d="M15.75,171.12c4.5,7.17,6.07,3.45.38-.62l-.38.62Z"/><path class="d" d="M154.88,176.75h-1.25c-4.05,3.45,4.97,4.13,1.25,0ZM154.38,177.25c1.11.84-.86,1.26-.88.62l.88-.62Z"/><path class="d" d="M191.62,49l-.88.62c-.83,5.22,5.88.35.88-.62Z"/><path class="c" d="M63.62,118.25l-1.12,1.38c1.35,4.51,5.29-1.09,1.12-1.38Z"/><path class="c" d="M195.62,104.5c-.24.04-3.37,2.22-2,3,2.86.05,4.65-3.45,2-3Z"/><path class="d" d="M113,161.88l-.62-.38c-10.01,5.64-7.68,6.57.62.38Z"/><path class="c" d="M33.75,216.88c.15,4.83,5.82-.16.88-.88l-.88.88Z"/><path class="c" d="M6.25,174.88c-.06-.09-1.45-.37-2-.62-1.29,1.64,3.01,2.29-.25,2.38l.5.62c.67.21,1.25.67,2,.75l.75-.62c-1.36-1.23-.92-2.38-1-2.5Z"/><path class="d" d="M86.5,193.75l-.5,1.25c.1.58.6.9,1,1.25.08-.08.78.08.88,0,1.97-1.73.84-2.37.88-2.75h-2s-.28-.05-.25.25Z"/><path class="d" d="M164.12,31c-.26-.16.26-1.27-1.12-2.25-.36.62-1.08,1.42-1.25,2,3.25,4.57,4.11-2.75,2.38.25Z"/><path class="d" d="M25,188c-6.07,3.28-3.91,5.62,0,1.5.02-.47-.02-1.19,0-1.5Z"/><path class="c" d="M238,46.12c-.74-.58-3.81-7.04-4.62-6.62-.39.2,4.19,8.76,4.62,6.62Z"/><path class="c" d="M209.38,123c1.5.01,3.16-4,2.5-4.5-1.47,1.72-4.26,3.28-2.5,4.5Z"/><path class="d" d="M213.5,168.25c-.41-.54-1.05-.95-1.75-1,.38,1.51.86,4.29,2,5,.17-1.49,1.23-2.03-.25-4Z"/><path class="d" d="M30.88,76.5l-.38.88c5.77,5.74,6.49,2.79.38-.88Z"/><path class="c" d="M16.62,10.5c3.47-1.08,3.8-3.53,1.5-3-.2.05-3.32,2.24-1.5,3Z"/><path class="d" d="M102.62,216.75c-3.08,3.69,4.25,3.37,1.25,0h-1.25Z"/><path class="d" d="M48.75,244.75c.5,2.29.04,3.96-1.25,1,.07,4.9,7.03-.51,1.25-1Z"/><path class="c" d="M169,110.75c3.31-2.9-3.66-4.82-2-.25.85-1.41,1.84-1.68,2,.25Z"/><path class="d" d="M185.75,12.12l-.62-.38c-7.3,3.28-3.91,5.2.62.38Z"/><path class="d" d="M177.38,251h-.75c3.49,6.43,7.15,6.11.75,0Z"/><path class="c" d="M102.12,151h-1.25c-3.38,3.08,3.99,3.78,1.25,0Z"/><path class="d" d="M160.75,177.38l-.88-.62c-5.77,2.33-1.44,4.4.88.62Z"/><path class="d" d="M102.12,7.5l-.88.88c.66,4.51,5.31-.35.88-.88Z"/><path class="c" d="M252.88,96.75l-.88,1.12c1.84,4.17,4.89-1.17.88-1.12Z"/><path class="c" d="M102.38,161.5h-.75c-3.88,3.11,4.59,3.62.75,0Z"/><path class="c" d="M54.25,40.5l1.75-2.25c-.99-2.68-4.76.67-1.75,2.25Z"/><path class="c" d="M61.5,241.25c1.23.61,2.54-1.98,1.75,1,4.01-.13-1.12-5.68-1.75-1Z"/><path class="d" d="M246.62,39c9.17,3.24,8.2.85-.25-.75l.25.75Z"/><path class="d" d="M149.75,158.38c.1-.4-4.22-4.25-5.12-4.38.37,1.31,4.82,5.64,5.12,4.38Z"/><path class="d" d="M179.88,220.75l-.88.88c.31,4.24,5.2.11.88-.88Z"/><path class="d" d="M19.5,35.12c-.03-.31-1.08-1.12-.75-2.88-.4.53-.77.62-1.25,2-.49,2.89,2.23,2.98,2,.88Z"/><path class="c" d="M25,191.75c-.46-.46-.83,4.39-.75,4.62.19.58,3.24,1.72,3.25-1.12-3.83,1.06-2.54-1.22-2.5-3.5Z"/><path class="c" d="M8.75,67.75c1.74,0,1.53-1.47,2.25.75,3.19-2.44-1.83-4.39-2.25-.75Z"/><path class="c" d="M126.62,25.75v1.25c5.96,1.89,5.23-.7,0-1.25Z"/><path class="c" d="M239.75,196.5c.08-.46.87-.96-.75-1.25-.27.79-1.46,4.71-1.5,5,.96,1.72,2.09-2.82,2.25-3.75Z"/><path class="d" d="M180.62,72.75h-1.25c-3.23,3.35,4.27,2.8,1.25,0Z"/><path class="c" d="M49,103.88l-1.62-.12c-2.67,2.99,3.47,3.45,1.62.12Z"/><path class="c" d="M121.5,1.25c-1.49-2.53-4.81,0-2.5,2,.67-.78,1.58-2.12,2.5-2Z"/><path class="d" d="M152.88,228.5h-.75c-3.75,3.14,3.93,3.69.75,0Z"/><path class="d" d="M229,113.25c3.16-1.77,8.89-2.82.25-1.75.01.09-.42.06-.25,1.75Z"/><path class="d" d="M222.25,250l-1,.75c.08,4.81,4.02,2.24,1-.75Z"/><path class="d" d="M110.88,204.75c-3.05,3.36,4.08,3.36,1,0h-1Z"/><path class="d" d="M17.88,98.25l-1.12.88c-.19,4.14,4.9.45,1.12-.88Z"/><path class="c" d="M129.62,77.25l-.88.62c.1,4.58,5.11.32.88-.62Z"/><path class="d" d="M49,10.62l-.62-.62c-6.45,6.55-5.65,7.62.62.62Z"/><path class="c" d="M119.88,174.25c-1.81.64,2.74,4.66,3,4.5.55-.33-2.6-4.64-3-4.5Z"/><path class="d" d="M133.5,253.62l-.62-.38c-8.7,2.44-5.28,3.83.62.38Z"/><path class="d" d="M108.38,147h-1c-3.13,3.26,4.14,3.23,1,0Z"/><path class="d" d="M176,65.38l-1.38-.62c-3.67,2.19,1.76,4.23,1.38.62Z"/><path class="c" d="M83.25,200.5c-.49,0-1.11-.05-1.25,0-.36.14-2.14,2.49-.75,3,1.32.21,1.98-1.81,2-3Z"/><path class="d" d="M68.88,223l-.88.88c.07,4.03,5.35-.89.88-.88Z"/><path class="d" d="M237,210.12l-.38-.62c-7.77,6.51-7.22,7.78.38.62Z"/><path class="d" d="M229.12,47.5l-.38.62c4.94,5.56,6.1,3.26.38-.62Z"/><path class="d" d="M165.75,8.5c-.56.73-2.04,2.23-1.75,3,1.04,2,3.16-1.04,1.75-3Z"/><path class="d" d="M86.38,10.25c-.33-.16-8.14-.28-6.38.75h6.5c-.05-.02.12-.63-.12-.75Z"/><path class="d" d="M88.5,96.62l-.38-.12c-7.83,7.32-5.95,8.17.38.12Z"/><path class="c" d="M151,79c3.38-2.12-3.26-4.14-2-.5,1.68-.69,1.75-1.91,2,.5Z"/><path class="d" d="M56,238c.89.51,1.44,2.32,3.25.38l-2-1.62c-.06.06-1.09.09-1.25,1.25Z"/><path class="d" d="M65.38,232.5l3.5-4c-2.34.94-5.57,4.1-3.5,4Z"/><path class="c" d="M187,140.12c-.14,4.09,5.14-.25.88-.62l-.88.62Z"/><path class="c" d="M74,148c.47-1.29,1.61-1.58,2.75-1.25-.05-2.59-4.89-1.62-2.75,1.25Z"/><path class="d" d="M94,70.25c-.38-.04-.48-.47-.5-.5-1.44.89-2.16-.12-2.25,2,.43.38.31.67,1.5.5,1.53-1.83,1.18-1.91,1.25-2Z"/><path class="d" d="M138.88,74.75l-1.12.88c-.02,3.51,4.78.26,1.12-.88Z"/><path class="c" d="M254,4.62l-1.12-.88c-3.48,1.49.83,4.39,1.12.88Z"/><path class="d" d="M230.62,72.5h-1c-2.51,3.22,3.29,3.22,1,0Z"/><path class="d" d="M144.75,100.88l-.62-.38c-5.95,4.04-3.71,5.12.62.38Z"/><path class="d" d="M233.5,127.75c1-.02-.26,1.44.25,2.25,2.45.47,2.65-4.29-.25-2.25Z"/><path class="d" d="M248.5,123.25c.08-.06,1.39-.69,1.75-1,4.53-3.94,1.44-4.14-1.75,1Z"/><path class="c" d="M63,215.25l2.75-1.5c-.96-1.76-3.92-.4-2.75,1.5Z"/><path class="d" d="M249.5,186.12c6.52,1.56,7.23-.43.12-.62l-.12.62Z"/><path class="d" d="M82.25,153c3.22-1.03-.39-4.85-1.5-2.25l2,.62-.5,1.62Z"/><path class="c" d="M12.5,103.62c-1.19-1.83-.92.24-1.38-.88-2.84,3.49,1.73,2.96,1.38.88Z"/><path class="d" d="M148.75,103.38l-.88-.38c-4.81,3.78-2.87,4.72.88.38Z"/><path class="c" d="M65.75,213.75l-2.75,1.5c.53,2.05,3.88.56,2.75-1.5Z"/><path class="d" d="M87.62,89l-3.62,3.12c.38,1.47,5.24-3.16,3.62-3.12Z"/><path class="d" d="M143.38,233.75l-.88,1.38c1.85,2.45,3.9-1.56.88-1.38Z"/><path class="d" d="M230.75,11.12l-.12-.62c-7.37.94-6.54,2.63.12.62Z"/><path class="d" d="M26.5,49.25l1.75-3.25c-2.4-.16-2.44,1.4-1.75,3.25Z"/><path class="c" d="M119,3.25c1.61.9,3.35-.34,2.5-2-.92-.12-1.83,1.22-2.5,2Z"/><path class="c" d="M93.5,69.75c-1.72-1.84-4.14.34-2.25,2,.09-2.12.81-1.11,2.25-2Z"/><path class="d" d="M146.88,85.5l-2.62,3.38c.71,2.23,3.9-3.76,2.62-3.38Z"/><path class="d" d="M218.75,82.62l-.38-.62c-5.14,2.99-3.89,4.45.38.62Z"/><path class="c" d="M81.25,203.5c2.16,1.48,3.1-2.74,3.25-3-.42,0-.83,0-1.25,0-.02,1.19-.68,3.21-2,3Z"/><path class="d" d="M17,138.38l-.62-.38c-4.12,3.56-1.81,4.6.62.38Z"/><path class="c" d="M74,148c1.12.99,2.78.11,2.75-1.25-1.14-.33-2.28-.04-2.75,1.25Z"/><path class="d" d="M67.12,99.5c-3.39,3.22-2,5.38.38.62l-.38-.62Z"/><path class="d" d="M147,169.62c0,.18.5.34.5.38,2-.91,1.97-1.76-.25-2.25.01.09-.29-.16-.25,1.88Z"/><path class="d" d="M82.25,153l.5-1.62-2-.62c-.77.6.45,2.43,1.5,2.25Z"/><path class="d" d="M234.25,65.62l-.38-.38c-4.45,3.53-3.83,5.14.38.38Z"/><path class="d" d="M97.5,57.75l-.12-2-1.62,1.5c.33.65,1.17.97,1.75.5Z"/><path class="d" d="M48.75,244.75l-1.25,1c1.29,2.96,1.75,1.29,1.25-1Z"/><path class="d" d="M165.75,130.75v2.25c1.92-.63,1.45-2.37,0-2.25Z"/><path class="c" d="M151,79c-.25-2.41-.32-1.19-2-.5.12.84,1.61,1.29,2,.5Z"/><path class="c" d="M169,110.75c-.16-1.93-1.15-1.66-2-.25.64.54,1.21.75,2,.25Z"/><path class="d" d="M233.5,127.75c-1.5,1-.46,3.02.25,2.25-.51-.81.75-2.27-.25-2.25Z"/><path class="d" d="M56,38.25l-1.75,2.25c1.33.28,2.39-1.03,1.75-2.25Z"/><path class="c" d="M8.75,67.75c.52.94,1.25,1.35,2.25.75-.72-2.22-.51-.74-2.25-.75Z"/><path class="c" d="M61.5,241.25c.39.61,1.35,1.77,1.75,1,.79-2.98-.52-.39-1.75-1Z"/><path class="d" d="M165.75,133v-2.25c-1.59.48-1.66,2.37,0,2.25Z"/><path class="d" d="M86.75,193.5h2s.31.12.25-.5c-2.31-.22-2.15.43-2.25.5Z"/><path class="d" d="M115.25,247.62c.28,6.86,1.42,4.91.62-.38l-.62.38Z"/><path class="d" d="M114.38,99.75c.06,4.34-2.96,15.6.12,14.12-.19-4.33,2.45-14.67-.12-14.12Z"/><path class="d" d="M145.62,165.75c-1.16,3.85.4,8.03-1.38,11.88,2.45,1.79,3.05-13.28,1.38-11.88Z"/><path class="d" d="M228.62,86.5c.64-3.46-3.12-5.37-4.75-8h-1c-.68,3.65,3.4,5.58,5.75,8Z"/><path class="d" d="M230.62,84l-.62,2.62c.44,1.28,3.67-1.29.62-2.62Z"/><path class="d" d="M131.5,74.12c-.98-3.96-.1-14.23-2.62-14.12-1.55.39,1.06,12.84,1.25,14.75l1.38-.62Z"/><path class="d" d="M86,195l.5-1.25c-.62-.19-.6.65-.5,1.25Z"/><path class="d" d="M222.62,114.25c-.98.82-2.57,1.79-1.25,3,.68.12,1.82-2.57,1.25-3Z"/><path class="d" d="M120.38,166.75l2-.5c-.08-2.69-.55-5.45-1.12-8.12-.16-.74,1.22-2.13-1.62-2.62-.54.25-.62,11.34.75,11.25Z"/><path class="d" d="M74.88,36.75c2.06.6.07-9.02-1-9-1.91,1.1.07,4.61.12,4.88.16.76-.56,1.65.88,4.12Z"/><path class="d" d="M194.88,228.25c-.3,1.78-3.34,9.83-.62,7.88-.42-.79,2.56-8.17.62-7.88Z"/><path class="d" d="M64,166c4.08,2.18.54-6.6,1.5-10.12-1.1.43.31,1.97-1,2.12.02.46-.39,4.24-.88,4-.52-1.4.5-4.68-.62-5.25-1.08,4.32.58,5.07,1,9.25Z"/><path class="d" d="M63.62,162c.49.24.89-3.54.88-4-.1-2.44-.62-4.77-1.5-1.25,1.13.57.1,3.85.62,5.25Z"/><path class="d" d="M251.25,150.88c-.13.5-2.76,4.19,2.5-1.75.06-.94-.06-1.84-1.12-1.62-2.21,1.4-1.05,2.16-1.38,3.38Z"/><path class="d" d="M224.5,97.88l-1.12-.38c-8.23,4.93-1.34,7.7,1.12.38Z"/><path class="d" d="M194,194.75c-.75-.18-.37.81-.75,1.75.32.67,1.4-1.45.75-1.75Z"/><path class="d" d="M154.38,177.25l-.88.62c.01.63,1.99.22.88-.62Z"/><path class="c" d="M0,138.28v35.97c.03-11.99.01-23.98,0-35.97Z"/><path class="c" d="M0,177.04v47.71c.32-2.33.02-36.43,0-47.71Z"/><path class="d" d="M1.88,87.68c.03-.11.05-.22.06-.34.02-.35-.09-.74-.39-1.18-.3-.43-.79-.91-1.54-1.41v4.5c.09-.01.21-.05.36-.11.52-.21,1.3-.72,1.52-1.47Z"/><path class="d" d="M0,108v5c1.14-1.72,3.25-4.26,0-5Z"/><path class="c" d="M0,61.75v1.75c3.86,1.86,1.49-.68,0-1.75Z"/><path class="c" d="M16.89,0H0c5.63.02,11.26.01,16.89,0Z"/><path class="c" d="M80.19,0h-21.69c5.69.38,13.75.16,21.69,0Z"/><path class="d" d="M245,0h-.96c-.08.04-.19.04-.3,0h-2.48c.56.08.9,2.18,3.75,0Z"/><path class="d" d="M41.62.25c.19.12.44.25,1,.25.1,0,.2-.48.88-.5h-2.5c.16,0,.27.03.36.08.09.05.17.11.26.17Z"/><path class="d" d="M244.04,0h-.3c.12.04.22.04.3,0Z"/></svg>