<?xml version="1.0" encoding="UTF-8"?><svg id="a" xmlns="http://www.w3.org/2000/svg" viewBox="0 0 256 256"><defs><style>.b{fill:none;}.b,.c,.d,.e{stroke-width:0px;}.c{fill:#88cbeb;}.d{fill:#ffabbb;}.e{fill:#fff;}</style></defs><path class="b" d="M255.94,226.04c-.02-.75-.03-1.5-.05-2.24.01.74.03,1.48.05,2.24Z"/><path class="b" d="M255.87,213.64c.02-.44.04-.83.08-1.17-.03.34-.06.73-.08,1.17Z"/><path class="b" d="M238.71,254.92c-.07.17-.14.34-.2.5.07-.16.13-.33.2-.5Z"/><path class="b" d="M256,228.65h0c0-.12,0-.23,0-.35,0,.12,0,.23,0,.35Z"/><path class="b" d="M255.99,228.31c-.02-.76-.03-1.51-.05-2.27.02.75.03,1.51.05,2.27Z"/><path class="b" d="M255.86,221.63c-.01-.71-.02-1.4-.03-2.07,0,.67.02,1.36.03,2.07Z"/><path class="b" d="M253.88,180.99c.28.82.82,1.54,1.41,2.03-.59-.49-1.12-1.21-1.41-2.03Z"/><path class="b" d="M255.82,215.88c0,.83,0,1.74,0,2.7,0-.97,0-1.87,0-2.7Z"/><path class="b" d="M253.69,179.43c-.06.54.02,1.07.19,1.56-.17-.49-.25-1.02-.19-1.56Z"/><path class="b" d="M253.69,179.43c.04-.36.14-.73.31-1.09-.17.36-.27.73-.31,1.09Z"/><path class="b" d="M255.3,176.75c-.42.34-.75.69-.99,1.05.25-.36.57-.71.99-1.05Z"/><path class="b" d="M20.94,2.37c.26-.3.52-.6.76-.88-.24.28-.5.58-.76.88Z"/><path class="b" d="M3.25,45.5s-.14-.07-.27-.15c.13.08.22.14.27.15Z"/><path class="b" d="M254.25,42.48c.38.19.76.38,1.12.58-.36-.2-.74-.4-1.12-.58Z"/><path class="b" d="M2.48,45.01c-.3-.21-.68-.46-1.12-.75.44.28.82.54,1.12.75Z"/><path class="b" d="M18.89,4.81c.15-.2.35-.43.56-.69-.22.26-.41.5-.56.69Z"/><path class="b" d="M19.79,3.71c.24-.28.49-.58.75-.89-.26.3-.52.6-.75.89Z"/><path class="b" d="M0,228.65h0c.02,1.02.04,2.03.06,3.03-.02-1-.04-2.01-.06-3.03Z"/><path class="b" d="M238.91,254.45c-.06.14-.13.31-.2.48.07-.17.14-.33.2-.48Z"/><path class="b" d="M1.36,44.26c-.29-.19-.6-.39-.94-.59.33.2.65.4.94.59Z"/><path class="b" d="M.06,231.68c.01.74.02,1.47.03,2.18,0-.71-.02-1.44-.03-2.18Z"/><path class="b" d="M.42,103.66c-.09.2-.25.42-.34.75.09-.33.25-.55.34-.75Z"/><path class="b" d="M0,43.42h0c.14.08.28.17.42.25-.14-.08-.28-.17-.42-.25Z"/><path class="b" d="M256,43.42h0c-.2-.12-.41-.24-.63-.36.21.12.42.24.63.36Z"/><path class="e" d="M40.95,255.96c-.28,0-.55-.01-.83-.02-.55-.01-1.09-.02-1.62-.03-.26,0-.52,0-.78-.01-.51,0-1.01-.02-1.48-.02-.24,0-.47,0-.69,0-.45,0-.88,0-1.27,0-1.38,0-2.39.04-2.77.13h11.38c-.65-.01-1.29-.03-1.94-.04Z"/><path class="d" d="M238.71,254.92c.07-.17.14-.33.2-.48.03-.07.06-.14.09-.2-1.31-.74-4.83-2.15-6-2.25-.45-.04-.79,0-1.08.13s-.53.35-.78.67c-.5.64-1.05,1.68-2.14,3.19h9.25c.07-.12.16-.33.26-.57.07-.16.13-.33.2-.5Z"/><path class="d" d="M56.25,253.16c-1.25.48-2.55,1.63-4,2.84h8.75c-.18-.33-.36-.62-.54-.89-1.42-2.15-2.78-2.49-4.21-1.95Z"/><path class="d" d="M70.75,256h7.25c-2.07-6.92-7.6-4.68-7.25,0Z"/><path class="d" d="M113.25,256h8c-3.27-4.24-4.4-2.4-8,0Z"/><path class="d" d="M203,256h11.75c-.44-6.12-9.04-2.43-11.75,0Z"/><path class="e" d="M256,203.5v-1.25c-.04.49-.08.98,0,1.25Z"/><path class="e" d="M255.87,213.64c-.03.65-.05,1.4-.06,2.23,0,.83,0,1.74,0,2.7,0,.32,0,.65,0,.99,0,.67.02,1.36.03,2.07.01.71.03,1.43.04,2.17s.03,1.48.05,2.24.03,1.51.05,2.27c0,.12,0,.23,0,.35v-16.65c-.02.15-.04.3-.05.47-.03.34-.06.73-.08,1.17Z"/><path class="e" d="M256,189.19v-5.69c-.11,1.39-.07,3.53,0,5.69Z"/><path class="d" d="M245.5,120.88c-1.46,1.49,7.93,6.9,10.5,8.38v-9.25c-4.9-2.84-6.73-5.09-10.5.88Z"/><path class="c" d="M256,247.75v-5.75c-1.66,1.36-1.58,4.42,0,5.75Z"/><path class="d" d="M254.31,177.8c-.12.18-.23.36-.31.54-.17.36-.27.73-.31,1.09-.06.54.02,1.07.19,1.56.28.82.82,1.54,1.41,2.03.23.2.48.36.72.48v-7.25c-.26.16-.49.33-.7.5-.42.34-.75.69-.99,1.05Z"/><path class="c" d="M252.5,41.75c.58.2,1.17.45,1.75.73.38.19.76.38,1.12.58.21.12.42.24.63.36v-3.67c-1.89.58-5.03,1.44-3.5,2Z"/><path class="d" d="M256,164.5v-2.5c0,.19-.75.95-.75,1.12,0,.3.75,1,.75,1.38Z"/><path class="d" d="M256,10.5v-3c-3.29,2.1-2.89,4.21,0,3Z"/><path class="c" d="M254.75,198.12c-.13,1.56,1.11,2.37,1.25,2.88v-4.75c-.02.11-1.14.53-1.25,1.88Z"/><path class="e" d="M61,2.12c-.34,1.28-17.9,17.86-19.12,18.38-3.67,1.54-6.14-2.72-4.88-5.88.39-.98,14.03-13.6,15.25-14.62-.66.05-1.57.07-2.66.08-1.08,0-2.34,0-3.67-.02-.27,0-.54,0-.81-.01-.73-.01-1.48-.03-2.23-.04h-11.38c-1.07.25-7.08,8.36-8.88,9.5-.88.22-2.38-.85-3.32-2.06-.28-.36-.51-.74-.66-1.09-.15-.35-.21-.69-.15-.98.01-.06.16-.27.39-.56.15-.2.35-.43.56-.69.11-.13.22-.27.34-.41.24-.28.49-.58.75-.89.13-.15.26-.3.39-.45.26-.3.52-.6.76-.88.61-.7,1.11-1.27,1.3-1.49H0v7.5c4.98-3.18,4.85.97,0,3v29.25c.93-.28,6.99-1.99,7.38-2,4.75-.16,3.3,10.34-4.12,7.75-.44,1.96-.88,3.37-3.25,2.75v6.5c1.74-.93,8.51-4.42,9.88-4.25,2.04.26,3.59,3.21,3.12,5.12-.21.87-11.3,8.72-13,9.88v36.5c0,.6.5,1.3.5,1.38,0,.1-.03.19-.08.29-.09.2-.25.42-.34.75-.05.17-.08.36-.08.59v15c1.94,1.12,13.16,8.13,12.5,9.62-2.46,6.53-5.28,3.76-12.5-.38v8.5c.4.5,6.98,9.99,7,10.62,0,.33-3.58,4.04-4.12,4.62-.94-1.08-1.97-2.14-2.88-3.25v12.25c1.48,0,7.77,4.7,3.62,5.5l-3.62-3v11.75c.46-.29,9.35-4.64,9.88-4.5.37.1,3.98,6.26,3.88,6.62-3.16,1.59-10.61,6.67-13.75,5.12v5.69c.09,2.93.21,5.89,0,7.06,2.57-.07,2.91,5.31,0,4.75.08.29.04.77,0,1.25v1.25c.2.67,1.85.96,1.5,4.12-.11.97-1.3,2.77-1.5,4.38v16.65c.02,1.02.04,2.03.06,3.03.01.74.02,1.47.03,2.18.04,3.21.03,6.11-.09,8.13.78-.64,16.06-3.02,16.88-2.75.47.16,1.4,6.4,1.62,7.38-3.68.24-16.07,3.17-18.5,1.12v8.25h23c1.23-1.46,10.3-11.34,11.12-11.5,8.7,1.9,0,6.32-2.62,11.5.38-.09,1.39-.13,2.77-.13.4,0,.82,0,1.27,0,.23,0,.46,0,.69,0,.47,0,.97.01,1.48.02.26,0,.52,0,.78.01.53,0,1.07.02,1.62.03.27,0,.55.01.83.02.64.01,1.29.03,1.94.04h9.37c1.45-1.21,2.75-2.37,4-2.84,1.43-.54,2.79-.2,4.21,1.95.18.27.36.57.54.89h9.75c-.35-4.68,5.18-6.92,7.25,0h7c3.91-3.96,28.97-29.93,30.88-31,3.34-1.88,6.81.41,6.62,4.12-8.64,8.87-17.38,18.12-26.25,26.88h17c3.6-2.4,4.73-4.24,8,0h30.75c-.68-9.27.82-6.32,8.88-6.75l.12,6.75h42c2.71-2.43,11.31-6.12,11.75,0h14.25c1.08-1.51,1.63-2.55,2.14-3.19.25-.32.49-.54.78-.67s.63-.17,1.08-.13c3.46-10.71-.26-12.73,0-13.38.16-.41,2.52-.48,2.75-.75.5-.58,2.05-13.06,3-15,1.86-3.77,7.24-2.05,7.25,2.25,0,1.7-4.75,25.49-6.38,29.38l-.62-.25c-.03.06-.06.13-.09.2-.06.14-.13.31-.2.48-.07.17-.14.34-.2.5-.1.24-.19.45-.26.57h17.75v-8.25c-1.58-1.33-1.66-4.39,0-5.75v-13.35c0-.12,0-.23,0-.35-.02-.76-.03-1.51-.05-2.27s-.03-1.5-.05-2.24-.03-1.46-.04-2.17c-.01-.71-.02-1.4-.03-2.07,0-.33,0-.66,0-.99,0-.97,0-1.87,0-2.7,0-.83.03-1.58.06-2.23.02-.44.04-.83.08-1.17.02-.17.03-.33.05-.47-4.29,3.41-12.44,13.08-13.75,2.38,3.19-2.94,11.04-11.81,13.75-10.88-.08-.27-.04-.76,0-1.25v-1.25c-.14-.5-1.38-1.32-1.25-2.88.11-1.35,1.23-1.76,1.25-1.88v-7.06c-.07-2.16-.11-4.31,0-5.69-.24-.12-.48-.28-.72-.48-.59-.49-1.12-1.21-1.41-2.03-.17-.49-.25-1.02-.19-1.56.04-.36.14-.73.31-1.09.09-.18.19-.36.31-.54.25-.36.57-.71.99-1.05.21-.17.44-.34.7-.5v-11.75c0-.37-.75-1.07-.75-1.38,0-.17.75-.94.75-1.12v-12.25c-.83-1.02-6.75-8.85-7-9.38-1.58-3.33,3.39-5.58,4.88-5.12.16.05,1.83,2.13,2.12,2.5v-8.5c-2.57-1.47-11.96-6.89-10.5-8.38,3.77-5.97,5.6-3.71,10.5-.88v-15c-1.24,1.52-3.5,3.54-5.62,2.5-.68-.33-7.73-12.13-7.88-12.88-.61-3.13,3.8-6.22,6.12-4.88.62.36,5.99,10.89,7.38,12.25v-36.5c-1.62,1.1-12.82,8.47-13.62,8.5-2.34.08-4.37-3.14-4.12-5.38.38-3.5,14.28-12.03,17.75-13.88v-6.5c-2.47-.65-9.23-5.21-3.5-6.5-1.53-.56,1.61-1.42,3.5-2V10.5c-2.89,1.21-3.29-.9,0-3V0h-2.25c4.76,5.16-3.86,4.85-1.25,0h-14.25c-1.36,2.45-13.34,21.88-14.25,22.88-3.47,3.77-7.95-.01-7.5-3,.18-1.16,10.98-17.76,12.5-19.88h-14.25c-.18,1.16-8.34,6.34-8.88,6.5-3.32,1.01-6.81-2.97-2.88-6.5h-81.75c.78,1.79,0,2.01-.88,3-.55.62-12,10.16-12.75,10.5-4.06,1.85-6.96-2.31-5.88-4.62.31-.66,10.17-7.99,11.5-8.88h-17c-.84.83-5.73,5.83-6.12,6-2.12.9-4.38-.38-5.15-2.57-.21-.6-.31-1.26-.26-1.97.03-.47.12-.96.29-1.46h-7c.88,2.95,1.77,8.77,2.5,12.12.35,1.62,2.19,7.09,2.25,7.75.44,5.09-4.6,6.37-6.5,3.5-1.08-4.43-5.32-20.97-5.5-23.38h-9.75c-.09.64.12,1.66,0,2.12ZM40.62,1c4.94,1.25-.67,6.38-1.12,1.12l1.12-1.12ZM116.62,252c-3.99.48-6.56-6.43-2.5-7,4.31-.6,6.73,6.49,2.5,7ZM252.88,230.25c5.4.32-.67,7.51-.88,1.12l.88-1.12ZM247.88,248.5c5.38,1.15-.88,7.12-1.12,1.12l1.12-1.12ZM252.38,76.75l1.12.62c1.36,8.89-5.69,4.75-1.12-.62ZM53.62,19c5.3.91-.98,7.32-1.12,1.12l1.12-1.12ZM59.62,56.75c1.39-.24,3.49,2.53,5.38,3.88.95,4.55-8.79-2.84-5.38-3.88ZM68.25,74.62c-1.14,4.1-8.3-5.99-4.88-6.88,1.59-.92,5.02,6.37,4.88,6.88ZM73.62,89c5.19-.68,6.8,5.22,3.5,7.75-.75.58-16.81,6.63-17.75,6.75-5.37.69-7.09-4.75-3.75-7.25.78-.58,17.04-7.12,18-7.25ZM116.5,58.62l-3.88,4.38-13.12-13.38c-.73-.99,3.74-4.4,4.12-4.38l12.88,13.38ZM108.12,33.75c3.7-.54,12.45,3.84,6.25,7.75-12.69-.02-10.21-7.17-6.25-7.75ZM100.12,68.25c1.84-.09,2.94,1.16,4.12,2.38,1.28,1.31,21.68,27.12,22.5,28.75,1.86,3.68-2.68,8.99-7.75,3.75-1.25-1.29-21.44-26.65-22.25-28.25-1.63-3.21.38-6.48,3.38-6.62ZM145.75,65.62c.36-.5,1.83-1.76,2.38-1.88,2.96-.62,5.3,1.62,4.88,4.62-.17,1.21-8.77,19.21-9.75,22.5-2.53,3.42-7.72,1.06-7.25-3,.14-1.21,9.05-21.26,9.75-22.25ZM142.38,52l1.62,1.12c.44,6.99-6.19,2.36-1.62-1.12ZM199.5,69.38c1.51,2.62-1.12,7.85-4.12,6.38-1.18-.58-15.95-12.09-19.12-14.38-1.24-2.29,1.06-6.45,3.62-6.62.67-.05.92.24,1.5.25,2.13,2.18,17.55,13.37,18.12,14.38ZM193.5,49.88l.88-1.62c3.39.33.7,4.72-.88,1.62ZM218.75,74.12c.63-.7,1.67-1.73,2.62-1.88,3.28-.51,6.49,2.61,4.62,5.88-3.96,4.81-16.58,26.1-18.25,28-3.55,4.03-9.27.91-7.25-4,.63-1.55,17.14-26.75,18.25-28ZM214,54.38l.88-.88c5.89.68-.91,7.6-.88.88ZM203,142.88l1.12-.88c6.15,2.47-.11,6.67-1.12.88ZM202.62,160.5h1c3.62,6.54-4.72,6.57-1,0ZM196.12,127.25c-3.03-3.55.99-7.09,4.25-6.5.8.15,11.33,9.01,12.62,10.25,4.9-6.41,7.78-3.32,1,1,1.63,1.62,3.72,3.04,3.5,4.88-.65,1.63-2.67,4.22-4.62,3.88-1.06-.19-16.05-12.68-16.75-13.5ZM184.62,196.5c-1.54-.27-8.76-12.33-8.88-13.12-.35-2.36,1.99-4.19,3.12-4.38,4.58-.76,8.27,10.25,10.88,13.38-.46,2.25-2.77,4.54-5.12,4.12ZM192.38,203.75c3.81,1.11-4,7.07-3.12,2.38l3.12-2.38ZM158.12,184c-2.8-2.76.71-6.42,3.75-6.75,4.05-.44,11.8.8,8.38,6.62-1.72,2.93-9.39,1.26-12.12.12ZM159.5,197.88l1.12-1.12c5.85,1.56.13,6.47-1.12,1.12ZM159.88,207c1.13-.07,1.43.49,2.12,1.12.59.53,9.69,11.52,10,12.25,1.37,3.26-2.41,7.15-5.62,6.62-1.38-.23-12.31-13.42-12.38-14.38-.13-1.71,4.19-5.03,5.88-5.62ZM171.75,199.12l3.88-3.62c3.49.69-3.84,7.67-3.88,3.62ZM157,118.12l1.12-1.12c5.32,1.02-.95,7.41-1.12,1.12ZM161.12,119.5c5.17.84-1.63,6.29-1.88,1.88l1.88-1.88ZM159,137.12c1.01-1.8,9.88-7.4,11.88-7.62,3.67-.41,7.2,2.96,5.12,6.62-.38.68-12.36,8.24-13.12,8.38-1.76.3-6.17-3.31-3.88-7.38ZM170.88,113.5c4.09.39-2.23,4.79-4.25,6-2.06-1.73,1.91-3.23,4.25-6ZM177.12,146c7.93,2.76.44,7.33-1.12.88l1.12-.88ZM177.38,121l1.5.25c4.8,6.73-4.78,4.95-1.5-.25ZM181.88,162c4.71,2.63-1.55,7.51-1.38,1.12l1.38-1.12ZM183.25,140.38c-.26-2.23,2.52-4.34,4.38-5.12.58-.06,1.14.02,1.62.38.88.65,11.1,17.67,11.25,18.75.34,2.42-3.32,5.01-6.12,3.88-.98-.4-11-16.83-11.12-17.88ZM188.12,97.75c2.75-.55,5.01,1.3,5.12,4.12.03.77-1.76,14.52-2,15.25-1.15,3.58-5.92,3.16-7.25.5-.75-1.49.23-19.56,4.12-19.88ZM198.88,84.5c2.23-.17,1.66,4.5,2.12,6.88-2.86,3.5-3.57-6.57-2.12-6.88ZM209.5,115.38c1.64-1.82,6.87-9.98,8.62-10.38,3.13-.71,7.05,2.08,5.12,6.38-.24.54-6.56,9.22-7.12,9.38-1.48.47-7.03-4-6.62-5.38ZM211,146.38l.88-.88c7.08,1.83.81,7.49-.88.88ZM210.5,179.88c-.24-1.85,2.33-4.05,3.88-4.88,2.61-1.21,6.96,7.95,9.62,11.38.51,1.94-3.14,3.6-4.88,5.38-1.48-1.34-8.52-11.06-8.62-11.88ZM210.38,196.75c-1.65-.86-.83-5.86.75-6,2.3-.2,1.54,6-.75,6ZM223,164.38c-3.47,4.67-9.15,1.9-8.25-3,.18-.97,8.17-16.95,8.75-17.75.64-.87,2.05-2.21,3.12-2.38,3.16-.49,5.87,2.19,4.88,6.12-.23.92-7.93,16.24-8.5,17ZM204.12,75l5.38,4.12c.32,5.53-9.67-4.12-5.38-4.12ZM209.88,70.25l-11.12-8.12,4.88-5.38,10.38,8.38-4.12,5.12ZM179.12,77.25c-1.77-.73-1.42-6.73.25-6.75,1.57-.02,1.81,6.38-.25,6.75ZM176.38,42.5c-1.06-.38-.97-5.19,1-6,2.37-.27,1.59,6.94-1,6ZM183.62,78.75c3.55-.56,6.26,2.75,4.62,6.12-.57,1.19-15.25,16.96-17.38,19.88-3.56,1.9-8.53-1.55-5.12-6.88.71-1.11,16.26-18.87,17.88-19.12ZM170.5,68.38c.4,1.97-.85,15.55-7.38,12.38-4.38-2.14-1.74-15.19,2.25-15.75,1.93-.27,4.73,1.41,5.12,3.38ZM171.38,52.75l1.12.62c-1.37,9.46-6.45,5.15-1.12-.62ZM164.12,88.5c5.42.5-6.5,9.44-5.12,4.38l5.12-4.38ZM155.88,99h1c6.49,6.79-4.77,5.27-1,0ZM158.12,154.5c1.67-.05,13.59,7.91,16.38,9.12,1.03,1.42-3.47,6.27-4.88,6.12-.9-.09-15.63-7.61-16.12-8.38-1.77-2.7,2.6-6.81,4.62-6.88ZM153.88,170.5c2.95,2.51,6.89,3.87,4.5,5.5-1.2.63-8.49-4.29-4.5-5.5ZM120.88,158c-4.82-.71-5.26-6.05-1.5-7.75,1.03-.46,20.87-4.96,22-5,4.41-.16,6.88,5.26,2.75,7.25-1.69.81-18.92,3.98-23.25,5.5ZM143.5,174.12c-.09.65-4.83,11.5-5.25,12-2.39,2.89-8.12-.1-7.75-3.5.07-.63,4.63-11.23,5-11.75.47-.68,1.82-1.74,2.62-1.88,3.15-.54,5.82,1.97,5.38,5.12ZM126.88,160.5h1.25c4.3,4.39-4.52,4.71-1.25,0ZM144.5,127.38c-.27-1.36-.26-26.39,0-27.75.26-1.34,2.08-3,3.38-3.12,2.83-.28,4.32,2.26,4.62,4.62.17,1.3.24,24.96,0,26.25-.86,4.57-7.13,4.33-8,0ZM137.88,109.25c4.54-1.55-2.99,9.42-3.88,4.62l3.88-4.62ZM135.12,120.75c1.92-.34,4.37,2.73,6.12,4.12l-3.12,4.38c-3.2-2.33-7.63-5.45-3-8.5ZM133.88,135.75c-2.19.88-15.11,7.73-16,7.75-1.94.04-5.47-3.77-4.88-5.88,1.85-.97,14.98-8.17,15.88-8.12.4.02,5.47,5.54,5,6.25ZM110.25,129.38l.88-.88c5.45,3.15-1.83,8.86-.88.88ZM108.75,112.38c-.41-1.94,1.56-3.54,3.12-4.38,2.72-.64,8.77,8.34,11.88,11.38.29,1.64-2.92,4.52-4.38,4.12-.74-.2-10.46-10.37-10.62-11.12ZM128.88,85.5l1.12.88c.48,9.62-5.77,3.58-1.12-.88ZM97.5,100.38c4.52-6.19,9.07-2.18,8.5,1.25-.27,1.65-15.07,25.05-17,28.88,1.48.84.46,4.01-.62,5-.47.43-10.07,5.12-11.5,4.5-7.13-5.08,2.94-7.43,6.62-9.75-1.05-.89-1.47-2.57-1.25-3.88.25-1.49,14.36-24.78,15.25-26ZM89.12,162.25c-4.9.75-9.42-4.39-7-6.75.73-.71,16.99-9.41,18-9.5,2.26-.2,4.53,4.95,5.88,6.62-2.54,1.84-14.92,9.32-16.88,9.62ZM94.88,174.75c-2.02-.58,1.51-5.04,3-7.75,3.74-.42-1.49,7.59-3,7.75ZM46,193.62c-.27-1.23,3.53-3.96,4.38-5.12h1c2.92,4.38,16.23,10.59,7,15-2.75.36-9.11-7.17-12.38-9.88ZM47.38,213c-2.16-2.23,1.93-3.75,4-5.5,4.43,1.56-2.09,4.76-4,5.5ZM59.38,176l1.12.62c.94,8.62-5.31,4.54-1.12-.62ZM61.38,206.5c6.58.56-1.09,6.5-1.38,1.12l1.38-1.12ZM58.25,170.38c-2.99,6.25-8.94,2.94-8.5-1.25,2.37-5.18,9.87-28.35,10.75-30,.42-.8,2.03-2.45,2.88-2.62,3.06-.64,5.68,1.7,5.12,4.88-2.82,6.27-8.37,25.05-10.25,29ZM38.38,149.75c-5.68-3.41,6.4-10.53,8.5-12.75l3.88,4.62c-2.75,1.92-9.06,10.12-12.38,8.12ZM44.38,155l1.62.62c.84,9.49-3.49,7.2-1.62-.62ZM22.62,149c-3.78,1.49-5.96-2.72-3.88-6.38.85-1.49,24.45-21.75,26.12-22.12,3.6-.82,6.39,2.89,5.62,4.88-3.71,2.76-26.18,22.95-27.88,23.62ZM34.12,152.5l1,.25c3.69,6.27-6.01,4.5-1-.25ZM16.62,96l1.88.88c-.54,2.68-3.8,1.03-1.88-.88ZM24.88,84c1.98-.37,2.19,4.55,1.88,5.62-.13.43-5.43,5.76-6.38,6.38-3.04-1.53,4.11-6.07,4.38-7.62.23-1.36-1.85-3.05.12-4.38ZM21.38,106.75c.94-1.84,8.62,9.19,8.62,9.88,0,.52-3.07,3.19-3.62,3.88-.94.17-7.29-9.26-7.38-9.88-.19-1.38.93-3.46,2.38-3.88ZM22.62,126.5l1.38.62c2.43,8.32-5.25,4.26-1.38-.62ZM38.88,89c4.48,1.23-1.21,3.8-4,6.75-5.31-.27,2.07-4.8,4-6.75ZM66.75,159.62l1.12-.88c5,1.11-1.14,6.32-1.12.88ZM75.38,163.25c6.36,1.45-3.69,6.35-7.5,10-6.81-.79,3.45-6.24,7.5-10ZM70.88,122.5c.65-.11,6.7,3.72,3.75,5-.99.23-6.89-3.88-3.75-5ZM74.25,146.12l.62-1.62c6.06,1.39,3.83,6.16-.62,1.62ZM69.88,189.75c3.98-1.02-2.05,10.38-3.38,5.12l3.38-5.12ZM71.25,180.62c.3-.56,10.49-6.19,11.12-6.12.46.05,4.17,5.11,4.88,5.88-1.54.81-10.73,6.29-11.38,6.38-2.11.27-5.91-3.69-4.62-6.12ZM76.75,194.88c.19-.63,8.85-4.82,9.38-4.88,2.73-.3,3.8,4.63,5.12,6.62-.1.68-8.84,5.21-9.38,5.12-.44-.07-5.79-5.78-5.12-6.88ZM93.88,142.5c4.45,1.71-4.36,5.4-5.75,7.25-5.56-1.09,4.21-5.46,5.75-7.25ZM103.12,124.75c3.5-.08.77,3.24-.12,7.12-3.94,1.19-.59-5.34.12-7.12ZM93.88,91.75c4.79.4-1.88,5.73-2.75,7.5-4.54.01-.03-3.51,2.75-7.5ZM92.5,56.88l.88-1.62c4.59,0,1.24,6.38-.88,1.62ZM93.75,85.88c-7.19,4.64-11.97,9.67-14.75.25,1.1-.97,9.3-5.81,9.88-5.88,2.03-.22,5.45,3.31,4.88,5.62ZM81.12,105.5c1.45-.14,4.87,4.68,4.38,6.38-.36,1.26-18.67,8.9-21.12,10.62-3.98-.19-5.71-4.53-2.5-7.25.82-.7,18.18-9.65,19.25-9.75ZM54.75,85.12c-2.24,3.6-12.98,27.44-14.62,28.38-2.79,1.59-7.17-.93-6.38-5.38,2.96-4.21,12.14-24.12,13-25.25.43-.57,1.99-1.98,2.62-2.12,3.04-.68,5.73,1.19,5.38,4.38ZM52.75,67.62c-.27,2.47-5.29,5.93-8.25,1.25-1.19-1.88-6.9-16.74-9.25-21,.05-2.54,1.81-3.99,4.12-4.62,3.82-1.02,7.65,11.13,10.12,16.88.77,1.8,3.45,5.71,3.25,7.5ZM45.62,19.75c8.78,2.04-2.8,8.26-7.5,13.5-9.49-1.32,2.55-8.63,7.5-13.5ZM33.38,65.25c5-.36,5.5,5.42,3,7.25-.48.36-10.9,3.45-11.5,3.5-5.65.47-6.05-5.43-3-7.25.52-.31,10.9-3.46,11.5-3.5ZM27.38,19.25c2.54-.4,3.07,2.23-.75,3.75-3.1-.84-.5-3.55.75-3.75ZM27.12,36.5c4.72.57-.59,5.96-.88.88l.88-.88ZM27.12,26.5c2.7-.83.97,6.94.88,8.38-3.95,2.77-1.46-8.19-.88-8.38ZM26.12,55.25c1.48-.2,4.25,4.12,3.88,5.38-5.87,3.79-10.06,8.36-12.75,2-1.55-1.49,8.28-7.29,8.88-7.38ZM18.88,46.25c-2.74-3.24-6.17-4.23-3.25-6,2.92,2.11,7.23,5.54,3.25,6ZM13.75,32.12l4.12-5.12c4.06-.94-3.46,10.27-4.12,5.12ZM3.88,24.5l1.12.62c-2.07,7.47-8.4,4.62-1.12-.62ZM6.25,19.88c-.23-1.05.11-17.32,3.88-16.88,1.96-.39,4.36,1.01,4.62,3.12.12.98-.91,13.79-1.25,14.5-1.56,3.23-6.57,2.34-7.25-.75ZM7,75.88c.24-1.55,1.68-3.87,3.38-4.12,1.7-.26,3.75.8,4.12,2.62.13.65.13,12.6,0,13.25-.85,4.15-7.14,4.2-7.75-.5-.07-.56.16-10.69.25-11.25ZM10.38,116.5c-6.89,1.87-4.93-13.96-1.75-14.75,1.95-.49,4.21.52,4.62,2.62.27,1.36.26,11.92-2.88,12.12ZM12.12,125.5c-1.9-1.4,1.8-3.91,3.75-6.25,4.33.08-3.3,6.38-3.75,6.25ZM11.12,134.25c8.09,4.89-.69,6.72-.62.62l.62-.62ZM14.38,155.75c.71-.05,1.8.27,2.5.5,1.76.58,30.36,18.02,31.75,19.25,4.38,3.86.68,8.85-4,7.5-1.12-.32-16.66-10.99-19.5-12.75-8.19-5.09-21.17-8.9-10.75-14.5ZM40.38,193.25c-3.59-3.08-11.3-6.2-7.5-8,3.84,2.85,12.53,7.17,7.5,8ZM22.88,192.25c9.58,4.48-.56,8.64-1.38,1.12l1.38-1.12ZM16.38,182.75c-4.28-3.34,2.71-5.94,5-8,6.64,1.56-2.38,9.17-5,8ZM12.62,195c.31-.06,2-.06,2.25,0,1.15.28,5.97,9.07,6.12,9.62,1.06,3.9-3.62,7.14-6.5,4.75-.81-.67-5.35-9.72-5.25-10.75.12-1.28,2.06-3.39,3.38-3.62ZM17.62,234c-.4-.05-5.1-5.92-5.5-6-.65-.14-4,4.2-4.75,4.75-9.68-6.43.03-8.19-.12-9.88-.13-1.42-3.97.06,3.38-7.12l12.88,13.62c.18.99-5.5,4.67-5.88,4.62ZM28.5,239.25c.16,1.54-2.22,3.56-3.5,2.75-3.92-.76,3.47-5.68,4.12-5.5,1.32,1.46.38,1.82-.62,2.75ZM29.62,224c-.83-.16-14.23-6.94-5.5-11.5,1.7-.73,8.74,3.94,9.38,4.88,2.04,2.98.09,7.41-3.88,6.62ZM47.25,244.88l4.12-2.62c5.3,1.84-4.91,6.38-4.12,2.62ZM46,234.38c-.89-1.35-9.47-22.36-12.25-27-.8-2.02,1.12-4.79,3.12-5.12,2.04-.34,3.14.41,4.38,1.88,1.74,4.23,11.63,25.57,12,27,1.17,4.52-4.46,7.47-7.25,3.25ZM63.75,242.88c-.86-1.09-11.65-23.66-12-25-.54-2.06.44-4.75,2.88-5.12,1.83-.28,3.59.64,4.62,2.12.8,1.14,9.16,21.3,11.75,25.25-.06,3.77-4.66,6.03-7.25,2.75ZM74.75,233.12l1.12-.88c7.7,2.03,2.23,8.14-1.12.88ZM86.62,246.25c-1.39.98-7.21-5.3-4.5-6.25.86-.24,6.65,5.58,4.5,6.25ZM103.75,223.62c-.25.88-13.51,11.07-14.38,11.38-2.93,1.04-6.53-1.97-5.38-4.62.36-.83,12.9-11.43,13.88-11.62,3.9-.78,6.45,2.83,5.88,4.88ZM74.38,224.75c-3.52.85-7.78-3.67-3.5-7,1.68-1.31,32.88-16.6,38-19.25,3.81.64,5.82,4.73,2.25,7.25-2.22,1.57-30.76,15.12-36.75,19ZM110.12,214.75l1.5-.5c6.39,2.61-4.74,5.9-1.5.5ZM115.88,192.75c-1.83,1.29-17.26.9-19,0-3.11-1.61-1.9-6.59,1.25-7.25.76-.16,14.74-.14,15.5,0,3.15.59,5.16,5.19,2.25,7.25ZM108.12,181c-3.94.42-8.17-4.81-3.75-8.25.56-.43,12.05-5.93,12.75-6,3.43-.34,8.22,4.7,4.5,7.75-.58.47-12.76,6.42-13.5,6.5ZM121.75,196.62l.88-1.38c7.36,1.71,4.37,7.04-.88,1.38ZM126.12,252.5c-2.39.8-2.14-6.29-.25-6.25,1.57.03.99,6,.25,6.25ZM139.62,247.25c-.4.11-7.85.09-8.25,0-3.29-.74-2.86-7.05.75-7.75.43-.08,7.14-.11,7.5,0,1.68.51,2.31,7.13,0,7.75ZM131.12,226.75c2.04,1,12.17,5.13,7.25,7-3.57-2.43-10.33-4.85-7.25-7ZM146.38,222c1.3.12,1.2,6.58,1.38,7.88-2.63,3.71-3.79-8.09-1.38-7.88ZM147.88,212l1.62,1.12c-.26,5.74-5.56,2.44-1.62-1.12ZM129.38,218.5c-3.28.72-7.16-2.19-5.38-5.62.77-1.48,20.55-20.83,23.62-23.62,3.62-.75,6.88,2.95,5.12,6.38-.75,1.46-21.77,22.52-23.38,22.88ZM193.38,254.25c-6.24-2.98-37.33-13.87-39.25-15-4.08-2.39-1.26-5.23.75-8,7.14,3.12,35.88,12.83,39.5,14.75,5.49,2.91,2.09,8.34-1,8.25ZM176.5,223.62l.88-.88c7.01,3.12,1.17,7.72-.88.88ZM186.25,230.25c.25,0,.31-.35.62-.25.59.18,8.21,7.06,9.38,8.12-1.11,3.56-6.41-3.6-10-6.12-4.35,3.45-3.43-5.5,0-1.75ZM194.12,223.5c-2.43-2.11-20.25-15.16-20.38-16.62-.03-1.56,2.27-4.12,3.62-4.38,1.08-.21,1.62.07,2.5.5,1.07.52,15.7,12.75,18.62,14.88.68,1.88-3.21,4.45-4.38,5.62ZM198.5,184.12c-1.29-2.16-8.32-8.38-7.75-10.5l3.62-3.38c2.41-1.02,6.58,6.69,9.12,9.62.07.82-4.47,5.58-5,4.25ZM200.75,198.12c-.85-2,.63-4.6,2.62-4.88.53-.07,1.5.06,2,.25,1.64.62,14.2,14.93,16.38,17.62l-4.38,4.62c-1.9-2.51-16.15-16.51-16.62-17.62ZM205,220.88l.88-.88c8.21,3.94,2.62,8.34-.88.88ZM219.62,254.25c-.88-.32-1.1-6.21.25-6.5,2.37-.51,2.37,7.46-.25,6.5ZM221.5,238.88c-.29.48-8.83,6.02-9.38,6.12-3.7.73-6.1-3.57-4.38-6.62.28-.5,8.56-6.78,9.12-6.88,2.92-.52,6.24,4.66,4.62,7.38ZM227.62,228.75c-3.08-3.72-9.22-5.73-3-10,.74-.06,6.75,5.43,6.88,5.88.58,1.99-1.62,5.05-3.88,4.12ZM239.62,208c-2,1.57-11.36-1.49-12.38-3.12-1.57-2.54-.32-7.08,2.88-7.62,1.48-.25,16.09,3.25,9.5,10.75ZM233.62,192.5c1.2-.58,4.95,2.8,3.25,4.25-1.64.67-4.86-3.47-3.25-4.25ZM245.62,196.5c-1.24-.86-18.43-22.13-18.62-23.62-.22-1.7,1.59-4.76,3.38-5.12,1.42-.29,2.12.04,3.12.88,1.13.94,17.58,21.69,18.25,23,2.51,4.94-2.58,7.34-6.12,4.88ZM233.62,128c2.34-.54,1.55,4.94,1.88,6.38-2.99,3.58-3.35-6.04-1.88-6.38ZM252.5,179.88c1.14,7.49-5.58,4.15-.62-.62l.62.62ZM251.25,162.88c1.25,4.48-3.93,7.79-7.25,3.75-.42-.51-6.33-10.86-6.5-11.5-.61-2.37,1.4-5.75,3.88-5.88.36-.02,1.21.13,1.5.25.84.35,8.16,12.61,8.38,13.38ZM242.88,136l1.75.25c3.77,4.94-5,4.22-1.75-.25ZM245.5,110.88c-.18.87-11.27,10.77-12.88,12.12l-3.62-3.88,13.38-13.12c.45-.03,3.23,4.34,3.12,4.88ZM230.12,101.75l.88.62c2.52,9.11-3.93,5-.88-.62ZM239.62,78.75c.18-.09,1.42-.5,1.5-.5,2.87-.15,4.59,3.37,4.12,5.88-.23,1.24-12.95,13.98-13.88,14.38-3.25,1.37-6.97-2.94-5.12-6.62.42-.84,12.54-12.7,13.38-13.12ZM244.5,49.12c-.42.97-13.65,14.96-14.62,15.38-2.03.86-6.13-2.03-5.12-4.38.47-1.09,14.58-14.89,16.88-16.62,2.52.09,3.79,3.52,2.88,5.62ZM240.88,8.5c.66-.14,7.8,5.39,4.75,6-.5.1-8.13-4.71-4.75-6ZM229.5,32.88c.49-.96,15.57-13.41,16.62-13.62,3.98-.81,6.36,2.81,4.62,6.38-.43.89-14.46,12.24-15.38,12.62-4.19,1.76-7.71-1.78-5.88-5.38ZM219.62,37.75c1.89-.51,8.57,5.9,10.62,7.12l-4.12,6.38-10.38-8.12,3.88-5.38ZM212.12,35.25c2.65-.42,4.78,1.79,4.38,4.38-.22,1.41-9.75,15.49-15,7.5-.88-2.19,8.09-9,10.62-11.88ZM208,30.62l1.38-1.38c5.21,1.19-1.43,7.65-1.38,1.38ZM208.88,5h1c4.19,4.58-5,4.52-1,0ZM204.88,13.5l4.62,5.12c-2.99,3.15-21.34,25.08-22.88,25.88-2.78,1.44-6.16-1.13-5.38-4.62.39-1.73,20.61-23.46,23.62-26.38ZM191.88,6.5c.99-.56,5.42,4.74,5.38,5.12-.45,3.83-8.08-4.21-5.38-5.12ZM184.12,19h1c6.67,6.43-4.19,5.47-1,0ZM169.12,4.25c1.2-.2,12.37.83,13.5,1.25,4.18,1.54,3.75,6.75.25,7.5-.98.21-13.97-1.11-15-1.5-4.28-1.61-2.68-6.61,1.25-7.25ZM160.75,35.12c.24-.89,8.41-15.3,9-16,.4-.47,1.6-1.52,2.12-1.62,2.58-.49,5.25,1.77,5.12,4.38-2.15,3.1-8.96,16.59-9.75,17.5-2.95,3.41-7.71.22-6.5-4.25ZM155.12,53.75c-1.57-.26-13.95-8.97-5.5-12.75,1.04.02,1.98-.14,3,.25.52.2,7.66,7.36,7.88,7.88,1.15,2.76-2.14,5.16-5.38,4.62ZM158.38,11.25c3.68-.59-1,5.04-2.75,9.25-3.69.58.75-5.52,2.75-9.25ZM155.12,29c5.65-.83-3.99,8.61-4.38,3.12.11-.46,4.11-3.09,4.38-3.12ZM132.12,1.75c2.48-.56,5.8,3.11,5.38,5.88-.11.75-7.34,10.88-11.5,5.75-3.65-4.5,3.29-8.76,6.12-11.62ZM125.88,23h.75c3.35,5.8-5.17,5.67-.75,0ZM123,48.38c4.19-6.42,18.43-35.67,20.75-38.5.73-.89,2.21-2.04,3.38-2.12,2.41-.18,4.77,1.91,4.12,4.38-2.54,5.21-18.87,37.53-20.25,39.25-3.15,3.92-9.23,1.59-8-3ZM128.88,65c2.87-.72,7.49,2.41,6.12,5.62-.3.7-10.16,10.38-10.88,10.62-2.28.79-7.53-2.07-6.38-4.88.3-.74,10.35-11.18,11.12-11.38ZM116.38,43l1.38.38c1.41,8.32-6.28,5.54-1.38-.38ZM113.88,19.5c1.25.05,4.34,4.13,3.38,6.38-.44,1.03-18.07,9.02-19.12,9.12-3.96.38-6.61-4.52-3.5-7,.82-.66,18.2-8.54,19.25-8.5ZM94.12,12.5c7.36,4.34.78,8.09-1.38,1.12l1.38-1.12ZM89.38,11.25c2.43-.56,2.13,5.84.25,6-2.02.18-1.79-5.27-.25-6ZM91.12,40c4.08.91-1.38,4.16-2.5,5.75-4.63-.57,1.22-3.93,2.5-5.75ZM85.38,27.5h.75c3.76,6.84-5.55,5.74-.75,0ZM84.12,57.5c3.43-.51,7.3,5.41,4,8-.61.48-13.24,6.39-14,6.5-4.29.63-7.32-4.29-3-7.75.57-.46,12.28-6.64,13-6.75ZM79.75,47.62c.21.79-3.52,5.95-4.38,6.88-2.67-1.85-20.34-12.08-20.88-13.38-.92-2.23.27-6.12,2.38-6.62.25-.06,1.7-.06,2,0,1.21.22,18.2,11.43,20.88,13.12ZM72.12,31h1.5c2.04,4.59-6.39,3.74-1.5,0ZM65,25.38l1.12-1.12c3.98.74-.22,5.48-1.12,1.12ZM62.38,6.5l4.62,3.38c1.15,4.21-8.72-1.43-4.62-3.38Z"/><path class="d" d="M238.25,68.62c-.25,2.24,1.78,5.45,4.12,5.38.8-.03,12.01-7.4,13.62-8.5v-10.75c-3.47,1.85-17.37,10.38-17.75,13.88Z"/><path class="d" d="M248.62,89.75c-2.32-1.34-6.74,1.75-6.12,4.88.15.74,7.2,12.54,7.88,12.88,2.12,1.04,4.38-.98,5.62-2.5v-3c-1.38-1.36-6.76-11.89-7.38-12.25Z"/><path class="d" d="M242.25,214.38c1.31,10.7,9.46,1.04,13.75-2.38v-8.5c-2.71-.94-10.56,7.94-13.75,10.88Z"/><path class="c" d="M253.88,135.25c-1.49-.45-6.45,1.8-4.88,5.12.25.53,6.17,8.36,7,9.38v-12c-.29-.37-1.97-2.45-2.12-2.5Z"/><path class="d" d="M254.25,42.48c-.57-.28-1.16-.53-1.75-.73-5.73,1.29,1.03,5.85,3.5,6.5v-4.83c-.2-.12-.41-.24-.63-.36-.36-.2-.74-.4-1.12-.58Z"/><path class="d" d="M12.5,129.62c.66-1.49-10.56-8.5-12.5-9.62v9.25c7.22,4.14,10.04,6.91,12.5.38Z"/><path class="c" d="M18.5,246.62c-.22-.97-1.15-7.22-1.62-7.38-.81-.27-16.1,2.11-16.88,2.75v5.75c2.43,2.04,14.82-.89,18.5-1.12Z"/><path class="d" d="M13.75,178.38c.11-.37-3.5-6.52-3.88-6.62-.52-.14-9.42,4.21-9.88,4.5v7.25c3.14,1.55,10.59-3.53,13.75-5.12Z"/><path class="c" d="M1.36,44.26c.44.28.82.54,1.12.75.2.14.37.25.5.34.13.08.22.14.27.15,7.42,2.59,8.88-7.91,4.12-7.75-.38.01-6.45,1.72-7.38,2v3.67c.14.08.28.17.42.25.33.2.65.4.94.59Z"/><path class="d" d="M0,162v2.5l3.62,3c4.14-.8-2.15-5.5-3.62-5.5Z"/><path class="d" d="M0,7.5v3c4.85-2.03,4.98-6.18,0-3Z"/><path class="c" d="M0,196.25v4.75c2.91.56,2.57-4.82,0-4.75Z"/><path class="d" d="M224,22.88c.91-.99,12.89-20.42,14.25-22.88h-9.25c-1.52,2.12-12.32,18.71-12.5,19.88-.45,2.99,4.03,6.77,7.5,3Z"/><path class="d" d="M37,14.62c-1.27,3.15,1.21,7.41,4.88,5.88,1.23-.51,18.78-17.09,19.12-18.38.12-.47-.09-1.48,0-2.12h-8.75c-1.22,1.02-14.86,13.64-15.25,14.62Z"/><path class="d" d="M82.75,19.88c-.06-.66-1.9-6.13-2.25-7.75-.73-3.35-1.62-9.17-2.5-12.12h-7.25c.18,2.41,4.42,18.94,5.5,23.38,1.9,2.87,6.94,1.59,6.5-3.5Z"/><path class="d" d="M101.75,8.88c-1.08,2.32,1.81,6.47,5.88,4.62.75-.34,12.2-9.88,12.75-10.5.87-.99,1.65-1.21.88-3h-8c-1.33.89-11.19,8.22-11.5,8.88Z"/><path class="d" d="M205.88,6.5c.53-.16,8.69-5.34,8.88-6.5h-11.75c-3.94,3.53-.44,7.51,2.88,6.5Z"/><path class="c" d="M253.75,0h-1.25c-2.61,4.85,6.01,5.16,1.25,0Z"/><path class="c" d="M115.88,225c-1.91,1.07-26.96,27.04-30.88,31h11.25c8.87-8.75,17.61-18.01,26.25-26.88.19-3.72-3.29-6-6.62-4.12Z"/><path class="d" d="M34.12,244.5c-.83.16-9.89,10.04-11.12,11.5h8.5c2.62-5.18,11.32-9.6,2.62-11.5Z"/><path class="c" d="M152,256h9l-.12-6.75c-8.06.43-9.55-2.52-8.88,6.75Z"/><path class="c" d="M131,51.38c1.38-1.72,17.71-34.04,20.25-39.25.64-2.46-1.71-4.55-4.12-4.38-1.17.09-2.64,1.23-3.38,2.12-2.32,2.83-16.56,32.08-20.75,38.5-1.23,4.59,4.85,6.92,8,3Z"/><path class="c" d="M96.75,74.88c.81,1.6,21,26.96,22.25,28.25,5.07,5.24,9.61-.07,7.75-3.75-.82-1.63-21.22-27.44-22.5-28.75-1.18-1.21-2.29-2.46-4.12-2.38-3,.14-5,3.42-3.38,6.62Z"/><path class="c" d="M194.38,246c-3.62-1.92-32.36-11.63-39.5-14.75-2.01,2.77-4.83,5.61-.75,8,1.92,1.13,33.01,12.02,39.25,15,3.09.09,6.49-5.34,1-8.25Z"/><path class="c" d="M44.62,183c4.68,1.35,8.38-3.64,4-7.5-1.39-1.23-29.99-18.67-31.75-19.25-.7-.23-1.79-.55-2.5-.5-10.42,5.6,2.56,9.41,10.75,14.5,2.84,1.76,18.38,12.43,19.5,12.75Z"/><path class="d" d="M108.88,198.5c-5.12,2.65-36.32,17.94-38,19.25-4.28,3.33-.02,7.85,3.5,7,5.99-3.88,34.53-17.43,36.75-19,3.57-2.52,1.56-6.61-2.25-7.25Z"/><path class="d" d="M207.75,106.12c1.67-1.9,14.29-23.19,18.25-28,1.86-3.26-1.35-6.38-4.62-5.88-.95.15-2,1.18-2.62,1.88-1.11,1.25-17.62,26.45-18.25,28-2.02,4.91,3.7,8.03,7.25,4Z"/><path class="c" d="M63.38,136.5c-.85.18-2.45,1.83-2.88,2.62-.88,1.65-8.38,24.82-10.75,30-.44,4.19,5.51,7.5,8.5,1.25,1.88-3.95,7.43-22.73,10.25-29,.56-3.18-2.07-5.51-5.12-4.88Z"/><path class="d" d="M147.62,189.25c-3.08,2.79-22.86,22.14-23.62,23.62-1.78,3.43,2.09,6.35,5.38,5.62,1.6-.35,22.63-21.42,23.38-22.88,1.75-3.42-1.51-7.12-5.12-6.38Z"/><path class="d" d="M44.88,120.5c-1.67.38-25.28,20.64-26.12,22.12-2.09,3.66.1,7.87,3.88,6.38,1.7-.67,24.16-20.86,27.88-23.62.76-1.98-2.02-5.69-5.62-4.88Z"/><path class="c" d="M83.5,130.25c1.66,1.4,3.66.99,5.5.25,1.93-3.82,16.73-27.22,17-28.88.57-3.43-3.98-7.44-8.5-1.25-.89,1.22-15,24.51-15.25,26-.22,1.3.2,2.99,1.25,3.88Z"/><path class="c" d="M49.38,80.75c-.63.14-2.19,1.56-2.62,2.12-.86,1.13-10.04,21.04-13,25.25-.8,4.44,3.59,6.96,6.38,5.38,1.65-.94,12.38-24.77,14.62-28.38.35-3.19-2.34-5.05-5.38-4.38Z"/><path class="c" d="M41.25,204.12c-1.23-1.47-2.34-2.21-4.38-1.88-2.01.33-3.93,3.1-3.12,5.12,2.78,4.64,11.36,25.65,12.25,27,2.79,4.22,8.42,1.27,7.25-3.25-.37-1.43-10.26-22.77-12-27Z"/><path class="c" d="M233.5,168.62c-1-.84-1.71-1.16-3.12-.88-1.78.36-3.6,3.43-3.38,5.12.19,1.49,17.39,22.77,18.62,23.62,3.54,2.46,8.64.07,6.12-4.88-.67-1.31-17.12-22.06-18.25-23Z"/><path class="c" d="M186.62,44.5c1.53-.79,19.89-22.72,22.88-25.88l-4.62-5.12c-3.02,2.92-23.24,24.65-23.62,26.38-.78,3.5,2.59,6.06,5.38,4.62Z"/><path class="d" d="M152.5,127.38c.24-1.29.17-24.95,0-26.25-.31-2.37-1.8-4.91-4.62-4.62-1.29.13-3.12,1.79-3.38,3.12-.26,1.36-.27,26.39,0,27.75.87,4.33,7.14,4.57,8,0Z"/><path class="d" d="M170.88,104.75c2.13-2.92,16.8-18.69,17.38-19.88,1.64-3.38-1.07-6.68-4.62-6.12-1.61.25-17.17,18.02-17.88,19.12-3.4,5.32,1.57,8.78,5.12,6.88Z"/><path class="d" d="M54.62,212.75c-2.43.38-3.41,3.06-2.88,5.12.35,1.34,11.14,23.91,12,25,2.59,3.28,7.19,1.02,7.25-2.75-2.59-3.95-10.95-24.11-11.75-25.25-1.04-1.49-2.79-2.41-4.62-2.12Z"/><path class="c" d="M239.62,254.5c1.63-3.88,6.38-27.68,6.38-29.38,0-4.3-5.39-6.02-7.25-2.25-.95,1.94-2.5,14.42-3,15-.23.27-2.59.34-2.75.75-.26.64,3.46,2.67,0,13.38,1.17.1,4.69,1.51,6,2.25l.62.25Z"/><path class="d" d="M39.38,43.25c-2.32.63-4.08,2.08-4.12,4.62,2.35,4.26,8.06,19.12,9.25,21,2.96,4.68,7.98,1.22,8.25-1.25.2-1.79-2.48-5.7-3.25-7.5-2.48-5.74-6.31-17.89-10.12-16.88Z"/><path class="d" d="M143.25,90.88c.98-3.29,9.58-21.29,9.75-22.5.42-3-1.91-5.24-4.88-4.62-.54.11-2.02,1.37-2.38,1.88-.7.99-9.61,21.04-9.75,22.25-.47,4.06,4.72,6.42,7.25,3Z"/><path class="c" d="M226.62,141.25c-1.07.17-2.49,1.5-3.12,2.38-.58.8-8.57,16.78-8.75,17.75-.9,4.9,4.78,7.67,8.25,3,.57-.76,8.27-16.08,8.5-17,1-3.94-1.71-6.61-4.88-6.12Z"/><path class="d" d="M56.88,34.5c-2.11.5-3.3,4.4-2.38,6.62.54,1.29,18.21,11.53,20.88,13.38.85-.93,4.58-6.08,4.38-6.88-2.68-1.69-19.66-12.9-20.88-13.12-.3-.06-1.75-.06-2,0Z"/><path class="c" d="M141.38,145.25c-1.13.04-20.97,4.54-22,5-3.76,1.7-3.32,7.04,1.5,7.75,4.33-1.52,21.56-4.69,23.25-5.5,4.13-1.99,1.66-7.41-2.75-7.25Z"/><path class="c" d="M179.88,54.75c-2.56.18-4.86,4.34-3.62,6.62,3.17,2.29,17.95,13.8,19.12,14.38,3.01,1.48,5.63-3.76,4.12-6.38-.58-1-15.99-12.19-18.12-14.38-.58-.01-.83-.3-1.5-.25Z"/><path class="d" d="M100.12,146c-1.01.09-17.27,8.79-18,9.5-2.42,2.36,2.1,7.5,7,6.75,1.96-.3,14.33-7.79,16.88-9.62-1.35-1.67-3.62-6.82-5.88-6.62Z"/><path class="c" d="M59.38,103.5c.94-.12,17-6.17,17.75-6.75,3.3-2.53,1.69-8.43-3.5-7.75-.96.13-17.22,6.67-18,7.25-3.34,2.5-1.62,7.94,3.75,7.25Z"/><path class="c" d="M235.38,38.25c.92-.38,14.94-11.73,15.38-12.62,1.73-3.57-.64-7.18-4.62-6.38-1.05.21-16.14,12.67-16.62,13.62-1.84,3.59,1.69,7.13,5.88,5.38Z"/><path class="d" d="M64.38,122.5c2.45-1.72,20.77-9.36,21.12-10.62.49-1.7-2.92-6.51-4.38-6.38-1.07.1-18.43,9.05-19.25,9.75-3.21,2.72-1.48,7.06,2.5,7.25Z"/><path class="d" d="M179.88,203c-.88-.43-1.42-.71-2.5-.5-1.36.26-3.65,2.82-3.62,4.38.12,1.47,17.95,14.51,20.38,16.62,1.16-1.18,5.05-3.74,4.38-5.62-2.92-2.12-17.55-14.35-18.62-14.88Z"/><path class="c" d="M217.5,136.88c.22-1.84-1.87-3.25-3.5-4.88-.34-.34-.66-.67-1-1-1.3-1.24-11.83-10.1-12.62-10.25-3.26-.59-7.28,2.95-4.25,6.5.7.82,15.69,13.31,16.75,13.5,1.96.34,3.97-2.24,4.62-3.88Z"/><path class="c" d="M226.25,91.88c-1.85,3.68,1.88,8,5.12,6.62.92-.39,13.64-13.14,13.88-14.38.46-2.5-1.26-6.02-4.12-5.88-.08,0-1.32.41-1.5.5-.84.42-12.95,12.29-13.38,13.12Z"/><path class="d" d="M154,212.62c.07.95,10.99,14.15,12.38,14.38,3.21.53,7-3.37,5.62-6.62-.31-.73-9.41-11.72-10-12.25-.7-.63-.99-1.2-2.12-1.12-1.68.59-6,3.91-5.88,5.62Z"/><path class="c" d="M98.12,35c1.06-.1,18.68-8.1,19.12-9.12.97-2.24-2.13-6.33-3.38-6.38-1.05-.04-18.43,7.84-19.25,8.5-3.11,2.48-.46,7.38,3.5,7Z"/><path class="c" d="M194.38,158.25c2.8,1.14,6.46-1.46,6.12-3.88-.15-1.08-10.37-18.1-11.25-18.75-.48-.36-1.04-.43-1.62-.38-1.85.79-4.63,2.9-4.38,5.12.12,1.05,10.15,17.48,11.12,17.88Z"/><path class="d" d="M7.25,222.88c.16,1.69-9.56,3.45.12,9.88.75-.55,4.1-4.89,4.75-4.75.4.08,5.1,5.95,5.5,6,.38.04,6.06-3.63,5.88-4.62l-12.88-13.62c-7.35,7.18-3.51,5.71-3.38,7.12Z"/><path class="d" d="M167.25,39.38c.79-.91,7.6-14.4,9.75-17.5.13-2.6-2.55-4.87-5.12-4.38-.53.1-1.73,1.15-2.12,1.62-.59.7-8.76,15.11-9,16-1.21,4.47,3.55,7.66,6.5,4.25Z"/><path class="d" d="M117.12,166.75c-.7.07-12.19,5.57-12.75,6-4.42,3.44-.19,8.67,3.75,8.25.74-.08,12.92-6.03,13.5-6.5,3.72-3.05-1.07-8.09-4.5-7.75Z"/><path class="d" d="M221.75,211.12c-2.18-2.7-14.73-17.01-16.38-17.62-.5-.19-1.47-.32-2-.25-1.99.28-3.48,2.87-2.62,4.88.48,1.11,14.73,15.11,16.62,17.62l4.38-4.62Z"/><path class="d" d="M74.12,72c.76-.11,13.39-6.02,14-6.5,3.3-2.59-.57-8.51-4-8-.72.11-12.43,6.29-13,6.75-4.32,3.46-1.29,8.38,3,7.75Z"/><path class="d" d="M153.5,161.38c.5.76,15.22,8.28,16.12,8.38,1.4.15,5.9-4.7,4.88-6.12-2.78-1.21-14.7-9.17-16.38-9.12-2.02.06-6.39,4.17-4.62,6.88Z"/><path class="d" d="M241.62,43.5c-2.3,1.73-16.41,15.54-16.88,16.62-1.01,2.34,3.09,5.23,5.12,4.38.98-.41,14.2-14.4,14.62-15.38.92-2.1-.35-5.54-2.88-5.62Z"/><path class="c" d="M113.62,185.5c-.76-.14-14.74-.16-15.5,0-3.15.66-4.36,5.64-1.25,7.25,1.74.9,17.17,1.29,19,0,2.91-2.06.9-6.66-2.25-7.25Z"/><path class="c" d="M191.25,117.12c.24-.73,2.03-14.48,2-15.25-.11-2.83-2.37-4.67-5.12-4.12-3.89.31-4.87,18.39-4.12,19.88,1.33,2.66,6.1,3.08,7.25-.5Z"/><path class="d" d="M162.88,144.5c.77-.13,12.74-7.7,13.12-8.38,2.08-3.67-1.45-7.03-5.12-6.62-1.99.22-10.86,5.83-11.88,7.62-2.29,4.06,2.12,7.68,3.88,7.38Z"/><path class="c" d="M97.88,218.75c-.98.19-13.51,10.79-13.88,11.62-1.15,2.65,2.44,5.66,5.38,4.62.86-.31,14.13-10.49,14.38-11.38.57-2.05-1.97-5.65-5.88-4.88Z"/><path class="d" d="M124.12,81.25c.72-.25,10.58-9.92,10.88-10.62,1.36-3.22-3.26-6.35-6.12-5.62-.77.19-10.82,10.64-11.12,11.38-1.16,2.8,4.09,5.67,6.38,4.88Z"/><path class="d" d="M242.88,149.5c-.29-.12-1.14-.27-1.5-.25-2.48.12-4.49,3.51-3.88,5.88.17.64,6.08,10.99,6.5,11.5,3.32,4.04,8.5.73,7.25-3.75-.21-.76-7.53-13.03-8.38-13.38Z"/><path class="d" d="M138.12,169c-.81.14-2.15,1.2-2.62,1.88-.37.52-4.93,11.12-5,11.75-.37,3.4,5.36,6.39,7.75,3.5.42-.5,5.16-11.35,5.25-12,.44-3.15-2.23-5.66-5.38-5.12Z"/><path class="d" d="M128.88,129.5c-.89-.05-14.03,7.16-15.88,8.12-.6,2.11,2.94,5.92,4.88,5.88.89-.02,13.81-6.87,16-7.75.47-.71-4.6-6.23-5-6.25Z"/><path class="d" d="M167.88,11.5c1.03.39,14.02,1.71,15,1.5,3.5-.75,3.93-5.96-.25-7.5-1.13-.42-12.3-1.45-13.5-1.25-3.93.64-5.53,5.64-1.25,7.25Z"/><path class="c" d="M14.75,6.12c-.26-2.11-2.67-3.51-4.62-3.12-3.76-.45-4.1,15.83-3.88,16.88.68,3.09,5.69,3.98,7.25.75.34-.71,1.37-13.52,1.25-14.5Z"/><path class="d" d="M216.12,120.75c.57-.15,6.88-8.84,7.12-9.38,1.93-4.29-2-7.08-5.12-6.38-1.75.4-6.98,8.56-8.62,10.38-.41,1.37,5.14,5.85,6.62,5.38Z"/><path class="c" d="M24.88,76c.6-.05,11.02-3.14,11.5-3.5,2.5-1.83,2-7.61-3-7.25-.6.04-10.98,3.19-11.5,3.5-3.05,1.82-2.65,7.72,3,7.25Z"/><path class="c" d="M178.88,179c-1.14.19-3.47,2.01-3.12,4.38.12.79,7.34,12.86,8.88,13.12,2.36.41,4.66-1.87,5.12-4.12-2.61-3.12-6.29-14.13-10.88-13.38Z"/><path class="c" d="M14.5,87.62c.13-.65.13-12.6,0-13.25-.37-1.83-2.43-2.88-4.12-2.62-1.69.26-3.13,2.58-3.38,4.12-.09.56-.32,10.69-.25,11.25.61,4.7,6.9,4.65,7.75.5Z"/><path class="d" d="M216.88,231.5c-.56.1-8.84,6.38-9.12,6.88-1.73,3.05.68,7.35,4.38,6.62.55-.11,9.09-5.64,9.38-6.12,1.62-2.71-1.7-7.89-4.62-7.38Z"/><path class="d" d="M165.38,65c-3.99.56-6.63,13.61-2.25,15.75,6.52,3.18,7.77-10.4,7.38-12.38-.39-1.96-3.2-3.65-5.12-3.38Z"/><path class="d" d="M230.12,197.25c-3.19.55-4.45,5.09-2.88,7.62,1.01,1.64,10.37,4.7,12.38,3.12,6.59-7.5-8.02-11-9.5-10.75Z"/><path class="d" d="M224,186.38c-2.67-3.42-7.01-12.58-9.62-11.38-1.55.83-4.11,3.03-3.88,4.88.1.81,7.15,10.53,8.62,11.88,1.74-1.77,5.39-3.44,4.88-5.38Z"/><path class="d" d="M51.38,188.5h-1c-.84,1.17-4.64,3.9-4.38,5.12,3.26,2.71,9.62,10.24,12.38,9.88,9.23-4.41-4.08-10.62-7-15Z"/><path class="d" d="M201.5,47.12c5.25,7.99,14.78-6.09,15-7.5.4-2.59-1.73-4.8-4.38-4.38-2.54,2.87-11.51,9.68-10.62,11.88Z"/><path class="d" d="M99.5,49.62l13.12,13.38,3.88-4.38-12.88-13.38c-.38-.02-4.86,3.38-4.12,4.38Z"/><path class="d" d="M21,204.62c-.15-.56-4.97-9.34-6.12-9.62-.25-.06-1.94-.06-2.25,0-1.32.24-3.25,2.34-3.38,3.62-.1,1.03,4.44,10.08,5.25,10.75,2.88,2.39,7.56-.85,6.5-4.75Z"/><path class="d" d="M152.62,41.25c-1.02-.39-1.96-.23-3-.25-8.45,3.78,3.93,12.49,5.5,12.75,3.24.53,6.53-1.87,5.38-4.62-.22-.51-7.35-7.68-7.88-7.88Z"/><path class="d" d="M119.38,123.5c1.45.39,4.67-2.48,4.38-4.12-3.11-3.03-9.15-12.01-11.88-11.38-1.57.83-3.54,2.44-3.12,4.38.16.75,9.88,10.92,10.62,11.12Z"/><path class="c" d="M75.88,186.75c.65-.08,9.84-5.56,11.38-6.38-.7-.76-4.41-5.83-4.88-5.88-.63-.06-10.83,5.56-11.12,6.12-1.29,2.44,2.52,6.4,4.62,6.12Z"/><path class="d" d="M137.5,7.62c.42-2.76-2.89-6.44-5.38-5.88-2.83,2.87-9.78,7.12-6.12,11.62,4.16,5.13,11.39-5,11.5-5.75Z"/><path class="c" d="M229,119.12l3.62,3.88c1.6-1.36,12.7-11.26,12.88-12.12.11-.53-2.68-4.91-3.12-4.88l-13.38,13.12Z"/><path class="d" d="M81.88,201.75c.53.08,9.27-4.45,9.38-5.12-1.33-2-2.4-6.93-5.12-6.62-.53.06-9.19,4.25-9.38,4.88-.67,1.1,4.69,6.81,5.12,6.88Z"/><path class="d" d="M88.88,80.25c-.57.06-8.77,4.9-9.88,5.88,2.78,9.42,7.56,4.39,14.75-.25.58-2.32-2.84-5.85-4.88-5.62Z"/><path class="d" d="M24.12,212.5c-8.73,4.56,4.67,11.34,5.5,11.5,3.96.78,5.91-3.64,3.88-6.62-.64-.93-7.68-5.61-9.38-4.88Z"/><path class="c" d="M198.75,62.12l11.12,8.12,4.12-5.12-10.38-8.38-4.88,5.38Z"/><path class="c" d="M226.12,51.25l4.12-6.38c-2.06-1.22-8.74-7.63-10.62-7.12l-3.88,5.38,10.38,8.12Z"/><path class="c" d="M203.5,179.88c-2.54-2.94-6.72-10.65-9.12-9.62l-3.62,3.38c-.57,2.12,6.46,8.34,7.75,10.5.53,1.33,5.07-3.43,5-4.25Z"/><path class="c" d="M13.25,104.38c-.41-2.1-2.68-3.11-4.62-2.62-3.18.79-5.14,16.62,1.75,14.75,3.13-.21,3.14-10.76,2.88-12.12Z"/><path class="d" d="M170.25,183.88c3.42-5.83-4.33-7.06-8.38-6.62-3.04.33-6.55,3.99-3.75,6.75,2.74,1.14,10.4,2.81,12.12-.12Z"/><path class="d" d="M83.5,130.25c-3.68,2.32-13.75,4.67-6.62,9.75,1.43.62,11.03-4.07,11.5-4.5,1.09-.99,2.1-4.16.62-5-1.84.74-3.84,1.15-5.5-.25Z"/><path class="c" d="M46.88,137c-2.1,2.22-14.18,9.34-8.5,12.75,3.32,1.99,9.62-6.2,12.38-8.12l-3.88-4.62Z"/><path class="d" d="M139.62,239.5c-.36-.11-7.07-.08-7.5,0-3.61.7-4.04,7.01-.75,7.75.4.09,7.85.11,8.25,0,2.31-.62,1.68-7.24,0-7.75Z"/><path class="c" d="M38.12,33.25c4.7-5.24,16.28-11.46,7.5-13.5-4.95,4.87-16.99,12.18-7.5,13.5Z"/><path class="d" d="M17.25,62.62c2.69,6.36,6.88,1.79,12.75-2,.37-1.25-2.39-5.57-3.88-5.38-.6.08-10.42,5.88-8.88,7.38Z"/><path class="c" d="M19,110.62c.08.61,6.44,10.05,7.38,9.88.55-.69,3.63-3.35,3.62-3.88,0-.68-7.69-11.72-8.62-9.88-1.44.42-2.56,2.5-2.38,3.88Z"/><path class="d" d="M108.12,33.75c-3.96.58-6.44,7.73,6.25,7.75,6.2-3.91-2.55-8.29-6.25-7.75Z"/><path class="c" d="M231.5,224.62c-.13-.44-6.13-5.93-6.88-5.88-6.22,4.27-.08,6.28,3,10,2.26.92,4.45-2.14,3.88-4.12Z"/><path class="d" d="M67.88,173.25c3.81-3.65,13.86-8.55,7.5-10-4.05,3.76-14.31,9.21-7.5,10Z"/><path class="d" d="M21.38,174.75c-2.29,2.06-9.28,4.66-5,8,2.62,1.17,11.64-6.44,5-8Z"/><path class="c" d="M138.12,129.25l3.12-4.38c-1.76-1.4-4.2-4.47-6.12-4.12-4.63,3.05-.2,6.17,3,8.5Z"/><path class="d" d="M114.12,245c-4.06.57-1.49,7.48,2.5,7,4.23-.51,1.81-7.6-2.5-7Z"/><path class="d" d="M20.38,96c.95-.62,6.25-5.94,6.38-6.38.31-1.07.11-5.99-1.88-5.62-1.98,1.32.1,3.02-.12,4.38-.26,1.55-7.41,6.09-4.38,7.62Z"/><path class="d" d="M40.38,193.25c5.03-.83-3.66-5.15-7.5-8-3.8,1.8,3.91,4.92,7.5,8Z"/><path class="d" d="M138.38,233.75c4.92-1.87-5.21-6-7.25-7-3.08,2.15,3.68,4.57,7.25,7Z"/><path class="d" d="M196.25,238.12c-1.16-1.06-8.78-7.95-9.38-8.12-.32-.1-.37.25-.62.25v1.75c3.59,2.52,8.89,9.69,10,6.12Z"/><path class="c" d="M63.38,67.75c-3.42.88,3.73,10.97,4.88,6.88.14-.5-3.28-7.79-4.88-6.88Z"/><path class="d" d="M93.88,142.5c-1.54,1.79-11.31,6.16-5.75,7.25,1.39-1.85,10.2-5.54,5.75-7.25Z"/><path class="d" d="M38.88,89c-1.93,1.95-9.31,6.48-4,6.75,2.79-2.95,8.48-5.52,4-6.75Z"/><path class="c" d="M93.88,91.75c-2.78,3.99-7.29,7.51-2.75,7.5.87-1.77,7.54-7.1,2.75-7.5Z"/><path class="d" d="M155.62,20.5c1.75-4.21,6.43-9.84,2.75-9.25-2,3.73-6.44,9.83-2.75,9.25Z"/><path class="c" d="M22.88,192.25l-1.38,1.12c.82,7.51,10.96,3.36,1.38-1.12Z"/><path class="d" d="M28,34.88c.09-1.44,1.82-9.21-.88-8.38-.58.18-3.08,11.14.88,8.38Z"/><path class="d" d="M164.12,88.5l-5.12,4.38c-1.37,5.06,10.55-3.88,5.12-4.38Z"/><path class="d" d="M146.38,222c-2.41-.22-1.25,11.59,1.38,7.88-.18-1.29-.08-7.76-1.38-7.88Z"/><path class="c" d="M82.12,240c-2.71.95,3.11,7.23,4.5,6.25,2.15-.67-3.64-6.49-4.5-6.25Z"/><path class="d" d="M209.5,79.12l-5.38-4.12c-4.29,0,5.69,9.66,5.38,4.12Z"/><path class="d" d="M94.88,174.75c1.51-.16,6.74-8.17,3-7.75-1.49,2.71-5.02,7.17-3,7.75Z"/><path class="d" d="M158.38,176c2.39-1.63-1.55-2.99-4.5-5.5-3.99,1.21,3.3,6.13,4.5,5.5Z"/><path class="c" d="M150.75,32.12c.39,5.48,10.03-3.95,4.38-3.12-.27.04-4.27,2.66-4.38,3.12Z"/><path class="d" d="M47.38,213c1.91-.74,8.43-3.94,4-5.5-2.07,1.75-6.16,3.27-4,5.5Z"/><path class="c" d="M197.25,11.62c.05-.39-4.38-5.68-5.38-5.12-2.7.92,4.92,8.95,5.38,5.12Z"/><path class="d" d="M201,91.38c-.47-2.37.1-7.05-2.12-6.88-1.45.31-.73,10.38,2.12,6.88Z"/><path class="d" d="M245.62,14.5c3.05-.61-4.09-6.14-4.75-6-3.38,1.29,4.25,6.1,4.75,6Z"/><path class="d" d="M103,131.88c.9-3.89,3.63-7.2.12-7.12-.71,1.78-4.07,8.31-.12,7.12Z"/><path class="d" d="M15.62,40.25c-2.92,1.77.51,2.76,3.25,6,3.98-.46-.33-3.89-3.25-6Z"/><path class="c" d="M69.88,189.75l-3.38,5.12c1.32,5.26,7.36-6.14,3.38-5.12Z"/><path class="d" d="M59.62,56.75c-3.41,1.03,6.32,8.43,5.38,3.88-1.89-1.34-3.99-4.11-5.38-3.88Z"/><path class="d" d="M235.5,134.38c-.33-1.44.46-6.91-1.88-6.38-1.47.34-1.12,9.95,1.88,6.38Z"/><path class="d" d="M17.88,27l-4.12,5.12c.66,5.14,8.18-6.07,4.12-5.12Z"/><path class="c" d="M88.62,45.75c1.12-1.59,6.58-4.84,2.5-5.75-1.28,1.82-7.13,5.18-2.5,5.75Z"/><path class="c" d="M67,9.88l-4.62-3.38c-4.09,1.95,5.78,7.58,4.62,3.38Z"/><path class="d" d="M137.88,109.25l-3.88,4.62c.88,4.79,8.41-6.18,3.88-4.62Z"/><path class="c" d="M94.12,12.5l-1.38,1.12c2.15,6.96,8.74,3.21,1.38-1.12Z"/><path class="d" d="M177.38,36.5c-1.97.81-2.06,5.62-1,6,2.59.94,3.37-6.27,1-6Z"/><path class="d" d="M15.88,119.25c-1.95,2.34-5.65,4.85-3.75,6.25.45.13,8.08-6.17,3.75-6.25Z"/><path class="d" d="M219.88,247.75c-1.35.29-1.13,6.18-.25,6.5,2.62.96,2.62-7.01.25-6.5Z"/><path class="d" d="M70.88,122.5c-3.14,1.12,2.76,5.23,3.75,5,2.95-1.28-3.1-5.11-3.75-5Z"/><path class="d" d="M170.88,113.5c-2.34,2.77-6.31,4.27-4.25,6,2.02-1.21,8.34-5.61,4.25-6Z"/><path class="d" d="M117.75,43.38l-1.38-.38c-4.91,5.92,2.78,8.69,1.38.38Z"/><path class="d" d="M89.62,17.25c1.88-.16,2.18-6.56-.25-6-1.54.73-1.77,6.18.25,6Z"/><path class="c" d="M51.38,242.25l-4.12,2.62c-.78,3.76,9.42-.78,4.12-2.62Z"/><path class="d" d="M75.88,232.25l-1.12.88c3.35,7.26,8.82,1.16,1.12-.88Z"/><path class="d" d="M179.12,77.25c2.06-.37,1.82-6.77.25-6.75-1.67.02-2.02,6.02-.25,6.75Z"/><path class="d" d="M210.38,196.75c2.29,0,3.05-6.2.75-6-1.58.14-2.4,5.14-.75,6Z"/><path class="d" d="M205.88,220l-.88.88c3.49,7.46,9.08,3.06.88-.88Z"/><path class="d" d="M25,242c.5-1.21,2.77-2.08,3.5-2.75,1.01-.93,1.95-1.29.62-2.75-.65-.18-8.04,4.74-4.12,5.5Z"/><path class="d" d="M128.88,85.5c-4.65,4.46,1.61,10.49,1.12.88l-1.12-.88Z"/><path class="d" d="M172.5,53.38l-1.12-.62c-5.32,5.78-.24,10.09,1.12.62Z"/><path class="d" d="M253.5,77.38l-1.12-.62c-4.56,5.38,2.48,9.51,1.12.62Z"/><path class="c" d="M177.12,146l-1.12.88c1.57,6.46,9.05,1.88,1.12-.88Z"/><path class="c" d="M155.88,99c-3.77,5.27,7.49,6.79,1,0h-1Z"/><path class="d" d="M5,25.12l-1.12-.62c-7.27,5.25-.94,8.1,1.12.62Z"/><path class="d" d="M178.88,121.25l-1.5-.25c-3.28,5.2,6.3,6.98,1.5.25Z"/><path class="d" d="M24,127.12l-1.38-.62c-3.88,4.89,3.81,8.95,1.38.62Z"/><path class="d" d="M46,155.62l-1.62-.62c-1.87,7.82,2.47,10.12,1.62.62Z"/><path class="d" d="M184.12,19c-3.19,5.47,7.67,6.43,1,0h-1Z"/><path class="d" d="M122.62,195.25l-.88,1.38c5.24,5.66,8.24.33.88-1.38Z"/><path class="d" d="M125.88,246.25c-1.89-.04-2.14,7.05.25,6.25.74-.25,1.32-6.22-.25-6.25Z"/><path class="c" d="M144,53.12l-1.62-1.12c-4.57,3.48,2.06,8.11,1.62,1.12Z"/><path class="c" d="M175.62,195.5l-3.88,3.62c.04,4.05,7.37-2.93,3.88-3.62Z"/><path class="d" d="M177.38,222.75l-.88.88c2.05,6.84,7.89,2.25.88-.88Z"/><path class="c" d="M86.12,27.5h-.75c-4.8,5.74,4.51,6.84.75,0Z"/><path class="d" d="M202.62,160.5c-3.72,6.57,4.62,6.54,1,0h-1Z"/><path class="d" d="M111.12,128.5l-.88.88c-.96,7.98,6.33,2.27.88-.88Z"/><path class="d" d="M211,146.38c1.69,6.61,7.95.96.88-.88l-.88.88Z"/><path class="d" d="M60.5,176.62l-1.12-.62c-4.19,5.17,2.06,9.24,1.12.62Z"/><path class="c" d="M35.12,152.75l-1-.25c-5.01,4.75,4.69,6.52,1,.25Z"/><path class="c" d="M11.12,134.25l-.62.62c-.06,6.09,8.71,4.26.62-.62Z"/><path class="d" d="M192.38,203.75l-3.12,2.38c-.87,4.7,6.93-1.27,3.12-2.38Z"/><path class="c" d="M236.88,196.75c1.7-1.45-2.05-4.83-3.25-4.25-1.61.78,1.61,4.92,3.25,4.25Z"/><path class="d" d="M111.62,214.25l-1.5.5c-3.24,5.4,7.89,2.11,1.5-.5Z"/><path class="d" d="M26.62,23c3.82-1.52,3.29-4.15.75-3.75-1.25.2-3.85,2.91-.75,3.75Z"/><path class="c" d="M209.38,29.25l-1.38,1.38c-.05,6.27,6.59-.19,1.38-1.38Z"/><path class="d" d="M231,102.38l-.88-.62c-3.05,5.62,3.39,9.74.88.62Z"/><path class="d" d="M61.38,206.5l-1.38,1.12c.28,5.38,7.96-.56,1.38-1.12Z"/><path class="c" d="M242.88,136c-3.25,4.47,5.52,5.19,1.75.25l-1.75-.25Z"/><path class="c" d="M181.88,162l-1.38,1.12c-.18,6.38,6.09,1.51,1.38-1.12Z"/><path class="d" d="M213,131c.34.33.66.66,1,1,6.78-4.32,3.9-7.41-1-1Z"/><path class="d" d="M204.12,142l-1.12.88c1.01,5.79,7.27,1.6,1.12-.88Z"/><path class="d" d="M161.12,119.5l-1.88,1.88c.24,4.41,7.04-1.03,1.88-1.88Z"/><path class="d" d="M74.88,144.5l-.62,1.62c4.45,4.54,6.69-.24.62-1.62Z"/><path class="c" d="M214.88,53.5l-.88.88c-.03,6.73,6.76-.2.88-.88Z"/><path class="d" d="M126.62,23h-.75c-4.42,5.67,4.1,5.8.75,0Z"/><path class="c" d="M158.12,117l-1.12,1.12c.17,6.28,6.44-.1,1.12-1.12Z"/><path class="c" d="M53.62,19l-1.12,1.12c.14,6.2,6.43-.22,1.12-1.12Z"/><path class="d" d="M149.5,213.12l-1.62-1.12c-3.94,3.56,1.36,6.86,1.62,1.12Z"/><path class="d" d="M159.5,197.88c1.26,5.35,6.98.44,1.12-1.12l-1.12,1.12Z"/><path class="d" d="M252.5,179.88l-.62-.62c-4.95,4.77,1.76,8.11.62.62Z"/><path class="c" d="M247.88,248.5l-1.12,1.12c.25,5.99,6.5.03,1.12-1.12Z"/><path class="c" d="M252.88,230.25l-.88,1.12c.21,6.38,6.27-.81.88-1.12Z"/><path class="d" d="M186.25,232v-1.75c-3.43-3.75-4.35,5.2,0,1.75Z"/><path class="c" d="M128.12,160.5h-1.25c-3.27,4.71,5.55,4.39,1.25,0Z"/><path class="c" d="M209.88,5h-1c-4,4.52,5.19,4.58,1,0Z"/><path class="d" d="M73.62,31h-1.5c-4.89,3.74,3.54,4.59,1.5,0Z"/><path class="d" d="M40.62,1l-1.12,1.12c.46,5.26,6.06.13,1.12-1.12Z"/><path class="d" d="M93.38,55.25l-.88,1.62c2.12,4.75,5.47-1.62.88-1.62Z"/><path class="c" d="M66.75,159.62c-.02,5.45,6.13.24,1.12-.88l-1.12.88Z"/><path class="d" d="M27.12,36.5l-.88.88c.28,5.08,5.59-.3.88-.88Z"/><path class="d" d="M65,25.38c.91,4.35,5.11-.38,1.12-1.12l-1.12,1.12Z"/><path class="d" d="M194.38,48.25l-.88,1.62c1.58,3.09,4.26-1.3.88-1.62Z"/><path class="c" d="M25,242c1.28.81,3.66-1.21,3.5-2.75-.73.67-3,1.54-3.5,2.75Z"/><path class="c" d="M16.62,96c-1.93,1.9,1.33,3.56,1.88.88l-1.88-.88Z"/><path class="e" d="M.09,233.87c0-.71-.02-1.44-.03-2.18-.02-1-.04-2.01-.06-3.03v13.35c.12-2.03.13-4.92.09-8.13Z"/><path class="e" d="M0,201v1.25c.04-.48.08-.97,0-1.25Z"/><path class="e" d="M0,189.19v7.06c.21-1.16.09-4.13,0-7.06Z"/><path class="d" d="M13,55.62c.47-1.92-1.08-4.87-3.12-5.12-1.37-.17-8.13,3.32-9.88,4.25v10.75c1.7-1.15,12.79-9.01,13-9.88Z"/><path class="d" d="M.42,103.66c.05-.1.08-.19.08-.29,0-.07-.5-.77-.5-1.38v3c0-.23.03-.42.08-.59.09-.33.25-.55.34-.75Z"/><path class="d" d="M0,203.5v8.5c.2-1.6,1.39-3.41,1.5-4.38.35-3.16-1.3-3.46-1.5-4.12Z"/><path class="c" d="M7,148.38c-.02-.64-6.6-10.13-7-10.62v12c.9,1.11,1.94,2.17,2.88,3.25.55-.58,4.13-4.3,4.12-4.62Z"/><path class="d" d="M3.25,45.5s-.14-.07-.27-.15c-.13-.08-.3-.2-.5-.34-.3-.21-.68-.46-1.12-.75-.29-.19-.6-.39-.94-.59-.14-.08-.28-.17-.42-.25v4.83c2.37.62,2.81-.79,3.25-2.75Z"/><path class="e" d="M45.92.05c1.33.02,2.58.03,3.67.02,1.08,0,2-.03,2.66-.08h-9.37c.75.01,1.5.03,2.23.04.27,0,.54,0,.81.01Z"/><path class="c" d="M84.97,3.43c.77,2.19,3.03,3.47,5.15,2.57.39-.17,5.28-5.17,6.12-6h-11.25c-.17.5-.26.99-.29,1.46-.04.71.05,1.37.26,1.97Z"/><path class="d" d="M20.94,2.37c-.13.15-.26.3-.39.45-.26.3-.52.6-.75.89-.12.14-.23.28-.34.41-.22.26-.41.5-.56.69-.23.29-.38.5-.39.56-.06.29,0,.62.15.98.15.35.37.73.66,1.09.94,1.21,2.44,2.28,3.32,2.06,1.8-1.14,7.81-9.25,8.88-9.5h-8.5c-.19.22-.69.8-1.3,1.49-.24.28-.5.58-.76.88Z"/></svg>