<?xml version="1.0" encoding="UTF-8"?><svg id="a" xmlns="http://www.w3.org/2000/svg" viewBox="0 0 256 256"><defs><style>.b{fill:#88cbeb;}.b,.c{stroke-width:0px;}.c{fill:#ffabbb;}</style></defs><path class="b" d="M194.5,256h4.96c-2.11-.07-4.25-.17-4.96,0Z"/><path class="b" d="M82.5,256h13.5c-5.72-.08-11.26-.14-13.5,0Z"/><path class="b" d="M0,256h39c-3.4-.38-31.34,0-39,0Z"/><path class="b" d="M55.83,255.91c-1,.02-2.07.06-3.14.09h7.31c-.72-.14-2.3-.13-4.17-.09Z"/><path class="b" d="M77.25,256h5.25c-3.06-3.26-2.78-2.04-5.25,0Z"/><path class="b" d="M207.29,253.03c-.21.04-.43.14-.67.29-.24.15-.5.36-.79.62-.3.26-.63.56-1.01.91-.38.34-.82.73-1.32,1.15h7c-1.62-2.29-2.37-3.12-3.21-2.97Z"/><path class="b" d="M256,104.47v-9.97c-.13,1.38-.07,5.57,0,9.97Z"/><path class="b" d="M255.99,28.09s0,.08,0,.12v-.46c-.03.08-.02.2,0,.34Z"/><path class="b" d="M256,256v-1.1c-.49.38-.99.75-1.5,1.1h1.5Z"/><path class="c" d="M250.5,194.12s.09.13.23.26.33.28.56.47c.12.09.24.19.38.29.4.31.87.66,1.35,1.01.16.12.32.23.48.35.48.35.95.68,1.36.97.54.38.97.67,1.15.79v-7.5c-3.23-1.87-3.23-.94-5.5,3.38Z"/><path class="c" d="M250.75,65.62c-.55,1.41,3.65,3.67,5.25,4.62v-7.25c-2.52-1.27-2.9-1.53-5.25,2.62Z"/><path class="c" d="M254.54,20.65c-.81.65-1.77,1.45-2.48,2.1-.24.22-.45.41-.62.58-.26.26-.42.45-.43.54-.11.56.2,1.21.71,1.82.21.24.45.48.71.7.39.33.83.63,1.27.87.59.32,1.18.53,1.67.57.25.02.47,0,.65-.09v-8.25c-.14.1-.39.3-.72.56-.22.17-.47.38-.74.59Z"/><path class="b" d="M3.12,17.25l3.62,4.62c-1.01,1.03-6.53,5.28-6.75,5.88v.46c0,.1.01.2,0,.29,1.54,1.08.92,2.89,0,4.25v30.25c1.32.67,5.98,4.13,8,5.38l-3.12,4.62c-.3.07-4.21-2.35-4.88-2.75v21.25c.39.26.63.5.75.74.09.18.13.35.11.52,0,.06-.01.12-.03.17-.04.18-.12.35-.22.54-.07.12-.15.25-.23.39s-.17.27-.26.42c-.04.07-.09.15-.13.22v9.97c.1,5.78.22,11.93,0,12.53l4.25,4.38c-1.53,1.25-2.82,2.79-4.25,4.12v18.25c1.28-1.84,3.81-3.65,6.12-2.5.72.36,6.35,13.07,5.88,14.62-6.96,6.79-7.55-3.6-12-10.88v12.25c.18.12.61.38,1.09.69.63.4,1.33.89,1.57,1.22.06.08.09.16.09.22-.92.74-2.58,3.47-2.75,3.62v27.75c2.12,1.23,5.86,4.36,8.25,5.88l-3.62,4.62c-1.39-1.23-3.08-2.01-4.62-3v14.25c1.47.92,7.71,4.85,7.25,6.12-2.07,5.08-3.64,3.12-7.25,1.12v27.25c.24-.12.46-.18.66-.2.49-.05.85.19,1.22.64.15.18.3.39.46.63.48.72,1.05,1.69,1.94,2.76.15.18.31.36.48.55-1.68,1.01-3.19,2.32-4.75,3.53v1.1c7.66,0,35.6-.38,39,0-6.05-3.09-8.77-.47-5-7.62,1.25-1.12,11.43,3.42,13.62,3.88.89.62-.39,2.81-.88,3.75h5.94c1.07-.03,2.15-.07,3.14-.09,1.87-.04,3.45-.05,4.17.09-.07-.71-.61-1.02-.5-1.88.09-.73,6.71-11.94,7.88-12.38,1.54-.58,3.77.32,4.62,1.75.33.55.71.83.5,1.88-.12.61-5.98,9.95-6.5,10.62h11.25c2.47-2.04,2.19-3.26,5.25,0,2.24-.14,7.77-.08,13.5,0h16.5c.71-.18,9.67-7.84,11.12-7.5l3.38,4.62c-.04.23-3.23,2.49-3.75,2.88h40.5c-.54-7.74-3.01-7.57,5.38-8.5.45.21,1.45,7.56,1.38,8.5h16.75c.02-5.11,5.06-2.31,5.25-2.62.18-.31-1.86-1.98-1.5-3.75.12-.59,5.99-8.24,9.5-4.12,3.49,4.1-1.55,5.79-6,10.25v.25c.71-.17,2.84-.07,4.96,0h4.04c.5-.42.94-.8,1.32-1.15.38-.34.72-.65,1.01-.91.3-.26.55-.47.79-.62.24-.16.45-.26.67-.29.84-.15,1.59.68,3.21,2.97h35.5c-.2-.41-.67-1.13-.38-1.5,2.39-1.46,8.95-6.82,10.38-7.5v-27.25c-1.55-.86-10.4-6.24-10.5-7.38,1.38-6.35,4.5-3.65,10.5.12v-14.25c-.18-.11-.6-.4-1.15-.79-.41-.29-.88-.62-1.36-.97-.16-.12-.32-.23-.48-.35-.48-.35-.95-.7-1.35-1.01-.13-.1-.26-.2-.38-.29-.23-.18-.43-.34-.56-.47s-.22-.21-.23-.26c2.27-4.31,2.27-5.25,5.5-3.38v-27.75c-.21.2-.86.77-1.12.75-.58-.03-9.42-5.97-9.38-6.62,3.23-4.77,2.33-5.54,10.5.12v-31.75c-2.02,1.89-4.5,3.42-6.38,5.5l-4.38-4.38c1.05-1.61,10.5-8.95,10.75-9.62v-12.53c-.07-4.4-.13-8.6,0-9.97-.27.49-2.02,2.96-2.62,2.75-5.66-2.94-18.21-2.24-10-9.75,2.45,1.02,11.47,3.23,12.62,4v-21.25c-1.6-.95-5.8-3.21-5.25-4.62,2.35-4.15,2.73-3.9,5.25-2.62v-30.25c-.12.18-1.28,1.47-1.38,1.5-.59.15-10.66-3.82-10.88-4.38-.19-1.72,1.11-5.54,3.38-5.38.49.03,8.48,3.72,8.88,4v-.29s0-.08,0-.12c-.01-.14-.02-.26,0-.34-.18.08-.4.1-.65.09-.49-.04-1.08-.25-1.67-.57-.44-.24-.88-.54-1.27-.87-.26-.22-.5-.46-.71-.7-.52-.61-.82-1.26-.71-1.82.02-.09.18-.28.43-.54.17-.17.38-.37.62-.58.72-.65,1.68-1.45,2.48-2.1.27-.22.52-.42.74-.59.33-.26.59-.46.72-.56V0h-1.5c-1.86,1.26-3.88,2.31-5.62,3.75-.43-.98-2.77-3.54-2.88-3.75h-9.25c2.87,3.61,15.57,9.47,6.88,13.5-2.83.39-8.23-5.88-11.62-8.38-.47-2.7,1.36-3.69,3.25-5.12h-24.75c.4.56.69,1.19,1.25,1.62-1.49,1.01-7.79,7.17-9.12,6.88-4.85-4.52-3.98-4.46.88-8.5-.95.09-2.49.05-4.04,0h-4.96c-.19.05-.32.16-.5.25-1.75.85-2.17,5.39-6.75-.25h-16.75c-.16,2.06-7.43,1.73-6.75,0h-40.5c-.81.61-6.94,4.82-7.38,4.75-.11-.02-.7-.55-1.35-1.26-.33-.35-.68-.75-.99-1.16-.1-.13-.21-.27-.3-.4-.29-.4-.52-.79-.66-1.12-.14-.34-.18-.62-.07-.81-.99.25-8.91.11-16.5,0h-13.5c3.55,3.78-.01,3.33-5.88,9.75l-1,.25c-4.13-4.47-5.27-4.3,1.62-10h-11.25c-.18.23-.24.58-.41.9-.19.37-.52.7-1.3.74-.34.01-.76-.03-1.29-.14-.33-.07-.63-.19-.91-.33-.41-.21-.76-.47-1.1-.69-.34-.22-.65-.41-1-.47h-7.31c-1.27.04-2.54.07-3.66.07-.88,0-1.66-.02-2.28-.07-.12.24-.24.7-.41,1.13-.17.42-.39.8-.71.87-.34.07-5.22-1.84-6.62-2H0v19.5c.52-.39,2.78-2.29,3.12-2.25ZM10.12,77.5c.75-.13,12.3,8.16,12.12,9.12-1.06.78-3.69,3.55-4.88,3.38-.69-.1-10.95-7.93-10.88-8.62.4-.57,3.36-3.83,3.62-3.88ZM226.38,63c5.28,6.7,3.67,5.22-3.5,9.25l-2.88-5.38,6.38-3.88ZM215.5,40.88c-.2-.81,2.85-4.13,3.62-4.88l10.12,7.12-3.88,4.62-9.88-6.88ZM222.38,89l11.12,11.62-4.12,3.88-11.12-11.12,4.12-4.38ZM221.62,133c7.08,5.98,2.69,5.01-5,12.75-9.54-2.72-.82-7.03,5-12.75ZM160,149.62c-.24-1.22,3.34-3.51,4.38-4.38l8.38,10.38c-5.62,7.97-6.39.72-12.75-6ZM174.88,164.5l4.38,5.88-5.38,3.62c-.73-1.04-4.06-4.9-3.88-5.88l4.88-3.62ZM166.88,172.25c1.33-.17,3.55,2.98,4.38,4.12-4.7,3.31-11.09,11.28-12.75,2.5,1.02-.92,7.85-6.56,8.38-6.62ZM155.12,100.5l-2.38-11.88c.21-.89,3.1-1.61,3.88-1.62,1.01-.02,2.17-.09,2.62.88.95,10.84,5,11.66-4.12,12.62ZM178.88,190c2.99-.5,4.95,2.79,3.88,4.88-6.33,3.51-10.22,8.6-12,.25.14-.58,7.65-5.05,8.12-5.12ZM181.88,147.25l-4.88-3.38,6.62-9.12c.58-.17,4.88,2.82,4.88,3.38l-6.62,9.12ZM190.38,130.5c-.25.06-.73-.36-1.12-.5-.54-.19-3.65-2.08-3.75-2.38-.26-.81,6-12.7,6.5-13.25,1.26-1.39,2.51-.89,4-.12,1.51.78,2.43,1.81,2,3.62-.17.72-6.41,11.22-7.62,12.62ZM204.62,141.25c1.57.08,3.6,4.74,3,5.5-5.42,1.61-11.87,9.07-14.38,1.12-.56-2.26,8.27-4.51,11.38-6.62ZM187.62,107.25c.69.1,6.12-.18,6.12.12,0,.33-6.68.12-6.12-.12ZM184.5,92.88c-.01-3.83-7.12-13.28-.38-14.12.7-.09,2.43-.02,2.88.62.22.31,1.16,5,1.25,5.25.02.06.98.69,1,.75.12.37.38,3.68,1.75,6.25-.13.85-5.96,2.49-6.5,1.25ZM188,168.38c1.67-1.26,10.62-8.98,11.38-9.12,1.47-.29,3.46.89,4.12,2.25.37.76.77,1.8.5,2.62-.24.75-11.18,8.27-12.62,9.38-.7-.76-1.52-1.4-2.12-2.25-.68-.97-1.51-1.58-1.25-2.88ZM200.62,185.5c5.06-.92,6.66,4.33,3.5,6-5.96,3.14-8.58-5.08-3.5-6ZM202.62,195.5c1.79-.46,7.53,7.77,9.38,9.12.3,1.39-3.05,2.98-3.88,4.12l-8.88-9.12,3.38-4.12ZM220.38,191.5c-7.61-3.86-11.87-3.33-6.25-9.5,9.45,4.24,10.33,2.88,6.25,9.5ZM217.25,167.12l3.88-4.12,8.62,7.88-3.88,4.12-8.62-7.88ZM210.12,175c-.91-6.18-4.41-12.87.75-13.75,4.71-1.68,3.86,6.15,5.38,12.12-.23.73-4.94,1.35-6.12,1.62ZM221.62,209c8.51,6.62-5.09,8.1-9.5,9.75-7.08-6.66,3.19-6.56,9.5-9.75ZM222.62,200l-3.38-5.12,7.38-4.62,3.38,5.12-7.38,4.62ZM228.62,222c1.47-.33,7.32,8.47,8.88,9.62.12.79-3.38,3.21-4.12,3.88l-8.88-9.62,4.12-3.88ZM235.88,206.75c-.93-.62-4.21-2.44-4.12-3.62l8.38-9.62c1.29.3,4.54,2.85,4.38,4.12-1.61,1.46-6.86,9.35-8.62,9.12ZM236.12,177.25l-4.12-4.12,8.62-9.12c.82-.16,4.63,3.4,4.62,3.88-1.06,1.25-8.16,9.55-9.12,9.38ZM237.5,149.12c-.25.94-11.42,6.26-13.12,7.12-.46-.07-3.1-4.35-2.88-5.12,1.43-1.07,11.68-6.54,12.38-6.62,2.01-.25,3.82,3.87,3.62,4.62ZM213.88,123c-4.12-2.24-14.63-5.77-7-11,1.42-.24,8.23,4.87,10.12,5.88-.61,1.93-1.69,3.68-3.12,5.12ZM204.88,92l8.12,11.88-4.12,3.12c-2.21.61-6.38-8.09-8.88-11.12-.13-1.43,3.74-3.4,4.88-3.88ZM200,70.88l3.88-3.62c2.12-.49,7.72,8.65,9.38,10.38l-4.38,3.62-8.88-10.38ZM204.38,123.75c.92-.17,3.73,3.8,4.38,4.62l-9.12,8.38-4.12-4.38,8.88-8.62ZM196.38,102.5c-7.13,1.73-7.35-4.96-2.5-5.5,5.59-.62,5.67,4.73,2.5,5.5ZM183.25,58.88c-.79-1.35,2.04-2.99,3.38-4.62,1.65-.4,8.51,8,10.38,9.38-4.34,8.41-6.18,1.56-13.75-4.75ZM183.25,65.88c-1.75,1.36-10.4,7.28-11.88,6.88-7.05-6.02.86-6.39,8-11.75,1.1-.11,2.91,4.1,3.88,4.88ZM177.75,88.62l-5.88,2.38c-3.07-6.18-4.41-6.27,2.25-8.75,1.65-.63,2.13,3.69,3.62,6.38ZM172.12,46l-5.12-2.62,4.38-6.88,5.38,2.88-4.62,6.62ZM178.12,100.75c.73.06,3.63,4.86,2.75,5.5-1.99.63-12.52,6.17-13.25,6.25-1.49.17-3.78-4.85-3-5.5l13.5-6.25ZM166.5,122.88l1.25,8.5c-8.26,2.41-6.32,1.4-7.75-7.5,1.1-.2,3.93-1.09,4.38-1.12.42-.03,1.93-.09,2.12.12ZM158.38,66.75l-9.88-9.88,4.12-4.38,9.62,10.12-3.88,4.12ZM149.12,71.25c1.18-.72,4.42,4.05,4.38,4.38l-9.12,7.12c-6.78-5.23-2.47-4.8,4.75-11.5ZM139.88,180.75c-1.59-1.02-3.28-2.28-3.88-4.12l9.38-8.62c1.07-.29,4.32,3.52,4.12,4.38l-9.62,8.38ZM151,208.88l-5.62,1.62c-.67-1.81-3.08-14.62-2.88-15.38.15-.55,2.85-1.58,3.38-1.62.66-.06,1.34.04,2,0,1.07.41,2.75,13.32,3.12,15.38ZM41.88,202.25c-1.58-1.34-2.07-3.51-2.88-5.38l11.62-5.38,2.88,5.62-11.62,5.12ZM48,217.12l-5.62,1.62-2.12-7.62,5.12-1.88c1.53-.24,2.01,5.38,2.62,7.88ZM39,172.62l5.88-7.88,4.62,3.38c-5.41,7.73-3.47,9.64-10.5,4.5ZM46.25,150.88l4.12-4.38,6.62,6.12c-5.31,6.42-4.1,4.82-10.75-1.75ZM57.62,131l5.12,10.12c.41.94-5.36,3.8-5.75,2.25-4.04-8.92-6.86-9.11.62-12.38ZM59.75,127.5c-1.23-1.29-1.99-2.87-1.75-4.62.23-.76,9.55-5.33,10.12-5.38,1.9-.16,3.06,1.38,3.62,3,.28.8.66,1.48.5,2.38-2.63,1.43-11.46,6.54-12.5,4.62ZM77.12,141c2.16-.2,3.45,3,3.38,4.88-.33.95-10.7,6.2-11.88,5.88-1.38-1.31-2.49-2.95-2.62-4.88,1.37-.84,10.5-5.82,11.12-5.88ZM74.75,129.88c.68-.88,7.89-4.58,8.38-4.62,1.7-.16,3.24,3.81,3.38,5.38-5.66,2.35-11.22,8.09-11.75-.75ZM144.38,109.5l-5.88-3.62,3.38-5.38,5.88,3.38-3.38,5.62ZM145.38,163.5c-5.9,1.05-5.25-1.57-4.88-6.12.2-2.42.41-7.4,3.38-7.62,1.13-.08,3.63.91,3.88,2.12.12.6-.82,11.27-2.38,11.62ZM147.25,136.62l-15.62.12c-.91-.37-1.03-5.57.25-6,.91-.31,12.44.23,15.25,0l.12,5.88ZM118.62,132c-.79-.95-4.24-3.68-3.88-4.88l13.38-10.12c.75-.05,4.24,4.18,4.12,4.62l-13.62,10.38ZM119.88,153.25c9.26,3.43,12.33,2.34,7.75,9l-10.12-3.88c-.29-.65,1.66-4.94,2.38-5.12ZM106,119.62l-10.12,6.62-3.62-4.62,10.38-6.88,3.38,4.88ZM104.75,111.88c.31-.65,7.91-3.82,8.38-3.88,3.28-.39,4.1,5.2,2.75,6-4.96,1.08-11.56,7.06-11.12-2.12ZM103,134.75c.02-1.78,2.37-4.28,4.12-4.25.86.01,15.2,5.87,7.75,11-2.15.8-3.94-1.02-5.88-2-2.04-1.04-6.45-3.08-6-4.75ZM128.12,101c2.98-.26,4.98,3.31,4.38,5.88-6.35,7.11-10.74-5.31-4.38-5.88ZM121,87.88c-.72-.98,2.79-4.81,3.38-4.88,1.08-.12,7.97,6.17,9.62,7.12-3.91,8.5-5.9,2.87-13-2.25ZM123.75,98.12c-.61.54-3.81,4.83-4.12,4.88-.52.07-7.51-5.51-8.62-6.12.6-1.77,1.46-3.67,3.12-4.62,1.21-.19,7.95,4.96,9.62,5.88ZM106.62,83.5l-3.62-4.38,10.12-9.88,4.12,4.38-10.62,9.88ZM106,103.38c-5.55,6.69-6.66-.38-13.25-7,.35-2.34,1.99-3.07,3.88-4.12.62.04,1.13.23,1.62.62.52.41,7.95,9.64,7.75,10.5ZM94.88,87.75c-.45.38-10.66,3.52-11.25,3.5-1.24-.05-3.1-5.05-2.25-5.75,2.3-.44,10.37-3.46,11.25-3.5,2.17-.09,3.43,4.77,2.25,5.75ZM79.62,112.5c1.72-.47,8,4.8,9.88,5.88l-3.62,5.12c-8.15-5.17-12.21-4.93-6.25-11ZM92.62,132.25c1.57-.1,2.65.85,3.38,2.25.35.68.94,1.88.75,2.62-.16.64-9.39,8.33-10.12,8.38-.7.04-1.81-.77-2.38-1.25-4.57-3.94,3.34-7.74,8.38-12ZM83.5,187.62c-.42-1.49,2.78-4.52,3.38-4.62,1.37-.24,9.66,6.36,11.38,7.62l-3.38,4.88-11.38-7.88ZM79.38,209.25l-6.62-10.88c1.21-1.36,2.68-2.43,4.38-3.12,2.17.1,4.9,7.78,7.12,10.62.29,1.49-3.49,2.31-4.88,3.38ZM86.5,167.75c-.02-.07.02-.17,0-.25.52-9.76,11.51-1.07,15.5,1.88,1.09,2.57-1.76,5.02-2.12,5.12-1.82.53-13.05-5.74-13.38-6.75ZM97.88,160.25c-.93-.94-3.7-3.56-3.38-4.88l12.12-8.12c.5,0,3.94,3.86,3.62,4.88l-12.38,8.12ZM107.88,167.5l5.62,2.62-5.12,12.88-5.62-2.38,5.12-13.12ZM112.88,195.25c.87-.25,3.84,2.92,4.62,3.62l-9.88,11.38-4.12-3.88,9.38-11.12ZM113.25,180.38c5.8-7.83,5.11-11.93,11.25-6.12-.28-3.28-.61-4.46,5.12-4.5,1.73.53,1.88,9.33,2.88,10.88.45,2.48-3.32,2.23-5.62,2.88-.88-.21-1.95-6.67-2.12-8-1.02.82-5.58,7.97-6.12,8-.31.02-4.6-2.83-5.38-3.12ZM125.88,189l9.62,7.38-3.62,4.12-9.62-7.12,3.62-4.38ZM133.62,153.25l-9.62-5.62,2.88-4.88,9.88,5.38-3.12,5.12ZM137,52.12c-.69-2.22.87-4.14,3.12-4.38,1.7-.18,6.99.3,7.38,2.38,1.15,6.23-8.05,4.99-10.5,2ZM137.38,111c2.43-.56,7.11,4.04,9.38,5.38l-3.62,5.12c-6.34-4.67-12.02-5.19-5.75-10.5ZM132.62,73.75l-9.88-7.88,3.38-4.38c.91-.15,8.86,6.72,10.12,7.88l-3.62,4.38ZM128.62,51.5c-.56-.9-4.4-3.58-4.38-4.38.01-.45,4.79-6.15,5.38-7.12l5.38,3.62-6.38,7.88ZM126.25,51.38c-3.24,1.46-9.16,5.94-11.12,4.62-6.15-5.98,3.33-6.71,7.25-9.75,1.31-.09,2.92,3.98,3.88,5.12ZM115.5,41.38c-.12.51-6.66,7.39-7.12,7.62-2.17,1.1-5.19-2.49-4.88-4.12.11-.54,7.09-7.75,7.62-7.88,2.44-.55,4.94,1.97,4.38,4.38ZM109.12,56.5l4.12,4.38-9.12,8.62-3.88-4.62,8.88-8.38ZM88.25,37.38l4.12-4.62,8.38,7.62c-5.09,7.41-4.66,2.65-12.5-3ZM96.75,63.38c.16.89-3.49,4.97-4.88,4.12-5.92-6.87-12.6-8.7-4.5-13l9.38,8.88ZM83.75,76.38c.11,1.1-4.97,4.07-5.5,3-3.67-6.5-9.63-9.69-2.62-12.62,2.38-.66,5.56,6.74,8.12,9.62ZM77,90.62c.64,2.52-2.77,9.09-2.75,12.38.54-.48,1.69-3.21,4.12-3,6.53,4.26,14.02,4.4,6.5,11-1.48-.92-10.32-5.31-10.62-6.12-.07-.18,0-1.22,0-1.88-1.05.92-1.9,1.58-3.25,1.75,3.35,5.73,1.54,5.41-3.88,7.75-.4-.11-3.7-6.97-3.62-7.38.05-.26,3.99-3.07,4.25-3.12-.32-1.52,2.21-11.58,2.5-12.12,1.28-2.4,6.16-1.58,6.75.75ZM64.38,67.25l-9.62-10.38,3.88-4.12c.84-.16,8.66,9.13,9.88,10.38l-4.12,4.12ZM56.62,78.5c.93-.07,2.08.28,2.62,1.12.34.53,1.16,4.99,1.25,5.25.19.55,1.79,3.29,2.5,6.25-.1.4-5.5,2.02-5.88,1.88-.62-.23-4.13-11.75-3.88-12.62.17-.57,2.81-1.83,3.38-1.88ZM43.12,74.5c-1.14-1.23-3.98-3.66-3.38-5.38l11.12-7.88,3.88,4.88-11.62,8.38ZM49.88,101.25c.7.11,3.08,4.52,2.88,5.12l-13.88,6.62-2.88-5.12c.18-.92,12.17-5.83,13.88-6.62ZM37.25,127.88c.05.92-5.71,3.67-6,2.25-2.24-6.29-6.32-8.94-.38-11.12,3.15-1.2,4.04,4.91,6.38,8.88ZM22.12,194.75l5.38.12c.36,11.17,4.07,13.59-5.5,11.75.22-2.07-2-11.27.12-11.88ZM30.38,102c-1-.28-5.39-.48-5.62-1.38.55-1.82,1.48-12.41,2.88-12.88,1.14.02,4.98.41,5.38,1.62.2.62-1.64,12.34-2.62,12.62ZM28.12,67.25c-.91-1.18-7.66-9.49-7.62-10.12.02-.31,4.22-4.14,4.62-4.12l7.88,10.62-4.88,3.62ZM8.25,53.12c-.43-1.79,6.71-7.42,7.88-9.38,1.18-.28,4.77,3.34,4.62,4.38-6.55,6.35-6.78,10.94-12.5,5ZM18.5,120.38c-6.68-.55-11.12.38-7.62-6.62l8,.5c1.36.72-.29,4.9-.38,6.12ZM3.88,88.25c4.77-.76,6.3,7.62,1.75,8.25-4.66.65-6.59-7.48-1.75-8.25ZM.5,108.12l2.38-5.38,10.62,4.38-2.38,6.12-10.62-5.12ZM5.12,137c-1.52-.46-1.83-5.72.25-6.25,1.37-.35,11.79.26,15,0l.38,5.88c-2.08.48-14.88.6-15.62.38ZM1.5,235.62l4.12-4.38,7.38,6.88c-5.77,6.9-4.11,4.15-11.5-2.5ZM8.62,189c-1.27.43-5.35-1.48-5.38-2.88l6.88-13.12c1.59-.54,5.29,2.27,5.38,2.62.24.98-5.78,11.66-6.88,13.38ZM17.5,148.62c1.3-2.14,5.09-1.21,6.25.62.94.85-1.49,10.61-1.75,11.12-.9,1.77-4.55,1.73-5.75.38-2.74.27.91-11.57,1.25-12.12ZM31,252.38c-4.68,6.9-8.37-.69-13.25-6.5-.2-1.96,1.46-3.69,3.38-3.88.88-.09,1.96.1,2.75.5.73.37,7.72,8.22,7.12,9.88ZM24.5,216.62l4.62-1.88c1.74-.92,3.2,7.19,4.12,10.38-7.66,3.52-6,1.74-8.75-8.5ZM35.88,144c1.95-.33,6.94,7.5,8.62,9.12l-4.62,4.12c-5.99-7.37-11.45-8.77-4-13.25ZM52.25,234.38c-.23.68-11.35,5.16-12.88,6.12-8.31-6.23,2.61-7.02,10.25-11.5.87.03,2.89,4.58,2.62,5.38ZM56.62,222.25c-.5-1.62-3.46-11.98-3.38-12.62.11-.81,2.14-2.01,2.88-2.12.79-.13,2.88-.05,3.38.62.37.51,2.34,10.48,3,12.25.15,1.36-4.37,1.6-5.88,1.88ZM64.12,197.25c-1.78.43-7.54-8.22-9.38-9.62l4.38-4.62,8.88,10.62-3.88,3.62ZM66.88,171.5l-4.12-4.12,9.38-10.38,4.38,4.38-9.62,10.12ZM74.88,178.25c2.82-.19,5.34,4.63,7.88,6.62.32,1.4-2.72,4.57-4.62,4.12-3.16-3.78-10.96-7.2-3.25-10.75ZM72.5,223.88c-.06-1.46,2.91-3.17,4.12-3.62,2.09-.18,7.31,9.72,8.88,11.62l-4.38,3.38c-1.22.19-8.59-10.65-8.62-11.38ZM84.88,250.75c-5.69-4.96-12.34-4.39-6-11,1.03-.23,8.63,4.76,10.12,5.62.19.56-2.85,6.09-4.12,5.38ZM92.62,208.5c8.31-2.13,3.95,11.69-1.75,8.25-3.14-1.89-.18-7.76,1.75-8.25ZM95.88,254.75c-5.67-6.76-1.41-5.26,7.25-10.5,1.25-.61,3.74,4.11,3.62,4.62l-10.88,5.88ZM102.88,234.5c-.72-.19-8.92-9.43-10.38-10.62-.3-1.32,3.15-3.57,3.88-4.62.93-.17,10.19,10.52,11.62,11.88-.55,1.69-3.44,3.82-5.12,3.38ZM121.5,241.38c-.15.53-8.89,7.05-9,5.12-6.06-5.2.79-7.45,5.38-10.5,1.38-.1,2.68,1.58,3.12,2.75.3.79.74,1.77.5,2.62ZM119.62,223.5c-1.93-.91-1.82-5.46.25-6,.58-.15,11.72-.54,11.38,1.12.13,7.46-1.27,4.23-11.62,4.88ZM130.75,208.62c1.27-.7,10.77-3.84,11.38-3.88.41-.03.84.02,1.25,0,.2.99,1.26,4.8,1.12,5.38-.34,1.41-9.65,2.69-11.12,3.88-1.58.42-2.92-4.63-2.62-5.38ZM141.38,250.75c-3.86-7.49-.86-5.8,5.5-8,1.77-.56,1.71,2.95,2.88,5.38l-8.38,2.62ZM156.38,229.5c-1.72.42-3.59-.57-4.62-2-.28-.38-.16-.88-.75-.75-.45.29-9.59,3.83-10.12,3.75-.59-.09-2.88-3.96-2.62-4.88.2-.71,12.33-4.33,14-4.62.18-1.61-.07-4.25,1.62-5,1.65-.73,3.3-.13,4.38,1,1.95,2.05,1.17,11.75-1.88,12.5ZM159.88,196.25c-.6-.25-9.14-8.28-9.38-8.88-.8-1.99,1.1-4.63,3.12-4.88,2.57-.31,10.03,7.78,10.38,8.38,2.12,3.63-1.58,6.43-4.12,5.38ZM167.12,240.75l-2.88-5.12c1.54-1.11,12.62-7.09,13.38-7.12,1.3-.06,2.78,3.82,3.38,4.88l-13.88,7.38ZM186.12,221c-2.1.76-3.96-8.42-5.62-11.62-.47-1.06,4.11-2.62,4.38-2.62,2.62-.08,4.19,9.05,5.38,11.62.29,1.73-3.2,1.4-4.12,2.62ZM183,186.62c-.17-1.32,2.88-3.28,3.88-4.12,1.91-.33,7.94,8.6,9.62,10.38l-4.38,3.38c-1.71.2-7.44-8.08-9.12-9.62ZM196.5,236.38c-.47.3-5.44-1.99-5.5-2.5l6.88-15.12c.98.48,5.32,2.14,5.38,3.12l-6.75,14.5ZM204.12,228.25c8.84,4.07,14.24,3.27,8.25,10-4.06-1.97-16.76-4.4-8.25-10ZM213.38,251.5c-8.72-5.98-11.01-4.35-5.75-11.5l9.88,6.62c-1.15,1.32-2.08,5.08-4.12,4.88ZM245.62,237c1.65.09,2.35,2.97,2.62,4.25.03.13,1.2,1.5.12,2.5-.5.46-10.13,2.8-12.88,4.25-.07.04-.76,1.18-.88,1.25-2.46,1.38-8.96,5.85-9.5,6-1.26.34-3.08-3.26-3.88-4.38-.63-1.36,8.15-6.37,10.75-7.88.14-.08,1.1-1.23,2.62-2,1.05-.53,10.42-4.03,11-4ZM247.38,171.75c1.56-.35,4.14,2.83,4.88,4.12l-7.12,7.62c-6.99-4.26-4.13-3.87,2.25-11.75ZM246.75,134.88l-3.62,4.38c-1.4-.89-10.64-7.73-10.88-8.38-.57-1.59,1.69-3.99,3.12-4.62,1.54-.17,9.4,7.32,11.38,8.62ZM244.5,110.5c.15.62.45,1.49.25,2.12-.34,1.06-8.3,5.83-9.75,6.88-3.55,2.56-6.99,5.3-10.62,7.75-.92.1-4.01-4.67-3.88-5.12,3.5-2.65,7.18-5.07,10.75-7.62,4.56-3.27,11.48-11.16,13.25-4ZM235.62,84l-4.38-2.88,8.62-13.62,4.88,3.12c-1.29,1.7-7.78,13.53-9.12,13.38ZM251.5,48.38l-6.88,8.12c-.81-.71-4.63-2.67-4.62-3.62l6.62-8.12c1.37-.26,3.83,2.68,4.88,3.62ZM244.25,38.38c-1.35,1.61-7.3,11.32-8.88,11.12-.84-.73-4.23-2.49-4.12-3.62l8.12-10.88c1-.22,4.9,2.26,4.88,3.38ZM234.38,17.5c1.55-.13,3.87,4.23,3.62,5.12-1.78,1.37-12.24,8.16-13.38,7.88-.29-.07-3.68-3.54-3.12-4.88,1.5-1.13,12.12-8.06,12.88-8.12ZM221.88,4.25c.61,0,4.22,3.98,4.12,4.62l-10.38,9.12-4.12-4.62,10.38-9.12ZM212.88,53.5l6.88,6.88-4.12,4.12-7.12-6.62,4.38-4.38ZM204.38,13.5c1.77-.13,3.78,4.07,3.12,5.62-5.97,2.32-14.17,9.61-14.5,0,1.57-.62,10.74-5.58,11.38-5.62ZM192.5,32.88c-2.01,10.26,3.01-.48,10.38-1.88l.62.5c6.5,5.27-5.28,9.19-11.38,14-.78.03-2.31-1.39-2.88-2-2.57-2.77-1.55-2.71,1.75-4.88-12.07-.56-5.04-9.48,1.5-5.75ZM185.38,1.75l4.62,3.62c-6.11,7.43-4.33,10.8-11,4.75l6.38-8.38ZM179.12,18.5c1.35-.05,5.57,7.53,6.62,8.88-6.94,5.07-4.84,2.48-11-5.25-.11-1.29,3.44-2.92,4.38-3.62ZM165.38,16c1.02.04,5.58,7.52,6.62,8.88l-4.88,3.62c-5.35-7-10.27-9.17-1.75-12.5ZM157.38,7c1.69-.33,7.32,4,4.25,6.5-2.12,1.17-8.46-4.66-4.25-6.5ZM156.5,27.12l-5.38,2.62c-4.78-9-7.96-9.71-.25-12.75l5.62,10.12ZM141.62,1.5c.82-.02,5.11-.23,5.38.38l-.38,6.12c-2.75-.4-15.57,1.66-16.62-.38l-.25-4c-.01-1.71,9.44-2.07,11.88-2.12ZM131.62,11.25c1.41-.18,1.35.23,1.88.62.53.39,7.85,9.31,7.75,10.5-.15,1.68-3.44,4.14-5.12,3.12-5.24-6.24-12.72-10.53-4.5-14.25ZM128.5,30.12l-3.62,4.38-9.88-6.88,3.62-4.38,9.88,6.88ZM114.12,7.25c2.06-.28,5.64,2.77,5.12,6.12-1.02,6.67-14.49-1.1-5.12-6.12ZM110.38,22.25c-.56.44-11.56,4.31-13.38,4.88l-2.5-5c.09-.72,12.65-5.57,13.38-5.62,2-.16,3.63,4.85,2.5,5.75ZM92.88,4.5c.94-.37,4.69,3.87,4.62,4.38l-10.12,9.12c-7.95-5.08-2.05-5.51,5.5-13.5ZM83.12,33c.77-.11,1.7.08,2.5,0,1.21.41,2.62,11.04,3.12,12.88l-6.12,1.38c-.45-1.75-2.7-11.27-2.62-11.88.13-1.13,2.12-2.23,3.12-2.38ZM75.88,13.25c1.66-.36,4.01,4.3,3.62,5.38-2.38.94-10.86,5.62-12.62,4.88-6.32-6.17,1.59-5.98,9-10.25ZM71.88,34.25c2.33-1.44,4.11-.27,5.12,2.25.16.41.58,1.26.5,1.62-.18.79-10.66,9.63-12.12,10.88-.23-.02-.91-1.07-1.12-1.25-1.15-.96-2.74-2.13-2.25-3.88.19-.66,9.29-9.26,9.88-9.62ZM63.25,30.38c.89,1.8-1.08,5.4-4.12,4.62-.45-.11-6.69-5.7-6.88-6.12-1.15-2.59,1.44-4.73,2.62-4.88,1.6-.19,8.14,5.89,8.38,6.38ZM56.88,5l4.88,3.12-6.62,9.62-4.88-3.12,6.62-9.62ZM48.88,37.25c4.99,6.8,3.34,4.93-4.75,9.25l-2.62-5.38,7.38-3.88ZM36.12,15.5c1.63-.21,7.35,7.99,9.12,9.38-5.85,7.65-5.7,1.72-13.25-5l4.12-4.38ZM33.62,45c1.58-.37,4.44.25,4.88,2.12.12.51.14,9.99,0,10.5-.49,1.74-4.68,3.04-6.75.5.11-2.9-1.78-12.28,1.88-13.12ZM27.25,21.12l-6.12,10.38c-1.82-1.28-5-1.95-4.88-3.12l5.88-10.62c.96.48,5.12,2.33,5.12,3.38ZM5.62,2.5c10.2.85,16.93-3.12,15.38,5.62-2.05.47-14.88.61-15.62.38-1.38-.43-1.83-4.94.25-6Z"/><path class="b" d="M232,5.12c3.39,2.5,8.79,8.77,11.62,8.38,8.7-4.03-4-9.89-6.88-13.5h-1.5c-1.89,1.44-3.72,2.43-3.25,5.12Z"/><path class="b" d="M75.62,10l1-.25c5.86-6.42,9.43-5.97,5.88-9.75h-5.25c-6.9,5.7-5.76,5.53-1.62,10Z"/><path class="b" d="M202.62,8.5c1.34.29,7.63-5.87,9.12-6.88-.56-.44-.85-1.06-1.25-1.62h-7c-4.86,4.04-5.72,3.98-.88,8.5Z"/><path class="c" d="M47.62,252.25c-2.19-.46-12.37-4.99-13.62-3.88-3.77,7.15-1.05,4.54,5,7.62h7.75c.49-.94,1.77-3.13.88-3.75Z"/><path class="c" d="M246,256h8.5c.51-.35,1.01-.72,1.5-1.1v-7.9c-1.43.68-7.98,6.04-10.38,7.5-.29.37.17,1.09.38,1.5Z"/><path class="c" d="M127,253.12l-3.38-4.62c-1.45-.34-10.41,7.32-11.12,7.5h10.75c.52-.39,3.71-2.64,3.75-2.88Z"/><path class="b" d="M193.25,254c2.58-1.46,8.07-5.42,7.25-8.5-3.51-4.11-9.38,3.53-9.5,4.12-.36,1.77,1.68,3.44,1.5,3.75-.19.32-5.23-2.49-5.25,2.62h6.68c-.38-.97-2.21-2.81-.68-2Z"/><path class="b" d="M72,243.5c-.86-1.43-3.08-2.33-4.62-1.75-1.17.44-7.78,11.64-7.88,12.38-.11.85.43,1.16.5,1.88h3.88c3.14-5.34,3.44-5.86,7.12-12.12l1-.38Z"/><path class="b" d="M169.12,247.5c-8.39.93-5.92.76-5.38,8.5h6.75c.07-.94-.92-8.29-1.38-8.5Z"/><path class="b" d="M72,243.5l-1,.38c-3.68,6.27-3.98,6.78-7.12,12.12h2.12c.52-.67,6.38-10.01,6.5-10.62.21-1.04-.17-1.32-.5-1.88Z"/><path class="c" d="M193.25,254c-1.53-.81.3,1.03.68,2h.57v-.25l-1.25-1.75Z"/><path class="c" d="M245.5,212.38c.1,1.13,8.95,6.52,10.5,7.38v-7.25c-6-3.77-9.12-6.47-10.5-.12Z"/><path class="c" d="M253.38,97.25c.61.21,2.35-2.26,2.62-2.75v-3c-1.16-.77-10.18-2.98-12.62-4-8.21,7.51,4.34,6.81,10,9.75Z"/><path class="c" d="M245.25,126.62l4.38,4.38c1.88-2.08,4.35-3.61,6.38-5.5v-8.5c-.25.68-9.7,8.01-10.75,9.62Z"/><path class="c" d="M243.75,29.88c.21.55,10.28,4.53,10.88,4.38.1-.03,1.25-1.32,1.38-1.5v-4.25c-.4-.28-8.39-3.97-8.88-4-2.27-.16-3.56,3.65-3.38,5.38Z"/><path class="c" d="M245.5,157.12c-.04.65,8.79,6.59,9.38,6.62.27.02.92-.55,1.12-.75v-5.75c-8.17-5.67-7.27-4.9-10.5-.12Z"/><path class="b" d="M12,155.88c.47-1.56-5.16-14.27-5.88-14.62-2.32-1.15-4.84.66-6.12,2.5v1.25c4.45,7.28,5.04,17.66,12,10.88Z"/><path class="c" d="M8.25,196.62c-2.39-1.52-6.13-4.65-8.25-5.88v7.5c1.54.99,3.23,1.77,4.62,3l3.62-4.62Z"/><path class="c" d="M8,68.38c-2.02-1.25-6.68-4.71-8-5.38v7.25c.66.4,4.58,2.82,4.88,2.75l3.12-4.62Z"/><path class="c" d="M6.75,21.88l-3.62-4.62c-.35-.04-2.6,1.86-3.12,2.25v8.25c.22-.59,5.74-4.85,6.75-5.88Z"/><path class="b" d="M191,38.62c-3.3,2.16-4.32,2.11-1.75,4.88-.03-.54,1.32.74,1.62.75.84.02,13.29-8.96,13.62-9.88.27-.73-.85-2.15-1-2.88l-.62-.5c-7.36,1.39-12.39,12.13-10.38,1.88-6.54-3.73-13.57,5.19-1.5,5.75Z"/><path class="b" d="M146.62,8l.38-6.12c-.27-.61-4.56-.39-5.38-.38-2.43.05-11.89.41-11.88,2.12l.25,4c1.06,2.03,13.87-.03,16.62.38Z"/><path class="c" d="M128.12,117l-13.38,10.12c-.36,1.19,3.08,3.92,3.88,4.88l13.62-10.38c.11-.44-3.38-4.68-4.12-4.62Z"/><path class="b" d="M164,190.88c-.35-.59-7.8-8.68-10.38-8.38-2.02.24-3.92,2.88-3.12,4.88.24.6,8.78,8.63,9.38,8.88,2.55,1.05,6.24-1.75,4.12-5.38Z"/><path class="c" d="M224.62,30.5c1.14.29,11.6-6.51,13.38-7.88.25-.89-2.08-5.26-3.62-5.12-.76.06-11.38,6.99-12.88,8.12-.56,1.33,2.84,4.8,3.12,4.88Z"/><path class="c" d="M197.88,218.75l-6.88,15.12c.06.51,5.03,2.8,5.5,2.5l6.75-14.5c-.06-.98-4.39-2.64-5.38-3.12Z"/><path class="c" d="M96.38,219.25c-.73,1.05-4.18,3.3-3.88,4.62,1.46,1.2,9.66,10.44,10.38,10.62,1.68.44,4.57-1.68,5.12-3.38-1.43-1.35-10.69-12.05-11.62-11.88Z"/><path class="b" d="M141.25,22.38c.1-1.19-7.22-10.11-7.75-10.5-.53-.39-.47-.81-1.88-.62-8.22,3.72-.74,8.01,4.5,14.25,1.68,1.02,4.98-1.44,5.12-3.12Z"/><path class="c" d="M20.38,130.75c-3.21.26-13.63-.35-15,0-2.08.53-1.77,5.79-.25,6.25.75.23,13.55.1,15.62-.38l-.38-5.88Z"/><path class="b" d="M70.25,89.88c-.29.55-2.82,10.6-2.5,12.12,1.52-.31,2.64,1.71,3.25,2.75,1.35-.17,2.2-.83,3.25-1.75-.02-3.29,3.39-9.85,2.75-12.38-.59-2.33-5.47-3.15-6.75-.75Z"/><path class="b" d="M10.12,173l-6.88,13.12c.02,1.39,4.11,3.3,5.38,2.88,1.09-1.71,7.11-12.4,6.88-13.38-.09-.35-3.78-3.17-5.38-2.62Z"/><path class="b" d="M23.88,242.5c-.79-.4-1.87-.59-2.75-.5-1.92.19-3.58,1.91-3.38,3.88,4.88,5.81,8.57,13.4,13.25,6.5.6-1.66-6.39-9.5-7.12-9.88Z"/><path class="c" d="M145.88,193.5c-.53.05-3.23,1.07-3.38,1.62-.2.76,2.21,13.56,2.88,15.38l5.62-1.62c-.38-2.06-2.06-14.96-3.12-15.38-.66.04-1.34-.06-2,0Z"/><path class="c" d="M167.62,112.5c.73-.08,11.26-5.62,13.25-6.25.88-.64-2.02-5.44-2.75-5.5l-13.5,6.25c-.78.65,1.51,5.67,3,5.5Z"/><path class="c" d="M229.38,104.5l4.12-3.88-11.12-11.62-4.12,4.38,11.12,11.12Z"/><path class="c" d="M177.62,228.5c-.76.04-11.84,6.01-13.38,7.12l2.88,5.12,13.88-7.38c-.59-1.06-2.08-4.94-3.38-4.88Z"/><path class="c" d="M5.38,8.5c.75.23,13.57.1,15.62-.38C22.56-.62,15.83,3.35,5.62,2.5c-2.08,1.06-1.63,5.57-.25,6Z"/><path class="c" d="M231.25,81.12l4.38,2.88c1.34.16,7.84-11.68,9.12-13.38l-4.88-3.12-8.62,13.62Z"/><path class="c" d="M36,107.88l2.88,5.12,13.88-6.62c.2-.61-2.18-5.02-2.88-5.12-1.71.79-13.69,5.7-13.88,6.62Z"/><path class="c" d="M131.88,130.75c-1.28.43-1.16,5.63-.25,6l15.62-.12-.12-5.88c-2.81.23-14.34-.31-15.25,0Z"/><path class="c" d="M106.62,147.25l-12.12,8.12c-.33,1.32,2.45,3.93,3.38,4.88l12.38-8.12c.32-1.02-3.13-4.88-3.62-4.88Z"/><path class="b" d="M81.12,235.25l4.38-3.38c-1.57-1.91-6.79-11.8-8.88-11.62-1.22.46-4.19,2.17-4.12,3.62.03.72,7.4,11.56,8.62,11.38Z"/><path class="c" d="M94.5,22.12l2.5,5c1.81-.56,12.82-4.43,13.38-4.88,1.13-.9-.5-5.91-2.5-5.75-.73.06-13.28,4.9-13.38,5.62Z"/><path class="c" d="M233.88,144.5c-.7.09-10.94,5.56-12.38,6.62-.23.78,2.41,5.06,2.88,5.12,1.7-.87,12.88-6.18,13.12-7.12.2-.75-1.61-4.88-3.62-4.62Z"/><path class="b" d="M208.88,107l4.12-3.12-8.12-11.88c-1.14.48-5,2.45-4.88,3.88,2.5,3.03,6.66,11.73,8.88,11.12Z"/><path class="b" d="M38.5,57.62c.14-.51.12-9.99,0-10.5-.43-1.88-3.3-2.49-4.88-2.12-3.66.85-1.76,10.23-1.88,13.12,2.07,2.54,6.26,1.24,6.75-.5Z"/><path class="c" d="M49.62,229c-7.64,4.48-18.56,5.27-10.25,11.5,1.53-.97,12.65-5.45,12.88-6.12.27-.8-1.76-5.34-2.62-5.38Z"/><path class="b" d="M39.75,69.12c-.6,1.72,2.24,4.15,3.38,5.38l11.62-8.38-3.88-4.88-11.12,7.88Z"/><path class="b" d="M99.88,174.5c.37-.11,3.22-2.55,2.12-5.12-3.99-2.94-14.98-11.64-15.5-1.88.31-2.34,8.3,4.05,12.25,5.62.8,2.6-11.14-5.07-12.25-5.38.33,1.01,11.55,7.28,13.38,6.75Z"/><path class="c" d="M96.62,92.25c-1.88,1.06-3.52,1.79-3.88,4.12,6.59,6.62,7.7,13.69,13.25,7,.2-.86-7.23-10.09-7.75-10.5-.49-.39-1-.59-1.62-.62Z"/><path class="c" d="M17.38,90c1.18.18,3.81-2.59,4.88-3.38.18-.97-11.37-9.25-12.12-9.12-.26.04-3.23,3.3-3.62,3.88-.08.69,10.18,8.52,10.88,8.62Z"/><path class="c" d="M226,8.88c.1-.64-3.52-4.63-4.12-4.62l-10.38,9.12,4.12,4.62,10.38-9.12Z"/><path class="c" d="M235.38,49.5c1.58.2,7.52-9.51,8.88-11.12.03-1.12-3.87-3.6-4.88-3.38l-8.12,10.88c-.1,1.13,3.29,2.9,4.12,3.62Z"/><path class="c" d="M117.5,198.88c-.79-.7-3.75-3.88-4.62-3.62l-9.38,11.12,4.12,3.88,9.88-11.38Z"/><path class="c" d="M98.25,190.62c-1.72-1.27-10.01-7.87-11.38-7.62-.59.1-3.79,3.13-3.38,4.62l11.38,7.88,3.38-4.88Z"/><path class="c" d="M87.38,18l10.12-9.12c.06-.5-3.69-4.74-4.62-4.38-7.55,7.99-13.45,8.42-5.5,13.5Z"/><path class="c" d="M191,91.62c-1.37-2.57-1.63-5.88-1.75-6.25-.02-.06-.98-.69-1-.75-.09-.25-1.03-4.94-1.25-5.25-.45-.64-2.17-.71-2.88-.62-6.75.84.36,10.29.38,14.12.54,1.24,6.37-.4,6.5-1.25Z"/><path class="c" d="M56.12,207.5c-.74.12-2.77,1.32-2.88,2.12-.09.65,2.88,11.01,3.38,12.62,1.5-.28,6.02-.52,5.88-1.88-.66-1.77-2.63-11.74-3-12.25-.49-.68-2.58-.75-3.38-.62Z"/><path class="c" d="M207.5,19.12c.65-1.56-1.36-5.76-3.12-5.62-.63.05-9.81,5-11.38,5.62.33,9.61,8.53,2.32,14.5,0Z"/><path class="b" d="M186.62,54.25c-1.34,1.64-4.16,3.27-3.38,4.62,7.57,6.31,9.41,13.16,13.75,4.75-1.86-1.38-8.72-9.77-10.38-9.38Z"/><path class="b" d="M196.5,192.88c-1.69-1.78-7.71-10.7-9.62-10.38-.99.84-4.05,2.8-3.88,4.12,1.68,1.55,7.41,9.83,9.12,9.62l4.38-3.38Z"/><path class="c" d="M103,79.12l3.62,4.38,10.62-9.88-4.12-4.38-10.12,9.88Z"/><path class="c" d="M79.5,18.62c.38-1.08-1.97-5.73-3.62-5.38-7.41,4.27-15.32,4.08-9,10.25,1.77.75,10.25-3.94,12.62-4.88Z"/><path class="b" d="M179.38,61c-7.14,5.36-15.05,5.73-8,11.75,1.48.4,10.12-5.52,11.88-6.88-.97-.77-2.78-4.99-3.88-4.88Z"/><path class="c" d="M113.5,170.12l-5.62-2.62-5.12,13.12,5.62,2.38,5.12-12.88Z"/><path class="c" d="M232.25,130.88c.23.65,9.48,7.49,10.88,8.38l3.62-4.38c-1.97-1.31-9.83-8.79-11.38-8.62-1.43.63-3.7,3.03-3.12,4.62Z"/><path class="b" d="M54.75,187.62c1.84,1.4,7.6,10.05,9.38,9.62l3.88-3.62-8.88-10.62-4.38,4.62Z"/><path class="b" d="M160,149.62c6.36,6.72,7.13,13.97,12.75,6l-8.38-10.38c-1.04.86-4.62,3.15-4.38,4.38Z"/><path class="c" d="M80.5,145.88c.07-1.87-1.21-5.08-3.38-4.88-.63.06-9.75,5.03-11.12,5.88.13,1.92,1.25,3.57,2.62,4.88,1.18.32,11.54-4.92,11.88-5.88Z"/><path class="c" d="M88.75,45.88c-.5-1.84-1.92-12.47-3.12-12.88-.8.08-1.73-.11-2.5,0-1.01.14-2.99,1.24-3.12,2.38-.07.6,2.18,10.12,2.62,11.88l6.12-1.38Z"/><path class="c" d="M91.88,67.5c1.39.84,5.04-3.24,4.88-4.12l-9.38-8.88c-8.1,4.3-1.42,6.13,4.5,13Z"/><path class="c" d="M148.5,56.88l9.88,9.88,3.88-4.12-9.62-10.12-4.12,4.38Z"/><path class="c" d="M220.5,122.12c-.14.46,2.96,5.22,3.88,5.12,3.64-2.45,7.07-5.19,10.62-7.75l-3.75-5c-3.57,2.56-7.25,4.97-10.75,7.62Z"/><path class="c" d="M72.12,157l-9.38,10.38,4.12,4.12,9.62-10.12-4.38-4.38Z"/><path class="c" d="M74.25,104.88c.3.81,9.14,5.2,10.62,6.12,7.52-6.6.03-6.74-6.5-11-2.43-.21-3.58,2.52-4.12,3,0,.65-.07,1.69,0,1.88Z"/><path class="c" d="M27.62,87.75c-1.4.47-2.32,11.05-2.88,12.88.24.89,4.62,1.09,5.62,1.38.99-.28,2.82-12.01,2.62-12.62-.39-1.22-4.23-1.6-5.38-1.62Z"/><path class="c" d="M232,243c-2.6,1.51-11.38,6.51-10.75,7.88.8,1.11,2.61,4.71,3.88,4.38.54-.15,7.04-4.62,9.5-6,.12-.07.81-1.21.88-1.25-.18-.49-.73-.92-1-1.25-.99-1.19-1.75-2.4-2.5-3.75Z"/><path class="c" d="M53.25,80.38c-.25.87,3.25,12.39,3.88,12.62.38.14,5.78-1.47,5.88-1.88-.71-2.96-2.31-5.7-2.5-6.25-.09-.26-.91-4.72-1.25-5.25-.54-.85-1.7-1.2-2.62-1.12-.56.05-3.21,1.31-3.38,1.88Z"/><path class="c" d="M58.62,52.75l-3.88,4.12,9.62,10.38,4.12-4.12c-1.22-1.24-9.04-10.53-9.88-10.38Z"/><path class="c" d="M212.12,218.75c4.41-1.65,18.01-3.13,9.5-9.75-6.31,3.19-16.58,3.09-9.5,9.75Z"/><path class="c" d="M213.25,77.62c-1.66-1.72-7.26-10.86-9.38-10.38l-3.88,3.62,8.88,10.38,4.38-3.62Z"/><path class="c" d="M207.62,146.75c.6-.76-1.43-5.42-3-5.5-3.1,2.11-11.94,4.36-11.38,6.62,2.5,7.94,8.96.48,14.38-1.12Z"/><path class="b" d="M45.25,24.88c-1.77-1.38-7.49-9.58-9.12-9.38l-4.12,4.38c7.55,6.72,7.4,12.65,13.25,5Z"/><path class="b" d="M244.5,197.62c.17-1.27-3.09-3.83-4.38-4.12l-8.38,9.62c-.08,1.18,3.2,3,4.12,3.62,1.77.23,7.02-7.67,8.62-9.12Z"/><path class="c" d="M126.88,183.5c2.31-.64,6.08-.39,5.62-2.88-1-1.55-1.14-10.35-2.88-10.88-5.74.04-5.41,1.22-5.12,4.5,0,.06.14.38.25,1.25.17,1.33,1.24,7.79,2.12,8Z"/><path class="b" d="M143.88,149.75c-2.97.22-3.18,5.2-3.38,7.62-.37,4.55-1.03,7.17,4.88,6.12,1.56-.36,2.5-11.03,2.38-11.62-.25-1.22-2.74-2.21-3.88-2.12Z"/><path class="c" d="M210.88,161.25c-5.16.88-1.66,7.57-.75,13.75,1.18-.27,5.89-.9,6.12-1.62-1.52-5.98-.67-13.81-5.38-12.12Z"/><path class="b" d="M50.62,191.5l-11.62,5.38c.8,1.87,1.3,4.03,2.88,5.38l11.62-5.12-2.88-5.62Z"/><path class="c" d="M20.5,57.12c-.04.63,6.71,8.94,7.62,10.12l4.88-3.62-7.88-10.62c-.4-.02-4.61,3.82-4.62,4.12Z"/><path class="c" d="M216.62,145.75c7.69-7.74,12.08-6.77,5-12.75-5.82,5.72-14.54,10.03-5,12.75Z"/><path class="c" d="M184.88,206.75c-.27,0-4.84,1.56-4.38,2.62,1.66,3.21,3.53,12.39,5.62,11.62.92-1.22,4.41-.89,4.12-2.62-1.19-2.57-2.75-11.7-5.38-11.62Z"/><path class="c" d="M145.38,168l-9.38,8.62c.59,1.84,2.28,3.1,3.88,4.12l9.62-8.38c.19-.85-3.06-4.66-4.12-4.38Z"/><path class="b" d="M44.5,153.12c-1.68-1.62-6.68-9.46-8.62-9.12-7.45,4.48-1.99,5.88,4,13.25l4.62-4.12Z"/><path class="c" d="M92.62,82c-.88.04-8.95,3.06-11.25,3.5-.85.7,1.01,5.7,2.25,5.75.59.02,10.8-3.12,11.25-3.5,1.18-.98-.08-5.84-2.25-5.75Z"/><path class="c" d="M77.12,195.25c-1.7.69-3.16,1.77-4.38,3.12l6.62,10.88c1.39-1.07,5.16-1.88,4.88-3.38-2.22-2.85-4.96-10.53-7.12-10.62Z"/><path class="b" d="M111.12,37c-.53.12-7.52,7.34-7.62,7.88-.32,1.63,2.7,5.22,4.88,4.12.47-.24,7.01-7.12,7.12-7.62.57-2.41-1.94-4.92-4.38-4.38Z"/><path class="c" d="M240.62,164l-8.62,9.12,4.12,4.12c.96.18,8.07-8.12,9.12-9.38,0-.47-3.81-4.04-4.62-3.88Z"/><path class="b" d="M199.62,136.75l9.12-8.38c-.64-.82-3.45-4.8-4.38-4.62l-8.88,8.62,4.12,4.38Z"/><path class="c" d="M159.25,87.88c-.46-.97-1.62-.89-2.62-.88-.78.01-3.67.73-3.88,1.62l2.38,11.88c9.13-.97,5.08-1.79,4.12-12.62Z"/><path class="c" d="M237.5,231.62c-1.55-1.16-7.41-9.96-8.88-9.62l-4.12,3.88,8.88,9.62c.74-.66,4.25-3.09,4.12-3.88Z"/><path class="c" d="M144.5,210.12c.14-.57-.92-4.39-1.12-5.38-.41.02-.84-.03-1.25,0-.6.04-10.1,3.17-11.38,3.88-.3.75,1.05,5.79,2.62,5.38,1.48-1.19,10.78-2.47,11.12-3.88Z"/><path class="b" d="M196,114.25c-1.49-.76-2.74-1.27-4,.12-.5.55-6.76,12.44-6.5,13.25.1.3,3.21,2.18,3.75,2.38.56-2,7.81-13.56,7.75-14.38-.04-.52-1.15-.61-1-1.38Z"/><path class="c" d="M204.12,228.25c-8.51,5.6,4.19,8.03,8.25,10,5.99-6.73.59-5.93-8.25-10Z"/><path class="c" d="M16.12,43.75c-1.17,1.96-8.3,7.58-7.88,9.38,5.72,5.94,5.95,1.35,12.5-5,.15-1.03-3.45-4.65-4.62-4.38Z"/><path class="b" d="M64.25,47.75c2.26-1.83,4.52-3.75,6.62-5.75.94-.89,4.9-5.58,5.25-5.75.25-.13.54.41.88.25-1.01-2.52-2.79-3.69-5.12-2.25-.59.36-9.69,8.96-9.88,9.62-.49,1.75,1.1,2.92,2.25,3.88Z"/><path class="c" d="M212,204.62c-1.84-1.35-7.59-9.59-9.38-9.12l-3.38,4.12,8.88,9.12c.82-1.15,4.18-2.73,3.88-4.12Z"/><path class="b" d="M109,139.5c1.93.98,3.73,2.8,5.88,2,7.45-5.13-6.89-10.99-7.75-11-1.76-.03-4.1,2.47-4.12,4.25l10.88,5.75c.17,2.49-3.8-1.73-4.88-1Z"/><path class="c" d="M121,87.88c7.1,5.12,9.09,10.75,13,2.25-1.66-.96-8.54-7.25-9.62-7.12-.58.07-4.1,3.9-3.38,4.88Z"/><path class="b" d="M27.5,194.88l-5.38-.12c-2.12.6.1,9.81-.12,11.88,9.57,1.84,5.86-.58,5.5-11.75Z"/><path class="c" d="M75.62,66.75c-7,2.93-1.05,6.12,2.62,12.62.53,1.07,5.61-1.9,5.5-3-2.56-2.88-5.74-10.28-8.12-9.62Z"/><path class="c" d="M213.88,123c1.44-1.44,2.52-3.19,3.12-5.12-1.89-1-8.71-6.11-10.12-5.88-7.63,5.23,2.88,8.76,7,11Z"/><path class="c" d="M213.38,251.5c2.04.21,2.97-3.55,4.12-4.88l-9.88-6.62c-5.26,7.15-2.97,5.52,5.75,11.5Z"/><path class="b" d="M190.88,172c.81-.14,11.23-9.11,12.62-10.5-.67-1.36-2.66-2.54-4.12-2.25-.75.15-9.7,7.86-11.38,9.12-.26,1.29.57,1.91,1.25,2.88.74-.07.8.9,1.62.75Z"/><path class="c" d="M21.12,31.5l6.12-10.38c0-1.04-4.16-2.9-5.12-3.38l-5.88,10.62c-.12,1.18,3.05,1.85,4.88,3.12Z"/><path class="c" d="M84.88,250.75c1.28.72,4.31-4.81,4.12-5.38-1.5-.87-9.1-5.86-10.12-5.62-6.34,6.61.31,6.04,6,11Z"/><path class="c" d="M92.25,121.62l3.62,4.62,10.12-6.62-3.38-4.88-10.38,6.88Z"/><path class="c" d="M89.5,118.38c-1.88-1.08-8.15-6.35-9.88-5.88-5.96,6.07-1.9,5.83,6.25,11l3.62-5.12Z"/><path class="b" d="M19.88,161.25c1.35-.46,2.06-10.62,3.88-12-1.16-1.84-4.95-2.76-6.25-.62-.34.56-3.99,12.39-1.25,12.12.25-.62,1.98,1.06,3.62.5Z"/><path class="c" d="M219.12,36c-.78.75-3.83,4.07-3.62,4.88l9.88,6.88,3.88-4.62-10.12-7.12Z"/><path class="c" d="M103.12,244.25c-8.66,5.24-12.92,3.74-7.25,10.5l10.88-5.88c.12-.52-2.37-5.23-3.62-4.62Z"/><path class="b" d="M232,243c.75,1.35,1.51,2.56,2.5,3.75,4-2.7,9.42-3.14,13.75-5.5-.27-1.28-.98-4.16-2.62-4.25-.58-.03-9.95,3.47-11,4-1.52.77-2.48,1.92-2.62,2Z"/><path class="c" d="M13.5,107.12l-10.62-4.38-2.38,5.38,10.62,5.12,2.38-6.12Z"/><path class="c" d="M122.75,65.88l9.88,7.88,3.62-4.38c-1.26-1.16-9.21-8.03-10.12-7.88l-3.38,4.38Z"/><path class="c" d="M104.12,69.5l9.12-8.62-4.12-4.38-8.88,8.38,3.88,4.62Z"/><path class="b" d="M167.12,28.5l4.88-3.62c-1.05-1.35-5.6-8.83-6.62-8.88-8.52,3.33-3.6,5.5,1.75,12.5Z"/><path class="c" d="M122.38,46.25c-3.92,3.04-13.4,3.77-7.25,9.75,1.97,1.32,7.88-3.16,11.12-4.62-.96-1.15-2.56-5.21-3.88-5.12Z"/><path class="c" d="M152.25,221c-1.67.3-13.8,3.91-14,4.62-.25.91,2.03,4.79,2.62,4.88.53.08,9.67-3.46,10.12-3.75,2.1-1.37.98-3.26,1.25-5.75Z"/><path class="b" d="M84.25,144.25c.52-.16.91.38,1.38.25.7-.2,10.36-8.23,10.38-10-.73-1.4-1.81-2.35-3.38-2.25-5.03,4.26-12.95,8.06-8.38,12Z"/><path class="c" d="M144.38,82.75l9.12-7.12c.05-.32-3.19-5.1-4.38-4.38-7.22,6.7-11.53,6.27-4.75,11.5Z"/><path class="c" d="M119.88,217.5c-2.07.54-2.18,5.09-.25,6,10.36-.64,11.76,2.58,11.62-4.88.34-1.66-10.8-1.27-11.38-1.12Z"/><path class="b" d="M52.25,28.88c.19.42,6.43,6.01,6.88,6.12,3.04.78,5.01-2.83,4.12-4.62-.24-.48-6.77-6.57-8.38-6.38-1.19.14-3.78,2.29-2.62,4.88Z"/><path class="c" d="M124.75,175.5c-.11-.87-.24-1.19-.25-1.25-6.14-5.81-5.45-1.71-11.25,6.12.78.29,5.06,3.14,5.38,3.12.55-.03,5.11-7.18,6.12-8Z"/><path class="b" d="M182.75,194.88c1.08-2.09-.89-5.38-3.88-4.88-.47.08-7.98,4.55-8.12,5.12,1.78,8.35,5.67,3.26,12-.25Z"/><path class="c" d="M62.75,141.12l-5.12-10.12c-7.49,3.26-4.67,3.46-.62,12.38.39,1.55,6.16-1.31,5.75-2.25Z"/><path class="c" d="M171.25,176.38c-.83-1.15-3.05-4.3-4.38-4.12-.53.07-7.35,5.71-8.38,6.62,1.66,8.78,8.05.81,12.75-2.5Z"/><path class="c" d="M115.88,114c1.35-.8.53-6.39-2.75-6-.46.06-8.07,3.23-8.38,3.88-.44,9.18,6.17,3.2,11.12,2.12Z"/><path class="b" d="M235,119.5c2.47-2.37,1.7-2.61,2.12-3,2.24-2.08,5.57-3.32,7.38-6-1.77-7.16-8.69.73-13.25,4l3.75,5Z"/><path class="c" d="M151.12,29.75l5.38-2.62-5.62-10.12c-7.71,3.04-4.53,3.75.25,12.75Z"/><path class="c" d="M115,27.62l9.88,6.88,3.62-4.38-9.88-6.88-3.62,4.38Z"/><path class="c" d="M135.5,196.38l-9.62-7.38-3.62,4.38,9.62,7.12,3.62-4.12Z"/><path class="c" d="M143.12,121.5l3.62-5.12c-2.27-1.33-6.95-5.93-9.38-5.38-6.27,5.31-.59,5.83,5.75,10.5Z"/><path class="c" d="M29.12,214.75l-4.62,1.88c2.75,10.24,1.09,12.02,8.75,8.5-.92-3.18-2.38-11.29-4.12-10.38Z"/><path class="c" d="M88.25,37.38c7.84,5.65,7.41,10.41,12.5,3l-8.38-7.62-4.12,4.62Z"/><path class="b" d="M78.12,189c1.9.45,4.94-2.72,4.62-4.12-2.54-2-5.06-6.82-7.88-6.62-7.71,3.55.09,6.97,3.25,10.75Z"/><path class="c" d="M61.75,8.12l-4.88-3.12-6.62,9.62,4.88,3.12,6.62-9.62Z"/><path class="c" d="M183.62,134.75l-6.62,9.12,4.88,3.38,6.62-9.12c0-.55-4.29-3.55-4.88-3.38Z"/><path class="c" d="M126.88,142.75l-2.88,4.88,9.62,5.62,3.12-5.12-9.88-5.38Z"/><path class="c" d="M229.75,170.88l-8.62-7.88-3.88,4.12,8.62,7.88,3.88-4.12Z"/><path class="c" d="M111,96.88c1.12.61,8.1,6.2,8.62,6.12.32-.05,3.52-4.33,4.12-4.88-1.68-.91-8.42-6.07-9.62-5.88-1.66.96-2.53,2.86-3.12,4.62Z"/><path class="c" d="M245.12,183.5l7.12-7.62c-.74-1.29-3.32-4.48-4.88-4.12-6.38,7.88-9.24,7.49-2.25,11.75Z"/><path class="c" d="M83.12,125.25c-.48.04-7.7,3.74-8.38,4.62.53,8.84,6.09,3.1,11.75.75-.14-1.56-1.67-5.53-3.38-5.38Z"/><path class="c" d="M30.88,119c-5.94,2.19-1.86,4.83.38,11.12.29,1.42,6.05-1.33,6-2.25-2.33-3.96-3.23-10.08-6.38-8.88Z"/><path class="c" d="M244.62,56.5l6.88-8.12c-1.05-.94-3.5-3.88-4.88-3.62l-6.62,8.12c0,.96,3.81,2.92,4.62,3.62Z"/><path class="c" d="M117.5,158.38l10.12,3.88c4.58-6.66,1.51-5.57-7.75-9-.71.19-2.67,4.48-2.38,5.12Z"/><path class="c" d="M185.75,27.38c-1.06-1.35-5.27-8.93-6.62-8.88-.93.7-4.48,2.33-4.38,3.62,6.16,7.73,4.06,10.32,11,5.25Z"/><path class="b" d="M157.75,224.62c.14-1.14-.66-7.79.5-7.62-1.07-1.13-2.73-1.73-4.38-1-1.69.75-1.45,3.39-1.62,5-.27,2.49.85,4.38-1.25,5.75.59-.13.47.37.75.75,4.3,2.77,5.41,1.93,6-2.88Z"/><path class="b" d="M68.12,117.5c-.58.05-9.89,4.61-10.12,5.38-.24,1.76.52,3.34,1.75,4.62,3.46-3.07,8.63-3.71,12-7-.57-1.62-1.72-3.16-3.62-3Z"/><path class="c" d="M190,5.38l-4.62-3.62-6.38,8.38c6.67,6.05,4.89,2.68,11-4.75Z"/><path class="c" d="M1.5,235.62c7.39,6.65,5.73,9.4,11.5,2.5l-7.38-6.88-4.12,4.38Z"/><path class="c" d="M220.38,191.5c4.08-6.62,3.2-5.26-6.25-9.5-5.62,6.17-1.36,5.64,6.25,9.5Z"/><path class="c" d="M124.25,47.12c-.03.79,3.81,3.47,4.38,4.38l6.38-7.88-5.38-3.62c-.58.97-5.36,6.68-5.38,7.12Z"/><path class="c" d="M49.5,168.12l-4.62-3.38-5.88,7.88c7.03,5.14,5.09,3.23,10.5-4.5Z"/><path class="b" d="M160,123.88c1.43,8.9-.51,9.91,7.75,7.5l-1.25-8.5c-.2-.21-1.71-.16-2.12-.12-.45.03-3.27.92-4.38,1.12Z"/><path class="c" d="M219.75,60.38l-6.88-6.88-4.38,4.38,7.12,6.62,4.12-4.12Z"/><path class="b" d="M67.75,102c-.26.05-4.2,2.87-4.25,3.12-.08.4,3.23,7.27,3.62,7.38,5.41-2.34,7.23-2.02,3.88-7.75-.61-1.04-1.73-3.06-3.25-2.75Z"/><path class="c" d="M57,152.62l-6.62-6.12-4.12,4.38c6.65,6.57,5.44,8.17,10.75,1.75Z"/><path class="b" d="M140.12,47.75c-2.26.24-3.82,2.15-3.12,4.38,2.45,2.99,11.65,4.23,10.5-2-.38-2.07-5.68-2.55-7.38-2.38Z"/><path class="b" d="M118.88,241.5c1.52-1.57,1.3-2.91,2.12-2.75-.45-1.17-1.74-2.85-3.12-2.75-4.58,3.05-11.44,5.3-5.38,10.5,1.51-2.32,4.51-3.08,6.38-5Z"/><path class="c" d="M226.62,190.25l-7.38,4.62,3.38,5.12,7.38-4.62-3.38-5.12Z"/><path class="c" d="M10.88,113.75c-3.49,7.01.94,6.08,7.62,6.62.08-1.23,1.73-5.41.38-6.12l-8-.5Z"/><path class="b" d="M119.25,13.38c.51-3.36-3.06-6.41-5.12-6.12-9.36,5.03,4.11,12.79,5.12,6.12Z"/><path class="c" d="M146.88,242.75c-6.36,2.2-9.36.51-5.5,8l8.38-2.62c-1.17-2.43-1.1-5.94-2.88-5.38Z"/><path class="c" d="M44.12,46.5c8.09-4.32,9.74-2.45,4.75-9.25l-7.38,3.88,2.62,5.38Z"/><path class="b" d="M92.62,208.5c-1.93.49-4.89,6.36-1.75,8.25,5.7,3.44,10.06-10.38,1.75-8.25Z"/><path class="c" d="M40.25,211.12l2.12,7.62,5.62-1.62c-.61-2.5-1.1-8.11-2.62-7.88l-5.12,1.88Z"/><path class="c" d="M226.38,63l-6.38,3.88,2.88,5.38c7.17-4.03,8.78-2.55,3.5-9.25Z"/><path class="c" d="M167,43.38l5.12,2.62,4.62-6.62-5.38-2.88-4.38,6.88Z"/><path class="c" d="M173.88,174l5.38-3.62-4.38-5.88-4.88,3.62c-.19.97,3.15,4.83,3.88,5.88Z"/><path class="b" d="M5.62,96.5c4.55-.63,3.02-9.01-1.75-8.25-4.84.77-2.91,8.9,1.75,8.25Z"/><path class="b" d="M132.5,106.88c.6-2.57-1.4-6.14-4.38-5.88-6.37.56-1.98,12.98,4.38,5.88Z"/><path class="c" d="M174.12,82.25c-6.66,2.48-5.32,2.57-2.25,8.75l5.88-2.38c-1.5-2.68-1.98-7-3.62-6.38Z"/><path class="c" d="M138.5,105.88l5.88,3.62,3.38-5.62-5.88-3.38-3.38,5.38Z"/><path class="b" d="M204.12,191.5c3.16-1.67,1.56-6.92-3.5-6-5.08.92-2.46,9.14,3.5,6Z"/><path class="b" d="M193.88,97c-4.85.54-4.63,7.23,2.5,5.5,3.17-.77,3.09-6.12-2.5-5.5Z"/><path class="b" d="M204.5,34.38c-.34.91-12.78,9.89-13.62,9.88-.31,0-1.65-1.29-1.62-.75.56.61,2.1,2.03,2.88,2,6.1-4.81,17.87-8.73,11.38-14,.15.73,1.27,2.15,1,2.88Z"/><path class="b" d="M189.25,171.25c.6.85,1.42,1.49,2.12,2.25,1.44-1.11,12.38-8.63,12.62-9.38.27-.82-.13-1.86-.5-2.62-1.39,1.39-11.82,10.36-12.62,10.5-.83.15-.89-.82-1.62-.75Z"/><path class="b" d="M76.12,36.25c-.35.17-4.31,4.86-5.25,5.75-2.11,2-4.36,3.92-6.62,5.75.21.18.9,1.23,1.12,1.25,1.46-1.24,11.94-10.08,12.12-10.88.08-.37-.34-1.21-.5-1.62-.34.16-.62-.38-.88-.25Z"/><path class="b" d="M196,114.25c-.15.76.96.85,1,1.38.06.81-7.19,12.37-7.75,14.38.39.14.88.56,1.12.5,1.22-1.41,7.45-11.9,7.62-12.62.43-1.81-.49-2.85-2-3.62Z"/><path class="b" d="M235.5,248c2.75-1.45,12.38-3.79,12.88-4.25,1.07-1-.1-2.37-.12-2.5-4.33,2.36-9.75,2.8-13.75,5.5.27.33.82.76,1,1.25Z"/><path class="b" d="M161.62,13.5c3.07-2.5-2.56-6.83-4.25-6.5-4.21,1.84,2.13,7.67,4.25,6.5Z"/><path class="b" d="M71.75,120.5c-3.37,3.29-8.54,3.93-12,7,1.04,1.91,9.87-3.19,12.5-4.62.16-.9-.22-1.58-.5-2.38Z"/><path class="b" d="M85.62,144.5c-.46.13-.85-.41-1.38-.25.56.48,1.68,1.29,2.38,1.25.73-.05,9.96-7.74,10.12-8.38.19-.74-.4-1.95-.75-2.62-.01,1.77-9.67,9.8-10.38,10Z"/><path class="b" d="M193.25,254l1.25,1.75c4.45-4.46,9.49-6.15,6-10.25.82,3.08-4.67,7.04-7.25,8.5Z"/><path class="b" d="M157.75,224.62c-.59,4.81-1.7,5.65-6,2.88,1.04,1.43,2.9,2.42,4.62,2,3.04-.75,3.82-10.45,1.88-12.5-1.16-.17-.36,6.49-.5,7.62Z"/><path class="b" d="M22,160.38c.26-.51,2.69-10.28,1.75-11.12-1.82,1.38-2.53,11.54-3.88,12-1.64.56-3.38-1.12-3.62-.5,1.2,1.36,4.85,1.4,5.75-.38Z"/><path class="b" d="M118.88,241.5c-1.87,1.92-4.87,2.68-6.38,5,.11,1.92,8.85-4.59,9-5.12.24-.86-.2-1.84-.5-2.62-.83-.16-.6,1.18-2.12,2.75Z"/><path class="b" d="M98.75,173.12c-3.95-1.58-11.94-7.97-12.25-5.62.02.08-.02.18,0,.25,1.11.31,13.05,7.98,12.25,5.38Z"/><path class="b" d="M237.12,116.5c-.42.39.34.63-2.12,3,1.45-1.05,9.41-5.82,9.75-6.88.2-.63-.1-1.51-.25-2.12-1.8,2.68-5.13,3.92-7.38,6Z"/><path class="b" d="M109,139.5c1.08-.73,5.04,3.49,4.88,1l-10.88-5.75c-.45,1.67,3.96,3.71,6,4.75Z"/><path class="b" d="M187.62,107.25c-.56.25,6.12.45,6.12.12,0-.31-5.44-.03-6.12-.12Z"/><path class="b" d="M0,28.21v.29c.01-.09,0-.19,0-.29Z"/><path class="b" d="M0,104.47v12.53c.22-.6.1-6.74,0-12.53Z"/><path class="c" d="M4.27,250.83c-.9-1.07-1.47-2.04-1.94-2.76-.16-.24-.31-.45-.46-.63-.37-.45-.73-.69-1.22-.64-.2.02-.41.08-.66.2v7.9c1.56-1.2,3.07-2.51,4.75-3.53-.17-.18-.33-.37-.48-.55Z"/><path class="c" d="M7.25,218.62c.46-1.27-5.78-5.2-7.25-6.12v7.25c3.61,2,5.18,3.95,7.25-1.12Z"/><path class="c" d="M.39,93.86c.08-.13.16-.26.23-.39.1-.19.18-.37.22-.54.01-.06.02-.12.03-.17.01-.17-.02-.35-.11-.52-.13-.24-.36-.48-.75-.74v3c.04-.08.09-.15.13-.22.09-.14.17-.28.26-.42Z"/><path class="c" d="M4.25,121.38l-4.25-4.38v8.5c1.43-1.34,2.72-2.88,4.25-4.12Z"/><path class="c" d="M0,28.5v4.25c.92-1.36,1.54-3.17,0-4.25Z"/><path class="c" d="M2.75,159.38c0-.06-.03-.14-.09-.22-.24-.33-.94-.81-1.57-1.22-.47-.3-.91-.56-1.09-.69v5.75c.17-.16,1.83-2.89,2.75-3.62Z"/><path class="b" d="M112.5,0h-16.5c7.59.11,15.51.25,16.5,0Z"/><path class="b" d="M203.5,0h-4.04c1.55.05,3.09.09,4.04,0Z"/><path class="b" d="M52.69,0h-5.94c.62.05,1.4.07,2.28.07,1.11,0,2.38-.03,3.66-.07Z"/><path class="c" d="M46.34,1.13c.17-.42.29-.89.41-1.13h-7.75c1.41.16,6.29,2.07,6.62,2,.33-.07.54-.45.71-.87Z"/><path class="c" d="M254.5,0h-8.5c.11.21,2.45,2.77,2.88,3.75,1.74-1.44,3.77-2.49,5.62-3.75Z"/><path class="c" d="M112.57.81c.14.34.38.73.66,1.12.1.13.2.27.3.4.31.4.66.8.99,1.16.66.71,1.24,1.24,1.35,1.26.43.07,6.57-4.14,7.38-4.75h-10.75c-.11.19-.07.47.07.81Z"/><path class="b" d="M194,.25c0-.07-.03-.16-.07-.25h-6.68c4.58,5.64,5,1.1,6.75.25Z"/><path class="b" d="M62.09,1.17c.27.14.57.26.91.33.32-.55.61-1.03.88-1.5h-3.88c.34.07.66.25,1,.47.34.22.69.48,1.1.69Z"/><path class="b" d="M170.5,0h-6.75c-.68,1.73,6.59,2.06,6.75,0Z"/><path class="b" d="M64.29,1.64c.78-.03,1.11-.36,1.3-.74.16-.32.23-.68.41-.9h-2.12c-.27.47-.56.95-.88,1.5.53.11.95.16,1.29.14Z"/><path class="c" d="M194.5,0h-.57c.04.09.06.18.07.25.18-.09.31-.2.5-.25Z"/></svg>