<?xml version="1.0" encoding="UTF-8"?><svg id="a" xmlns="http://www.w3.org/2000/svg" viewBox="0 0 256 256"><defs><style>.b{fill:none;}.b,.c,.d,.e,.f{stroke-width:0px;}.c{fill:#88cbeb;}.d{fill:#ffabbb;}.e{fill:#fff;}.f{fill:#231f20;}</style></defs><path class="b" d="M250.35,100.76c.14.15.31.31.5.49-.19-.18-.37-.34-.5-.49Z"/><path class="b" d="M235.72,3.78c-.1-.18-.14-.37-.15-.57,0,.2.06.39.15.57Z"/><path class="b" d="M239.55,4.78c.22-.19.43-.42.63-.67-.2.26-.41.49-.63.67Z"/><path class="b" d="M241.94,1c-.14.27-.28.57-.44.87.15-.31.3-.6.44-.87Z"/><path class="b" d="M235.72,3.78c.1.18.24.35.44.52-.2-.17-.34-.34-.44-.52Z"/><path class="b" d="M238.13,5.25c-.7-.23-1.23-.47-1.62-.71.39.24.92.47,1.62.71Z"/><path class="b" d="M241.5,1.87c-.23.46-.48.94-.75,1.39.27-.45.52-.93.75-1.39Z"/><path class="b" d="M80.35,2.05c.39-.25.63-.46.75-.72-.12.25-.36.46-.75.72Z"/><path class="b" d="M76.41,3.64c-.52-.8-1.32-2.2-1.8-3.04.48.84,1.28,2.24,1.8,3.04Z"/><path class="b" d="M255.53,241.85s.08-.05.13-.1c-.06.05-.11.08-.13.1Z"/><path class="b" d="M256,240.75c0,.37-.08.62-.17.77.09-.16.16-.4.17-.77Z"/><path class="b" d="M74.61.6c-.11-.19-.2-.34-.27-.46.07.12.16.27.27.46Z"/><path class="b" d="M76.71,4.08c.08.11.14.17.17.17-.03,0-.09-.07-.17-.17Z"/><path class="b" d="M184.91,255.94c.62,0,1.24-.02,1.83-.02-.59,0-1.2.02-1.83.02Z"/><path class="b" d="M27.63.5c.19,0,0-.5.38-.5-.38,0-.18.5-.38.5Z"/><path class="b" d="M180.84,256h0c.72-.01,1.44-.02,2.16-.03-.72.01-1.45.02-2.17.03Z"/><path class="b" d="M188.44,255.9c.54,0,1.06,0,1.54,0-.48,0-.99,0-1.54,0Z"/><path class="b" d="M180.84,0h0c-.89.01-1.77.03-2.63.04.86-.01,1.74-.02,2.64-.04Z"/><path class="b" d="M254.13,104c-.08-.08-.21-.19-.37-.32.16.13.28.24.37.32Z"/><path class="b" d="M178.2.04c-.62,0-1.23.01-1.81.02.59,0,1.19-.01,1.81-.02Z"/><path class="b" d="M252.55,102.68c-.23-.19-.47-.39-.71-.58.24.2.47.39.71.58Z"/><path class="b" d="M253.51,103.46c-.28-.23-.61-.5-.96-.78.35.28.68.55.96.78Z"/><path class="b" d="M176.39.06c-.59,0-1.15,0-1.68.01.53,0,1.1,0,1.68-.01Z"/><path class="b" d="M166.5,0c.18.15.35.29.51.43-.16-.14-.32-.28-.51-.43Z"/><path class="b" d="M167.87,1.09c-.21-.12-.41-.28-.64-.47.22.19.43.35.64.47Z"/><path class="b" d="M76.71,4.08c-.08-.11-.18-.25-.3-.43.12.18.22.33.3.43Z"/><path class="b" d="M168.97,1.2c-.17.06-.32.09-.47.08.15,0,.3-.02.47-.08Z"/><path class="b" d="M81.19.9c0,.16-.03.3-.09.42.06-.13.09-.26.09-.42Z"/><path class="e" d="M145.5,256h3.31c-1.16-.05-2.34-.11-3.31,0Z"/><path class="e" d="M189.98,255.89c-.48,0-.99,0-1.54,0s-1.11.01-1.7.02c-.59,0-1.2.02-1.83.02s-1.26.02-1.91.03c-.72.01-1.44.02-2.16.03h12.66c-.27-.09-1.61-.12-3.53-.11Z"/><path class="d" d="M196,252.75c.61.44-1.64,1.15-1,2.12.36.37.71.75,1.06,1.12h6.94c-1.64-1.57-3.31-3.1-4.88-4.75-1.19-.05-1.65,1.1-2.12,1.5Z"/><path class="d" d="M155.5,253c-.67,1.01-1.37,2-2.07,3h4.82c0-.9-1.87-2.6-2.75-3Z"/><path class="d" d="M196,252.75c-.92.79-2.4,2.01-2.5,3.25h2.56c-.35-.37-.7-.76-1.06-1.12-.64-.97,1.61-1.68,1-2.12Z"/><path class="d" d="M151.25,256h2.18c.69-1,1.39-1.99,2.07-3-1.7-.76-1.52-.48-4.25,3Z"/><path class="d" d="M37.25,256h3.5c-1.72-1.49-1.86-1.14-3.5,0Z"/><path class="e" d="M255.93,194.4c.01.38.03.77.04,1.17,0,.24.02.49.03.74v-4.8c-.04.24-.06.52-.07.82-.03.61-.02,1.32,0,2.08Z"/><path class="e" d="M255.96,230.15c-.01.7,0,1.35.05,1.85v-3.36c-.02.51-.04,1.03-.05,1.51Z"/><path class="e" d="M256,27.66v-3.41c-.05,1.13-.02,2.27,0,3.41Z"/><path class="c" d="M253.25,51.88c.91,1.33,1.79.19,2.75-.12v-7c-3.4,1.57-6.24,1.19-2.75,7.12Z"/><path class="d" d="M250,100.25c.01.11.14.29.34.51.14.15.31.31.5.49.29.27.63.56.99.85.24.2.47.39.71.58.35.28.68.55.96.78.09.08.18.15.26.21.16.13.28.24.37.32.44.02,1.52-1.56,1.88-2v-8.44c-1.56,2.48-3.06,5-4.5,7.56l-1.5-.88Z"/><path class="f" d="M255.66,241.75c-.06.05-.11.08-.13.1-.01.01-.02.02-.02.03,0,.51.49.58.5,2.88v-4c0,.37-.08.62-.17.77-.06.11-.12.18-.18.22Z"/><path class="c" d="M253.5,200.38v14.25c.18.26,2.04.1,2.5.12v-14.75c-1.03.06-2.06-.26-2.5.38Z"/><path class="f" d="M256,224.5v-6.5c-5.83,3.3-.56,4.04,0,6.5Z"/><path class="d" d="M253.63,35.5c1.17.59,1.5.09,2.38-.25v-5.25c-2.22,1.38-5.14,2.73-2.38,5.5Z"/><path class="d" d="M254.38,163.25c.23.08.41.12.55.13.15,0,.26-.01.37-.05.22-.08.39-.22.7-.32v-5c-2.57,1.72-5.08,1.92-1.62,5.25Z"/><path class="e" d="M178.2.04c-.62,0-1.23.01-1.81.02-.59,0-1.15,0-1.68.01-1.87,0-3.38,0-4.2-.07-.63.68-1.12,1.05-1.53,1.2-.17.06-.32.09-.47.08-.22,0-.43-.08-.63-.19-.21-.12-.41-.28-.64-.47-.07-.06-.15-.13-.23-.2-.16-.14-.32-.28-.51-.43h-8.25c.01,1.41-15.22,22.16-16.25,23.12-1.35,1.26-2.96.44-4.25-.88-.2-.2-1.14.28-.5-1.62.4-1.18,12.43-18.62,14-20.62-.75.06-1.59.04-2.44,0h-3.31c-5.27.62-11.98,5.84-12.5,0h-11c-.49.92-.06,2.08-3.75,0h-37.25c.08.25.14.46.17.65.01.09.02.18.02.26,0,.16-.03.3-.09.42-.12.25-.36.46-.75.72-.68.44-1.8,1.02-3.48,2.2-.03,0-.09-.07-.17-.17-.08-.11-.18-.25-.3-.43-.52-.8-1.32-2.2-1.8-3.04-.11-.19-.2-.34-.27-.46-.03-.06-.06-.11-.09-.14h-33.5c1.53,1.49-4.28,6.29-5.12,6.25-4.01-1.39-.39-4.85,1.62-6.25h-9.25c-.38,0-.18.5-.38.5-.1,0-.34-.5-.62-.5H0v10.5c.05.01.11.03.17.05.13.03.28.07.44.12.39.11.79.26.89.46.09.19,0,1.03-.18,2.27-.07.49-.15,1.05-.24,1.65-.14.9-.29,1.9-.43,2.94-.15,1.04-.29,2.12-.4,3.19-.11,1.06-.2,2.11-.24,3.08v3.41c.01.78.02,1.56,0,2.34,2.11-1.32,9.19-5.69,8.75-.62-.57,1.22-7.97,5.57-8.75,5.88v9.5c1.57-.72,12.9-5.63,13.62-5.5.47.08,2.54,4.36,2.88,5.12-.17.89-14.62,6.76-16.5,7.38v23.75c.11-.02.22-.02.32,0,.21.02.4.11.59.23.18.13.36.3.52.5.25.3.47.68.69,1.09.07.14.14.27.21.41.28.56.54,1.15.8,1.66.2.39.4.73.62.99-.49.6-1.1.97-1.76,1.27-.66.3-1.35.53-1.99.86v7.75c1.45-2.11,5.07-7.53,6.25-7.5,1.77.12,4.12,1.89,3.75,3.88-.17.9-8.84,13.95-10,15.38v27c.24.18.47.33.69.48.55.36,1,.66,1.22,1.09.39.77.02,1.97-1.91,4.68v7.5c.85.45,1.46.88,1.89,1.3.28.28.48.57.61.86.32.72.18,1.49-.23,2.41-.16.37-.37.76-.6,1.19-.47.85-1.06,1.83-1.67,2.99v6.5c2.49-1.67,8.53-6.5,8.75-.62-.17.91-7.55,5.23-8.75,5.62v7.25c.24,0,.51.02.79.04.28.03.57.07.87.13,1.48.29,3.07.99,3.49,2.32.08.27.12.56.11.88-.01.26-.37,1.62-.88,3.46-.15.55-.32,1.15-.49,1.77-.06.21-.12.42-.18.63-.24.85-.48,1.74-.73,2.63-.18.66-.37,1.33-.55,1.97-.24.86-.46,1.69-.66,2.44-.35,1.32-.63,2.42-.77,3.09-.24,1.17-.98,1.77-1,1.88v4.8c.05,1.34.09,2.68,0,3.7.6-.04,3-.2,3.25.38l.25,14.25c-.16.21-3,.15-3.5.12v3.25c.29-.16,5.8-2.54,6.12-2.5.9.11,3.53,4.37,3.38,5.12-.13.63-8.33,4.27-9.5,3.88.02.07.03.16.04.26.09.8.02,2.35-.04,3.89v3.36c.9,1.37,1.11,2.79,0,4-.02,1.58.03,3.17,0,4.75,7.74-6.27,5.75,3.65,8.5,12.12.44,1.79-3.76,1.85-5.62,2.62L0,244.75v11.25h27c-2.41-2.09-9.35-10.3-10.38-11-.68-.46-.62,1.51-2.62-2.88-.91-1.92,3.35-5.22,4.88-4.88.93.21,12.49,13.43,12.62,14.38.11.79-3.04,3.47-3.5,4.38h9.25c1.64-1.14,1.78-1.49,3.5,0h33.5c-.9-1.45-6.97-11.66-7-12.38-.05-1.15,4.38-3.84,5.12-3.62,1.77,3.23,7.88,13.71,8.62,16h37.25c-.57-.32-2.2-1.19-2.25-1.88,3.44-7.87,2.27-13.66,9-7.5-1.01,2.43-2.04,7.58-3,9.38h11c-.06-.72.14-1.2.25-1.88,1.75-.83,13.83-6.04,14.62-6.12,2.78-.31,5.17,2.7,4.62,5.38l-7,2.62c.97-.11,2.14-.05,3.31,0h2.44c2.73-3.48,2.55-3.76,4.25-3,.88.4,2.74,2.1,2.75,3h8.25c-.26-.21-4.42-4.55-4.5-4.88-.37-1.49,1.36-3.4,2.88-3.38,2.19,2.74,7.48,6.93,5.62,8.25h10.33c.72-.01,1.45-.02,2.17-.03.64,0,1.28-.02,1.91-.03s1.24-.02,1.83-.02c.59,0,1.16-.01,1.7-.02s1.06,0,1.54,0c1.91,0,3.25.02,3.53.11.1-1.24,1.58-2.46,2.5-3.25.47-.4.93-1.55,2.12-1.5,1.57,1.65,3.23,3.18,4.88,4.75h33.75c.58-1.31,5.36-9.84,6.12-10,2.98-.21,3.79,3.94,2.88,6.12-.22.52-3,3.51-3.25,3.88h13.5v-11.25c0-2.29-.5-2.37-.5-2.88,0,0,0-.02.02-.03.03-.02.08-.05.13-.1.06-.05.12-.12.18-.22.09-.16.16-.4.17-.77v-4.75c-.46.5-10.98,6.79-11.62,7-3.11,1-5.34-2.71-2.5-5.5.44-.43,2.12-1.11,2.62-1.5l-4.75-6.38c.38-1.76,7.3.94,5.75,5.38,1.51.09,7.95-4.52,8.62-4.5.12,0,1.78,1.35,1.88,1.5-.05-.5-.06-1.14-.05-1.85,0-.48.03-1,.05-1.51v-4.14c-.56-2.46-5.83-3.2,0-6.5v-3.25c-.46-.03-2.32.13-2.5-.12v-14.25c.44-.63,1.47-.31,2.5-.38v-3.7c0-.25-.02-.49-.03-.74-.02-.4-.03-.79-.04-1.17-.02-.76-.03-1.48,0-2.08.01-.3.04-.58.07-.82-1.57-.85-5.1,0-5-2.38.04-.89,3.4-16.68,3.75-17.5.17-.39.84-1.27,1.25-1.38v-7.25c-.31.1-.48.24-.7.32-.11.04-.22.06-.37.05-.15,0-.32-.05-.55-.13-3.45-3.33-.95-3.53,1.62-5.25v-6.5c-1.24,2.36-2.84,4.65-4.12,7-.98-.35-4.05-1.84-4.12-2.88-.05-.72,5.76-11.19,6.5-13,.51-.74,1.17-.18,1.75.12v-7.5c-1.99,2.79-1.87.79-7-2-2.91-1.58-5.66-3.02-8.5-4.75-.94-.57-7.43-4.14-7.5-4.62l3.62-6.12c2.62,1.34,6.21,4.34,6.88,4.75,2.75,1.69,5.64,3.25,8.5,4.75.2.11.34-.94,4,1.75v-27c-.36.44-1.44,2.02-1.88,2-.08-.08-.21-.19-.37-.32-.08-.07-.16-.14-.26-.21-.28-.23-.61-.5-.96-.78-.23-.19-.47-.39-.71-.58-.35-.29-.69-.59-.99-.85-.19-.18-.37-.34-.5-.49-.21-.22-.33-.4-.34-.51-.06-.58,5.24-8.89,6-10v-7.75c-1.71.88-14.06,6.73-14.88,6.75-1.44.04-3.93-2.95-3.38-4.62.31-.97,17.12-8.94,18.25-9.12v-23.75c-.96.31-1.84,1.45-2.75.12-3.49-5.94-.65-5.56,2.75-7.12v-9.5c-.87.34-1.2.84-2.38.25-2.76-2.77.16-4.12,2.38-5.5v-2.34c-.02-1.14-.05-2.28,0-3.41l-1.12,4.75c-.72-.43-5.55-1.03-5.75-1.25-.62-.68,1.77-14.93,1.62-17.12-.28-1.16,4.56-.33,5.25-.12V0h-13.5c-.17.24-.36.59-.56,1-.14.27-.28.57-.44.87-.23.46-.48.94-.75,1.39-.18.3-.37.59-.57.85-.2.26-.41.49-.63.67-.44.37-.91.57-1.42.47-.7-.23-1.23-.47-1.62-.71-.13-.08-.24-.16-.35-.24-.2-.17-.34-.34-.44-.52-.1-.18-.14-.37-.15-.57,0-.1,0-.2.01-.31.06-.43.25-.91.51-1.48.19-.42.42-.9.66-1.42h-22.5c7.41,7.25-9.87,6.96-1.25,0h-10c5.67,5.41,11.12,11.6,16.25,17.38-.46.43-.87.86-1.25,1.38-.39.53-2.85,3.34-3.38,3.25-3.45-2.03-19.67-21.53-21.12-22h-12.66c-.89.01-1.78.03-2.64.04ZM248.38,246h1.25c2.47,3.75-4.43,3.22-1.25,0ZM242.88,98.5c1.87-.73,5.55,2.42,5.62,2.88.12.71-4.24,11.84-5.12,13.38-.68-.64-5.22-2.65-5.38-3.12-.21-.67,3.95-11.59,4.88-13.12ZM172.38,35.25c3.73-.68,3.16,5.86-2.25,6.25-3.74-.96,1.1-6.04,2.25-6.25ZM215.25,62c2.35-4.4,6.97,0-2.88,6-1.61-1.66-13.54-10.3-13.88-11.12-.56-1.37.28-2.38,1-3.38.83-1.16,1.05-2.16,2.88-1.5.77.28,12.31,9.41,12.88,10ZM205.75,46.38l1.12-1.38c7.3.15-.18,7.52-1.12,1.38ZM194.5,187.62c-.49,1.16-6.81.42-7,0,.31-3.58-.5-21.54.25-23.12.47-.98,1.18-.9,2-1,1.26-.16,4.6-.36,5,1.12.55,2.04-.69,18.53-.25,23ZM187.38,151.5c-.86-.61.04-1.35.38-2.25.22-.58,1.63-3.44,2.12-3.5,1.64,1.05,11.26,4.47,11.12,6l-3.38,5-10.25-5.25ZM170.63,210c-.99,0-13.5-11.02-15.38-12.38-.22-1.12,2.66-3.18,3.38-4.12,1-.2,14,11.09,15.88,12.62-.6.39-3.6,3.87-3.88,3.88ZM169.88,233c-1.7-2.03-5.7-4.19-2.75-6.5,1.79-.52,7.81,5.59,2.75,6.5ZM116.5,188.88c.46-4.16-2.98-14.87,3.5-13.88,1.86.57,1.01,11.11,1.25,13.12-.46.29-1.25.29-1.5.38-.66.23-3.02.91-3.25.38ZM114.5,200.12l1.38-1.12c8.13,4.43-.06,9.28-1.38,1.12ZM102.38,173.25c-1.23.26-3.46-4.75-3.38-5.12,3.13-1.78,26.62-10.59,28.12-10.62,2.43-.05,3.26,5.34,2,6.25-1.15.83-23.16,7.84-26.75,9.5ZM41.88,66.75c7.29,7.07,2.68,4.45-2.38,11.5-2.98,4.16-2.22,6.62-2.5,6.88-.25.23-1.34-.7-4.62,2.62-1.23.6-3.89-3.35-3.88-3.88.02-.59,5.45-9.06,6.25-10.12,1.01-1.34,5.89-7.32,7.12-7ZM23.5,30.38c-.67-1.57,1.79-4.62,2.88-4.62.69,0,10.33,6.3,11.62,7.38.23.97-1.92,3.65-2.88,3.62-.66-.02-10.06-5.62-11.62-6.38ZM60,45.75c-1.19-2.55,4.74-3.19,1.25.75.52.76.65,1.8,1.5,2.38-2.17,2.07-20.43,9.9-21.62,9.88-1.44-.02-3.28-2.42-1.25-4.25.88-.79,17.23-7.84,20.12-8.75ZM43.13,33.25c6.32,1.86,2.26,8.11-1.5,5.75-1.94-1.22-1.9-4.79,1.5-5.75ZM57.63,36c5.05.09-2.06,8.08-3.75,7.25-2.94-1.44,2.31-6.08,3.75-7.25ZM62.38,28.5c.69-.15,6.15-.12,6.38.38l-.12,7.12-7.62-.12c.44-2.02-1.16-6.81,1.38-7.38ZM76,104.62c2.5-3.48,8.27-8.72,11.62-11.88.5.67,4.14,4.8,4.12,5.12-.05.78-10.1,9.39-11.25,10.88,3.63,4.31,2.12,3.28-1.88,7.25-.85-1.03-6.39-4.2-6.38-5.12,1.29-1.99,2.65-3.93,4-5.88.09-.13-.26-.36-.25-.38ZM103.25,53.62l-3.12,5.38c-4.87-2.25-14.75-3.15-7.75-10,.72-.14,10.72,4.05,10.88,4.62ZM92.75,45.38l1.62-1.12c8.45,2.27-2.17,7.89-1.62,1.12ZM173.63,156.75c1,.74,4.97,1.49,5.12,2.62-1.96,5.57-3.7,11.22-5.75,16.75-.63.95-6.51-2.2-5.75-3.5,1.16-2.07,4.73-15.74,6.38-15.88ZM173.13,143.25c5.3.75-1.08,5.42-2.75,7.5-5.17-.81.61-5.79,2.75-7.5ZM172.25,183.62c.04.32-4.06,4.58-4.38,4.62-.59.09-7.6-5.94-8.62-6.88l3.88-4.88,9.12,7.12ZM122,111.12l-4.62,4.88-8.88-8.88,4.38-5.12,9.12,9.12ZM116,89.5c.21-.22.76-2.28,3.12-1.25.78.34,10.95,10.3,12.38,11.75,4.19,4.26,5.86,3.68-.38,8.25-2-1.91-16.31-14.53-16.62-15.62-.47-1.65.58-2.18,1.5-3.12ZM121.63,120.5l19,8.5c.89.91-1.99,6.06-3.25,6-1.03-.05-16.42-7.47-18.62-8.62-.15-.57,2.22-5.8,2.88-5.88ZM133,114.62c-.34-2.18,7.15-7.92,8.88-9.88.96-.2,3.98,3.47,3.88,4.12-4.97,3.94-10.1,11.76-12.75,5.75ZM143.5,163.12c1.83-1.12,14.97-8.93,15.88-8.88.68.04,2.95,4.2,3.62,4.88-2.09,1.47-15.64,9.15-16.88,8.88-.31-.07-3.23-3.08-2.62-4.88ZM153.88,93.75c5.08-1.16,2.65,10.45,4.12,16.62.9,1.86-6.31,1.17-6.5.75.53-7.17-3.48-17.03,2.38-17.38ZM150.88,126.5c4.54.93-.34,5.38-.88,8.12-7.4,1.89.27-8.03.88-8.12ZM154.75,127.62c.99-.95,2.14-.66,3.25-.12,1.29.63,1.91,1.62,1.75,3.12-.11,1.1-7.89,17.33-8.75,20.25-.76.95-6.17-.86-4.75-2.12.89-2.67,7.68-20.34,8.5-21.12ZM167.13,100.5c-2.16-1.72-5.16-4-1.75-6,2.56-.56,7.46,5.41,1.75,6ZM170.13,107c-.03,2.42,2.51,18.48,2.12,19.38-.18.42-5.12.89-5.88,1.38l-2.38-19.88c.12-.28,4.39-.89,4.88-.88.42.02.83-.01,1.25,0ZM166.63,81c-9.72.61-16.85,4.84-15.62-4.38.06-1.34,9.15-2.07,10.88-2.12,5.59-.16,5.19.97,4.75,6.5ZM147.38,94.5c-5.69-1.46-2.05-3.89,2.25-8,5.53,1.23-.5,5.85-2.25,8ZM135.88,88.25l-4.62-4.12,12.38-15.62c.7.55,4.64,4.51,4.62,4.88-.03.97-11.24,12.77-12.38,14.88ZM135.25,60.88c-.95-2.05,6.51-8.69,8.88-11.62l3.62,3.12c-4.96,4.45-9.08,14.68-12.5,8.5ZM136.13,52c-2.86,1.68-3.16-.64-4.62-2.25-.31-.34-2.5-2.17-2.5-2.38,2.5-2.44,5.41-6.44,5.75-.38,2.33-.4,4.03,3.44,1.38,5ZM131,72.12c-2.32,1.69-19.89,14.99-21.12,14.62-.78-1.04-2.68-3.95-2.38-5.12.31-1.18,17.51-12.59,19.88-14.12l3.62,4.62ZM108.5,68.62c-.24-1.88,5.85-7.17,7.38-8.88l3.38,3.12c-2.83,2.13-7.67,11.82-10.75,5.75ZM116.75,44.38c-.01-.44,5.77-3.83,6.12-3.88,5.14-.62,1.46,10.57-6.12,3.88ZM118.88,46.75c7.87,5.76-3.15,7.2-9,9.25-7.92-6.99,4.57-6.89,9-9.25ZM109.13,121.25c1.7-.37,4.25,1.81,4.12,3.38-.06.77-6.31,11.82-6.75,14-.73,1.31-4.58-.5-4.5-2.25.04-.84,6.29-13.09,7.12-15.12ZM94.88,140.25l1.88,1.38c-3.76,10.32-11.22,4.79-1.88-1.38ZM91.63,171c-4.06,1.07-5.5-4.45-2-5.25,2.81-.64,5.32,3.44,2,5.25ZM89.13,137l-4.12-3.38c4.83-6.71,9.18-13.84,14.88-19.88.57.36,3.85,3.36,3.88,3.62.09,1.22-12.91,17.42-14.62,19.62ZM89.38,107.25c1.68-.29,7.27,6.25,4.25,7.25-2.08.69-8-6.6-4.25-7.25ZM102.63,158.75c-6.52-.47-2.37-5.08.25-8,5.57,1.05,1.74,4.86-.25,8ZM99.13,96.5c-.85-1.82-5.37-12.65-5.38-13.38-.01-1.74,3.42-2.62,4.62-3.62,1.91-.17,4.99,11.58,6.38,13.62l-5.62,3.38ZM94.38,68.25l3.62,5.38c-6.87,4.47-10.32,10.02-13.25,1.25l9.62-6.62ZM83,67.62l1.38-1.38c7.64.67-.79,8.92-1.38,1.38ZM83.13,55.25c-2.61-.24-5.65.69-6.12-.88.28-2.01-.62-13.85.62-14.38,1.15.17,5.44-.47,5.88.62l-.38,14.62ZM80,132.12c-.74,4.34-8.99-2.65-8.25-4.75l1.38-1.38c1.36-.7,6.99,4.68,6.88,6.12ZM70.63,105.5c-4.2-1.78.71-5.86,1.5-6,3.18-.56,3.93,4.62-1.5,6ZM70.63,158c1.1-.24,4.86,2.9,4.88,3.62.02,1-9.57,14.87-10.88,16.88l-4.88-3.62,10.88-16.88ZM76.63,177.5c.64.67,5.08,3.77,5.12,4.12.11.92-8.05,14.19-9.12,16.12-1.02-.88-5.19-2.45-5.12-3.88.04-.94,7.92-14.41,9.12-16.38ZM49.13,87.25c1.05-.13,12.63,8.89,14.38,10.38-.48.62-3.82,4.6-4.12,4.62-.85.06-12.28-8.68-13.62-10.12-.5-1.81,2.05-3.94,3.38-4.88ZM51.88,63.75c6.49,4.32,3.5,4.42-.75,9.25-7.46-1.74-2.28-5.38.75-9.25ZM49.13,107.5c5.91,1.88-.23,5.39-3,8.25-7.44-.74.82-6.17,3-8.25ZM50.5,139.5c.34-.29.83-.6,1.25-.75.45-.16.85-.59,1.38-.5,1.6,1.73,11.79,13.25,12.12,14.12.64,1.67-2.63,4.52-3.38,4.38-1.53-2.17-12.92-14.14-12.88-15.38.35-1.06.76-1.24,1.5-1.88ZM56.75,131.12l6.88-7.38c.91-.46,4.68,4.29,4.62,4.62-7.56,5.81-6.58,9.3-11.5,2.75ZM66.88,90.5l-6.88-.38c.41-2.18-.91-12.33.88-12.88l6.12.38-.12,12.88ZM35.5,101.12l.88-1.38c3.61.44.73,5.22-.88,1.38ZM23.38,75.5l-4.88-3.88,8.88-11.12c.63.53,4.12,4.8,4.12,5.12,0,.64-7.24,8.61-8.12,9.88ZM21.13,82.25c.3-.04,1.01-.05,1.25,0,1.03.23,12.2,16.08,12.38,17.12.26,1.53-2.2,5.7-5.25,2.75-.74-.72-11.55-15.97-11.5-17,.05-1.08,2.09-2.75,3.12-2.88ZM32,113.12c-.77.46-4.54,4.6-4.88,4.62-.57.05-7.14-6.77-8.62-7.25-2.62,3.16-4.02-5.86.5-2.25,4.3-7.92,4.41-3.86,13,4.88ZM16.13,130.75c1.3-.89,17.12-6.94,20.75-8.75.42.12.46,1.17.62,1.5,4.55-2.48,11.12-8.49,11.5-.62-2.73,2.4-6.18,3.9-9.5,5.38-7.22,3.22-14.93,5.43-22.12,8.75-.45-.04-4.34-4.13-1.25-6.25ZM31.88,167.75c-.88-1.13-4.32-4.54-3.88-5.88l11.62-9.38c.61-.02,4.02,4.42,3.88,5.12-.15.76-10.25,8.9-11.62,10.12ZM41.25,173.12c-1.4,6.12-6.46,1.43-1.12-.88l1.12.88ZM26.38,150.5l-3.38-6.62,14.12-7.62c.47.04,3.23,6.27,3.12,6.62-.23.76-12.27,6.74-13.88,7.62ZM17.75,150c5.69-6.9,7.72,8.66-1.62,9-3.47-2.24-1.37-3.58-.38-5.5-.62-2.86-9.05-10.23-2.88-10.75l4.88,7.25ZM11.75,166.75c.94-1.26,1.62-2.51,3.38-2.25,3.29,3.87,10.74,10.85,13.12,14.25.04.05.77.51,1,.88l-4.38,4.62c-2.14-2.12-13.39-13.74-13.88-14.62-1.18-2.18-.15-1.67.75-2.88ZM28.63,201.75c2.92.15,1.93,5.57,3.12,8.62-4.45,5.81-5.71-8.33-3.12-8.62ZM34.38,180.5c5.6-1.55-1.02,6.89-2.25,8-5.72.55,1.71-7.85,2.25-8ZM35.63,196.5c.31-.06,3.58-4.12,4.12-4.75.85-.99,2.71-4.69,4.12-4.5.57.08,8.64,6.56,9,7,1.49,1.79-1.39,3.8-2.75,5-1.94-1.56-4.7-2.81-6.62-4.25l-5.38,6.5c-1.03-.76-6.52-4.09-6.38-5.12.73-2.05,3.06.27,3.88.12ZM48.38,175l-4.62-5.12,9.88-7.88,4.12,4.12c1.01,1.41-6.85,7.03-9.38,8.88ZM57.88,184.5c2.18-.45,6.62,3.79,3.5,5.75-2.51,1.15-7.42-4.14-3.5-5.75ZM62.25,198.25c3-4.81,4.78-.84,10.75,2.5,1.33.03-2.54,5.23-2.88,5.25-2.91-1.8-5.95-3.5-8.62-5.62-.31-1.84.62-1.91.75-2.12ZM74.88,202l8.38,7.12-3.38,3.62-8.38-6.62,3.38-4.12ZM81,162.38c-.62-2.3-5.13-16.36-5-17.25.12-.82,2.49-1.5,3.25-1.62.78-.63,2.6-1.56,3.25-.38-.06,2.44,4.65,16.13,4.5,17-.09.49-1.19.83-1.25.88-.86.57-4.5,2.64-4.75,1.38ZM89.63,191.5c.56-.12.8.29,1.12.62.72.73,7.15,11.55,9,14l-5.12,3.62c-1.23.05-8.58-12.77-10.12-14.38l5.12-3.88ZM99.38,210.5c6.36,3.35,3.27,5.13-.5,9.5l-4.12-3.38,4.62-6.12ZM95.25,182.62l4.12-5.88,12.88,11.38-4.12,5.38-12.88-10.88ZM127.13,184.75c4.09.09,1.91,7.42,2.88,13.62-8.39,3.82-5.3-3.36-6.75-12.25.17-.62,3.66-1.38,3.88-1.38ZM113.13,153.5c-1.13-.28-3.12-4.84-.75-6.25.86-.51,18.25-5.53,19.25-5.5,1.64.05,2.98,5.92,2.5,6.25-3.07.59-19.74,5.81-21,5.5ZM134,179.75c.5-.37,3.09-2.05,3.5-2,.7.09,7.14,8.66,8.25,9.88.12,1.11-4.82,4.71-5.38,4.62l-8.88-10.12c-.13-.82,1.46-1.61,2.5-2.38ZM153.75,169.75c1.51-10.28,10.32-5.57,1.75.25,7.51,2.86-3.51,6.32-9.12,8.75-7.11-3.45,4.64-8.55,7.38-9ZM173,198.5c-.11-.88,6.75-13.91,7.5-16,.33-1.57,5.45,2.3,5.5,2.62.13.9-6.92,14.36-7.88,16.38-.75.25-5.03-2.19-5.12-3ZM167.63,141.75c-.36-.09-4.06-3.77-3.12-4.88,2.34-1.34,20.21-9.48,21.38-9.38.88.08,3.18,5.21,3,5.5-2.68,1-20.13,9.02-21.25,8.75ZM175.25,105.88c-.11-1.19,3.29-3.14,4.38-3.38,1.17.13,9.77,14.19,11.38,16.12-1.56,1.22-3.7,4.05-4.75,2.75l-11-15.5ZM209.88,106.25l-2.88-4.12,4-3.12c-.17.1-1.82.82-2.25,1-.97.4-.95,1.29-2,.12-.82-2.27-7.67-16.56-7.5-17.5.11-.58,1.6-1.09,2-1.38.88-.64,3.4-2.6,4-1.62l7.5,17.88c.56-.32,3.6-2.05,3.88-2l2.88,3.88c1.46,1.04-9.03,7.05-9.62,6.88ZM211.63,112.5h1c3.6,3.63-4.17,3.85-1,0ZM198.88,137.25c-3.99-1.46-.21-4.26,2-6.5,4.45.55-.69,6.62-2,6.5ZM213,146c2.78,3.43,8.55,8.89,8.75,9.5.33.99-3.5,3.94-4.62,4.75-3.17-3.06-6.08-6.35-8.88-9.75-1.94-2.35-3.88-4.75-5.75-7.12,7.19-7.48,5.52-3.51,10.5,2.62ZM194.38,120.5c-3.25-2.75,1.46-4.52,3.5-6,4.69,1.39-.69,7.38-3.5,6ZM199.75,163.25c.6-.72,1.11-1.02,1.88-1.5.87-.08,10.28,13.01,10.38,13.88.11,1.02-2.24,2.43-3,2.88-.07.04-.85.99-1.38,1-1.57-1.72-9.88-12.57-10.12-13.38-.36-1.15,1.23-2.43,2.25-2.88ZM211.63,178c4.23,5.94,4.61,6.36-2,10l-3.88-5.12,5.88-4.88ZM215.88,188.75l3.88,5.12-19.62,15.12-3.38-4.38c5.82-5.94,12.42-10.99,19.12-15.88ZM218.75,199.88l3.88-2.62c2.61-1.32,6.74,10.5,7.75,13l-5.25,3.25c-1.15-2.17-6.79-12.09-6.38-13.62ZM226,185.12c-.26,1.46-5.88-1.9-5.75-3.25.06-.62,4.72-9.81,5.62-11.12,1.06-.49,5.31,2.37,5.38,3.12.05.62-4.78,9.53-5.25,11.25ZM219.63,137c-2.49-3.06-8.33-5.76-3-8.5.86-.05,10.71,7.48,3,8.5ZM220.75,121c-1.75,1.09-13.78,8.44-14.62,8.5-1.54.1-3.34-2.9-3.12-4.38.2-.81,13.55-8.27,14.38-8.38.88-.11,1.29.17,1.88.75l3.62-5.5,3.12,4.88c-.02,1.71-3.36,2.95-5.25,4.12ZM222.63,111c-5.52-3.67-.81-5.11,2.25-8.75l3.62,2.88-5.88,5.88ZM226.13,93.5c-1.32.14-9.83-12.11-11.12-13.88l4.38-3.88c1.04-.15,1.05.12,1.62.62.78.69,7.67,10.75,9.5,13,.12,1.14-3.61,3.24-4.38,4.12ZM199.5,94.38c.28.89.18,1.06,0,1.88-.17.77-1.49,2.57-1.75,3.62-1.14.74-22.52-8.1-25.25-9.25-.18-1.06.4-1.9.75-2.88.16-.44,1.33-2.94,1.62-3,8.31,2.92,16.7,5.87,24.62,9.62ZM190.75,80.12c-.28.22-5.81-1.14-5.75-2.75.03-.92,5.62-14.95,6.62-17.12.28-.08,5.09,2.25,5.25,2.5.55.87-5.64,15.07-6.12,17.38ZM182.38,45.25l3.12,3.38c.16.75-7.5,9.49-8.12,9.62-.99.21-3.43-1.72-4.12-2.62l9.12-10.38ZM183.88,30.75c4.84.91-.92,6.57-2.5,8.5-5.84-.1.82-6.54,2.5-8.5ZM180.63,68c.55.18,1.25.26,1.38.75,1.4.86-.25,5.87-1.38,6-1.36.16-23.84-3.75-26.88-4.88-.1-.33.4-1.43.5-1.88.95-4.21,1.51-4.04,3.12-4,1.18.03,22.13,3.64,23.25,4ZM166.75,43c.28.13,1.22,1,1.25,1.12.19.68.13,12.16-.38,14.12-1.99-.26-4.1.89-5.88-.38.56-3.5-1.27-12.03,1.25-14.12,1.25-1.04,2.15-1.28,3.75-.75ZM160.63,13.5c2.63,2.14,7.33,5.74,1.25,6.5-2.2-2.45-6.2-4.49-1.25-6.5ZM162.38,30c1.76-.32,3.92,2.07,3.62,3.38-.15.66-8.22,9.97-8.88,10.12-1.46.34-4.42-1.62-3.88-3.62.18-.65,8.46-9.75,9.12-9.88ZM146.13,23.75l7.12,7.12-4.62,4.62c-.73-.86-6.35-6.17-6.38-6.62-.02-.32,3.52-4.35,3.88-5.12ZM136.63,32.25c.64.18,6.23,8.35,6.88,9.75,3.43-1.37,5.62,3.27,8.25,5.12.21,1.05-1.97,2.55-2.62,3.38-2.51-2.03-9.08-4.65-6.38-8-.59.41-.71.72-.75.75-1.12.86-.72,1.78-2.88,1-.58-.21-5.5-5.03-5.88-5.75-2.02-3.86,1.27-6.84,3.38-6.25ZM125.63,12.25c.65-.08,1.18.17,1.62.62.61.61,6.13,13.54,7.5,15.5-6.91,8.49-8.31-4.26-13.5-12.25-.15-1.61,3.1-3.05,4.38-3.88ZM121.13,29.25c1.05-.45,4.42,2.82,4.38,3.62l-9.62,11.12-4.88-3.88,10.12-10.88ZM113.13,4.25c2.02-.32,6.02,4.56,2.5,5.75-2.99-.44-6.18-3.79-2.5-5.75ZM114,25.62c-1.73,1.21-14.23,9.65-15.12,9.62-.85-.02-3.49-3.94-4.38-4.62,1.5-1.45,14.94-9.97,15.88-9.88.59.06,3.02,4.22,3.62,4.88ZM96.75,3.88c.16-.62,4.12-3.06,4.62-3.12.4-.05.84.04,1.25,0,2.38,5.24,4.22,10.84,6.62,16.12-1.55,1.04-5.07,4.15-6.5,2.25-.5-.66-6.21-14.45-6-15.25ZM92.38,6.75c1.58-.4,5.04,3.34,4.62,4.88-.19.69-9.08,8.64-10.38,9.88l-4.62-4.88c1.32-1.2,9.68-9.7,10.38-9.88ZM79.88,19.75c5.39.89-2,6.56-2.5,6.75-2.93,1.13-5.44-2.33,2.5-6.75ZM77.88,30c2.05,1.14,1.6,4.45-.12,5.5,2.86,3.02-1.84,4.57-1.75.5-4.27.16-3.47-7.24,1.88-6ZM73,64.88l-5.62,4.88-6.12-6.38,4.88-5.38,6.88,6.88ZM54,4.5c1.53-1.43,1.05-2.2,3.38-.75.81.51,13.16,12.66,13.62,13.5,1.37.4-2.43,2.93-4.12,4.75-1.75-1.99-13.97-13.68-14.38-14.62-.64-1.49.6-2.04,1.5-2.88ZM32.5,14.5l3.88-4.5c1.77,1.86,3.5,3.76,5.12,5.75,3.2,3.9,5.74,8.19,8.5,12.38l-4.88,3.62-8.38-11c-1.99,1.45-2.28-3.8-3.75-4.75.69,2.24,2.48,6.27,2.5,6.62.14,2.03-5.24,5.94-7.25,2-.72-1.41-3.79-14.55-5.25-18,7.5-5.26,5.92-3.78,9.5,7.88ZM23.75,40.38c4.02-4.12,5.02-.77,3.5,1.62,1.73,2.46,8,5.65,2.12,7.5l-4.62-4.75c-1.96,1.31-5.49.22-1-4.38ZM22.63,47.5c1-.06,7.44,5.13,2.5,7.5-2.23-2.08-7.45-5.25-2.5-7.5ZM8.88,24c-.96-.4-4.49-2.12-4.62-3,1.81-3.71,5.33-15.07,7.75-14,1.74.44,3.66,1.28,3.5,3.38-.06.76-5.87,13.54-6.62,13.62ZM14.63,24c-3.48-2.16.66-4.82,2.5-6.5,4.39.03.34,7.07-2.5,6.5ZM17.88,97.25c-1.79-2.75-9.64-6.86-4-9.25,2.37,1.97,9.89,7.89,4,9.25ZM3.75,59.38l4.38-4.88,8.38,8.88-4.38,4.12-8.38-8.12ZM2.5,104.12l4.38-5.38,4.38,5.62c-4.34,5.33-3.08,3.73-8.75-.25ZM8.38,112.5c3.5,1.57,4.78,3.82,1.25,6.5-2.19.61-7.11-3.56-1.25-6.5ZM8.38,134.75c4.13-.05,4.51,5.1,2,5.75-3.6.93-5.96-4.1-2-5.75ZM5.25,202.88l6.38-4.38c5.43,1.4-5.79,10.23-6.38,4.38ZM15.13,209c-5.91,1.12-5.1-2.83-2.5-3.25,2.43-.39,6.53,2.49,2.5,3.25ZM10.75,189.88c-.02-1.35,4.1-3.1,4.38-3.12.77-.06,1.62.27,2.12.88.74.89,7.75,18.3,9.5,21l-5.38,3.88c-2.2-2.6-10.6-21.26-10.62-22.62ZM31.88,238.25c-.73.06-10.37-10.27-6.62-11.5.39-.95,1.9-1.22,2.75-1,.8.21,6.49,8.28,7.5,9.62l-3.62,2.88ZM21.88,217.25c-1.55-1.64-.69-1.58.38-3,.66-.88,2.49-2.9,3.62-2.75.8.11,11.23,8.77,12.62,10,5.24,4.62,7.87,5.26,2.38,9.75-2.76-2.25-18.19-13.14-19-14ZM41.38,250.5c-4.02-3.28-4.37-3.49-.5-7,4.43,3.55,4.86,3.59.5,7ZM48.13,242.25c-4.07.74-4.11-4.67-1.25-5.25,3.74-.77,4.45,4.67,1.25,5.25ZM48,211.62c.19-.66,2.47-1.55,3.12-1.62,1.1-.12,2.56-.24,3.12.88.49.97,4.32,20.17,4.25,21.25-.12,1.82-4.48,2.42-6,2.75-.73-3.14-4.83-22.11-4.5-23.25ZM58.88,254.75l-3.62-3.62,6.12-6.38c4.91,4.56,2.94,3.9-2.5,10ZM65.13,214.5c-2.99-3.69-8.57-6.07-4.25-8.5,1.43-.28,7.01,5.74,6.62,7.12-.67.68-1.3,1.52-2.38,1.38ZM72,227.5c-6.17-6.63-7.79-6.02-4.88-9,5.38-5.5,3.64-1.76,9.62,4.75,2.17,2.36,4.84,4.16,7.25,6.25,2.65-1.85-1.56,4.68,2.25,4.88.14.27-4.57,3.69-4.88,3.62-.2-.04-2.23-2.83-2.62-3.25-2.24-2.43-4.5-4.83-6.75-7.25ZM81.38,254.25c-3.74-3.03.1-4.87,3.5-7.5,8.73,1.38-1.27,8.15-3.5,7.5ZM96.13,239.5c-4.38-2.57-12.07-4.26-8.25-7,2.13.88,14.06,4.53,8.25,7ZM101.88,251l-4.38-3.62,11.88-15.12c1.27-.78,4.98,3.13,4.88,3.88l-12.38,14.88ZM114.13,223.75c-4.3-2.72-2.43-2.55,1.5-7.5,5.87.79,1.6,3.77-1.5,7.5ZM125,222.88c1.85-3.24,1.17-3.2,1.25-3.38-.33.07-.49-.13-.75-.25-5.57-2.6-11.49-4.82-16.75-7.88-.1-.38.36-1.19.5-1.62.29-.92,1.76-3.8,2.88-3.75.96.04,15.59,7.2,17.38,8.25.62.37,4.19,2.49,4.25,2.88-4.32,8.05-2.14,10.25-8.75,5.75ZM139.63,242.5l-10.12-9.62,4.12-4.62,10.12,10.38c.12.63-3.27,4.19-4.12,3.88ZM139.63,215.5l1,.25c3.22,4.47-6.05,3.43-1-.25ZM137,203.38l3.88-4.12h.75l11.62,11.88-3.62,3.88-12.62-11.62ZM155.38,231c-.53-.84-4.64-4.15-4.62-4.62.03-.91,10.26-12.22,11.38-14.12.91-.29,4.72,3.74,4.62,4.38-.13.91-10.08,12.54-11.38,14.38ZM191.88,240c-.89.15-9.54-3.51-10-3.25-.19.11-.25,1.46-.38,1.75-.56,1.31-.16,1.56-1.88,2.25-.78.31-15.72,3.57-16.5,3.25-.29-.12-2.58-5.3-1.5-6l15.88-3.25c-.89-.52-2.18-.11-2-2.75.1-1.43,1.58-3.25,3.12-3.25.8,0,12.77,5.4,14.88,6,2.32,2.19-1.31,5.2-1.62,5.25ZM180,222.12c.97-1.57,6.38-12.07,7.38-12.12,1.61,1.06,3.93,1.66,4.38,3.88-3.7,4.88-6.47,15.17-9.75,9.88-.86-.46-1.6-.53-2-1.62ZM190.25,210.38c-.48.29-5.21-1.87-5.25-2.75l8.62-15.12c.66-.24,4.76,2.47,4.62,4.12-.07.81-7.22,11.54-8,13.75ZM196,226.38c.8-1.67,7.56-14,8.38-14.12.94.25,4.21,2.47,4.38,3.12.35,1.36-6.79,11.92-7.88,14.12l-4.88-3.12ZM208.5,246.5c3.1,3.16-4.47,6.19-1.5,1.25-.91-.64-4.36-2.46-4.25-3.62.09-1,9.93-14.62,11.38-16.62.61.5,4.59,3.82,4.62,4.12.1.9-8.99,13.11-10.25,14.88ZM216.5,222.12c-.23-1.26.95-2.52,2.12-2.88,1.5-.59,6.49,7.38,6.38,8.12-2.1,5.61-8.39-4.63-8.5-5.25ZM229.75,248.62c-.71.65-5.9.01-5.75-2.25.09-1.4,8.76-23.11,10.62-25.88.99-.28,5.33,2.35,5.38,2.88-1.67,3-9.25,24.33-10.25,25.25ZM231.25,192.62c-.25-.78,2.1-4.8,2.88-4.88,1.93,1.06,11.64,6.37,11.38,8.12l-2.88,3.88-11.38-7.12ZM243.88,217.75c-3.51-1.81-.62-5.55,2-6.5,4.35,1.55.33,6.92-2,6.5ZM247.88,201.5l1.38.62c-.46,7.57-9.02,4.98-1.38-.62ZM243.75,153.62c.55,1.61-3.75,5.76-3.75,6.75,0,.9,8.85,14.38,8.75,15.25-.06.56-2.89,2.27-3.5,2.62-.8.46-1.71,1.95-2.5.62-1.05-2.37-10.52-16.96-10.5-18,.02-.68,1.47-1.5,2-1.88,2.79-1.99,5.4-2.54,5.62-2.75.23-.21,1.22-5.47,3.88-2.62ZM237.25,135.88c.08,1-7.54,15.92-8.62,18.12-.89-.59-4.69-2.64-4.88-3.38-.3-1.19,6.93-15.99,8.38-18.12,1.3-.4,5.06,2.57,5.12,3.38ZM238.88,78c-4.19.28-3.67-3.1-3.88-4-1.21.69-3.73,2.99-4-1.88,3.82-3.52,3.77.86,4,1.88.32-.18.54-.91.88-1,2.46-.65,5.33,3.22,3,5ZM254.25,64.62l-3.88,5.38-6.88-4.5c-.11.14-.7.74-.88.75-.51.02-7.86-4.38-8.88-5.12l4.12-6.12c.5-.13,8.38,4.43,8.38,5.5,1.24-.93,8.24,2.56,8,4.12ZM242.38,39c1.46-.17,3.51,1.74,4.12,3.12-2.15,7.29-10.07-.3-4.12-3.12ZM243.88,24.75c5.8-.78-1.48,10.27-4,9l-1.38-1.88c1.22-1.18,4.07-6.87,5.38-7.12ZM238.63,44.25c3.91,2.79-.95,4.75-3.88,6.5-1.05.63-7.91,4.25-8.38,4.25-1.55,0-2.83-2.21-2.38-3.62.22-.68,9.04-5.13,10.25-5.12.63-1.1,3.14-2.28,4.38-2ZM229,2c.52.64,5.42,9.99,6.25,11.75.29.62.82,1.33,1.25,1.88l-5.12,3.38c-1.06-1.75-8.2-13.79-8.12-14.62.03-.37,3.59-5.02,5.75-2.38ZM225.63,20l12.38,11.12c-4.66,6.78-3.81,5.13-8.75,1.12-1.81,4.87-5.36,2.21-1.25-.75-2.39-1.97-4.55-4.44-7-6.38-.12-.67,3.92-5.26,4.62-5.12ZM226.25,45.62l-3.62,4.12c-1.14.19-13.22-12.62-15.38-14.12l3.88-4.88,15.12,14.88ZM209.38,21l1.62.62c2,9.17-11.24,4.54-1.62-.62ZM207.5,30.12l-5.12,5.62-5.88-5.38,4.88-5.62,6.12,5.38ZM196.63,22.25c2.19-.59,3.62,2.63,3.38,3.62-.1.39-3.93,4.75-6.38,4.38-5.64-.87,2.46-7.85,3-8ZM193.63,37.5c.72.08,13.64,6.17,11.88,7.25-.47.72-2.78,4.22-3.38,4.25-.69.03-10.84-5.68-12.12-6.62-.18-1.04.21-1.41.5-2.12.45-1.11,1.8-2.89,3.12-2.75ZM186.75,5c1.37.26,2.36.82,3.25,1.88-2.7,3.69-11.84,19.96-12.75,21-1.48,1.69-2.47-.12-6-2.25,1.66-2.61,11.08-19.52,12-20.25.4-.32,1.56-.59,2-.62-3.17-4.78,4.22-5.27,1.5.25Z"/><path class="c" d="M16.5,44.38c-.34-.77-2.4-5.04-2.88-5.12-.72-.13-12.06,4.78-13.62,5.5v7c1.88-.61,16.33-6.49,16.5-7.38Z"/><path class="d" d="M6.25,82.75l-.25,1.88c-2.11,2.91-4.1,5.9-6,8.94v8.44c1.16-1.43,9.83-14.47,10-15.38.37-1.98-1.98-3.75-3.75-3.88Z"/><path class="f" d="M8.5,252.88c-2.75-8.47-.76-18.4-8.5-12.12v4l2.88,10.75c1.86-.77,6.06-.84,5.62-2.62Z"/><path class="c" d="M3.5,214.62l-.25-14.25c-.25-.57-2.65-.41-3.25-.38v14.75c.5.03,3.34.09,3.5-.12Z"/><path class="f" d="M9.5,220.62c.15-.76-2.47-5.02-3.38-5.12-.33-.04-5.84,2.34-6.12,2.5v6.5c1.17.39,9.37-3.25,9.5-3.88Z"/><path class="d" d="M8.75,29.38c.44-5.06-6.64-.69-8.75.62v5.25c.78-.3,8.18-4.65,8.75-5.88Z"/><path class="d" d="M8.75,157.38c-.22-5.88-6.26-1.04-8.75.62v5c1.2-.4,8.58-4.72,8.75-5.62Z"/><path class="c" d="M237.75,84.62c-.55,1.67,1.93,4.67,3.38,4.62.82-.02,13.17-5.87,14.88-6.75v-7c-1.13.18-17.94,8.15-18.25,9.12Z"/><path class="f" d="M254.75,171.62c-.35.82-3.71,16.61-3.75,17.5-.1,2.38,3.43,1.53,5,2.38v-21.25c-.41.1-1.08.99-1.25,1.38Z"/><path class="c" d="M250.75,10.62c.14,2.19-2.25,16.45-1.62,17.12.2.22,5.03.82,5.75,1.25l1.12-4.75v-13.75c-.69-.21-5.53-1.04-5.25.12Z"/><path class="f" d="M254.13,230.5c-.68-.02-7.11,4.59-8.62,4.5-.35.99-.41.54-1,1-.51.39-2.19,1.07-2.62,1.5-2.84,2.79-.61,6.5,2.5,5.5.65-.21,11.17-6.5,11.62-7v-4c-.1-.15-1.75-1.5-1.88-1.5Z"/><path class="d" d="M254.25,142.62c-.74,1.81-6.55,12.28-6.5,13,.07,1.04,3.15,2.52,4.12,2.88,1.28-2.35,2.88-4.64,4.12-7v-8.75c-.58-.31-1.24-.86-1.75-.12Z"/><path class="c" d="M252,127.25c-.17,1.4-1.65,2.91-2.25,4-.22.41-.56,1.47-.75,2,5.13,2.79,5.01,4.79,7,2v-6.25c-3.66-2.69-3.8-1.64-4-1.75Z"/><path class="d" d="M251.5,101.12c1.44-2.56,2.94-5.08,4.5-7.56v-3.31c-.76,1.11-6.06,9.42-6,10l1.5.88Z"/><path class="c" d="M18.88,237.25c-1.53-.34-5.79,2.95-4.88,4.88,2,4.39,1.95,2.41,2.62,2.88,1.02.7,7.96,8.91,10.38,11h1c.46-.9,3.61-3.58,3.5-4.38-.14-.95-11.69-14.16-12.62-14.38Z"/><path class="c" d="M67.25,243.62c.03.71,6.1,10.93,7,12.38h6.75c-.74-2.29-6.85-12.77-8.62-16-.74-.21-5.17,2.47-5.12,3.62Z"/><path class="f" d="M147.88,248c-.79.09-12.88,5.29-14.62,6.12-.11.67-.31,1.15-.25,1.88h12.5l7-2.62c.54-2.68-1.84-5.68-4.62-5.38Z"/><path class="f" d="M242.88,246c-.76.16-5.54,8.69-6.12,10h5.75c.25-.36,3.03-3.35,3.25-3.88.91-2.18.11-6.33-2.88-6.12Z"/><path class="f" d="M116,254.12c.05.68,1.68,1.56,2.25,1.88h3.75c.96-1.8,1.99-6.95,3-9.38-6.73-6.16-5.56-.37-9,7.5Z"/><path class="c" d="M164.88,247.75c-1.52-.03-3.25,1.89-2.88,3.38.08.32,4.24,4.67,4.5,4.88h4c1.85-1.32-3.44-5.51-5.62-8.25Z"/><path class="d" d="M215.38,20.25l2.62-1.5c.38-.51.79-.95,1.25-1.38-5.13-5.77-10.58-11.96-16.25-17.38h-6.94c6.45,6.83,12.01,14.33,19.32,20.25Z"/><path class="d" d="M137.75,22.25c1.29,1.32,2.9,2.13,4.25.88,1.03-.96,16.26-21.71,16.25-23.12h-4.82c-3.36,4.82-6.92,9.5-10.18,14.38-1.72,2.57-4,7.41-5.5,7.88Z"/><path class="d" d="M214.63,22c.52.09,2.98-2.72,3.38-3.25l-2.62,1.5c-7.31-5.92-12.86-13.42-19.32-20.25h-2.56c1.45.47,17.68,19.97,21.12,22Z"/><path class="d" d="M137.75,22.25c1.5-.46,3.78-5.31,5.5-7.88,3.26-4.87,6.82-9.56,10.18-14.38h-2.18c-1.57,2-13.6,19.44-14,20.62-.64,1.9.3,1.42.5,1.62Z"/><path class="d" d="M35.63,6.25c.85.04,6.65-4.76,5.12-6.25h-3.5c-2.02,1.4-5.63,4.86-1.62,6.25Z"/><path class="f" d="M214.25,0h-1.25c-8.62,6.96,8.66,7.25,1.25,0Z"/><path class="f" d="M127.13,157.5c-1.51.03-25,8.84-28.12,10.62-.08.37,2.15,5.38,3.38,5.12,3.59-1.66,25.6-8.67,26.75-9.5,1.26-.91.43-6.3-2-6.25Z"/><path class="c" d="M234.63,220.5c-1.86,2.77-10.53,24.48-10.62,25.88-.15,2.26,5.04,2.9,5.75,2.25,1-.92,8.58-22.25,10.25-25.25-.05-.53-4.39-3.16-5.38-2.88Z"/><path class="c" d="M26.75,208.62c-1.75-2.7-8.76-20.11-9.5-21-.5-.61-1.36-.94-2.12-.88-.28.02-4.4,1.77-4.38,3.12.02,1.37,8.42,20.02,10.62,22.62l5.38-3.88Z"/><path class="c" d="M183.25,5.38c-.92.73-10.34,17.64-12,20.25,3.53,2.13,4.52,3.94,6,2.25.91-1.04,10.05-17.31,12.75-21-.89-1.06-1.88-1.61-3.25-1.88-.26-.05-1.42-.26-1.5-.25-.44.03-1.6.3-2,.62Z"/><path class="d" d="M200.13,209l19.62-15.12-3.88-5.12c-6.7,4.88-13.31,9.93-19.12,15.88l3.38,4.38Z"/><path class="d" d="M107.5,81.62c-.31,1.17,1.59,4.08,2.38,5.12,1.23.37,18.81-12.93,21.12-14.62l-3.62-4.62c-2.36,1.54-19.56,12.95-19.88,14.12Z"/><path class="c" d="M17.38,137c7.19-3.32,14.9-5.53,22.12-8.75-.77-1.54-1.22-3.22-2-4.75-.17-.33-.2-1.38-.62-1.5-3.63,1.81-19.45,7.86-20.75,8.75-3.09,2.12.8,6.21,1.25,6.25Z"/><path class="c" d="M58.5,232.12c.07-1.08-3.76-20.28-4.25-21.25-.56-1.12-2.02-1-3.12-.88-.66.07-2.93.97-3.12,1.62-.33,1.14,3.77,20.11,4.5,23.25,1.52-.33,5.88-.93,6-2.75Z"/><path class="c" d="M185.88,127.5c-1.17-.11-19.03,8.04-21.38,9.38-.93,1.11,2.76,4.79,3.12,4.88,1.12.27,18.57-7.75,21.25-8.75.18-.29-2.12-5.42-3-5.5Z"/><path class="c" d="M35.5,22.62c-.02-.35-1.81-4.38-2.5-6.62-.15-.5-.34-.99-.5-1.5-3.58-11.66-2-13.13-9.5-7.88,1.46,3.45,4.53,16.59,5.25,18,2.01,3.94,7.39.03,7.25-2Z"/><path class="f" d="M140.63,129l-19-8.5c-.66.08-3.03,5.3-2.88,5.88,2.2,1.16,17.6,8.58,18.62,8.62,1.26.06,4.14-5.09,3.25-6Z"/><path class="c" d="M131.63,141.75c-1-.03-18.39,4.99-19.25,5.5-2.37,1.41-.38,5.97.75,6.25,1.26.31,17.93-4.91,21-5.5.48-.33-.86-6.2-2.5-6.25Z"/><path class="c" d="M99.88,113.75c-5.7,6.04-10.05,13.16-14.88,19.88l4.12,3.38c1.72-2.2,14.72-18.4,14.62-19.62-.02-.26-3.31-3.26-3.88-3.62Z"/><path class="c" d="M29.5,102.12c3.05,2.95,5.51-1.22,5.25-2.75-.18-1.04-11.34-16.89-12.38-17.12-.24-.05-.95-.04-1.25,0-1.04.12-3.08,1.79-3.12,2.88-.05,1.03,10.76,16.28,11.5,17Z"/><path class="d" d="M154.25,68c.27.18.52.66.88.75,8.51,2.19,17.42,2.38,26,4.25.78-.17,1.35-3.51.88-4.25-.12-.49-.83-.57-1.38-.75-1.12-.36-22.07-3.97-23.25-4-1.61-.04-2.17-.21-3.12,4Z"/><path class="f" d="M232.13,132.5c-1.44,2.13-8.68,16.94-8.38,18.12.19.73,3.98,2.79,4.88,3.38,1.09-2.2,8.7-17.12,8.62-18.12-.06-.81-3.83-3.77-5.12-3.38Z"/><path class="d" d="M234,160.12c2.29,3.17,9.25,16.62,10,17.5.84.99.86.08,1.25.62.61-.35,3.44-2.07,3.5-2.62.1-.87-8.75-14.35-8.75-15.25,0-.99,4.3-5.14,3.75-6.75-2.65-2.85-3.65,2.41-3.88,2.62-.23.21-2.84.76-5.62,2.75l-.25,1.12Z"/><path class="c" d="M207.25,35.62c2.15,1.51,14.23,14.32,15.38,14.12l3.62-4.12-15.12-14.88-3.88,4.88Z"/><path class="c" d="M214.13,227.5c-1.45,2.01-11.28,15.62-11.38,16.62-.11,1.16,3.34,2.99,4.25,3.62.05-.08.42.27,1.5-1.25,1.26-1.77,10.35-13.98,10.25-14.88-.03-.31-4.01-3.62-4.62-4.12Z"/><path class="d" d="M64.63,178.5c1.3-2,10.9-15.87,10.88-16.88-.02-.72-3.78-3.87-4.88-3.62l-10.88,16.88,4.88,3.62Z"/><path class="c" d="M143.63,68.5l-12.38,15.62,4.62,4.12c1.13-2.1,12.34-13.91,12.38-14.88.01-.36-3.92-4.32-4.62-4.88Z"/><path class="d" d="M173.25,87.75c.67.21-.11.94,0,1.12.7,1.14,21.21,7.71,24.12,9.62l2.12-2.25c.18-.81.28-.98,0-1.88-7.93-3.75-16.32-6.71-24.62-9.62-.29.06-1.47,2.56-1.62,3Z"/><path class="f" d="M194.75,164.62c-.4-1.48-3.74-1.29-5-1.12l.12,24-1.88-.12-.25-22.88c-.75,1.58.06,19.55-.25,23.12.19.42,6.51,1.16,7,0-.44-4.47.8-20.96.25-23Z"/><path class="f" d="M72.63,197.75c1.07-1.93,9.23-15.2,9.12-16.12-.04-.35-4.48-3.45-5.12-4.12-1.2,1.96-9.08,15.44-9.12,16.38-.06,1.42,4.1,3,5.12,3.88Z"/><path class="c" d="M109.38,232.25l-11.88,15.12,4.38,3.62,12.38-14.88c.11-.74-3.61-4.65-4.88-3.88Z"/><path class="c" d="M109.25,16.88c-2.41-5.29-4.24-10.89-6.62-16.12-.41.04-.85-.05-1.25,0-.51.07-4.47,2.51-4.62,3.12-.21.8,5.5,14.59,6,15.25,1.43,1.9,4.95-1.21,6.5-2.25Z"/><path class="c" d="M164,107.88l2.38,19.88c.76-.49,5.7-.96,5.88-1.38.38-.9-2.16-16.95-2.12-19.38-.42-.01-.83.02-1.25,0-.48-.02-4.75.6-4.88.88Z"/><path class="f" d="M40.25,142.88c.11-.35-2.65-6.58-3.12-6.62l-14.12,7.62,3.38,6.62c1.61-.88,13.64-6.87,13.88-7.62Z"/><path class="c" d="M134.75,28.38c-1.37-1.96-6.89-14.89-7.5-15.5-.45-.45-.97-.71-1.62-.62-1.28.82-4.53,2.26-4.38,3.88,5.19,7.99,6.59,20.74,13.5,12.25Z"/><path class="c" d="M112.25,188.12l-12.88-11.38-4.12,5.88,12.88,10.88,4.12-5.38Z"/><path class="d" d="M98.88,35.25c.9.02,13.39-8.42,15.12-9.62-.6-.65-3.04-4.82-3.62-4.88-.93-.09-14.38,8.42-15.88,9.88.89.69,3.53,4.61,4.38,4.62Z"/><path class="d" d="M162.13,212.25c-1.12,1.9-11.35,13.22-11.38,14.12-.02.48,4.1,3.78,4.62,4.62,1.29-1.84,11.24-13.47,11.38-14.38.09-.64-3.72-4.66-4.62-4.38Z"/><path class="c" d="M94.63,209.75l5.12-3.62c-1.85-2.45-8.28-13.27-9-14-.32-.33-.56-.74-1.12-.62l-5.12,3.88c1.54,1.6,8.89,14.42,10.12,14.38Z"/><path class="c" d="M230.5,89.38c-1.83-2.25-8.72-12.31-9.5-13-.57-.5-.59-.77-1.62-.62l-4.38,3.88c1.3,1.76,9.8,14.02,11.12,13.88.77-.89,4.5-2.98,4.38-4.12Z"/><path class="c" d="M191.63,60.25c-1,2.17-6.59,16.21-6.62,17.12-.06,1.61,5.47,2.97,5.75,2.75.48-2.31,6.68-16.51,6.12-17.38-.16-.25-4.97-2.58-5.25-2.5Z"/><path class="f" d="M173,176.12c2.05-5.53,3.79-11.18,5.75-16.75-.15-1.14-4.13-1.89-5.12-2.62-1.65.13-5.22,13.8-6.38,15.88-.76,1.3,5.12,4.45,5.75,3.5Z"/><path class="c" d="M146.13,168c1.24.27,14.78-7.41,16.88-8.88-.67-.67-2.95-4.84-3.62-4.88-.91-.05-14.05,7.76-15.88,8.88-.6,1.79,2.31,4.81,2.62,4.88Z"/><path class="d" d="M177.5,234.75l-15.88,3.25c-1.08.7,1.21,5.88,1.5,6,.78.32,15.72-2.94,16.5-3.25,1.71-.69,1.32-.94,1.88-2.25-.11-3.06-1.85-2.5-4-3.75Z"/><path class="f" d="M23.38,216c4.49,3.99,13.36,10.11,18.5,14,4.15-4.15-1.17-4.83-3.38-8.5-1.39-1.23-11.83-9.89-12.62-10-1.13-.15-2.97,1.87-3.62,2.75-.14.72.61,1.3,1.12,1.75Z"/><path class="d" d="M229.25,32.25c4.94,4,4.09,5.66,8.75-1.12l-12.38-11.12c-.71-.13-4.75,4.46-4.62,5.12,2.45,1.94,4.61,4.41,7,6.38.06.05.22-.08,1.25.75Z"/><path class="c" d="M45.75,92.12c1.35,1.44,12.78,10.19,13.62,10.12.31-.02,3.65-4,4.12-4.62-1.75-1.48-13.32-10.51-14.38-10.38-1.33.94-3.87,3.06-3.38,4.88Z"/><path class="c" d="M191,118.62c-1.6-1.94-10.2-15.99-11.38-16.12-1.09.23-4.48,2.19-4.38,3.38l11,15.5c1.05,1.3,3.19-1.53,4.75-2.75Z"/><path class="d" d="M174.5,206.12c-1.87-1.54-14.88-12.82-15.88-12.62-.72.95-3.6,3-3.38,4.12,1.87,1.36,14.39,12.38,15.38,12.38.27,0,3.28-3.49,3.88-3.88Z"/><path class="d" d="M41.13,58.75c1.19.02,19.46-7.81,21.62-9.88-.85-.58-.98-1.61-1.5-2.38-.04-.06-.87.06-1.25-.75-2.89.91-19.24,7.96-20.12,8.75-2.03,1.83-.19,4.23,1.25,4.25Z"/><path class="f" d="M43.5,157.62c.14-.7-3.26-5.15-3.88-5.12l-11.62,9.38c-.45,1.34,2.99,4.75,3.88,5.88,1.37-1.23,11.47-9.37,11.62-10.12Z"/><path class="f" d="M158,110.38c-1.48-6.18.95-17.78-4.12-16.62-5.86.34-1.85,10.21-2.38,17.38.19.42,7.4,1.11,6.5-.75Z"/><path class="c" d="M161.88,74.5c-1.73.05-10.81.78-10.88,2.12-1.23,9.21,5.91,4.98,15.62,4.38.44-5.53.84-6.66-4.75-6.5Z"/><path class="c" d="M80.5,108.75c1.15-1.48,11.2-10.09,11.25-10.88.02-.33-3.63-4.46-4.12-5.12-3.36,3.15-9.12,8.39-11.62,11.88-.01.02.34.25.25.38.97.66,3.69,3.08,4.25,3.75Z"/><path class="f" d="M115.75,91.12c.33,1.1,14.56,14.17,16.62,15.88,4.29-4.09,2-2.2-.88-7-1.43-1.45-11.59-11.41-12.38-11.75-2.36-1.03-2.91,1.03-3.12,1.25.16.92-.3,1.47-.25,1.62Z"/><path class="f" d="M193.63,192.5l-8.62,15.12c.04.88,4.77,3.04,5.25,2.75.78-2.21,7.93-12.94,8-13.75.14-1.66-3.96-4.37-4.62-4.12Z"/><path class="f" d="M97,11.62c.42-1.54-3.05-5.28-4.62-4.88-.69.18-9.05,8.67-10.38,9.88l4.62,4.88c1.3-1.23,10.19-9.18,10.38-9.88Z"/><path class="c" d="M230.38,210.25c-1.01-2.5-5.14-14.32-7.75-13l-3.88,2.62c-.41,1.53,5.23,11.45,6.38,13.62l5.25-3.25Z"/><path class="f" d="M219.25,117.5c-.58-.58-1-.86-1.88-.75-.83.1-14.17,7.57-14.38,8.38-.22,1.47,1.58,4.48,3.12,4.38.84-.06,12.88-7.41,14.62-8.5.11-.52-1.37-3.37-1.5-3.5Z"/><path class="d" d="M112.13,206c-1.12-.05-2.59,2.83-2.88,3.75,4.17,2.25,8.42,4.32,12.62,6.5,1.83.95,4.22.64,3.62,3,.26.12.42.32.75.25.14-.28,2.29-2.28,3.25-5.25-1.78-1.05-16.41-8.21-17.38-8.25Z"/><path class="c" d="M141.63,199.25h-.75l-3.88,4.12,12.62,11.62,3.62-3.88-11.62-11.88Z"/><path class="c" d="M204.38,212.25c-.81.12-7.58,12.45-8.38,14.12l4.88,3.12c1.08-2.21,8.22-12.76,7.88-14.12-.17-.65-3.43-2.88-4.38-3.12Z"/><path class="c" d="M98.38,79.5c-1.2,1-4.64,1.88-4.62,3.62,0,.72,4.52,11.55,5.38,13.38l5.62-3.38c-1.38-2.05-4.47-13.79-6.38-13.62Z"/><path class="f" d="M77.63,40c-1.24.52-.35,12.37-.62,14.38.48,1.57,3.52.63,6.12.88l.38-14.62c-.44-1.09-4.72-.46-5.88-.62Z"/><path class="c" d="M36.75,20.75l8.38,11,4.88-3.62c-2.76-4.19-5.3-8.48-8.5-12.38-1.18.29-4.47,4.8-4.75,5Z"/><path class="d" d="M25.63,182.25c.77.15,3.74-2.61,2.62-3.5-2.38-3.4-9.83-10.38-13.12-14.25-1.76-.26-2.43.99-3.38,2.25,0,.9.73,1.74,1.25,2.38,2.74,3.33,9.32,9.57,12.62,13.12Z"/><path class="c" d="M243.38,114.75c.89-1.54,5.25-12.67,5.12-13.38-.08-.45-3.76-3.6-5.62-2.88-.93,1.54-5.09,12.45-4.88,13.12.15.48,4.69,2.49,5.38,3.12Z"/><path class="d" d="M115.88,44l9.62-11.12c.05-.8-3.33-4.08-4.38-3.62l-10.12,10.88,4.88,3.88Z"/><path class="f" d="M18.5,110.5c1.49.48,8.05,7.3,8.62,7.25.33-.03,4.11-4.16,4.88-4.62-8.59-8.74-8.7-12.79-13-4.88-.05.1-.36,2.09-.5,2.25Z"/><path class="d" d="M212.75,97.5l-7.5-17.88c-.6-.98-3.12.99-4,1.62l7.5,18.75c.43-.18,2.08-.9,2.25-1,1.23-.68,1.65-1.44,1.75-1.5Z"/><path class="c" d="M57.75,166.12l-4.12-4.12-9.88,7.88,4.62,5.12c2.53-1.84,10.39-7.47,9.38-8.88Z"/><path class="f" d="M60,90.12l6.88.38.12-12.88-6.12-.38c-1.79.54-.46,10.69-.88,12.88Z"/><path class="d" d="M155,131.88c-.11.24.44.58.25,1-.07.15-1,.7-1.25,1.25-1.07,2.38-1.63,5.09-3.25,7.25l-2.75,8.25c-.45.73-2-.08-1.75-.88-1.42,1.26,3.99,3.08,4.75,2.12.86-2.92,8.64-19.15,8.75-20.25.16-1.51-.46-2.5-1.75-3.12-1.25-.22-2.24,2.71-3,4.38Z"/><path class="d" d="M106.5,138.62c.44-2.18,6.69-13.23,6.75-14,.12-1.56-2.42-3.75-4.12-3.38-.84,2.03-7.09,14.29-7.12,15.12-.08,1.75,3.77,3.56,4.5,2.25Z"/><path class="c" d="M112.88,102l-4.38,5.12,8.88,8.88,4.62-4.88-9.12-9.12Z"/><path class="c" d="M225.88,170.75c-.91,1.32-5.56,10.5-5.62,11.12-.13,1.35,5.49,4.71,5.75,3.25.47-1.72,5.3-10.63,5.25-11.25-.06-.75-4.31-3.61-5.38-3.12Z"/><path class="d" d="M27.38,60.5l-8.88,11.12,4.88,3.88c.89-1.26,8.13-9.24,8.12-9.88,0-.33-3.49-4.6-4.12-5.12Z"/><path class="c" d="M129.5,232.88l10.12,9.62c.86.31,4.24-3.24,4.12-3.88l-10.12-10.38-4.12,4.62Z"/><path class="d" d="M54,5.88c.45,1.13,12.09,11.9,13.88,14.38l3.12-3c-.47-.84-12.81-12.99-13.62-13.5-2.33-1.45-1.84-.68-3.38.75.97.72-.15,1,0,1.38Z"/><path class="d" d="M199.5,53.5c.55.13.08,1.4.25,1.88.31.84,11.94,9.85,13.88,11.12,1.97-1.87,3.99-2.04,1.62-4.5-.57-.59-12.11-9.72-12.88-10-1.82-.66-2.04.34-2.88,1.5Z"/><path class="c" d="M245.5,195.88c.26-1.76-9.45-7.06-11.38-8.12-.77.07-3.12,4.09-2.88,4.88l11.38,7.12,2.88-3.88Z"/><path class="c" d="M130,198.38c-.97-6.2,1.22-13.54-2.88-13.62-.21,0-3.71.75-3.88,1.38,1.45,8.89-1.64,16.07,6.75,12.25Z"/><path class="d" d="M32.38,87.75c3.28-3.32,4.37-2.39,4.62-2.62.28-.25-.48-2.71,2.5-6.88l-4.75-4.5c-.8,1.07-6.23,9.53-6.25,10.12-.02.53,2.65,4.48,3.88,3.88Z"/><path class="d" d="M203.75,171.88c.64.92.86.31,1,.5.21.29,2.18,5.47,3.62,6.12.06.03.69-1.02.62,0,.76-.44,3.11-1.85,3-2.88-.09-.87-9.51-13.95-10.38-13.88-.77.48-1.28.78-1.88,1.5-.18.22-.99,1.05-1,1.12-.07.48,4.3,6.49,5,7.5Z"/><path class="d" d="M82.75,161.12c.74,1.72,2.24-1,3-.12.06-.04,1.16-.39,1.25-.88.15-.87-4.56-14.56-4.5-17-.65-1.18-2.47-.25-3.25.38-.45.36-.98.57-1,.62-.51,1.39,4.11,14.36,4.5,17Z"/><path class="c" d="M109.88,56c5.85-2.05,16.87-3.49,9-9.25-4.43,2.36-16.92,2.26-9,9.25Z"/><path class="f" d="M92.38,49c-7,6.85,2.88,7.75,7.75,10l3.12-5.38c-.16-.57-10.15-4.77-10.88-4.62Z"/><path class="c" d="M98,73.62l-3.62-5.38-9.62,6.62c2.93,8.77,6.38,3.22,13.25-1.25Z"/><path class="c" d="M157.13,43.5c.66-.15,8.73-9.47,8.88-10.12.3-1.31-1.87-3.69-3.62-3.38-.66.12-8.95,9.23-9.12,9.88-.55,2,2.42,3.97,3.88,3.62Z"/><path class="f" d="M43.5,195c1.93,1.44,4.68,2.69,6.62,4.25,1.36-1.2,4.24-3.21,2.75-5-.36-.44-8.43-6.92-9-7-1.41-.19-3.27,3.51-4.12,4.5,1.4.54,3.55,3.1,3.75,3.25Z"/><path class="c" d="M16.5,63.38l-8.38-8.88-4.38,4.88,8.38,8.12,4.38-4.12Z"/><path class="c" d="M246.25,60.5c0-1.07-7.87-5.63-8.38-5.5l-4.12,6.12c1.01.75,8.36,5.14,8.88,5.12.17,0,.77-.61.88-.75.17-.23,1.55-4.1,2.75-5Z"/><path class="d" d="M38,33.12c-1.29-1.08-10.94-7.38-11.62-7.38-1.09,0-3.54,3.05-2.88,4.62,1.56.75,10.96,6.36,11.62,6.38.96.03,3.1-2.66,2.88-3.62Z"/><path class="d" d="M193.5,234.75c-2.11-.6-14.07-6-14.88-6-1.54,0-3.03,1.82-3.12,3.25,2.37.9,15.94,6.54,16.88,6.5,1.55-.06,1.9-2.8,1.12-3.75Z"/><path class="c" d="M159.25,181.38c1.02.93,8.03,6.96,8.62,6.88.31-.05,4.41-4.31,4.38-4.62l-9.12-7.12-3.88,4.88Z"/><path class="c" d="M141.88,104.75c-1.73,1.96-9.21,7.69-8.88,9.88,2.65,6.01,7.78-1.81,12.75-5.75.1-.65-2.92-4.32-3.88-4.12Z"/><path class="c" d="M135.25,60.88c3.42,6.18,7.54-4.05,12.5-8.5l-3.62-3.12c-2.37,2.93-9.82,9.57-8.88,11.62Z"/><path class="c" d="M66.13,58l-4.88,5.38,6.12,6.38,5.62-4.88-6.88-6.88Z"/><path class="c" d="M178.13,201.5c.96-2.01,8.01-15.48,7.88-16.38-.05-.33-5.17-4.19-5.5-2.62.62-.16,2.13.46,2.25,1.12.18.99-7.01,13.64-7.5,16l-2.25-1.12c.1.81,4.37,3.25,5.12,3Z"/><path class="f" d="M155.5,170c-1.29-.85-1.45-.3-1.75-.25-2.74.45-14.49,5.55-7.38,9,5.61-2.43,16.64-5.89,9.12-8.75Z"/><path class="f" d="M141,191.38c.23.18,4.38-2.87,4.25-3.75l-7.75-9.88c-.41-.05-3,1.63-3.5,2-2.31,2.08,5.46,7,7,11.62Z"/><path class="c" d="M219.5,99.38l-2.88-3.88c-.27-.05-3.31,1.68-3.88,2-.1.06-.52.82-1.75,1.5l-4,3.12,2.88,4.12c.6.18,11.08-5.83,9.62-6.88Z"/><path class="c" d="M177.38,58.25c.63-.13,8.29-8.88,8.12-9.62l-3.12-3.38-9.12,10.38c.7.9,3.13,2.83,4.12,2.62Z"/><path class="d" d="M84,229.5c-2.41-2.09-5.08-3.89-7.25-6.25l-4.75,4.25c2.25,2.42,4.51,4.82,6.75,7.25,1.55-.47,4.95-5.04,5.25-5.25Z"/><path class="f" d="M67.13,218.5c-2.92,2.98-1.29,2.37,4.88,9l4.75-4.25c-5.98-6.51-4.25-10.25-9.62-4.75Z"/><path class="d" d="M202.13,48.5l3.38-3.75c1.76-1.08-11.15-7.17-11.88-7.25-1.32-.14-2.67,1.64-3.12,2.75,3.51,3.37,10.42,5.57,10.88,6,1.46,1.37-1.58,1.18.75,2.25Z"/><path class="d" d="M225.5,4.62c.03.75,6.4,11.41,7.12,13.12,1.55-1.37,3.99-1.47,2.62-4-.83-1.76-5.73-11.11-6.25-11.75-.97-1.17-3.53,1.64-3.5,2.62Z"/><path class="c" d="M41.88,66.75c-1.23-.32-6.11,5.66-7.12,7l4.75,4.5c5.05-7.05,9.67-4.43,2.38-11.5Z"/><path class="d" d="M209.5,149.5l8.38,9.25c1.1.22,2.95-2.54,3.88-3.25-.2-.61-5.97-6.07-8.75-9.5-1.32,1.01-2.37,2.3-3.5,3.5Z"/><path class="c" d="M63.63,123.75l-6.88,7.38c4.92,6.55,3.94,3.06,11.5-2.75.05-.33-3.72-5.09-4.62-4.62Z"/><path class="c" d="M148.63,35.5l4.62-4.62-7.12-7.12c-.35.78-3.89,4.8-3.88,5.12.03.46,5.64,5.77,6.38,6.62Z"/><path class="c" d="M209.5,149.5c1.13-1.2,2.18-2.49,3.5-3.5-4.98-6.14-3.31-10.11-10.5-2.62,1.87,2.38,3.81,4.77,5.75,7.12.63-.15.86-.59,1.25-1Z"/><path class="d" d="M243.5,65.5l6.88,4.5,3.88-5.38c.24-1.57-6.76-5.06-8-4.12-1.2.9-2.58,4.77-2.75,5Z"/><path class="c" d="M202.38,35.75l5.12-5.62-6.12-5.38-4.88,5.62,5.88,5.38Z"/><path class="c" d="M241.5,126.75c.67-1.39,1.06-2.97,2-4.25-.66-.41-4.25-3.41-6.88-4.75l-3.62,6.12c.07.48,6.56,4.05,7.5,4.62.56-1.58.96-1.66,1-1.75Z"/><path class="d" d="M49,122.88c-.38-7.86-6.95-1.85-11.5.62.78,1.53,1.23,3.21,2,4.75,3.32-1.48,6.77-2.97,9.5-5.38Z"/><path class="f" d="M63.38,155.25l1.62-1.88c-.99-1.97-11-14.26-11.88-14.62-.6-.25-1.3.62-1.38,0-.42.15-.91.46-1.25.75.26,1.09.82,2.01,1.5,2.88,3.02,3.84,8.06,8.97,11.38,12.88Z"/><path class="f" d="M78.63,116c3.99-3.97,5.51-2.94,1.88-7.25-.56-.67-3.28-3.09-4.25-3.75-1.35,1.95-2.71,3.89-4,5.88-.01.92,5.52,4.09,6.38,5.12Z"/><path class="f" d="M133.25,38.5c2.68-.47,4.96,2.62,6.75,4.62.26.3-1.23,1.68,2,.12.04-.03.16-.34.75-.75.24-.17.48-.39.75-.5-.64-1.4-6.24-9.57-6.88-9.75-2.11-.59-5.4,2.39-3.38,6.25Z"/><path class="d" d="M83.25,209.12l-8.38-7.12-3.38,4.12,8.38,6.62,3.38-3.62Z"/><path class="f" d="M16.13,159c9.35-.34,7.32-15.9,1.62-9-.13.16-1.76,3.04-2,3.5-.99,1.92-3.09,3.26.38,5.5Z"/><path class="c" d="M68.63,36l.12-7.12c-.22-.5-5.69-.53-6.38-.38-2.54.56-.93,5.35-1.38,7.38l7.62.12Z"/><path class="d" d="M201,151.75c.13-1.53-9.49-4.95-11.12-6-.49.06-1.91,2.92-2.12,3.5,1.15.88,9.79,5.82,10.38,5.75.74-.08,1.65-3.23,2.88-3.25Z"/><path class="c" d="M12,7l1.25.88c-2.21,4.82-4.78,9.56-6.88,14.38l-2.12-1.25c.14.88,3.66,2.6,4.62,3,.76-.09,6.57-12.87,6.62-13.62.16-2.1-1.76-2.93-3.5-3.38Z"/><path class="c" d="M119.25,62.88l-3.38-3.12c-1.53,1.71-7.62,7-7.38,8.88,3.08,6.07,7.92-3.62,10.75-5.75Z"/><path class="f" d="M163,43.75l1-.12v14l3.38.12c-.08-4.42.86-11.33-.62-14.75-1.6-.53-2.5-.29-3.75.75Z"/><path class="f" d="M61.88,156.75c.74.15,4.01-2.7,3.38-4.38-.33-.87-10.52-12.39-12.12-14.12-.53-.09-.92.34-1.38.5.08.62.77-.25,1.38,0,.87.36,10.89,12.66,11.88,14.62l-1.62,1.88c-3.31-3.9-8.35-9.03-11.38-12.88-.68-.86-1.24-1.79-1.5-2.88-.74.64-1.15.82-1.5,1.88-.05,1.24,11.35,13.2,12.88,15.38Z"/><path class="d" d="M173.25,88.88c-.11-.19.67-.91,0-1.12-.35.97-.93,1.81-.75,2.88,2.73,1.15,24.11,9.99,25.25,9.25.26-1.06,1.58-2.86,1.75-3.62l-2.12,2.25c-2.91-1.91-23.43-8.48-24.12-9.62Z"/><path class="f" d="M36.75,20.75c.28-.2,3.57-4.71,4.75-5-1.63-1.99-3.36-3.89-5.12-5.75l-3.88,4.5c.16.51.35,1,.5,1.5,1.47.95,1.76,6.2,3.75,4.75Z"/><path class="c" d="M211.63,178l-5.88,4.88,3.88,5.12c6.61-3.64,6.23-4.06,2-10Z"/><path class="d" d="M38.13,201.5l5.38-6.5c-.2-.15-2.35-2.71-3.75-3.25-.54.63-3.82,4.69-4.12,4.75-.81.15-3.15-2.17-3.88-.12-.14,1.03,5.34,4.36,6.38,5.12Z"/><path class="d" d="M181.13,73c-8.58-1.87-17.49-2.06-26-4.25-.35-.09-.61-.57-.88-.75-.1.44-.6,1.54-.5,1.88,3.04,1.13,25.51,5.03,26.88,4.88,1.13-.13,2.77-5.14,1.38-6,.47.74-.1,4.08-.88,4.25Z"/><path class="f" d="M133.75,217.12c-.06-.38-3.63-2.51-4.25-2.88-.96,2.97-3.11,4.97-3.25,5.25-.08.17.6.14-1.25,3.38,6.61,4.5,4.43,2.3,8.75-5.75Z"/><path class="d" d="M234.25,46.25c-1.21,0-10.03,4.44-10.25,5.12-.45,1.42.82,3.63,2.38,3.62.47,0,7.32-3.62,8.38-4.25-.76-1.46-1.4-2.95-.5-4.5Z"/><path class="f" d="M131.13,108.25c6.23-4.57,4.57-3.99.38-8.25,2.88,4.8,5.17,2.91.88,7-2.06-1.71-16.29-14.77-16.62-15.88-.05-.15.41-.7.25-1.62-.92.95-1.97,1.47-1.5,3.12.31,1.1,14.62,13.71,16.62,15.62Z"/><path class="d" d="M148,149.62l2.75-8.25c1.62-2.16,2.18-4.87,3.25-7.25.25-.55,1.18-1.1,1.25-1.25.19-.42-.36-.76-.25-1,.76-1.67,1.75-4.6,3-4.38-1.11-.54-2.26-.82-3.25.12-.82.79-7.61,18.45-8.5,21.12-.25.79,1.3,1.61,1.75.88Z"/><path class="d" d="M149.13,50.5c.65-.82,2.83-2.33,2.62-3.38-2.63-1.85-4.82-6.5-8.25-5.12-.27.11-.51.33-.75.5-2.71,3.35,3.86,5.97,6.38,8Z"/><path class="d" d="M66.88,22c1.69-1.82,5.5-4.35,4.12-4.75l-3.12,3c-1.78-2.48-13.43-13.24-13.88-14.38-.15-.38.97-.66,0-1.38-.9.84-2.14,1.38-1.5,2.88.41.94,12.63,12.63,14.38,14.62Z"/><path class="f" d="M38.5,221.5c2.21,3.67,7.52,4.35,3.38,8.5-5.14-3.89-14.01-10.01-18.5-14-.51-.45-1.27-1.03-1.12-1.75-1.06,1.42-1.92,1.36-.38,3,.81.86,16.24,11.75,19,14,5.49-4.49,2.87-5.13-2.38-9.75Z"/><path class="c" d="M51.13,73c4.25-4.83,7.24-4.93.75-9.25-3.03,3.87-8.21,7.51-.75,9.25Z"/><path class="d" d="M213.63,66.5c-1.94-1.27-13.57-10.28-13.88-11.12-.17-.48.3-1.75-.25-1.88-.72,1-1.56,2.01-1,3.38.34.82,12.26,9.47,13.88,11.12,9.85-6,5.22-10.4,2.88-6,2.37,2.46.34,2.63-1.62,4.5Z"/><path class="f" d="M189.88,187.5l-.12-24c-.82.1-1.53.02-2,1l.25,22.88,1.88.12Z"/><path class="c" d="M182.75,183.62c-.12-.67-1.63-1.28-2.25-1.12-.75,2.09-7.61,15.12-7.5,16l2.25,1.12c.49-2.36,7.68-15.01,7.5-16Z"/><path class="d" d="M249.75,131.25c.6-1.09,2.08-2.6,2.25-4-2.86-1.5-5.75-3.06-8.5-4.75-.94,1.28-1.33,2.86-2,4.25l8.25,4.5Z"/><path class="c" d="M188.25,211.62c.6-1.05,2.68,1.14,2.75,1.5.11.62-5.03,10.22-5.75,11-1.03,1.12-2.13.23-3.25-.38,3.28,5.29,6.05-4.99,9.75-9.88-.45-2.21-2.76-2.82-4.38-3.88-.99.06-6.41,10.56-7.38,12.12.4,1.09,1.14,1.16,2,1.62-.11-1.13,6.28-9.91,6.25-12.12Z"/><path class="c" d="M61.38,244.75l-6.12,6.38,3.62,3.62c5.44-6.1,7.41-5.44,2.5-10Z"/><path class="c" d="M99.38,210.5l-4.62,6.12,4.12,3.38c3.77-4.37,6.86-6.15.5-9.5Z"/><path class="f" d="M70.63,204.25c.65.03,2.46-2.66,2.38-3.5-5.97-3.34-7.75-7.31-10.75-2.5.4,1.12,7.85,5.98,8.38,6Z"/><path class="d" d="M11,169.62c.48.89,11.74,12.51,13.88,14.62l4.38-4.62c-.23-.36-.96-.82-1-.88,1.12.89-1.86,3.65-2.62,3.5-3.31-3.55-9.89-9.8-12.62-13.12-.52-.64-1.26-1.47-1.25-2.38-.9,1.21-1.93.69-.75,2.88Z"/><path class="f" d="M225,227.38c.12-.74-4.87-8.72-6.38-8.12-1.17.36-2.35,1.62-2.12,2.88.11.62,6.4,10.86,8.5,5.25Z"/><path class="c" d="M13.25,7.88l-1.25-.88c-2.42-1.07-5.94,10.29-7.75,14l2.12,1.25c2.1-4.82,4.67-9.55,6.88-14.38Z"/><path class="d" d="M199.25,82.62c-.17.94,6.68,15.23,7.5,17.5,1.05,1.16,1.03.28,2-.12l-7.5-18.75c-.4.29-1.89.8-2,1.38Z"/><path class="d" d="M244,177.62c-.75-.88-7.71-14.33-10-17.5l.25-1.12c-.53.38-1.98,1.19-2,1.88-.02,1.04,9.45,15.63,10.5,18,.79,1.33,1.7-.17,2.5-.62-.39-.55-.41.36-1.25-.62Z"/><path class="d" d="M11.25,104.38l-4.38-5.62-4.38,5.38c5.67,3.98,4.41,5.58,8.75.25Z"/><path class="d" d="M82.75,161.12c-.39-2.64-5.01-15.61-4.5-17,.02-.06.55-.26,1-.62-.76.12-3.13.8-3.25,1.62-.13.89,4.38,14.95,5,17.25.25,1.27,3.89-.8,4.75-1.38-.76-.87-2.26,1.85-3,.12Z"/><path class="d" d="M193.63,30.25c2.45.38,6.28-3.98,6.38-4.38.24-1-1.19-4.21-3.38-3.62-.54.15-8.64,7.13-3,8Z"/><path class="f" d="M167.38,57.75l-3.38-.12v-14l-1,.12c-2.52,2.09-.69,10.63-1.25,14.12,1.78,1.26,3.89.12,5.88.38.51-1.96.56-13.44.38-14.12-.03-.12-.97-.99-1.25-1.12,1.48,3.42.55,10.33.62,14.75Z"/><path class="d" d="M84.88,246.75c-3.4,2.63-7.24,4.47-3.5,7.5,2.23.65,12.23-6.12,3.5-7.5Z"/><path class="d" d="M236.5,15.62c-.43-.54-.96-1.26-1.25-1.88,1.36,2.53-1.07,2.63-2.62,4-.73-1.72-7.1-12.38-7.12-13.12-.03-.98,2.53-3.79,3.5-2.62-2.16-2.65-5.72,2-5.75,2.38-.07.83,7.07,12.88,8.12,14.62l5.12-3.38Z"/><path class="c" d="M28,225.75c1.71,3.98,8.75,9.4,5.62,10.5-.59.06-6.01-6.69-6.88-7.62-1.48-1.6-1.89-.87-1.5-1.88-3.75,1.23,5.89,11.56,6.62,11.5l3.62-2.88c-1.01-1.34-6.7-9.42-7.5-9.62Z"/><path class="c" d="M216.63,128.5c-5.33,2.74.51,5.44,3,8.5,7.71-1.02-2.14-8.55-3-8.5Z"/><path class="c" d="M224.88,102.25c-3.06,3.64-7.77,5.08-2.25,8.75l5.88-5.88-3.62-2.88Z"/><path class="d" d="M46.13,115.75c2.77-2.86,8.91-6.37,3-8.25-2.18,2.08-10.44,7.51-3,8.25Z"/><path class="d" d="M17.88,97.25c5.89-1.36-1.63-7.28-4-9.25-5.64,2.39,2.21,6.5,4,9.25Z"/><path class="f" d="M243.88,24.75c-1.3.25-4.16,5.95-5.38,7.12l1.38,1.88c2.52,1.27,9.8-9.78,4-9Z"/><path class="d" d="M192.38,238.5c-.93.04-14.51-5.6-16.88-6.5-.18,2.64,1.11,2.23,2,2.75,2.15,1.25,3.89.69,4,3.75.12-.29.18-1.64.38-1.75.46-.26,9.11,3.4,10,3.25.32-.05,3.94-3.06,1.62-5.25.78.95.43,3.69-1.12,3.75Z"/><path class="d" d="M73.13,126l-1.38,1.38c-.74,2.1,7.51,9.09,8.25,4.75.11-1.44-5.52-6.82-6.88-6.12Z"/><path class="d" d="M67.5,213.12c.39-1.38-5.19-7.41-6.62-7.12-4.32,2.43,1.26,4.81,4.25,8.5,1.08.14,1.71-.7,2.38-1.38Z"/><path class="d" d="M15.75,153.5c.24-.46,1.87-3.34,2-3.5l-4.88-7.25c-6.17.52,2.26,7.89,2.88,10.75Z"/><path class="d" d="M118.5,187.88l1.25.62c.25-.09,1.04-.09,1.5-.38-.24-2.01.61-12.55-1.25-13.12-2.78-.05-1.02,8.28-1.5,12.88Z"/><path class="c" d="M102.88,150.75c-2.62,2.92-6.77,7.53-.25,8,1.99-3.14,5.82-6.95.25-8Z"/><path class="d" d="M87.88,232.5c-3.82,2.74,3.87,4.43,8.25,7,5.81-2.47-6.12-6.12-8.25-7Z"/><path class="f" d="M145.75,187.62c-1.11-1.22-7.55-9.78-8.25-9.88l7.75,9.88c.13.88-4.02,3.93-4.25,3.75-1.54-4.62-9.31-9.54-7-11.62-1.04.77-2.63,1.56-2.5,2.38l8.88,10.12c.55.08,5.49-3.51,5.38-4.62Z"/><path class="d" d="M122.88,40.5c-.36.04-6.14,3.44-6.12,3.88,7.58,6.69,11.26-4.49,6.12-3.88Z"/><path class="d" d="M147.38,94.5c1.75-2.15,7.78-6.77,2.25-8-4.3,4.11-7.94,6.54-2.25,8Z"/><path class="d" d="M226,116.88l-3.12-4.88-3.62,5.5c.13.13,1.61,2.98,1.5,3.5,1.89-1.17,5.23-2.42,5.25-4.12Z"/><path class="d" d="M31.75,210.38c-1.19-3.05-.21-8.48-3.12-8.62-2.59.3-1.32,14.43,3.12,8.62Z"/><path class="d" d="M118.5,187.88c.48-4.59-1.28-12.93,1.5-12.88-6.48-.99-3.04,9.71-3.5,13.88.23.53,2.59-.15,3.25-.38l-1.25-.62Z"/><path class="d" d="M183.88,30.75c-1.68,1.96-8.34,8.4-2.5,8.5,1.58-1.93,7.34-7.59,2.5-8.5Z"/><path class="d" d="M207.63,179.5c.52,0,1.3-.96,1.38-1,.07-1.02-.56.03-.62,0-1.44-.65-3.42-5.83-3.62-6.12-.14-.19-.36.42-1-.5-.7-1.01-5.07-7.02-5-7.5.01-.07.82-.91,1-1.12-1.02.44-2.61,1.73-2.25,2.88.25.8,8.55,11.66,10.12,13.38Z"/><path class="d" d="M150,134.62c.54-2.74,5.42-7.19.88-8.12-.61.09-8.27,10.01-.88,8.12Z"/><path class="f" d="M81.38,238c.3.06,5.01-3.35,4.88-3.62-3.81-.2.4-6.73-2.25-4.88-.3.21-3.7,4.78-5.25,5.25.39.42,2.42,3.21,2.62,3.25Z"/><path class="d" d="M77.38,26.5c.5-.19,7.89-5.86,2.5-6.75-7.94,4.42-5.43,7.88-2.5,6.75Z"/><path class="d" d="M76,36c.09,0,1.67-.45,1.75-.5,1.73-1.05,2.17-4.36.12-5.5-5.35-1.24-6.14,6.16-1.88,6Z"/><path class="c" d="M26.75,228.62c.87.94,6.28,7.69,6.88,7.62,3.12-1.1-3.92-6.52-5.62-10.5-.85-.22-2.36.05-2.75,1-.39,1,.02.28,1.5,1.88Z"/><path class="c" d="M43.13,33.25c-3.4.96-3.44,4.53-1.5,5.75,3.76,2.36,7.82-3.89,1.5-5.75Z"/><path class="d" d="M25.13,55c4.94-2.37-1.5-7.56-2.5-7.5-4.95,2.25.27,5.42,2.5,7.5Z"/><path class="c" d="M9.63,119c3.53-2.68,2.25-4.93-1.25-6.5-5.86,2.94-.94,7.11,1.25,6.5Z"/><path class="c" d="M242.38,39c-5.94,2.83,1.98,10.42,4.12,3.12-.61-1.38-2.66-3.29-4.12-3.12Z"/><path class="d" d="M121.88,216.25c-4.2-2.18-8.46-4.25-12.62-6.5-.14.43-.6,1.25-.5,1.62,5.26,3.05,11.18,5.28,16.75,7.88.59-2.36-1.79-2.05-3.62-3Z"/><path class="c" d="M115.63,216.25c-3.93,4.95-5.8,4.78-1.5,7.5,3.1-3.73,7.37-6.71,1.5-7.5Z"/><path class="f" d="M34.38,180.5c-.54.15-7.97,8.55-2.25,8,1.23-1.11,7.85-9.55,2.25-8Z"/><path class="f" d="M11.63,198.5l-6.38,4.38c.58,5.86,11.8-2.97,6.38-4.38Z"/><path class="f" d="M173.13,143.25c-2.14,1.71-7.92,6.69-2.75,7.5,1.67-2.08,8.05-6.75,2.75-7.5Z"/><path class="d" d="M190,42.38c1.28.94,11.43,6.66,12.12,6.62.6-.03,2.91-3.53,3.38-4.25l-3.38,3.75c-2.33-1.07.71-.88-.75-2.25-.46-.43-7.37-2.63-10.88-6-.29.72-.68,1.08-.5,2.12Z"/><path class="d" d="M24.75,44.75l4.62,4.75c5.88-1.85-.4-5.04-2.12-7.5-.1.16-2.35,2.65-2.5,2.75Z"/><path class="f" d="M96.75,141.62l-1.88-1.38c-9.35,6.17-1.88,11.7,1.88,1.38Z"/><path class="d" d="M234.25,46.25c-.9,1.55-.26,3.04.5,4.5,2.93-1.75,7.78-3.71,3.88-6.5-1.23-.28-3.74.9-4.38,2Z"/><path class="c" d="M40.88,243.5c-3.87,3.51-3.52,3.72.5,7,4.36-3.41,3.93-3.45-.5-7Z"/><path class="d" d="M93.63,114.5c3.02-1-2.57-7.54-4.25-7.25-3.75.65,2.17,7.94,4.25,7.25Z"/><path class="f" d="M197.88,114.5c-2.04,1.48-6.75,3.25-3.5,6,2.81,1.38,8.19-4.61,3.5-6Z"/><path class="d" d="M170.13,41.5c5.41-.39,5.98-6.93,2.25-6.25-1.15.21-5.99,5.29-2.25,6.25Z"/><path class="d" d="M161.88,20c6.08-.76,1.38-4.36-1.25-6.5-4.95,2.01-.95,4.05,1.25,6.5Z"/><path class="f" d="M10.38,140.5c2.51-.65,2.13-5.8-2-5.75-3.96,1.65-1.6,6.68,2,5.75Z"/><path class="f" d="M57.63,36c-1.44,1.17-6.69,5.81-3.75,7.25,1.69.83,8.8-7.16,3.75-7.25Z"/><path class="f" d="M24.75,44.75c.15-.1,2.4-2.59,2.5-2.75,1.52-2.39.52-5.74-3.5-1.62-4.49,4.6-.96,5.68,1,4.38Z"/><path class="f" d="M245.88,211.25c-2.62.95-5.51,4.69-2,6.5,2.33.42,6.35-4.95,2-6.5Z"/><path class="d" d="M61.38,190.25c3.12-1.96-1.32-6.2-3.5-5.75-3.92,1.61.99,6.9,3.5,5.75Z"/><path class="d" d="M201,151.75c-1.22.02-2.14,3.17-2.88,3.25-.59.07-9.22-4.87-10.38-5.75-.34.9-1.23,1.64-.38,2.25l10.25,5.25,3.38-5Z"/><path class="d" d="M217.88,158.75l-8.38-9.25c-.39.41-.62.85-1.25,1,2.8,3.4,5.71,6.69,8.88,9.75,1.13-.81,4.95-3.76,4.62-4.75-.92.71-2.77,3.47-3.88,3.25Z"/><path class="d" d="M165.38,94.5c-3.41,2-.41,4.28,1.75,6,5.71-.59.81-6.56-1.75-6Z"/><path class="d" d="M211,21.62l-1.62-.62c-9.62,5.16,3.63,9.8,1.62.62Z"/><path class="f" d="M17.13,17.5c-1.84,1.68-5.98,4.34-2.5,6.5,2.84.57,6.89-6.47,2.5-6.5Z"/><path class="f" d="M72.13,99.5c-.79.14-5.7,4.22-1.5,6,5.43-1.38,4.68-6.56,1.5-6Z"/><path class="d" d="M89.63,165.75c-3.5.8-2.06,6.32,2,5.25,3.32-1.81.81-5.89-2-5.25Z"/><path class="d" d="M167.13,226.5c-2.95,2.31,1.05,4.47,2.75,6.5,5.06-.91-.96-7.02-2.75-6.5Z"/><path class="d" d="M134.75,47c-.21.04-3.01,2.2-3.25,2.75,1.47,1.61,1.77,3.93,4.62,2.25,2.66-1.56.96-5.4-1.38-5Z"/><path class="f" d="M46.88,237c-2.86.58-2.82,5.99,1.25,5.25,3.2-.58,2.49-6.02-1.25-5.25Z"/><path class="f" d="M115.63,10c3.52-1.19-.48-6.07-2.5-5.75-3.68,1.96-.49,5.31,2.5,5.75Z"/><path class="f" d="M70.13,206c.33-.02,4.2-5.22,2.88-5.25.08.84-1.72,3.53-2.38,3.5-.52-.02-7.97-4.88-8.38-6-.13.21-1.06.28-.75,2.12,2.67,2.12,5.71,3.82,8.62,5.62Z"/><path class="d" d="M200.88,130.75c-2.21,2.24-5.99,5.04-2,6.5,1.31.12,6.45-5.95,2-6.5Z"/><path class="d" d="M241.5,126.75c-.04.09-.44.17-1,1.75,2.84,1.73,5.59,3.17,8.5,4.75.19-.53.53-1.59.75-2l-8.25-4.5Z"/><path class="d" d="M155.5,170c8.57-5.82-.24-10.53-1.75-.25.3-.05.46-.6,1.75.25Z"/><path class="d" d="M245.5,235c1.55-4.44-5.37-7.14-5.75-5.38l4.75,6.38c.59-.46.65,0,1-1Z"/><path class="f" d="M134.75,47c-.34-6.06-3.25-2.06-5.75.38,0,.21,2.19,2.03,2.5,2.38.24-.55,3.04-2.71,3.25-2.75Z"/><path class="d" d="M235.88,73c-.34.09-.55.82-.88,1,.21.9-.31,4.28,3.88,4,2.33-1.78-.54-5.65-3-5Z"/><path class="c" d="M114.5,200.12c1.32,8.16,9.5,3.31,1.38-1.12l-1.38,1.12Z"/><path class="d" d="M94.38,44.25l-1.62,1.12c-.55,6.77,10.08,1.15,1.62-1.12Z"/><path class="f" d="M84.38,66.25l-1.38,1.38c.59,7.54,9.02-.7,1.38-1.38Z"/><path class="d" d="M249.25,202.12l-1.38-.62c-7.64,5.61.91,8.2,1.38.62Z"/><path class="d" d="M12.63,205.75c-2.6.42-3.41,4.37,2.5,3.25,4.03-.76-.07-3.64-2.5-3.25Z"/><path class="f" d="M231,72.12c.27,4.86,2.79,2.57,4,1.88-.23-1.01-.18-5.39-4-1.88Z"/><path class="f" d="M140,43.12c-1.79-2.01-4.07-5.1-6.75-4.62.38.72,5.29,5.54,5.88,5.75,2.15.78,1.76-.14,2.88-1-3.23,1.55-1.74.17-2-.12Z"/><path class="d" d="M206.88,45l-1.12,1.38c.94,6.14,8.42-1.22,1.12-1.38Z"/><path class="d" d="M186.75,5c2.72-5.52-4.67-5.03-1.5-.25.08,0,1.24.2,1.5.25Z"/><path class="c" d="M41.25,173.12l-1.12-.88c-5.34,2.31-.27,6.99,1.12.88Z"/><path class="f" d="M18.5,110.5c.14-.16.45-2.15.5-2.25-4.52-3.61-3.12,5.41-.5,2.25Z"/><path class="d" d="M140.63,215.75l-1-.25c-5.05,3.68,4.22,4.72,1,.25Z"/><path class="d" d="M207,247.75c-2.97,4.94,4.6,1.91,1.5-1.25-1.08,1.52-1.45,1.17-1.5,1.25Z"/><path class="d" d="M229.25,32.25c-1.03-.83-1.19-.7-1.25-.75-4.11,2.96-.56,5.62,1.25.75Z"/><path class="e" d="M212.63,112.5h-1c-3.17,3.85,4.6,3.63,1,0Z"/><path class="f" d="M77.75,35.5c-.08.05-1.66.5-1.75.5-.09,4.07,4.61,2.52,1.75-.5Z"/><path class="f" d="M249.63,246h-1.25c-3.18,3.22,3.72,3.75,1.25,0Z"/><path class="c" d="M35.5,101.12c1.61,3.85,4.48-.94.88-1.38l-.88,1.38Z"/><path class="c" d="M61.25,46.5c3.49-3.94-2.44-3.3-1.25-.75.38.81,1.21.69,1.25.75Z"/><path class="c" d="M185.25,224.12c.72-.78,5.86-10.38,5.75-11-.07-.36-2.15-2.55-2.75-1.5.03,2.22-6.36,11-6.25,12.12,1.12.61,2.22,1.5,3.25.38Z"/><path class="e" d="M0,27.66v2.34c.02-.78.01-1.56,0-2.34Z"/><path class="e" d="M0,236v4.75c.03-1.58-.02-3.17,0-4.75Z"/><path class="e" d="M.05,224.76c-.01-.1-.03-.18-.04-.26v4.14c.06-1.54.14-3.08.04-3.89Z"/><path class="e" d="M0,196.3v3.7c.09-1.02.05-2.35,0-3.7Z"/><path class="c" d="M2,81.64c.66-.3,1.27-.66,1.76-1.27-.21-.26-.42-.6-.62-.99-.27-.51-.53-1.1-.8-1.66-.07-.14-.14-.28-.21-.41-.21-.41-.44-.78-.69-1.09-.16-.2-.34-.37-.52-.5-.18-.13-.38-.21-.59-.23-.1-.01-.21-.01-.32,0v7c.64-.33,1.33-.56,1.99-.86Z"/><path class="f" d="M1.77,186.54c.2-.76.43-1.58.66-2.44.18-.65.36-1.31.55-1.97.25-.89.49-1.78.73-2.63.06-.21.12-.42.18-.63.17-.62.34-1.22.49-1.77.51-1.84.87-3.21.88-3.46.02-.32-.02-.61-.11-.88-.42-1.33-2.01-2.03-3.49-2.32-.3-.06-.59-.1-.87-.13-.28-.03-.54-.04-.79-.04v21.25c.02-.11.76-.7,1-1.88.14-.67.41-1.77.77-3.09Z"/><path class="c" d="M.65,17.99c.15-1.04.3-2.04.43-2.94.09-.6.17-1.16.24-1.65.18-1.23.27-2.08.18-2.27-.1-.2-.5-.35-.89-.46-.16-.04-.31-.08-.44-.12-.06-.02-.12-.03-.17-.05v13.75c.04-.97.13-2.01.24-3.08.11-1.06.26-2.15.4-3.19Z"/><path class="f" d="M0,232v4c1.11-1.21.9-2.63,0-4Z"/><path class="d" d="M2.27,147.32c.4-.92.54-1.69.23-2.41-.13-.29-.32-.57-.61-.86-.43-.42-1.04-.85-1.89-1.3v8.75c.61-1.16,1.2-2.14,1.67-2.99.23-.43.44-.82.6-1.19Z"/><path class="c" d="M1.91,130.57c-.22-.43-.67-.73-1.22-1.09-.22-.14-.45-.3-.69-.48v6.25c1.93-2.71,2.3-3.91,1.91-4.68Z"/><path class="d" d="M6.25,82.75c-1.18-.03-4.8,5.39-6.25,7.5v3.31c1.9-3.04,3.89-6.02,6-8.94l.25-1.88Z"/><path class="e" d="M174.71.07c.53,0,1.1,0,1.68-.01.59,0,1.19-.01,1.81-.02.86-.01,1.74-.02,2.63-.04h-10.33c.82.06,2.33.07,4.2.07Z"/><path class="e" d="M151.25,0h-2.44c.85.04,1.69.06,2.44,0Z"/><path class="c" d="M27.63.5c.19,0,0-.5.38-.5h-1c.29,0,.52.5.62.5Z"/><path class="c" d="M74.61.6c.48.84,1.28,2.24,1.8,3.04.12.18.22.33.3.43.08.11.14.17.17.17,1.67-1.18,2.79-1.76,3.48-2.2.39-.25.63-.46.75-.72.06-.13.09-.26.09-.42,0-.08,0-.17-.02-.26-.03-.18-.09-.4-.17-.65h-6.75s.05.08.09.14c.07.12.16.27.27.46Z"/><path class="f" d="M145.5,0h-12.5c.52,5.84,7.23.62,12.5,0Z"/><path class="f" d="M235.59,2.9c-.01.11-.02.21-.01.31,0,.2.06.39.15.57.1.18.24.35.44.52.1.08.22.16.35.24.39.24.92.47,1.62.71.51.1.99-.1,1.42-.47.22-.19.43-.42.63-.67.2-.26.39-.55.57-.85.27-.45.52-.93.75-1.39.15-.31.3-.6.44-.87.21-.41.39-.76.56-1h-5.75c-.24.53-.47,1-.66,1.42-.26.57-.45,1.05-.51,1.48Z"/><path class="f" d="M122,0h-3.75c3.69,2.08,3.26.92,3.75,0Z"/><path class="c" d="M167.24.62c.22.19.43.35.64.47.21.12.41.19.63.19.15,0,.3-.02.47-.08.41-.15.9-.52,1.53-1.2h-4c.18.15.35.29.51.43.08.07.15.13.23.2Z"/></svg>