<?xml version="1.0" encoding="UTF-8"?><svg id="a" xmlns="http://www.w3.org/2000/svg" viewBox="0 0 256 256"><defs><style>.b{fill:none;}.b,.c,.d,.e{stroke-width:0px;}.c{fill:#88cbeb;}.d{fill:#ffabbb;}.e{fill:#fff;}</style></defs><path class="b" d="M1.1,43.96c-.16-.18-.33-.36-.52-.52.18.16.36.34.52.52Z"/><path class="b" d="M.58,17.37c.4.06.81.06,1.24.02-.42.04-.84.03-1.24-.02Z"/><path class="b" d="M6.23,14.89c-.23.36-.52.69-.85.98.33-.29.61-.62.85-.98Z"/><path class="b" d="M1.79,45.58c.07-.3-.05-.68-.28-1.06.23.38.34.75.28,1.06Z"/><path class="b" d="M7.5,226.56c.34.63.52,1.28.49,1.99.03-.71-.15-1.36-.49-1.99Z"/><path class="b" d="M21.81.01c-.21.01-.41.03-.6.03.18,0,.39-.01.6-.03Z"/><path class="b" d="M22.04,0h0c-.08,0-.15,0-.23.01.07,0,.15,0,.23-.01Z"/><path class="b" d="M14.86.21s-.1-.08-.17-.11c.07.03.12.07.17.11Z"/><path class="b" d="M15.06.37c.14.08.35.1.84-.1-.49.2-.7.18-.84.1Z"/><path class="b" d="M14.99.33s-.09-.07-.13-.11c.05.04.09.08.13.11Z"/><path class="b" d="M.09,107.36c0,.85-.01,1.76-.03,2.7.02-.94.03-1.84.03-2.7Z"/><path class="b" d="M0,112.67H0c.02-.88.04-1.76.06-2.61-.02.85-.04,1.73-.06,2.61Z"/><path class="b" d="M0,61c.02,2.83-.01,5.67,0,8.5-.01-2.83.02-5.67,0-8.5Z"/><path class="b" d="M0,104c.04.62.07,1.34.08,2.13-.01-.79-.04-1.51-.08-2.13Z"/><path class="b" d="M0,220c.67.54,1.33,1.04,1.96,1.51-.63-.47-1.29-.97-1.96-1.51Z"/><path class="b" d="M.3,92.48c.23.17.52.39.85.63-.33-.24-.62-.45-.85-.63Z"/><path class="b" d="M1.68,93.49c.37.27.76.55,1.17.85-.41-.3-.8-.58-1.17-.85Z"/><path class="b" d="M5.29,96.15c.57.44,1.08.85,1.47,1.19-.39-.34-.9-.75-1.47-1.19Z"/><path class="b" d="M6.76,13.71c-.11.42-.29.81-.53,1.17.23-.36.41-.75.53-1.17Z"/><path class="b" d="M210.23,1.98c-.41-.05-.83-.2-1.19-.41.36.22.78.36,1.19.41Z"/><path class="b" d="M256,112.67h0c-.01.57-.03,1.14-.04,1.7.01-.57.03-1.13.04-1.7Z"/><path class="b" d="M229.44,1.8c-.84-.28-1.58-.73-2.09-1.33.51.6,1.25,1.05,2.09,1.33Z"/><path class="b" d="M212.25.55c-.04.33-.14.6-.29.81.15-.21.25-.48.29-.81Z"/><path class="b" d="M229.44,1.8c1.68.56,3.77.46,5.23-.45-1.47.9-3.55,1.01-5.23.45Z"/><path class="b" d="M255.86,247.67c0-.81.02-1.68.03-2.6-.02.91-.03,1.79-.03,2.6Z"/><path class="b" d="M255.89,245.07c.02-.91.04-1.87.07-2.84-.03.97-.05,1.92-.07,2.84Z"/><path class="b" d="M255.5,157.62c0-.06.28-.39.42-.97-.14.58-.42.9-.42.97Z"/><path class="b" d="M255.92,115.8c-.05,1.88-.08,3.65-.06,5.1-.02-1.44.02-3.22.06-5.1Z"/><path class="b" d="M210.23,1.98c.55.07,1.09-.03,1.48-.34-.39.31-.93.41-1.48.34Z"/><path class="b" d="M59.25,2.59c-.41.19-.79.32-1.16.39.37-.07.75-.2,1.16-.39Z"/><path class="b" d="M61.21.83c-.18.24-.39.48-.59.71.2-.22.41-.47.59-.71Z"/><path class="b" d="M55.59,2.61c.77.37,1.58.55,2.5.37-.92.17-1.73,0-2.5-.37Z"/><path class="b" d="M55.59,2.61c-.77-.37-1.49-.93-2.22-1.53.74.6,1.46,1.16,2.22,1.53Z"/><path class="b" d="M80.47,1.01c.32.44.92.66,1.54.67-.62,0-1.22-.24-1.54-.67Z"/><path class="b" d="M143.88.75c-.09,0-.22-.03-.39-.1.16.07.3.11.39.1Z"/><path class="b" d="M134.88,0h0c-.67,0-1.33.02-2,.02.67,0,1.34-.01,2.01-.02Z"/><path class="b" d="M143.49.65c-.16-.07-.35-.16-.52-.26.18.1.36.19.52.26Z"/><path class="b" d="M145.06,255.96s.11-.11.2-.19c-.09.08-.15.15-.2.19Z"/><path class="b" d="M121.48,242c.45.05.86.18,1.25.38-.39-.2-.8-.33-1.25-.38Z"/><path class="b" d="M124.48,243.97c.21.28.42.59.62.92-.2-.33-.41-.64-.62-.92Z"/><path class="b" d="M125.39,245.41c.19.35.39.73.57,1.12-.19-.39-.38-.77-.57-1.12Z"/><path class="b" d="M126.79,248.43c.18.45.37.91.55,1.39-.18-.48-.37-.94-.55-1.39Z"/><path class="b" d="M22.44,255.98c.2,0,.4,0,.56.02-.17-.02-.36-.03-.56-.02Z"/><path class="b" d="M118.96,242.47c.38-.16.74-.28,1.08-.37-.34.08-.7.2-1.08.37Z"/><path class="b" d="M145.4,255.63c.1-.09.22-.2.36-.29-.13.1-.25.2-.36.29Z"/><path class="b" d="M124.15,243.57c-.22-.25-.45-.48-.69-.68.24.2.47.43.69.68Z"/><path class="b" d="M146.99,254.93c.28.02.58.14.89.38-.31-.25-.61-.36-.89-.38Z"/><path class="b" d="M146.2,255.08c.24-.11.51-.17.79-.15-.28-.02-.55.04-.79.15Z"/><path class="b" d="M134.88,256h0c2.46-.03,4.92-.07,7.37,0-2.45-.07-4.91-.03-7.37,0Z"/><path class="b" d="M22.04,256h0c.14,0,.27-.02.4-.02-.13,0-.27.01-.4.02Z"/><path class="b" d="M7.99,228.55c-.02.47-.13.97-.34,1.5.21-.53.32-1.03.34-1.5Z"/><path class="b" d="M.09,236.49c.01-.91.01-1.78,0-2.58.01.8.01,1.67,0,2.58Z"/><path class="b" d="M.76,253.79c.17.37.35.74.53,1.11-.17-.37-.35-.74-.53-1.11Z"/><path class="b" d="M4.78,233.06c-.3.08-.61.11-.92.1.31,0,.62-.02.92-.1Z"/><path class="b" d="M16.82,255.99c-.14-.01-.26-.02-.31,0,.05-.03.17-.02.31,0Z"/><path class="b" d="M7.5,226.56c-.69-1.25-2.04-2.4-3.73-3.69,1.7,1.3,3.05,2.44,3.73,3.69Z"/><path class="e" d="M144.5,256h.25c-.1-.01-.2-.02-.25,0Z"/><path class="e" d="M134.88,256h7.37c-2.45-.07-4.91-.03-7.37,0Z"/><path class="e" d="M6.88,256h7.37c-2.45-.11-4.91-.04-7.37,0Z"/><path class="e" d="M22.44,255.98c-.13,0-.27.01-.4.02h.97c-.17-.02-.36-.03-.56-.02Z"/><path class="e" d="M16.5,256h.44s-.09,0-.13,0c-.14-.01-.26-.02-.31,0Z"/><path class="d" d="M126.79,248.43c-.28-.67-.55-1.31-.83-1.9-.19-.39-.38-.77-.57-1.12-.1-.18-.2-.35-.3-.51-.2-.33-.41-.64-.62-.92-.11-.14-.21-.27-.32-.4-.22-.25-.45-.48-.69-.68-.24-.2-.48-.37-.74-.5-.39-.2-.8-.33-1.25-.38-.45-.05-.92-.02-1.44.1-.34.08-.7.2-1.08.37-.19.08-.38.17-.58.28-1.53.8-2.13,2.02-2.2,3.45-.04.86.12,1.79.38,2.73.27.95.64,1.92,1.05,2.86.54,1.25,1.13,2.45,1.58,3.47.11.26.21.5.31.73h10.25c-.9-2.16-1.67-4.28-2.41-6.18-.18-.48-.37-.94-.55-1.39Z"/><path class="d" d="M17.25,256h3.5c-.72-.2-2.07-2.28-3.5,0Z"/><path class="d" d="M147.88,255.31c-.31-.25-.61-.36-.89-.38s-.55.04-.79.15c-.16.07-.31.16-.44.26-.13.1-.25.2-.36.29-.05.05-.1.09-.14.13-.09.08-.15.15-.2.19-.02.02-.04.03-.05.04h3.5c-.21-.3-.42-.52-.62-.69Z"/><path class="e" d="M255.89,245.07c-.02.91-.03,1.79-.03,2.6,0,1.62.03,2.97.15,3.83v-10.98c-.01.57-.03,1.15-.05,1.72-.03.97-.05,1.92-.07,2.84Z"/><path class="e" d="M255.92,115.8c-.05,1.88-.08,3.65-.06,5.1.01,1.08.06,1.98.14,2.6v-10.83c-.01.57-.03,1.14-.04,1.7-.01.48-.03.96-.04,1.43Z"/><path class="d" d="M256,32.25v-4.5c0,.99-.5,1.3-.5,1.38,0,2.42.5,2.8.5,3.12Z"/><path class="d" d="M255.5,157.62c0,1.31.5,1.91.5,2.38v-4c0,.25-.03.47-.08.66-.14.58-.42.9-.42.97Z"/><path class="d" d="M255.5,186.38c0,2.12.49,2.17.5,2.88v-4.5c0,1.65-.5,1.54-.5,1.62Z"/><path class="d" d="M255.5,58.62c0,1.96.5,1.89.5,2.38v-4.25c0,1.98-.5,1.78-.5,1.88Z"/><path class="e" d="M246.38,242.75c6.74-3.41,7.22,4.8,9.62,8.75-.12-.87-.15-2.22-.15-3.83,0-.81.02-1.68.03-2.6s.04-1.87.07-2.84c.02-.57.03-1.14.05-1.72v-8.77c-1.5-.88-19-13.87-19.88-14.75-4.09-4.11-.08-9.51,4.5-8.5.94.21,13.57,10.06,15.38,11.5v-11c-1.31-1.31-10.68-11.37-11-12.12-1.23-2.94,2.26-5.73,4.62-5.38,1.01.15,5.3,4.9,6.38,6v-8.25c0-.7-.5-.75-.5-2.88,0-.09.49.03.5-1.62v-10.5c-2.44-.67-3.22-5.41,0-3.25v-11c0-.47-.5-1.06-.5-2.38,0-.06.28-.39.42-.97.05-.19.08-.41.08-.66v-10.75c-.19-.06-1.32-.7-1.38-.75-1-.91-10.42-23.54-10.62-24.88-.79-5.18,6.2-7.36,8.75-3.75.78,1.11,1.98,5.96,3.25,7.62-.09-.62-.13-1.52-.14-2.6-.02-1.44.02-3.22.06-5.1.01-.47.02-.95.04-1.43.02-.57.03-1.14.04-1.71v-8.67c-1.06-.62-18.73-13.91-19.62-14.75-4.52-4.29-.36-9.72,4.25-8.75.95.2,13.49,10.25,15.38,11.75v-11.25c-1.31-1.31-10.68-11.37-11-12.12-1.1-2.63,1.87-5.82,4.62-5.38,1.02.17,5.29,4.89,6.38,6v-8.5c0-.49-.5-.41-.5-2.38,0-.1.49.1.5-1.88v-10.5c-2.23-.89-3.39-5.44,0-3.25v-10.75c0-.33-.5-.7-.5-3.12,0-.07.49-.39.5-1.38v-10.5c-.86-.25-2.05-1.34-2.5-2.12-.4-.71-5.16-12.98-6-15.12h-11.5c-.32.57-.79,1.02-1.34,1.36-1.47.9-3.55,1.01-5.23.45-.84-.28-1.58-.73-2.09-1.33-.13-.15-.24-.31-.34-.48h-11.25c-1.2,3.25-2.7,2.22-2.5,0h-1c.02.2.02.38,0,.55-.04.33-.14.6-.29.81-.07.11-.16.2-.26.28-.39.31-.93.41-1.48.34-.41-.05-.83-.2-1.19-.41-.6-.36-1.04-.91-1.04-1.57h-18.25c-2.29,5.53-6.84,2.16-9.75,0h-19.75c-.02,1.38-4.58,8.03-9.25,0h-2.5c2.24,3.18-3.69,4.62-3.5,0-.06.02-.15.01-.25,0h-.25c-.33.14-.38.73-.62.75-.09,0-.22-.03-.39-.1-.16-.07-.35-.16-.52-.26-.35-.19-.67-.39-.72-.39h-7.37c-.67,0-1.34.02-2.01.02-1.04,0-2.08,0-3.12-.02,1,2.39,5.56,12.23,5.25,13.88-.5,2.68-6.58,5.16-9,2-.52-.68-5.7-13.83-6.5-15.88h-11.75c-2,3.31-6.92,2.54-8.5,0h-11.5c-1.26,3.48-2.67,1.72-2.5,0h-1.25c.02,1.15-1.01,1.69-1.99,1.68-.62,0-1.22-.24-1.54-.67-.19-.26-.28-.6-.22-1.01h-18.5c-.05.16-.27.48-.55.83-.18.24-.39.48-.59.71-.3.34-.58.62-.74.71-.22.13-.42.24-.63.34-.41.19-.79.32-1.16.39-.92.17-1.73,0-2.5-.37-.77-.37-1.49-.93-2.22-1.53-.44-.36-.89-.73-1.36-1.08h-19.75c-2.84,5.55-6.22,5.19-9.25,0h-.97c-.08,0-.15,0-.23.01-.21.01-.41.03-.6.03-.18,0-.34,0-.46-.04,1.73,4.74-4.98,3.22-3.5,0-.1.01-.21,0-.31,0h-.44c-.24.12-.43.21-.6.27-.49.2-.7.18-.84.1-.02-.01-.05-.03-.07-.05-.04-.03-.09-.07-.13-.11-.05-.04-.1-.08-.17-.11-.1-.05-.24-.09-.44-.1h-7.37c-1.71.03-3.42.05-5.13,0,.31.85.9,2.25,1.57,3.78.54,1.23,1.12,2.54,1.66,3.74.27.6.52,1.17.75,1.68.57,1.29.98,2.23,1.03,2.42.19.75.17,1.45,0,2.09-.11.42-.29.81-.53,1.17-.23.36-.52.69-.85.98-.98.87-2.3,1.41-3.57,1.53-.42.04-.84.03-1.24-.02-.2-.03-.39-.07-.58-.12C0,20.75.02,24.25,0,27.75c1.47-1.18,2.2-1.79,4.12-1.25.64.18,9.95,6.87,10.38,7.5.82.14,13.12,9.13,13.5,9.88,1.26,2.48-1.32,5.82-4.12,5.38-1.45-.23-20.97-14.91-23.88-17,.02,3.58-.01,7.17,0,10.75.19.12.39.27.57.43s.36.34.52.52c.16.18.3.37.41.56.23.38.34.75.28,1.06-.1.46-.61.75-1.78.67-.01,3.5.02,7,0,10.5,2-2.38,3.49-11.6,8-5.62.14,1.05-3.19,8.86-3.5,9.25-1.19,1.52-2.96,1.44-4.5.62.02,2.83-.01,5.67,0,8.5,1.16,1.18,8.98,9.49,9.25,10.12,1.2,2.83-1.82,5.81-4.62,5.38-1.12-.17-3.63-3-4.62-4v11.25c.08.07.18.14.3.23.23.17.52.39.85.63.16.12.34.25.52.38.37.27.76.55,1.17.85.82.59,1.68,1.23,2.44,1.81.57.44,1.08.85,1.47,1.19.39.34.66.62.74.78,1.69,3.36-1.51,9.34-7.5,5.88.04.62.07,1.34.08,2.13,0,.39,0,.81,0,1.23,0,.85-.01,1.76-.03,2.7-.02.85-.04,1.73-.06,2.61v10.83c.33,2.34,6.84,15.66,7,16.88.44,3.39-4.05,5.77-7,4.88v10.75c1.35-1.18,2.17-2.09,4.12-1.5.82.25,12.8,8.92,13.88,10,.85-.14,1.6.25,1.5,1.25,1.54.85,8.31,5.38,8.75,6.62.96,2.7-1.86,5.43-4.62,4.88-1.43-.29-20.61-15.25-23.62-17.25v11c1.55,1.04,3.06,3.44,0,3.25-.01,3.5.02,7,0,10.5,2.38-2.32,1.93-8.84,6.88-7.25,3.24,2.46-1.83,7.47-2.38,10.88-1.65,1.67-2.44,1.37-4.5.88.03,2.75-.02,5.5,0,8.25,1.16,1.18,8.98,9.49,9.25,10.12,1.2,2.83-1.82,5.81-4.62,5.38-1.12-.17-3.63-3-4.62-4v11c.67.54,1.33,1.04,1.96,1.51s1.23.92,1.8,1.36c1.7,1.3,3.05,2.44,3.73,3.69.34.63.52,1.28.49,1.99-.02.47-.13.97-.34,1.5-.11.27-.24.54-.4.83-.72,1.3-1.57,1.95-2.47,2.19-.3.08-.61.11-.92.1-.63-.01-1.27-.18-1.92-.44-.65-.26-1.3-.6-1.93-.98.04.64.07,1.37.08,2.17s.01,1.67,0,2.58c-.01,1.28-.05,2.65-.08,4.02v10.98c.11.78.41,1.54.76,2.29.17.37.35.74.53,1.11.17.37.33.73.47,1.1h5.13c2.46-.04,4.92-.11,7.37,0-.9-6.64,4.02-7.12,2.25,0,.05-.03.17-.02.31,0,.04,0,.08,0,.13,0h.31c1.43-2.28,2.78-.2,3.5,0h1.28c.14,0,.27-.02.4-.02.2,0,.4,0,.56.02-.5-.86-8.25-17.13-8.25-18.12,0-3.03,5.36-5.86,8-2.25.66.91,8.01,17.14,9.5,20.38h19.75c-2.02-1.5-16.98-14.09-17.5-15.12-1.92-3.83,1.91-8.1,5.88-7.38,1.42.26,21.3,17.47,21.62,18.88.16.71,0,2.84-.25,3.62h18.5c0-2.69,3.74-2.95,3.75,0h1.25c.06-.64,1.88-8.09,3.12-7.75,1.96-.15-.1,6.3-.62,7.75h11.5c-.55-.89-.87-2.34-.75-3.38,2.01-4.59,7.52-24.08,8.25-25.5,2.52-4.94,10.69-3.1,10,2.75-.16,1.37-7.99,22.09-9,26.12h11.75c-.09-.23-.19-.48-.31-.73-.45-1.02-1.04-2.22-1.58-3.47-.41-.94-.78-1.91-1.05-2.86-.27-.95-.42-1.88-.38-2.73.06-1.43.67-2.66,2.2-3.45.2-.1.39-.2.58-.28.38-.16.74-.28,1.08-.37.51-.12.99-.15,1.44-.1.45.05.86.18,1.25.38.26.14.51.3.74.5.24.2.47.43.69.68.11.13.22.26.32.4.21.28.42.59.62.92.1.17.2.34.3.51.19.35.39.73.57,1.12.28.59.56,1.23.83,1.9.18.45.37.91.55,1.39.74,1.91,1.51,4.02,2.41,6.18h5.13c2.46-.03,4.92-.07,7.37,0-1-6.36,3.78-7.54,2.25,0,.05-.02.15-.01.25,0h.25s.03-.02.05-.04c.05-.04.11-.11.2-.19.04-.04.09-.09.14-.13.1-.09.22-.2.36-.29.13-.1.28-.19.44-.26.24-.11.51-.17.79-.15s.58.14.89.38c.21.16.41.39.62.69h2.5c-.48-.82-7.85-16.19-8-17.12-.66-4.17,5.09-6.84,7.75-3.25.67.9,8,17.21,9.5,20.38h19.75c-2.01-1.49-16.99-14.09-17.5-15.12-1.94-3.98,1.98-8.2,6.12-7.38,2.67,2.31,20.2,16.68,20.88,17.88.85,1.52.91,3.03.25,4.62h18.25c.01-1.84,3.93-3.56,4.25,0h1c.08-.92,1.97-7.23,2.38-7.5,3.49-2.3.51,6.47.12,7.5h11.25c-.1-.18-.58-2.52-.5-3.38,2.21-5.18,7.3-23.52,8.5-26,2.47-5.11,10.21-3,9.75,2.75-.13,1.63-7.87,21.99-8.75,26.62h11.5c-1.5-3.83-6.21-10.68-1.12-13.25ZM8.13,21.75c-1.56-1.15.27-2.54.75-4,.76,1.84,1.25,2.97-.75,4ZM233,197.12l.88-.88c5.19.33-.32,6.39-.88.88ZM236.25,187.62c-.24-.35-2.23-5.47-2.75-6.75-.84-2.07-6.46-16.57-6.5-17.5-.08-1.97,2.55-4.33,4.38-4.62,2.59-.42,4.45.55,5.62,2.88,1.31,2.59,5.94,17.65,8.5,22.5.73,4.96-6.54,7.42-9.25,3.5ZM212.5,217.38c.03-.63,5.34-10.37,6.62-10.62,1.74-.42,4.42,2.15,4.38,3.62-.02.53-4.67,8.84-5,9.25-2.42,2.96-6.12.05-6-2.25ZM211,224.38l1.12-.62c3.12,1.27-1.38,3.61-1.12.62ZM214.38,209c-2.48.7-4.91-2.63-4.12-4.88.27-.78,10.34-10.1,11.88-11.62l4.38,3.88c-1.66,1.46-11.28,12.39-12.12,12.62ZM140,191.5c-1.94.86-4.3-.52-4.25-2.38.02-.64,4.57-11.13,5.62-11.38,1.03-.3,3.14.79,3.38,1.88.24,1.13-3.67,10.63-4,11.12,6.21-.02-.08,6.88-.75.75ZM48.5,194c-.36-2.21,1.06-2.38,1.25-2.88.11-.29.08-4.3.75-1.25.22,1.01-.98.4,1.75,3,.47,2.23-1.98,3.33-3.5,1.88-1.12,1.56-2.9,4.02-5.12,3.5-.75-.18-10.46-10.13-10.62-11.12,2.93-10.06,11.21,4.75,15.5,6.88ZM40,178.88l1.38-.88c5.99,2.2-2.37,6.69-1.38.88ZM15,110.88c-.39-2.5,1.73-5.05,4.38-5.12,1.32-.04,2.63.85,3.38,1.88.63.86,8.98,18.22,9.25,19.25.96,3.74-4.55,7.14-7.75,3.25-.68-.82-9.08-18.2-9.25-19.25ZM17,128.12l1.12-1.12c6.8,1.33-.34,7.58-1.12,1.12ZM30.75,95.38c-3.53,2.07-11.44,8.35-12.25.75.16-.71,7.89-5.04,8.38-5.12,2.63-.44,4.43,1.82,3.88,4.38ZM29.38,97h1c3.29,3.64-4.6,4.18-1,0ZM29,86.88c-.28.61-10.46,7.28-11.12,7.38-1.95.28-4.05-2.21-3.38-4.12.23-.66,11.18-7.29,11.88-7.38,2.17-.26,3.44,2.32,2.62,4.12ZM31.13,103.5h1.25c3,3.55-3.52,2.97-1.25,0ZM33.25,134.62c.58-1.27,4.25-3.23,5.5,2.12,2.54-.3,1.08-1.24,1.5-2.12.84-1.76,4.6-2.85,5.5.62.2.76,1.09,8.44,1,8.88-.41,1.97-3.25,1.92-4.75,1.88-.63-.02-1.37-.11-2-.25.3,5.24-4.4,4.23-5.25,2.62-.5-.94-1.92-12.82-1.5-13.75ZM38.13,105.5c1.09-.21,2.47.02,3.5.5,1.2.56,17.07,15.21,19.88,17.38,2.31,4.13-1.7,9.69-7.12,6.62-1.14-.64-19.3-15.95-19.88-17.12-1.61-3.29,1.28-6.91,3.62-7.38ZM35.88,94.5l1.38.62c.94,7.23-6.27,4.1-1.38-.62ZM61.38,89.75c1.86-.18,3.5,2.19,3.38,3.88-.24,1.32-13.53,8.82-14.38,8.88-.6.04-.56-.1-.88-.5-2.72,4.74-7.81-1.36-2-2.5.15-.81-.27-1.14-.25-1.25-3.59.88-4.02-4.11-.88-3.5,2.95,1.79.97,3,.88,3.5.8-.2,12.92-8.38,14.12-8.5ZM79.38,48.75c.36-.01,1.43.33,1.75.5,1.15.64,5.35,13.36,5.38,14.12.08,2.42-3.35,4.35-5.38,3.12-.96-.58-5.13-13.84-5.12-14.62,0-1.51,2.01-3.08,3.38-3.12ZM78,41.62l1.62-1.38c7.62,1.05-.21,8.08-1.62,1.38ZM108.75,33.12c.78,1.37,6.81,19.39,9,23.75-.42,4.37-6.89,6.49-9.5,2.75-.74-1.06-9.2-22.95-9.25-24.25-.09-2.19,2.59-4.37,4.62-4.62,2.19-.28,4,.42,5.12,2.38ZM104.5,25.38l1.38-1.38c4.83.21-.81,6.28-1.38,1.38ZM141.38,49.75h1.5c3.92,1.88.65,5.51-1.88,12.75,6.68,2.17-1.67,5.76-1,1.25-1.71.12-3.18-.01-4-1.62-.35-1.38,4.14-12.08,5.38-12.38ZM134.5,55.12c-1.23,3.11-2.8,9.65-7,5-.28-1.22,3.13-10.62,5.38-10.88,5.92.4,1.92,5.12,1.62,5.88ZM160,58.12c.94,1.07,15.27,22.35,15.5,23.75.7,4.21-5.26,8.7-9.25,4.5-1.01-1.07-16.01-23.05-16.25-24.5-.51-3.13,2.45-5.84,4.62-6.12,2.44-.32,3.85.64,5.38,2.38ZM156,49.62l.62-.62c3.15.8-.75,4.46-.62.62ZM206.63,49c5.07-.99,5.29,8.63,7.88,14.88-5.06,7.31-6.69.63-8.25-4.25-1.21-3.81-3.58-9.85.38-10.62ZM207.63,40.25c2.65-.46,4.73,2.54,1.75,4.25-3.04.5-4.85-3.71-1.75-4.25ZM225.13,146c1.1-.45,3.05,2.89,3.88,3.62-.16,4.07-5.16-3.1-3.88-3.62ZM223.5,157.38l1.12-.88c5.08-.18-1,4.93-1.12.88ZM222.75,107.12c-.5-.66,5.55-2.6,5.88-2.62,3.66-.32-1.75,2.02-5.88,2.62ZM209.75,159.62c-2.91,3.74-8,1.29-9.25-2.5,1.68-3.47,10.26-22.67,11-23.75.59-.86,2.36-2.27,3.38-2.38,2.94-.29,6.77,2.67,6.12,5.88-2.38,3.93-10.07,21.23-11.25,22.75ZM206,169.38l1.38-1.12c8.16.76-.23,8.41-1.38,1.12ZM170.13,146c-.71-.25-3.09-12.75.5-12.75,3.71-1.58,4.3,10.5,4.12,11.12-.31,1.12-3.46,2.04-4.62,1.62ZM170.5,151.38l1.38-1.12c6.04,1.07-1.04,6.94-1.38,1.12ZM145.38,150.5l1.88,1.12c-.31,5.08-6.99,1.49-1.88-1.12ZM143.88,123c1.71.36.56,3,.62,5.12-3.04,2.2-3.19-5.56-.62-5.12ZM149.5,143.5c5.27-1.46,2.62,5.89,0,1.25l-.62,1c-6.62,1.16-4.11-7.6.62-2.25ZM145,128.12l1.12-1.12c6.7,1.03-.12,7.74-1.12,1.12ZM152.25,130.12c-.68-.82-9.08-18.2-9.25-19.25-.5-3.11,1.73-4.5,4.38-5.12,4.36-.46,9.08,16.04,12.62,21.12,1.02,3.45-4.45,7.25-7.75,3.25ZM158.75,95.38c-3.26,2.03-11.6,8.31-12.25.75.16-.64,7.89-5.05,8.38-5.12,2.39-.37,4.9,2.15,3.88,4.38ZM159,97.62c1.3,4.42-5.66,1.24-.88-.38l.88.38ZM157.75,104.12l1.12-.88c5.36.79-.39,6.37-1.12.88ZM161,135.12c.4-1.6,4.22-3.69,5.5.88.86,1.27,1.38.58,1.62.75.37.26,1.18,8.43,1.12,8.88-.06.48-.89.69-1,1.12-.07,3.26-4.4,3.69-5.5,1.62-.31-.59-1.92-12.57-1.75-13.25ZM162.5,112.88c-1.38-2.83.74-6.81,3.62-7.38,1.5-.29,2.52.07,3.75.75,1.14.63,18.99,15.99,19.62,17.12,2.2,3.93-1.27,8.2-5.12,7.62-1.41-.21-21.25-16.85-21.88-18.12ZM163.88,94l1.38.62c1.21,8.33-6.9,4.8-1.38-.62ZM210.5,120.62l1.62-1.12c5.89,2.32-1.69,6.64-1.62,1.12ZM209.88,126h1c3.79,4.76-5.78,3.88-1,0ZM216.13,120.25l1.38.62c-1.1,3.88-1.66,11.58-4.5,8.25.44-1.53,1.7-8.68,3.12-8.88ZM197.13,122.5c-4.01,1.3-6.53-3.32-3.5-6.25.92-.89,18.76-11.86,21.75-13.75,3.26-.27,5.52,3.56,3.25,6-3.46,1.45-20.28,13.6-21.5,14ZM207.38,83.75l1.75.25c2.47,2.83-3.34,1.74-1.75-.25ZM206.5,71.62l.88-.88c5.82.48-.61,5.82-.88.88ZM206.38,98.5c-.86.82-18.83,12.54-20,12.75-3.77.68-7.63-4.19-4.25-7.75.89-.93,18.83-12.58,20-12.75,4.01-.59,7.94,4.24,4.25,7.75ZM178.38,140.75c.85-.76,18.61-11.38,19.75-11.5,3.63-.38,6.76,4.44,4,7.25-.8.82-18.62,11.32-19.75,11.5-3.82.6-7.52-4.09-4-7.25ZM192.75,149.62l.88-1.12c8.75,1.74,4.58,9.07-.88,1.12ZM188.5,152.88l1.88-1.38c5.72,1.88-1.94,7.05-1.88,1.38ZM177,159.38c.26-1.91,2.52-3.87,4.38-4.12,1.94-.27,3.88.34,5.12,1.88.89,4.14,6.25,26.8,6.25,28.25,0,5.18-7.76,6.35-9.75,2.5-.67-1.29-6.2-27.06-6-28.5ZM193.63,164.5c3.77-.53,3.91,8.45,5.88,11.88-3.3,4.37-4.25-.65-5.25-3.5-1.02-2.89-2.77-7.83-.62-8.38ZM198.38,163.5h1.25c4.62,3.89-5.27,4.5-1.25,0ZM218.63,162.25l2,.5c3.36,5.14-6.98,3.53-2-.5ZM218.13,156.75h1.25c3.74,4.43-5.35,4.6-1.25,0ZM215.63,171.25c2.46-.24,6.32,11.92,6.12,12.62-1.04,1.26-2.53,2.11-4.12,1.38-.8-.37-4.85-10.51-4.88-11.12-.05-1.56,1.47-2.56,2.88-2.88ZM220.88,107.25c1.51-.23,1.99.1,1.88,1.62-2.48,3.12-4.84-1.17-1.88-1.62ZM224.5,95c1.77.15,3.28.2,3,2.38-1.68,3.3-10.32,2.67-6.5-1.88-3.15.04,5.57-7.88,6.12-8,3.19-.7,5.71,2.9-2.62,7.5ZM223.25,83.12c-.09.49-4.66,8.38-5,8.75-2.38,2.64-6.07-.28-5.75-2.75.08-.64,5.46-10.47,7.12-10.38,2,.4,4.07,2.08,3.62,4.38ZM212.88,95.25c2.78,4.03-5.94,3.54-1.75,0h1.75ZM202.25,82.62l.88-1.12c7.03.47.7,5.64-.88,1.12ZM198.25,77.62l.62-.88c7.59,2.26,1.75,7.98-.62.88ZM200.75,71.88c-.35.74-12.35,9.37-13.12,9.62-2.24.75-5.11-2.39-4.12-4.62.33-.75,12.32-9.69,13.12-9.88,2.62-.6,5.1,2.83,4.12,4.88ZM197.25,36.38l1.12-1.12c5.82.91-.94,6.26-1.12,1.12ZM192.75,21.88l.62-1.38c8.51,1.07,5.36,9.07-.62,1.38ZM193.38,36.5c3.56-1.25,4.79,9.22,5.88,12.38-4.31,4.69-4.67-5.91-7-10.5l1.12-1.88ZM188.75,24.62l1.62-1.12c6.09,2.17-2.74,7.09-1.62,1.12ZM192.75,58.38c-1.1,3.95-7.89,5.17-9.75,1.25-.63-1.33-6.02-27.31-5.75-28.75.34-1.82,3.15-3.53,4.88-3.62,2.05-.11,4.03.92,4.88,2.88.6,1.39,5.03,23.95,5.75,28.25ZM184.13,86c3.76-.03-2.99,3.79-4,3.5-2.53-1.57,3.26-3.49,4-3.5ZM190.13,89.75c6.69,3.51-1.21,7.34-8.25,11-1.31.68-4.08,2.19-4.38,1.5-3.11,4.25-7.44-1.28-2.25-2.75-.07-2.18,13.97-9.85,14.88-9.75ZM172.25,96.62l.88-1.88c5.37.03,2.12,6.69-.88,1.88ZM151.38,76.5l2.12,1.38c.31,5.73-7.29,1.39-2.12-1.38ZM154.38,82.75c9.22,3.23-5.64,8.67-8.5,11.5-10.26-3.38,5.4-8.78,8.5-11.5ZM145.88,74.25l.88.12c.69,9.09-6.17,6.84-.88-.12ZM137.5,91.62l1.38-1.12c7.98,1.21-1.26,8.93-1.38,1.12ZM135.75,178.38c.91,1.74-3.3,11.23-5.38,11.38-6.25.84.26-12.68,3.25-12.75l2.12,1.38ZM136.63,167.5l.88.62c.59,3.89-5.19,1.14-.88-.62ZM125.75,171.12l.62-.62c7.13,2.46.84,6.84-.62.62ZM125.75,143.38c-.72-1.06-7.78-20.17-9.75-23.75-.7-2.7,2.01-5.46,4.62-5.62,1.42-.09,3.28.67,4.12,1.88.82,1.16,8.17,20.52,10.25,24.5.45,3.76-6.31,7.36-9.25,3ZM106.63,148.75c-7.94-.27,1.13-9.93,3.5-12.5,1.48-.17,2.71.61,3.38,1.88.28,1.38-5.57,10.45-6.88,10.62ZM107.13,152l.88.12c1.74,2.58-8.8,5.55-.88-.12ZM81.75,159.62c-3.03,3.74-8.25,1.3-9.25-2.75,2.08-3.74,10.28-22.42,11-23.5.58-.87,2.37-2.27,3.38-2.38,2.92-.32,6.95,2.15,5.88,6.38-.31,1.2-10.22,21.29-11,22.25ZM81.88,172.25c-3.07,1.48-5.64-3.45-2.25-4,2.45-.4,4.6,2.24,2.25,4ZM65.38,116.5c.87-.95,20.48-13.54,21.75-13.75,3.86-.64,5.39,3.49,3.75,5.5-.85,1.04-19.75,12.42-22.5,14.5-3.59.23-5.48-3.52-3-6.25ZM58.38,111.25c-3.7.63-6.8-3.72-5.12-6.88.64-1.21,19.41-13.42,20.88-13.62,3.98-.56,8.02,4.16,4.25,7.75-.86.82-18.83,12.55-20,12.75ZM83.38,119.75h1.25c5.57,4.54-5.24,4.86-1.25,0ZM80.25,126.88l1.62-1.38c6.27.62-1.08,8-1.62,1.38ZM87.88,120.25c3.26-1.08-.24,8.43-1.25,9.75-3.25.43.52-8.69,1.25-9.75ZM70.13,129.25c3.22-.34,6.93,4.27,4,7.25-.8.82-18.63,11.3-19.75,11.5-3.43.62-6.62-3.27-5.12-6.12.57-1.08,19.66-12.5,20.88-12.62ZM64.75,149.88l.88-1.38c8.43,1.08,3.62,8.54-.88,1.38ZM60.75,152.62l1.62-1.12c6.14,1.91-2.67,7.24-1.62,1.12ZM53.88,155.25c2.09-.18,4.29.84,5.12,2.88.63,1.52,4.94,23.81,5.75,28.25-1.12,3.92-7.82,5.21-9.75,1.25-.61-1.25-5.98-25.85-6-27.25-.04-2.57,2.39-4.91,4.88-5.12ZM64.25,166.38l1.12-1.88c4.02-.86,3.83,7.58,6.12,11.88-4.52,6.34-5.35-7.23-7.25-10ZM69.25,164.38l1.38-1.12c5.34,1.38-1.07,6.36-1.38,1.12ZM90.88,162.25l1.75.5c3.64,5.06-7.2,3.47-1.75-.5ZM90.13,156.75h1.25c3.55,4.32-4.81,4.57-1.25,0ZM86.63,171.5h1.75c1.62.39,5.62,11.49,5.38,12.38-.36,1.29-2.88,1.93-4.12,1.38-.92-.41-4.51-9.57-4.62-10.12-.38-1.88.08-2.57,1.62-3.62ZM94,110c-2.37.18-3.29-1.97-1.88-2.5,3.39-.4,2.38.99,2.88,2,.05.1,1.58,1.09.62,1.75-1.8-.37-5.25.2-1.62-1.25ZM96.38,156h1c4.3,4.81-6.65,4.52-1,0ZM96.25,104.88l1.88-.88c4.5,1.84-3.66,6.33-1.88.88ZM96.75,146.62l.62-.62c6.24,4.64,3.41,8.35-.62.62ZM98.5,124.62c.14-1.41,7.83-23.31,9.12-26.88.85-.43,1.5-1.31,2.5-1.5,3.64-.67,7.07,1.74,6.62,5.62-2.17,4.51-7.64,23.7-8.75,25.75-2.64,4.87-10.02,2.3-9.5-3ZM105.13,92.25h1.5c4.28,5.76-6.57,4.33-1.5,0ZM106.13,68.25h1.25c3.32,4.36-5.33,3.72-1.25,0ZM117.38,142.25c8.28-.28,1.01,9.93-.12,17.62-1.52,2.08-4.06,1.73-5.75,0-.78-1.57,4.04-17.23,5.88-17.62ZM133.5,109.38l.38-.38c2.47.93,1.08,3.5-.38.38ZM135.88,144.5c3.59.66.71,2.67.62,2.88-.42,1-.78,4.71-2.25,1.75,3.97-2.73-.48-1.99,1.62-4.62ZM135.75,122.12l1.38-1.12c6.65,1.14-1.72,7.27-1.38,1.12ZM134.5,113.12l1.38-1.62c5,.44.98,5.52-1.38,1.62ZM130.63,105.25c-1.49-.16-23.38-16.46-23.88-17.88-1.09-3.09,1.1-6.42,3.12-6.88,1.11-.25,2.66.04,3.75.5,1.28.54,18.86,14.99,21.88,17.12,1.62,3.19-1.3,7.51-4.88,7.12ZM95.5,63.38l1.12-1.38c6.31,1.4,2.33,7.82-1.12,1.38ZM98.88,87.5c7.57,1.02.9,4.88-1.88,7.25,1.65.02,3.1,1.44,2.25,3.12-3.51,3.8-10.57-.11-5.75-2.12-3.8-1.1,2.32-4.52,5.38-8.25ZM95.5,83.12c-.08.49-4.91,8.14-5.25,8.5-2.78,2.97-6.59-.36-5.75-3.25.17-.59,5.97-9.75,7.62-9.38,1.84.6,3.76,1.89,3.38,4.12ZM84.63,95c3.53,4.48-6.33,4.14-1.25,0h1.25ZM80.88,85l2.12.62c.75,3.58-5.03,1.63-2.12-.62ZM80.63,70.25l1.38,1.38c-.09,6.16-8.08-.1-1.38-1.38ZM74,82.88l.88-1.38c6.39-.08,2.06,5.36-.88,1.38ZM73.88,81c-1.93-.2-5.01-2.32-3-4.25,1.53-.61,5.34,3.01,3,4.25ZM72.75,71.88c-.37.78-13.26,9.88-14.12,9.88-1.79,0-3.83-2.98-3.38-4.62.23-.81,12.56-9.94,13.38-10.12,2.63-.61,5.07,2.89,4.12,4.88ZM70.13,35.5h1.5c3.9,4.08-5.02,4.2-1.5,0ZM64.75,21.88l.88-1.38c8.46,1.48,4.48,8.8-.88,1.38ZM65.63,36.5c3.31-.88,4.61,9.39,5.62,12.38-4.34,4.48-4.4-5.12-7-10.5.24-.99.43-1.41,1.38-1.88ZM62.63,23.5l1.88,1.12c-.05,5.87-7.68,1.28-1.88-1.12ZM64.75,58.38c-.59,3.59-7.76,5.42-9.75,1.25-.58-1.21-5.61-24.91-5.75-26.25-.31-3.03,1.31-5.87,4.62-6.12,2.07-.16,4.29.87,5.12,2.88.56,1.33,5.99,26.83,5.75,28.25ZM56.38,86c3.8-.28-3.27,3.82-4.25,3.5-2.59-1.45,3.47-3.44,4.25-3.5ZM43.88,150.25c6.05,1.25-.95,7-1.38,1.12l1.38-1.12ZM55.88,214c4.67-.45-3.84,4.84-4.38,2.88-.67-1.15,4.07-2.85,4.38-2.88ZM55.5,204.88c.34-.75,12.32-9.69,13.12-9.88,2.63-.61,5.07,2.89,4.12,4.88-2.01,1.28-12.36,9.35-13.12,9.62-2.55.92-5.12-2.42-4.12-4.62ZM70.88,204.75c7.77,1.79,1.12,8.24-.62.62l.62-.62ZM75.13,209.5c7.26.97.06,5.63-.88.88l.88-.88ZM76,179.88c.02-1.46,2.03-3.08,3.38-3.12,1.16-.04,2.56.82,3.12,1.88.31.59,3.97,12.08,4,12.75.13,2.66-4.55,5.48-6.5,1.75-.32-.61-4.01-12.56-4-13.25ZM78.5,199.62l1.12-.88c5.05,1.74-1.33,5.35-1.12.88ZM80.63,212h1c3.46,4.7-5.08,3.14-1,0ZM82.88,223.5h2c2.8,3.42-4.43,4.16-2,0ZM90.88,207c1.82-.66,4.63,1.71,4.62,3.38,0,.69-5.81,11.83-7.88,10.62-7-1.6.88-10.81,3.25-14ZM86.63,209c-12.2-1.85,4.55-12.66,7.5-16.5l4.38,3.88-11.88,12.62ZM96.38,190c1.49-.4,5.24,2.98,2.75,4.25-1.03.25-5.44-2.8-2.75-4.25ZM99,163.38c-.09-2.15,2.71-4.36,4.62-4.62,1.84-.25,3.42.21,4.62,1.62,1.09,3.57,9.09,22.72,9.25,24,.57,4.64-6.49,7.17-9.25,3.25-.75-1.06-9.2-22.95-9.25-24.25ZM120.38,191.5c.83-.11,1.53.13,2.25.5.95.49,14.2,14.64,14.62,15.62,1.33,3.05-2.51,6.94-6.12,4.62-.88-.56-13.71-14.42-14.12-15.38-1.15-2.67,1.86-5.18,3.38-5.38ZM145.63,202c1.68,0,1.09,8.62-1.88,5.62-.13-.89.88-5.62,1.88-5.62ZM127.75,159.38c.69-7.39,3.91-4.82,7.75-2.38,1.65,1.05,1.9,1.43,2,1.5,1.71,1.14,3.32,2.33,5,3.5.6.42,1.16.82,1.75,1.25,1.8,1.31,11.22,7.71,11.75,8.62,1.55,2.71-1.33,6.63-4.88,5.12-1.35-.57-21.02-15.04-23.38-17.62ZM155.38,177l1.38.38c1.44,3.69-4.84,2.27-1.38-.38ZM152.75,158.38c-.85-2.08,1.2-4.8,3.12-5.12.34-.06,1.41-.06,1.75,0,.97.16,14.49,11.96,14.88,12.88.96,2.3-1.91,6.6-5.88,4.38-.8-.45-13.53-11.27-13.88-12.12ZM167.75,179.62l1.12-1.38c6.12.32-.03,6.73-1.12,1.38ZM176.5,194c-.53-1.95,1.22-1.86,1.62-5,.16,3.59,4.05,3.35,1.25,6.25-1.49.52-1.58-.03-2.62-.75-.68,1.71-3.13,4.36-5.12,3.75-.78-.24-10.87-10.28-10.62-12.12,4.29-6.99,7.91,2.2,15.5,7.88ZM183.88,214c3.52-.19.02,2.01-3.5,3.5-3.07-1.32,2.57-3.45,3.5-3.5ZM183.5,204.88c.34-.75,12.32-9.69,13.12-9.88,2.63-.61,5.07,2.89,4.12,4.88-2.07,1.31-12.36,9.35-13.12,9.62-2.59.92-5.1-2.45-4.12-4.62ZM198.88,204.75c8,2.02,1.08,8.09-.62.62l.62-.62ZM203.13,209.5c6.39-.38,2,5.88-.88,1.38l.88-1.38ZM207.63,199l1.38.88c1.04,3.48-5.96,1.26-1.38-.88ZM208.25,193.62c-.41-.59-4.27-13.03-4.25-13.75.03-1.41,2.03-3.09,3.38-3.12.08,0,1.43.22,1.5.25,1.36.52,5.6,13.6,5.62,14.38.09,2.89-4.52,4.71-6.25,2.25ZM224.63,189.75l3.38,2.62c-.03,4.62-7.07-1.18-3.38-2.62ZM235.38,148.5c-9.05.36.24-9.46,2.75-12.25,7.88.44-1.07,9-2.75,12.25ZM234.38,151.75h1.25c3.88,5.18-7.16,5.18-1.25,0ZM245.38,142.25c2.48-.15,4.3,1.02,4.12,3.62-.05.73-3.88,13.37-4.25,14-1.18,1.99-4.33,1.71-5.75,0-.77-1.54,4.03-17.22,5.88-17.62ZM238.13,96.25c3.53-.6,7.1,1.76,6.62,5.62-2.55,5.27-7.33,22.86-8.75,25.5-2.95,5.5-10,2.28-9.5-2.75.13-1.31,7.46-23.8,8-25,.62-1.39,2.04-3.1,3.62-3.38ZM234.63,93c1.98,4.93-4.99,2.55-1,0h1ZM232.75,69.88l1.12-1.62c4.6-.03.72,5.84-1.12,1.62ZM245.38,14.25c2.27-.27,4.25,1.01,4.12,3.38-.04.74-3.87,13.61-4.25,14.25-1.22,2.06-4.3,1.62-5.75,0-.71-1.35,3.82-15.52,4.25-16.25.18-.3,1.33-1.31,1.62-1.38ZM237.88,8.25c8.3.24-.78,8.93-2.5,12.25-9.22.56.18-9.09,2.5-12.25ZM234.63,23.75l1.12.12c1.7,5.91-6.72,3.71-1.12-.12ZM231.88,30.75c1.65-.14,3.23.43,4.38,1.62,1.04,3.56,9.09,22.72,9.25,24,.58,4.79-6.84,7.22-9.5,3-.91-1.44-7-19.61-9-23.75-.27-2.43,2.71-4.69,4.88-4.88ZM225.13,18c.81-.2,5.47,4.27,3,5.25-.34.03-4.53-4.96-3-5.25ZM224.38,28.5c1.87-.58,3.4.26,2.88,2.38-3.61,2.27-4.97-1.73-2.88-2.38ZM224.38,61.75c6.14,2.32,3.27,7.44-1.12,1.62l1.12-1.62ZM226.5,68.38c-1.7,1.48-10.85,12.03-11.62,12.38-2.82,1.25-5.71-2.19-4.38-4.88.36-.73,10.02-9.9,11.62-11.38l4.38,3.88ZM216.5,56.12c-.29-.45-3.74-9.47-3.75-10-.02-.77,1.04-2.43,1.88-2.62,1.18-.28,2.4.14,3.12,1.12.36.48,4.24,10.36,4,11.25-1.35,1.78-3.88,2.34-5.25.25ZM217.25,36.12l1.62-1.38c6.21,1.21-.79,6.14-1.62,1.38ZM218.13,28.75h1.25c3.66,4.4-5.32,4.59-1.25,0ZM211.5,5.38c.62-.89,2.58-2.31,3.62-2.38,2.43-.16,6.44,2.32,5.88,5.88-2.33,3.91-10.1,21.27-11.25,22.75-2.89,3.72-8.09,1.32-9.25-2.5,1.74-3.48,10.25-22.67,11-23.75ZM178.38,12.75c.85-.77,18.62-11.37,19.75-11.5,3.26-.38,6.81,4.3,4,7.25-.79.83-18.62,11.32-19.75,11.5-3.7.59-7.66-3.94-4-7.25ZM177.88,61c.49,3.19,1.44,2.25,2.12,3.38,1.29,2.14-1.36,4.13-3.25,2.38-1.14,1.67-2.87,4-5.12,3.5-.83-.18-12.33-11.34-10.38-12.62,4.41-6.15,8.94,4.04,15.25,8.38-.33-2.38,1.26-1.61,1.38-5ZM169.63,50l1.88,1.38c-.36,5.05-6.79.83-1.88-1.38ZM171.88,22.25l1.5.25c3.65,5.13-6.42,3.86-1.5-.25ZM169,6.38c.41-.64,1.01-.81,1.62-1.12,3.65-1.76,4.31,10.5,4.12,11.12-.35,1.18-3.48,2.05-4.62,1.62-1.08-.56-1.79-10.6-1.12-11.62ZM161.25,6.62c.76-1.65,4.44-2.69,5.5,1.88l1.38-.25c.07,1.34,1.22,8.91,1.12,9.38-.01.07-.48-.06-1,1.12-1.96,4.46-4.8,2.95-5.5,1.62-.52-.98-1.95-12.77-1.5-13.75ZM155.88,25.25c.35-.05,1.41-.06,1.75,0,.95.16,14.14,11.55,14.62,12.38,1.6,2.71-1.65,7.11-5.62,4.88-.8-.45-13.52-11.28-13.88-12.12-.83-1.98,1.03-4.8,3.12-5.12ZM149.75,15.75c3.93-2.41,3.58,5.37-.25,1.5-6.57,3.26-5.26-7.83.25-1.5ZM143.5,23.88l1.88-1.38c5.47,1.72-2.13,6.56-1.88,1.38ZM135.63,17.75l1.88.88c.51,4.83-3.92,2.62-1.88-.88ZM131.38,26.25c1.25.11,12.99,9,15.12,10.5.8.56,1.42,1.19,1.5,1.25,1.35.93,4.41,3.31,5.75,3.75,2.08.68.91-.65,3.12-.75.4.33.02,2.48-.88,2.5,1.51,2.02-.83,6.07-3.62,6-3.92-2.75-21.63-14.94-23-16.25-4.16-3.98-.15-7.19,2-7ZM126.63,42.25c6.89,3.89.34,6.3-.88.88l.88-.88ZM137.25,79.62c1.33,3.05-2.51,6.94-6.12,4.62-.88-.56-13.71-14.42-14.12-15.38-.94-2.2,1.2-5.13,3.38-5.38.52-.06,1.54.06,2,.25,1,.42,14.44,14.88,14.88,15.88ZM117.38,14.25c2.48-.15,4.3,1.02,4.12,3.62-.05.73-3.87,13.37-4.25,14-1.46,2.44-5.7,1.57-6.25-1.25,1.33-2.58,4.07-15.88,6.38-16.38ZM109.88,8.25c2.06-.29,4.14,1.23,3.62,3.38-.14.56-5.93,9-6.88,9.12-8.14-.59,1.24-9.49,3.25-12.5ZM97.13,18c.78-.32,5.81,4.41,3,5.25-.51-.56-4.39-4.68-3-5.25ZM97.88,28l1.12.62c.9,5.68-7.48,1.44-1.12-.62ZM98.5,68.62c-1.8,1.35-11.28,12.17-12.12,12.38-2.47.61-5.03-2.6-4.12-4.88.31-.77,10.38-10.13,11.88-11.62.47-.07,4.54,3.24,4.38,4.12ZM89.63,57.25c-.89-.4-4.85-10.27-4.88-10.88-.04-1,.86-2.48,1.88-2.88,2.43-2.44,6.66,9.43,6.88,10.38.74,3.27-2.13,4.17-3.88,3.38ZM90.38,34h1.5c5.77,4.59-6,5.34-1.5,0ZM90.88,28.75l1.38.88c.43,5.55-6.23,1.24-1.38-.88ZM83.5,5.38c.62-.9,2.57-2.3,3.62-2.38,3.48-.25,6.51,2.92,5.62,6.38-.31,1.2-10.24,21.27-11,22.25-2.89,3.72-8.03,1.33-9.25-2.5,1.77-3.47,10.26-22.67,11-23.75ZM50.38,12.75c.86-.77,18.85-11.42,20-11.5,3.01-.21,6.62,4.28,3.75,7.25-.79.82-18.62,11.3-19.75,11.5-3.54.63-7.71-3.92-4-7.25ZM49.75,63.12c.12-.29-.77-2.66.75-1.75-.84,2.6.92,1.78,1.5,3,.88,1.83-.48,4.1-3,2.38-1.66,1.38-2.83,4.1-5.38,3.5-.81-.19-11.26-10.3-10.62-12.38,4.35-6.24,7.98,2.3,15.5,8.12-.51-1.92,1.01-2.28,1.25-2.88ZM39.75,51.62l1.12-1.38c6.05.25-.02,6.77-1.12,1.38ZM42.5,23.38l1.38-1.12c6.12,1.23-1.27,6.95-1.38,1.12ZM33.25,6.62c2.88-2.71,4.73-1.29,5.5,2.12,2.41-.71,1.2-1.67,1.5-2.12,1.5-2.3,4.73-2.46,5.5.62.19.76,1.09,8.44,1,8.88-.42,2.15-3.24,1.83-4.75,1.88-1.14.04-.96-.84-1.75.75-.15.29.1,2.71-3.38,3-3.29.1-3.67-11.9-3.62-15.12ZM15.5,23.62l1.38-1.12c6.47,1.1-1.98,6.97-1.38,1.12ZM22,15.75h-.5c.58,3.81-5.51,2.33-4.5-.88,1.92-2.18,3-.79,4.5.62.1.1.57-.65.5.25l.88-.75c4.53,2.31-1.87,5.63-.88.75ZM24.75,30.38c-.84-2.07,1.17-4.78,3.12-5.12.33-.06,1.71-.06,2,0,.93.2,13.9,11.56,14.38,12.38,1.55,2.65-1.54,7.04-5.62,4.88-.81-.43-13.53-11.27-13.88-12.12ZM26.63,55.75c2.33-.27,3.9.69,5.38,2.38.91,1.04,14.82,21.69,15.25,23,1.57,4.75-4.9,9.53-9,5.25-1.17-1.22-13-19.8-16-23.75-1.29-2.81,1.57-6.55,4.38-6.88ZM23.38,76.5l2.12,1.38c.28,5.88-7.32,1.31-2.12-1.38ZM18.5,74.38c.84,9.19-5.74,6.85-1.12-.62l1.12.62ZM8.88,41h.75c2.93,5.28-5.77,2.51-.75,0ZM7.75,61.12c.02-.64,4.57-11.13,5.62-11.38,6.66.53,1.68,6.13-.62,13,1.18-.75,2.03.4,2.75,1.12.4,3.12-3.84,2.57-3.5-.12-1.71.36-4.3-.54-4.25-2.62ZM7,111.38c-6.5-6.4,1.11-.57,3.5,1l-.25,1.38c-.94.94-1.46.78-2.75.75-2.55-.66-.47-2.86-.5-3.12ZM8.13,145l.88.62c2.02,6.41-5.98,3.93-.88-.62ZM7.75,122.12l1.38-1.12c6.77,1.42-2,7.05-1.38,1.12ZM9.5,91.62l1.38-1.12c8,1.12-1.24,8.98-1.38,1.12ZM15.13,123l1.88.62c.02,8.32-4.76,5.01-1.88-.62ZM15.75,151.38l1.12-.88c6.5,1.1-2.11,7.08-1.12.88ZM21.25,144.5l-.88,1.25c-5.98.42-3.05-7.15.88-2.25,5.07-2.13,2.91,6.43,0,1ZM24.75,158.38c-.85-2.08,1.2-4.8,3.12-5.12.34-.06,1.41-.06,1.75,0,.97.16,14.49,11.96,14.88,12.88.95,2.27-1.85,6.59-5.88,4.38-.81-.44-13.53-11.27-13.88-12.12ZM29.63,176.75l1.12,1.12c.03,4.36-5.18.62-1.12-1.12ZM18.13,202c.28,1.52.69,6.78-1.75,6.25-2.29-1.01,1.46-6.47,1.75-6.25ZM7,238.88c-.22-.78-5.78-2.63-4.62-3.38,4.8,1.32,5.47,3.28,5.75,3.5.23.18,4.92.94,1.38,3.5-.6-.08-1.54.12-2,0-2.68-.7-.39-3.21-.5-3.62ZM9.13,249h1.25c4.55,5.28-6.78,4.49-1.25,0ZM9.5,219.62l1.12-1.12c8.32,1.08-1,8.82-1.12,1.12ZM12,192c-1.69.22-4.3-.94-4.25-2.88.02-.64,4.61-11.15,5.62-11.38,6.75.57,1.69,5.86-.62,13,5.63-.45.79,6.68-.75,1.25ZM14.5,218.12c.23-.65,10.95-7.25,11.62-7.38,2.05-.38,3.54,1.69,3.12,3.62-.15.69-10.68,7.8-11.38,7.88-1.87.22-4.04-2.22-3.38-4.12ZM23.63,204.5l1.88,1.38c.18,6.1-7.49.94-1.88-1.38ZM18.75,223.88c.19-.65,7.65-4.8,8.12-4.88,2.48-.39,4.42,1.81,4.12,4.12-3.21,2.17-12.17,8.78-12.25.75ZM29.38,225h1.25c2.62,4.07-4.61,3.89-1.25,0ZM31.38,231.5h1c3.27,3.9-4.32,2.71-1,0ZM36.13,222l1.38,1.12c.03,8.61-7.08,2.7-1.38-1.12ZM38.25,214.38c-1.01-1.05-13.51-20.4-16.25-24.25-.61-2.82,1.85-6.03,4.62-6.38,2.39-.29,3.86.66,5.38,2.38.88,1,14.2,21.03,14.75,22.25,2.63,5.84-4.62,10.01-8.5,6ZM49.5,230c-2.86,4.84-7.56-1.53-2-2.5.06-.41-.08-1.01,0-1.25-3.23.91-4.71-4.05-.88-3.5,1.02.99,1.8,1.43,1.38,3,.52-.58,12.6-7.92,13.38-8,1.88-.21,3.55,2.07,3.38,3.88-.22,1.19-13.53,8.82-14.38,8.88-.6.04-.56-.1-.88-.5ZM58.38,239.25c-3.66.66-7.86-4.15-4-8,.93-.92,18.59-12.34,19.75-12.5,3.97-.56,8.28,4.24,4,8-.88.77-18.6,12.29-19.75,12.5ZM82.25,249.38l1.38-1.62c5.6.7.7,6.81-1.38,1.62ZM69.13,250.5c-3.81,1.21-6.49-2.99-3.75-6,.86-.94,20.25-13.51,21.5-13.75,3.89-.73,5.99,3.38,3.5,5.75-.92.88-18.29,11.53-21.25,14ZM95.88,239c-6.29.45-3.49-.34-3.62-1-.28-1.37-2.66-1.71,2.12-2.75.5.17.71,2.02.88,2.5.03.08,1.16.52.62,1.25ZM96.63,232.5h1.75c2.81,3.84-5.56,4.33-1.75,0ZM96.75,223.25c1.74-.14,3.31.56,2.75,2.38-3.45,3.39-9.83,1.36-6.5-1.88-2.51-1.4,4.96-7,6.12-8.25,7.66,1.31-.27,5.02-2.38,7.75ZM103.25,223.38l1.12-.88c4.02.84-.8,5.18-1.12.88ZM105,197.12l.88-.88c5.68.59-.82,6.43-.88.88ZM128.88,232.5c-1.26-.61-21.67-15.8-22.12-17.12-1.21-3.48,1.43-6.5,3.12-6.88.27-.06,2.76-.06,3,0,1.39.35,19.7,15.63,22.62,17.62,1.74,3.41-1.62,8.77-6.62,6.38ZM134.75,239.38c-.07-.42-7.7-6.94-1.12-2.88.27.17,2.97,2.56,4.88,3.88l-.25,1.38c-.94.94-1.46.78-2.75.75-2.3-.43-.69-2.78-.75-3.12ZM136.88,249h1.5c4.48,4.83-6.24,5.02-1.5,0ZM137.25,220.38l1.38-1.88c7.66.34.9,8.78-1.38,1.88ZM142.5,218.38c.18-.67,10.94-7.5,11.62-7.62,2.25-.42,3.62,2.06,3.12,3.88-.17.64-10.23,7.23-10.88,7.38-2.72.63-4.3-2.03-3.88-3.62ZM150,205.38l1.38-.88c6.55,2.82-3.1,7.38-1.38.88ZM146.75,225.88c-1.96-2.03,7.56-6.78,8.12-6.88,2.31-.4,4.41,1.91,4.12,4.12-2.98,1.98-10.17,7.51-12.25,2.75ZM157,225.88l1.38-.88c3.45,1.1-1.9,4.71-1.38.88ZM158.5,231.88l1.38-1.12c4.24,1.7-.88,5.4-1.38,1.12ZM163.63,222.25l1.62.62c1.28,7.54-6.66,4.7-1.62-.62ZM166.25,214.38c-1.18-1.22-12.99-19.79-16-23.75-1.3-2.66,1.53-6.45,4.12-6.88,2.55-.42,4.03.55,5.62,2.38.91,1.04,14.84,21.68,15.25,23,1.5,4.87-5.01,9.38-9,5.25ZM177.5,230c-3.38,5.27-7.7-2.73-1.5-2.25-.42-.57-.59-.72-.5-1.5-6.85.08-.72-7.71.5-.75.53-.56,12.61-7.67,13.38-7.75,2.07-.21,4.69,2.98,2.5,5.25-.54.56-12.73,7.43-13.5,7.5-.44.04-.51-.43-.88-.5ZM186.88,239c-4.1,1.18-8.37-3.88-4.5-7.75,1.27-1.26,18.59-12.29,19.75-12.5,3.71-.67,7.97,4.12,4.25,7.75-.83.81-18.39,12.18-19.5,12.5ZM210.5,248.88l1.12-1.12c6.3.64-.28,7.19-1.12,1.12ZM217.88,237c-.96.84-18,11.32-21.5,13.75-3.59.23-5.48-3.52-3-6.25.87-.95,20.47-13.59,21.75-13.75,3.64-.46,5.8,3.61,2.75,6.25ZM219.88,237.75c-1.44-1.33.26-2.55,1.75-2.5,2.96.09.39,3.79-1.75,2.5ZM224.5,232.88l1.88-.88c3.62,1.76-2.75,5.5-1.88.88ZM224.5,223.5c4.96-.38,3.14,3.42-.62,3.75-4.62.4-4.47-3.15-2.88-3.5.04-.58-.62-1.02-.5-1.62.13-.64,8.3-10.16,9.75-5.25,1.27.87-5.36,6.38-5.75,6.62ZM232.5,221.12l.88-.62c5.19.87-.72,6.06-.88.62Z"/><path class="d" d="M235,226.62c-1.2,2.48-6.29,20.82-8.5,26-.08.85.4,3.19.5,3.38h9c.88-4.64,8.62-25,8.75-26.62.46-5.75-7.28-7.86-9.75-2.75Z"/><path class="d" d="M106.75,227.12c-.73,1.42-6.24,20.91-8.25,25.5-.12,1.03.2,2.48.75,3.38h8.5c1.01-4.03,8.84-24.75,9-26.12.69-5.85-7.48-7.69-10-2.75Z"/><path class="c" d="M189.5,251.38c-.67-1.2-18.21-15.57-20.88-17.88-4.15-.82-8.06,3.4-6.12,7.38.51,1.04,15.49,13.63,17.5,15.12h9.75c.66-1.59.6-3.11-.25-4.62Z"/><path class="c" d="M62,252.38c-.32-1.41-20.21-18.62-21.62-18.88-3.97-.73-7.8,3.54-5.88,7.38.52,1.03,15.48,13.63,17.5,15.12h9.75c.26-.78.41-2.91.25-3.62Z"/><path class="d" d="M246.38,242.75c-5.08,2.57-.38,9.42,1.12,13.25h8.5v-4.5c-2.41-3.95-2.89-12.16-9.62-8.75Z"/><path class="d" d="M14.75,237.88c0,1,7.75,17.26,8.25,18.12h9.25c-1.49-3.23-8.84-19.47-9.5-20.38-2.64-3.61-8-.78-8,2.25Z"/><path class="d" d="M143,238.88c.15.93,7.52,16.31,8,17.12h9.25c-1.5-3.17-8.83-19.47-9.5-20.38-2.66-3.59-8.41-.92-7.75,3.25Z"/><path class="d" d="M215.63,248.5c-.41.27-2.29,6.58-2.38,7.5h2.5c.38-1.03,3.37-9.8-.12-7.5Z"/><path class="d" d="M88.38,248.25c-1.24-.34-3.06,7.11-3.12,7.75h2.5c.52-1.45,2.58-7.9.62-7.75Z"/><path class="e" d="M208,256h4.25c-.32-3.56-4.24-1.84-4.25,0Z"/><path class="c" d="M142.25,256h2.25c1.53-7.54-3.25-6.36-2.25,0Z"/><path class="c" d="M14.25,256h2.25c1.77-7.12-3.15-6.64-2.25,0Z"/><path class="e" d="M80.25,256h3.75c0-2.95-3.76-2.69-3.75,0Z"/><path class="d" d="M135,13.88c.31-1.65-4.25-11.49-5.25-13.88h-10.25c.8,2.04,5.98,15.19,6.5,15.88,2.42,3.16,8.5.68,9-2Z"/><path class="d" d="M20.75,0h-3.5c-1.48,3.22,5.23,4.74,3.5,0Z"/><path class="d" d="M148.5,0h-3.5c-.19,4.62,5.74,3.18,3.5,0Z"/><path class="c" d="M236.13,217c.87.88,18.37,13.87,19.88,14.75v-11.75c-1.81-1.44-14.44-11.29-15.38-11.5-4.58-1.01-8.59,4.39-4.5,8.5Z"/><path class="c" d="M236.38,89.25c.89.84,18.56,14.13,19.62,14.75v-11.75c-1.88-1.5-14.43-11.55-15.38-11.75-4.61-.97-8.77,4.46-4.25,8.75Z"/><path class="d" d="M244,119.62c.2,1.34,9.63,23.96,10.62,24.88.06.05,1.19.69,1.38.75v-21.75c-1.27-1.67-2.47-6.52-3.25-7.62-2.55-3.61-9.54-1.43-8.75,3.75Z"/><path class="d" d="M249.63,63.5c-2.75-.44-5.73,2.75-4.62,5.38.32.75,9.69,10.81,11,12.12v-11.5c-1.09-1.11-5.35-5.83-6.38-6Z"/><path class="d" d="M249.63,191.5c-2.37-.36-5.86,2.44-4.62,5.38.32.75,9.69,10.81,11,12.12v-11.5c-1.08-1.1-5.37-5.85-6.38-6Z"/><path class="d" d="M256,174.25v-3.25c-3.22-2.16-2.44,2.58,0,3.25Z"/><path class="d" d="M256,46.25v-3.25c-3.39-2.19-2.23,2.36,0,3.25Z"/><path class="d" d="M28,43.88c-.38-.75-12.68-9.73-13.5-9.88,1.09,1.61,1.09,2.76-.88,3.5-3.05-.59-2.33-4.06.88-3.5-.43-.63-9.73-7.32-10.38-7.5-1.92-.54-2.65.07-4.12,1.25v4.5c2.9,2.09,22.43,16.77,23.88,17,2.81.45,5.38-2.89,4.12-5.38Z"/><path class="d" d="M28.25,172.38c-.44-1.24-7.21-5.77-8.75-6.62-.16-.09-.34.38-.62.25-.93-.43-.81-1.44-.88-1.5-1.08-1.08-13.06-9.75-13.88-10-1.96-.59-2.78.32-4.12,1.5v4c3.01,2,22.19,16.96,23.62,17.25,2.76.55,5.59-2.17,4.62-4.88ZM.25,158.38l.62-.88c2.92,1.4.27,4.42-.62.88ZM7.5,163.62l1.12-.88c5.43.73-.92,6.46-1.12.88Z"/><path class="d" d="M4.5,188.38c.55-3.41,5.61-8.42,2.38-10.88-4.94-1.59-4.49,4.93-6.88,7.25v4.5c2.06.49,2.85.79,4.5-.88Z"/><path class="d" d="M4.5,60.38c.31-.39,3.64-8.2,3.5-9.25C3.49,45.15,2,54.37,0,56.75v4.25c1.54.81,3.31.9,4.5-.62Z"/><path class="d" d="M154.63,55.75c-2.17.29-5.13,3-4.62,6.12.24,1.45,15.24,23.43,16.25,24.5,3.99,4.2,9.95-.29,9.25-4.5-.23-1.4-14.56-22.68-15.5-23.75-1.53-1.74-2.93-2.7-5.38-2.38Z"/><path class="d" d="M175.25,209.12c-.41-1.32-14.34-21.96-15.25-23-1.59-1.82-3.07-2.79-5.62-2.38-2.59.42-5.43,4.22-4.12,6.88,3.01,3.96,14.82,22.53,16,23.75,3.99,4.13,10.5-.38,9-5.25Z"/><path class="d" d="M38.25,86.38c4.1,4.28,10.57-.5,9-5.25-.43-1.31-14.34-21.96-15.25-23-1.47-1.69-3.04-2.65-5.38-2.38-2.8.33-5.66,4.06-4.38,6.88,3,3.95,14.83,22.53,16,23.75Z"/><path class="d" d="M46.75,208.38c-.55-1.22-13.87-21.25-14.75-22.25-1.51-1.71-2.99-2.67-5.38-2.38-2.77.34-5.24,3.56-4.62,6.38,2.74,3.85,15.24,23.2,16.25,24.25,3.88,4.01,11.13-.16,8.5-6Z"/><path class="d" d="M192.75,185.38c0-1.45-5.36-24.11-6.25-28.25-1.24-1.54-3.19-2.14-5.12-1.88-1.86.26-4.11,2.21-4.38,4.12-.2,1.44,5.33,27.21,6,28.5,1.99,3.85,9.75,2.68,9.75-2.5Z"/><path class="d" d="M64.75,186.38c-.81-4.44-5.12-26.73-5.75-28.25-.84-2.03-3.03-3.05-5.12-2.88-2.49.21-4.91,2.56-4.88,5.12.02,1.4,5.39,26,6,27.25,1.93,3.96,8.63,2.67,9.75-1.25Z"/><path class="d" d="M182.13,27.25c-1.73.09-4.54,1.81-4.88,3.62-.27,1.44,5.12,27.42,5.75,28.75,1.86,3.92,8.65,2.7,9.75-1.25-.72-4.3-5.15-26.86-5.75-28.25-.84-1.96-2.82-2.98-4.88-2.88Z"/><path class="d" d="M53.88,27.25c-3.32.25-4.94,3.1-4.62,6.12.14,1.34,5.17,25.04,5.75,26.25,1.99,4.17,9.16,2.34,9.75-1.25.24-1.42-5.19-26.92-5.75-28.25-.84-2-3.05-3.03-5.12-2.88Z"/><path class="d" d="M226.5,124.62c-.5,5.03,6.55,8.25,9.5,2.75,1.42-2.64,6.2-20.23,8.75-25.5.48-3.86-3.1-6.23-6.62-5.62-1.59.27-3,1.98-3.62,3.38-.54,1.2-7.87,23.69-8,25Z"/><path class="d" d="M108,127.62c1.11-2.05,6.58-21.24,8.75-25.75.44-3.89-2.98-6.3-6.62-5.62-1,.19-1.65,1.07-2.5,1.5-1.29,3.57-8.99,25.46-9.12,26.88-.52,5.3,6.86,7.87,9.5,3Z"/><path class="c" d="M34.5,112.88c.58,1.18,18.73,16.48,19.88,17.12,5.43,3.06,9.44-2.49,7.12-6.62-2.8-2.17-18.68-16.82-19.88-17.38-1.03-.48-2.41-.71-3.5-.5-2.35.46-5.23,4.08-3.62,7.38Z"/><path class="c" d="M189.5,123.38c-.64-1.14-18.48-16.5-19.62-17.12-1.23-.68-2.25-1.04-3.75-.75-2.89.56-5.01,4.55-3.62,7.38.63,1.28,20.47,17.91,21.88,18.12,3.86.58,7.32-3.7,5.12-7.62Z"/><path class="c" d="M135.5,226.12c-2.92-2-21.23-17.28-22.62-17.62-.24-.06-2.73-.06-3,0-1.7.38-4.33,3.39-3.12,6.88.46,1.32,20.86,16.52,22.12,17.12,5,2.39,8.36-2.97,6.62-6.38Z"/><path class="c" d="M113.63,81c-1.09-.46-2.64-.75-3.75-.5-2.02.45-4.21,3.79-3.12,6.88.5,1.41,22.39,17.72,23.88,17.88,3.57.38,6.49-3.93,4.88-7.12-3.01-2.13-20.6-16.58-21.88-17.12Z"/><path class="d" d="M103.63,30.75c-2.03.26-4.71,2.44-4.62,4.62.05,1.3,8.51,23.19,9.25,24.25,2.61,3.74,9.08,1.62,9.5-2.75-2.19-4.36-8.22-22.38-9-23.75-1.12-1.95-2.94-2.65-5.12-2.38Z"/><path class="d" d="M86.88,131c-1.01.11-2.79,1.51-3.38,2.38-.72,1.08-8.92,19.76-11,23.5,1,4.05,6.22,6.49,9.25,2.75.78-.96,10.69-21.05,11-22.25,1.08-4.22-2.95-6.69-5.88-6.38Z"/><path class="d" d="M214.88,131c-1.01.1-2.78,1.51-3.38,2.38-.74,1.08-9.32,20.28-11,23.75,1.25,3.79,6.34,6.24,9.25,2.5,1.18-1.52,8.87-18.82,11.25-22.75.65-3.2-3.19-6.17-6.12-5.88Z"/><path class="d" d="M237,161.62c-1.18-2.32-3.04-3.3-5.62-2.88-1.83.3-4.45,2.65-4.38,4.62.04.93,5.66,15.43,6.5,17.5.52,1.28,2.51,6.4,2.75,6.75,2.71,3.92,9.98,1.46,9.25-3.5-2.56-4.85-7.19-19.91-8.5-22.5Z"/><path class="d" d="M227,35.62c2,4.14,8.09,22.31,9,23.75,2.66,4.22,10.08,1.79,9.5-3-.16-1.28-8.21-20.44-9.25-24-1.14-1.2-2.72-1.76-4.38-1.62-2.17.18-5.14,2.45-4.88,4.88Z"/><path class="d" d="M209.75,31.62c1.15-1.48,8.92-18.84,11.25-22.75.57-3.55-3.45-6.03-5.88-5.88-1.05.07-3,1.48-3.62,2.38-.75,1.08-9.26,20.27-11,23.75,1.16,3.82,6.36,6.22,9.25,2.5Z"/><path class="d" d="M117.5,184.38c-.16-1.28-8.16-20.43-9.25-24-1.2-1.41-2.78-1.88-4.62-1.62-1.92.26-4.71,2.48-4.62,4.62.05,1.3,8.5,23.19,9.25,24.25,2.76,3.92,9.82,1.39,9.25-3.25Z"/><path class="d" d="M81.75,31.62c.76-.98,10.69-21.05,11-22.25.88-3.45-2.14-6.63-5.62-6.38-1.05.08-3,1.48-3.62,2.38-.74,1.08-9.23,20.28-11,23.75,1.22,3.83,6.36,6.22,9.25,2.5Z"/><path class="d" d="M135,140.38c-2.08-3.98-9.43-23.34-10.25-24.5-.85-1.2-2.71-1.96-4.12-1.88-2.62.16-5.33,2.93-4.62,5.62,1.97,3.58,9.03,22.69,9.75,23.75,2.94,4.36,9.7.76,9.25-3Z"/><path class="d" d="M74.13,90.75c-1.46.21-20.23,12.42-20.88,13.62-1.68,3.16,1.42,7.5,5.12,6.88,1.17-.2,19.14-11.93,20-12.75,3.77-3.59-.27-8.31-4.25-7.75Z"/><path class="d" d="M74.13,218.75c-1.16.16-18.82,11.58-19.75,12.5-3.86,3.85.34,8.66,4,8,1.15-.21,18.87-11.73,19.75-12.5,4.28-3.76-.03-8.56-4-8Z"/><path class="d" d="M202.13,218.75c-1.16.21-18.48,11.24-19.75,12.5-3.87,3.87.4,8.93,4.5,7.75,1.11-.32,18.67-11.69,19.5-12.5,3.72-3.63-.54-8.42-4.25-7.75Z"/><path class="d" d="M202.13,90.75c-1.17.17-19.11,11.82-20,12.75-3.38,3.56.48,8.43,4.25,7.75,1.17-.21,19.14-11.93,20-12.75,3.69-3.51-.24-8.34-4.25-7.75Z"/><path class="d" d="M182.38,148c1.13-.18,18.95-10.68,19.75-11.5,2.76-2.81-.37-7.63-4-7.25-1.14.12-18.9,10.74-19.75,11.5-3.52,3.16.18,7.85,4,7.25Z"/><path class="d" d="M182.38,20c1.13-.18,18.96-10.67,19.75-11.5,2.81-2.95-.74-7.63-4-7.25-1.13.13-18.9,10.73-19.75,11.5-3.66,3.31.3,7.84,4,7.25Z"/><path class="d" d="M49.25,141.88c-1.49,2.86,1.7,6.75,5.12,6.12,1.12-.2,18.95-10.68,19.75-11.5,2.93-2.98-.78-7.59-4-7.25-1.22.13-20.31,11.54-20.88,12.62Z"/><path class="d" d="M54.38,20c1.12-.2,18.96-10.68,19.75-11.5,2.87-2.97-.74-7.46-3.75-7.25-1.15.08-19.14,10.73-20,11.5-3.71,3.33.46,7.88,4,7.25Z"/><path class="d" d="M32,126.88c-.27-1.03-8.62-18.39-9.25-19.25-.75-1.03-2.05-1.91-3.38-1.88-2.65.07-4.77,2.62-4.38,5.12.17,1.05,8.57,18.43,9.25,19.25,3.2,3.89,8.71.49,7.75-3.25Z"/><path class="d" d="M160,126.88c-3.54-5.09-8.27-21.58-12.62-21.12-2.64.62-4.87,2.01-4.38,5.12.17,1.05,8.57,18.43,9.25,19.25,3.3,4,8.77.2,7.75-3.25Z"/><path class="d" d="M152.38,49.5c2.79.07,5.14-3.98,3.62-6-.1-.14-1.85-.94-2.25-1.75-1.34-.44-4.4-2.82-5.75-3.75-2.83,3.01-4.61-.44-1.5-1.25-2.14-1.5-13.88-10.39-15.12-10.5-2.15-.19-6.16,3.02-2,7,1.37,1.31,19.08,13.5,23,16.25ZM140.13,35.75c3.45.67,1.65,4.59-.88,1.62l.88-1.62ZM128.25,29.88l.62-.62c2.98,3.54-1.44,3.13-.62.62Z"/><path class="d" d="M156,171.88c-.53-.92-9.95-7.31-11.75-8.62-.85,3.26-4.88-.06-1.75-1.25-1.68-1.17-3.29-2.36-5-3.5-1.21,3.86-5.43.33-2-1.5-3.84-2.44-7.06-5.02-7.75,2.38,2.36,2.58,22.02,17.05,23.38,17.62,3.55,1.51,6.43-2.41,4.88-5.12ZM130.63,160.5c-1.26.05-2.54,0-1.62-1-.74-.2-.64-1.67-.25-2.25,1.09-1.64,4.26.88,1.88,3.25Z"/><path class="d" d="M215.38,102.5c-2.99,1.89-20.83,12.86-21.75,13.75-3.03,2.93-.51,7.55,3.5,6.25,1.22-.4,18.04-12.55,21.5-14,2.27-2.44,0-6.27-3.25-6ZM204.38,111.75l1.88.88c.19,4.12-5.11,1.11-1.88-.88Z"/><path class="d" d="M86.88,230.75c-1.25.24-20.64,12.81-21.5,13.75-2.74,3.01-.06,7.21,3.75,6,2.96-2.47,20.33-13.12,21.25-14,2.49-2.37.39-6.48-3.5-5.75ZM85.13,235.25h1.25c3.94,1.57-7.55,7.8-1.25,0Z"/><path class="d" d="M215.13,230.75c-1.28.16-20.88,12.8-21.75,13.75-2.48,2.73-.59,6.48,3,6.25,3.5-2.43,20.54-12.91,21.5-13.75,3.05-2.64.89-6.71-2.75-6.25ZM212,234.62l1.12-1.12c5.82.8-.68,7.26-1.12,1.12Z"/><path class="d" d="M120.38,63.5c-2.18.24-4.32,3.18-3.38,5.38.41.96,13.25,14.81,14.12,15.38,3.61,2.31,7.46-1.58,6.12-4.62-.44-1-13.87-15.45-14.88-15.88-.46-.19-1.48-.31-2-.25Z"/><path class="d" d="M68.38,122.75c2.75-2.08,21.65-13.46,22.5-14.5,1.64-2.01.11-6.14-3.75-5.5-1.27.21-20.88,12.8-21.75,13.75-2.48,2.73-.59,6.48,3,6.25ZM85.13,105.25c4.24.51-.38,3.38-2.25,4.25-2.28-1.33,1.02-3.28,2.25-4.25ZM78.38,110c2.93-.47,1.86,3.54-.38,1.38l.38-1.38Z"/><path class="d" d="M131.13,212.25c3.61,2.31,7.46-1.58,6.12-4.62-.43-.98-13.68-15.13-14.62-15.62-.72-.37-1.42-.61-2.25-.5-1.52.19-4.52,2.71-3.38,5.38.41.96,13.25,14.81,14.12,15.38Z"/><path class="d" d="M166.63,42.5c3.98,2.24,7.23-2.17,5.62-4.88-.49-.83-13.68-12.21-14.62-12.38-.34-.06-1.4-.05-1.75,0-2.1.33-3.96,3.14-3.12,5.12.36.85,13.07,11.67,13.88,12.12Z"/><path class="d" d="M44.25,37.62c-.48-.82-13.45-12.18-14.38-12.38-.29-.06-1.67-.06-2,0-1.96.34-3.97,3.06-3.12,5.12.35.85,13.06,11.69,13.88,12.12,4.09,2.16,7.17-2.23,5.62-4.88Z"/><path class="d" d="M172.5,166.12c-.38-.91-13.9-12.71-14.88-12.88-.34-.06-1.41-.06-1.75,0-1.93.32-3.97,3.05-3.12,5.12.35.85,13.07,11.67,13.88,12.12,3.96,2.23,6.84-2.07,5.88-4.38Z"/><path class="d" d="M44.5,166.12c-.38-.91-13.9-12.71-14.88-12.88-.34-.06-1.41-.06-1.75,0-1.93.32-3.97,3.05-3.12,5.12.35.85,13.07,11.68,13.88,12.12,4.02,2.22,6.83-2.1,5.88-4.38Z"/><path class="d" d="M187.63,209.5c.77-.27,11.05-8.32,13.12-9.62.94-1.98-1.49-5.48-4.12-4.88-.8.18-12.79,9.13-13.12,9.88-.98,2.17,1.54,5.54,4.12,4.62Z"/><path class="d" d="M68.63,67c-.82.19-13.15,9.32-13.38,10.12-.46,1.64,1.58,4.62,3.38,4.62.87,0,13.75-9.09,14.12-9.88.94-1.98-1.49-5.48-4.12-4.88Z"/><path class="d" d="M59.63,209.5c.77-.28,11.12-8.35,13.12-9.62.94-1.98-1.49-5.48-4.12-4.88-.8.18-12.79,9.13-13.12,9.88-.99,2.2,1.58,5.55,4.12,4.62Z"/><path class="d" d="M196.63,67c-.8.18-12.79,9.12-13.12,9.88-.98,2.23,1.88,5.37,4.12,4.62.77-.26,12.78-8.89,13.12-9.62.97-2.05-1.5-5.48-4.12-4.88Z"/><path class="d" d="M94.13,192.5c-2.95,3.84-19.7,14.65-7.5,16.5l11.88-12.62-4.38-3.88Z"/><path class="d" d="M82.25,76.12c-.9,2.28,1.65,5.49,4.12,4.88.84-.21,10.33-11.02,12.12-12.38.16-.89-3.9-4.2-4.38-4.12-1.49,1.49-11.57,10.85-11.88,11.62Z"/><path class="d" d="M210.5,75.88c-1.33,2.69,1.55,6.13,4.38,4.88.78-.34,9.92-10.9,11.62-12.38l-4.38-3.88c-1.61,1.47-11.26,10.65-11.62,11.38Z"/><path class="d" d="M226.5,196.38l-4.38-3.88c-1.53,1.52-11.6,10.84-11.88,11.62-.78,2.25,1.65,5.58,4.12,4.88.84-.24,10.47-11.16,12.12-12.62Z"/><path class="c" d="M117.25,31.88c.38-.63,4.2-13.27,4.25-14,.18-2.6-1.65-3.77-4.12-3.62-2.3.5-5.04,13.79-6.38,16.38.55,2.82,4.79,3.69,6.25,1.25Z"/><path class="c" d="M239.5,159.88c1.42,1.71,4.57,1.99,5.75,0,.37-.63,4.2-13.27,4.25-14,.18-2.6-1.65-3.77-4.12-3.62-1.85.4-6.64,16.08-5.88,17.62Z"/><path class="c" d="M117.25,159.88c1.13-7.69,8.41-17.9.12-17.62-1.84.4-6.66,16.06-5.88,17.62,1.69,1.73,4.23,2.08,5.75,0Z"/><path class="c" d="M239.5,31.88c1.45,1.62,4.53,2.06,5.75,0,.38-.64,4.21-13.51,4.25-14.25.13-2.36-1.85-3.65-4.12-3.38-.3.07-1.45,1.08-1.62,1.38-.43.73-4.96,14.9-4.25,16.25Z"/><path class="d" d="M86.5,191.38c-.03-.67-3.69-12.16-4-12.75-.56-1.06-1.96-1.92-3.12-1.88-1.35.05-3.35,1.66-3.38,3.12-.01.69,3.68,12.64,4,13.25,1.95,3.73,6.63.91,6.5-1.75Z"/><path class="d" d="M76,51.88c0,.78,4.16,14.04,5.12,14.62,2.02,1.23,5.45-.71,5.38-3.12-.02-.76-4.22-13.49-5.38-14.12-.32-.17-1.39-.51-1.75-.5-1.37.04-3.37,1.61-3.38,3.12Z"/><path class="d" d="M206.25,59.62c1.56,4.88,3.19,11.56,8.25,4.25-2.58-6.25-2.8-15.87-7.88-14.88-3.95.77-1.59,6.82-.38,10.62Z"/><path class="d" d="M214.5,191.38c-.02-.78-4.26-13.85-5.62-14.38-.07-.03-1.42-.25-1.5-.25-1.34.04-3.34,1.72-3.38,3.12-.02.72,3.84,13.16,4.25,13.75,1.73,2.46,6.34.64,6.25-2.25Z"/><path class="d" d="M33,57.88c-.63,2.08,9.82,12.18,10.62,12.38,2.54.6,3.72-2.12,5.38-3.5-.04-.03-.45-.71-.5-.75-7.52-5.82-11.15-14.37-15.5-8.12Z"/><path class="d" d="M161.25,57.62c-1.96,1.28,9.55,12.44,10.38,12.62,2.26.5,3.98-1.83,5.12-3.5l-.25-.75c-6.31-4.33-10.84-14.52-15.25-8.38Z"/><path class="d" d="M33,187.12c.17.99,9.87,10.95,10.62,11.12,2.22.52,4.01-1.94,5.12-3.5.12-.38-.21-.48-.25-.75-4.29-2.13-12.57-16.93-15.5-6.88Z"/><path class="d" d="M171.63,198.25c2,.61,4.44-2.04,5.12-3.75-.02-.02.14-.2-.25-.5-7.59-5.68-11.21-14.87-15.5-7.88-.25,1.84,9.84,11.89,10.62,12.12Z"/><path class="c" d="M189.38,217.75c-.77.08-12.84,7.19-13.38,7.75-.15.15-.42.01-.5.75-.09.78.08.93.5,1.5.89.3,1.62,1.24,1.5,2.25.37.07.43.54.88.5.77-.07,12.96-6.94,13.5-7.5,2.19-2.27-.43-5.46-2.5-5.25Z"/><path class="c" d="M47.5,99.5c2.1,1.11,1.9,2.37,2,2.5.32.4.28.54.88.5.85-.05,14.14-7.56,14.38-8.88.12-1.68-1.52-4.06-3.38-3.88-1.21.12-13.32,8.3-14.12,8.5-.02.11.4.44.25,1.25Z"/><path class="c" d="M64.75,221.62c.18-1.81-1.5-4.08-3.38-3.88-.77.08-12.85,7.42-13.38,8-.02.03-.34.04-.5.5-.08.24.06.84,0,1.25,1.97.87,1.9,2.37,2,2.5.32.4.28.54.88.5.85-.05,14.15-7.69,14.38-8.88Z"/><path class="c" d="M175.25,99.5c1.16.61,2.19,1.24,2.25,2.75.3.69,3.07-.82,4.38-1.5,7.04-3.66,14.94-7.49,8.25-11-.91-.1-14.95,7.57-14.88,9.75Z"/><path class="d" d="M218.5,219.62c.33-.41,4.98-8.72,5-9.25.05-1.47-2.64-4.04-4.38-3.62-1.28.25-6.59,9.99-6.62,10.62-.12,2.3,3.58,5.21,6,2.25Z"/><path class="d" d="M87.63,221c2.06,1.21,7.87-9.93,7.88-10.62,0-1.66-2.8-4.04-4.62-3.38-2.37,3.19-10.25,12.4-3.25,14Z"/><path class="d" d="M92.13,79c-1.66-.37-7.45,8.78-7.62,9.38-.84,2.89,2.97,6.22,5.75,3.25.34-.36,5.17-8.01,5.25-8.5.39-2.24-1.53-3.53-3.38-4.12Z"/><path class="d" d="M219.63,78.75c-1.67-.09-7.04,9.74-7.12,10.38-.32,2.47,3.37,5.39,5.75,2.75.34-.37,4.91-8.26,5-8.75.44-2.3-1.62-3.98-3.62-4.38Z"/><path class="d" d="M36.88,21.75c3.47-.29,3.23-2.71,3.38-3-1.07-2.92-.9-7.33-1.5-10-.77-3.42-2.62-4.84-5.5-2.12-.04,3.22.34,15.23,3.62,15.12Z"/><path class="d" d="M168.25,18.75c-1.08-2.78-1.02-8.18-1.5-10.25-1.06-4.57-4.74-3.52-5.5-1.88-.45.98.98,12.77,1.5,13.75.7,1.32,3.54,2.83,5.5-1.62Z"/><path class="d" d="M40,145.75c-.03-.53-1.15-8.56-1.25-9-1.25-5.35-4.92-3.39-5.5-2.12-.42.93,1,12.81,1.5,13.75.85,1.6,5.55,2.62,5.25-2.62Z"/><path class="d" d="M168.25,146.75c.01-.54-1.6-10.23-1.75-10.75-1.28-4.56-5.1-2.47-5.5-.88-.17.68,1.44,12.66,1.75,13.25,1.1,2.06,5.43,1.64,5.5-1.62Z"/><path class="c" d="M29.25,214.38c.42-1.94-1.08-4.01-3.12-3.62-.68.13-11.4,6.72-11.62,7.38-.67,1.91,1.5,4.34,3.38,4.12.69-.08,11.23-7.18,11.38-7.88Z"/><path class="c" d="M26.38,82.75c-.7.08-11.64,6.71-11.88,7.38-.67,1.91,1.42,4.4,3.38,4.12.66-.09,10.85-6.77,11.12-7.38.81-1.8-.46-4.39-2.62-4.12Z"/><path class="c" d="M157.25,214.62c.49-1.82-.87-4.3-3.12-3.88-.69.13-11.44,6.95-11.62,7.62-.43,1.6,1.15,4.25,3.88,3.62.64-.15,10.7-6.74,10.88-7.38Z"/><path class="c" d="M145.88,94.25c2.86-2.83,17.72-8.27,8.5-11.5-3.1,2.72-18.76,8.12-8.5,11.5Z"/><path class="d" d="M89.63,185.25c1.24.55,3.76-.09,4.12-1.38.25-.89-3.76-11.99-5.38-12.38h-1.75c-1.55,1.06-2,1.75-1.62,3.62.11.55,3.71,9.72,4.62,10.12Z"/><path class="d" d="M217.63,185.25c1.6.74,3.09-.12,4.12-1.38.19-.7-3.66-12.87-6.12-12.62-1.41.31-2.93,1.31-2.88,2.88.02.61,4.07,10.76,4.88,11.12Z"/><path class="d" d="M86.63,43.5c-1.01.4-1.92,1.88-1.88,2.88.03.6,3.99,10.47,4.88,10.88,1.74.79,4.61-.1,3.88-3.38-.21-.94-4.44-12.81-6.88-10.38Z"/><path class="d" d="M214.63,43.5c-.83.2-1.89,1.86-1.88,2.62.01.53,3.46,9.55,3.75,10,1.37,2.09,3.9,1.53,5.25-.25.24-.89-3.64-10.77-4-11.25-.73-.98-1.94-1.4-3.12-1.12Z"/><path class="c" d="M12.75,190.75c2.31-7.14,7.37-12.43.62-13-1.02.23-5.61,10.73-5.62,11.38-.05,1.94,2.56,3.09,4.25,2.88-.13-.53.46-.36.75-1.25Z"/><path class="c" d="M12,63.75c0-.06.62-.63.75-1,2.3-6.87,7.29-12.47.62-13-1.06.24-5.61,10.73-5.62,11.38-.05,2.09,2.54,2.99,4.25,2.62Z"/><path class="c" d="M140,63.75c.01-.08.95-1.1,1-1.25,2.53-7.24,5.8-10.87,1.88-12.75h-1.5c-1.23.3-5.72,10.99-5.38,12.38.82,1.61,2.29,1.75,4,1.62Z"/><path class="c" d="M141.38,177.75c-1.06.24-5.61,10.73-5.62,11.38-.05,1.85,2.31,3.24,4.25,2.38.4-.18.52-.41.75-.75.33-.5,4.24-10,4-11.12-.23-1.08-2.34-2.17-3.38-1.88Z"/><path class="d" d="M154.88,91c-.49.08-8.21,4.48-8.38,5.12.65,7.56,8.99,1.28,12.25-.75,1.03-2.22-1.49-4.75-3.88-4.38Z"/><path class="d" d="M26.88,91c-.49.08-8.21,4.41-8.38,5.12.81,7.6,8.72,1.32,12.25-.75.55-2.56-1.25-4.81-3.88-4.38Z"/><path class="d" d="M26.88,219c-.47.07-7.93,4.22-8.12,4.88.08,8.03,9.04,1.42,12.25-.75.29-2.31-1.64-4.52-4.12-4.12Z"/><path class="c" d="M106.63,20.75c.95-.13,6.74-8.56,6.88-9.12.52-2.14-1.57-3.67-3.62-3.38-2.01,3.01-11.39,11.91-3.25,12.5Z"/><path class="d" d="M154.88,219c-.56.1-10.09,4.85-8.12,6.88,2.08,4.76,9.27-.77,12.25-2.75.28-2.22-1.82-4.53-4.12-4.12Z"/><path class="c" d="M110.13,136.25c-2.37,2.57-11.44,12.23-3.5,12.5,1.31-.18,7.16-9.24,6.88-10.62-.66-1.26-1.9-2.04-3.38-1.88Z"/><path class="c" d="M235.38,20.5c1.72-3.32,10.8-12.01,2.5-12.25-2.32,3.16-11.72,12.81-2.5,12.25Z"/><path class="c" d="M238.13,136.25c-2.51,2.79-11.8,12.61-2.75,12.25,1.68-3.25,10.63-11.81,2.75-12.25Z"/><path class="d" d="M132.88,49.25c-2.24.26-5.65,9.65-5.38,10.88,4.2,4.65,5.77-1.89,7-5,.3-.76,4.29-5.48-1.62-5.88Z"/><path class="d" d="M130.38,189.75c2.08-.15,6.29-9.64,5.38-11.38l-2.12-1.38c-2.99.07-9.5,13.59-3.25,12.75Z"/><path class="d" d="M40.75,134.62c-.31.69.24,10.27,1.25,11.38,1.5.05,4.34.09,4.75-1.88.09-.44-.8-8.11-1-8.88-1.04-2.52-4.18-2.44-5-.62Z"/><path class="d" d="M40.75,6.62c-.31.72.3,10.08,1.25,11.38,1.51-.05,4.33.28,4.75-1.88.09-.44-.81-8.11-1-8.88-.64-2.21-4.12-2.67-5-.62Z"/><path class="d" d="M174.75,16.38c.19-.63-.47-12.88-4.12-11.12-.62.32-1.21.48-1.62,1.12-.66,1.02.05,11.07,1.12,11.62,1.14.42,4.27-.45,4.62-1.62Z"/><path class="d" d="M174.75,144.38c.17-.63-.42-12.7-4.12-11.12-3.59,0-1.21,12.5-.5,12.75,1.17.42,4.32-.5,4.62-1.62Z"/><path class="d" d="M71.5,176.38c-2.3-4.3-2.11-12.73-6.12-11.88l-1.12,1.88c1.9,2.77,2.73,16.34,7.25,10Z"/><path class="d" d="M199.5,176.38c-1.97-3.43-2.11-12.4-5.88-11.88-2.14.54-.39,5.48.62,8.38,1,2.85,1.95,7.87,5.25,3.5Z"/><path class="d" d="M199.25,48.88c-1.09-3.15-2.32-13.63-5.88-12.38l-1.12,1.88c2.33,4.59,2.69,15.19,7,10.5Z"/><path class="d" d="M71.25,48.88c-1.01-2.99-2.32-13.25-5.62-12.38-.94.47-1.14.89-1.38,1.88,2.6,5.38,2.66,14.98,7,10.5Z"/><path class="c" d="M99.13,215.5c-1.17,1.25-8.63,6.85-6.12,8.25,1.62.91,2.81-.42,3.75-.5,2.11-2.73,10.04-6.44,2.38-7.75Z"/><path class="c" d="M220.5,222.12c-.12.6.54,1.04.5,1.62.88-.19,1.7.86,3.5-.25.39-.24,7.02-5.75,5.75-6.62-1.45-4.91-9.62,4.61-9.75,5.25Z"/><path class="c" d="M227.13,87.5c-.56.12-9.28,8.04-6.12,8,1.77.95,2.06.29,3.5-.5,8.33-4.6,5.82-8.2,2.62-7.5Z"/><path class="c" d="M93.5,95.75c.17-.07,3.32-1,3.5-1,2.78-2.37,9.44-6.23,1.88-7.25-3.06,3.73-9.18,7.15-5.38,8.25Z"/><path class="d" d="M99.25,97.88c.85-1.69-.6-3.11-2.25-3.12-.18,0-3.33.93-3.5,1-4.82,2.01,2.24,5.93,5.75,2.12Z"/><path class="d" d="M221,95.5c-3.82,4.54,4.82,5.17,6.5,1.88.28-2.17-1.23-2.22-3-2.38-1.44.79-1.73,1.45-3.5.5Z"/><path class="d" d="M93,223.75c-3.33,3.24,3.05,5.27,6.5,1.88.56-1.82-1.01-2.51-2.75-2.38-.94.08-2.13,1.41-3.75.5Z"/><path class="d" d="M217.5,120.88l-1.38-.62c-1.43.19-2.69,7.35-3.12,8.88,2.84,3.33,3.4-4.37,4.5-8.25Z"/><path class="d" d="M86.63,130c1.01-1.32,4.51-10.83,1.25-9.75-.73,1.06-4.5,10.18-1.25,9.75Z"/><path class="d" d="M221,223.75c-1.59.35-1.74,3.9,2.88,3.5,3.77-.33,5.58-4.13.62-3.75-1.8,1.11-2.62.06-3.5.25Z"/><path class="e" d="M42,18c-.95-1.29-1.56-10.65-1.25-11.38.88-2.05,4.36-1.58,5,.62-.77-3.08-4-2.93-5.5-.62-.3.46.91,1.41-1.5,2.12.6,2.67.43,7.08,1.5,10,.79-1.59.61-.71,1.75-.75Z"/><path class="e" d="M42,146c-1.01-1.1-1.56-10.69-1.25-11.38.82-1.81,3.96-1.9,5,.62-.9-3.47-4.66-2.38-5.5-.62-.42.88,1.04,1.82-1.5,2.12.1.44,1.22,8.47,1.25,9,.63.14,1.37.23,2,.25Z"/><path class="d" d="M193.38,20.5l-.62,1.38c5.99,7.7,9.13-.3.62-1.38Z"/><path class="d" d="M138.63,218.5l-1.38,1.88c2.27,6.9,9.04-1.54,1.38-1.88Z"/><path class="d" d="M192.75,149.62c5.46,7.95,9.62.62.88-1.12l-.88,1.12Z"/><path class="d" d="M65.63,20.5l-.88,1.38c5.36,7.42,9.33.1.88-1.38Z"/><path class="d" d="M10.88,90.5l-1.38,1.12c.14,7.85,9.37,0,1.38-1.12Z"/><path class="d" d="M138.88,90.5l-1.38,1.12c.12,7.8,9.35.09,1.38-1.12Z"/><path class="d" d="M64.75,149.88c4.5,7.16,9.3-.29.88-1.38l-.88,1.38Z"/><path class="d" d="M10.63,218.5l-1.12,1.12c.12,7.69,9.44-.05,1.12-1.12Z"/><path class="d" d="M79.63,168.25c-3.39.55-.82,5.48,2.25,4,2.35-1.76.2-4.4-2.25-4Z"/><path class="d" d="M206,169.38c1.14,7.29,9.54-.37,1.38-1.12l-1.38,1.12Z"/><path class="d" d="M79.63,40.25l-1.62,1.38c1.42,6.71,9.25-.33,1.62-1.38Z"/><path class="d" d="M209.38,44.5c2.98-1.71.9-4.71-1.75-4.25-3.1.54-1.29,4.75,1.75,4.25Z"/><path class="c" d="M149.5,17.25l.25-1.5c-5.51-6.33-6.82,4.76-.25,1.5Z"/><path class="c" d="M148.88,145.75l.62-1v-1.25c-4.74-5.35-7.24,3.41-.62,2.25Z"/><path class="d" d="M176,227.75c-6.2-.48-1.88,7.52,1.5,2.25.12-1.01-.61-1.95-1.5-2.25Z"/><path class="c" d="M17,14.88c-1.01,3.2,5.08,4.69,4.5.88v-.25c-1.5-1.41-2.58-2.8-4.5-.62Z"/><path class="d" d="M165.25,94.62l-1.38-.62c-5.53,5.42,2.58,8.95,1.38.62Z"/><path class="d" d="M37.5,223.12l-1.38-1.12c-5.71,3.82,1.41,9.74,1.38,1.12Z"/><path class="d" d="M47.5,99.5c-5.81,1.14-.72,7.24,2,2.5-.1-.13.1-1.39-2-2.5Z"/><path class="d" d="M175.25,99.5c-5.19,1.47-.86,7,2.25,2.75-.06-1.51-1.09-2.14-2.25-2.75Z"/><path class="d" d="M47.5,227.5c-5.56.97-.86,7.34,2,2.5-.1-.13-.03-1.63-2-2.5Z"/><path class="d" d="M163.63,222.25c-5.03,5.32,2.91,8.16,1.62.62l-1.62-.62Z"/><path class="e" d="M169.25,145.62c.06-.45-.76-8.62-1.12-8.88-.24-.17-.76.52-1.62-.75.15.52,1.76,10.21,1.75,10.75.11-.44.94-.64,1-1.12Z"/><path class="d" d="M176.75,194.5c1.04.72,1.14,1.27,2.62.75,2.8-2.9-1.09-2.66-1.25-6.25-.4,3.14-2.15,3.05-1.62,5,.39.3.23.48.25.5Z"/><path class="d" d="M49,66.75c2.52,1.73,3.88-.54,3-2.38-.58-1.22-2.34-.4-1.5-3-1.52-.91-.63,1.46-.75,1.75-.24.6-1.76.95-1.25,2.88.05.04.46.72.5.75Z"/><path class="e" d="M169.25,17.62c.09-.46-1.06-8.03-1.12-9.38l-1.38.25c.48,2.07.42,7.47,1.5,10.25.52-1.18.99-1.05,1-1.12Z"/><path class="c" d="M18.5,74.38l-1.12-.62c-4.61,7.48,1.97,9.82,1.12.62Z"/><path class="d" d="M176.75,66.75c1.89,1.76,4.54-.24,3.25-2.38-.68-1.13-1.63-.18-2.12-3.38-.11,3.39-1.71,2.62-1.38,5l.25.75Z"/><path class="d" d="M48.75,194.75c1.52,1.45,3.97.35,3.5-1.88-2.73-2.6-1.53-1.99-1.75-3-.67-3.05-.64.96-.75,1.25-.19.49-1.61.67-1.25,2.88.04.27.37.37.25.75Z"/><path class="c" d="M20.38,145.75l.88-1.25v-1c-3.93-4.9-6.86,2.67-.88,2.25Z"/><path class="e" d="M80.25,126.88c.55,6.63,7.89-.76,1.62-1.38l-1.62,1.38Z"/><path class="d" d="M198.88,204.75l-.62.62c1.7,7.47,8.62,1.39.62-.62Z"/><path class="d" d="M151.38,204.5l-1.38.88c-1.73,6.5,7.92,1.95,1.38-.88Z"/><path class="c" d="M91.88,34h-1.5c-4.5,5.34,7.27,4.59,1.5,0Z"/><path class="d" d="M70.88,204.75l-.62.62c1.74,7.62,8.39,1.16.62-.62Z"/><path class="d" d="M25.5,77.88l-2.12-1.38c-5.19,2.69,2.41,7.25,2.12,1.38Z"/><path class="d" d="M25.5,205.88l-1.88-1.38c-5.62,2.31,2.05,7.48,1.88,1.38Z"/><path class="d" d="M228,192.38l-3.38-2.62c-3.7,1.45,3.35,7.24,3.38,2.62Z"/><path class="d" d="M153.5,77.88l-2.12-1.38c-5.17,2.77,2.44,7.11,2.12,1.38Z"/><path class="d" d="M95.5,63.38c3.46,6.44,7.44.03,1.12-1.38l-1.12,1.38Z"/><path class="c" d="M145.63,202c-1,0-2.01,4.74-1.88,5.62,2.97,3,3.56-5.63,1.88-5.62Z"/><path class="c" d="M145.88,74.25c-5.29,6.96,1.57,9.21.88.12l-.88-.12Z"/><path class="d" d="M70.88,76.75c-2.01,1.93,1.07,4.05,3,4.25,2.34-1.24-1.47-4.86-3-4.25Z"/><path class="d" d="M198.88,76.75l-.62.88c2.38,7.11,8.22,1.38.62-.88Z"/><path class="c" d="M17,123.62l-1.88-.62c-2.88,5.63,1.9,8.95,1.88.62Z"/><path class="c" d="M220.63,162.75l-2-.5c-4.98,4.03,5.36,5.64,2,.5Z"/><path class="d" d="M17,128.12c.79,6.45,7.92.21,1.12-1.12l-1.12,1.12Z"/><path class="d" d="M37.25,95.12l-1.38-.62c-4.9,4.73,2.32,7.85,1.38.62Z"/><path class="d" d="M82,71.62l-1.38-1.38c-6.7,1.28,1.28,7.53,1.38,1.38Z"/><path class="d" d="M99.13,194.25c2.49-1.27-1.26-4.65-2.75-4.25-2.69,1.45,1.72,4.5,2.75,4.25Z"/><path class="d" d="M146.13,127l-1.12,1.12c1.01,6.62,7.83-.09,1.12-1.12Z"/><path class="d" d="M64.5,24.62l-1.88-1.12c-5.81,2.4,1.82,7,1.88,1.12Z"/><path class="c" d="M143.88,123c-2.56-.43-2.41,7.32.62,5.12-.06-2.12,1.08-4.76-.62-5.12Z"/><path class="d" d="M60.75,152.62c-1.04,6.12,7.76.79,1.62-1.12l-1.62,1.12Z"/><path class="e" d="M106.63,92.25h-1.5c-5.07,4.33,5.78,5.76,1.5,0Z"/><path class="d" d="M224.38,61.75l-1.12,1.62c4.4,5.82,7.27.69,1.12-1.62Z"/><path class="e" d="M235.63,151.75h-1.25c-5.91,5.18,5.13,5.18,1.25,0Z"/><path class="d" d="M190.38,23.5l-1.62,1.12c-1.12,5.96,7.72,1.05,1.62-1.12Z"/><path class="c" d="M92.63,162.75l-1.75-.5c-5.45,3.97,5.39,5.56,1.75.5Z"/><path class="d" d="M188.5,152.88c-.07,5.68,7.59.51,1.88-1.38l-1.88,1.38Z"/><path class="d" d="M137.13,121l-1.38,1.12c-.35,6.14,8.02.02,1.38-1.12Z"/><path class="d" d="M9.13,121l-1.38,1.12c-.62,5.93,8.15.29,1.38-1.12Z"/><path class="d" d="M9.13,249c-5.53,4.49,5.8,5.28,1.25,0h-1.25Z"/><path class="d" d="M136.88,249c-4.74,5.02,5.98,4.83,1.5,0h-1.5Z"/><path class="d" d="M212.13,119.5l-1.62,1.12c-.07,5.51,7.51,1.19,1.62-1.12Z"/><path class="d" d="M16.88,22.5l-1.38,1.12c-.61,5.85,7.85-.03,1.38-1.12Z"/><path class="c" d="M16.38,208.25c2.44.53,2.03-4.73,1.75-6.25-.29-.22-4.04,5.24-1.75,6.25Z"/><path class="d" d="M211.63,247.75l-1.12,1.12c.84,6.06,7.43-.48,1.12-1.12Z"/><path class="d" d="M173.38,22.5l-1.5-.25c-4.92,4.11,5.15,5.38,1.5.25Z"/><path class="d" d="M83.63,247.75l-1.38,1.62c2.07,5.19,6.98-.92,1.38-1.62Z"/><path class="d" d="M84.63,119.75h-1.25c-3.99,4.86,6.82,4.54,1.25,0Z"/><path class="d" d="M145.38,22.5l-1.88,1.38c-.25,5.18,7.34.35,1.88-1.38Z"/><path class="d" d="M43.88,150.25l-1.38,1.12c.42,5.88,7.42.12,1.38-1.12Z"/><path class="d" d="M43.88,22.25l-1.38,1.12c.11,5.82,7.49.1,1.38-1.12Z"/><path class="d" d="M16.88,150.5l-1.12.88c-.99,6.21,7.63.23,1.12-.88Z"/><path class="d" d="M170.5,151.38c.33,5.81,7.41-.05,1.38-1.12l-1.38,1.12Z"/><path class="d" d="M41.38,178l-1.38.88c-1,5.81,7.37,1.33,1.38-.88Z"/><path class="d" d="M48,225.75c.43-1.57-.35-2.01-1.38-3-3.84-.55-2.35,4.41.88,3.5.16-.46.48-.47.5-.5Z"/><path class="d" d="M176,225.5c-1.22-6.96-7.35.83-.5.75.08-.74.35-.6.5-.75Z"/><path class="d" d="M147.25,151.62l-1.88-1.12c-5.11,2.62,1.57,6.2,1.88,1.12Z"/><path class="c" d="M217.25,36.12c.83,4.76,7.84-.17,1.62-1.38l-1.62,1.38Z"/><path class="d" d="M46.38,94.75c-3.14-.61-2.72,4.38.88,3.5.1-.5,2.08-1.71-.88-3.5Z"/><path class="d" d="M173.13,94.75l-.88,1.88c2.99,4.82,6.24-1.85.88-1.88Z"/><path class="d" d="M171.5,51.38l-1.88-1.38c-4.92,2.2,1.52,6.43,1.88,1.38Z"/><path class="d" d="M180.13,89.5c1.01.29,7.76-3.53,4-3.5-.74,0-6.53,1.93-4,3.5Z"/><path class="d" d="M168.88,178.25l-1.12,1.38c1.09,5.36,7.25-1.06,1.12-1.38Z"/><path class="d" d="M40.88,50.25l-1.12,1.38c1.11,5.39,7.18-1.13,1.12-1.38Z"/><path class="d" d="M97.38,156h-1c-5.65,4.52,5.3,4.81,1,0Z"/><path class="d" d="M52.13,89.5c.98.32,8.05-3.78,4.25-3.5-.78.06-6.84,2.05-4.25,3.5Z"/><path class="e" d="M227.25,30.88c.53-2.11-1-2.95-2.88-2.38-2.1.65-.74,4.65,2.88,2.38Z"/><path class="d" d="M55.88,214c-.3.03-5.05,1.72-4.38,2.88.54,1.97,9.05-3.32,4.38-2.88Z"/><path class="e" d="M9.5,242.5c3.55-2.56-1.15-3.32-1.38-3.5-.28-.22-.95-2.18-5.75-3.5-1.15.74,4.41,2.59,4.62,3.38.11.41-2.18,2.93.5,3.62-3.44-4.03,5.38-3.96,2,0Z"/><path class="e" d="M8.13,145c-5.11,4.55,2.9,7.04.88.62l-.88-.62Z"/><path class="d" d="M180.38,217.5c3.52-1.49,7.02-3.69,3.5-3.5-.93.05-6.57,2.18-3.5,3.5Z"/><path class="e" d="M138.25,241.75l.25-1.38c-1.91-1.32-4.6-3.71-4.88-3.88-6.58-4.07,1.05,2.45,1.12,2.88.06.35-1.55,2.7.75,3.12-2.97-2.99,2.93-4.51,2.75-.75Z"/><path class="e" d="M99,28.62l-1.12-.62c-6.36,2.07,2.02,6.31,1.12.62Z"/><path class="d" d="M126.38,170.5l-.62.62c1.46,6.22,7.75,1.83.62-.62Z"/><path class="e" d="M235.75,23.88l-1.12-.12c-5.6,3.84,2.83,6.04,1.12.12Z"/><path class="c" d="M203.13,209.5l-.88,1.38c2.87,4.5,7.26-1.75.88-1.38Z"/><path class="d" d="M126.63,42.25l-.88.88c1.22,5.42,7.77,3.02.88-.88Z"/><path class="d" d="M97.13,18c-1.39.57,2.49,4.69,3,5.25,2.81-.84-2.22-5.57-3-5.25Z"/><path class="d" d="M228.13,23.25c2.47-.98-2.19-5.45-3-5.25-1.53.29,2.66,5.28,3,5.25Z"/><path class="d" d="M229,149.62c-.83-.73-2.77-4.08-3.88-3.62-1.29.53,3.71,7.69,3.88,3.62Z"/><path class="c" d="M202.25,82.62c1.58,4.52,7.91-.65.88-1.12l-.88,1.12Z"/><path class="e" d="M84.63,95h-1.25c-5.08,4.14,4.78,4.48,1.25,0Z"/><path class="d" d="M15.5,63.88c-.72-.72-1.57-1.88-2.75-1.12-.13.37-.74.94-.75,1-.34,2.7,3.9,3.25,3.5.12Z"/><path class="d" d="M141,62.5c-.05.15-.99,1.17-1,1.25-.67,4.51,7.68.92,1-1.25Z"/><path class="e" d="M98.13,104l-1.88.88c-1.78,5.46,6.38.96,1.88-.88Z"/><path class="d" d="M70.63,163.25l-1.38,1.12c.3,5.23,6.72.26,1.38-1.12Z"/><path class="d" d="M199.63,163.5h-1.25c-4.02,4.5,5.87,3.89,1.25,0Z"/><path class="d" d="M140,191.5c.67,6.13,6.96-.77.75-.75-.23.34-.35.57-.75.75Z"/><path class="c" d="M74,82.88c2.93,3.98,7.27-1.45.88-1.38l-.88,1.38Z"/><path class="c" d="M75.13,209.5l-.88.88c.94,4.76,8.14.09.88-.88Z"/><path class="d" d="M9.5,242.5c3.38-3.96-5.44-4.03-2,0,.46.12,1.4-.08,2,0Z"/><path class="d" d="M97.38,146l-.62.62c4.03,7.72,6.86,4.01.62-.62Z"/><path class="d" d="M219.38,156.75h-1.25c-4.1,4.6,4.99,4.43,1.25,0Z"/><path class="d" d="M12.75,190.75c-.29.89-.88.72-.75,1.25,1.54,5.43,6.38-1.7.75-1.25Z"/><path class="d" d="M219.38,28.75h-1.25c-4.07,4.59,4.91,4.4,1.25,0Z"/><path class="d" d="M198.38,35.25l-1.12,1.12c.18,5.14,6.95-.22,1.12-1.12Z"/><path class="d" d="M92.25,29.62l-1.38-.88c-4.86,2.11,1.8,6.43,1.38.88Z"/><path class="d" d="M70.13,35.5c-3.52,4.2,5.4,4.08,1.5,0h-1.5Z"/><path class="d" d="M138.25,241.75c.18-3.76-5.72-2.24-2.75.75,1.29.03,1.81.19,2.75-.75Z"/><path class="d" d="M134.5,113.12c2.36,3.89,6.37-1.18,1.38-1.62l-1.38,1.62Z"/><path class="d" d="M7.5,114.5c1.29.03,1.81.19,2.75-.75-.04-3.9-5.66-2.09-2.75.75Z"/><path class="e" d="M96.63,232.5c-3.81,4.33,4.56,3.84,1.75,0h-1.75Z"/><path class="e" d="M136.5,147.38c.09-.21,2.96-2.22-.62-2.88-2.11,2.64,2.35,1.89-1.62,4.62,1.47,2.96,1.83-.75,2.25-1.75Z"/><path class="e" d="M209.88,126c-4.78,3.88,4.79,4.76,1,0h-1Z"/><path class="e" d="M158.88,103.25l-1.12.88c.73,5.5,6.49-.08,1.12-.88Z"/><path class="d" d="M91.38,156.75h-1.25c-3.56,4.57,4.8,4.32,1.25,0Z"/><path class="e" d="M212.88,95.25h-1.75c-4.19,3.54,4.53,4.03,1.75,0Z"/><path class="e" d="M105.88,24l-1.38,1.38c.56,4.91,6.2-1.16,1.38-1.38Z"/><path class="d" d="M105.88,196.25l-.88.88c.06,5.55,6.55-.28.88-.88Z"/><path class="d" d="M107.38,68.25h-1.25c-4.08,3.72,4.57,4.36,1.25,0Z"/><path class="d" d="M21.25,143.5v1c2.91,5.43,5.07-3.13,0-1Z"/><path class="d" d="M233.88,68.25l-1.12,1.62c1.85,4.22,5.72-1.65,1.12-1.62Z"/><path class="c" d="M94.38,235.25c-4.78,1.04-2.4,1.38-2.12,2.75l3-.25c-.16-.48-.38-2.33-.88-2.5Z"/><path class="e" d="M84.88,223.5h-2c-2.43,4.16,4.8,3.42,2,0Z"/><path class="d" d="M233.88,196.25l-.88.88c.55,5.51,6.07-.55.88-.88Z"/><path class="d" d="M207.38,70.75l-.88.88c.27,4.95,6.7-.4.88-.88Z"/><path class="c" d="M221.63,235.25c-1.49-.05-3.19,1.17-1.75,2.5,2.14,1.29,4.71-2.41,1.75-2.5Z"/><path class="d" d="M149.5,143.5v1.25c2.62,4.64,5.27-2.71,0-1.25Z"/><path class="d" d="M149.75,15.75l-.25,1.5c3.83,3.87,4.18-3.91.25-1.5Z"/><path class="d" d="M137.5,158.5c-.1-.07-.35-.45-2-1.5-3.43,1.83.79,5.36,2,1.5Z"/><path class="e" d="M233.38,220.5l-.88.62c.16,5.44,6.06.24.88-.62Z"/><path class="c" d="M222.75,108.88c.11-1.53-.36-1.86-1.88-1.62-2.97.46-.6,4.75,1.88,1.62Z"/><path class="e" d="M9.63,41h-.75c-5.02,2.51,3.68,5.28.75,0Z"/><path class="e" d="M81.63,212h-1c-4.08,3.14,4.46,4.7,1,0Z"/><path class="c" d="M95,109.5c-.49-1.01.52-2.4-2.88-2-1.42.53-.49,2.68,1.88,2.5.05-.02.1-.22,1-.5Z"/><path class="e" d="M226.38,232l-1.88.88c-.87,4.63,5.49.89,1.88-.88Z"/><path class="e" d="M137.5,18.62l-1.88-.88c-2.04,3.5,2.39,5.7,1.88.88Z"/><path class="d" d="M79.63,198.75l-1.12.88c-.21,4.47,6.18.86,1.12-.88Z"/><path class="e" d="M108,152.12l-.88-.12c-7.93,5.67,2.62,2.7.88.12Z"/><path class="e" d="M159.88,230.75l-1.38,1.12c.49,4.28,5.62.58,1.38-1.12Z"/><path class="e" d="M10.25,113.75l.25-1.38c-2.39-1.57-10-7.4-3.5-1,.03.27-2.05,2.46.5,3.12-2.91-2.84,2.71-4.65,2.75-.75Z"/><path class="e" d="M30.63,225h-1.25c-3.36,3.89,3.87,4.07,1.25,0Z"/><path class="e" d="M29.38,97c-3.6,4.18,4.29,3.64,1,0h-1Z"/><path class="d" d="M22.88,15l-.88.75c-1,4.88,5.41,1.56.88-.75Z"/><path class="e" d="M30.75,177.88l-1.12-1.12c-4.06,1.75,1.15,5.48,1.12,1.12Z"/><path class="d" d="M80.88,85c-2.9,2.26,2.88,4.21,2.12.62l-2.12-.62Z"/><path class="d" d="M209,199.88l-1.38-.88c-4.58,2.14,2.41,4.36,1.38.88Z"/><path class="e" d="M234.63,93h-1c-3.99,2.55,2.98,4.93,1,0Z"/><path class="e" d="M224.63,156.5l-1.12.88c.12,4.06,6.2-1.05,1.12-.88Z"/><path class="e" d="M228.63,104.5c-.33.03-6.37,1.96-5.88,2.62,4.13-.61,9.53-2.95,5.88-2.62Z"/><path class="e" d="M104.38,222.5l-1.12.88c.32,4.31,5.15-.04,1.12-.88Z"/><path class="e" d="M159,97.62l-.88-.38c-4.78,1.62,2.18,4.79.88.38Z"/><path class="e" d="M156.75,177.38l-1.38-.38c-3.47,2.64,2.81,4.07,1.38.38Z"/><path class="d" d="M31.38,231.5c-3.32,2.71,4.27,3.9,1,0h-1Z"/><path class="d" d="M144.25,163.25c-.59-.43-1.15-.83-1.75-1.25-3.13,1.19.9,4.51,1.75,1.25Z"/><path class="e" d="M32.38,103.5h-1.25c-2.27,2.97,4.25,3.55,1.25,0Z"/><path class="e" d="M158.38,225l-1.38.88c-.53,3.84,4.83.23,1.38-.88Z"/><path class="d" d="M148,38c-.08-.06-.7-.69-1.5-1.25-3.11.81-1.33,4.26,1.5,1.25Z"/><path class="e" d="M137.5,168.12l-.88-.62c-4.31,1.77,1.47,4.51.88.62Z"/><path class="e" d="M8.13,21.75c2-1.03,1.51-2.16.75-4-.48,1.46-2.31,2.85-.75,4Z"/><path class="e" d="M156,43.5c.89-.02,1.28-2.17.88-2.5-2.22.1-1.05,1.43-3.12.75.4.81,2.15,1.61,2.25,1.75Z"/><path class="e" d="M95.25,237.75l-3,.25c.13.66-2.66,1.45,3.62,1,.53-.73-.6-1.17-.62-1.25Z"/><path class="e" d="M209.13,84l-1.75-.25c-1.59,1.99,4.22,3.08,1.75.25Z"/><path class="e" d="M95,109.5c-.9.28-.95.48-1,.5-3.63,1.45-.17.88,1.62,1.25.96-.66-.58-1.65-.62-1.75Z"/><path class="e" d="M211,224.38c-.25,2.98,4.24.65,1.12-.62l-1.12.62Z"/><path class="e" d="M156.63,49l-.62.62c-.13,3.84,3.77.17.62-.62Z"/><path class="e" d="M133.88,109l-.38.38c1.46,3.13,2.84.55.38-.38Z"/><path class="d" d="M18.88,166c.29.13.47-.34.62-.25.1-1-.65-1.39-1.5-1.25.06.06-.06,1.07.88,1.5Z"/><path class="d" d="M21.5,15.5v.25h.5c.07-.9-.4-.15-.5-.25Z"/><path class="d" d="M13.63,37.5c1.97-.74,1.96-1.89.88-3.5-3.21-.56-3.92,2.91-.88,3.5Z"/><path class="d" d="M8.63,162.75l-1.12.88c.2,5.58,6.55-.14,1.12-.88Z"/><path class="d" d="M.88,157.5l-.62.88c.89,3.55,3.54.52.62-.88Z"/><path class="d" d="M140.13,35.75l-.88,1.62c2.53,2.96,4.32-.96.88-1.62Z"/><path class="d" d="M128.88,29.25l-.62.62c-.82,2.5,3.61,2.91.62-.62Z"/><path class="d" d="M128.75,157.25c2.5,1.72.41,2.08.25,2.25-.92.99.37,1.05,1.62,1,2.38-2.37-.78-4.89-1.88-3.25Z"/><path class="d" d="M128.75,157.25c-.39.58-.49,2.05.25,2.25.16-.17,2.25-.53-.25-2.25Z"/><path class="d" d="M206.25,112.62l-1.88-.88c-3.24,1.99,2.07,4.99,1.88.88Z"/><path class="d" d="M86.38,235.25h-1.25c-6.3,7.8,5.19,1.57,1.25,0Z"/><path class="d" d="M213.13,233.5l-1.12,1.12c.44,6.13,6.94-.33,1.12-1.12Z"/><path class="d" d="M82.88,109.5c1.87-.87,6.49-3.74,2.25-4.25-1.23.97-4.53,2.92-2.25,4.25Z"/><path class="d" d="M78.38,110l-.38,1.38c2.23,2.17,3.31-1.85.38-1.38Z"/><path class="e" d="M0,32.25v10.75c-.01-3.58.02-7.17,0-10.75Z"/><path class="e" d="M0,17.25v10.5C.02,24.25,0,20.75,0,17.25Z"/><path class="e" d="M.09,233.92c-.01-.8-.04-1.53-.08-2.17v8.77c.04-1.37.07-2.74.08-4.02.01-.91.01-1.78,0-2.58Z"/><path class="e" d="M0,174.25v10.5c.02-3.5-.01-7,0-10.5Z"/><path class="e" d="M.09,107.36c0-.43,0-.84,0-1.23-.01-.79-.04-1.51-.08-2.13v8.67c.02-.88.04-1.76.06-2.61.02-.94.03-1.84.03-2.7Z"/><path class="e" d="M0,189.25v8.25c-.02-2.75.03-5.5,0-8.25Z"/><path class="e" d="M0,46.25v10.5c.02-3.5-.01-7,0-10.5Z"/><path class="e" d="M0,61v8.5c-.01-2.83.02-5.67,0-8.5Z"/><path class="d" d="M.76,253.79c-.34-.75-.65-1.5-.76-2.29v4.5h1.75c-.13-.37-.29-.73-.47-1.1-.17-.37-.35-.74-.53-1.11Z"/><path class="c" d="M3.86,233.17c.31,0,.62-.02.92-.1.91-.23,1.75-.89,2.47-2.19.16-.29.29-.56.4-.83.21-.53.32-1.03.34-1.5.03-.71-.15-1.36-.49-1.99-.69-1.25-2.04-2.4-3.73-3.69-.57-.43-1.17-.88-1.8-1.36s-1.29-.97-1.96-1.51v11.75c.63.37,1.28.72,1.93.98.65.26,1.29.43,1.92.44Z"/><path class="c" d="M7.5,98.12c-.08-.17-.35-.44-.74-.78-.39-.34-.9-.75-1.47-1.19-.76-.58-1.62-1.22-2.44-1.81-.41-.3-.8-.58-1.17-.85-.18-.13-.36-.26-.52-.38-.33-.24-.62-.45-.85-.63-.12-.09-.22-.17-.3-.23v11.75c5.99,3.47,9.19-2.51,7.5-5.88Z"/><path class="d" d="M7,140.38c-.16-1.22-6.67-14.53-7-16.88v21.75c2.95.89,7.44-1.48,7-4.88Z"/><path class="d" d="M4.63,85c2.81.43,5.83-2.55,4.62-5.38-.27-.63-8.09-8.94-9.25-10.12v11.5c1,1,3.51,3.83,4.62,4Z"/><path class="d" d="M4.63,213c2.81.43,5.83-2.55,4.62-5.38-.27-.63-8.09-8.94-9.25-10.12v11.5c1,1,3.51,3.83,4.62,4Z"/><path class="d" d="M0,171v3.25c3.06.19,1.55-2.21,0-3.25Z"/><path class="d" d="M1.79,45.58c.07-.3-.05-.68-.28-1.06-.11-.19-.25-.38-.41-.56-.16-.18-.33-.36-.52-.52s-.38-.31-.57-.43v3.25c1.17.08,1.68-.22,1.78-.67Z"/><path class="e" d="M145,0h-.25c.1.01.19.02.25,0Z"/><path class="e" d="M17.25,0h-.31c.11,0,.22.01.31,0Z"/><path class="e" d="M21.81.01c.07,0,.15-.01.23-.01h-1.28c.12.03.28.04.46.04.18,0,.39-.01.6-.03Z"/><path class="e" d="M134.88,0h-5.13c1.04.02,2.08.03,3.12.02.67,0,1.33-.01,2-.02Z"/><path class="e" d="M6.88,0H1.75c1.7.05,3.42.03,5.13,0Z"/><path class="d" d="M229.44,1.8c1.68.56,3.77.46,5.23-.45.55-.34,1.01-.79,1.34-1.36h-9c.1.17.21.33.34.48.51.6,1.25,1.05,2.09,1.33Z"/><path class="d" d="M107.75,0h-8.5c1.58,2.54,6.5,3.31,8.5,0Z"/><path class="c" d="M189.75,0h-9.75c2.91,2.16,7.46,5.53,9.75,0Z"/><path class="c" d="M55.59,2.61c.77.37,1.58.55,2.5.37.37-.07.75-.2,1.16-.39.2-.1.41-.21.63-.34.15-.09.44-.37.74-.71.2-.22.41-.47.59-.71.28-.35.49-.67.55-.83h-9.75c.47.35.92.72,1.36,1.08.74.6,1.46,1.16,2.22,1.53Z"/><path class="d" d="M256,17.25V0h-8.5c.84,2.14,5.6,14.42,6,15.12.45.78,1.64,1.88,2.5,2.12Z"/><path class="d" d="M32.25,0h-9.25c3.03,5.19,6.41,5.55,9.25,0Z"/><path class="d" d="M160.25,0h-9.25c4.67,8.03,9.23,1.38,9.25,0Z"/><path class="d" d="M215.75,0h-2.5c-.2,2.22,1.3,3.25,2.5,0Z"/><path class="d" d="M87.75,0h-2.5c-.17,1.72,1.24,3.48,2.5,0Z"/><path class="e" d="M209.04,1.57c.36.22.78.36,1.19.41.55.07,1.09-.03,1.48-.34.1-.08.18-.17.26-.28.15-.21.25-.48.29-.81.02-.17.02-.35,0-.55h-4.25c0,.65.44,1.21,1.04,1.57Z"/><path class="c" d="M143.49.65c.16.07.3.11.39.1.25-.02.29-.61.62-.75h-2.25s.36.2.72.39c.18.1.36.19.52.26Z"/><path class="c" d="M14.86.21s.09.08.13.11c.02.02.04.03.07.05.14.08.35.1.84-.1.16-.07.36-.16.6-.27h-2.25c.2,0,.33.05.44.1.07.03.12.07.17.11Z"/><path class="e" d="M80.47,1.01c.32.44.92.66,1.54.67.99.01,2.02-.53,1.99-1.68h-3.75c-.07.41.02.75.22,1.01Z"/><path class="d" d="M1.82,17.39c1.27-.12,2.59-.66,3.57-1.53.33-.29.61-.62.85-.98.23-.36.41-.75.53-1.17.17-.63.19-1.33,0-2.09-.05-.19-.46-1.13-1.03-2.42-.23-.51-.48-1.08-.75-1.68-.53-1.2-1.12-2.51-1.66-3.74-.67-1.53-1.26-2.93-1.57-3.78H0v17.25c.19.05.38.09.58.12.4.06.81.06,1.24.02Z"/></svg>