<?xml version="1.0" encoding="UTF-8"?><svg id="a" xmlns="http://www.w3.org/2000/svg" viewBox="0 0 256 256"><defs><style>.b{fill:none;}.b,.c,.d,.e{stroke-width:0px;}.c{fill:#88cbeb;}.d{fill:#ffabbb;}.e{fill:#fff;}</style></defs><path class="b" d="M254.47,136.53c.14-.01.27-.01.41-.01-.13,0-.27,0-.41.01Z"/><path class="b" d="M254.33,107.7c-.31-.34-.64-.7-.97-1.07.33.37.66.73.97,1.07Z"/><path class="b" d="M246.72,68.58c-.45-.17-.89-.35-1.3-.53.41.18.84.36,1.3.53Z"/><path class="b" d="M253.36,106.63c-.33-.37-.67-.74-.99-1.11.32.36.66.74.99,1.11Z"/><path class="b" d="M244.27,67.5c-.36-.19-.69-.38-1-.57.3.2.64.39,1,.57Z"/><path class="b" d="M29.98,2.09c.24.31.42.63.52,1-.1-.37-.28-.69-.52-1Z"/><path class="b" d="M253.24,136.8c.4-.15.82-.24,1.23-.27-.41.03-.83.12-1.23.27Z"/><path class="b" d="M245.95,196.32c-1.06-.44-1.99-.91-2.73-1.43.73.51,1.67.98,2.73,1.43Z"/><path class="b" d="M255.48,210.63c-.2.11-.33.28-.39.48.06-.2.19-.37.39-.48Z"/><path class="b" d="M255.31,212.53c-.15-.32-.25-.67-.27-.98.01.31.12.66.27.98Z"/><path class="b" d="M28.57.61c.37.38.71.7,1.01,1.02-.3-.32-.64-.64-1.01-1.02Z"/><path class="b" d="M254.63,176.49c-.21.77-.15,1.59.22,2.3-.37-.71-.42-1.53-.22-2.3Z"/><path class="b" d="M251.16,138.61c.1-.24.23-.46.4-.66-.17.2-.3.43-.4.66Z"/><path class="b" d="M251.48,3.37c.09.23.14.47.14.71,0-.24-.05-.48-.14-.71Z"/><path class="b" d="M241.5,65.01c.24.7.87,1.33,1.78,1.92-.91-.59-1.54-1.22-1.78-1.92Z"/><path class="b" d="M250.64,1.95c.34.48.66.95.84,1.42-.17-.47-.49-.93-.84-1.42Z"/><path class="b" d="M241.44,63.9c.06-.26.17-.53.33-.81-.16.28-.27.55-.33.81Z"/><path class="b" d="M250.13,1.21c.17.25.34.5.51.74-.17-.24-.35-.49-.51-.74Z"/><path class="e" d="M79.73,256h2.52c-.21-.05-.52-.07-.88-.06-.48,0-1.06.04-1.64.06Z"/><path class="e" d="M254.04,256h1.21c-.33,0-.75,0-1.21,0Z"/><path class="e" d="M11.6,256h7.4c-2.47-.04-4.93-.02-7.4,0Z"/><path class="e" d="M229.94,256h12.06c-1.63-.15-6.72-.09-12.06,0Z"/><path class="e" d="M207.6,256h2.65c-.49-.12-1.57-.05-2.65,0Z"/><path class="d" d="M78.88,248.25c-2.08-1.17-8.34,5.31-10.88,7.75h9.75c3.04-2.9,5.97-4.35,1.12-7.75Z"/><path class="d" d="M206.12,248c-1.78-.24-7.84,5.79-10.12,8h9.5c3.19-3.04,6.79-4.56.62-8Z"/><path class="e" d="M256,100v-7.96c-.09,3.47-.21,7.01,0,7.96Z"/><path class="e" d="M256,228v-7.96c-.09,3.47-.21,7.01,0,7.96Z"/><path class="d" d="M250.5,231.62c.22.5,2.45,2.85,5.5,5.9v-9.53c-3.44-2.67-6.85.52-5.5,3.62Z"/><path class="d" d="M250.25,102.88c.04.24.99,1.38,2.12,2.65.32.36.66.74.99,1.11.33.37.66.73.97,1.07.77.84,1.42,1.54,1.67,1.8v-9.5c-2.87-2.32-6.27-.18-5.75,2.88Z"/><path class="d" d="M242.88,61.75c-.5.47-.86.92-1.1,1.34-.16.28-.27.55-.33.81-.09.39-.07.76.05,1.11.24.7.87,1.33,1.78,1.92.3.2.64.39,1,.57.36.19.75.37,1.16.55.41.18.84.36,1.3.53,2.71,1.05,6.1,2.03,9.28,3.17v-6.75c-4.03-1.29-10.96-4.59-13.12-3.25Z"/><path class="d" d="M241.5,191.88c-.18,1.19.5,2.16,1.72,3.02.73.51,1.67.98,2.73,1.43,2.83,1.19,6.6,2.2,10.05,3.43v-6.75c-6.43-2.07-13.79-5.88-14.5-1.12Z"/><path class="c" d="M251,11.38c-.02.66,4.27,8.35,5,9.62v-12.25c-1.82-.75-4.92.46-5,2.62Z"/><path class="c" d="M254.87,136.52c-.13,0-.27,0-.41.01-.41.03-.83.12-1.23.27-.66.24-1.27.64-1.68,1.15-.17.2-.3.43-.4.66-.1.24-.15.49-.16.76-.02.58,4.3,8.4,5,9.62v-12.25c-.23-.1-.47-.16-.73-.2-.13-.02-.26-.03-.4-.03Z"/><path class="d" d="M254.63,176.49c-.21.77-.15,1.59.22,2.3.24.47.62.89,1.15,1.21v-5.5c-.69.5-1.16,1.22-1.37,1.99Z"/><path class="d" d="M256,52v-5.25c-1.84,1.45-2.25,3.96,0,5.25Z"/><path class="d" d="M256,85.5v-3c-1.69.12-.79,2.33,0,3Z"/><path class="d" d="M255.09,211.11c-.04.13-.06.28-.05.44.01.31.12.66.27.98.19.4.44.76.69.97v-3c-.21.01-.38.06-.52.13-.2.11-.33.28-.39.48Z"/><path class="e" d="M164.12,254c.91-.35,18.31-2.75,19.25-2.5,1.07.28,2.5,2.37,1.62,4.5h11c2.28-2.21,8.35-8.24,10.12-8,6.17,3.44,2.57,4.96-.62,8h2.1c1.08-.05,2.16-.12,2.65,0,.49-4.56,4.19-.11,4.5,0h15.19c5.35-.09,10.43-.15,12.06,0-1.25-1.75-5.81-6.02-1.88-7.75,4.12-1.81,7,7.19,9.38,7.75h4.54c.46,0,.88,0,1.21,0-2.3-3.55-9.44-11.05-8-13.62,3.35-3.71,6.25-.37,8.75,3.5v-8.34c-3.05-3.06-5.28-5.4-5.5-5.9-1.35-3.11,2.06-6.29,5.5-3.62-.21-.95-.09-4.49,0-7.96v-6.54c-.25-.21-.5-.57-.69-.97-.15-.32-.25-.67-.27-.98,0-.16,0-.31.05-.44.06-.2.19-.37.39-.48.14-.07.31-.12.52-.13v-10.75c-3.45-1.23-7.22-2.25-10.05-3.43-1.06-.44-1.99-.91-2.73-1.43-1.22-.85-1.9-1.83-1.72-3.02.71-4.75,8.07-.95,14.5,1.12v-13c-.53-.32-.91-.74-1.15-1.21-.37-.71-.42-1.53-.22-2.3.21-.77.68-1.49,1.37-1.99v-6c-4.19,1.16-3.39-3.05,0-2.75v-16.75c-.7-1.23-5.02-9.04-5-9.62,0-.27.07-.52.16-.76.1-.24.23-.46.4-.66.41-.51,1.02-.9,1.68-1.15.4-.15.82-.24,1.23-.27.14-.01.27-.01.41-.01.13,0,.27.01.4.03.26.04.5.1.73.2v-8.75c-1.36-.1-8.85-10.66-9-11.38-.55-2.68,2.21-4.51,4.62-3.88.72.19,3.68,4.34,4.38,5.25v-8.5c-.25-.26-.9-.95-1.67-1.8-.31-.34-.64-.7-.97-1.07-.33-.37-.67-.74-.99-1.11-1.13-1.27-2.08-2.41-2.12-2.65-.52-3.06,2.88-5.19,5.75-2.88-.21-.95-.09-4.49,0-7.96v-6.54c-.79-.67-1.69-2.88,0-3v-10.75c-3.18-1.14-6.57-2.12-9.28-3.17-.45-.17-.89-.35-1.3-.53-.41-.18-.8-.36-1.16-.55-.36-.19-.69-.38-1-.57-.91-.59-1.54-1.22-1.78-1.92-.12-.35-.14-.72-.05-1.11.06-.26.17-.53.33-.81.24-.42.61-.87,1.1-1.34,2.16-1.34,9.1,1.96,13.12,3.25v-13c-2.25-1.29-1.84-3.8,0-5.25v-6.5c-4.21,1.49-3.38-2.74,0-2.5v-16.75c-.73-1.28-5.02-8.97-5-9.62.08-2.17,3.18-3.37,5-2.62V0h-1.96c-.63,0-1.33.03-2,.04-.29,0-.57.01-.83.02-.8.01-1.45,0-1.71-.06.15.43.38.83.63,1.21.17.25.34.5.51.74.34.48.66.95.84,1.42.09.23.14.47.14.71,0,.6-.34,1.22-1.24,1.92-.84.65-1.67.74-2.48.49-.4-.13-.8-.34-1.19-.62-.39-.28-.77-.62-1.13-1-.55-.57-1.07-1.23-1.55-1.9-.8-1.11-1.49-2.22-2.02-2.96h-12.06c-7.01.11-14.46.26-15.19,0-.34.98-.89,1.35-1.48,1.4-1.18.1-2.56-1.1-2.94-1.36-.04-.03-.07-.04-.08-.05h-2.65c-.77.04-1.55.06-2.1,0-1.25,1.19-9.97,9.23-10.62,9.5-2.33.97-5.06-1.31-4.38-4.12.11-.47,4.68-4.58,5.5-5.38h-11c-.46.89-1.22,1.25-2.12,1.5-.89.25-17.34,2.64-18.25,2.5-.95-.15-1.74-1.13-2.14-2.18-.16-.42-.25-.86-.27-1.25,0-.2,0-.39.03-.56h-6.25c1.54,1.74,2.9,2.38,2.5,4.38-3.62,5.38-5.75,1.05-11.5-4.38h-25.75c.87,1.24,2.6,3.19,2.25,4.62-4.64,5.94-6.59-2.22-10-4.62h-27c-.39,3.5-3.94.08-4.25,0h-2.52c-.07,0-.15,0-.22.01-.65.03-1.28.04-1.76-.01-1.2,1.15-10.21,9.23-10.88,9.5-2.13.86-4.92-1.31-4.62-3.62.11-.86,4.77-4.93,5.75-5.88h-11c-.46.89-1.22,1.25-2.12,1.5-.89.25-17.34,2.64-18.25,2.5-.95-.15-1.74-1.13-2.14-2.18-.16-.42-.25-.86-.27-1.25,0-.2,0-.39.03-.56h-6.25c.19.22.38.42.57.61.37.38.71.7,1.01,1.02.15.16.28.31.4.47.24.31.42.63.52,1s.1.78,0,1.28c-3.72,5.3-5.65,1.14-11.5-4.38h-7.4C8.07.03,4.53.07,1,0H0v8.75c.36.15.99.81,1.25,1.12.64.79,8.63,15.24,9.75,17.75-5,5.26-5.64,2.75-11-6.62v16.75c1.73.12,2.12,1.75,0,2.5v6.5c.61-.48,12.86-7.13,13.62-7.25,3.01-.48,5.42,3.08,3.25,5.25-.57.57-13.45,7.6-14.25,7.75-.94.18-1.8-.03-2.62-.5v13c2.7.86,16.94,5.4,17.88,6,2.81,1.81,1.01,6.39-1.75,6.25-.85-.04-14.07-4.76-16.12-5.5v10.75c5.32.93,3.24,5.75,0,3,.12,1.42.07,3.96,0,6.54v7.96c.48,2.16,29.9,28.55,30.5,30.62.72,2.49-2.64,5.22-4.88,3.88-8.18-8.65-17.41-16.41-25.62-25v8.5c2.98,3.89,7.31,8.22,0,10v8.75c1.01.43,10.11,16.38,11,18.88-4.91,5.31-5.63,2.76-11-6.62v16.75c.46.04.79.15,1.01.31.15.1.25.23.31.36.12.27.09.59-.04.9-.23.54-.76,1.04-1.28,1.18v6c.62-.45,11.44-5.43,13.62-7,2.87-.45,6.06,3.12,2.5,5.75-.62.46-12.75,7.12-13.5,7.25-.92.16-1.81-.01-2.62-.5v13c2.32.75,17.34,5.7,18.12,6.25,2.54,1.78.92,6.17-2,6-.85-.05-14.02-4.75-16.12-5.5v10.75c5.05.46,3.22,5.71,0,3,.12,1.42.07,3.96,0,6.54v7.96c.43,1.93,24.52,24.08,28,28h6.25c.12-.63,1.27-1.77,1.88-2,.91-.35,18.31-2.75,19.25-2.5,1.34.35,2.46,2.44,1.62,4.5h11c2.53-2.44,8.79-8.92,10.88-7.75,4.85,3.4,1.92,4.85-1.12,7.75h1.98c.58-.03,1.16-.06,1.64-.06.36,0,.67.01.88.06-.89-3.46,4.08-1.67,4.25,0h27c-2.17-3.39-5.69-7.32.88-8,1.79,2.18,5.46,5.98,6.88,8h6c-1.72-2.51-8.81-10.69-8.25-13.12,5.36-7.28,10.19,6.5,13.5,9.75-.65,1.73-2.33,2.14-3.5,3.38h18c-2.99-2.82-23.81-22.79-24.5-24.38-1.18-2.73,1.23-5.09,3.88-4.62,7.79,8.01,23.11,21.66,29.62,29h6.25c.12-.63,1.27-1.77,1.88-2ZM170.62,228.5l.88.38c-.51,5.77-7.73,3.18-.88-.38ZM171.62,218c-.69.42-14.94,3.53-15.75,3.5-2.86-.12-4.67-4.7-1.25-6.25.68-.31,13.76-3.23,14.5-3.25,4.21-.14,4.31,4.91,2.5,6ZM161.12,223.75h1.25c4.05,1.54-9.61,8.37-1.25,0ZM33.5,169.12c-.44-1.53.07-24.63.75-26,.23-.46,1.82-1.79,2.38-1.88,3.72-.58,4.24,3.58,3.88,6.38-1.28,3.85.76,21.52-2.62,22.88-1.81.72-4.08-.36-4.38-1.38ZM31.75,178.38l.88-1.12c6.1,1.78,1.38,7.25-.88,1.12ZM37.12,132c-3.05-.17-4-4.8-1-6,.86-.34,17.33-2.82,18.25-2.75,2.97.23,4.18,4.92,1.25,6-.88.32-17.57,2.8-18.5,2.75ZM42.62,100.5l.88.62c-1.07,5.78-7.28,2.31-.88-.62ZM141.62,39.5c2.87-.51,5.54,3,3.25,5.25-.58.57-13.45,7.61-14.25,7.75-2.66.45-4.31-1.45-4.12-4.12.24-1.07,14.26-8.72,15.12-8.88ZM125.62,40.5c-1.74-1.17.76-2.71,2-2.75,2.96-.1,2.26,3.11-2,2.75ZM135.38,55.75c1.08-.11,18.74,8.72,19.5,9.5,2.07,2.14-.01,5.55-2,5.75-1.38.14-19.62-9.27-20.12-10.38-.81-1.78.56-4.67,2.62-4.88ZM149.88,87.75c-.62.64-14.87,8.15-15.75,8.25-2.35.27-4.28-2.35-3.62-4.62.26-.91,15.44-8.99,16.38-9.12,2.78-.39,5.08,3.34,3,5.5ZM163.12,111.75c2.48,1.55,1.24,5.57-.75,6-1.19.26-18.92-5.87-19.75-6.5-2.13-1.63-.86-5.78,1.75-6,.99-.08,17.91,5.97,18.75,6.5ZM161.88,95.5c3.15,1.53-.81,3.21-2.25,4.5-2.29.29-1.14-3.16,2.25-4.5ZM182.38,123.25c3.02.26,4.15,4.93,1.25,6-.88.32-17.57,2.8-18.5,2.75-3.05-.17-4-4.79-1-6,.86-.35,17.33-2.83,18.25-2.75ZM170.12,100.75c3.24-.38.53,3.56-1.75,3.75-1.8-1.07.65-3.62,1.75-3.75ZM247.12,156.75c-1.29,1.31-10.78-3.86-11.12-4.38-.78-1.5-.19-2.01.25-3.38-1.88,1.11-5.24.05-5.5-2.38-.15-1.39,6.28-13.57,8.12-13.88,7.92,1.02,2.13,5.97-1.38,13.75,3.97,3.14,15.14,4.62,9.62,10.25ZM222.38,121.25c-1.77-.35-3.06-3.89-1.25-5.5,2.84-1,18.68-8.6,19.75-8.75,3.07-.42,5.13,3.67,3,5.5-.88.76-20.36,8.97-21.5,8.75ZM238,181.62c-.45,1.07-15.31,15.91-16.38,16.38-2.43,1.06-5.77-1.6-4.12-4.62.54-.99,14.67-15.54,15.62-16.12.1-.06,1.18-.49,1.25-.5,2.55-.43,4.6,2.57,3.62,4.88ZM240.75,212.38c.37,2.11-3.09,4.07-4.88,3.62-.97-.24-10.04-16.13-10.12-17.12-.13-1.5,1.63-3.25,3.12-3.38,1.19-.1,2.03.25,2.88,1.12.63.65,8.85,14.86,9,15.75ZM167.5,168.62c-1.89,3.61-5.63,1.77-6,.5-.35-1.23.05-24.19.5-25.5.21-.62,1.88-2.26,2.62-2.38,1.84-.29,3.55,1.1,3.88,2.88.26,1.43-1.05,20.24-1,24.5ZM161.88,177.5c5.21,4.94-3.92,4.89-1.5,0h1.5ZM172.12,184.5c2.38-.44,4.92,1.7,4.38,4.12-.23,1.05-12.09,14.4-13.62,16.62-2.31,1-5.23-1.36-4.62-3.88.26-1.06,12.15-14.8,13.88-16.88ZM180.62,143.25c5.03-.64,2.69,6.57-3.25,8-5.19-1.5,2.53-7.91,3.25-8ZM195.12,76c-2.62-1.91-1.04-5.4,1-5.75.31-.05,1.17-.05,1.5,0,1,.15,17.74,7.58,18.5,8.25,2.03,1.79.72,6-3,5.5-.98-.13-17.2-7.42-18-8ZM210.25,94.88c-1.79,2.45-6.52-2.8-4.12-3.62,1.18-.77,4.22,3.2,4.12,3.62ZM199.5,114.38c-4.27,5.67-6.33-7.56-3.38-8.38,3.72-.77,2.63,5.42,3.38,8.38ZM205.38,120c1.96-.17,4.87,2.58,3.88,4.62-2.13,1.52-13.48,12.5-14.38,12.88-2.64,1.1-5.68-2.05-4.12-4.62.5-.84,13.65-12.79,14.62-12.88ZM205.12,139.75c2.51-.12,5.38,2.38,3.88,4.88-.79,1.31-20.44,17.29-23.38,19.62-2.09.17-4.68-2.58-3.62-4.62.7-1.36,20.27-17.37,23.12-19.88ZM177.62,168c1.32-.41,1.43,2.49,2.62,4.62-1.53,3.65-4.15-4.23-2.62-4.62ZM181,199.38c.3-.83,1.5-2.23,2.38-2.38,2.15-.36,4.1,1.73,4.12,3.88,0,.65-2,12.15-2.25,12.75-1.22,2.97-5.28,1.76-6,0-.27-.67,1.35-13.13,1.75-14.25ZM186.12,182.5l1.12.38c-1.91,8.17-5.5,5.75-1.12-.38ZM187.12,179.75c-2.57.49-4.49-2.07-3.88-4.38.26-1,16.35-10.74,17.38-10.88,2.24-.31,4.1,2.33,3.62,4.38-.36,1.54-14.91,9.01-17.12,10.88ZM217.62,176.25c2.62-.14,4.66,3.81,2.5,5.75-.78.7-18.2,8.2-19.25,8.25-2.19.1-4.28-3.82-2.25-5.75.75-.71,17.97-8.2,19-8.25ZM195.88,198.25c.65-.15,1.81.07,2.5.25.93.24,16.75,7.16,17.5,7.75,2.69,2.11.7,6.11-2.5,5.75-1.07-.12-18.91-8.16-19.38-9.12-.94-1.96.84-4.38,1.88-4.62ZM218.88,172.25c-.78-.48-13.04-11.77-13.38-12.62-.68-1.76.83-3.51,2.38-4.12.47.06,1.07-.09,1.5,0,.97.19,14.48,12.21,14.88,13.12.9,2.09-1.87,5.78-5.38,3.62ZM210.25,126.88l.88-.88c7.93,1.46.17,6.25-.88.88ZM220.62,152.75c3.62-.46,2.8,3.66-.5,3-2.31-.46-1.37-2.76.5-3ZM218.25,150.88c-2.3,2.17-5.99-.56-5.75-2.75.11-1.01,10.03-16.53,10.75-17.25.34-.34,1.31-1.06,1.62-1.12,2.25-.43,4.85,1.24,4.62,3.62-1.95,2.37-10.49,16.79-11.25,17.5ZM228,97.38c-2.08,1.68-14.17,13.72-15.12,14.12-2.77,1.16-5.57-1.56-4.38-4.38.4-.94,14.13-13.62,15.12-13.88,2.45-.62,4.76,1.81,4.38,4.12ZM225.75,70.38c.04-.89,1.48-2.44,2.38-2.62.27-.06,2.01-.06,2.25,0,.94.23,9.75,15.01,10.12,16.38.6,2.19-2.46,3.88-4.38,3.88-1.18-.23-10.42-16.6-10.38-17.62ZM238,53.62c-.46,1.09-15.71,16.4-16.88,16.62-2.54.49-5.09-2.18-3.62-4.88.53-.97,14.44-15.28,15.38-15.88,1.07-.68,1.51-.32,2.25-.75,2.29.36,3.76,2.76,2.88,4.88ZM219.88,54.25c-.8.6-17.26,7.86-18.25,8-3.31.46-5.22-3.66-2.75-5.75.78-.66,17.73-8.14,18.75-8.25,3.19-.33,4.65,4.2,2.25,6ZM203.12,42.25c-.69.62-15.08,9.33-16,9.5-2.44.44-4.45-2.06-3.88-4.38.25-.99,16.12-10.69,17.12-10.88,2.69-.49,5.51,3.26,2.75,5.75ZM187.25,54.88c-1.6,7.9-5.56,5.98-1.12-.38l1.12.38ZM183.38,69c2.12-.37,4.07,1.5,4.12,3.62.02.62-1.81,11.66-2,12.25-1.28,4.06-5.53,2.52-6.25.75-.27-.67,1.34-13.12,1.75-14.25.3-.83,1.5-2.22,2.38-2.38ZM178.75,45.62c-.25-.91-2.77-5.2-1.12-5.62,1.11-.29,4.1,6.66,1.12,5.62ZM194.12,89.5c1.72-.22,4.74,1.97,3.38,4.88-.63,1.34-17.04,19.25-19.62,22.12-2.19.28-5.19-1.36-4.38-3.88.48-1.47,19.09-22.93,20.62-23.12ZM139,94.88l.88-1.38c7.56,2.66,3.31,6.91-.88,1.38ZM127,83.12l.62-.62c7.48,1.2,1.49,7.54-.62.62ZM127.12,99.5c1.96,1.02,27.14,27.46,31.38,31.12.67,2.3-2.3,5.19-4.88,3.88-1.95-1-26.93-27.2-31.12-30.88-.88-2.04.52-4.32,2.12-4.62,1.03-.2,1.63.05,2.5.5ZM140.12,145.75c.47-.31,9.94-3.97,10.5-4,2.56-.13,4.82,4.02,2.25,5.75-.53.36-10.96,4.24-12,4-1.75-.4-3.24-4.08-.75-5.75ZM136.5,131.38l.62-.62c7.24,1.07.84,7.16-.62.62ZM148,162.88c.13-.8,1.75-2.45,2.62-2.62,1.94-.38,3.61.47,4.12,2.38.36,1.35,1.36,15.11,2.25,19.5-1.24,3.25-5.63,3.52-6.5,1-.33-.96-2.66-19.24-2.5-20.25ZM127.62,128c-.7-.13-8.48-10.67-8.62-11.38-.44-2.15,1.52-4.14,3.62-4.12,2.39.02,7.84,9.56,9.62,11.62.4,1.9-3.07,4.17-4.62,3.88ZM125.5,86.38c-.32,1.1-15.24,15.7-16.38,15.88-2,.3-5.04-2.08-3.62-4.88.48-.95,14.34-14.62,15.38-14.88,2.35-.58,5.38,1.29,4.62,3.88ZM119.12,156.75c-1.28,1.28-10.79-3.86-11.12-4.38-.92-1.41-.18-2.15.25-3.38-1.88,1.11-5.24.05-5.5-2.38-.14-1.26,5.78-11.98,6.25-12.5,1.92-2.15,4.09-1.55,5.75.5.71,2.01-3,7.17-5.25,12.12,4.43,2.71,14.98,4.57,9.62,10ZM95.88,121.25c-3.5.43-4.69-4.02-2.25-5.75,1.25-.89,15.81-6.59,19.25-8.5,2.9-.38,5.66,3.58,2.5,5.75-1.25.86-16.12,6.72-19.5,8.5ZM91.62,172.75c-.9-.35-13.78-12.23-14.12-13.12-.73-1.88,1.4-3.95,2.12-4.12.23-.06,1.48-.05,1.75,0,.99.19,14.86,12.4,15.12,13.38.47,1.71-2.02,5-4.88,3.88ZM92.12,182c-.75.73-18.2,8.2-19.25,8.25-2.27.1-4.2-3.89-2.25-5.75.76-.72,18.2-8.24,19.25-8.25,2.22-.02,4.44,3.6,2.25,5.75ZM84.88,111.5c-2.78,1.2-5.63-1.93-4.12-4.62.49-.88,13.9-13.38,14.88-13.62,2.74-.67,4.9,2.27,4.38,4.12-.28,1-14.18,13.71-15.12,14.12ZM82,127.38l.88-1.38c6.86.66,2.52,6.66-.88,1.38ZM78.12,91.25h1c8.27,6.92-3.69,4.3-1,0ZM85.12,84c-.97-.16-17.21-7.41-18-8-2.7-2-.92-5.44,1-5.75,1.06-.17,18.9,7.36,19.75,8,2.54,1.91.84,6.35-2.75,5.75ZM76.12,120.5c.19-.09,1.42-.5,1.5-.5,1.99-.06,4.64,2.66,3.62,4.62-2.09,1.54-13.49,12.5-14.38,12.88-2.66,1.12-5.64-2.06-4.12-4.62.46-.78,12.56-11.97,13.38-12.38ZM68.12,106c3.32-1.49,4.32,9.17,2,9.75-3.18,1.33-4.76-9.07-2-9.75ZM77.12,139.75c2.31-.23,5.13,2.32,4.12,4.62-.62,1.41-20.84,17.46-23.62,19.88-2.17.14-4.58-2.56-3.62-4.62.64-1.39,20.31-17.41,23.12-19.88ZM92.62,152.75c4.25-.64,2.46,5.24-1.88,2.12-.27-.86,1.09-2.01,1.88-2.12ZM90.5,150.38c-2.82,2.81-6.65-.04-5.75-3,.32-1.04,10.93-17.39,12.38-17.62,1.78-.29,4.6,1.34,4.38,3.38-.11,1.02-10.28,16.53-11,17.25ZM108.12,88c-1.07-.21-10.21-15.89-10.38-16.88-.25-1.54,1.34-3.43,2.88-3.62.95-.12,2.16.22,2.88.88.68.63,9.13,15.08,9.25,16,.21,1.63-2.74,3.99-4.62,3.62ZM110,53.62c-.45,1.07-15.3,15.94-16.38,16.38-2.55,1.04-5.62-1.67-4.12-4.62.5-.99,14.43-15.3,15.38-15.88.53-.33,1.89-.75,2-.75,2.36-.03,4.02,2.76,3.12,4.88ZM92.12,54c-.75.68-17.5,8.12-18.5,8.25-3.23.41-5.22-3.69-2.75-5.75.78-.65,17.5-8.12,18.5-8.25,3.45-.44,4.64,4.05,2.75,5.75ZM75.38,42.25c-.73.71-16.74,9.89-17.75,9.75-1.68-.23-3-3.11-2.62-4.62.25-1,16.37-10.67,17.38-10.88,3.05-.61,5.51,3.34,3,5.75ZM59.25,55.12c-1.27,8.28-6.19,4.65-.88-.62l.88.62ZM55.38,69c2.04-.34,4.04,1.57,4.12,3.62.03.69-2.15,12.91-2.5,13.5-1.34,2.26-5.06,1.2-5.75-.5-.27-.67,1.45-13.43,1.75-14.25.31-.83,1.5-2.23,2.38-2.38ZM51.38,45.75c-1.17.3-3.1-5.35-1.75-5.75,1.24-.6,3.14,5.26,1.75,5.75ZM63.5,91.62c1.11-1.04,1.45-1.76,3.12-2.12,2.01.36,4.01,2.53,3.12,4.62-.58,1.38-17.39,19.5-19.88,22.38-3.36-.04-5.49-1.52-3.62-4.88.64-1.15,15.71-18.56,17.25-20ZM52.62,143.25c3.42-.43,4.5,3.24-1.75,8-7.72-.13.65-7.86,1.75-8ZM49.62,168c1.41-.42,1.23,2.46,2.62,4.62-1.33,3.51-4.27-4.2-2.62-4.62ZM53,199.12c.24-.63,1.64-2.01,2.38-2.12,2.2-.35,4.11,1.69,4.12,3.88,0,.67-2.17,12.66-2.5,13.25-1.27,2.23-4.98,1.39-5.75-.5-.29-.71,1.49-13.82,1.75-14.5ZM58.12,182.5c2.5-.85-.67,5.4-1,5.5-2.52.8.35-5.32,1-5.5ZM59.12,179.75c-2.83.5-4.4-2.48-3.88-4.38.27-.98,16.12-10.69,17.12-10.88,2.23-.41,4.44,2.13,3.88,4.38-.25.99-16.12,10.7-17.12,10.88ZM67.88,198.25c.26-.06,1.45-.05,1.75,0,1,.17,17.75,7.57,18.5,8.25,2.16,1.95.47,6.08-3,5.5-.97-.16-17.21-7.41-18-8-2.84-2.1-.64-5.43.75-5.75ZM89.5,193.38c.52-.97,14.45-15.27,15.38-15.88.48-.31,1.89-.75,2-.75,2.35-.02,4.02,2.76,3.12,4.88-2.54,2-14.87,15.6-15.88,16.12-3.12,1.62-6.18-1.47-4.62-4.38ZM100.38,195.75c1.17-.22,2.55-.03,3.38.88.62.68,8.94,15.08,9,16,.08,1.28-2.77,3.93-4.88,3.38-1.48-1.7-10.05-16.13-10.12-17.12-.09-1.25,1.42-2.9,2.62-3.12ZM98.12,168.75c-1.96-1.93.36-5.37,2.25-5.5,1.12-.08,19.6,8.33,20.5,9,3.18,2.38.36,5.92-2.25,5.75-1.12-.07-19.7-8.46-20.5-9.25ZM118.88,134.25c-.58-.25-7.61-9.3-7.88-9.88-1.05-2.26.58-4.12,1.62-4.38.22-.05,1.82-.05,2,0,.66.19,8.34,10,8.62,10.62,1.2,2.68-1.96,4.68-4.38,3.62ZM125.88,136.5c3.5-1.74,9.79,14.18,13.12,18.38.1,1.05-3.52,5.27-6,2.5-.67-.75-9.91-16.5-10-17.5-.13-1.46,1.47-3.02,2.88-3.38ZM127.12,165.75c3.31-.39,3.28,2.94-1.5,2.75-1.39-1.06.22-2.6,1.5-2.75ZM126.5,176.12c.25-.84,14.26-8.48,15.12-8.62,3-.5,5.45,3.01,3.25,5.25-.57.58-13.45,7.61-14.25,7.75-3.14.53-4.65-2.59-4.12-4.38ZM135.38,183.75c1.07-.1,18.43,8.56,19.25,9.25,2.61,2.21.17,5.8-1.75,6-1.38.14-19.62-9.25-20.12-10.38-.76-1.69.65-4.68,2.62-4.88ZM177.88,244.5c-3.32-.13-5.53-1.52-3.62-4.88.73-1.29,18.4-21.94,19.88-22.12,1.81-.23,4.78,2.14,3.38,4.88-.67,1.32-16.92,19.17-19.62,22.12ZM198.12,243.75c-3.58.91-4.69-9.75-1.5-10,2.63-.41,3.78,9.48,1.5,10ZM206.12,219.25h1.25c7.43,7.25-3.89,4.03-1.25,0ZM212.88,239.5c-2.8,1.19-5.57-1.57-4.38-4.38.41-.96,14.35-13.92,15.38-14.12,1.87-.37,4.86,2.59,4.12,4.38-.39.96-14.17,13.72-15.12,14.12ZM243.88,240.5c-.88.74-20.11,8.94-21.25,8.75-1.96-.32-3.24-3.93-1.5-5.5,3-1,18.68-8.58,19.75-8.75,3.03-.49,5.17,3.67,3,5.5ZM248.88,210.5c2.51-.63,5.56,1.33,4.38,4.12-.44,1.04-15.01,15.46-16.12,15.62-2,.3-5.04-2.08-3.62-4.88.48-.95,14.34-14.62,15.38-14.88ZM246.62,178c-1.12-.07-19.69-8.47-20.5-9.25-1.84-1.76.19-5.35,2.25-5.5,1.12-.08,19.61,8.32,20.5,9,3.18,2.41.35,5.92-2.25,5.75ZM251.5,131.12c.51,2.21-2.3,4.08-4.38,3.38-1.32-2.39-12.98-13-6.5-14.5,3.32-.77,8.45,8.83,10.88,11.12ZM248.88,82.5c2.35-.58,5.38,1.29,4.62,3.88-.32,1.1-15.24,15.7-16.38,15.88-2,.3-5.04-2.08-3.62-4.88.48-.95,14.34-14.62,15.38-14.88ZM246.62,50c-1.12-.06-19.68-8.48-20.5-9.25-1.96-1.84.29-5.49,2.5-5.5,1.14,0,19.94,8.46,20.75,9.25,2.2,2.15.07,5.65-2.75,5.5ZM231,16.88c.2-.68,6.27-11.47,7.38-11.88,1.83-.67,3.19.23,4.38,1.62.78,2.05-3.18,7.41-5.25,11.88,5,3.54,14.96,4.77,9.62,10.25-.63,1.2-9.31-2.96-9.75-3.25-2.95-1.92-1.53-3.25-1.12-4.5-2.97,1.39-6.26-.67-5.25-4.12ZM212.5,19.88c.17-1.01,10.23-16.58,11-17.25.33-.28,1.28-.85,1.38-.88,2.21-.46,4.87,1.27,4.62,3.62-1.83,2.21-10.68,17.09-11.5,17.75-2.13,1.71-5.91-.84-5.5-3.25ZM221.12,24h1c4.47,4.98-8.63,4.61-1,0ZM210.62,28.25c.79.47,13.28,11.52,13.62,12.38.91,2.23-1.96,5.18-4.62,4.12-.9-.35-13.85-12.2-14.12-13.12-.56-1.88.72-3.42,2.38-4.12,1.03-.13,1.89.25,2.75.75ZM205.12,11.75c2.5-.18,5.3,2.46,3.88,4.88-.78,1.32-20.47,17.25-23.38,19.62-2.21.03-4.52-2.41-3.62-4.62.57-1.41,20.37-17.4,23.12-19.88ZM180.62,15.25c7.11.53-1.19,7.84-1.75,8-3.19.89-5.79-2.93,1.75-8ZM162,15.62c.24-.71,1.86-2.24,2.62-2.38,1.65-.28,3.53.99,3.88,2.62.26,1.22-1,20.99-1,25-2.29,3.32-5.68,1.35-6,.25-.35-1.23.03-24.13.5-25.5ZM160.62,49.25c6.2,1.86,1.22,7.2-.88,1.12l.88-1.12ZM158.75,72.62c.45-.95,12.37-15.82,13.38-16.12,2.32-.71,4.88,1.87,4.38,4.12-.23,1.05-12.11,14.38-13.62,16.62-2.33,1.05-5.68-1.31-4.12-4.62ZM169.12,84c4.08-.11,4.55,4.78,2.25,6-.71.38-14.95,3.56-15.75,3.5-2.71-.21-4.16-4.82-1-6.25.68-.31,13.76-3.23,14.5-3.25ZM157,54.12c-.41,2.58-5.4,4.18-6.5,1-.34-.99-2.51-19.74-2.25-20.75.17-.67,1.66-1.98,2.38-2.12,3.63-.71,3.92,1.79,4.38,4.38.32,1.82,2.14,16.63,2,17.5ZM150.62,13.75c2.5-.1,4.75,3.93,2.25,5.75-.51.37-10.31,3.83-11.75,4-2.4-.91-3.38-4.22-1-5.75.47-.3,9.94-3.98,10.5-4ZM137.12,2.75c7.35,1.44.61,6.94-.62.62l.62-.62ZM125.62,8.5c1.59-.32,2.63.17,3.62,1.38.65.79,8.73,15.38,9.75,17.75-1.91,1.7-3.73,4.27-6,1.75-.67-.75-9.91-16.5-10-17.5-.11-1.2,1.45-3.14,2.62-3.38ZM145.88,71c2.72,1.72,1.25,5.99-1.75,6.25-5.17-2.23-26.39-8.66-28.5-9.75-3.82-1.97-1.73-5.94.25-6.25,1.56-.24,28.67,8.91,30,9.75ZM118.62,50c-1.12-.07-19.67-8.49-20.5-9.25-2.18-1.99.69-5.34,2-5.5,1.15-.14,20.39,8.47,21.25,9.25,2.26,2.06.05,5.68-2.75,5.5ZM103,16.88c.17-.59,5.59-10.29,6-10.75,1.94-2.2,4.03-1.56,5.75.5.76,2.23-3.39,7.69-5.5,12.38,1.73.08,10.84,4.61,11.25,5.62,1.12,7.53-7.59,2.92-10.88.88-3.14-1.96-1.98-2.62-1.38-4.5-2.97,1.39-6.26-.67-5.25-4.12ZM95.5,2.62c.33-.29,1.28-.86,1.38-.88,1.99-.41,4.85,1.35,4.62,3.38-.12,1.06-10.65,17.35-11.5,18-1.94,1.48-5.71-.6-5.5-3,.09-1.03,10.22-16.82,11-17.5ZM91.88,27.75c-2.09-.67-.76-2.76.75-3,3.14-.51,3.62,3.32-.75,3ZM96.5,40.88c.52,1.88-2.3,5-4.88,3.88-.88-.38-13.85-12.2-14.12-13.12-.56-1.88.72-3.42,2.38-4.12.47.06,1.07-.09,1.5,0,.99.19,14.86,12.4,15.12,13.38ZM77.38,11.75c2.24-.07,4.83,2.37,3.88,4.62-.6,1.42-20.82,17.52-23.62,19.88-2.09.17-4.42-2.34-3.62-4.38.56-1.44,20.5-17.97,23.38-20.12ZM52.62,15.25c6.34-.22.13,7.48-1.75,8-3.48.95-5.53-3.2,1.75-8ZM34,15.88c.27-.86,1.69-2.48,2.62-2.62,3.39-.53,4.31,3.46,3.88,6.12-.85,4.58-.4,18.82-1,21.25-.67,2.71-5.39,2.59-6,.5-.35-1.21.04-23.76.5-25.25ZM32.62,49.25c6.92,1.95,0,7.53-.62.62l.62-.62ZM30.75,72.62c.44-.95,12.37-15.82,13.38-16.12,2.32-.71,4.88,1.87,4.38,4.12-.23,1.05-12.07,14.42-13.62,16.62-1.98.89-5.79-1.02-4.12-4.62ZM41.12,84c3.99-.11,4.5,4.73,2.25,6-.69.39-14.71,3.53-15.5,3.5-3-.13-4.46-4.82-1.25-6.25.68-.3,13.76-3.23,14.5-3.25ZM30.88,100c-1.39-1.82,1.45-3.94,3-4.5,3.64,1.05-2.18,4.88-3,4.5ZM29,53.88c-1.04,3.66-5.64,3.73-6.5,1.25-.33-.96-2.66-19.24-2.5-20.25.13-.8,1.75-2.45,2.62-2.62,1.93-.38,3.62.47,4.12,2.38.41,1.55,1.2,14.86,2.25,19.25ZM8.5,3.38l.62-.62c7.25,1.16.81,7.1-.62.62ZM12.88,23.5c-1.67-.38-3.33-4.07-.75-5.75.47-.31,9.94-3.98,10.5-4,2.14-.06,3.65,2.47,3.38,4.38-.32,1.33-11.78,5.68-13.12,5.38ZM4.75,60.62c-.73-1.62.57-4.57,2.38-4.88.58-.1,1.43.08,2,.25.96.28,17.05,8.54,17.75,9.25,2.22,2.26.17,6.38-3.5,5.5-1.24-.3-18.19-9.16-18.62-10.12ZM2.5,91.38c.27-.95,15.44-8.98,16.38-9.12,2.88-.46,5.05,3.42,3,5.5-.62.63-14.87,8.14-15.75,8.25-2.42.31-4.28-2.32-3.62-4.62ZM11.5,95.62l1.12-1.38c6.52,2.06,1.65,5.21-1.12,1.38ZM14.62,111.25c-2.15-1.59-.85-5.78,1.75-6,.99-.08,17.91,5.97,18.75,6.5,2.57,1.61,1.22,5.57-.75,6-1.03.22-18.74-5.75-19.75-6.5ZM30.25,201.38c.33-1.04,12.83-16.57,13.88-16.88,2.08-.61,4.93,1.64,4.38,4.12-.24,1.09-12.46,15.3-14.38,16.88-2.12.26-4.55-2-3.88-4.12ZM29,181.88c-.93,3.49-5.61,3.83-6.5,1.25-.33-.96-2.66-19.24-2.5-20.25.13-.8,1.75-2.45,2.62-2.62,2.19-.43,3.62.55,4.12,2.62.57,2.36,1.11,14.41,2.25,19ZM8.5,131.38l.62-.62c7.29,1.02.83,7.17-.62.62ZM13.88,151.75c-2.38.06-4.63-4.14-1.75-6,.47-.3,9.94-3.97,10.5-4,2.19-.12,4.1,2.99,3.12,4.88-.3.58-11.23,5.11-11.88,5.12ZM4.75,188.62c-.76-1.69.65-4.68,2.62-4.88,1.07-.1,18.42,8.55,19.25,9.25,2.75,2.33.05,6.21-2.5,6-1.1-.09-18.92-9.37-19.38-10.38ZM2.5,219.38c.27-.96,15.44-8.99,16.38-9.12,2.84-.42,5.08,3.38,3,5.5-.6.61-14.18,7.79-15,8-3.05.78-5.03-2.06-4.38-4.38ZM11,222.62l.88-1.12c8.13,3.33,2.4,6.72-.88,1.12ZM34.38,245.75c-1.67.38-20.05-6.14-20.62-7.38-.69-1.47.16-4.46,1.88-4.88.27-.07,1.61-.05,2,0,.94.12,14.91,5.77,17.75,6.5,2.33,1.73.72,5.36-1,5.75ZM33.12,223.75c1.2-.26,2.1.25,1.88,1.62-7.1,6.35-4.23-1.12-1.88-1.62ZM42.62,228.5l1.12.88c-2.39,5.82-7.14,2-1.12-.88ZM43.62,218c-.69.42-14.94,3.53-15.75,3.5-2.86-.12-4.37-4.49-1.75-6,.68-.39,14.47-3.49,15.25-3.5,3.81-.06,4.11,4.88,2.25,6ZM49.88,244.5c-2.23.21-5.07-1.27-4.38-3.88.36-1.34,16.61-19.68,18-21,.97-.92,1.46-1.7,2.88-2.12,2.46.45,4.36,2.31,3.12,4.88-.64,1.33-16.97,19.24-19.62,22.12ZM70.12,243.75c-3.22,1.37-4.67-8.9-2-9.75,3.13-1.71,4.36,9.37,2,9.75ZM78.12,219.25c1.53-.52,2.73,2.11,3.88,2.88.3,3.71-6.39-.83-3.88-2.88ZM85.12,239.25c-3.11,1.65-5.81-1.33-4.62-4.12.4-.94,14.13-13.64,15.12-13.88,2.39-.57,4.94,2.12,4.38,4.12-.28.98-13.98,13.4-14.88,13.88ZM115.88,240.5c-.86.76-20.11,8.89-21.25,8.75-2.15-.27-3.25-4.07-1.5-5.5,2.9-.99,18.68-8.59,19.75-8.75,3.1-.46,5.1,3.65,3,5.5ZM125.5,214.38c-.32,1.1-15.24,15.7-16.38,15.88-2,.3-5.04-2.08-3.62-4.88.48-.95,14.34-14.61,15.38-14.88,2.76-.71,5.3,1.55,4.62,3.88ZM115.12,195.25c-3.01-1.82-1.3-5.65.75-6,1.56-.27,28.65,8.93,30,9.75,2.61,1.58,1.76,6.83-2.75,6-1.46-.27-26.73-8.98-28-9.75ZM127,211.12l.62-.62c7.41,1.01,1.33,7.55-.62.62ZM130.5,219.38c.27-.95,15.44-9,16.38-9.12,3.25-.42,4.73,3.71,3,5.5-.62.64-14.87,8.14-15.75,8.25-2.44.31-4.24-2.4-3.62-4.62ZM139,222.88l.88-1.38c7.68,2.61,3.22,6.95-.88,1.38ZM143.12,239.5c-3.07-1.89-1.17-6.04,1.25-6.25,1-.09,18.19,6.15,19,6.75,2.33,1.73.72,5.36-1,5.75-1.09.24-17.8-5.35-19.25-6.25Z"/><path class="d" d="M0,228v9.53c3.27,3.28,7.48,7.39,11.14,10.93,2.35,2.28,4.48,4.32,5.98,5.75.21.2.42.4.6.58.37.36.69.66.95.9.13.12.24.23.33.31h9c-3.48-3.92-27.57-26.07-28-28Z"/><path class="d" d="M25.62,134.5c2.23,1.34,5.6-1.39,4.88-3.88-.6-2.08-30.02-28.47-30.5-30.62v9.5c8.21,8.59,17.45,16.35,25.62,25Z"/><path class="d" d="M17.88,71c-.93-.6-15.17-5.14-17.88-6v6.75c2.05.74,15.27,5.46,16.12,5.5,2.76.14,4.56-4.44,1.75-6.25Z"/><path class="d" d="M18.12,199.25c-.79-.55-15.8-5.5-18.12-6.25v6.75c2.1.75,15.27,5.45,16.12,5.5,2.92.17,4.54-4.22,2-6Z"/><path class="c" d="M11,27.62C9.88,25.12,1.89,10.67,1.25,9.88c-.26-.32-.89-.98-1.25-1.12v12.25c5.36,9.37,6,11.89,11,6.62Z"/><path class="c" d="M11,155.62c-.89-2.5-9.99-18.44-11-18.88v12.25c5.37,9.39,6.09,11.94,11,6.62Z"/><path class="d" d="M2.62,180.5c.75-.13,12.88-6.79,13.5-7.25,3.56-2.63.37-6.2-2.5-5.75-2.18,1.57-13.01,6.55-13.62,7v5.5c.81.49,1.7.66,2.62.5Z"/><path class="d" d="M2.62,52.5c.8-.15,13.68-7.18,14.25-7.75,2.17-2.17-.24-5.73-3.25-5.25-.76.12-13.02,6.77-13.62,7.25v5.25c.83.47,1.69.68,2.62.5Z"/><path class="d" d="M0,82.5v3c3.24,2.75,5.32-2.07,0-3Z"/><path class="d" d="M0,210.5v3c3.22,2.71,5.05-2.54,0-3Z"/><path class="d" d="M62.25,5.88c-.29,2.32,2.5,4.49,4.62,3.62.67-.27,9.67-8.35,10.88-9.5h-9.75c-.98.95-5.64,5.02-5.75,5.88Z"/><path class="d" d="M190.5,5.38c-.68,2.81,2.04,5.1,4.38,4.12.66-.27,9.37-8.31,10.62-9.5h-9.5c-.82.79-5.39,4.9-5.5,5.38Z"/><path class="d" d="M126.38,227c-2.65-.47-5.06,1.9-3.88,4.62.69,1.59,21.51,21.56,24.5,24.38h9c-6.51-7.34-21.84-20.99-29.62-29Z"/><path class="c" d="M183.38,251.5c-.94-.25-18.34,2.15-19.25,2.5-.61.23-1.76,1.37-1.88,2h22.75c.87-2.13-.55-4.22-1.62-4.5Z"/><path class="c" d="M55.38,251.5c-.94-.25-18.34,2.15-19.25,2.5-.61.23-1.76,1.37-1.88,2h22.75c.84-2.06-.29-4.15-1.62-4.5Z"/><path class="c" d="M247.25,242.38c-1.44,2.57,5.7,10.07,8,13.62h.75v-10.13c-2.5-3.86-5.4-7.21-8.75-3.5Z"/><path class="c" d="M132.5,252.62c-3.31-3.25-8.14-17.03-13.5-9.75-.56,2.44,6.53,10.62,8.25,13.12h1.75c1.17-1.24,2.85-1.65,3.5-3.38Z"/><path class="d" d="M240.12,248.25c-3.94,1.73.62,6,1.88,7.75h7.5c-2.37-.56-5.26-9.56-9.38-7.75Z"/><path class="d" d="M113.5,256h7.75c-1.42-2.02-5.08-5.82-6.88-8-6.57.68-3.04,4.61-.88,8Z"/><path class="d" d="M82.25,256h4.25c-.17-1.67-5.14-3.46-4.25,0Z"/><path class="d" d="M210.25,256h4.5c-.31-.11-4.01-4.56-4.5,0Z"/><path class="c" d="M251.62,112.75c-2.42-.64-5.18,1.2-4.62,3.88.15.72,7.64,11.28,9,11.38v-10c-.7-.91-3.65-5.06-4.38-5.25Z"/><path class="d" d="M256,168.5v-2.75c-3.39-.3-4.19,3.91,0,2.75Z"/><path class="d" d="M256,40.25v-2.5c-3.38-.24-4.21,3.99,0,2.5Z"/><path class="d" d="M124.62,99c-1.6.31-3.01,2.59-2.12,4.62,4.2,3.68,29.17,29.88,31.12,30.88,2.57,1.32,5.54-1.57,4.88-3.88-4.24-3.66-29.42-30.1-31.38-31.12-.87-.45-1.47-.7-2.5-.5Z"/><path class="d" d="M145.88,199c-1.35-.82-28.44-10.02-30-9.75-2.05.35-3.76,4.18-.75,6,1.27.77,26.54,9.48,28,9.75,4.51.83,5.36-4.42,2.75-6Z"/><path class="d" d="M115.62,67.5c2.11,1.09,23.33,7.52,28.5,9.75,3-.26,4.47-4.53,1.75-6.25-1.33-.84-28.44-9.99-30-9.75-1.98.31-4.07,4.28-.25,6.25Z"/><path class="d" d="M54,159.62c-.95,2.07,1.45,4.77,3.62,4.62,2.79-2.41,23.01-18.46,23.62-19.88,1.01-2.3-1.82-4.86-4.12-4.62-2.81,2.46-22.49,18.49-23.12,19.88Z"/><path class="d" d="M182,159.62c-1.05,2.05,1.54,4.79,3.62,4.62,2.93-2.33,22.59-18.32,23.38-19.62,1.5-2.49-1.36-5-3.88-4.88-2.86,2.5-22.43,18.52-23.12,19.88Z"/><path class="d" d="M182,31.62c-.9,2.21,1.42,4.66,3.62,4.62,2.91-2.37,22.6-18.31,23.38-19.62,1.43-2.42-1.37-5.05-3.88-4.88-2.75,2.48-22.55,18.46-23.12,19.88Z"/><path class="d" d="M54,31.88c-.8,2.04,1.53,4.55,3.62,4.38,2.8-2.36,23.02-18.45,23.62-19.88.95-2.25-1.63-4.69-3.88-4.62-2.87,2.15-22.81,18.68-23.38,20.12Z"/><path class="d" d="M49.88,116.5c2.49-2.88,19.29-21,19.88-22.38.88-2.1-1.11-4.26-3.12-4.62-1.68.37-2.02,1.09-3.12,2.12-1.54,1.44-16.61,18.85-17.25,20-1.87,3.35.27,4.84,3.62,4.88Z"/><path class="d" d="M66.38,217.5c-1.41.43-1.91,1.2-2.88,2.12-1.39,1.32-17.64,19.66-18,21-.7,2.6,2.15,4.08,4.38,3.88,2.65-2.88,18.98-20.79,19.62-22.12,1.24-2.56-.67-4.42-3.12-4.88Z"/><path class="d" d="M194.12,217.5c-1.48.18-19.14,20.83-19.88,22.12-1.9,3.35.31,4.75,3.62,4.88,2.7-2.95,18.95-20.81,19.62-22.12,1.4-2.74-1.56-5.1-3.38-4.88Z"/><path class="d" d="M177.88,116.5c2.59-2.88,19-20.79,19.62-22.12,1.37-2.9-1.65-5.09-3.38-4.88-1.54.19-20.14,21.65-20.62,23.12-.82,2.51,2.19,4.15,4.38,3.88Z"/><path class="d" d="M167.5,40.88c0-4.01,1.26-23.78,1-25-.35-1.64-2.23-2.91-3.88-2.62-.76.13-2.38,1.67-2.62,2.38-.47,1.37-.85,24.27-.5,25.5.32,1.1,3.71,3.07,6-.25Z"/><path class="d" d="M37.88,170.5c3.39-1.35,1.35-19.03,2.62-22.88.37-2.79-.15-6.96-3.88-6.38-.55.09-2.15,1.41-2.38,1.88-.68,1.37-1.19,24.47-.75,26,.29,1.02,2.56,2.1,4.38,1.38Z"/><path class="d" d="M168.5,144.12c-.33-1.78-2.04-3.16-3.88-2.88-.74.12-2.41,1.76-2.62,2.38-.45,1.31-.85,24.27-.5,25.5.37,1.27,4.11,3.11,6-.5-.05-4.26,1.26-23.07,1-24.5Z"/><path class="d" d="M39.5,40.62c.6-2.43.15-16.67,1-21.25.43-2.66-.49-6.66-3.88-6.12-.94.15-2.36,1.76-2.62,2.62-.46,1.49-.85,24.04-.5,25.25.61,2.09,5.33,2.21,6-.5Z"/><path class="d" d="M94.12,197.75c1-.52,13.33-14.13,15.88-16.12.9-2.12-.77-4.9-3.12-4.88-.11,0-1.52.44-2,.75-.93.6-14.85,14.9-15.38,15.88-1.56,2.91,1.51,5.99,4.62,4.38Z"/><path class="d" d="M235.12,48.75c-.74.43-1.18.07-2.25.75-.93.59-14.85,14.9-15.38,15.88-1.46,2.7,1.09,5.36,3.62,4.88,1.17-.22,16.42-15.53,16.88-16.62.89-2.12-.58-4.52-2.88-4.88Z"/><path class="d" d="M234.38,176.75c-.07.01-1.15.44-1.25.5-.96.58-15.09,15.14-15.62,16.12-1.64,3.03,1.7,5.68,4.12,4.62,1.06-.46,15.92-15.31,16.38-16.38.98-2.31-1.07-5.3-3.62-4.88Z"/><path class="d" d="M106.88,48.75c-.11,0-1.47.42-2,.75-.94.58-14.88,14.89-15.38,15.88-1.5,2.96,1.57,5.67,4.12,4.62,1.07-.44,15.93-15.31,16.38-16.38.89-2.12-.77-4.9-3.12-4.88Z"/><path class="c" d="M98.12,40.75c.83.76,19.38,9.18,20.5,9.25,2.8.18,5.01-3.44,2.75-5.5-.86-.78-20.1-9.39-21.25-9.25-1.31.16-4.18,3.51-2,5.5Z"/><path class="c" d="M248.88,172.25c-.89-.68-19.38-9.08-20.5-9-2.06.15-4.09,3.74-2.25,5.5.81.78,19.38,9.18,20.5,9.25,2.6.17,5.43-3.34,2.25-5.75Z"/><path class="c" d="M226.12,40.75c.82.77,19.38,9.19,20.5,9.25,2.82.15,4.95-3.35,2.75-5.5-.81-.79-19.61-9.25-20.75-9.25-2.21,0-4.46,3.66-2.5,5.5Z"/><path class="c" d="M120.88,172.25c-.9-.67-19.38-9.08-20.5-9-1.89.13-4.21,3.57-2.25,5.5.8.79,19.38,9.18,20.5,9.25,2.61.17,5.43-3.37,2.25-5.75Z"/><path class="c" d="M26.88,65.25c-.7-.71-16.79-8.97-17.75-9.25-.57-.17-1.42-.35-2-.25-1.81.3-3.11,3.25-2.38,4.88.44.97,17.39,9.83,18.62,10.12,3.67.88,5.72-3.24,3.5-5.5Z"/><path class="c" d="M152.88,71c1.99-.2,4.07-3.61,2-5.75-.76-.78-18.42-9.61-19.5-9.5-2.07.2-3.44,3.09-2.62,4.88.5,1.1,18.75,10.51,20.12,10.38Z"/><path class="c" d="M152.88,199c1.92-.2,4.36-3.79,1.75-6-.82-.69-18.18-9.35-19.25-9.25-1.98.19-3.38,3.19-2.62,4.88.51,1.12,18.74,10.52,20.12,10.38Z"/><path class="c" d="M26.62,193c-.83-.7-18.18-9.35-19.25-9.25-1.98.19-3.38,3.19-2.62,4.88.45,1.01,18.28,10.29,19.38,10.38,2.55.21,5.25-3.67,2.5-6Z"/><path class="d" d="M120.88,210.5c-1.04.27-14.89,13.92-15.38,14.88-1.41,2.8,1.62,5.18,3.62,4.88,1.13-.17,16.06-14.78,16.38-15.88.67-2.32-1.86-4.58-4.62-3.88Z"/><path class="d" d="M120.88,82.5c-1.04.26-14.89,13.92-15.38,14.88-1.41,2.8,1.62,5.18,3.62,4.88,1.13-.17,16.06-14.78,16.38-15.88.75-2.59-2.28-4.46-4.62-3.88Z"/><path class="d" d="M233.5,97.38c-1.41,2.8,1.62,5.18,3.62,4.88,1.13-.17,16.06-14.78,16.38-15.88.75-2.59-2.28-4.46-4.62-3.88-1.04.26-14.89,13.92-15.38,14.88Z"/><path class="d" d="M233.5,225.38c-1.41,2.8,1.62,5.18,3.62,4.88,1.11-.17,15.69-14.59,16.12-15.62,1.18-2.79-1.87-4.75-4.38-4.12-1.04.26-14.89,13.92-15.38,14.88Z"/><path class="c" d="M150.62,32.25c-.71.14-2.2,1.45-2.38,2.12-.26,1.01,1.91,19.76,2.25,20.75,1.1,3.18,6.09,1.58,6.5-1,.14-.87-1.68-15.68-2-17.5-.46-2.59-.74-5.09-4.38-4.38Z"/><path class="d" d="M112.88,235c-1.07.16-16.85,7.76-19.75,8.75-1.75,1.43-.65,5.23,1.5,5.5,1.14.14,20.39-7.99,21.25-8.75,2.1-1.85.1-5.96-3-5.5Z"/><path class="c" d="M218,23.12c.82-.66,9.67-15.54,11.5-17.75.25-2.36-2.41-4.09-4.62-3.62-.1.02-1.05.59-1.38.88-.77.67-10.83,16.24-11,17.25-.41,2.41,3.37,4.96,5.5,3.25Z"/><path class="c" d="M157,182.12c-.89-4.39-1.89-18.15-2.25-19.5-.51-1.91-2.19-2.76-4.12-2.38-.87.17-2.49,1.83-2.62,2.62-.16,1.01,2.17,19.29,2.5,20.25.87,2.52,5.26,2.25,6.5-1Z"/><path class="c" d="M224.88,129.75c-.32.06-1.29.78-1.62,1.12-.72.72-10.64,16.24-10.75,17.25-.24,2.19,3.45,4.92,5.75,2.75.76-.71,9.3-15.13,11.25-17.5.23-2.39-2.38-4.06-4.62-3.62Z"/><path class="d" d="M240.88,235c-1.07.17-16.75,7.75-19.75,8.75-1.74,1.57-.46,5.18,1.5,5.5,1.14.19,20.37-8.01,21.25-8.75,2.17-1.83.03-5.99-3-5.5Z"/><path class="d" d="M240.88,107c-1.07.15-16.91,7.75-19.75,8.75-1.81,1.61-.52,5.15,1.25,5.5,1.14.22,20.62-7.99,21.5-8.75,2.13-1.83.07-5.92-3-5.5Z"/><path class="c" d="M22.62,32.25c-.87.17-2.5,1.83-2.62,2.62-.16,1.01,2.17,19.29,2.5,20.25.86,2.48,5.46,2.41,6.5-1.25-1.05-4.39-1.84-17.7-2.25-19.25-.5-1.91-2.2-2.75-4.12-2.38Z"/><path class="d" d="M112.88,107c-3.44,1.91-18,7.61-19.25,8.5-2.44,1.73-1.25,6.18,2.25,5.75,3.38-1.78,18.25-7.64,19.5-8.5,3.16-2.17.4-6.13-2.5-5.75Z"/><path class="c" d="M22.62,160.25c-.87.17-2.49,1.83-2.62,2.62-.16,1.01,2.17,19.29,2.5,20.25.89,2.58,5.57,2.24,6.5-1.25-1.14-4.59-1.68-16.64-2.25-19-.5-2.07-1.94-3.06-4.12-2.62Z"/><path class="c" d="M90,23.12c.85-.65,11.38-16.94,11.5-18,.22-2.02-2.63-3.79-4.62-3.38-.09.02-1.04.59-1.38.88-.78.68-10.91,16.47-11,17.5-.21,2.4,3.56,4.48,5.5,3Z"/><path class="c" d="M97.12,129.75c-1.44.23-12.06,16.59-12.38,17.62-.9,2.96,2.93,5.81,5.75,3,.72-.72,10.89-16.23,11-17.25.22-2.03-2.6-3.66-4.38-3.38Z"/><path class="c" d="M217.62,48.25c-1.02.11-17.97,7.59-18.75,8.25-2.47,2.09-.56,6.21,2.75,5.75.99-.14,17.45-7.4,18.25-8,2.4-1.8.94-6.33-2.25-6Z"/><path class="c" d="M89.38,48.25c-1,.13-17.72,7.6-18.5,8.25-2.47,2.06-.48,6.16,2.75,5.75,1-.13,17.75-7.57,18.5-8.25,1.89-1.7.7-6.19-2.75-5.75Z"/><path class="d" d="M162.88,205.25c1.53-2.23,13.39-15.58,13.62-16.62.54-2.42-1.99-4.57-4.38-4.12-1.72,2.07-13.62,15.81-13.88,16.88-.61,2.52,2.32,4.88,4.62,3.88Z"/><path class="d" d="M34.12,205.5c1.92-1.58,14.13-15.79,14.38-16.88.55-2.48-2.3-4.74-4.38-4.12-1.05.31-13.54,15.83-13.88,16.88-.68,2.12,1.76,4.39,3.88,4.12Z"/><path class="d" d="M200.88,190.25c1.05-.05,18.47-7.55,19.25-8.25,2.16-1.94.12-5.89-2.5-5.75-1.03.05-18.25,7.54-19,8.25-2.03,1.93.06,5.85,2.25,5.75Z"/><path class="d" d="M34.88,77.25c1.55-2.2,13.39-15.58,13.62-16.62.5-2.26-2.06-4.84-4.38-4.12-1,.31-12.94,15.17-13.38,16.12-1.66,3.61,2.15,5.52,4.12,4.62Z"/><path class="d" d="M162.88,77.25c1.52-2.25,13.39-15.58,13.62-16.62.5-2.26-2.06-4.84-4.38-4.12-1,.31-12.93,15.18-13.38,16.12-1.56,3.31,1.79,5.68,4.12,4.62Z"/><path class="d" d="M89.88,176.25c-1.05,0-18.49,7.53-19.25,8.25-1.95,1.86-.02,5.85,2.25,5.75,1.05-.05,18.5-7.52,19.25-8.25,2.19-2.15-.03-5.77-2.25-5.75Z"/><path class="c" d="M87.88,78.25c-.85-.64-18.69-8.17-19.75-8-1.92.31-3.7,3.75-1,5.75.79.59,17.03,7.84,18,8,3.59.6,5.29-3.84,2.75-5.75Z"/><path class="c" d="M139,27.62c-1.02-2.37-9.1-16.96-9.75-17.75-.99-1.2-2.04-1.7-3.62-1.38-1.17.24-2.73,2.17-2.62,3.38.09,1,9.33,16.75,10,17.5,2.27,2.52,4.09-.05,6-1.75Z"/><path class="c" d="M67.12,204c.79.59,17.03,7.84,18,8,3.47.58,5.16-3.55,3-5.5-.75-.68-17.5-8.08-18.5-8.25-.3-.05-1.49-.06-1.75,0-1.39.32-3.59,3.65-.75,5.75Z"/><path class="c" d="M213.38,212c3.2.36,5.19-3.64,2.5-5.75-.75-.59-16.57-7.51-17.5-7.75-.69-.18-1.85-.4-2.5-.25-1.04.24-2.81,2.67-1.88,4.62.46.97,18.31,9.01,19.38,9.12Z"/><path class="c" d="M216.12,78.5c-.76-.67-17.5-8.1-18.5-8.25-.33-.05-1.19-.05-1.5,0-2.04.35-3.62,3.84-1,5.75.8.58,17.02,7.87,18,8,3.72.5,5.03-3.71,3-5.5Z"/><path class="c" d="M139,154.88c-3.34-4.2-9.62-20.11-13.12-18.38-1.41.36-3.01,1.91-2.88,3.38.09,1,9.33,16.75,10,17.5,2.48,2.77,6.1-1.45,6-2.5Z"/><path class="c" d="M163.38,240c-.81-.6-18-6.84-19-6.75-2.42.21-4.32,4.36-1.25,6.25,1.45.9,18.16,6.49,19.25,6.25,1.72-.39,3.33-4.02,1-5.75Z"/><path class="c" d="M35.38,240c-2.84-.73-16.81-6.38-17.75-6.5-.39-.05-1.73-.07-2,0-1.72.41-2.57,3.4-1.88,4.88.58,1.23,18.95,7.75,20.62,7.38,1.72-.39,3.33-4.02,1-5.75Z"/><path class="c" d="M34.38,117.75c1.97-.43,3.32-4.39.75-6-.84-.53-17.76-6.58-18.75-6.5-2.6.22-3.9,4.41-1.75,6,1.01.75,18.72,6.72,19.75,6.5Z"/><path class="c" d="M142.62,111.25c.83.63,18.56,6.76,19.75,6.5,1.99-.43,3.23-4.45.75-6-.84-.53-17.76-6.58-18.75-6.5-2.61.22-3.88,4.37-1.75,6Z"/><path class="c" d="M72.38,36.5c-1.01.2-17.13,9.88-17.38,10.88-.38,1.51.95,4.4,2.62,4.62,1.01.14,17.02-9.04,17.75-9.75,2.51-2.41.05-6.36-3-5.75Z"/><path class="c" d="M228,225.38c.73-1.79-2.26-4.75-4.12-4.38-1.02.2-14.97,13.16-15.38,14.12-1.19,2.81,1.57,5.57,4.38,4.38.95-.41,14.73-13.17,15.12-14.12Z"/><path class="c" d="M223.62,93.25c-1,.25-14.72,12.93-15.12,13.88-1.2,2.82,1.61,5.54,4.38,4.38.95-.4,13.04-12.45,15.12-14.12.39-2.31-1.92-4.74-4.38-4.12Z"/><path class="c" d="M100,225.38c.56-2.01-1.98-4.7-4.38-4.12-1,.24-14.72,12.93-15.12,13.88-1.19,2.79,1.52,5.77,4.62,4.12.9-.48,14.6-12.9,14.88-13.88Z"/><path class="c" d="M100,97.38c.52-1.86-1.64-4.8-4.38-4.12-.98.24-14.38,12.74-14.88,13.62-1.5,2.69,1.34,5.83,4.12,4.62.95-.41,14.84-13.13,15.12-14.12Z"/><path class="c" d="M204.25,168.88c.48-2.04-1.39-4.68-3.62-4.38-1.02.14-17.11,9.88-17.38,10.88-.61,2.3,1.31,4.86,3.88,4.38,2.21-1.86,16.76-9.34,17.12-10.88Z"/><path class="c" d="M200.38,36.5c-1,.18-16.88,9.89-17.12,10.88-.58,2.32,1.44,4.82,3.88,4.38.92-.17,15.31-8.88,16-9.5,2.76-2.49-.06-6.24-2.75-5.75Z"/><path class="c" d="M228.88,195.5c-1.49.13-3.26,1.88-3.12,3.38.09,1,9.15,16.88,10.12,17.12,1.79.45,5.24-1.52,4.88-3.62-.15-.89-8.37-15.1-9-15.75-.84-.87-1.69-1.23-2.88-1.12Z"/><path class="c" d="M76.25,168.88c.57-2.24-1.64-4.79-3.88-4.38-1,.18-16.85,9.89-17.12,10.88-.52,1.89,1.04,4.87,3.88,4.38,1-.18,16.87-9.89,17.12-10.88Z"/><path class="d" d="M62.75,132.88c-1.51,2.57,1.46,5.74,4.12,4.62.89-.37,12.29-11.34,14.38-12.88,1.01-1.97-1.63-4.69-3.62-4.62-.08,0-1.31.41-1.5.5-.82.4-12.91,11.59-13.38,12.38Z"/><path class="d" d="M190.75,132.88c-1.55,2.58,1.49,5.72,4.12,4.62.89-.37,12.24-11.35,14.38-12.88.99-2.05-1.91-4.79-3.88-4.62-.97.08-14.12,12.04-14.62,12.88Z"/><path class="c" d="M103.5,68.38c-.72-.66-1.93-1-2.88-.88-1.53.19-3.13,2.09-2.88,3.62.16.98,9.3,16.67,10.38,16.88,1.88.36,4.83-1.99,4.62-3.62-.12-.92-8.57-15.37-9.25-16Z"/><path class="d" d="M96.5,168.88c-.27-.97-14.13-13.18-15.12-13.38-.27-.05-1.52-.06-1.75,0-.72.17-2.85,2.24-2.12,4.12.35.9,13.23,12.77,14.12,13.12,2.85,1.13,5.35-2.16,4.88-3.88Z"/><path class="d" d="M209.38,155.5c-.43-.09-1.03.06-1.5,0-1.55.61-3.05,2.37-2.38,4.12.33.86,12.59,12.14,13.38,12.62,3.51,2.16,6.28-1.53,5.38-3.62-.39-.91-13.9-12.93-14.88-13.12Z"/><path class="d" d="M112.75,212.62c-.06-.92-8.38-15.32-9-16-.82-.9-2.2-1.09-3.38-.88-1.2.22-2.72,1.88-2.62,3.12.07,1,8.65,15.43,10.12,17.12,2.1.56,4.95-2.1,4.88-3.38Z"/><path class="d" d="M79.88,27.5c-1.65.7-2.94,2.24-2.38,4.12.28.92,13.24,12.74,14.12,13.12,2.58,1.12,5.39-2,4.88-3.88-.27-.97-14.13-13.18-15.12-13.38-.43-.09-1.03.06-1.5,0Z"/><path class="d" d="M207.88,27.5c-1.65.7-2.94,2.24-2.38,4.12.28.92,13.23,12.77,14.12,13.12,2.67,1.06,5.53-1.89,4.62-4.12-.35-.85-12.83-11.91-13.62-12.38-.86-.5-1.72-.88-2.75-.75Z"/><path class="d" d="M236.12,88c1.91,0,4.98-1.69,4.38-3.88-.38-1.37-9.18-16.14-10.12-16.38-.24-.06-1.98-.06-2.25,0-.89.19-2.34,1.73-2.38,2.62-.04,1.03,9.2,17.39,10.38,17.62Z"/><path class="c" d="M54.38,123.25c-.92-.07-17.39,2.41-18.25,2.75-3,1.2-2.05,5.83,1,6,.93.05,17.62-2.43,18.5-2.75,2.93-1.08,1.72-5.77-1.25-6Z"/><path class="c" d="M165.12,132c.93.05,17.62-2.43,18.5-2.75,2.9-1.07,1.77-5.74-1.25-6-.92-.08-17.39,2.4-18.25,2.75-3,1.21-2.05,5.83,1,6Z"/><path class="c" d="M18.88,82.25c-.93.15-16.1,8.17-16.38,9.12-.66,2.31,1.21,4.94,3.62,4.62.88-.11,15.13-7.62,15.75-8.25,2.05-2.08-.12-5.96-3-5.5Z"/><path class="c" d="M18.88,210.25c-.93.14-16.11,8.17-16.38,9.12-.65,2.32,1.33,5.16,4.38,4.38.82-.21,14.4-7.39,15-8,2.08-2.12-.16-5.92-3-5.5Z"/><path class="c" d="M146.88,210.25c-.94.12-16.11,8.17-16.38,9.12-.62,2.23,1.19,4.94,3.62,4.62.88-.11,15.13-7.61,15.75-8.25,1.73-1.79.25-5.92-3-5.5Z"/><path class="c" d="M130.5,91.38c-.65,2.27,1.28,4.89,3.62,4.62.88-.1,15.13-7.61,15.75-8.25,2.08-2.16-.22-5.89-3-5.5-.93.13-16.12,8.22-16.38,9.12Z"/><path class="d" d="M130.62,180.5c.8-.14,13.68-7.17,14.25-7.75,2.2-2.24-.25-5.75-3.25-5.25-.86.14-14.88,7.79-15.12,8.62-.52,1.78.99,4.91,4.12,4.38Z"/><path class="d" d="M130.62,52.5c.8-.14,13.67-7.18,14.25-7.75,2.29-2.25-.38-5.76-3.25-5.25-.87.15-14.89,7.8-15.12,8.88-.19,2.67,1.46,4.58,4.12,4.12Z"/><path class="d" d="M169.12,212c-.74.02-13.82,2.94-14.5,3.25-3.42,1.55-1.61,6.13,1.25,6.25.81.03,15.06-3.08,15.75-3.5,1.81-1.09,1.71-6.14-2.5-6Z"/><path class="d" d="M41.38,212c-.78.01-14.57,3.11-15.25,3.5-2.62,1.51-1.11,5.88,1.75,6,.81.03,15.06-3.08,15.75-3.5,1.86-1.12,1.56-6.06-2.25-6Z"/><path class="d" d="M155.62,93.5c.8.06,15.04-3.12,15.75-3.5,2.3-1.22,1.83-6.11-2.25-6-.74.02-13.82,2.94-14.5,3.25-3.16,1.43-1.71,6.04,1,6.25Z"/><path class="d" d="M27.88,93.5c.79.03,14.81-3.11,15.5-3.5,2.25-1.27,1.74-6.11-2.25-6-.74.02-13.82,2.95-14.5,3.25-3.21,1.43-1.75,6.12,1.25,6.25Z"/><path class="d" d="M57,214.12c.33-.59,2.51-12.58,2.5-13.25-.02-2.18-1.93-4.23-4.12-3.88-.73.12-2.13,1.5-2.38,2.12-.26.68-2.04,13.79-1.75,14.5.77,1.89,4.48,2.73,5.75.5Z"/><path class="d" d="M181,71.38c-.41,1.13-2.02,13.58-1.75,14.25.72,1.77,4.97,3.31,6.25-.75.19-.59,2.02-11.63,2-12.25-.06-2.12-2-3.99-4.12-3.62-.87.15-2.08,1.55-2.38,2.38Z"/><path class="d" d="M185.25,213.62c.25-.6,2.26-12.1,2.25-12.75-.02-2.14-1.98-4.24-4.12-3.88-.87.15-2.08,1.55-2.38,2.38-.4,1.12-2.02,13.58-1.75,14.25.72,1.76,4.78,2.97,6,0Z"/><path class="d" d="M53,71.38c-.3.82-2.02,13.58-1.75,14.25.69,1.7,4.41,2.76,5.75.5.35-.59,2.53-12.81,2.5-13.5-.08-2.05-2.08-3.97-4.12-3.62-.88.15-2.07,1.55-2.38,2.38Z"/><path class="d" d="M238.88,132.75c-1.84.3-8.28,12.49-8.12,13.88.26,2.42,3.62,3.49,5.5,2.38.27-.85.89-1.69,1.25-2.5,3.5-7.78,9.29-12.73,1.38-13.75Z"/><path class="d" d="M114.75,134.62c-1.66-2.05-3.83-2.65-5.75-.5-.47.52-6.39,11.24-6.25,12.5.26,2.42,3.62,3.49,5.5,2.38.55-1.57,1.2-2.13,1.25-2.25,2.25-4.96,5.96-10.12,5.25-12.12Z"/><path class="d" d="M108.25,21c.26-.81.68-1.29,1-2,2.11-4.68,6.26-10.15,5.5-12.38-1.72-2.06-3.81-2.7-5.75-.5-.41.46-5.83,10.16-6,10.75-1.01,3.45,2.28,5.51,5.25,4.12Z"/><path class="d" d="M236.25,21c.31-.95.85-1.64,1.25-2.5,2.07-4.47,6.03-9.83,5.25-11.88-1.18-1.4-2.55-2.3-4.38-1.62-1.1.4-7.18,11.2-7.38,11.88-1.01,3.45,2.28,5.51,5.25,4.12Z"/><path class="c" d="M122.62,112.5c-2.11-.02-4.06,1.98-3.62,4.12.14.7,7.92,11.24,8.62,11.38,1.56.29,5.03-1.98,4.62-3.88-1.79-2.07-7.23-11.6-9.62-11.62Z"/><path class="d" d="M123.25,130.62c-.28-.62-7.97-10.43-8.62-10.62-.18-.05-1.78-.05-2,0-1.05.25-2.67,2.12-1.62,4.38.27.57,7.3,9.62,7.88,9.88,2.41,1.06,5.58-.94,4.38-3.62Z"/><path class="d" d="M240.62,120c-6.48,1.5,5.18,12.11,6.5,14.5,2.07.71,4.88-1.16,4.38-3.38-2.43-2.3-7.55-11.89-10.88-11.12Z"/><path class="d" d="M25.75,146.62c.98-1.88-.94-5-3.12-4.88-.56.03-10.03,3.7-10.5,4-2.88,1.86-.63,6.06,1.75,6,.65-.02,11.58-4.55,11.88-5.12Z"/><path class="d" d="M26,18.12c.27-1.91-1.23-4.44-3.38-4.38-.56.02-10.03,3.69-10.5,4-2.58,1.68-.92,5.37.75,5.75,1.34.31,12.8-4.04,13.12-5.38Z"/><path class="d" d="M140.88,151.5c1.04.24,11.47-3.64,12-4,2.57-1.73.31-5.88-2.25-5.75-.56.03-10.03,3.69-10.5,4-2.49,1.67-1,5.35.75,5.75Z"/><path class="d" d="M141.12,23.5c1.44-.17,11.24-3.63,11.75-4,2.5-1.82.25-5.85-2.25-5.75-.56.02-10.03,3.7-10.5,4-2.38,1.53-1.4,4.84,1,5.75Z"/><path class="d" d="M237.38,25.5c.44.29,9.12,4.45,9.75,3.25,5.34-5.48-4.62-6.71-9.62-10.25-.4.86-.94,1.55-1.25,2.5-.4,1.25-1.82,2.58,1.12,4.5Z"/><path class="d" d="M109.62,25.5c3.29,2.05,12,6.65,10.88-.88-.41-1.02-9.52-5.55-11.25-5.62-.32.71-.74,1.19-1,2-.61,1.88-1.77,2.54,1.38,4.5Z"/><path class="d" d="M236,152.38c.34.51,9.83,5.68,11.12,4.38,5.51-5.63-5.66-7.11-9.62-10.25-.36.81-.98,1.65-1.25,2.5-.44,1.37-1.03,1.88-.25,3.38Z"/><path class="d" d="M108,152.38c.34.51,9.84,5.66,11.12,4.38,5.35-5.43-5.2-7.29-9.62-10-.05.12-.7.68-1.25,2.25-.43,1.23-1.17,1.96-.25,3.38Z"/><path class="d" d="M180.62,143.25c-.72.09-8.44,6.5-3.25,8,5.94-1.43,8.28-8.64,3.25-8Z"/><path class="d" d="M50.88,23.25c1.88-.52,8.09-8.22,1.75-8-7.28,4.8-5.23,8.95-1.75,8Z"/><path class="d" d="M178.88,23.25c.56-.16,8.86-7.47,1.75-8-7.54,5.07-4.94,8.89-1.75,8Z"/><path class="d" d="M50.88,151.25c6.25-4.76,5.17-8.43,1.75-8-1.1.14-9.47,7.87-1.75,8Z"/><path class="d" d="M70.12,115.75c2.32-.58,1.32-11.24-2-9.75-2.76.68-1.18,11.08,2,9.75Z"/><path class="d" d="M68.12,234c-2.67.85-1.22,11.12,2,9.75,2.36-.38,1.13-11.46-2-9.75Z"/><path class="d" d="M196.62,233.75c-3.19.25-2.08,10.91,1.5,10,2.28-.52,1.13-10.41-1.5-10Z"/><path class="d" d="M196.12,106c-2.95.82-.89,14.04,3.38,8.38-.75-2.95.34-9.14-3.38-8.38Z"/><path class="d" d="M222.12,24h-1c-7.63,4.61,5.47,4.98,1,0Z"/><path class="d" d="M139.88,221.5l-.88,1.38c4.09,5.58,8.55,1.23.88-1.38Z"/><path class="d" d="M139.88,93.5l-.88,1.38c4.19,5.54,8.44,1.28.88-1.38Z"/><path class="c" d="M206.12,91.25c-2.4.82,2.33,6.08,4.12,3.62.1-.43-2.94-4.4-4.12-3.62Z"/><path class="c" d="M207.38,219.25h-1.25c-2.64,4.03,8.68,7.25,1.25,0Z"/><path class="c" d="M79.12,91.25h-1c-2.69,4.3,9.27,6.92,1,0Z"/><path class="d" d="M30.88,100c.82.38,6.64-3.45,3-4.5-1.55.56-4.39,2.68-3,4.5Z"/><path class="c" d="M82,222.12c-1.14-.77-2.35-3.4-3.88-2.88-2.51,2.05,4.17,6.58,3.88,2.88Z"/><path class="d" d="M11.88,221.5l-.88,1.12c3.28,5.6,9,2.21.88-1.12Z"/><path class="d" d="M159.62,100c1.44-1.29,5.4-2.97,2.25-4.5-3.39,1.34-4.54,4.79-2.25,4.5Z"/><path class="d" d="M161.12,223.75c-8.36,8.37,5.3,1.54,1.25,0h-1.25Z"/><path class="d" d="M82,127.38c3.39,5.28,7.74-.71.88-1.38l-.88,1.38Z"/><path class="d" d="M127.62,82.5l-.62.62c2.11,6.92,8.1.57.62-.62Z"/><path class="d" d="M127.62,210.5l-.62.62c1.96,6.92,8.04.39.62-.62Z"/><path class="d" d="M35,225.38c.23-1.38-.68-1.88-1.88-1.62-2.36.51-5.22,7.98,1.88,1.62Z"/><path class="d" d="M211.12,126l-.88.88c1.05,5.38,8.8.59.88-.88Z"/><path class="d" d="M59.25,55.12l-.88-.62c-5.31,5.27-.39,8.91.88.62Z"/><path class="c" d="M32.62,49.25l-.62.62c.62,6.9,7.55,1.33.62-.62Z"/><path class="c" d="M9.12,130.75l-.62.62c1.45,6.54,7.92.4.62-.62Z"/><path class="c" d="M161.88,177.5h-1.5c-2.42,4.89,6.71,4.94,1.5,0Z"/><path class="c" d="M137.12,130.75l-.62.62c1.47,6.53,7.86.44.62-.62Z"/><path class="c" d="M9.12,2.75l-.62.62c1.44,6.48,7.87.54.62-.62Z"/><path class="c" d="M160.62,49.25l-.88,1.12c2.09,6.07,7.08.74.88-1.12Z"/><path class="c" d="M137.12,2.75l-.62.62c1.23,6.31,7.97.82.62-.62Z"/><path class="d" d="M92.62,152.75c-.79.12-2.14,1.27-1.88,2.12,4.34,3.11,6.13-2.77,1.88-2.12Z"/><path class="c" d="M31.75,178.38c2.25,6.12,6.97.66.88-1.12l-.88,1.12Z"/><path class="d" d="M220.62,152.75c-1.87.24-2.81,2.54-.5,3,3.3.66,4.12-3.46.5-3Z"/><path class="d" d="M92.62,24.75c-1.51.24-2.84,2.33-.75,3,4.37.32,3.89-3.51.75-3Z"/><path class="d" d="M49.62,40c-1.35.4.58,6.05,1.75,5.75,1.39-.49-.51-6.35-1.75-5.75Z"/><path class="d" d="M180.25,172.62c-1.19-2.13-1.3-5.04-2.62-4.62-1.53.4,1.09,8.27,2.62,4.62Z"/><path class="d" d="M177.62,40c-1.64.42.88,4.72,1.12,5.62,2.97,1.04-.02-5.91-1.12-5.62Z"/><path class="d" d="M43.75,229.38l-1.12-.88c-6.01,2.87-1.27,6.7,1.12.88Z"/><path class="d" d="M52.25,172.62c-1.39-2.16-1.22-5.04-2.62-4.62-1.64.43,1.3,8.13,2.62,4.62Z"/><path class="d" d="M187.25,54.88l-1.12-.38c-4.44,6.36-.48,8.28,1.12.38Z"/><path class="d" d="M170.12,100.75c-1.1.13-3.55,2.68-1.75,3.75,2.28-.19,4.99-4.13,1.75-3.75Z"/><path class="d" d="M187.25,182.88l-1.12-.38c-4.37,6.12-.78,8.55,1.12.38Z"/><path class="d" d="M171.5,228.88l-.88-.38c-6.85,3.56.36,6.14.88.38Z"/><path class="d" d="M57.12,188c.33-.1,3.5-6.35,1-5.5-.65.18-3.52,6.3-1,5.5Z"/><path class="d" d="M125.62,168.5c4.78.19,4.81-3.14,1.5-2.75-1.28.15-2.89,1.69-1.5,2.75Z"/><path class="d" d="M43.5,101.12l-.88-.62c-6.41,2.93-.19,6.41.88.62Z"/><path class="d" d="M12.62,94.25l-1.12,1.38c2.77,3.84,7.65.69,1.12-1.38Z"/><path class="d" d="M127.62,37.75c-1.24.04-3.74,1.58-2,2.75,4.26.36,4.96-2.85,2-2.75Z"/><path class="e" d="M0,85.5v6.54c.07-2.57.12-5.11,0-6.54Z"/><path class="e" d="M0,213.5v6.54c.07-2.57.12-5.11,0-6.54Z"/><path class="e" d="M17.72,254.78c-.19-.18-.39-.37-.6-.58-1.5-1.43-3.62-3.47-5.98-5.75-3.66-3.54-7.87-7.64-11.14-10.93v8.34c1.56,2.41,2.97,5.03,4.25,6.25.33,2.03-2.04,2.78-3.25,3.88h10.6c2.47-.02,4.93-.04,7.4,0-.09-.09-.2-.19-.33-.31-.25-.24-.57-.54-.95-.9Z"/><path class="c" d="M4.25,252.12c-1.28-1.23-2.69-3.84-4.25-6.25v10.13h1c1.21-1.1,3.58-1.85,3.25-3.88Z"/><path class="c" d="M0,118v10c7.31-1.78,2.98-6.11,0-10Z"/><path class="d" d="M1.28,167.32c.13-.31.17-.63.04-.9-.06-.14-.16-.26-.31-.36-.22-.16-.55-.27-1.01-.31v2.75c.52-.14,1.05-.64,1.28-1.18Z"/><path class="d" d="M0,37.75v2.5c2.12-.75,1.73-2.38,0-2.5Z"/><path class="e" d="M79.51.01c.07,0,.15,0,.22-.01h-1.98c.48.05,1.11.04,1.76.01Z"/><path class="e" d="M207.6,0h-2.1c.56.06,1.33.04,2.1,0Z"/><path class="e" d="M251.21.06c.27,0,.55,0,.83-.02.67-.02,1.37-.03,2-.04h-4.54c.26.06.91.07,1.71.06Z"/><path class="e" d="M229.94,0h-15.19c.73.26,8.18.11,15.19,0Z"/><path class="d" d="M30.5,4.38c.1-.5.09-.91,0-1.28s-.28-.69-.52-1c-.12-.16-.26-.31-.4-.47-.3-.32-.64-.64-1.01-1.02-.18-.19-.37-.39-.57-.61h-9c5.85,5.51,7.78,9.68,11.5,4.38Z"/><path class="d" d="M158.5,4.38c.4-1.99-.96-2.63-2.5-4.38h-9c5.75,5.42,7.88,9.75,11.5,4.38Z"/><path class="c" d="M162.49,1.82c.4,1.06,1.19,2.03,2.14,2.18.91.14,17.36-2.25,18.25-2.5.91-.25,1.66-.61,2.12-1.5h-22.75c-.03.18-.04.37-.03.56.02.4.11.83.27,1.25Z"/><path class="c" d="M34.49,1.82c.4,1.06,1.19,2.03,2.14,2.18.91.14,17.36-2.25,18.25-2.5.91-.25,1.66-.61,2.12-1.5h-22.75c-.03.18-.04.37-.03.56.02.4.11.83.27,1.25Z"/><path class="d" d="M245.57,4.86c.37.38.74.72,1.13,1,.39.28.79.5,1.19.62.81.26,1.65.16,2.48-.49.9-.7,1.23-1.32,1.24-1.92,0-.24-.05-.48-.14-.71-.17-.47-.49-.93-.84-1.42-.17-.24-.35-.49-.51-.74-.25-.38-.48-.78-.63-1.21h-7.5c.53.74,1.22,1.86,2.02,2.96.48.66,1,1.32,1.55,1.9Z"/><path class="d" d="M123.5,4.62c.35-1.43-1.38-3.38-2.25-4.62h-7.75c3.41,2.4,5.36,10.57,10,4.62Z"/><path class="d" d="M86.5,0h-4.25c.31.08,3.86,3.5,4.25,0Z"/><path class="d" d="M213.27,1.4c.59-.05,1.13-.42,1.48-1.4h-4.5s.05.02.08.05c.38.25,1.76,1.45,2.94,1.36Z"/><path class="e" d="M11.6,0H1c3.53.07,7.07.03,10.6,0Z"/></svg>